<svg xmlns="http://www.w3.org/2000/svg" width="1240" height="262" viewBox="0 0 1240 262">
  <g id="Grupo_1080916" data-name="Grupo 1080916" transform="translate(-181 -9729)">
    <rect id="Rectángulo_380972" data-name="Rectángulo 380972" width="1240" height="262" transform="translate(181 9729)" fill="#f6f6f6"/>
    <g id="Grupo_1080204" data-name="Grupo 1080204" transform="translate(-8 0.681)">
      <path id="Trazado_828905" data-name="Trazado 828905" d="M-19.38-3.59A1.338,1.338,0,0,0-19.886-4.7a6.284,6.284,0,0,0-1.777-.826,17.044,17.044,0,0,1-2.078-.826q-2.625-1.29-2.625-3.544a3.178,3.178,0,0,1,.654-1.981,4.23,4.23,0,0,1,1.851-1.336,7.2,7.2,0,0,1,2.69-.478,6.3,6.3,0,0,1,2.612.52,4.135,4.135,0,0,1,1.8,1.48,3.864,3.864,0,0,1,.64,2.194h-3.247a1.633,1.633,0,0,0-.506-1.28,1.971,1.971,0,0,0-1.368-.455,2.222,2.222,0,0,0-1.378.385,1.181,1.181,0,0,0-.506.979,1.189,1.189,0,0,0,.557.942,7.02,7.02,0,0,0,1.958.872,11.991,11.991,0,0,1,2.3.969,3.866,3.866,0,0,1,2.189,3.479A3.3,3.3,0,0,1-17.46-.826,5.942,5.942,0,0,1-21.125.186,7.27,7.27,0,0,1-24.1-.4a4.483,4.483,0,0,1-2-1.614,4.206,4.206,0,0,1-.673-2.361h3.266a2.072,2.072,0,0,0,.561,1.6,2.653,2.653,0,0,0,1.823.515,2.1,2.1,0,0,0,1.276-.348A1.148,1.148,0,0,0-19.38-3.59ZM-9.741.186A5.16,5.16,0,0,1-13.48-1.192a4.757,4.757,0,0,1-1.429-3.586v-.26a6.165,6.165,0,0,1,.571-2.718,4.175,4.175,0,0,1,1.665-1.823,5.027,5.027,0,0,1,2.6-.645,4.345,4.345,0,0,1,3.34,1.313,5.159,5.159,0,0,1,1.225,3.66v1.215h-6.216a2.253,2.253,0,0,0,.733,1.327,2.181,2.181,0,0,0,1.466.482A2.81,2.81,0,0,0-7.208-3.266L-5.78-1.577A3.994,3.994,0,0,1-7.436-.292,5.6,5.6,0,0,1-9.741.186Zm-.353-8q-1.373,0-1.633,1.818h3.154v-.241A1.549,1.549,0,0,0-8.953-7.4,1.514,1.514,0,0,0-10.094-7.812Zm11.912.6L.789-7.283A1.85,1.85,0,0,0-1.1-6.355V0H-4.23V-10.038H-1.3l.1,1.29A2.421,2.421,0,0,1,1-10.224a3.049,3.049,0,0,1,.872.111ZM6.244,0H3.108V-10.038H6.244ZM2.922-12.636a1.408,1.408,0,0,1,.482-1.1,1.813,1.813,0,0,1,1.252-.429,1.813,1.813,0,0,1,1.252.429,1.408,1.408,0,0,1,.482,1.1,1.408,1.408,0,0,1-.482,1.1,1.813,1.813,0,0,1-1.252.429A1.813,1.813,0,0,1,3.4-11.534,1.408,1.408,0,0,1,2.922-12.636ZM13.025.186A5.16,5.16,0,0,1,9.287-1.192,4.757,4.757,0,0,1,7.858-4.778v-.26a6.165,6.165,0,0,1,.571-2.718,4.175,4.175,0,0,1,1.665-1.823,5.027,5.027,0,0,1,2.6-.645,4.345,4.345,0,0,1,3.34,1.313,5.159,5.159,0,0,1,1.225,3.66v1.215H11.04a2.253,2.253,0,0,0,.733,1.327,2.181,2.181,0,0,0,1.466.482,2.81,2.81,0,0,0,2.319-1.039l1.429,1.688A3.994,3.994,0,0,1,15.331-.292,5.6,5.6,0,0,1,13.025.186Zm-.353-8q-1.373,0-1.633,1.818h3.154v-.241a1.549,1.549,0,0,0-.38-1.164A1.514,1.514,0,0,0,12.673-7.812Zm11.1,4.991a.722.722,0,0,0-.417-.64,6.35,6.35,0,0,0-1.586-.5,7.234,7.234,0,0,1-1.93-.682,3.232,3.232,0,0,1-1.16-1.025,2.448,2.448,0,0,1-.4-1.382,2.774,2.774,0,0,1,1.141-2.278,4.7,4.7,0,0,1,2.987-.9,5.208,5.208,0,0,1,3.191.9A2.814,2.814,0,0,1,26.8-6.958H23.667q0-1.206-1.271-1.206a1.26,1.26,0,0,0-.826.274.847.847,0,0,0-.334.682.778.778,0,0,0,.408.677,3.857,3.857,0,0,0,1.3.427,11.264,11.264,0,0,1,1.573.4,2.857,2.857,0,0,1,2.264,2.792,2.629,2.629,0,0,1-1.22,2.236A5.35,5.35,0,0,1,22.4.186a5.46,5.46,0,0,1-2.3-.464A3.847,3.847,0,0,1,18.527-1.54a2.857,2.857,0,0,1-.566-1.679h2.922A1.208,1.208,0,0,0,21.347-2.2a1.908,1.908,0,0,0,1.141.32,1.5,1.5,0,0,0,.96-.26A.831.831,0,0,0,23.769-2.82Z" transform="translate(774.458 9778.819)" fill="#12263f"/>
      <text id="_" data-name="=" transform="translate(860.458 9896.819)" fill="#12263f" font-size="31" font-family="Roboto-Bold, Roboto" font-weight="700"><tspan x="-8.87" y="0">=</tspan></text>
      <path id="Trazado_828895" data-name="Trazado 828895" d="M-19.38-3.59A1.338,1.338,0,0,0-19.886-4.7a6.284,6.284,0,0,0-1.777-.826,17.044,17.044,0,0,1-2.078-.826q-2.625-1.29-2.625-3.544a3.178,3.178,0,0,1,.654-1.981,4.23,4.23,0,0,1,1.851-1.336,7.2,7.2,0,0,1,2.69-.478,6.3,6.3,0,0,1,2.612.52,4.135,4.135,0,0,1,1.8,1.48,3.864,3.864,0,0,1,.64,2.194h-3.247a1.633,1.633,0,0,0-.506-1.28,1.971,1.971,0,0,0-1.368-.455,2.222,2.222,0,0,0-1.378.385,1.181,1.181,0,0,0-.506.979,1.189,1.189,0,0,0,.557.942,7.02,7.02,0,0,0,1.958.872,11.991,11.991,0,0,1,2.3.969,3.866,3.866,0,0,1,2.189,3.479A3.3,3.3,0,0,1-17.46-.826,5.942,5.942,0,0,1-21.125.186,7.27,7.27,0,0,1-24.1-.4a4.483,4.483,0,0,1-2-1.614,4.206,4.206,0,0,1-.673-2.361h3.266a2.072,2.072,0,0,0,.561,1.6,2.653,2.653,0,0,0,1.823.515,2.1,2.1,0,0,0,1.276-.348A1.148,1.148,0,0,0-19.38-3.59ZM-9.741.186A5.16,5.16,0,0,1-13.48-1.192a4.757,4.757,0,0,1-1.429-3.586v-.26a6.165,6.165,0,0,1,.571-2.718,4.175,4.175,0,0,1,1.665-1.823,5.027,5.027,0,0,1,2.6-.645,4.345,4.345,0,0,1,3.34,1.313,5.159,5.159,0,0,1,1.225,3.66v1.215h-6.216a2.253,2.253,0,0,0,.733,1.327,2.181,2.181,0,0,0,1.466.482A2.81,2.81,0,0,0-7.208-3.266L-5.78-1.577A3.994,3.994,0,0,1-7.436-.292,5.6,5.6,0,0,1-9.741.186Zm-.353-8q-1.373,0-1.633,1.818h3.154v-.241A1.549,1.549,0,0,0-8.953-7.4,1.514,1.514,0,0,0-10.094-7.812Zm11.912.6L.789-7.283A1.85,1.85,0,0,0-1.1-6.355V0H-4.23V-10.038H-1.3l.1,1.29A2.421,2.421,0,0,1,1-10.224a3.049,3.049,0,0,1,.872.111ZM6.244,0H3.108V-10.038H6.244ZM2.922-12.636a1.408,1.408,0,0,1,.482-1.1,1.813,1.813,0,0,1,1.252-.429,1.813,1.813,0,0,1,1.252.429,1.408,1.408,0,0,1,.482,1.1,1.408,1.408,0,0,1-.482,1.1,1.813,1.813,0,0,1-1.252.429A1.813,1.813,0,0,1,3.4-11.534,1.408,1.408,0,0,1,2.922-12.636ZM13.025.186A5.16,5.16,0,0,1,9.287-1.192,4.757,4.757,0,0,1,7.858-4.778v-.26a6.165,6.165,0,0,1,.571-2.718,4.175,4.175,0,0,1,1.665-1.823,5.027,5.027,0,0,1,2.6-.645,4.345,4.345,0,0,1,3.34,1.313,5.159,5.159,0,0,1,1.225,3.66v1.215H11.04a2.253,2.253,0,0,0,.733,1.327,2.181,2.181,0,0,0,1.466.482,2.81,2.81,0,0,0,2.319-1.039l1.429,1.688A3.994,3.994,0,0,1,15.331-.292,5.6,5.6,0,0,1,13.025.186Zm-.353-8q-1.373,0-1.633,1.818h3.154v-.241a1.549,1.549,0,0,0-.38-1.164A1.514,1.514,0,0,0,12.673-7.812Zm11.1,4.991a.722.722,0,0,0-.417-.64,6.35,6.35,0,0,0-1.586-.5,7.234,7.234,0,0,1-1.93-.682,3.232,3.232,0,0,1-1.16-1.025,2.448,2.448,0,0,1-.4-1.382,2.774,2.774,0,0,1,1.141-2.278,4.7,4.7,0,0,1,2.987-.9,5.208,5.208,0,0,1,3.191.9A2.814,2.814,0,0,1,26.8-6.958H23.667q0-1.206-1.271-1.206a1.26,1.26,0,0,0-.826.274.847.847,0,0,0-.334.682.778.778,0,0,0,.408.677,3.857,3.857,0,0,0,1.3.427,11.264,11.264,0,0,1,1.573.4,2.857,2.857,0,0,1,2.264,2.792,2.629,2.629,0,0,1-1.22,2.236A5.35,5.35,0,0,1,22.4.186a5.46,5.46,0,0,1-2.3-.464A3.847,3.847,0,0,1,18.527-1.54a2.857,2.857,0,0,1-.566-1.679h2.922A1.208,1.208,0,0,0,21.347-2.2a1.908,1.908,0,0,0,1.141.32,1.5,1.5,0,0,0,.96-.26A.831.831,0,0,0,23.769-2.82Z" transform="translate(580.458 9778.819)" fill="#12263f"/>
      <path id="Trazado_828915" data-name="Trazado 828915" d="M-43.7,0V-12.8h4.122a6.064,6.064,0,0,1,3.05.769,5.406,5.406,0,0,1,2.114,2.171,6.554,6.554,0,0,1,.769,3.142v.589a6.592,6.592,0,0,1-.743,3.151A5.429,5.429,0,0,1-36.483-.8a5.93,5.93,0,0,1-3.01.8Zm3.085-10.415v8.042h1.072a2.4,2.4,0,0,0,2.039-.945A4.63,4.63,0,0,0-36.8-6.126V-6.68a4.592,4.592,0,0,0-.712-2.795,2.442,2.442,0,0,0-2.074-.94ZM-26.846,0a3.344,3.344,0,0,1-.281-.853A2.754,2.754,0,0,1-29.413.176,3.374,3.374,0,0,1-31.7-.637a2.588,2.588,0,0,1-.94-2.043A2.66,2.66,0,0,1-31.5-5.019a5.821,5.821,0,0,1,3.322-.791h.914v-.5q0-1.316-1.134-1.316a.927.927,0,0,0-1.055,1.042H-32.41a2.655,2.655,0,0,1,1.173-2.239,4.931,4.931,0,0,1,2.993-.86A4.323,4.323,0,0,1-25.37-8.8a3.086,3.086,0,0,1,1.081,2.435v4.21a4.311,4.311,0,0,0,.4,2V0ZM-28.7-1.934a1.652,1.652,0,0,0,.918-.237,1.487,1.487,0,0,0,.523-.536V-4.228h-.861q-1.547,0-1.547,1.389a.848.848,0,0,0,.272.655A.986.986,0,0,0-28.7-1.934Zm9.5-9.94V-9.51h1.564v2.057H-19.2V-3.1a1.111,1.111,0,0,0,.193.747,1.037,1.037,0,0,0,.765.211A4.345,4.345,0,0,0-17.5-2.2V-.079a5.466,5.466,0,0,1-1.67.255,3.1,3.1,0,0,1-2.259-.721,2.954,2.954,0,0,1-.729-2.188v-4.72h-1.213V-9.51h1.213v-2.364ZM-11.114,0A3.344,3.344,0,0,1-11.4-.853,2.754,2.754,0,0,1-13.68.176a3.374,3.374,0,0,1-2.285-.813,2.588,2.588,0,0,1-.94-2.043,2.66,2.66,0,0,1,1.143-2.338,5.821,5.821,0,0,1,3.322-.791h.914v-.5q0-1.316-1.134-1.316a.927.927,0,0,0-1.055,1.042h-2.962A2.655,2.655,0,0,1-15.5-8.825a4.931,4.931,0,0,1,2.993-.86A4.323,4.323,0,0,1-9.637-8.8,3.086,3.086,0,0,1-8.556-6.363v4.21a4.311,4.311,0,0,0,.4,2V0Zm-1.854-1.934a1.652,1.652,0,0,0,.918-.237,1.487,1.487,0,0,0,.523-.536V-4.228h-.861q-1.547,0-1.547,1.389a.848.848,0,0,0,.272.655A.986.986,0,0,0-12.968-1.934ZM-1.78,0V-7.453H-3.16V-9.51h1.38v-.756a3.286,3.286,0,0,1,.958-2.522,3.785,3.785,0,0,1,2.689-.9,5.89,5.89,0,0,1,1.389.185l.009,2.18a2.706,2.706,0,0,0-.729-.079q-1.345,0-1.345,1.16v.729H3.045v2.057H1.191V0ZM9.839-6.829,8.864-6.9a1.752,1.752,0,0,0-1.793.879V0H4.109V-9.51H6.886l.1,1.222a2.294,2.294,0,0,1,2.083-1.4,2.888,2.888,0,0,1,.826.105ZM16,0a3.344,3.344,0,0,1-.281-.853A2.754,2.754,0,0,1,13.434.176a3.374,3.374,0,0,1-2.285-.813,2.588,2.588,0,0,1-.94-2.043,2.66,2.66,0,0,1,1.143-2.338,5.821,5.821,0,0,1,3.322-.791h.914v-.5q0-1.316-1.134-1.316A.927.927,0,0,0,13.4-6.587H10.437A2.655,2.655,0,0,1,11.61-8.825a4.931,4.931,0,0,1,2.993-.86,4.323,4.323,0,0,1,2.874.888,3.086,3.086,0,0,1,1.081,2.435v4.21a4.311,4.311,0,0,0,.4,2V0ZM14.146-1.934a1.652,1.652,0,0,0,.918-.237,1.487,1.487,0,0,0,.523-.536V-4.228h-.861q-1.547,0-1.547,1.389a.848.848,0,0,0,.272.655A.986.986,0,0,0,14.146-1.934ZM23-9.51l.1,1.116a3.27,3.27,0,0,1,2.716-1.292,2.407,2.407,0,0,1,2.435,1.433,3.165,3.165,0,0,1,2.795-1.433q2.892,0,2.971,3.5V0H31.039V-6a1.813,1.813,0,0,0-.246-1.063,1.048,1.048,0,0,0-.9-.334,1.4,1.4,0,0,0-1.31.782L28.6-6.5V0H25.625V-5.985a1.906,1.906,0,0,0-.237-1.081,1.045,1.045,0,0,0-.905-.334,1.42,1.42,0,0,0-1.3.782V0H20.219V-9.51ZM40.3.176A4.889,4.889,0,0,1,36.76-1.129a4.507,4.507,0,0,1-1.354-3.4v-.246a5.84,5.84,0,0,1,.541-2.575,3.955,3.955,0,0,1,1.578-1.727,4.763,4.763,0,0,1,2.461-.611A4.117,4.117,0,0,1,43.15-8.442a4.887,4.887,0,0,1,1.16,3.467v1.151H38.421a2.135,2.135,0,0,0,.694,1.257,2.066,2.066,0,0,0,1.389.457,2.662,2.662,0,0,0,2.2-.984l1.354,1.6A3.784,3.784,0,0,1,42.486-.277,5.3,5.3,0,0,1,40.3.176ZM39.968-7.4q-1.3,0-1.547,1.723H41.41v-.229a1.467,1.467,0,0,0-.36-1.1A1.434,1.434,0,0,0,39.968-7.4Z" transform="translate(1021.458 9777.819)" fill="#12263f"/>
      <g id="Rectángulo_381369" data-name="Rectángulo 381369" transform="translate(507.458 9825.819)" fill="#e7e7e7" stroke="#727997" stroke-width="1">
        <rect width="27" height="134" stroke="none"/>
        <rect x="0.5" y="0.5" width="26" height="133" fill="none"/>
      </g>
      <text id="_2" data-name="+" transform="translate(660.458 9896.819)" fill="#12263f" font-size="31" font-family="Roboto-Bold, Roboto" font-weight="700"><tspan x="-8.461" y="0">+</tspan></text>
      <g id="Rectángulo_380973" data-name="Rectángulo 380973" transform="translate(532.458 9825.819)" fill="#fff" stroke="#727997" stroke-width="1">
        <rect width="95" height="134" stroke="none"/>
        <rect x="0.5" y="0.5" width="94" height="133" fill="none"/>
      </g>
      <rect id="Rectángulo_380974" data-name="Rectángulo 380974" width="95" height="28" transform="translate(532.458 9797.819)" fill="#021456"/>
      <path id="Trazado_828898" data-name="Trazado 828898" d="M3.586-4.852a6.61,6.61,0,0,1-.867,3.773A3.084,3.084,0,0,1,.008.156a3.107,3.107,0,0,1-2.7-1.207,6.274,6.274,0,0,1-.906-3.605v-1.93a6.463,6.463,0,0,1,.867-3.727A3.108,3.108,0,0,1-.008-11.531a3.136,3.136,0,0,1,2.7,1.176,6.237,6.237,0,0,1,.891,3.629ZM2.141-6.828A5.3,5.3,0,0,0,1.625-9.5a1.775,1.775,0,0,0-1.633-.84,1.751,1.751,0,0,0-1.617.836,5.171,5.171,0,0,0-.523,2.57v2.313A5.381,5.381,0,0,0-1.613-1.9a1.771,1.771,0,0,0,1.621.879A1.747,1.747,0,0,0,1.6-1.852a5.186,5.186,0,0,0,.543-2.609Z" transform="translate(520.458 9848.819)" fill="#12263f"/>
      <path id="Trazado_828897" data-name="Trazado 828897" d="M-1.52-6.687h1.2a1.7,1.7,0,0,0,1.273-.43,1.574,1.574,0,0,0,.414-1.141,1.392,1.392,0,0,0-.41-1.07A1.59,1.59,0,0,0-.168-9.711a1.666,1.666,0,0,0-1.086.355,1.137,1.137,0,0,0-.437.926H-3.949a2.777,2.777,0,0,1,.48-1.6,3.2,3.2,0,0,1,1.344-1.105,4.485,4.485,0,0,1,1.9-.4,4.253,4.253,0,0,1,2.828.863A2.945,2.945,0,0,1,3.629-8.289a2.394,2.394,0,0,1-.477,1.438A3.1,3.1,0,0,1,1.9-5.844,2.826,2.826,0,0,1,3.336-4.812a2.8,2.8,0,0,1,.473,1.625A2.994,2.994,0,0,1,2.7-.758,4.445,4.445,0,0,1-.223.156a4.214,4.214,0,0,1-2.785-.9A2.934,2.934,0,0,1-4.09-3.117h2.258a1.308,1.308,0,0,0,.48,1.047,1.771,1.771,0,0,0,1.184.406A1.779,1.779,0,0,0,1.094-2.09a1.47,1.47,0,0,0,.457-1.129q0-1.7-1.875-1.7h-1.2Z" transform="translate(577.458 9848.819)" fill="#12263f"/>
      <path id="Trazado_828899" data-name="Trazado 828899" d="M1.2,0H-.25V-9.633l-2.914,1.07V-9.875L.977-11.43H1.2Z" transform="translate(520.458 9879.819)" fill="#12263f"/>
      <path id="Trazado_828900" data-name="Trazado 828900" d="M3.98,0h-7.8V-1.547l3.68-3.922A9.078,9.078,0,0,0,.984-6.914a2.322,2.322,0,0,0,.363-1.172A1.738,1.738,0,0,0,.965-9.277,1.382,1.382,0,0,0-.129-9.711a1.49,1.49,0,0,0-1.207.527A2.089,2.089,0,0,0-1.777-7.8H-4.043a3.729,3.729,0,0,1,.5-1.9,3.5,3.5,0,0,1,1.4-1.348A4.262,4.262,0,0,1-.09-11.531a4.036,4.036,0,0,1,2.73.844A2.985,2.985,0,0,1,3.613-8.3a3.825,3.825,0,0,1-.437,1.719,9.551,9.551,0,0,1-1.5,2.039L-.91-1.82H3.98Z" transform="translate(577.458 9879.819)" fill="#12263f"/>
      <path id="Trazado_828901" data-name="Trazado 828901" d="M3.906,0H-3.547V-1.039L.391-5.414A9.354,9.354,0,0,0,1.6-7.027,2.693,2.693,0,0,0,1.93-8.312a2.041,2.041,0,0,0-.539-1.461,1.885,1.885,0,0,0-1.437-.57,2.232,2.232,0,0,0-1.676.613,2.343,2.343,0,0,0-.6,1.707H-3.766a3.355,3.355,0,0,1,1.012-2.539,3.751,3.751,0,0,1,2.707-.969,3.6,3.6,0,0,1,2.508.832,2.838,2.838,0,0,1,.922,2.215q0,1.68-2.141,4L-1.8-1.18H3.906Z" transform="translate(520.458 9911.819)" fill="#12263f"/>
      <path id="Trazado_828902" data-name="Trazado 828902" d="M3.84-4.7a5.762,5.762,0,0,1-.977,3.609A3.409,3.409,0,0,1,0,.156,3.433,3.433,0,0,1-2.84-1.07,5.594,5.594,0,0,1-3.848-4.586V-6.68A5.687,5.687,0,0,1-2.859-10.3,3.434,3.434,0,0,1-.012-11.531a3.437,3.437,0,0,1,2.844,1.223A5.576,5.576,0,0,1,3.84-6.8Zm-2.258-2.3A4.165,4.165,0,0,0,1.2-9.066,1.307,1.307,0,0,0-.012-9.711,1.284,1.284,0,0,0-1.187-9.1a3.9,3.9,0,0,0-.4,1.92v2.768a4.372,4.372,0,0,0,.379,2.068A1.29,1.29,0,0,0,0-1.664a1.268,1.268,0,0,0,1.2-.649A4.268,4.268,0,0,0,1.582-4.3Z" transform="translate(577.458 9911.819)" fill="#12263f"/>
      <path id="Trazado_828903" data-name="Trazado 828903" d="M-1.445-6.391H-.359A2.387,2.387,0,0,0,1.25-6.93a1.8,1.8,0,0,0,.586-1.414,1.764,1.764,0,0,0-1.992-2,2.072,2.072,0,0,0-1.5.535,1.873,1.873,0,0,0-.559,1.418H-3.656a2.9,2.9,0,0,1,.988-2.246,3.6,3.6,0,0,1,2.512-.895,3.558,3.558,0,0,1,2.523.852,3.076,3.076,0,0,1,.914,2.367A2.5,2.5,0,0,1,2.8-6.875,2.9,2.9,0,0,1,1.492-5.836a2.8,2.8,0,0,1,1.449.984,2.734,2.734,0,0,1,.512,1.68,3.1,3.1,0,0,1-1,2.43,3.745,3.745,0,0,1-2.6.9A3.844,3.844,0,0,1-2.754-.711,2.877,2.877,0,0,1-3.758-3H-2.3a1.859,1.859,0,0,0,.586,1.438,2.229,2.229,0,0,0,1.57.539,2.187,2.187,0,0,0,1.6-.547,2.108,2.108,0,0,0,.555-1.57A1.912,1.912,0,0,0,1.4-4.664,2.655,2.655,0,0,0-.359-5.211H-1.445Z" transform="translate(520.458 9946.819)" fill="#12263f"/>
      <path id="Trazado_828904" data-name="Trazado 828904" d="M1.668,0H-.59V-8.715l-2.7.832V-9.7l4.711-1.687h.242Z" transform="translate(577.458 9946.819)" fill="#12263f"/>
      <path id="Trazado_828896" data-name="Trazado 828896" d="M-18.09,0a2.507,2.507,0,0,1-.227-.758,2.732,2.732,0,0,1-2.133.914,3,3,0,0,1-2.059-.719,2.312,2.312,0,0,1-.816-1.812,2.389,2.389,0,0,1,1-2.062,4.915,4.915,0,0,1,2.879-.727h1.039v-.484a1.393,1.393,0,0,0-.3-.937,1.183,1.183,0,0,0-.949-.352,1.345,1.345,0,0,0-.895.273.929.929,0,0,0-.324.75h-2.258a2.268,2.268,0,0,1,.453-1.359,3,3,0,0,1,1.281-.98,4.669,4.669,0,0,1,1.859-.355,3.689,3.689,0,0,1,2.48.785,2.747,2.747,0,0,1,.918,2.207v3.664a4.041,4.041,0,0,0,.336,1.82V0Zm-1.867-1.57a1.945,1.945,0,0,0,.922-.223,1.462,1.462,0,0,0,.625-.6V-3.844h-.844q-1.7,0-1.8,1.172l-.008.133a.9.9,0,0,0,.3.7A1.153,1.153,0,0,0-19.957-1.57ZM-6.8-4.148A5.07,5.07,0,0,1-7.687-1.02,2.843,2.843,0,0,1-10.082.156a2.633,2.633,0,0,1-2.07-.891V3.25H-14.41v-11.7h2.094l.078.828A2.654,2.654,0,0,1-10.1-8.609a2.862,2.862,0,0,1,2.43,1.156A5.207,5.207,0,0,1-6.8-4.266Zm-2.258-.172a3.345,3.345,0,0,0-.418-1.826,1.36,1.36,0,0,0-1.215-.643,1.478,1.478,0,0,0-1.461.815V-2.5a1.5,1.5,0,0,0,1.477.839Q-9.059-1.664-9.059-4.321Zm11.266.172A5.07,5.07,0,0,1,1.32-1.02,2.843,2.843,0,0,1-1.074.156a2.633,2.633,0,0,1-2.07-.891V3.25H-5.4v-11.7h2.094l.078.828A2.654,2.654,0,0,1-1.09-8.609,2.862,2.862,0,0,1,1.34-7.453a5.207,5.207,0,0,1,.867,3.188ZM-.051-4.321A3.345,3.345,0,0,0-.469-6.146a1.36,1.36,0,0,0-1.215-.643,1.478,1.478,0,0,0-1.461.815V-2.5a1.5,1.5,0,0,0,1.477.839Q-.051-1.664-.051-4.321ZM5.988,0H3.723V-12H5.988Zm5.75.156A4.15,4.15,0,0,1,8.711-.984,4.054,4.054,0,0,1,7.543-4.023v-.219A5.106,5.106,0,0,1,8.035-6.52,3.612,3.612,0,0,1,9.43-8.066a3.914,3.914,0,0,1,2.059-.543,3.508,3.508,0,0,1,2.73,1.094,4.444,4.444,0,0,1,1,3.1v.922H9.832a2.1,2.1,0,0,0,.66,1.328,2,2,0,0,0,1.395.5,2.437,2.437,0,0,0,2.039-.945l1.109,1.242A3.389,3.389,0,0,1,13.66-.246,4.511,4.511,0,0,1,11.738.156ZM11.48-6.789a1.411,1.411,0,0,0-1.09.455,2.357,2.357,0,0,0-.535,1.3H13v-.181a1.681,1.681,0,0,0-.406-1.165A1.456,1.456,0,0,0,11.48-6.789Zm9.594,4.453a.727.727,0,0,0-.41-.652,4.659,4.659,0,0,0-1.316-.426q-3.016-.633-3.016-2.562a2.323,2.323,0,0,1,.934-1.879,3.766,3.766,0,0,1,2.441-.754,4.053,4.053,0,0,1,2.574.758,2.388,2.388,0,0,1,.965,1.969H20.988a1.092,1.092,0,0,0-.312-.8A1.322,1.322,0,0,0,19.7-7a1.351,1.351,0,0,0-.883.258.814.814,0,0,0-.312.656.7.7,0,0,0,.355.605,3.657,3.657,0,0,0,1.2.4A9.8,9.8,0,0,1,21.48-4.7,2.336,2.336,0,0,1,23.27-2.43a2.2,2.2,0,0,1-.992,1.871,4.28,4.28,0,0,1-2.562.715,4.47,4.47,0,0,1-1.887-.379,3.166,3.166,0,0,1-1.293-1.039,2.414,2.414,0,0,1-.469-1.426h2.141a1.179,1.179,0,0,0,.445.922,1.766,1.766,0,0,0,1.109.32,1.635,1.635,0,0,0,.98-.246A.766.766,0,0,0,21.074-2.336Z" transform="translate(577.458 9817.819)" fill="#fff"/>
      <path id="Trazado_827289" data-name="Trazado 827289" d="M-4064-1858.353h119.444" transform="translate(4571 11717.823)" fill="none" stroke="#727997" stroke-width="1"/>
      <path id="Trazado_827290" data-name="Trazado 827290" d="M-4064-1858.353h119.444" transform="translate(4571 11748.691)" fill="none" stroke="#727997" stroke-width="1"/>
      <path id="Trazado_827291" data-name="Trazado 827291" d="M-4064-1858.353h119.444" transform="translate(4571 11780.587)" fill="none" stroke="#727997" stroke-width="1"/>
      <g id="Rectángulo_381370" data-name="Rectángulo 381370" transform="translate(701.458 9825.819)" fill="#e7e7e7" stroke="#727997" stroke-width="1">
        <rect width="28" height="134" stroke="none"/>
        <rect x="0.5" y="0.5" width="27" height="133" fill="none"/>
      </g>
      <g id="Rectángulo_380975" data-name="Rectángulo 380975" transform="translate(727.458 9825.819)" fill="#fff" stroke="#727997" stroke-width="1">
        <rect width="94" height="134" stroke="none"/>
        <rect x="0.5" y="0.5" width="93" height="133" fill="none"/>
      </g>
      <rect id="Rectángulo_380976" data-name="Rectángulo 380976" width="94" height="28" transform="translate(727.458 9797.819)" fill="#f7cd00"/>
      <path id="Trazado_828907" data-name="Trazado 828907" d="M3.586-4.852a6.61,6.61,0,0,1-.867,3.773A3.084,3.084,0,0,1,.008.156a3.107,3.107,0,0,1-2.7-1.207,6.274,6.274,0,0,1-.906-3.605v-1.93a6.463,6.463,0,0,1,.867-3.727A3.108,3.108,0,0,1-.008-11.531a3.136,3.136,0,0,1,2.7,1.176,6.237,6.237,0,0,1,.891,3.629ZM2.141-6.828A5.3,5.3,0,0,0,1.625-9.5a1.775,1.775,0,0,0-1.633-.84,1.751,1.751,0,0,0-1.617.836,5.171,5.171,0,0,0-.523,2.57v2.313A5.381,5.381,0,0,0-1.613-1.9a1.771,1.771,0,0,0,1.621.879A1.747,1.747,0,0,0,1.6-1.852a5.186,5.186,0,0,0,.543-2.609Z" transform="translate(714.458 9848.819)" fill="#12263f"/>
      <path id="Trazado_828908" data-name="Trazado 828908" d="M3.84-4.7a5.762,5.762,0,0,1-.977,3.609A3.409,3.409,0,0,1,0,.156,3.433,3.433,0,0,1-2.84-1.07,5.594,5.594,0,0,1-3.848-4.586V-6.68A5.687,5.687,0,0,1-2.859-10.3,3.434,3.434,0,0,1-.012-11.531a3.437,3.437,0,0,1,2.844,1.223A5.576,5.576,0,0,1,3.84-6.8Zm-2.258-2.3A4.165,4.165,0,0,0,1.2-9.066,1.307,1.307,0,0,0-.012-9.711,1.284,1.284,0,0,0-1.187-9.1a3.9,3.9,0,0,0-.4,1.92v2.768a4.372,4.372,0,0,0,.379,2.068A1.29,1.29,0,0,0,0-1.664a1.268,1.268,0,0,0,1.2-.649A4.268,4.268,0,0,0,1.582-4.3Z" transform="translate(772.458 9848.819)" fill="#12263f"/>
      <path id="Trazado_828909" data-name="Trazado 828909" d="M1.2,0H-.25V-9.633l-2.914,1.07V-9.875L.977-11.43H1.2Z" transform="translate(714.458 9879.819)" fill="#12263f"/>
      <path id="Trazado_828910" data-name="Trazado 828910" d="M-1.52-6.687h1.2a1.7,1.7,0,0,0,1.273-.43,1.574,1.574,0,0,0,.414-1.141,1.392,1.392,0,0,0-.41-1.07A1.59,1.59,0,0,0-.168-9.711a1.666,1.666,0,0,0-1.086.355,1.137,1.137,0,0,0-.437.926H-3.949a2.777,2.777,0,0,1,.48-1.6,3.2,3.2,0,0,1,1.344-1.105,4.485,4.485,0,0,1,1.9-.4,4.253,4.253,0,0,1,2.828.863A2.945,2.945,0,0,1,3.629-8.289a2.394,2.394,0,0,1-.477,1.438A3.1,3.1,0,0,1,1.9-5.844,2.826,2.826,0,0,1,3.336-4.812a2.8,2.8,0,0,1,.473,1.625A2.994,2.994,0,0,1,2.7-.758,4.445,4.445,0,0,1-.223.156a4.214,4.214,0,0,1-2.785-.9A2.934,2.934,0,0,1-4.09-3.117h2.258a1.308,1.308,0,0,0,.48,1.047,1.771,1.771,0,0,0,1.184.406A1.779,1.779,0,0,0,1.094-2.09a1.47,1.47,0,0,0,.457-1.129q0-1.7-1.875-1.7h-1.2Z" transform="translate(772.458 9879.819)" fill="#12263f"/>
      <path id="Trazado_828912" data-name="Trazado 828912" d="M3.906,0H-3.547V-1.039L.391-5.414A9.354,9.354,0,0,0,1.6-7.027,2.693,2.693,0,0,0,1.93-8.312a2.041,2.041,0,0,0-.539-1.461,1.885,1.885,0,0,0-1.437-.57,2.232,2.232,0,0,0-1.676.613,2.343,2.343,0,0,0-.6,1.707H-3.766a3.355,3.355,0,0,1,1.012-2.539,3.751,3.751,0,0,1,2.707-.969,3.6,3.6,0,0,1,2.508.832,2.838,2.838,0,0,1,.922,2.215q0,1.68-2.141,4L-1.8-1.18H3.906Z" transform="translate(714.458 9911.819)" fill="#12263f"/>
      <path id="Trazado_828911" data-name="Trazado 828911" d="M3.918-10.115-.48,0H-2.863L1.543-9.555H-4.113v-1.82H3.918Z" transform="translate(772.458 9911.819)" fill="#12263f"/>
      <path id="Trazado_828913" data-name="Trazado 828913" d="M-1.445-6.391H-.359A2.387,2.387,0,0,0,1.25-6.93a1.8,1.8,0,0,0,.586-1.414,1.764,1.764,0,0,0-1.992-2,2.072,2.072,0,0,0-1.5.535,1.873,1.873,0,0,0-.559,1.418H-3.656a2.9,2.9,0,0,1,.988-2.246,3.6,3.6,0,0,1,2.512-.895,3.558,3.558,0,0,1,2.523.852,3.076,3.076,0,0,1,.914,2.367A2.5,2.5,0,0,1,2.8-6.875,2.9,2.9,0,0,1,1.492-5.836a2.8,2.8,0,0,1,1.449.984,2.734,2.734,0,0,1,.512,1.68,3.1,3.1,0,0,1-1,2.43,3.745,3.745,0,0,1-2.6.9A3.844,3.844,0,0,1-2.754-.711,2.877,2.877,0,0,1-3.758-3H-2.3a1.859,1.859,0,0,0,.586,1.438,2.229,2.229,0,0,0,1.57.539,2.187,2.187,0,0,0,1.6-.547,2.108,2.108,0,0,0,.555-1.57A1.912,1.912,0,0,0,1.4-4.664,2.655,2.655,0,0,0-.359-5.211H-1.445Z" transform="translate(714.458 9946.819)" fill="#12263f"/>
      <path id="Trazado_828914" data-name="Trazado 828914" d="M3.98,0h-7.8V-1.547l3.68-3.922A9.078,9.078,0,0,0,.984-6.914a2.322,2.322,0,0,0,.363-1.172A1.738,1.738,0,0,0,.965-9.277,1.382,1.382,0,0,0-.129-9.711a1.49,1.49,0,0,0-1.207.527A2.089,2.089,0,0,0-1.777-7.8H-4.043a3.729,3.729,0,0,1,.5-1.9,3.5,3.5,0,0,1,1.4-1.348A4.262,4.262,0,0,1-.09-11.531a4.036,4.036,0,0,1,2.73.844A2.985,2.985,0,0,1,3.613-8.3a3.825,3.825,0,0,1-.437,1.719,9.551,9.551,0,0,1-1.5,2.039L-.91-1.82H3.98Z" transform="translate(772.458 9946.819)" fill="#12263f"/>
      <path id="Trazado_828906" data-name="Trazado 828906" d="M-28.582-4.3A5.013,5.013,0,0,1-28.1-6.547,3.546,3.546,0,0,1-26.7-8.07a4.069,4.069,0,0,1,2.113-.539A3.849,3.849,0,0,1-21.8-7.562,4.2,4.2,0,0,1-20.59-4.719l.016.578A4.418,4.418,0,0,1-21.66-1.02,3.775,3.775,0,0,1-24.574.156a3.793,3.793,0,0,1-2.918-1.172A4.5,4.5,0,0,1-28.582-4.2Zm2.258.16A3.16,3.16,0,0,0-25.871-2.3a1.5,1.5,0,0,0,1.3.638,1.5,1.5,0,0,0,1.281-.63,3.457,3.457,0,0,0,.461-2.015,3.128,3.128,0,0,0-.461-1.831,1.5,1.5,0,0,0-1.3-.649,1.474,1.474,0,0,0-1.281.646A3.516,3.516,0,0,0-26.324-4.144Zm11.891-2.192a6.134,6.134,0,0,0-.812-.062,1.654,1.654,0,0,0-1.68.867V0h-2.258V-8.453h2.133l.063,1.008a2.092,2.092,0,0,1,1.883-1.164,2.366,2.366,0,0,1,.7.1ZM-8.684,0A2.507,2.507,0,0,1-8.91-.758a2.732,2.732,0,0,1-2.133.914A3,3,0,0,1-13.1-.562a2.312,2.312,0,0,1-.816-1.812,2.389,2.389,0,0,1,1-2.062,4.915,4.915,0,0,1,2.879-.727H-9v-.484a1.393,1.393,0,0,0-.3-.937,1.183,1.183,0,0,0-.949-.352,1.345,1.345,0,0,0-.895.273.929.929,0,0,0-.324.75H-13.73a2.268,2.268,0,0,1,.453-1.359A3,3,0,0,1-12-8.254a4.669,4.669,0,0,1,1.859-.355,3.689,3.689,0,0,1,2.48.785,2.747,2.747,0,0,1,.918,2.207v3.664A4.041,4.041,0,0,0-6.4-.133V0Zm-1.867-1.57a1.945,1.945,0,0,0,.922-.223A1.462,1.462,0,0,0-9-2.391V-3.844h-.844q-1.7,0-1.8,1.172l-.008.133a.9.9,0,0,0,.3.7A1.153,1.153,0,0,0-10.551-1.57Zm7.625-6.883.07.977A2.951,2.951,0,0,1-.426-8.609a2.453,2.453,0,0,1,2,.789,3.682,3.682,0,0,1,.672,2.359V0H-.012V-5.419A1.47,1.47,0,0,0-.324-6.464a1.4,1.4,0,0,0-1.039-.325,1.553,1.553,0,0,0-1.43.814V0H-5.051V-8.453ZM3.629-4.289a4.954,4.954,0,0,1,.926-3.133,3,3,0,0,1,2.5-1.187,2.631,2.631,0,0,1,2.164.953l.094-.8h2.047V-.281a3.613,3.613,0,0,1-.5,1.93A3.236,3.236,0,0,1,9.434,2.9a4.985,4.985,0,0,1-2.141.43A4.635,4.635,0,0,1,5.48,2.957,3.217,3.217,0,0,1,4.145,2l1-1.375a2.645,2.645,0,0,0,2.047.945,1.936,1.936,0,0,0,1.4-.48,1.8,1.8,0,0,0,.5-1.363V-.727A2.612,2.612,0,0,1,7.035.156,2.992,2.992,0,0,1,4.57-1.035,4.953,4.953,0,0,1,3.629-4.2Zm2.258.161a3.1,3.1,0,0,0,.461,1.809,1.465,1.465,0,0,0,1.266.655A1.567,1.567,0,0,0,9.09-2.441V-6.012a1.563,1.563,0,0,0-1.461-.777,1.474,1.474,0,0,0-1.277.667A3.5,3.5,0,0,0,5.887-4.128ZM16.98.156A4.15,4.15,0,0,1,13.953-.984a4.054,4.054,0,0,1-1.168-3.039v-.219a5.106,5.106,0,0,1,.492-2.277,3.612,3.612,0,0,1,1.395-1.547,3.914,3.914,0,0,1,2.059-.543,3.508,3.508,0,0,1,2.73,1.094,4.444,4.444,0,0,1,1,3.1v.922H15.074a2.1,2.1,0,0,0,.66,1.328,2,2,0,0,0,1.395.5,2.437,2.437,0,0,0,2.039-.945l1.109,1.242A3.389,3.389,0,0,1,18.9-.246,4.511,4.511,0,0,1,16.98.156Zm-.258-6.945a1.411,1.411,0,0,0-1.09.455,2.357,2.357,0,0,0-.535,1.3h3.141v-.181a1.681,1.681,0,0,0-.406-1.165A1.456,1.456,0,0,0,16.723-6.789Zm9.594,4.453a.727.727,0,0,0-.41-.652,4.659,4.659,0,0,0-1.316-.426q-3.016-.633-3.016-2.562a2.323,2.323,0,0,1,.934-1.879,3.766,3.766,0,0,1,2.441-.754,4.053,4.053,0,0,1,2.574.758,2.388,2.388,0,0,1,.965,1.969H26.23a1.092,1.092,0,0,0-.312-.8A1.322,1.322,0,0,0,24.941-7a1.351,1.351,0,0,0-.883.258.814.814,0,0,0-.312.656.7.7,0,0,0,.355.605,3.657,3.657,0,0,0,1.2.4,9.8,9.8,0,0,1,1.422.379A2.336,2.336,0,0,1,28.512-2.43,2.2,2.2,0,0,1,27.52-.559a4.28,4.28,0,0,1-2.562.715A4.47,4.47,0,0,1,23.07-.223a3.166,3.166,0,0,1-1.293-1.039,2.414,2.414,0,0,1-.469-1.426h2.141a1.179,1.179,0,0,0,.445.922A1.766,1.766,0,0,0,25-1.445a1.635,1.635,0,0,0,.98-.246A.766.766,0,0,0,26.316-2.336Z" transform="translate(771.458 9817.819)" fill="#12263f"/>
      <path id="Trazado_827292" data-name="Trazado 827292" d="M-4064-1858.353h119.444" transform="translate(4765.465 11717.823)" fill="none" stroke="#727997" stroke-width="1"/>
      <path id="Trazado_827293" data-name="Trazado 827293" d="M-4064-1858.353h119.444" transform="translate(4765.465 11748.691)" fill="none" stroke="#727997" stroke-width="1"/>
      <path id="Trazado_827294" data-name="Trazado 827294" d="M-4064-1858.353h119.444" transform="translate(4765.465 11780.587)" fill="none" stroke="#727997" stroke-width="1"/>
      <g id="Rectángulo_381371" data-name="Rectángulo 381371" transform="translate(894.458 9825.819)" fill="#e7e7e7" stroke="#727997" stroke-width="1">
        <rect width="26" height="134" stroke="none"/>
        <rect x="0.5" y="0.5" width="25" height="133" fill="none"/>
      </g>
      <g id="Rectángulo_380979" data-name="Rectángulo 380979" transform="translate(1014.458 9825.819)" fill="#fff" stroke="#727997" stroke-width="1">
        <rect width="94" height="134" stroke="none"/>
        <rect x="0.5" y="0.5" width="93" height="133" fill="none"/>
      </g>
      <g id="Rectángulo_380977" data-name="Rectángulo 380977" transform="translate(919.458 9825.819)" fill="#fff" stroke="#727997" stroke-width="1">
        <rect width="96" height="134" stroke="none"/>
        <rect x="0.5" y="0.5" width="95" height="133" fill="none"/>
      </g>
      <rect id="Rectángulo_380980" data-name="Rectángulo 380980" width="94" height="28" transform="translate(1014.458 9798.819)" fill="#f7cd00"/>
      <rect id="Rectángulo_380978" data-name="Rectángulo 380978" width="95" height="28" transform="translate(920.458 9798.819)" fill="#021456"/>
      <path id="Trazado_828920" data-name="Trazado 828920" d="M3.586-4.852a6.61,6.61,0,0,1-.867,3.773A3.084,3.084,0,0,1,.008.156a3.107,3.107,0,0,1-2.7-1.207,6.274,6.274,0,0,1-.906-3.605v-1.93a6.463,6.463,0,0,1,.867-3.727A3.108,3.108,0,0,1-.008-11.531a3.136,3.136,0,0,1,2.7,1.176,6.237,6.237,0,0,1,.891,3.629ZM2.141-6.828A5.3,5.3,0,0,0,1.625-9.5a1.775,1.775,0,0,0-1.633-.84,1.751,1.751,0,0,0-1.617.836,5.171,5.171,0,0,0-.523,2.57v2.313A5.381,5.381,0,0,0-1.613-1.9a1.771,1.771,0,0,0,1.621.879A1.747,1.747,0,0,0,1.6-1.852a5.186,5.186,0,0,0,.543-2.609Z" transform="translate(908.458 9848.819)" fill="#12263f"/>
      <path id="Trazado_828918" data-name="Trazado 828918" d="M3.84-4.7a5.762,5.762,0,0,1-.977,3.609A3.409,3.409,0,0,1,0,.156,3.433,3.433,0,0,1-2.84-1.07,5.594,5.594,0,0,1-3.848-4.586V-6.68A5.687,5.687,0,0,1-2.859-10.3,3.434,3.434,0,0,1-.012-11.531a3.437,3.437,0,0,1,2.844,1.223A5.576,5.576,0,0,1,3.84-6.8Zm-2.258-2.3A4.165,4.165,0,0,0,1.2-9.066,1.307,1.307,0,0,0-.012-9.711,1.284,1.284,0,0,0-1.187-9.1a3.9,3.9,0,0,0-.4,1.92v2.768a4.372,4.372,0,0,0,.379,2.068A1.29,1.29,0,0,0,0-1.664a1.268,1.268,0,0,0,1.2-.649A4.268,4.268,0,0,0,1.582-4.3Z" transform="translate(1061.458 9848.819)" fill="#12263f"/>
      <path id="Trazado_828919" data-name="Trazado 828919" d="M-1.52-6.687h1.2a1.7,1.7,0,0,0,1.273-.43,1.574,1.574,0,0,0,.414-1.141,1.392,1.392,0,0,0-.41-1.07A1.59,1.59,0,0,0-.168-9.711a1.666,1.666,0,0,0-1.086.355,1.137,1.137,0,0,0-.437.926H-3.949a2.777,2.777,0,0,1,.48-1.6,3.2,3.2,0,0,1,1.344-1.105,4.485,4.485,0,0,1,1.9-.4,4.253,4.253,0,0,1,2.828.863A2.945,2.945,0,0,1,3.629-8.289a2.394,2.394,0,0,1-.477,1.438A3.1,3.1,0,0,1,1.9-5.844,2.826,2.826,0,0,1,3.336-4.812a2.8,2.8,0,0,1,.473,1.625A2.994,2.994,0,0,1,2.7-.758,4.445,4.445,0,0,1-.223.156a4.214,4.214,0,0,1-2.785-.9A2.934,2.934,0,0,1-4.09-3.117h2.258a1.308,1.308,0,0,0,.48,1.047,1.771,1.771,0,0,0,1.184.406A1.779,1.779,0,0,0,1.094-2.09a1.47,1.47,0,0,0,.457-1.129q0-1.7-1.875-1.7h-1.2Z" transform="translate(965.458 9848.819)" fill="#12263f"/>
      <path id="Trazado_828921" data-name="Trazado 828921" d="M1.2,0H-.25V-9.633l-2.914,1.07V-9.875L.977-11.43H1.2Z" transform="translate(908.458 9879.819)" fill="#12263f"/>
      <path id="Trazado_828923" data-name="Trazado 828923" d="M-1.52-6.687h1.2a1.7,1.7,0,0,0,1.273-.43,1.574,1.574,0,0,0,.414-1.141,1.392,1.392,0,0,0-.41-1.07A1.59,1.59,0,0,0-.168-9.711a1.666,1.666,0,0,0-1.086.355,1.137,1.137,0,0,0-.437.926H-3.949a2.777,2.777,0,0,1,.48-1.6,3.2,3.2,0,0,1,1.344-1.105,4.485,4.485,0,0,1,1.9-.4,4.253,4.253,0,0,1,2.828.863A2.945,2.945,0,0,1,3.629-8.289a2.394,2.394,0,0,1-.477,1.438A3.1,3.1,0,0,1,1.9-5.844,2.826,2.826,0,0,1,3.336-4.812a2.8,2.8,0,0,1,.473,1.625A2.994,2.994,0,0,1,2.7-.758,4.445,4.445,0,0,1-.223.156a4.214,4.214,0,0,1-2.785-.9A2.934,2.934,0,0,1-4.09-3.117h2.258a1.308,1.308,0,0,0,.48,1.047,1.771,1.771,0,0,0,1.184.406A1.779,1.779,0,0,0,1.094-2.09a1.47,1.47,0,0,0,.457-1.129q0-1.7-1.875-1.7h-1.2Z" transform="translate(1061.458 9879.819)" fill="#12263f"/>
      <path id="Trazado_828922" data-name="Trazado 828922" d="M3.98,0h-7.8V-1.547l3.68-3.922A9.078,9.078,0,0,0,.984-6.914a2.322,2.322,0,0,0,.363-1.172A1.738,1.738,0,0,0,.965-9.277,1.382,1.382,0,0,0-.129-9.711a1.49,1.49,0,0,0-1.207.527A2.089,2.089,0,0,0-1.777-7.8H-4.043a3.729,3.729,0,0,1,.5-1.9,3.5,3.5,0,0,1,1.4-1.348A4.262,4.262,0,0,1-.09-11.531a4.036,4.036,0,0,1,2.73.844A2.985,2.985,0,0,1,3.613-8.3a3.825,3.825,0,0,1-.437,1.719,9.551,9.551,0,0,1-1.5,2.039L-.91-1.82H3.98Z" transform="translate(965.458 9879.819)" fill="#12263f"/>
      <path id="Trazado_828926" data-name="Trazado 828926" d="M3.906,0H-3.547V-1.039L.391-5.414A9.354,9.354,0,0,0,1.6-7.027,2.693,2.693,0,0,0,1.93-8.312a2.041,2.041,0,0,0-.539-1.461,1.885,1.885,0,0,0-1.437-.57,2.232,2.232,0,0,0-1.676.613,2.343,2.343,0,0,0-.6,1.707H-3.766a3.355,3.355,0,0,1,1.012-2.539,3.751,3.751,0,0,1,2.707-.969,3.6,3.6,0,0,1,2.508.832,2.838,2.838,0,0,1,.922,2.215q0,1.68-2.141,4L-1.8-1.18H3.906Z" transform="translate(908.458 9911.819)" fill="#12263f"/>
      <path id="Trazado_828924" data-name="Trazado 828924" d="M3.918-10.115-.48,0H-2.863L1.543-9.555H-4.113v-1.82H3.918Z" transform="translate(1061.458 9911.819)" fill="#12263f"/>
      <path id="Trazado_828925" data-name="Trazado 828925" d="M3.84-4.7a5.762,5.762,0,0,1-.977,3.609A3.409,3.409,0,0,1,0,.156,3.433,3.433,0,0,1-2.84-1.07,5.594,5.594,0,0,1-3.848-4.586V-6.68A5.687,5.687,0,0,1-2.859-10.3,3.434,3.434,0,0,1-.012-11.531a3.437,3.437,0,0,1,2.844,1.223A5.576,5.576,0,0,1,3.84-6.8Zm-2.258-2.3A4.165,4.165,0,0,0,1.2-9.066,1.307,1.307,0,0,0-.012-9.711,1.284,1.284,0,0,0-1.187-9.1a3.9,3.9,0,0,0-.4,1.92v2.768a4.372,4.372,0,0,0,.379,2.068A1.29,1.29,0,0,0,0-1.664a1.268,1.268,0,0,0,1.2-.649A4.268,4.268,0,0,0,1.582-4.3Z" transform="translate(965.458 9911.819)" fill="#12263f"/>
      <path id="Trazado_828927" data-name="Trazado 828927" d="M-1.445-6.391H-.359A2.387,2.387,0,0,0,1.25-6.93a1.8,1.8,0,0,0,.586-1.414,1.764,1.764,0,0,0-1.992-2,2.072,2.072,0,0,0-1.5.535,1.873,1.873,0,0,0-.559,1.418H-3.656a2.9,2.9,0,0,1,.988-2.246,3.6,3.6,0,0,1,2.512-.895,3.558,3.558,0,0,1,2.523.852,3.076,3.076,0,0,1,.914,2.367A2.5,2.5,0,0,1,2.8-6.875,2.9,2.9,0,0,1,1.492-5.836a2.8,2.8,0,0,1,1.449.984,2.734,2.734,0,0,1,.512,1.68,3.1,3.1,0,0,1-1,2.43,3.745,3.745,0,0,1-2.6.9A3.844,3.844,0,0,1-2.754-.711,2.877,2.877,0,0,1-3.758-3H-2.3a1.859,1.859,0,0,0,.586,1.438,2.229,2.229,0,0,0,1.57.539,2.187,2.187,0,0,0,1.6-.547,2.108,2.108,0,0,0,.555-1.57A1.912,1.912,0,0,0,1.4-4.664,2.655,2.655,0,0,0-.359-5.211H-1.445Z" transform="translate(908.458 9946.819)" fill="#12263f"/>
      <path id="Trazado_828929" data-name="Trazado 828929" d="M3.98,0h-7.8V-1.547l3.68-3.922A9.078,9.078,0,0,0,.984-6.914a2.322,2.322,0,0,0,.363-1.172A1.738,1.738,0,0,0,.965-9.277,1.382,1.382,0,0,0-.129-9.711a1.49,1.49,0,0,0-1.207.527A2.089,2.089,0,0,0-1.777-7.8H-4.043a3.729,3.729,0,0,1,.5-1.9,3.5,3.5,0,0,1,1.4-1.348A4.262,4.262,0,0,1-.09-11.531a4.036,4.036,0,0,1,2.73.844A2.985,2.985,0,0,1,3.613-8.3a3.825,3.825,0,0,1-.437,1.719,9.551,9.551,0,0,1-1.5,2.039L-.91-1.82H3.98Z" transform="translate(1061.458 9946.819)" fill="#12263f"/>
      <path id="Trazado_828928" data-name="Trazado 828928" d="M1.668,0H-.59V-8.715l-2.7.832V-9.7l4.711-1.687h.242Z" transform="translate(965.458 9946.819)" fill="#12263f"/>
      <path id="Trazado_828917" data-name="Trazado 828917" d="M-28.582-4.3A5.013,5.013,0,0,1-28.1-6.547,3.546,3.546,0,0,1-26.7-8.07a4.069,4.069,0,0,1,2.113-.539A3.849,3.849,0,0,1-21.8-7.562,4.2,4.2,0,0,1-20.59-4.719l.016.578A4.418,4.418,0,0,1-21.66-1.02,3.775,3.775,0,0,1-24.574.156a3.793,3.793,0,0,1-2.918-1.172A4.5,4.5,0,0,1-28.582-4.2Zm2.258.16A3.16,3.16,0,0,0-25.871-2.3a1.5,1.5,0,0,0,1.3.638,1.5,1.5,0,0,0,1.281-.63,3.457,3.457,0,0,0,.461-2.015,3.128,3.128,0,0,0-.461-1.831,1.5,1.5,0,0,0-1.3-.649,1.474,1.474,0,0,0-1.281.646A3.516,3.516,0,0,0-26.324-4.144Zm11.891-2.192a6.134,6.134,0,0,0-.812-.062,1.654,1.654,0,0,0-1.68.867V0h-2.258V-8.453h2.133l.063,1.008a2.092,2.092,0,0,1,1.883-1.164,2.366,2.366,0,0,1,.7.1ZM-8.684,0A2.507,2.507,0,0,1-8.91-.758a2.732,2.732,0,0,1-2.133.914A3,3,0,0,1-13.1-.562a2.312,2.312,0,0,1-.816-1.812,2.389,2.389,0,0,1,1-2.062,4.915,4.915,0,0,1,2.879-.727H-9v-.484a1.393,1.393,0,0,0-.3-.937,1.183,1.183,0,0,0-.949-.352,1.345,1.345,0,0,0-.895.273.929.929,0,0,0-.324.75H-13.73a2.268,2.268,0,0,1,.453-1.359A3,3,0,0,1-12-8.254a4.669,4.669,0,0,1,1.859-.355,3.689,3.689,0,0,1,2.48.785,2.747,2.747,0,0,1,.918,2.207v3.664A4.041,4.041,0,0,0-6.4-.133V0Zm-1.867-1.57a1.945,1.945,0,0,0,.922-.223A1.462,1.462,0,0,0-9-2.391V-3.844h-.844q-1.7,0-1.8,1.172l-.008.133a.9.9,0,0,0,.3.7A1.153,1.153,0,0,0-10.551-1.57Zm7.625-6.883.07.977A2.951,2.951,0,0,1-.426-8.609a2.453,2.453,0,0,1,2,.789,3.682,3.682,0,0,1,.672,2.359V0H-.012V-5.419A1.47,1.47,0,0,0-.324-6.464a1.4,1.4,0,0,0-1.039-.325,1.553,1.553,0,0,0-1.43.814V0H-5.051V-8.453ZM3.629-4.289a4.954,4.954,0,0,1,.926-3.133,3,3,0,0,1,2.5-1.187,2.631,2.631,0,0,1,2.164.953l.094-.8h2.047V-.281a3.613,3.613,0,0,1-.5,1.93A3.236,3.236,0,0,1,9.434,2.9a4.985,4.985,0,0,1-2.141.43A4.635,4.635,0,0,1,5.48,2.957,3.217,3.217,0,0,1,4.145,2l1-1.375a2.645,2.645,0,0,0,2.047.945,1.936,1.936,0,0,0,1.4-.48,1.8,1.8,0,0,0,.5-1.363V-.727A2.612,2.612,0,0,1,7.035.156,2.992,2.992,0,0,1,4.57-1.035,4.953,4.953,0,0,1,3.629-4.2Zm2.258.161a3.1,3.1,0,0,0,.461,1.809,1.465,1.465,0,0,0,1.266.655A1.567,1.567,0,0,0,9.09-2.441V-6.012a1.563,1.563,0,0,0-1.461-.777,1.474,1.474,0,0,0-1.277.667A3.5,3.5,0,0,0,5.887-4.128ZM16.98.156A4.15,4.15,0,0,1,13.953-.984a4.054,4.054,0,0,1-1.168-3.039v-.219a5.106,5.106,0,0,1,.492-2.277,3.612,3.612,0,0,1,1.395-1.547,3.914,3.914,0,0,1,2.059-.543,3.508,3.508,0,0,1,2.73,1.094,4.444,4.444,0,0,1,1,3.1v.922H15.074a2.1,2.1,0,0,0,.66,1.328,2,2,0,0,0,1.395.5,2.437,2.437,0,0,0,2.039-.945l1.109,1.242A3.389,3.389,0,0,1,18.9-.246,4.511,4.511,0,0,1,16.98.156Zm-.258-6.945a1.411,1.411,0,0,0-1.09.455,2.357,2.357,0,0,0-.535,1.3h3.141v-.181a1.681,1.681,0,0,0-.406-1.165A1.456,1.456,0,0,0,16.723-6.789Zm9.594,4.453a.727.727,0,0,0-.41-.652,4.659,4.659,0,0,0-1.316-.426q-3.016-.633-3.016-2.562a2.323,2.323,0,0,1,.934-1.879,3.766,3.766,0,0,1,2.441-.754,4.053,4.053,0,0,1,2.574.758,2.388,2.388,0,0,1,.965,1.969H26.23a1.092,1.092,0,0,0-.312-.8A1.322,1.322,0,0,0,24.941-7a1.351,1.351,0,0,0-.883.258.814.814,0,0,0-.312.656.7.7,0,0,0,.355.605,3.657,3.657,0,0,0,1.2.4,9.8,9.8,0,0,1,1.422.379A2.336,2.336,0,0,1,28.512-2.43,2.2,2.2,0,0,1,27.52-.559a4.28,4.28,0,0,1-2.562.715A4.47,4.47,0,0,1,23.07-.223a3.166,3.166,0,0,1-1.293-1.039,2.414,2.414,0,0,1-.469-1.426h2.141a1.179,1.179,0,0,0,.445.922A1.766,1.766,0,0,0,25-1.445a1.635,1.635,0,0,0,.98-.246A.766.766,0,0,0,26.316-2.336Z" transform="translate(1060.458 9818.819)" fill="#12263f"/>
      <path id="Trazado_828916" data-name="Trazado 828916" d="M-18.09,0a2.507,2.507,0,0,1-.227-.758,2.732,2.732,0,0,1-2.133.914,3,3,0,0,1-2.059-.719,2.312,2.312,0,0,1-.816-1.812,2.389,2.389,0,0,1,1-2.062,4.915,4.915,0,0,1,2.879-.727h1.039v-.484a1.393,1.393,0,0,0-.3-.937,1.183,1.183,0,0,0-.949-.352,1.345,1.345,0,0,0-.895.273.929.929,0,0,0-.324.75h-2.258a2.268,2.268,0,0,1,.453-1.359,3,3,0,0,1,1.281-.98,4.669,4.669,0,0,1,1.859-.355,3.689,3.689,0,0,1,2.48.785,2.747,2.747,0,0,1,.918,2.207v3.664a4.041,4.041,0,0,0,.336,1.82V0Zm-1.867-1.57a1.945,1.945,0,0,0,.922-.223,1.462,1.462,0,0,0,.625-.6V-3.844h-.844q-1.7,0-1.8,1.172l-.008.133a.9.9,0,0,0,.3.7A1.153,1.153,0,0,0-19.957-1.57ZM-6.8-4.148A5.07,5.07,0,0,1-7.687-1.02,2.843,2.843,0,0,1-10.082.156a2.633,2.633,0,0,1-2.07-.891V3.25H-14.41v-11.7h2.094l.078.828A2.654,2.654,0,0,1-10.1-8.609a2.862,2.862,0,0,1,2.43,1.156A5.207,5.207,0,0,1-6.8-4.266Zm-2.258-.172a3.345,3.345,0,0,0-.418-1.826,1.36,1.36,0,0,0-1.215-.643,1.478,1.478,0,0,0-1.461.815V-2.5a1.5,1.5,0,0,0,1.477.839Q-9.059-1.664-9.059-4.321Zm11.266.172A5.07,5.07,0,0,1,1.32-1.02,2.843,2.843,0,0,1-1.074.156a2.633,2.633,0,0,1-2.07-.891V3.25H-5.4v-11.7h2.094l.078.828A2.654,2.654,0,0,1-1.09-8.609,2.862,2.862,0,0,1,1.34-7.453a5.207,5.207,0,0,1,.867,3.188ZM-.051-4.321A3.345,3.345,0,0,0-.469-6.146a1.36,1.36,0,0,0-1.215-.643,1.478,1.478,0,0,0-1.461.815V-2.5a1.5,1.5,0,0,0,1.477.839Q-.051-1.664-.051-4.321ZM5.988,0H3.723V-12H5.988Zm5.75.156A4.15,4.15,0,0,1,8.711-.984,4.054,4.054,0,0,1,7.543-4.023v-.219A5.106,5.106,0,0,1,8.035-6.52,3.612,3.612,0,0,1,9.43-8.066a3.914,3.914,0,0,1,2.059-.543,3.508,3.508,0,0,1,2.73,1.094,4.444,4.444,0,0,1,1,3.1v.922H9.832a2.1,2.1,0,0,0,.66,1.328,2,2,0,0,0,1.395.5,2.437,2.437,0,0,0,2.039-.945l1.109,1.242A3.389,3.389,0,0,1,13.66-.246,4.511,4.511,0,0,1,11.738.156ZM11.48-6.789a1.411,1.411,0,0,0-1.09.455,2.357,2.357,0,0,0-.535,1.3H13v-.181a1.681,1.681,0,0,0-.406-1.165A1.456,1.456,0,0,0,11.48-6.789Zm9.594,4.453a.727.727,0,0,0-.41-.652,4.659,4.659,0,0,0-1.316-.426q-3.016-.633-3.016-2.562a2.323,2.323,0,0,1,.934-1.879,3.766,3.766,0,0,1,2.441-.754,4.053,4.053,0,0,1,2.574.758,2.388,2.388,0,0,1,.965,1.969H20.988a1.092,1.092,0,0,0-.312-.8A1.322,1.322,0,0,0,19.7-7a1.351,1.351,0,0,0-.883.258.814.814,0,0,0-.312.656.7.7,0,0,0,.355.605,3.657,3.657,0,0,0,1.2.4A9.8,9.8,0,0,1,21.48-4.7,2.336,2.336,0,0,1,23.27-2.43a2.2,2.2,0,0,1-.992,1.871,4.28,4.28,0,0,1-2.562.715,4.47,4.47,0,0,1-1.887-.379,3.166,3.166,0,0,1-1.293-1.039,2.414,2.414,0,0,1-.469-1.426h2.141a1.179,1.179,0,0,0,.445.922,1.766,1.766,0,0,0,1.109.32,1.635,1.635,0,0,0,.98-.246A.766.766,0,0,0,21.074-2.336Z" transform="translate(965.458 9818.819)" fill="#fff"/>
      <path id="Trazado_827302" data-name="Trazado 827302" d="M-4064-1858.353h93.721" transform="translate(5078.77 11717.823)" fill="none" stroke="#727997" stroke-width="1"/>
      <path id="Trazado_827297" data-name="Trazado 827297" d="M-4064-1858.353h119.444" transform="translate(4958.901 11717.823)" fill="none" stroke="#727997" stroke-width="1"/>
      <path id="Trazado_827301" data-name="Trazado 827301" d="M-4064-1858.353h93.721" transform="translate(5078.77 11748.691)" fill="none" stroke="#727997" stroke-width="1"/>
      <path id="Trazado_827298" data-name="Trazado 827298" d="M-4064-1858.353h119.444" transform="translate(4958.901 11748.691)" fill="none" stroke="#727997" stroke-width="1"/>
      <path id="Trazado_827300" data-name="Trazado 827300" d="M-4064-1858.353h93.721" transform="translate(5078.77 11780.587)" fill="none" stroke="#727997" stroke-width="1"/>
      <path id="Trazado_827299" data-name="Trazado 827299" d="M-4064-1858.353h119.444" transform="translate(4958.901 11780.587)" fill="none" stroke="#727997" stroke-width="1"/>
    </g>
  </g>
</svg>
