<svg xmlns="http://www.w3.org/2000/svg" width="1240" height="554" viewBox="0 0 1240 554">
  <g id="Grupo_1080341" data-name="Grupo 1080341" transform="translate(-181 -1679.979)">
    <rect id="Rectángulo_356256" data-name="Rectángulo 356256" width="1240" height="554" transform="translate(181 1679.979)" fill="#f6f6f6"/>
    <g id="Grupo_1080340" data-name="Grupo 1080340">
      <path id="Trazado_828864" data-name="Trazado 828864" d="M7.937-12.981v2.329H7.8a4.447,4.447,0,0,0-2.729.8,3.358,3.358,0,0,0-1.314,2.21,3.464,3.464,0,0,1,2.531-.984A3.231,3.231,0,0,1,8.938-7.418a4.892,4.892,0,0,1,.984,3.182A4.48,4.48,0,0,1,9.347-2,4.108,4.108,0,0,1,7.739-.4a4.622,4.622,0,0,1-2.29.576,4.777,4.777,0,0,1-2.435-.62,4.26,4.26,0,0,1-1.67-1.771A5.832,5.832,0,0,1,.729-4.869V-6.056a7.387,7.387,0,0,1,.848-3.555A6.149,6.149,0,0,1,4-12.085a6.923,6.923,0,0,1,3.489-.9ZM5.265-6.346a1.7,1.7,0,0,0-.984.271,1.725,1.725,0,0,0-.589.665v.884q0,2.416,1.679,2.416a1.363,1.363,0,0,0,1.129-.6,2.454,2.454,0,0,0,.453-1.514,2.409,2.409,0,0,0-.461-1.527A1.478,1.478,0,0,0,5.265-6.346Zm19.3,1.661a5.735,5.735,0,0,1-1,3.538A3.2,3.2,0,0,1,20.874.176a2.742,2.742,0,0,1-2.153-.958V3.656H15.759V-9.51h2.769l.088.879a2.742,2.742,0,0,1,2.241-1.055,3.224,3.224,0,0,1,2.733,1.3,5.805,5.805,0,0,1,.976,3.564ZM21.6-4.869Q21.6-7.4,20.127-7.4a1.394,1.394,0,0,0-1.406.756V-2.9a1.439,1.439,0,0,0,1.424.791q1.415,0,1.459-2.443Zm10.02-1.96-.976-.07a1.752,1.752,0,0,0-1.793.879V0H25.893V-9.51H28.67l.1,1.222a2.294,2.294,0,0,1,2.083-1.4,2.888,2.888,0,0,1,.826.105ZM35.815,0H32.845V-9.51h2.971ZM32.669-11.971a1.334,1.334,0,0,1,.457-1.043,1.718,1.718,0,0,1,1.187-.407,1.718,1.718,0,0,1,1.187.407,1.334,1.334,0,0,1,.457,1.043,1.334,1.334,0,0,1-.457,1.043,1.718,1.718,0,0,1-1.187.407,1.718,1.718,0,0,1-1.187-.407A1.334,1.334,0,0,1,32.669-11.971Zm7.69,2.461.1,1.116a3.225,3.225,0,0,1,2.716-1.292,2.713,2.713,0,0,1,2.219.888,4.226,4.226,0,0,1,.76,2.672V0H43.181V-6a1.6,1.6,0,0,0-.29-1.059A1.342,1.342,0,0,0,41.836-7.4a1.413,1.413,0,0,0-1.292.686V0H37.582V-9.51Zm11.452,7.4a1.317,1.317,0,0,0,.967-.338,1.241,1.241,0,0,0,.334-.945H55.89A3.288,3.288,0,0,1,54.769-.826a4.168,4.168,0,0,1-2.887,1,4.22,4.22,0,0,1-3.27-1.3,5.125,5.125,0,0,1-1.2-3.6v-.123A5.792,5.792,0,0,1,47.949-7.4a3.872,3.872,0,0,1,1.534-1.7,4.573,4.573,0,0,1,2.373-.593A4.116,4.116,0,0,1,54.8-8.657a3.647,3.647,0,0,1,1.09,2.786H53.112A1.626,1.626,0,0,0,52.752-7a1.244,1.244,0,0,0-.967-.4q-1.151,0-1.345,1.468a10.357,10.357,0,0,0-.062,1.283,4.068,4.068,0,0,0,.343,1.986A1.187,1.187,0,0,0,51.812-2.109ZM60.267,0H57.3V-9.51h2.971ZM57.12-11.971a1.334,1.334,0,0,1,.457-1.043,1.718,1.718,0,0,1,1.187-.407,1.718,1.718,0,0,1,1.187.407,1.334,1.334,0,0,1,.457,1.043,1.334,1.334,0,0,1-.457,1.043,1.718,1.718,0,0,1-1.187.407,1.718,1.718,0,0,1-1.187-.407A1.334,1.334,0,0,1,57.12-11.971Zm13.8,7.286a5.735,5.735,0,0,1-1,3.538A3.2,3.2,0,0,1,67.228.176a2.742,2.742,0,0,1-2.153-.958V3.656H62.112V-9.51h2.769l.088.879A2.742,2.742,0,0,1,67.21-9.686a3.224,3.224,0,0,1,2.733,1.3,5.805,5.805,0,0,1,.976,3.564Zm-2.962-.185q0-2.531-1.477-2.531a1.394,1.394,0,0,0-1.406.756V-2.9a1.439,1.439,0,0,0,1.424.791q1.415,0,1.459-2.443ZM77.581,0A3.344,3.344,0,0,1,77.3-.853,2.754,2.754,0,0,1,75.015.176a3.374,3.374,0,0,1-2.285-.813,2.588,2.588,0,0,1-.94-2.043,2.66,2.66,0,0,1,1.143-2.338,5.821,5.821,0,0,1,3.322-.791h.914v-.5q0-1.316-1.134-1.316a.927.927,0,0,0-1.055,1.042H72.018a2.655,2.655,0,0,1,1.173-2.239,4.931,4.931,0,0,1,2.993-.86,4.323,4.323,0,0,1,2.874.888,3.086,3.086,0,0,1,1.081,2.435v4.21a4.311,4.311,0,0,0,.4,2V0ZM75.727-1.934a1.652,1.652,0,0,0,.918-.237,1.487,1.487,0,0,0,.523-.536V-4.228h-.861q-1.547,0-1.547,1.389a.848.848,0,0,0,.272.655A.986.986,0,0,0,75.727-1.934ZM84.9,0H81.932V-13.5H84.9Zm6.425.176a4.889,4.889,0,0,1-3.542-1.305,4.507,4.507,0,0,1-1.354-3.4v-.246a5.84,5.84,0,0,1,.541-2.575A3.955,3.955,0,0,1,88.55-9.075a4.763,4.763,0,0,1,2.461-.611,4.117,4.117,0,0,1,3.164,1.244,4.887,4.887,0,0,1,1.16,3.467v1.151H89.446a2.135,2.135,0,0,0,.694,1.257,2.066,2.066,0,0,0,1.389.457,2.662,2.662,0,0,0,2.2-.984l1.354,1.6A3.784,3.784,0,0,1,93.511-.277,5.3,5.3,0,0,1,91.327.176ZM90.993-7.4q-1.3,0-1.547,1.723h2.988v-.229a1.467,1.467,0,0,0-.36-1.1A1.434,1.434,0,0,0,90.993-7.4ZM101.5-2.672a.684.684,0,0,0-.4-.606,6.016,6.016,0,0,0-1.5-.475A6.853,6.853,0,0,1,97.778-4.4a3.062,3.062,0,0,1-1.1-.971A2.319,2.319,0,0,1,96.3-6.68a2.628,2.628,0,0,1,1.081-2.158,4.453,4.453,0,0,1,2.83-.848,4.934,4.934,0,0,1,3.023.853,2.666,2.666,0,0,1,1.143,2.241h-2.971q0-1.143-1.2-1.143a1.194,1.194,0,0,0-.782.259.8.8,0,0,0-.316.646.737.737,0,0,0,.387.642,3.654,3.654,0,0,0,1.235.4,10.671,10.671,0,0,1,1.49.378,2.706,2.706,0,0,1,2.145,2.646,2.491,2.491,0,0,1-1.156,2.118,5.068,5.068,0,0,1-2.993.817,5.172,5.172,0,0,1-2.18-.439,3.645,3.645,0,0,1-1.494-1.2A2.707,2.707,0,0,1,96-3.05h2.769a1.145,1.145,0,0,0,.439.962,1.808,1.808,0,0,0,1.081.3,1.422,1.422,0,0,0,.91-.246A.787.787,0,0,0,101.5-2.672Zm17.552-2.013a5.735,5.735,0,0,1-1,3.538A3.2,3.2,0,0,1,115.365.176a2.742,2.742,0,0,1-2.153-.958V3.656H110.25V-9.51h2.769l.088.879a2.742,2.742,0,0,1,2.241-1.055,3.224,3.224,0,0,1,2.733,1.3,5.805,5.805,0,0,1,.976,3.564Zm-2.962-.185q0-2.531-1.477-2.531a1.394,1.394,0,0,0-1.406.756V-2.9a1.439,1.439,0,0,0,1.424.791q1.415,0,1.459-2.443Zm10.02-1.96-.976-.07a1.752,1.752,0,0,0-1.793.879V0h-2.962V-9.51h2.777l.1,1.222a2.294,2.294,0,0,1,2.083-1.4,2.888,2.888,0,0,1,.826.105Zm.378,1.986a5.613,5.613,0,0,1,.554-2.536,3.96,3.96,0,0,1,1.591-1.709,4.791,4.791,0,0,1,2.435-.6,4.373,4.373,0,0,1,3.366,1.323,5.076,5.076,0,0,1,1.23,3.6v.105a4.925,4.925,0,0,1-1.235,3.529A4.384,4.384,0,0,1,131.089.176a4.434,4.434,0,0,1-3.261-1.217,4.761,4.761,0,0,1-1.327-3.3Zm2.962.185a3.538,3.538,0,0,0,.413,1.934,1.376,1.376,0,0,0,1.222.615q1.582,0,1.617-2.435v-.3q0-2.558-1.635-2.558-1.485,0-1.608,2.206Zm7.146-.167a5.809,5.809,0,0,1,.976-3.56,3.211,3.211,0,0,1,2.725-1.3,2.731,2.731,0,0,1,2.145,1V-13.5h2.971V0h-2.663L142.6-1.02a2.8,2.8,0,0,1-2.32,1.2,3.205,3.205,0,0,1-2.689-1.3A5.993,5.993,0,0,1,136.6-4.825Zm2.962.185q0,2.531,1.477,2.531a1.458,1.458,0,0,0,1.406-.826V-6.557a1.419,1.419,0,0,0-1.389-.844q-1.371,0-1.485,2.215Zm13.2,3.612a3.054,3.054,0,0,1-2.54,1.2,3,3,0,0,1-2.369-.91,3.826,3.826,0,0,1-.8-2.615V-9.51h2.962v6.179A1.065,1.065,0,0,0,151.2-2.109a1.548,1.548,0,0,0,1.45-.729V-9.51h2.979V0h-2.777Zm8.508-1.081a1.317,1.317,0,0,0,.967-.338,1.241,1.241,0,0,0,.334-.945h2.777a3.288,3.288,0,0,1-1.121,2.566,4.168,4.168,0,0,1-2.887,1,4.22,4.22,0,0,1-3.27-1.3,5.125,5.125,0,0,1-1.2-3.6v-.123a5.792,5.792,0,0,1,.532-2.544,3.872,3.872,0,0,1,1.534-1.7,4.573,4.573,0,0,1,2.373-.593,4.116,4.116,0,0,1,2.944,1.028,3.647,3.647,0,0,1,1.09,2.786h-2.777A1.626,1.626,0,0,0,162.211-7a1.244,1.244,0,0,0-.967-.4q-1.151,0-1.345,1.468a10.357,10.357,0,0,0-.062,1.283,4.068,4.068,0,0,0,.343,1.986A1.187,1.187,0,0,0,161.271-2.109Zm8.78-9.765V-9.51h1.564v2.057h-1.564V-3.1a1.111,1.111,0,0,0,.193.747,1.037,1.037,0,0,0,.765.211,4.345,4.345,0,0,0,.738-.053V-.079a5.466,5.466,0,0,1-1.67.255,3.1,3.1,0,0,1-2.259-.721,2.954,2.954,0,0,1-.729-2.188v-4.72h-1.213V-9.51h1.213v-2.364Zm2.092,7.031a5.613,5.613,0,0,1,.554-2.536,3.96,3.96,0,0,1,1.591-1.709,4.791,4.791,0,0,1,2.435-.6,4.373,4.373,0,0,1,3.366,1.323,5.076,5.076,0,0,1,1.23,3.6v.105a4.925,4.925,0,0,1-1.235,3.529A4.384,4.384,0,0,1,176.739.176a4.434,4.434,0,0,1-3.261-1.217,4.761,4.761,0,0,1-1.327-3.3Zm2.962.185a3.538,3.538,0,0,0,.413,1.934,1.376,1.376,0,0,0,1.222.615q1.582,0,1.617-2.435v-.3q0-2.558-1.635-2.558-1.485,0-1.608,2.206Zm12.5,1.986a.684.684,0,0,0-.4-.606,6.016,6.016,0,0,0-1.5-.475,6.853,6.853,0,0,1-1.828-.646,3.062,3.062,0,0,1-1.1-.971,2.319,2.319,0,0,1-.378-1.31,2.628,2.628,0,0,1,1.081-2.158,4.453,4.453,0,0,1,2.83-.848,4.934,4.934,0,0,1,3.023.853,2.666,2.666,0,0,1,1.143,2.241h-2.971q0-1.143-1.2-1.143a1.194,1.194,0,0,0-.782.259.8.8,0,0,0-.316.646.737.737,0,0,0,.387.642,3.654,3.654,0,0,0,1.235.4,10.671,10.671,0,0,1,1.49.378,2.706,2.706,0,0,1,2.145,2.646A2.491,2.491,0,0,1,189.3-.642a5.068,5.068,0,0,1-2.993.817,5.172,5.172,0,0,1-2.18-.439,3.645,3.645,0,0,1-1.494-1.2A2.707,2.707,0,0,1,182.1-3.05h2.769a1.145,1.145,0,0,0,.439.962,1.808,1.808,0,0,0,1.081.3,1.422,1.422,0,0,0,.91-.246A.787.787,0,0,0,187.6-2.672Zm5.282,6.117-1.494-.7.3-.6a4.874,4.874,0,0,0,.642-2.18v-2.2H194.7L194.7-.325a4.767,4.767,0,0,1-.519,2.057A5.226,5.226,0,0,1,192.885,3.445Zm17.121-8.13a5.735,5.735,0,0,1-1,3.538A3.2,3.2,0,0,1,206.314.176a2.742,2.742,0,0,1-2.153-.958V3.656H201.2V-9.51h2.769l.088.879A2.742,2.742,0,0,1,206.3-9.686a3.224,3.224,0,0,1,2.733,1.3,5.805,5.805,0,0,1,.976,3.564Zm-2.962-.185q0-2.531-1.477-2.531a1.394,1.394,0,0,0-1.406.756V-2.9a1.439,1.439,0,0,0,1.424.791q1.415,0,1.459-2.443Zm3.894.026a5.613,5.613,0,0,1,.554-2.536,3.96,3.96,0,0,1,1.591-1.709,4.791,4.791,0,0,1,2.435-.6,4.373,4.373,0,0,1,3.366,1.323,5.076,5.076,0,0,1,1.23,3.6v.105a4.925,4.925,0,0,1-1.235,3.529A4.384,4.384,0,0,1,215.534.176a4.434,4.434,0,0,1-3.261-1.217,4.761,4.761,0,0,1-1.327-3.3Zm2.962.185a3.538,3.538,0,0,0,.413,1.934,1.376,1.376,0,0,0,1.222.615q1.582,0,1.617-2.435v-.3q0-2.558-1.635-2.558-1.485,0-1.608,2.206Zm13.271-2.171L226.2-6.9a1.752,1.752,0,0,0-1.793.879V0H221.44V-9.51h2.777l.1,1.222a2.294,2.294,0,0,1,2.083-1.4,2.888,2.888,0,0,1,.826.105ZM235.846,0h-2.971V-9.51h2.971ZM232.7-11.971a1.334,1.334,0,0,1,.457-1.043,1.718,1.718,0,0,1,1.187-.407,1.718,1.718,0,0,1,1.187.407,1.334,1.334,0,0,1,.457,1.043,1.334,1.334,0,0,1-.457,1.043,1.718,1.718,0,0,1-1.187.407,1.718,1.718,0,0,1-1.187-.407A1.334,1.334,0,0,1,232.7-11.971Zm7.69,2.461.1,1.116A3.225,3.225,0,0,1,243.2-9.686a2.713,2.713,0,0,1,2.219.888,4.226,4.226,0,0,1,.76,2.672V0h-2.971V-6a1.6,1.6,0,0,0-.29-1.059,1.342,1.342,0,0,0-1.055-.338,1.413,1.413,0,0,0-1.292.686V0h-2.962V-9.51Zm7.084,4.685a6.421,6.421,0,0,1,.475-2.549,3.821,3.821,0,0,1,1.362-1.709,3.591,3.591,0,0,1,2.065-.6,2.855,2.855,0,0,1,2.32,1l.105-.826h2.689V-.36a4.009,4.009,0,0,1-.584,2.184,3.75,3.75,0,0,1-1.692,1.424,6.219,6.219,0,0,1-2.566.5,5.365,5.365,0,0,1-2.026-.4,3.657,3.657,0,0,1-1.5-1.028L249.363.58a2.716,2.716,0,0,0,2.18.976,1.764,1.764,0,0,0,1.969-2.021v-.3a2.781,2.781,0,0,1-2.153.94,3.437,3.437,0,0,1-2.812-1.332,5.517,5.517,0,0,1-1.072-3.564Zm2.971.185a3.383,3.383,0,0,0,.439,1.85,1.386,1.386,0,0,0,1.23.681,1.573,1.573,0,0,0,1.4-.642v-4a1.534,1.534,0,0,0-1.38-.65,1.4,1.4,0,0,0-1.239.708A3.858,3.858,0,0,0,250.444-4.641Zm13.482-2.188-.976-.07a1.752,1.752,0,0,0-1.793.879V0H258.2V-9.51h2.777l.1,1.222a2.294,2.294,0,0,1,2.083-1.4,2.888,2.888,0,0,1,.826.105Zm5.5,7a4.889,4.889,0,0,1-3.542-1.305,4.507,4.507,0,0,1-1.354-3.4v-.246a5.84,5.84,0,0,1,.541-2.575,3.955,3.955,0,0,1,1.578-1.727,4.763,4.763,0,0,1,2.461-.611,4.117,4.117,0,0,1,3.164,1.244,4.887,4.887,0,0,1,1.16,3.467v1.151h-5.889a2.135,2.135,0,0,0,.694,1.257,2.066,2.066,0,0,0,1.389.457,2.662,2.662,0,0,0,2.2-.984l1.354,1.6a3.784,3.784,0,0,1-1.569,1.217A5.3,5.3,0,0,1,269.429.176ZM269.095-7.4q-1.3,0-1.547,1.723h2.988v-.229a1.467,1.467,0,0,0-.36-1.1A1.434,1.434,0,0,0,269.095-7.4Zm10.512,4.729a.684.684,0,0,0-.4-.606,6.016,6.016,0,0,0-1.5-.475A6.853,6.853,0,0,1,275.88-4.4a3.062,3.062,0,0,1-1.1-.971,2.319,2.319,0,0,1-.378-1.31,2.628,2.628,0,0,1,1.081-2.158,4.453,4.453,0,0,1,2.83-.848,4.934,4.934,0,0,1,3.023.853,2.666,2.666,0,0,1,1.143,2.241H279.51q0-1.143-1.2-1.143a1.194,1.194,0,0,0-.782.259.8.8,0,0,0-.316.646.737.737,0,0,0,.387.642,3.654,3.654,0,0,0,1.235.4,10.671,10.671,0,0,1,1.49.378,2.706,2.706,0,0,1,2.145,2.646,2.491,2.491,0,0,1-1.156,2.118,5.068,5.068,0,0,1-2.993.817,5.172,5.172,0,0,1-2.18-.439,3.645,3.645,0,0,1-1.494-1.2A2.707,2.707,0,0,1,274.1-3.05h2.769a1.145,1.145,0,0,0,.439.962,1.808,1.808,0,0,0,1.081.3,1.422,1.422,0,0,0,.91-.246A.787.787,0,0,0,279.606-2.672Zm3.867-2.171a5.613,5.613,0,0,1,.554-2.536,3.96,3.96,0,0,1,1.591-1.709,4.791,4.791,0,0,1,2.435-.6,4.373,4.373,0,0,1,3.366,1.323,5.076,5.076,0,0,1,1.23,3.6v.105a4.925,4.925,0,0,1-1.235,3.529A4.384,4.384,0,0,1,288.07.176a4.434,4.434,0,0,1-3.261-1.217,4.761,4.761,0,0,1-1.327-3.3Zm2.962.185a3.538,3.538,0,0,0,.413,1.934,1.376,1.376,0,0,0,1.222.615q1.582,0,1.617-2.435v-.3q0-2.558-1.635-2.558-1.485,0-1.608,2.206Zm12.5,1.986a.684.684,0,0,0-.4-.606,6.016,6.016,0,0,0-1.5-.475,6.853,6.853,0,0,1-1.828-.646,3.062,3.062,0,0,1-1.1-.971,2.319,2.319,0,0,1-.378-1.31,2.628,2.628,0,0,1,1.081-2.158,4.453,4.453,0,0,1,2.83-.848,4.934,4.934,0,0,1,3.023.853,2.666,2.666,0,0,1,1.143,2.241h-2.971q0-1.143-1.2-1.143a1.194,1.194,0,0,0-.782.259.8.8,0,0,0-.316.646.737.737,0,0,0,.387.642,3.654,3.654,0,0,0,1.235.4,10.671,10.671,0,0,1,1.49.378A2.706,2.706,0,0,1,301.79-2.76a2.491,2.491,0,0,1-1.156,2.118,5.068,5.068,0,0,1-2.993.817,5.172,5.172,0,0,1-2.18-.439,3.645,3.645,0,0,1-1.494-1.2,2.707,2.707,0,0,1-.536-1.591H296.2a1.145,1.145,0,0,0,.439.962,1.808,1.808,0,0,0,1.081.3,1.422,1.422,0,0,0,.91-.246A.787.787,0,0,0,298.934-2.672Zm12.524-1.477L313.04-9.51h3.173l-3.876,11.1-.167.4a2.944,2.944,0,0,1-2.918,1.846,4.642,4.642,0,0,1-1.222-.175V1.556h.387a2.026,2.026,0,0,0,.954-.18,1.094,1.094,0,0,0,.488-.647L310.1.1l-3.3-9.605h3.164Zm18.835-.536a5.735,5.735,0,0,1-1,3.538A3.2,3.2,0,0,1,326.6.176a2.742,2.742,0,0,1-2.153-.958V3.656h-2.962V-9.51h2.769l.088.879a2.742,2.742,0,0,1,2.241-1.055,3.224,3.224,0,0,1,2.733,1.3,5.805,5.805,0,0,1,.976,3.564Zm-2.962-.185q0-2.531-1.477-2.531a1.394,1.394,0,0,0-1.406.756V-2.9a1.439,1.439,0,0,0,1.424.791q1.415,0,1.459-2.443Zm3.894.026a5.613,5.613,0,0,1,.554-2.536,3.96,3.96,0,0,1,1.591-1.709,4.791,4.791,0,0,1,2.435-.6,4.373,4.373,0,0,1,3.366,1.323,5.076,5.076,0,0,1,1.23,3.6v.105a4.925,4.925,0,0,1-1.235,3.529A4.384,4.384,0,0,1,335.821.176a4.434,4.434,0,0,1-3.261-1.217,4.761,4.761,0,0,1-1.327-3.3Zm2.962.185a3.538,3.538,0,0,0,.413,1.934,1.376,1.376,0,0,0,1.222.615q1.582,0,1.617-2.435v-.3q0-2.558-1.635-2.558-1.485,0-1.608,2.206Zm13.271-2.171-.976-.07a1.752,1.752,0,0,0-1.793.879V0h-2.962V-9.51H344.5l.1,1.222a2.294,2.294,0,0,1,2.083-1.4,2.888,2.888,0,0,1,.826.105Zm9.571,4.72A1.317,1.317,0,0,0,358-2.448a1.241,1.241,0,0,0,.334-.945h2.777a3.288,3.288,0,0,1-1.121,2.566,4.168,4.168,0,0,1-2.887,1,4.22,4.22,0,0,1-3.27-1.3,5.125,5.125,0,0,1-1.2-3.6v-.123a5.792,5.792,0,0,1,.532-2.544,3.872,3.872,0,0,1,1.534-1.7,4.573,4.573,0,0,1,2.373-.593,4.116,4.116,0,0,1,2.944,1.028,3.647,3.647,0,0,1,1.09,2.786H358.33A1.626,1.626,0,0,0,357.97-7,1.244,1.244,0,0,0,357-7.4q-1.151,0-1.345,1.468a10.357,10.357,0,0,0-.062,1.283,4.068,4.068,0,0,0,.343,1.986A1.187,1.187,0,0,0,357.029-2.109ZM365.484,0h-2.971V-9.51h2.971Zm-3.146-11.971a1.334,1.334,0,0,1,.457-1.043,1.718,1.718,0,0,1,1.187-.407,1.718,1.718,0,0,1,1.187.407,1.334,1.334,0,0,1,.457,1.043,1.334,1.334,0,0,1-.457,1.043,1.718,1.718,0,0,1-1.187.407,1.718,1.718,0,0,1-1.187-.407A1.334,1.334,0,0,1,362.338-11.971ZM372.973-1.028a3.054,3.054,0,0,1-2.54,1.2,3,3,0,0,1-2.369-.91,3.826,3.826,0,0,1-.8-2.615V-9.51h2.962v6.179a1.065,1.065,0,0,0,1.187,1.222,1.548,1.548,0,0,0,1.45-.729V-9.51h2.979V0h-2.777Zm4.113-3.8a5.809,5.809,0,0,1,.976-3.56,3.211,3.211,0,0,1,2.725-1.3,2.731,2.731,0,0,1,2.145,1V-13.5H385.9V0h-2.663l-.149-1.02a2.8,2.8,0,0,1-2.32,1.2,3.205,3.205,0,0,1-2.689-1.3A5.993,5.993,0,0,1,377.086-4.825Zm2.962.185q0,2.531,1.477,2.531a1.458,1.458,0,0,0,1.406-.826V-6.557a1.419,1.419,0,0,0-1.389-.844q-1.371,0-1.485,2.215ZM392.941,0a3.344,3.344,0,0,1-.281-.853A2.754,2.754,0,0,1,390.375.176a3.374,3.374,0,0,1-2.285-.813,2.588,2.588,0,0,1-.94-2.043,2.66,2.66,0,0,1,1.143-2.338,5.821,5.821,0,0,1,3.322-.791h.914v-.5q0-1.316-1.134-1.316a.927.927,0,0,0-1.055,1.042h-2.962a2.655,2.655,0,0,1,1.173-2.239,4.931,4.931,0,0,1,2.993-.86,4.323,4.323,0,0,1,2.874.888A3.086,3.086,0,0,1,395.5-6.363v4.21a4.311,4.311,0,0,0,.4,2V0Zm-1.854-1.934a1.652,1.652,0,0,0,.918-.237,1.487,1.487,0,0,0,.523-.536V-4.228h-.861q-1.547,0-1.547,1.389a.848.848,0,0,0,.272.655A.986.986,0,0,0,391.087-1.934Zm5.678-2.892a5.809,5.809,0,0,1,.976-3.56,3.211,3.211,0,0,1,2.725-1.3,2.731,2.731,0,0,1,2.145,1V-13.5h2.971V0h-2.663l-.149-1.02a2.8,2.8,0,0,1-2.32,1.2,3.205,3.205,0,0,1-2.689-1.3A5.993,5.993,0,0,1,396.765-4.825Zm2.962.185q0,2.531,1.477,2.531a1.458,1.458,0,0,0,1.406-.826V-6.557a1.419,1.419,0,0,0-1.389-.844q-1.371,0-1.485,2.215Z" transform="translate(597 1728.979)" fill="#12263f"/>
      <g id="Grupo_1075776" data-name="Grupo 1075776" transform="translate(3.529 28.979)">
        <rect id="Rectángulo_377678" data-name="Rectángulo 377678" width="20" height="20" transform="translate(760.471 1723)" fill="#70bffe"/>
        <path id="Trazado_828870" data-name="Trazado 828870" d="M1.238,0V-10.664H4.724a4.047,4.047,0,0,1,2.611.718A2.587,2.587,0,0,1,8.21-7.822,2.166,2.166,0,0,1,7.786-6.5a2.754,2.754,0,0,1-1.157.89,2.473,2.473,0,0,1,1.366.919,2.638,2.638,0,0,1,.5,1.615A2.852,2.852,0,0,1,7.566-.82,3.847,3.847,0,0,1,4.937,0ZM2.644-4.988V-1.15H4.966a2.236,2.236,0,0,0,1.549-.509,1.788,1.788,0,0,0,.568-1.4q0-1.926-2.095-1.926Zm0-1.128H4.768a2.226,2.226,0,0,0,1.476-.462A1.55,1.55,0,0,0,6.8-7.833a1.524,1.524,0,0,0-.513-1.281,2.518,2.518,0,0,0-1.56-.4H2.644ZM10-4.036a4.681,4.681,0,0,1,.458-2.095,3.415,3.415,0,0,1,1.274-1.436A3.469,3.469,0,0,1,13.6-8.071a3.342,3.342,0,0,1,2.618,1.121,4.311,4.311,0,0,1,1,2.981v.1A4.722,4.722,0,0,1,16.776-1.8,3.365,3.365,0,0,1,15.509-.366a3.509,3.509,0,0,1-1.893.513A3.334,3.334,0,0,1,11-.974,4.29,4.29,0,0,1,10-3.94Zm1.362.161a3.39,3.39,0,0,0,.612,2.117,1.957,1.957,0,0,0,1.637.8,1.945,1.945,0,0,0,1.641-.809,3.707,3.707,0,0,0,.608-2.267,3.384,3.384,0,0,0-.619-2.113A1.968,1.968,0,0,0,13.6-6.958a1.946,1.946,0,0,0-1.619.8A3.68,3.68,0,0,0,11.367-3.875ZM18.6-4.028a4.658,4.658,0,0,1,.857-2.948,2.741,2.741,0,0,1,2.271-1.095,2.726,2.726,0,0,1,2.263,1.025l.066-.879h1.238V-.19a3.224,3.224,0,0,1-.912,2.424,3.365,3.365,0,0,1-2.45.886,4.076,4.076,0,0,1-1.677-.366A2.887,2.887,0,0,1,19,1.75l.7-.813a2.65,2.65,0,0,0,2.131,1.077,2.076,2.076,0,0,0,1.542-.557A2.128,2.128,0,0,0,23.928-.11V-.791a2.785,2.785,0,0,1-2.219.938A2.707,2.707,0,0,1,19.457-.974,4.9,4.9,0,0,1,18.6-4.028Zm1.362.154a3.553,3.553,0,0,0,.549,2.106A1.785,1.785,0,0,0,22.046-1a1.985,1.985,0,0,0,1.882-1.165V-5.786a2.008,2.008,0,0,0-1.868-1.135,1.8,1.8,0,0,0-1.545.769A3.87,3.87,0,0,0,19.958-3.875Zm7.017-.161a4.681,4.681,0,0,1,.458-2.095,3.415,3.415,0,0,1,1.274-1.436,3.469,3.469,0,0,1,1.864-.505A3.342,3.342,0,0,1,33.19-6.951a4.311,4.311,0,0,1,1,2.981v.1A4.722,4.722,0,0,1,33.746-1.8,3.365,3.365,0,0,1,32.479-.366a3.509,3.509,0,0,1-1.893.513A3.334,3.334,0,0,1,27.975-.974a4.29,4.29,0,0,1-1-2.966Zm1.362.161a3.39,3.39,0,0,0,.612,2.117,1.957,1.957,0,0,0,1.637.8,1.945,1.945,0,0,0,1.641-.809,3.707,3.707,0,0,0,.608-2.267,3.384,3.384,0,0,0-.619-2.113,1.968,1.968,0,0,0-1.644-.809,1.946,1.946,0,0,0-1.619.8A3.68,3.68,0,0,0,28.337-3.875Zm9.39-5.969v1.919h1.479v1.047H37.727v4.921a1.1,1.1,0,0,0,.2.715A.832.832,0,0,0,38.6-1a3.281,3.281,0,0,0,.645-.088V0A3.951,3.951,0,0,1,38.2.146,1.687,1.687,0,0,1,36.833-.4a2.36,2.36,0,0,1-.461-1.56V-6.877H34.929V-7.925h1.443V-9.844ZM45.681,0a2.846,2.846,0,0,1-.19-.835,3.023,3.023,0,0,1-2.256.981,2.8,2.8,0,0,1-1.923-.663A2.145,2.145,0,0,1,40.562-2.2,2.24,2.24,0,0,1,41.5-4.12,4.437,4.437,0,0,1,44.15-4.8h1.318v-.623a1.522,1.522,0,0,0-.425-1.132,1.707,1.707,0,0,0-1.252-.421,1.976,1.976,0,0,0-1.216.366,1.079,1.079,0,0,0-.491.886H40.723a1.87,1.87,0,0,1,.421-1.146,2.874,2.874,0,0,1,1.143-.875,3.844,3.844,0,0,1,1.586-.322,3.133,3.133,0,0,1,2.146.685A2.47,2.47,0,0,1,46.824-5.5v3.647A4.459,4.459,0,0,0,47.1-.117V0ZM43.433-1.033a2.381,2.381,0,0,0,1.208-.33,1.994,1.994,0,0,0,.828-.857V-3.845H44.407q-2.49,0-2.49,1.458a1.234,1.234,0,0,0,.425,1A1.633,1.633,0,0,0,43.433-1.033Zm1.252-10.2h1.641L44.363-9.082l-1.091,0Z" transform="translate(703.471 1739)" fill="#263238"/>
        <rect id="Rectángulo_377679" data-name="Rectángulo 377679" width="20" height="20" transform="translate(870.471 1723)" fill="#107dd3"/>
        <path id="Trazado_828871" data-name="Trazado 828871" d="M3.054-10.664l3.486,8.7,3.486-8.7h1.824V0H10.444V-4.153l.132-4.482L7.075,0H6L2.5-8.613l.139,4.46V0H1.238V-10.664ZM17.41.146A3.463,3.463,0,0,1,14.788-.912a3.928,3.928,0,0,1-1.011-2.831v-.249a4.756,4.756,0,0,1,.45-2.106,3.514,3.514,0,0,1,1.26-1.45,3.167,3.167,0,0,1,1.754-.524,2.968,2.968,0,0,1,2.4,1.018A4.408,4.408,0,0,1,20.5-4.138v.564H15.132a2.817,2.817,0,0,0,.685,1.893,2.153,2.153,0,0,0,1.666.721A2.36,2.36,0,0,0,18.7-1.252a3.055,3.055,0,0,0,.872-.776l.828.645A3.328,3.328,0,0,1,17.41.146Zm-.168-7.1a1.807,1.807,0,0,0-1.377.6,2.9,2.9,0,0,0-.688,1.674h3.97v-.1a2.581,2.581,0,0,0-.557-1.6A1.7,1.7,0,0,0,17.241-6.958Zm4.5,2.93A4.642,4.642,0,0,1,22.6-6.962a2.733,2.733,0,0,1,2.263-1.11,2.748,2.748,0,0,1,2.2.952V-11.25h1.355V0H27.18l-.066-.85a2.759,2.759,0,0,1-2.263,1A2.707,2.707,0,0,1,22.606-.981a4.7,4.7,0,0,1-.868-2.944Zm1.355.154a3.515,3.515,0,0,0,.557,2.109A1.8,1.8,0,0,0,25.188-1,1.977,1.977,0,0,0,27.07-2.161V-5.8A1.992,1.992,0,0,0,25.2-6.921a1.808,1.808,0,0,0-1.553.769A3.87,3.87,0,0,0,23.093-3.875ZM33.816.146A3.463,3.463,0,0,1,31.194-.912a3.928,3.928,0,0,1-1.011-2.831v-.249a4.756,4.756,0,0,1,.45-2.106,3.514,3.514,0,0,1,1.26-1.45,3.167,3.167,0,0,1,1.754-.524,2.968,2.968,0,0,1,2.4,1.018,4.408,4.408,0,0,1,.857,2.915v.564H31.538a2.817,2.817,0,0,0,.685,1.893,2.153,2.153,0,0,0,1.666.721A2.36,2.36,0,0,0,35.1-1.252a3.055,3.055,0,0,0,.872-.776l.828.645A3.328,3.328,0,0,1,33.816.146Zm-.168-7.1a1.807,1.807,0,0,0-1.377.6,2.9,2.9,0,0,0-.688,1.674h3.97v-.1A2.581,2.581,0,0,0,35-6.39,1.7,1.7,0,0,0,33.647-6.958ZM39.946,0H38.591V-11.25h1.355Zm3.64,0H42.231V-11.25h1.355Zm3.64,0H45.864V-7.925h1.362Zm.015-11.228h1.641L46.919-9.075l-1.091,0Zm3.5,3.3.044,1a2.888,2.888,0,0,1,2.373-1.143q2.512,0,2.534,2.834V0H54.338V-5.244a1.824,1.824,0,0,0-.392-1.267,1.57,1.57,0,0,0-1.2-.41,1.956,1.956,0,0,0-1.157.352,2.387,2.387,0,0,0-.776.923V0H49.46V-7.925Z" transform="translate(806.471 1739)" fill="#263238"/>
      </g>
      <path id="Trazado_828867" data-name="Trazado 828867" d="M4.254,0H1.178V-12.8H4.254ZM8.982-9.51l.1,1.116a3.225,3.225,0,0,1,2.716-1.292,2.713,2.713,0,0,1,2.219.888,4.226,4.226,0,0,1,.76,2.672V0H11.8V-6a1.6,1.6,0,0,0-.29-1.059A1.342,1.342,0,0,0,10.459-7.4a1.413,1.413,0,0,0-1.292.686V0H6.205V-9.51Zm7.084,4.685a6.421,6.421,0,0,1,.475-2.549A3.821,3.821,0,0,1,17.9-9.083a3.591,3.591,0,0,1,2.065-.6,2.855,2.855,0,0,1,2.32,1l.105-.826h2.689V-.36A4.009,4.009,0,0,1,24.5,1.824a3.75,3.75,0,0,1-1.692,1.424,6.219,6.219,0,0,1-2.566.5,5.365,5.365,0,0,1-2.026-.4,3.657,3.657,0,0,1-1.5-1.028L17.956.58a2.716,2.716,0,0,0,2.18.976A1.764,1.764,0,0,0,22.1-.466v-.3a2.781,2.781,0,0,1-2.153.94,3.437,3.437,0,0,1-2.812-1.332A5.517,5.517,0,0,1,16.066-4.72Zm2.971.185a3.383,3.383,0,0,0,.439,1.85,1.386,1.386,0,0,0,1.23.681,1.573,1.573,0,0,0,1.4-.642v-4a1.534,1.534,0,0,0-1.38-.65,1.4,1.4,0,0,0-1.239.708A3.858,3.858,0,0,0,19.037-4.641ZM32.52-6.829l-.976-.07a1.752,1.752,0,0,0-1.793.879V0H26.789V-9.51h2.777l.1,1.222a2.294,2.294,0,0,1,2.083-1.4,2.888,2.888,0,0,1,.826.105Zm5.5,7a4.889,4.889,0,0,1-3.542-1.305,4.507,4.507,0,0,1-1.354-3.4v-.246a5.84,5.84,0,0,1,.541-2.575,3.955,3.955,0,0,1,1.578-1.727,4.763,4.763,0,0,1,2.461-.611,4.117,4.117,0,0,1,3.164,1.244,4.887,4.887,0,0,1,1.16,3.467v1.151H36.141a2.135,2.135,0,0,0,.694,1.257,2.066,2.066,0,0,0,1.389.457,2.662,2.662,0,0,0,2.2-.984l1.354,1.6A3.784,3.784,0,0,1,40.206-.277,5.3,5.3,0,0,1,38.021.176ZM37.688-7.4q-1.3,0-1.547,1.723h2.988v-.229a1.467,1.467,0,0,0-.36-1.1A1.434,1.434,0,0,0,37.688-7.4ZM48.2-2.672a.684.684,0,0,0-.4-.606,6.016,6.016,0,0,0-1.5-.475A6.853,6.853,0,0,1,44.473-4.4a3.062,3.062,0,0,1-1.1-.971A2.319,2.319,0,0,1,43-6.68a2.628,2.628,0,0,1,1.081-2.158,4.453,4.453,0,0,1,2.83-.848,4.934,4.934,0,0,1,3.023.853,2.666,2.666,0,0,1,1.143,2.241H48.1q0-1.143-1.2-1.143a1.194,1.194,0,0,0-.782.259.8.8,0,0,0-.316.646.737.737,0,0,0,.387.642,3.654,3.654,0,0,0,1.235.4,10.671,10.671,0,0,1,1.49.378A2.706,2.706,0,0,1,51.056-2.76,2.491,2.491,0,0,1,49.9-.642a5.068,5.068,0,0,1-2.993.817,5.172,5.172,0,0,1-2.18-.439,3.645,3.645,0,0,1-1.494-1.2A2.707,2.707,0,0,1,42.7-3.05h2.769a1.145,1.145,0,0,0,.439.962,1.808,1.808,0,0,0,1.081.3,1.422,1.422,0,0,0,.91-.246A.787.787,0,0,0,48.2-2.672Zm3.867-2.171a5.613,5.613,0,0,1,.554-2.536,3.96,3.96,0,0,1,1.591-1.709,4.791,4.791,0,0,1,2.435-.6,4.373,4.373,0,0,1,3.366,1.323,5.076,5.076,0,0,1,1.23,3.6v.105a4.925,4.925,0,0,1-1.235,3.529A4.384,4.384,0,0,1,56.663.176,4.434,4.434,0,0,1,53.4-1.042a4.761,4.761,0,0,1-1.327-3.3Zm2.962.185a3.538,3.538,0,0,0,.413,1.934,1.376,1.376,0,0,0,1.222.615q1.582,0,1.617-2.435v-.3q0-2.558-1.635-2.558-1.485,0-1.608,2.206Zm12.5,1.986a.684.684,0,0,0-.4-.606,6.016,6.016,0,0,0-1.5-.475A6.853,6.853,0,0,1,63.8-4.4a3.062,3.062,0,0,1-1.1-.971,2.319,2.319,0,0,1-.378-1.31A2.628,2.628,0,0,1,63.4-8.837a4.453,4.453,0,0,1,2.83-.848,4.934,4.934,0,0,1,3.023.853A2.666,2.666,0,0,1,70.4-6.592H67.43q0-1.143-1.2-1.143a1.194,1.194,0,0,0-.782.259.8.8,0,0,0-.316.646.737.737,0,0,0,.387.642,3.654,3.654,0,0,0,1.235.4,10.671,10.671,0,0,1,1.49.378A2.706,2.706,0,0,1,70.383-2.76,2.491,2.491,0,0,1,69.227-.642a5.068,5.068,0,0,1-2.993.817,5.172,5.172,0,0,1-2.18-.439,3.645,3.645,0,0,1-1.494-1.2,2.707,2.707,0,0,1-.536-1.591h2.769a1.145,1.145,0,0,0,.439.962,1.808,1.808,0,0,0,1.081.3,1.422,1.422,0,0,0,.91-.246A.787.787,0,0,0,67.526-2.672ZM80.851.176a4.889,4.889,0,0,1-3.542-1.305,4.507,4.507,0,0,1-1.354-3.4v-.246A5.84,5.84,0,0,1,76.5-7.348a3.955,3.955,0,0,1,1.578-1.727,4.763,4.763,0,0,1,2.461-.611A4.117,4.117,0,0,1,83.7-8.442a4.887,4.887,0,0,1,1.16,3.467v1.151H78.97a2.135,2.135,0,0,0,.694,1.257,2.066,2.066,0,0,0,1.389.457,2.662,2.662,0,0,0,2.2-.984l1.354,1.6A3.784,3.784,0,0,1,83.035-.277,5.3,5.3,0,0,1,80.851.176ZM80.517-7.4q-1.3,0-1.547,1.723h2.988v-.229a1.467,1.467,0,0,0-.36-1.1A1.434,1.434,0,0,0,80.517-7.4ZM88.77-9.51l.1,1.116a3.225,3.225,0,0,1,2.716-1.292A2.713,2.713,0,0,1,93.8-8.8a4.226,4.226,0,0,1,.76,2.672V0H91.591V-6a1.6,1.6,0,0,0-.29-1.059A1.342,1.342,0,0,0,90.246-7.4a1.413,1.413,0,0,0-1.292.686V0H85.992V-9.51Zm11.54,4.685a5.809,5.809,0,0,1,.976-3.56,3.211,3.211,0,0,1,2.725-1.3,2.731,2.731,0,0,1,2.145,1V-13.5h2.971V0h-2.663l-.149-1.02a2.8,2.8,0,0,1-2.32,1.2,3.205,3.205,0,0,1-2.689-1.3A5.993,5.993,0,0,1,100.31-4.825Zm2.962.185q0,2.531,1.477,2.531a1.458,1.458,0,0,0,1.406-.826V-6.557a1.419,1.419,0,0,0-1.389-.844q-1.371,0-1.485,2.215Zm7.163-.2a5.613,5.613,0,0,1,.554-2.536,3.96,3.96,0,0,1,1.591-1.709,4.791,4.791,0,0,1,2.435-.6,4.373,4.373,0,0,1,3.366,1.323,5.076,5.076,0,0,1,1.23,3.6v.105a4.925,4.925,0,0,1-1.235,3.529A4.384,4.384,0,0,1,115.031.176a4.434,4.434,0,0,1-3.261-1.217,4.761,4.761,0,0,1-1.327-3.3Zm2.962.185a3.538,3.538,0,0,0,.413,1.934,1.376,1.376,0,0,0,1.222.615q1.582,0,1.617-2.435v-.3q0-2.558-1.635-2.558-1.485,0-1.608,2.206Zm2.021-8.842h3.129L116.1-10.74l-2.417,0ZM124.04,0h-2.971V-13.5h2.971Zm7.181,0a3.344,3.344,0,0,1-.281-.853A2.754,2.754,0,0,1,128.654.176a3.374,3.374,0,0,1-2.285-.813,2.588,2.588,0,0,1-.94-2.043,2.66,2.66,0,0,1,1.143-2.338,5.821,5.821,0,0,1,3.322-.791h.914v-.5q0-1.316-1.134-1.316a.927.927,0,0,0-1.055,1.042h-2.962a2.655,2.655,0,0,1,1.173-2.239,4.931,4.931,0,0,1,2.993-.86A4.323,4.323,0,0,1,132.7-8.8a3.086,3.086,0,0,1,1.081,2.435v4.21a4.311,4.311,0,0,0,.4,2V0Zm-1.854-1.934a1.652,1.652,0,0,0,.918-.237,1.487,1.487,0,0,0,.523-.536V-4.228h-.861q-1.547,0-1.547,1.389a.848.848,0,0,0,.272.655A.986.986,0,0,0,129.366-1.934Zm11.8-4.9-.976-.07a1.752,1.752,0,0,0-1.793.879V0h-2.962V-9.51h2.777l.1,1.222a2.294,2.294,0,0,1,2.083-1.4,2.888,2.888,0,0,1,.826.105Zm5.5,7a4.889,4.889,0,0,1-3.542-1.305,4.507,4.507,0,0,1-1.354-3.4v-.246a5.84,5.84,0,0,1,.541-2.575,3.955,3.955,0,0,1,1.578-1.727,4.763,4.763,0,0,1,2.461-.611,4.117,4.117,0,0,1,3.164,1.244,4.887,4.887,0,0,1,1.16,3.467v1.151h-5.889a2.135,2.135,0,0,0,.694,1.257,2.066,2.066,0,0,0,1.389.457,2.662,2.662,0,0,0,2.2-.984l1.354,1.6a3.784,3.784,0,0,1-1.569,1.217A5.3,5.3,0,0,1,146.672.176ZM146.338-7.4q-1.3,0-1.547,1.723h2.988v-.229a1.467,1.467,0,0,0-.36-1.1A1.434,1.434,0,0,0,146.338-7.4ZM156.85-2.672a.684.684,0,0,0-.4-.606,6.016,6.016,0,0,0-1.5-.475,6.853,6.853,0,0,1-1.828-.646,3.062,3.062,0,0,1-1.1-.971,2.319,2.319,0,0,1-.378-1.31,2.628,2.628,0,0,1,1.081-2.158,4.453,4.453,0,0,1,2.83-.848,4.934,4.934,0,0,1,3.023.853,2.666,2.666,0,0,1,1.143,2.241h-2.971q0-1.143-1.2-1.143a1.194,1.194,0,0,0-.782.259.8.8,0,0,0-.316.646.737.737,0,0,0,.387.642,3.654,3.654,0,0,0,1.235.4,10.671,10.671,0,0,1,1.49.378,2.706,2.706,0,0,1,2.145,2.646A2.491,2.491,0,0,1,158.55-.642a5.068,5.068,0,0,1-2.993.817,5.172,5.172,0,0,1-2.18-.439,3.645,3.645,0,0,1-1.494-1.2,2.707,2.707,0,0,1-.536-1.591h2.769a1.145,1.145,0,0,0,.439.962,1.808,1.808,0,0,0,1.081.3,1.422,1.422,0,0,0,.91-.246A.787.787,0,0,0,156.85-2.672Z" transform="translate(269 2054.979) rotate(-90)" fill="#12263f"/>
      <path id="Trazado_824233" data-name="Trazado 824233" d="M-4060.615-9920.031h-13.417" transform="translate(4426.752 11706.51)" fill="none" stroke="#12263f" stroke-width="1"/>
      <path id="Trazado_824234" data-name="Trazado 824234" d="M-4060.615-9920.031h-13.417" transform="translate(4426.752 11832.162)" fill="none" stroke="#12263f" stroke-width="1"/>
      <path id="Trazado_824235" data-name="Trazado 824235" d="M-4060.615-9920.031h-13.417" transform="translate(4426.752 11957.162)" fill="none" stroke="#12263f" stroke-width="1"/>
      <path id="Trazado_824236" data-name="Trazado 824236" d="M-4060.615-9920.031h-13.417" transform="translate(4426.752 12081.662)" fill="none" stroke="#12263f" stroke-width="1.5"/>
      <path id="Trazado_828865" data-name="Trazado 828865" d="M2.856-5.991H3.875A2.238,2.238,0,0,0,5.383-6.5a1.688,1.688,0,0,0,.549-1.326A1.654,1.654,0,0,0,4.065-9.7a1.943,1.943,0,0,0-1.4.5,1.756,1.756,0,0,0-.524,1.329H.784A2.72,2.72,0,0,1,1.71-9.972a3.375,3.375,0,0,1,2.355-.839,3.335,3.335,0,0,1,2.366.8,2.884,2.884,0,0,1,.857,2.219,2.341,2.341,0,0,1-.45,1.348,2.72,2.72,0,0,1-1.227.974,2.621,2.621,0,0,1,1.359.923,2.563,2.563,0,0,1,.48,1.575A2.909,2.909,0,0,1,6.511-.7,3.511,3.511,0,0,1,4.072.146,3.6,3.6,0,0,1,1.63-.667,2.7,2.7,0,0,1,.688-2.812H2.051A1.743,1.743,0,0,0,2.6-1.465a2.089,2.089,0,0,0,1.472.505,2.05,2.05,0,0,0,1.5-.513,1.976,1.976,0,0,0,.52-1.472,1.793,1.793,0,0,0-.571-1.428,2.489,2.489,0,0,0-1.648-.513H2.856ZM16-4.548a6.2,6.2,0,0,1-.813,3.538A2.891,2.891,0,0,1,12.642.146,2.912,2.912,0,0,1,10.115-.985a5.882,5.882,0,0,1-.85-3.38V-6.174a6.059,6.059,0,0,1,.813-3.494,2.914,2.914,0,0,1,2.549-1.143,2.94,2.94,0,0,1,2.534,1.1A5.847,5.847,0,0,1,16-6.306ZM14.641-6.4a4.965,4.965,0,0,0-.483-2.509A1.664,1.664,0,0,0,12.627-9.7a1.642,1.642,0,0,0-1.516.784A4.848,4.848,0,0,0,10.62-6.5v2.168a5.045,5.045,0,0,0,.5,2.552,1.661,1.661,0,0,0,1.52.824,1.638,1.638,0,0,0,1.49-.776,4.862,4.862,0,0,0,.509-2.446ZM17.9-.71a.849.849,0,0,1,.209-.586.8.8,0,0,1,.626-.234.819.819,0,0,1,.634.234.831.831,0,0,1,.216.586.786.786,0,0,1-.216.564.834.834,0,0,1-.634.227.809.809,0,0,1-.626-.227A.8.8,0,0,1,17.9-.71ZM28.367-4.548a6.2,6.2,0,0,1-.813,3.538A2.891,2.891,0,0,1,25.012.146,2.912,2.912,0,0,1,22.485-.985a5.882,5.882,0,0,1-.85-3.38V-6.174a6.059,6.059,0,0,1,.813-3.494A2.914,2.914,0,0,1,25-10.811a2.94,2.94,0,0,1,2.534,1.1,5.847,5.847,0,0,1,.835,3.4ZM27.012-6.4a4.965,4.965,0,0,0-.483-2.509A1.664,1.664,0,0,0,25-9.7a1.642,1.642,0,0,0-1.516.784,4.848,4.848,0,0,0-.491,2.41v2.168a5.045,5.045,0,0,0,.5,2.552,1.661,1.661,0,0,0,1.52.824,1.638,1.638,0,0,0,1.49-.776,4.862,4.862,0,0,0,.509-2.446ZM36.79-4.548a6.2,6.2,0,0,1-.813,3.538A2.891,2.891,0,0,1,33.435.146,2.912,2.912,0,0,1,30.908-.985a5.882,5.882,0,0,1-.85-3.38V-6.174a6.059,6.059,0,0,1,.813-3.494,2.914,2.914,0,0,1,2.549-1.143,2.94,2.94,0,0,1,2.534,1.1,5.847,5.847,0,0,1,.835,3.4ZM35.435-6.4a4.965,4.965,0,0,0-.483-2.509A1.664,1.664,0,0,0,33.42-9.7a1.642,1.642,0,0,0-1.516.784,4.848,4.848,0,0,0-.491,2.41v2.168a5.045,5.045,0,0,0,.5,2.552,1.661,1.661,0,0,0,1.52.824,1.638,1.638,0,0,0,1.49-.776,4.862,4.862,0,0,0,.509-2.446Zm9.778,1.853A6.2,6.2,0,0,1,44.4-1.011,2.891,2.891,0,0,1,41.858.146,2.912,2.912,0,0,1,39.331-.985a5.882,5.882,0,0,1-.85-3.38V-6.174a6.059,6.059,0,0,1,.813-3.494,2.914,2.914,0,0,1,2.549-1.143,2.94,2.94,0,0,1,2.534,1.1,5.847,5.847,0,0,1,.835,3.4ZM43.857-6.4a4.965,4.965,0,0,0-.483-2.509A1.664,1.664,0,0,0,41.843-9.7a1.642,1.642,0,0,0-1.516.784,4.848,4.848,0,0,0-.491,2.41v2.168a5.045,5.045,0,0,0,.5,2.552,1.661,1.661,0,0,0,1.52.824,1.638,1.638,0,0,0,1.49-.776,4.862,4.862,0,0,0,.509-2.446Z" transform="translate(300.5 1790.979)" fill="#263238"/>
      <path id="Trazado_828866" data-name="Trazado 828866" d="M7.874,0H.886V-.974l3.691-4.1A8.77,8.77,0,0,0,5.709-6.588a2.524,2.524,0,0,0,.311-1.2,1.913,1.913,0,0,0-.505-1.37A1.767,1.767,0,0,0,4.167-9.7,2.093,2.093,0,0,0,2.6-9.122a2.2,2.2,0,0,0-.56,1.6H.681A3.145,3.145,0,0,1,1.63-9.9a3.516,3.516,0,0,1,2.538-.908,3.379,3.379,0,0,1,2.351.78,2.661,2.661,0,0,1,.864,2.076q0,1.575-2.007,3.75L2.52-1.106H7.874ZM16-4.548a6.2,6.2,0,0,1-.813,3.538A2.891,2.891,0,0,1,12.642.146,2.912,2.912,0,0,1,10.115-.985a5.882,5.882,0,0,1-.85-3.38V-6.174a6.059,6.059,0,0,1,.813-3.494,2.914,2.914,0,0,1,2.549-1.143,2.94,2.94,0,0,1,2.534,1.1A5.847,5.847,0,0,1,16-6.306ZM14.641-6.4a4.965,4.965,0,0,0-.483-2.509A1.664,1.664,0,0,0,12.627-9.7a1.642,1.642,0,0,0-1.516.784A4.848,4.848,0,0,0,10.62-6.5v2.168a5.045,5.045,0,0,0,.5,2.552,1.661,1.661,0,0,0,1.52.824,1.638,1.638,0,0,0,1.49-.776,4.862,4.862,0,0,0,.509-2.446ZM17.9-.71a.849.849,0,0,1,.209-.586.8.8,0,0,1,.626-.234.819.819,0,0,1,.634.234.831.831,0,0,1,.216.586.786.786,0,0,1-.216.564.834.834,0,0,1-.634.227.809.809,0,0,1-.626-.227A.8.8,0,0,1,17.9-.71ZM28.367-4.548a6.2,6.2,0,0,1-.813,3.538A2.891,2.891,0,0,1,25.012.146,2.912,2.912,0,0,1,22.485-.985a5.882,5.882,0,0,1-.85-3.38V-6.174a6.059,6.059,0,0,1,.813-3.494A2.914,2.914,0,0,1,25-10.811a2.94,2.94,0,0,1,2.534,1.1,5.847,5.847,0,0,1,.835,3.4ZM27.012-6.4a4.965,4.965,0,0,0-.483-2.509A1.664,1.664,0,0,0,25-9.7a1.642,1.642,0,0,0-1.516.784,4.848,4.848,0,0,0-.491,2.41v2.168a5.045,5.045,0,0,0,.5,2.552,1.661,1.661,0,0,0,1.52.824,1.638,1.638,0,0,0,1.49-.776,4.862,4.862,0,0,0,.509-2.446ZM36.79-4.548a6.2,6.2,0,0,1-.813,3.538A2.891,2.891,0,0,1,33.435.146,2.912,2.912,0,0,1,30.908-.985a5.882,5.882,0,0,1-.85-3.38V-6.174a6.059,6.059,0,0,1,.813-3.494,2.914,2.914,0,0,1,2.549-1.143,2.94,2.94,0,0,1,2.534,1.1,5.847,5.847,0,0,1,.835,3.4ZM35.435-6.4a4.965,4.965,0,0,0-.483-2.509A1.664,1.664,0,0,0,33.42-9.7a1.642,1.642,0,0,0-1.516.784,4.848,4.848,0,0,0-.491,2.41v2.168a5.045,5.045,0,0,0,.5,2.552,1.661,1.661,0,0,0,1.52.824,1.638,1.638,0,0,0,1.49-.776,4.862,4.862,0,0,0,.509-2.446Zm9.778,1.853A6.2,6.2,0,0,1,44.4-1.011,2.891,2.891,0,0,1,41.858.146,2.912,2.912,0,0,1,39.331-.985a5.882,5.882,0,0,1-.85-3.38V-6.174a6.059,6.059,0,0,1,.813-3.494,2.914,2.914,0,0,1,2.549-1.143,2.94,2.94,0,0,1,2.534,1.1,5.847,5.847,0,0,1,.835,3.4ZM43.857-6.4a4.965,4.965,0,0,0-.483-2.509A1.664,1.664,0,0,0,41.843-9.7a1.642,1.642,0,0,0-1.516.784,4.848,4.848,0,0,0-.491,2.41v2.168a5.045,5.045,0,0,0,.5,2.552,1.661,1.661,0,0,0,1.52.824,1.638,1.638,0,0,0,1.49-.776,4.862,4.862,0,0,0,.509-2.446Z" transform="translate(300.5 1916.631)" fill="#263238"/>
      <path id="Trazado_828868" data-name="Trazado 828868" d="M5.339,0H3.977V-9.031l-2.732,1v-1.23l3.882-1.458h.212ZM16-4.548a6.2,6.2,0,0,1-.813,3.538A2.891,2.891,0,0,1,12.642.146,2.912,2.912,0,0,1,10.115-.985a5.882,5.882,0,0,1-.85-3.38V-6.174a6.059,6.059,0,0,1,.813-3.494,2.914,2.914,0,0,1,2.549-1.143,2.94,2.94,0,0,1,2.534,1.1A5.847,5.847,0,0,1,16-6.306ZM14.641-6.4a4.965,4.965,0,0,0-.483-2.509A1.664,1.664,0,0,0,12.627-9.7a1.642,1.642,0,0,0-1.516.784A4.848,4.848,0,0,0,10.62-6.5v2.168a5.045,5.045,0,0,0,.5,2.552,1.661,1.661,0,0,0,1.52.824,1.638,1.638,0,0,0,1.49-.776,4.862,4.862,0,0,0,.509-2.446ZM17.9-.71a.849.849,0,0,1,.209-.586.8.8,0,0,1,.626-.234.819.819,0,0,1,.634.234.831.831,0,0,1,.216.586.786.786,0,0,1-.216.564.834.834,0,0,1-.634.227.809.809,0,0,1-.626-.227A.8.8,0,0,1,17.9-.71ZM28.367-4.548a6.2,6.2,0,0,1-.813,3.538A2.891,2.891,0,0,1,25.012.146,2.912,2.912,0,0,1,22.485-.985a5.882,5.882,0,0,1-.85-3.38V-6.174a6.059,6.059,0,0,1,.813-3.494A2.914,2.914,0,0,1,25-10.811a2.94,2.94,0,0,1,2.534,1.1,5.847,5.847,0,0,1,.835,3.4ZM27.012-6.4a4.965,4.965,0,0,0-.483-2.509A1.664,1.664,0,0,0,25-9.7a1.642,1.642,0,0,0-1.516.784,4.848,4.848,0,0,0-.491,2.41v2.168a5.045,5.045,0,0,0,.5,2.552,1.661,1.661,0,0,0,1.52.824,1.638,1.638,0,0,0,1.49-.776,4.862,4.862,0,0,0,.509-2.446ZM36.79-4.548a6.2,6.2,0,0,1-.813,3.538A2.891,2.891,0,0,1,33.435.146,2.912,2.912,0,0,1,30.908-.985a5.882,5.882,0,0,1-.85-3.38V-6.174a6.059,6.059,0,0,1,.813-3.494,2.914,2.914,0,0,1,2.549-1.143,2.94,2.94,0,0,1,2.534,1.1,5.847,5.847,0,0,1,.835,3.4ZM35.435-6.4a4.965,4.965,0,0,0-.483-2.509A1.664,1.664,0,0,0,33.42-9.7a1.642,1.642,0,0,0-1.516.784,4.848,4.848,0,0,0-.491,2.41v2.168a5.045,5.045,0,0,0,.5,2.552,1.661,1.661,0,0,0,1.52.824,1.638,1.638,0,0,0,1.49-.776,4.862,4.862,0,0,0,.509-2.446Zm9.778,1.853A6.2,6.2,0,0,1,44.4-1.011,2.891,2.891,0,0,1,41.858.146,2.912,2.912,0,0,1,39.331-.985a5.882,5.882,0,0,1-.85-3.38V-6.174a6.059,6.059,0,0,1,.813-3.494,2.914,2.914,0,0,1,2.549-1.143,2.94,2.94,0,0,1,2.534,1.1,5.847,5.847,0,0,1,.835,3.4ZM43.857-6.4a4.965,4.965,0,0,0-.483-2.509A1.664,1.664,0,0,0,41.843-9.7a1.642,1.642,0,0,0-1.516.784,4.848,4.848,0,0,0-.491,2.41v2.168a5.045,5.045,0,0,0,.5,2.552,1.661,1.661,0,0,0,1.52.824,1.638,1.638,0,0,0,1.49-.776,4.862,4.862,0,0,0,.509-2.446Z" transform="translate(300.5 2041.631)" fill="#263238"/>
      <path id="Trazado_828869" data-name="Trazado 828869" d="M6.563-3.942a5.371,5.371,0,0,1-.7,3.066,2.506,2.506,0,0,1-2.2,1,2.524,2.524,0,0,1-2.19-.981A5.1,5.1,0,0,1,.73-3.783V-5.351a5.251,5.251,0,0,1,.7-3.028,2.525,2.525,0,0,1,2.209-.99,2.548,2.548,0,0,1,2.2.955,5.068,5.068,0,0,1,.724,2.948ZM5.389-5.548A4.3,4.3,0,0,0,4.97-7.722,1.442,1.442,0,0,0,3.644-8.4a1.423,1.423,0,0,0-1.314.679A4.2,4.2,0,0,0,1.9-5.637v1.879a4.372,4.372,0,0,0,.435,2.212,1.439,1.439,0,0,0,1.317.714A1.42,1.42,0,0,0,4.948-1.5a4.214,4.214,0,0,0,.441-2.12Z" transform="translate(335.5 2165.979)" fill="#263238"/>
      <g id="Grupo_1075774" data-name="Grupo 1075774" transform="translate(522.768 28.979)">
        <g id="Grupo_1075770" data-name="Grupo 1075770" transform="translate(-4)">
          <rect id="Rectángulo_377682" data-name="Rectángulo 377682" width="45" height="250" transform="translate(685.471 1883)" fill="#70bffe"/>
          <rect id="Rectángulo_377683" data-name="Rectángulo 377683" width="45" height="294" transform="translate(654.471 1839)" fill="#107dd3"/>
        </g>
      </g>
      <path id="Trazado_824243" data-name="Trazado 824243" d="M-4065.655-9920.031h-8.377" transform="translate(-8708.793 6235.663) rotate(90)" fill="none" stroke="#12263f" stroke-width="1"/>
      <g id="Grupo_1080335" data-name="Grupo 1080335" transform="translate(72.764)">
        <g id="Grupo_1075773" data-name="Grupo 1075773" transform="translate(-98.196 28.979)">
          <rect id="Rectángulo_377686" data-name="Rectángulo 377686" width="45" height="221" transform="translate(949.471 1912)" fill="#70bffe"/>
          <rect id="Rectángulo_377687" data-name="Rectángulo 377687" width="45" height="276" transform="translate(918.471 1857)" fill="#107dd3"/>
        </g>
        <path id="Trazado_824240" data-name="Trazado 824240" d="M-4065.655-9920.031h-8.377" transform="translate(-9063.258 6235.663) rotate(90)" fill="none" stroke="#12263f" stroke-width="1"/>
        <path id="Trazado_828875" data-name="Trazado 828875" d="M2.644-4.175V0H1.238V-10.664H5.171a3.952,3.952,0,0,1,2.743.894A3.029,3.029,0,0,1,8.906-7.4a2.989,2.989,0,0,1-.97,2.391,4.128,4.128,0,0,1-2.78.839Zm0-1.15H5.171A2.526,2.526,0,0,0,6.9-5.857a1.945,1.945,0,0,0,.6-1.537A2.009,2.009,0,0,0,6.9-8.92a2.367,2.367,0,0,0-1.648-.594H2.644Zm7.39,1.289a4.681,4.681,0,0,1,.458-2.095,3.415,3.415,0,0,1,1.274-1.436,3.469,3.469,0,0,1,1.864-.505,3.342,3.342,0,0,1,2.618,1.121,4.311,4.311,0,0,1,1,2.981v.1A4.722,4.722,0,0,1,16.805-1.8,3.365,3.365,0,0,1,15.538-.366a3.509,3.509,0,0,1-1.893.513A3.334,3.334,0,0,1,11.034-.974a4.29,4.29,0,0,1-1-2.966Zm1.362.161a3.39,3.39,0,0,0,.612,2.117,1.957,1.957,0,0,0,1.637.8,1.945,1.945,0,0,0,1.641-.809,3.707,3.707,0,0,0,.608-2.267,3.384,3.384,0,0,0-.619-2.113,1.968,1.968,0,0,0-1.644-.809,1.946,1.946,0,0,0-1.619.8A3.68,3.68,0,0,0,11.4-3.875ZM20.42,0H19.065V-11.25H20.42ZM25.2-1.838l1.963-6.086H28.55L25.708,0H24.675L21.8-7.925h1.384Zm4.182-2.2a4.681,4.681,0,0,1,.458-2.095,3.415,3.415,0,0,1,1.274-1.436,3.469,3.469,0,0,1,1.864-.505A3.342,3.342,0,0,1,35.6-6.951a4.311,4.311,0,0,1,1,2.981v.1A4.722,4.722,0,0,1,36.156-1.8,3.365,3.365,0,0,1,34.889-.366,3.509,3.509,0,0,1,33,.146,3.334,3.334,0,0,1,30.385-.974a4.29,4.29,0,0,1-1-2.966Zm1.362.161a3.39,3.39,0,0,0,.612,2.117A1.957,1.957,0,0,0,33-.959a1.945,1.945,0,0,0,1.641-.809,3.707,3.707,0,0,0,.608-2.267,3.384,3.384,0,0,0-.619-2.113,1.968,1.968,0,0,0-1.644-.809,1.946,1.946,0,0,0-1.619.8A3.68,3.68,0,0,0,30.747-3.875Z" transform="translate(838.274 2187.004)" fill="#263238"/>
      </g>
      <g id="Grupo_1080337" data-name="Grupo 1080337" transform="translate(-43.385)">
        <g id="Grupo_1080339" data-name="Grupo 1080339" transform="translate(4.5)">
          <rect id="Rectángulo_377688" data-name="Rectángulo 377688" width="45" height="294" transform="translate(1102.274 1867.979)" fill="#70bffe"/>
          <rect id="Rectángulo_377689" data-name="Rectángulo 377689" width="45" height="205" transform="translate(1071.274 1956.979)" fill="#107dd3"/>
        </g>
        <path id="Trazado_824241" data-name="Trazado 824241" d="M-4065.655-9920.031h-8.377" transform="translate(-8806.258 6235.663) rotate(90)" fill="none" stroke="#12263f" stroke-width="1"/>
        <path id="Trazado_828876" data-name="Trazado 828876" d="M2.651-1.15H7.705V0H1.238V-10.664H2.651ZM13.989,0a2.846,2.846,0,0,1-.19-.835,3.023,3.023,0,0,1-2.256.981A2.8,2.8,0,0,1,9.62-.516,2.145,2.145,0,0,1,8.87-2.2,2.24,2.24,0,0,1,9.811-4.12,4.437,4.437,0,0,1,12.458-4.8h1.318v-.623a1.522,1.522,0,0,0-.425-1.132A1.707,1.707,0,0,0,12.1-6.98a1.976,1.976,0,0,0-1.216.366,1.079,1.079,0,0,0-.491.886H9.031a1.87,1.87,0,0,1,.421-1.146,2.874,2.874,0,0,1,1.143-.875,3.844,3.844,0,0,1,1.586-.322,3.133,3.133,0,0,1,2.146.685A2.47,2.47,0,0,1,15.132-5.5v3.647A4.459,4.459,0,0,0,15.41-.117V0ZM11.741-1.033a2.381,2.381,0,0,0,1.208-.33,1.994,1.994,0,0,0,.828-.857V-3.845H12.715q-2.49,0-2.49,1.458a1.234,1.234,0,0,0,.425,1A1.633,1.633,0,0,0,11.741-1.033Zm1.252-10.2h1.641L12.671-9.082l-1.091,0ZM23.95-3.875a4.745,4.745,0,0,1-.828,2.915A2.653,2.653,0,0,1,20.881.146a2.906,2.906,0,0,1-2.271-.916V3.047H17.256V-7.925h1.238l.066.879a2.791,2.791,0,0,1,2.3-1.025,2.7,2.7,0,0,1,2.26,1.077,4.8,4.8,0,0,1,.831,3ZM22.6-4.028a3.5,3.5,0,0,0-.571-2.117,1.84,1.84,0,0,0-1.567-.776A1.992,1.992,0,0,0,18.611-5.83v3.787a2,2,0,0,0,1.86,1.084,1.832,1.832,0,0,0,1.549-.773A3.822,3.822,0,0,0,22.6-4.028ZM27.144,0H25.789V-7.925h1.355ZM25.679-10.027a.809.809,0,0,1,.2-.557.756.756,0,0,1,.6-.227.768.768,0,0,1,.6.227.8.8,0,0,1,.205.557.774.774,0,0,1-.205.549.782.782,0,0,1-.6.22.77.77,0,0,1-.6-.22A.782.782,0,0,1,25.679-10.027Zm4.907,8.921h4.636V0H28.931V-1L33.3-6.8H29V-7.925H35v.959ZM41.931,0H40.576V-11.25h1.355Zm7.061,0a2.846,2.846,0,0,1-.19-.835,3.023,3.023,0,0,1-2.256.981,2.8,2.8,0,0,1-1.923-.663A2.145,2.145,0,0,1,43.872-2.2a2.24,2.24,0,0,1,.941-1.923A4.437,4.437,0,0,1,47.461-4.8h1.318v-.623a1.522,1.522,0,0,0-.425-1.132A1.707,1.707,0,0,0,47.1-6.98a1.976,1.976,0,0,0-1.216.366,1.079,1.079,0,0,0-.491.886H44.033a1.87,1.87,0,0,1,.421-1.146A2.874,2.874,0,0,1,45.6-7.749a3.844,3.844,0,0,1,1.586-.322,3.133,3.133,0,0,1,2.146.685A2.47,2.47,0,0,1,50.134-5.5v3.647a4.459,4.459,0,0,0,.278,1.736V0ZM46.743-1.033a2.381,2.381,0,0,0,1.208-.33,1.994,1.994,0,0,0,.828-.857V-3.845H47.717q-2.49,0-2.49,1.458a1.234,1.234,0,0,0,.425,1A1.633,1.633,0,0,0,46.743-1.033ZM58.967-3.875a4.712,4.712,0,0,1-.835,2.919,2.668,2.668,0,0,1-2.241,1.1A2.763,2.763,0,0,1,53.569-.916L53.5,0H52.258V-11.25h1.355v4.2a2.747,2.747,0,0,1,2.263-1.018A2.684,2.684,0,0,1,58.143-6.98a4.853,4.853,0,0,1,.824,2.988Zm-1.355-.154a3.662,3.662,0,0,0-.535-2.139,1.77,1.77,0,0,0-1.538-.754,1.989,1.989,0,0,0-1.926,1.245v3.428A2.045,2.045,0,0,0,55.554-1a1.76,1.76,0,0,0,1.516-.754A3.894,3.894,0,0,0,57.612-4.028ZM62.146,0H60.791V-7.925h1.355ZM60.681-10.027a.809.809,0,0,1,.2-.557.756.756,0,0,1,.6-.227.768.768,0,0,1,.6.227.8.8,0,0,1,.205.557.774.774,0,0,1-.205.549.782.782,0,0,1-.6.22.77.77,0,0,1-.6-.22A.782.782,0,0,1,60.681-10.027ZM69.207,0a2.846,2.846,0,0,1-.19-.835A3.023,3.023,0,0,1,66.76.146a2.8,2.8,0,0,1-1.923-.663A2.145,2.145,0,0,1,64.087-2.2a2.24,2.24,0,0,1,.941-1.923A4.437,4.437,0,0,1,67.676-4.8h1.318v-.623a1.522,1.522,0,0,0-.425-1.132,1.707,1.707,0,0,0-1.252-.421,1.976,1.976,0,0,0-1.216.366,1.079,1.079,0,0,0-.491.886H64.248a1.87,1.87,0,0,1,.421-1.146,2.874,2.874,0,0,1,1.143-.875A3.844,3.844,0,0,1,67.4-8.071a3.133,3.133,0,0,1,2.146.685A2.47,2.47,0,0,1,70.349-5.5v3.647a4.459,4.459,0,0,0,.278,1.736V0ZM66.958-1.033a2.381,2.381,0,0,0,1.208-.33,1.994,1.994,0,0,0,.828-.857V-3.845H67.932q-2.49,0-2.49,1.458a1.234,1.234,0,0,0,.425,1A1.633,1.633,0,0,0,66.958-1.033ZM73.945,0H72.59V-11.25h1.355Z" transform="translate(1076.273 2187.004)" fill="#263238"/>
      </g>
      <path id="Trazado_828877" data-name="Trazado 828877" d="M7.266-4.929H2.644V-1.15H8.013V0H1.238V-10.664h6.7v1.15h-5.3v3.435H7.266Zm6.9,2.827a1,1,0,0,0-.414-.853,3.983,3.983,0,0,0-1.443-.524,6.822,6.822,0,0,1-1.633-.527,2.324,2.324,0,0,1-.894-.732A1.752,1.752,0,0,1,9.492-5.75,2.056,2.056,0,0,1,10.316-7.4a3.218,3.218,0,0,1,2.106-.674,3.311,3.311,0,0,1,2.186.7,2.21,2.21,0,0,1,.839,1.78H14.084a1.223,1.223,0,0,0-.472-.959,1.77,1.77,0,0,0-1.19-.4,1.852,1.852,0,0,0-1.157.322,1.014,1.014,0,0,0-.417.842.822.822,0,0,0,.388.74,4.776,4.776,0,0,0,1.4.476,7.308,7.308,0,0,1,1.644.542,2.4,2.4,0,0,1,.934.758,1.864,1.864,0,0,1,.3,1.08,2.028,2.028,0,0,1-.85,1.7,3.564,3.564,0,0,1-2.2.641A3.991,3.991,0,0,1,10.781-.19a2.74,2.74,0,0,1-1.146-.941,2.268,2.268,0,0,1-.414-1.307h1.355a1.4,1.4,0,0,0,.546,1.08,2.117,2.117,0,0,0,1.344.4A2.185,2.185,0,0,0,13.7-1.271.956.956,0,0,0,14.165-2.1ZM18.56-7.925l.037.879a2.927,2.927,0,0,1,2.351-1.025A2.266,2.266,0,0,1,23.21-6.8,3,3,0,0,1,24.24-7.72a3.039,3.039,0,0,1,1.5-.352q2.607,0,2.651,2.761V0H27.034V-5.229A1.82,1.82,0,0,0,26.646-6.5a1.71,1.71,0,0,0-1.3-.421,1.8,1.8,0,0,0-1.252.45,1.827,1.827,0,0,0-.579,1.212V0H22.148V-5.193a1.512,1.512,0,0,0-1.692-1.729,1.813,1.813,0,0,0-1.824,1.135V0H17.278V-7.925ZM35.325,0a2.846,2.846,0,0,1-.19-.835,3.023,3.023,0,0,1-2.256.981,2.8,2.8,0,0,1-1.923-.663A2.145,2.145,0,0,1,30.205-2.2a2.24,2.24,0,0,1,.941-1.923A4.437,4.437,0,0,1,33.794-4.8h1.318v-.623a1.522,1.522,0,0,0-.425-1.132,1.707,1.707,0,0,0-1.252-.421,1.976,1.976,0,0,0-1.216.366,1.079,1.079,0,0,0-.491.886H30.366a1.87,1.87,0,0,1,.421-1.146,2.874,2.874,0,0,1,1.143-.875,3.844,3.844,0,0,1,1.586-.322,3.133,3.133,0,0,1,2.146.685A2.47,2.47,0,0,1,36.467-5.5v3.647a4.459,4.459,0,0,0,.278,1.736V0ZM33.076-1.033a2.381,2.381,0,0,0,1.208-.33,1.994,1.994,0,0,0,.828-.857V-3.845H34.05q-2.49,0-2.49,1.458a1.234,1.234,0,0,0,.425,1A1.633,1.633,0,0,0,33.076-1.033ZM40.063,0H38.708V-11.25h1.355ZM44.07-9.844v1.919h1.479v1.047H44.07v4.921a1.1,1.1,0,0,0,.2.715A.832.832,0,0,0,44.941-1a3.281,3.281,0,0,0,.645-.088V0a3.951,3.951,0,0,1-1.04.146A1.687,1.687,0,0,1,43.176-.4a2.36,2.36,0,0,1-.461-1.56V-6.877H41.272V-7.925h1.443V-9.844ZM50.42.146A3.463,3.463,0,0,1,47.8-.912a3.928,3.928,0,0,1-1.011-2.831v-.249a4.756,4.756,0,0,1,.45-2.106,3.514,3.514,0,0,1,1.26-1.45,3.167,3.167,0,0,1,1.754-.524,2.968,2.968,0,0,1,2.4,1.018,4.408,4.408,0,0,1,.857,2.915v.564H48.142a2.817,2.817,0,0,0,.685,1.893,2.153,2.153,0,0,0,1.666.721,2.36,2.36,0,0,0,1.216-.293,3.055,3.055,0,0,0,.872-.776l.828.645A3.328,3.328,0,0,1,50.42.146Zm-.168-7.1a1.807,1.807,0,0,0-1.377.6,2.9,2.9,0,0,0-.688,1.674h3.97v-.1a2.581,2.581,0,0,0-.557-1.6A1.7,1.7,0,0,0,50.251-6.958Zm8.21,2.93a4.642,4.642,0,0,1,.864-2.933,2.733,2.733,0,0,1,2.263-1.11,2.748,2.748,0,0,1,2.2.952V-11.25h1.355V0H63.9l-.066-.85a2.759,2.759,0,0,1-2.263,1A2.707,2.707,0,0,1,59.33-.981a4.7,4.7,0,0,1-.868-2.944Zm1.355.154a3.515,3.515,0,0,0,.557,2.109A1.8,1.8,0,0,0,61.912-1a1.977,1.977,0,0,0,1.882-1.157V-5.8a1.992,1.992,0,0,0-1.868-1.121,1.808,1.808,0,0,0-1.553.769A3.87,3.87,0,0,0,59.817-3.875ZM70.54.146A3.463,3.463,0,0,1,67.917-.912a3.928,3.928,0,0,1-1.011-2.831v-.249a4.756,4.756,0,0,1,.45-2.106,3.514,3.514,0,0,1,1.26-1.45,3.167,3.167,0,0,1,1.754-.524,2.968,2.968,0,0,1,2.4,1.018,4.408,4.408,0,0,1,.857,2.915v.564H68.262a2.817,2.817,0,0,0,.685,1.893,2.153,2.153,0,0,0,1.666.721,2.36,2.36,0,0,0,1.216-.293,3.055,3.055,0,0,0,.872-.776l.828.645A3.328,3.328,0,0,1,70.54.146Zm-.168-7.1a1.807,1.807,0,0,0-1.377.6,2.9,2.9,0,0,0-.688,1.674h3.97v-.1a2.581,2.581,0,0,0-.557-1.6A1.7,1.7,0,0,0,70.371-6.958ZM83.8-.784a2.878,2.878,0,0,1-2.322.93,2.464,2.464,0,0,1-1.93-.736,3.186,3.186,0,0,1-.67-2.179V-7.925h1.355v5.12Q80.237-1,81.7-1a2.028,2.028,0,0,0,2.065-1.157V-7.925h1.355V0H83.833Zm4.658-7.141.044,1a2.888,2.888,0,0,1,2.373-1.143q2.512,0,2.534,2.834V0H92.058V-5.244a1.824,1.824,0,0,0-.392-1.267,1.57,1.57,0,0,0-1.2-.41,1.956,1.956,0,0,0-1.157.352,2.387,2.387,0,0,0-.776.923V0H87.18V-7.925Zm4.482-3.091a1.821,1.821,0,0,1-.45,1.282,1.463,1.463,0,0,1-1.124.491,1.65,1.65,0,0,1-.52-.073,2.806,2.806,0,0,1-.575-.3,2.49,2.49,0,0,0-.513-.275,1.255,1.255,0,0,0-.363-.048.672.672,0,0,0-.513.231.836.836,0,0,0-.212.59l-.908-.051a1.912,1.912,0,0,1,.443-1.3,1.421,1.421,0,0,1,1.124-.513,1.366,1.366,0,0,1,.461.073,3.363,3.363,0,0,1,.557.286,3.276,3.276,0,0,0,.538.278,1.236,1.236,0,0,0,.414.066.655.655,0,0,0,.524-.249.874.874,0,0,0,.209-.579ZM100.349,0a2.846,2.846,0,0,1-.19-.835A3.023,3.023,0,0,1,97.9.146,2.8,2.8,0,0,1,95.98-.516,2.145,2.145,0,0,1,95.229-2.2a2.24,2.24,0,0,1,.941-1.923A4.437,4.437,0,0,1,98.818-4.8h1.318v-.623a1.522,1.522,0,0,0-.425-1.132,1.707,1.707,0,0,0-1.252-.421,1.976,1.976,0,0,0-1.216.366,1.079,1.079,0,0,0-.491.886H95.391a1.87,1.87,0,0,1,.421-1.146,2.874,2.874,0,0,1,1.143-.875,3.844,3.844,0,0,1,1.586-.322,3.133,3.133,0,0,1,2.146.685,2.47,2.47,0,0,1,.806,1.886v3.647a4.459,4.459,0,0,0,.278,1.736V0ZM98.1-1.033a2.381,2.381,0,0,0,1.208-.33,1.994,1.994,0,0,0,.828-.857V-3.845H99.075q-2.49,0-2.49,1.458a1.234,1.234,0,0,0,.425,1A1.633,1.633,0,0,0,98.1-1.033ZM108.23-2.1a1,1,0,0,0-.414-.853,3.983,3.983,0,0,0-1.443-.524,6.822,6.822,0,0,1-1.633-.527,2.324,2.324,0,0,1-.894-.732,1.752,1.752,0,0,1-.289-1.011,2.056,2.056,0,0,1,.824-1.648,3.218,3.218,0,0,1,2.106-.674,3.311,3.311,0,0,1,2.186.7,2.21,2.21,0,0,1,.839,1.78h-1.362a1.223,1.223,0,0,0-.472-.959,1.77,1.77,0,0,0-1.19-.4,1.852,1.852,0,0,0-1.157.322,1.014,1.014,0,0,0-.417.842.822.822,0,0,0,.388.74,4.776,4.776,0,0,0,1.4.476,7.308,7.308,0,0,1,1.644.542,2.4,2.4,0,0,1,.934.758,1.864,1.864,0,0,1,.3,1.08,2.028,2.028,0,0,1-.85,1.7,3.564,3.564,0,0,1-2.2.641,3.991,3.991,0,0,1-1.685-.337,2.74,2.74,0,0,1-1.146-.941,2.268,2.268,0,0,1-.414-1.307h1.355a1.4,1.4,0,0,0,.546,1.08,2.117,2.117,0,0,0,1.344.4,2.185,2.185,0,0,0,1.234-.311A.956.956,0,0,0,108.23-2.1Z" transform="translate(1156.239 2187.004)" fill="#263238"/>
      <path id="Trazado_824232" data-name="Trazado 824232" d="M-4069.267-9875.087v375.152h986.294" transform="translate(4434.67 11661.565)" fill="none" stroke="#12263f" stroke-width="1.5"/>
      <g id="Grupo_1080338" data-name="Grupo 1080338" transform="translate(-23.45)">
        <path id="Trazado_828268" data-name="Trazado 828268" d="M-4065.655-9920.031h-8.377" transform="translate(-9389.594 6235.663) rotate(90)" fill="none" stroke="#12263f" stroke-width="1"/>
        <path id="Trazado_828872" data-name="Trazado 828872" d="M1.238,0V-10.664H4.724a4.047,4.047,0,0,1,2.611.718A2.587,2.587,0,0,1,8.21-7.822,2.166,2.166,0,0,1,7.786-6.5a2.754,2.754,0,0,1-1.157.89,2.473,2.473,0,0,1,1.366.919,2.638,2.638,0,0,1,.5,1.615A2.852,2.852,0,0,1,7.566-.82,3.847,3.847,0,0,1,4.937,0ZM2.644-4.988V-1.15H4.966a2.236,2.236,0,0,0,1.549-.509,1.788,1.788,0,0,0,.568-1.4q0-1.926-2.095-1.926Zm0-1.128H4.768a2.226,2.226,0,0,0,1.476-.462A1.55,1.55,0,0,0,6.8-7.833a1.524,1.524,0,0,0-.513-1.281,2.518,2.518,0,0,0-1.56-.4H2.644Zm11.55-.593a4.061,4.061,0,0,0-.667-.051,1.786,1.786,0,0,0-1.809,1.135V0H10.364V-7.925h1.318l.022.916a2.11,2.11,0,0,1,1.89-1.062,1.384,1.384,0,0,1,.6.1ZM16.912,0H15.557V-7.925h1.355ZM15.447-10.027a.809.809,0,0,1,.2-.557.756.756,0,0,1,.6-.227.768.768,0,0,1,.6.227.8.8,0,0,1,.205.557.774.774,0,0,1-.205.549.782.782,0,0,1-.6.22.77.77,0,0,1-.6-.22A.782.782,0,0,1,15.447-10.027ZM20.552,0H19.2V-11.25h1.355Zm3.64,0H22.837V-11.25h1.355ZM26-4.036a4.681,4.681,0,0,1,.458-2.095,3.415,3.415,0,0,1,1.274-1.436A3.469,3.469,0,0,1,29.6-8.071a3.342,3.342,0,0,1,2.618,1.121,4.311,4.311,0,0,1,1,2.981v.1A4.722,4.722,0,0,1,32.772-1.8,3.365,3.365,0,0,1,31.505-.366a3.509,3.509,0,0,1-1.893.513A3.334,3.334,0,0,1,27-.974,4.29,4.29,0,0,1,26-3.94Zm1.362.161a3.39,3.39,0,0,0,.612,2.117,1.957,1.957,0,0,0,1.637.8,1.945,1.945,0,0,0,1.641-.809,3.707,3.707,0,0,0,.608-2.267,3.384,3.384,0,0,0-.619-2.113A1.968,1.968,0,0,0,29.6-6.958a1.946,1.946,0,0,0-1.619.8A3.68,3.68,0,0,0,27.363-3.875ZM40.1,0H38.745V-11.25H40.1Zm7.061,0a2.846,2.846,0,0,1-.19-.835,3.023,3.023,0,0,1-2.256.981,2.8,2.8,0,0,1-1.923-.663A2.145,2.145,0,0,1,42.041-2.2a2.24,2.24,0,0,1,.941-1.923A4.437,4.437,0,0,1,45.63-4.8h1.318v-.623a1.522,1.522,0,0,0-.425-1.132,1.707,1.707,0,0,0-1.252-.421,1.976,1.976,0,0,0-1.216.366,1.079,1.079,0,0,0-.491.886H42.2a1.87,1.87,0,0,1,.421-1.146,2.874,2.874,0,0,1,1.143-.875,3.844,3.844,0,0,1,1.586-.322,3.133,3.133,0,0,1,2.146.685A2.47,2.47,0,0,1,48.3-5.5v3.647a4.459,4.459,0,0,0,.278,1.736V0ZM44.912-1.033a2.381,2.381,0,0,0,1.208-.33,1.994,1.994,0,0,0,.828-.857V-3.845H45.886q-2.49,0-2.49,1.458a1.234,1.234,0,0,0,.425,1A1.633,1.633,0,0,0,44.912-1.033ZM57.136-3.875A4.712,4.712,0,0,1,56.3-.956,2.668,2.668,0,0,1,54.06.146,2.763,2.763,0,0,1,51.738-.916L51.672,0H50.427V-11.25h1.355v4.2a2.747,2.747,0,0,1,2.263-1.018A2.684,2.684,0,0,1,56.312-6.98a4.853,4.853,0,0,1,.824,2.988Zm-1.355-.154a3.662,3.662,0,0,0-.535-2.139,1.77,1.77,0,0,0-1.538-.754,1.989,1.989,0,0,0-1.926,1.245v3.428A2.045,2.045,0,0,0,53.723-1a1.76,1.76,0,0,0,1.516-.754A3.894,3.894,0,0,0,55.781-4.028ZM60.315,0H58.96V-7.925h1.355ZM58.85-10.027a.809.809,0,0,1,.2-.557.756.756,0,0,1,.6-.227.768.768,0,0,1,.6.227.8.8,0,0,1,.205.557.774.774,0,0,1-.205.549.782.782,0,0,1-.6.22.77.77,0,0,1-.6-.22A.782.782,0,0,1,58.85-10.027ZM67.375,0a2.846,2.846,0,0,1-.19-.835,3.023,3.023,0,0,1-2.256.981,2.8,2.8,0,0,1-1.923-.663A2.145,2.145,0,0,1,62.256-2.2,2.24,2.24,0,0,1,63.2-4.12,4.437,4.437,0,0,1,65.845-4.8h1.318v-.623a1.522,1.522,0,0,0-.425-1.132,1.707,1.707,0,0,0-1.252-.421,1.976,1.976,0,0,0-1.216.366,1.079,1.079,0,0,0-.491.886H62.417a1.87,1.87,0,0,1,.421-1.146,2.874,2.874,0,0,1,1.143-.875,3.844,3.844,0,0,1,1.586-.322,3.133,3.133,0,0,1,2.146.685A2.47,2.47,0,0,1,68.518-5.5v3.647A4.459,4.459,0,0,0,68.8-.117V0ZM65.127-1.033a2.381,2.381,0,0,0,1.208-.33,1.994,1.994,0,0,0,.828-.857V-3.845H66.1q-2.49,0-2.49,1.458a1.234,1.234,0,0,0,.425,1A1.633,1.633,0,0,0,65.127-1.033ZM72.114,0H70.759V-11.25h1.355Z" transform="translate(493.938 2187.004)" fill="#263238"/>
        <g id="Grupo_1080332" data-name="Grupo 1080332" transform="translate(-20.534 28.979)">
          <rect id="Rectángulo_377681" data-name="Rectángulo 377681" width="45" height="358" transform="translate(544.471 1775)" fill="#70bffe"/>
          <rect id="Rectángulo_377680" data-name="Rectángulo 377680" width="45" height="189" transform="translate(512.471 1944)" fill="#107dd3"/>
        </g>
      </g>
      <g id="Grupo_1080334" data-name="Grupo 1080334" transform="translate(52.31)">
        <path id="Trazado_824238" data-name="Trazado 824238" d="M-4065.655-9920.031h-8.377" transform="translate(-9324.504 6235.663) rotate(90)" fill="none" stroke="#12263f" stroke-width="1"/>
        <g id="Grupo_1080330" data-name="Grupo 1080330">
          <g id="Grupo_1075771" data-name="Grupo 1075771" transform="translate(-96.942 28.979)">
            <g id="Grupo_1075770-2" data-name="Grupo 1075770">
              <rect id="Rectángulo_377682-2" data-name="Rectángulo 377682" width="45" height="250" transform="translate(685.471 1883)" fill="#70bffe"/>
              <rect id="Rectángulo_377683-2" data-name="Rectángulo 377683" width="45" height="294" transform="translate(654.471 1839)" fill="#107dd3"/>
            </g>
          </g>
          <path id="Trazado_828873" data-name="Trazado 828873" d="M1.238,0V-10.664h3.01a4.846,4.846,0,0,1,2.461.615A4.161,4.161,0,0,1,8.361-8.3a5.7,5.7,0,0,1,.59,2.607v.681a5.718,5.718,0,0,1-.582,2.644A4.1,4.1,0,0,1,6.705-.623,5.155,5.155,0,0,1,4.189,0ZM2.644-9.514V-1.15H4.124A3.219,3.219,0,0,0,6.654-2.162a4.18,4.18,0,0,0,.9-2.881v-.623a4.246,4.246,0,0,0-.853-2.826A3.036,3.036,0,0,0,4.285-9.514ZM14.15.146A3.463,3.463,0,0,1,11.528-.912a3.928,3.928,0,0,1-1.011-2.831v-.249a4.756,4.756,0,0,1,.45-2.106,3.514,3.514,0,0,1,1.26-1.45,3.167,3.167,0,0,1,1.754-.524,2.968,2.968,0,0,1,2.4,1.018,4.408,4.408,0,0,1,.857,2.915v.564H11.873a2.817,2.817,0,0,0,.685,1.893,2.153,2.153,0,0,0,1.666.721,2.36,2.36,0,0,0,1.216-.293,3.055,3.055,0,0,0,.872-.776l.828.645A3.328,3.328,0,0,1,14.15.146Zm-.168-7.1a1.807,1.807,0,0,0-1.377.6,2.9,2.9,0,0,0-.688,1.674h3.97v-.1a2.581,2.581,0,0,0-.557-1.6A1.7,1.7,0,0,0,13.982-6.958ZM20.281,0H18.926V-11.25h1.355Zm3.64,0H22.566V-7.925h1.355ZM22.456-10.027a.809.809,0,0,1,.2-.557.756.756,0,0,1,.6-.227.768.768,0,0,1,.6.227.8.8,0,0,1,.205.557.774.774,0,0,1-.205.549.782.782,0,0,1-.6.22.77.77,0,0,1-.6-.22A.782.782,0,0,1,22.456-10.027Zm4.915,2.1.044,1a2.888,2.888,0,0,1,2.373-1.143q2.512,0,2.534,2.834V0H30.967V-5.244a1.824,1.824,0,0,0-.392-1.267,1.57,1.57,0,0,0-1.2-.41,1.956,1.956,0,0,0-1.157.352,2.387,2.387,0,0,0-.776.923V0H26.089V-7.925ZM37.654.146A3.463,3.463,0,0,1,35.032-.912a3.928,3.928,0,0,1-1.011-2.831v-.249a4.756,4.756,0,0,1,.45-2.106,3.514,3.514,0,0,1,1.26-1.45,3.167,3.167,0,0,1,1.754-.524,2.968,2.968,0,0,1,2.4,1.018,4.408,4.408,0,0,1,.857,2.915v.564H35.376a2.817,2.817,0,0,0,.685,1.893,2.153,2.153,0,0,0,1.666.721,2.36,2.36,0,0,0,1.216-.293,3.055,3.055,0,0,0,.872-.776l.828.645A3.328,3.328,0,0,1,37.654.146Zm-.168-7.1a1.807,1.807,0,0,0-1.377.6,2.9,2.9,0,0,0-.688,1.674h3.97v-.1a2.581,2.581,0,0,0-.557-1.6A1.7,1.7,0,0,0,37.485-6.958ZM47.2,0a2.846,2.846,0,0,1-.19-.835,3.023,3.023,0,0,1-2.256.981,2.8,2.8,0,0,1-1.923-.663A2.145,2.145,0,0,1,42.085-2.2a2.24,2.24,0,0,1,.941-1.923A4.437,4.437,0,0,1,45.674-4.8h1.318v-.623a1.522,1.522,0,0,0-.425-1.132,1.707,1.707,0,0,0-1.252-.421,1.976,1.976,0,0,0-1.216.366,1.079,1.079,0,0,0-.491.886H42.246a1.87,1.87,0,0,1,.421-1.146,2.874,2.874,0,0,1,1.143-.875A3.844,3.844,0,0,1,45.4-8.071a3.133,3.133,0,0,1,2.146.685A2.47,2.47,0,0,1,48.347-5.5v3.647a4.459,4.459,0,0,0,.278,1.736V0ZM44.956-1.033a2.381,2.381,0,0,0,1.208-.33,1.994,1.994,0,0,0,.828-.857V-3.845H45.93q-2.49,0-2.49,1.458a1.234,1.234,0,0,0,.425,1A1.633,1.633,0,0,0,44.956-1.033Zm5.186-3a4.642,4.642,0,0,1,.864-2.933,2.733,2.733,0,0,1,2.263-1.11,2.748,2.748,0,0,1,2.2.952V-11.25h1.355V0H55.583l-.066-.85a2.759,2.759,0,0,1-2.263,1A2.707,2.707,0,0,1,51.01-.981a4.7,4.7,0,0,1-.868-2.944Zm1.355.154a3.515,3.515,0,0,0,.557,2.109A1.8,1.8,0,0,0,53.591-1a1.977,1.977,0,0,0,1.882-1.157V-5.8a1.992,1.992,0,0,0-1.868-1.121,1.808,1.808,0,0,0-1.553.769A3.87,3.87,0,0,0,51.5-3.875Zm7.075-.161A4.681,4.681,0,0,1,59.03-6.13,3.415,3.415,0,0,1,60.3-7.566a3.469,3.469,0,0,1,1.864-.505,3.342,3.342,0,0,1,2.618,1.121,4.311,4.311,0,0,1,1,2.981v.1A4.722,4.722,0,0,1,65.343-1.8,3.365,3.365,0,0,1,64.076-.366a3.509,3.509,0,0,1-1.893.513A3.334,3.334,0,0,1,59.572-.974a4.29,4.29,0,0,1-1-2.966Zm1.362.161a3.39,3.39,0,0,0,.612,2.117,1.957,1.957,0,0,0,1.637.8,1.945,1.945,0,0,0,1.641-.809,3.707,3.707,0,0,0,.608-2.267,3.384,3.384,0,0,0-.619-2.113,1.968,1.968,0,0,0-1.644-.809,1.946,1.946,0,0,0-1.619.8A3.68,3.68,0,0,0,59.934-3.875ZM71.316-6.709a4.061,4.061,0,0,0-.667-.051A1.786,1.786,0,0,0,68.84-5.625V0H67.485V-7.925H68.8l.022.916a2.11,2.11,0,0,1,1.89-1.062,1.384,1.384,0,0,1,.6.1Z" transform="translate(559.528 2187.004)" fill="#263238"/>
        </g>
      </g>
      <g id="Grupo_1080336" data-name="Grupo 1080336" transform="translate(62.765)">
        <g id="Grupo_1075772" data-name="Grupo 1075772" transform="translate(-84.547 28.979)">
          <rect id="Rectángulo_377684" data-name="Rectángulo 377684" width="45" height="219" transform="translate(803.471 1914)" fill="#70bffe"/>
          <rect id="Rectángulo_377685" data-name="Rectángulo 377685" width="45" height="146" transform="translate(772.471 1987)" fill="#107dd3"/>
        </g>
        <path id="Trazado_824239" data-name="Trazado 824239" d="M-4065.655-9920.031h-8.377" transform="translate(-9194.107 6235.663) rotate(90)" fill="none" stroke="#12263f" stroke-width="1"/>
        <path id="Trazado_828874" data-name="Trazado 828874" d="M4.38-4.753A6.612,6.612,0,0,1,1.747-6.031,2.442,2.442,0,0,1,.923-7.9,2.58,2.58,0,0,1,1.93-9.987a4,4,0,0,1,2.618-.824,4.369,4.369,0,0,1,1.959.425A3.222,3.222,0,0,1,7.841-9.214a3,3,0,0,1,.472,1.633H6.9a1.95,1.95,0,0,0-.615-1.525,2.5,2.5,0,0,0-1.736-.555A2.561,2.561,0,0,0,2.926-9.2a1.53,1.53,0,0,0-.582,1.273,1.376,1.376,0,0,0,.553,1.1A5.424,5.424,0,0,0,4.779-6a8.734,8.734,0,0,1,2.08.825A3.157,3.157,0,0,1,7.972-4.124,2.683,2.683,0,0,1,8.335-2.71,2.492,2.492,0,0,1,7.324-.634a4.31,4.31,0,0,1-2.7.78A5.013,5.013,0,0,1,2.571-.275,3.451,3.451,0,0,1,1.1-1.428,2.815,2.815,0,0,1,.586-3.091H2a1.837,1.837,0,0,0,.714,1.527A3.007,3.007,0,0,0,4.622-1a2.764,2.764,0,0,0,1.707-.454A1.475,1.475,0,0,0,6.921-2.7a1.448,1.448,0,0,0-.549-1.212A6.333,6.333,0,0,0,4.38-4.753Zm5.186.718a4.681,4.681,0,0,1,.458-2.095A3.415,3.415,0,0,1,11.3-7.566a3.469,3.469,0,0,1,1.864-.505A3.342,3.342,0,0,1,15.78-6.951a4.311,4.311,0,0,1,1,2.981v.1A4.722,4.722,0,0,1,16.337-1.8,3.365,3.365,0,0,1,15.07-.366a3.509,3.509,0,0,1-1.893.513A3.334,3.334,0,0,1,10.565-.974a4.29,4.29,0,0,1-1-2.966Zm1.362.161a3.39,3.39,0,0,0,.612,2.117,1.957,1.957,0,0,0,1.637.8,1.945,1.945,0,0,0,1.641-.809,3.707,3.707,0,0,0,.608-2.267,3.384,3.384,0,0,0-.619-2.113,1.968,1.968,0,0,0-1.644-.809,1.946,1.946,0,0,0-1.619.8A3.68,3.68,0,0,0,10.928-3.875Zm8.826-4.05.037.879a2.927,2.927,0,0,1,2.351-1.025A2.266,2.266,0,0,1,24.4-6.8a3,3,0,0,1,1.029-.923,3.039,3.039,0,0,1,1.5-.352q2.607,0,2.651,2.761V0H28.228V-5.229A1.82,1.82,0,0,0,27.839-6.5a1.71,1.71,0,0,0-1.3-.421,1.8,1.8,0,0,0-1.252.45A1.827,1.827,0,0,0,24.7-5.259V0H23.342V-5.193A1.512,1.512,0,0,0,21.65-6.921a1.813,1.813,0,0,0-1.824,1.135V0H18.472V-7.925Zm18.582,4.05A4.712,4.712,0,0,1,37.5-.956a2.668,2.668,0,0,1-2.241,1.1A2.763,2.763,0,0,1,32.937-.916L32.871,0H31.626V-11.25h1.355v4.2a2.747,2.747,0,0,1,2.263-1.018A2.684,2.684,0,0,1,37.511-6.98a4.853,4.853,0,0,1,.824,2.988ZM36.98-4.028a3.662,3.662,0,0,0-.535-2.139,1.77,1.77,0,0,0-1.538-.754,1.989,1.989,0,0,0-1.926,1.245v3.428A2.045,2.045,0,0,0,34.922-1a1.76,1.76,0,0,0,1.516-.754A3.894,3.894,0,0,0,36.98-4.028Zm6.892-2.681a4.061,4.061,0,0,0-.667-.051A1.786,1.786,0,0,0,41.4-5.625V0H40.042V-7.925H41.36l.022.916a2.11,2.11,0,0,1,1.89-1.062,1.384,1.384,0,0,1,.6.1ZM49.717,0a2.846,2.846,0,0,1-.19-.835,3.023,3.023,0,0,1-2.256.981,2.8,2.8,0,0,1-1.923-.663A2.145,2.145,0,0,1,44.6-2.2a2.24,2.24,0,0,1,.941-1.923A4.437,4.437,0,0,1,48.186-4.8H49.5v-.623a1.522,1.522,0,0,0-.425-1.132,1.707,1.707,0,0,0-1.252-.421,1.976,1.976,0,0,0-1.216.366,1.079,1.079,0,0,0-.491.886H44.758a1.87,1.87,0,0,1,.421-1.146,2.874,2.874,0,0,1,1.143-.875,3.844,3.844,0,0,1,1.586-.322,3.133,3.133,0,0,1,2.146.685A2.47,2.47,0,0,1,50.859-5.5v3.647a4.459,4.459,0,0,0,.278,1.736V0ZM47.468-1.033a2.381,2.381,0,0,0,1.208-.33,1.994,1.994,0,0,0,.828-.857V-3.845H48.442q-2.49,0-2.49,1.458a1.234,1.234,0,0,0,.425,1A1.633,1.633,0,0,0,47.468-1.033Zm8.9-3a4.642,4.642,0,0,1,.864-2.933,2.733,2.733,0,0,1,2.263-1.11,2.748,2.748,0,0,1,2.2.952V-11.25h1.355V0H61.809l-.066-.85a2.759,2.759,0,0,1-2.263,1A2.707,2.707,0,0,1,57.235-.981a4.7,4.7,0,0,1-.868-2.944Zm1.355.154a3.515,3.515,0,0,0,.557,2.109A1.8,1.8,0,0,0,59.817-1,1.977,1.977,0,0,0,61.7-2.161V-5.8a1.992,1.992,0,0,0-1.868-1.121,1.808,1.808,0,0,0-1.553.769A3.87,3.87,0,0,0,57.722-3.875ZM68.445.146A3.463,3.463,0,0,1,65.823-.912a3.928,3.928,0,0,1-1.011-2.831v-.249a4.756,4.756,0,0,1,.45-2.106,3.514,3.514,0,0,1,1.26-1.45,3.167,3.167,0,0,1,1.754-.524,2.968,2.968,0,0,1,2.4,1.018,4.408,4.408,0,0,1,.857,2.915v.564H66.167a2.817,2.817,0,0,0,.685,1.893,2.153,2.153,0,0,0,1.666.721,2.36,2.36,0,0,0,1.216-.293,3.055,3.055,0,0,0,.872-.776l.828.645A3.328,3.328,0,0,1,68.445.146Zm-.168-7.1a1.807,1.807,0,0,0-1.377.6,2.9,2.9,0,0,0-.688,1.674h3.97v-.1a2.581,2.581,0,0,0-.557-1.6A1.7,1.7,0,0,0,68.276-6.958Zm8.181,2.922a4.681,4.681,0,0,1,.458-2.095A3.415,3.415,0,0,1,78.19-7.566a3.469,3.469,0,0,1,1.864-.505,3.342,3.342,0,0,1,2.618,1.121,4.311,4.311,0,0,1,1,2.981v.1A4.722,4.722,0,0,1,83.229-1.8,3.365,3.365,0,0,1,81.962-.366a3.509,3.509,0,0,1-1.893.513A3.334,3.334,0,0,1,77.457-.974a4.29,4.29,0,0,1-1-2.966Zm1.362.161a3.39,3.39,0,0,0,.612,2.117,1.957,1.957,0,0,0,1.637.8,1.945,1.945,0,0,0,1.641-.809,3.707,3.707,0,0,0,.608-2.267A3.384,3.384,0,0,0,81.7-6.149a1.968,1.968,0,0,0-1.644-.809,1.946,1.946,0,0,0-1.619.8A3.68,3.68,0,0,0,77.82-3.875Zm8.95-4.05V.916Q86.77,3.2,84.7,3.2a2.528,2.528,0,0,1-.828-.131V1.992a2.62,2.62,0,0,0,.615.059.921.921,0,0,0,.692-.246,1.214,1.214,0,0,0,.238-.854V-7.925Zm-1.494-2.1a.812.812,0,0,1,.2-.553.741.741,0,0,1,.59-.231.768.768,0,0,1,.6.227.8.8,0,0,1,.205.557.774.774,0,0,1-.205.549.782.782,0,0,1-.6.22.758.758,0,0,1-.593-.22A.791.791,0,0,1,85.276-10.027Zm3.318,5.991a4.681,4.681,0,0,1,.458-2.095,3.415,3.415,0,0,1,1.274-1.436,3.469,3.469,0,0,1,1.864-.505,3.342,3.342,0,0,1,2.618,1.121,4.311,4.311,0,0,1,1,2.981v.1A4.722,4.722,0,0,1,95.365-1.8,3.365,3.365,0,0,1,94.1-.366,3.509,3.509,0,0,1,92.2.146,3.334,3.334,0,0,1,89.594-.974a4.29,4.29,0,0,1-1-2.966Zm1.362.161a3.39,3.39,0,0,0,.612,2.117,1.957,1.957,0,0,0,1.637.8,1.945,1.945,0,0,0,1.641-.809,3.707,3.707,0,0,0,.608-2.267,3.384,3.384,0,0,0-.619-2.113,1.968,1.968,0,0,0-1.644-.809,1.946,1.946,0,0,0-1.619.8A3.68,3.68,0,0,0,89.956-3.875ZM102.122-2.1a1,1,0,0,0-.414-.853,3.983,3.983,0,0,0-1.443-.524,6.822,6.822,0,0,1-1.633-.527,2.324,2.324,0,0,1-.894-.732,1.752,1.752,0,0,1-.289-1.011A2.056,2.056,0,0,1,98.273-7.4a3.218,3.218,0,0,1,2.106-.674,3.311,3.311,0,0,1,2.186.7A2.21,2.21,0,0,1,103.4-5.6h-1.362a1.223,1.223,0,0,0-.472-.959,1.77,1.77,0,0,0-1.19-.4,1.852,1.852,0,0,0-1.157.322,1.014,1.014,0,0,0-.417.842.822.822,0,0,0,.388.74,4.776,4.776,0,0,0,1.4.476,7.308,7.308,0,0,1,1.644.542,2.4,2.4,0,0,1,.934.758,1.864,1.864,0,0,1,.3,1.08,2.028,2.028,0,0,1-.85,1.7,3.564,3.564,0,0,1-2.2.641A3.991,3.991,0,0,1,98.738-.19a2.74,2.74,0,0,1-1.146-.941,2.268,2.268,0,0,1-.414-1.307h1.355a1.4,1.4,0,0,0,.546,1.08,2.117,2.117,0,0,0,1.344.4,2.185,2.185,0,0,0,1.234-.311A.956.956,0,0,0,102.122-2.1Z" transform="translate(673.924 2187.004)" fill="#263238"/>
      </g>
    </g>
  </g>
</svg>
