<svg xmlns="http://www.w3.org/2000/svg" xmlns:xlink="http://www.w3.org/1999/xlink" width="1240" height="515" viewBox="0 0 1240 515">
  <defs>
    <clipPath id="clip-path">
      <rect id="Rectángulo_377943" data-name="Rectángulo 377943" width="376.636" height="376.675" fill="none"/>
    </clipPath>
    <filter id="Trazado_824628" x="424.113" y="43.305" width="393.554" height="388.37" filterUnits="userSpaceOnUse">
      <feOffset dy="3" input="SourceAlpha"/>
      <feGaussianBlur stdDeviation="3" result="blur"/>
      <feFlood flood-opacity="0.161"/>
      <feComposite operator="in" in2="blur"/>
      <feComposite in="SourceGraphic"/>
    </filter>
    <filter id="Trazado_824629" x="423.031" y="111.865" width="60.395" height="151.638" filterUnits="userSpaceOnUse">
      <feOffset dy="3" input="SourceAlpha"/>
      <feGaussianBlur stdDeviation="3" result="blur-2"/>
      <feFlood flood-opacity="0.161"/>
      <feComposite operator="in" in2="blur-2"/>
      <feComposite in="SourceGraphic"/>
    </filter>
    <filter id="Trazado_824630" x="461.05" y="37.001" width="168.3" height="96.168" filterUnits="userSpaceOnUse">
      <feOffset dy="3" input="SourceAlpha"/>
      <feGaussianBlur stdDeviation="3" result="blur-3"/>
      <feFlood flood-opacity="0.161"/>
      <feComposite operator="in" in2="blur-3"/>
      <feComposite in="SourceGraphic"/>
    </filter>
    <filter id="Elipse_10545" x="499" y="112.975" width="242" height="242" filterUnits="userSpaceOnUse">
      <feOffset dy="3" input="SourceAlpha"/>
      <feGaussianBlur stdDeviation="3" result="blur-4"/>
      <feFlood flood-opacity="0.161"/>
      <feComposite operator="in" in2="blur-4"/>
      <feComposite in="SourceGraphic"/>
    </filter>
  </defs>
  <g id="Grupo_1080924" data-name="Grupo 1080924" transform="translate(-181 -2891)">
    <rect id="Rectángulo_356256" data-name="Rectángulo 356256" width="1240" height="515" transform="translate(181 2891)" fill="#f6f6f6"/>
    <g id="Grupo_1076978" data-name="Grupo 1076978" transform="translate(0.529 19.975)">
      <g id="Grupo_1075854" data-name="Grupo 1075854" transform="translate(17 -7)">
        <rect id="Rectángulo_377678" data-name="Rectángulo 377678" width="20" height="20" transform="translate(634.471 3329.577)" fill="#70bffe"/>
        <rect id="Rectángulo_377944" data-name="Rectángulo 377944" width="20" height="20" transform="translate(735.471 3329.577)" fill="#f9df61"/>
        <rect id="Rectángulo_377945" data-name="Rectángulo 377945" width="20" height="20" transform="translate(988.471 3329.577)" fill="#0f7f83"/>
        <path id="Trazado_828883" data-name="Trazado 828883" d="M3.773-3.586l.219,1.5.32-1.352,2.25-7.937H7.828l2.2,7.938.313,1.375.242-1.531,1.766-7.781h1.508L11.094,0H9.727L7.383-8.289,7.2-9.156l-.18.867L4.594,0H3.227L.477-11.375h1.5ZM16.859,0H15.414V-8.453h1.445ZM15.3-10.7a.863.863,0,0,1,.215-.594.807.807,0,0,1,.637-.242.819.819,0,0,1,.641.242.854.854,0,0,1,.219.594.826.826,0,0,1-.219.586.834.834,0,0,1-.641.234.821.821,0,0,1-.637-.234A.834.834,0,0,1,15.3-10.7Zm5.242,2.242.047,1.063a3.08,3.08,0,0,1,2.531-1.219q2.68,0,2.7,3.023V0H24.375V-5.594a1.946,1.946,0,0,0-.418-1.352,1.675,1.675,0,0,0-1.277-.437,2.086,2.086,0,0,0-1.234.375,2.546,2.546,0,0,0-.828.984V0H19.172V-8.453ZM27.648-4.3a4.952,4.952,0,0,1,.922-3.129,2.915,2.915,0,0,1,2.414-1.184,2.932,2.932,0,0,1,2.352,1.016V-12h1.445V0H33.453l-.07-.906A2.943,2.943,0,0,1,30.969.156a2.887,2.887,0,0,1-2.395-1.2,5.008,5.008,0,0,1-.926-3.141Zm1.445.164a3.749,3.749,0,0,0,.594,2.25,1.92,1.92,0,0,0,1.641.813A2.108,2.108,0,0,0,33.336-2.3V-6.187a2.125,2.125,0,0,0-1.992-1.2,1.929,1.929,0,0,0-1.656.82A4.128,4.128,0,0,0,29.094-4.133ZM36.641-4.3a4.993,4.993,0,0,1,.488-2.234A3.643,3.643,0,0,1,38.488-8.07a3.7,3.7,0,0,1,1.988-.539,3.565,3.565,0,0,1,2.793,1.2,4.6,4.6,0,0,1,1.066,3.18v.1a5.036,5.036,0,0,1-.473,2.215A3.589,3.589,0,0,1,42.512-.391a3.743,3.743,0,0,1-2.02.547,3.556,3.556,0,0,1-2.785-1.2A4.575,4.575,0,0,1,36.641-4.2Zm1.453.172a3.616,3.616,0,0,0,.652,2.258,2.088,2.088,0,0,0,1.746.852,2.075,2.075,0,0,0,1.75-.863A3.955,3.955,0,0,0,42.891-4.3a3.61,3.61,0,0,0-.66-2.254,2.1,2.1,0,0,0-1.754-.863,2.075,2.075,0,0,0-1.727.852A3.925,3.925,0,0,0,38.094-4.133ZM53.633-1.992l1.625-6.461H56.7L54.242,0H53.07L51.016-6.406,49.016,0H47.844L45.391-8.453h1.438l1.664,6.328,1.969-6.328h1.164Zm9.461-.25a1.064,1.064,0,0,0-.441-.91,4.249,4.249,0,0,0-1.539-.559,7.277,7.277,0,0,1-1.742-.562,2.479,2.479,0,0,1-.953-.781,1.869,1.869,0,0,1-.309-1.078,2.193,2.193,0,0,1,.879-1.758,3.432,3.432,0,0,1,2.246-.719,3.532,3.532,0,0,1,2.332.742,2.357,2.357,0,0,1,.895,1.9H63.008a1.3,1.3,0,0,0-.5-1.023,1.888,1.888,0,0,0-1.27-.43A1.976,1.976,0,0,0,60-7.078a1.082,1.082,0,0,0-.445.9.877.877,0,0,0,.414.789,5.1,5.1,0,0,0,1.5.508,7.8,7.8,0,0,1,1.754.578,2.558,2.558,0,0,1,1,.809,1.988,1.988,0,0,1,.324,1.152,2.163,2.163,0,0,1-.906,1.816,3.8,3.8,0,0,1-2.352.684,4.257,4.257,0,0,1-1.8-.359,2.922,2.922,0,0,1-1.223-1A2.42,2.42,0,0,1,57.82-2.6h1.445a1.5,1.5,0,0,0,.582,1.152,2.258,2.258,0,0,0,1.434.426A2.331,2.331,0,0,0,62.6-1.355,1.02,1.02,0,0,0,63.094-2.242Z" transform="translate(558.471 3345.577)" fill="#263238"/>
        <path id="Trazado_828884" data-name="Trazado 828884" d="M3.258-11.375,6.977-2.094,10.7-11.375h1.945V0h-1.5V-4.43l.141-4.781L7.547,0H6.4L2.672-9.187,2.82-4.43V0H1.32V-11.375ZM20.281,0a3.036,3.036,0,0,1-.2-.891A3.225,3.225,0,0,1,17.672.156a2.984,2.984,0,0,1-2.051-.707,2.287,2.287,0,0,1-.8-1.793,2.39,2.39,0,0,1,1-2.051,4.733,4.733,0,0,1,2.824-.73h1.406v-.664A1.623,1.623,0,0,0,19.6-7a1.821,1.821,0,0,0-1.336-.449,2.108,2.108,0,0,0-1.3.391,1.151,1.151,0,0,0-.523.945H14.992a2,2,0,0,1,.449-1.223,3.066,3.066,0,0,1,1.219-.934,4.1,4.1,0,0,1,1.691-.344,3.342,3.342,0,0,1,2.289.73A2.635,2.635,0,0,1,21.5-5.867v3.891a4.757,4.757,0,0,0,.3,1.852V0Zm-2.4-1.1a2.54,2.54,0,0,0,1.289-.352,2.127,2.127,0,0,0,.883-.914V-4.1H18.922q-2.656,0-2.656,1.555a1.316,1.316,0,0,0,.453,1.063A1.742,1.742,0,0,0,17.883-1.1Zm9.273.078a2.082,2.082,0,0,0,1.352-.469,1.649,1.649,0,0,0,.641-1.172h1.367a2.621,2.621,0,0,1-.5,1.383,3.293,3.293,0,0,1-1.23,1.047,3.55,3.55,0,0,1-1.629.391A3.482,3.482,0,0,1,24.41-1a4.59,4.59,0,0,1-1.02-3.152v-.242a5.089,5.089,0,0,1,.453-2.2,3.451,3.451,0,0,1,1.3-1.492,3.7,3.7,0,0,1,2-.531,3.39,3.39,0,0,1,2.363.852,3.043,3.043,0,0,1,1,2.211H29.148a1.992,1.992,0,0,0-.621-1.348,1.932,1.932,0,0,0-1.379-.527,2.023,2.023,0,0,0-1.707.793,3.724,3.724,0,0,0-.605,2.293v.273a3.65,3.65,0,0,0,.6,2.25A2.033,2.033,0,0,0,27.156-1.023Zm17.922-4.3A7.037,7.037,0,0,1,44.516-2.4,4.261,4.261,0,0,1,42.922-.5a4.385,4.385,0,0,1-2.406.656A4.347,4.347,0,0,1,38.133-.5,4.363,4.363,0,0,1,36.52-2.387a6.752,6.752,0,0,1-.59-2.832v-.82a6.953,6.953,0,0,1,.57-2.9,4.347,4.347,0,0,1,1.613-1.926,4.329,4.329,0,0,1,2.387-.668,4.41,4.41,0,0,1,2.41.66,4.253,4.253,0,0,1,1.605,1.914,7.071,7.071,0,0,1,.563,2.918Zm-1.492-.734a5.1,5.1,0,0,0-.812-3.105A2.68,2.68,0,0,0,40.5-10.242,2.651,2.651,0,0,0,38.262-9.16a5,5,0,0,0-.84,3v.836a5.107,5.107,0,0,0,.824,3.082,2.662,2.662,0,0,0,2.27,1.121,2.652,2.652,0,0,0,2.25-1.059,5.079,5.079,0,0,0,.82-3.035Zm7.094.984a7.053,7.053,0,0,1-2.809-1.363,2.6,2.6,0,0,1-.879-2,2.752,2.752,0,0,1,1.074-2.223,4.269,4.269,0,0,1,2.793-.879,4.66,4.66,0,0,1,2.09.453,3.436,3.436,0,0,1,1.422,1.25,3.2,3.2,0,0,1,.5,1.742H53.367a2.08,2.08,0,0,0-.656-1.627,2.669,2.669,0,0,0-1.852-.592,2.732,2.732,0,0,0-1.73.489,1.632,1.632,0,0,0-.621,1.358A1.468,1.468,0,0,0,49.1-7.28a5.785,5.785,0,0,0,2.008.88,9.316,9.316,0,0,1,2.219.88A3.367,3.367,0,0,1,54.512-4.4,2.861,2.861,0,0,1,54.9-2.891,2.658,2.658,0,0,1,53.82-.676a4.6,4.6,0,0,1-2.883.832A5.347,5.347,0,0,1,48.75-.293a3.681,3.681,0,0,1-1.566-1.23A3,3,0,0,1,46.633-3.3h1.508A1.959,1.959,0,0,0,48.9-1.668a3.207,3.207,0,0,0,2.035.6,2.948,2.948,0,0,0,1.82-.484,1.573,1.573,0,0,0,.633-1.32A1.545,1.545,0,0,0,52.8-4.168,6.755,6.755,0,0,0,50.68-5.07Z" transform="translate(673.471 3345.577)" fill="#263238"/>
        <path id="Trazado_828886" data-name="Trazado 828886" d="M9.688-3.609A4.185,4.185,0,0,1,8.355-.824a4.365,4.365,0,0,1-2.98.98,4.008,4.008,0,0,1-3.23-1.445A5.815,5.815,0,0,1,.93-5.156V-6.25A6.481,6.481,0,0,1,1.5-9.039,4.231,4.231,0,0,1,3.1-10.887a4.47,4.47,0,0,1,2.406-.645A4.11,4.11,0,0,1,8.414-10.52a4.235,4.235,0,0,1,1.273,2.8H8.18a3.268,3.268,0,0,0-.848-1.975A2.565,2.565,0,0,0,5.508-10.3,2.684,2.684,0,0,0,3.254-9.241a4.882,4.882,0,0,0-.816,3.026v1.1a5.018,5.018,0,0,0,.773,2.948A2.5,2.5,0,0,0,5.375-1.07a2.887,2.887,0,0,0,1.918-.566A3.143,3.143,0,0,0,8.18-3.609Zm3.266-3.82a3.073,3.073,0,0,1,2.5-1.18q2.68,0,2.7,3.023V0H16.711V-5.594a1.946,1.946,0,0,0-.418-1.352,1.675,1.675,0,0,0-1.277-.437,2.086,2.086,0,0,0-1.234.375,2.546,2.546,0,0,0-.828.984V0H11.508V-12h1.445Zm11.453.273a4.331,4.331,0,0,0-.711-.055A1.9,1.9,0,0,0,21.766-6V0H20.32V-8.453h1.406l.023.977a2.251,2.251,0,0,1,2.016-1.133,1.477,1.477,0,0,1,.641.109ZM25.2-4.3a4.993,4.993,0,0,1,.488-2.234A3.643,3.643,0,0,1,27.043-8.07a3.7,3.7,0,0,1,1.988-.539,3.565,3.565,0,0,1,2.793,1.2,4.6,4.6,0,0,1,1.066,3.18v.1a5.036,5.036,0,0,1-.473,2.215A3.589,3.589,0,0,1,31.066-.391a3.743,3.743,0,0,1-2.02.547,3.556,3.556,0,0,1-2.785-1.2A4.575,4.575,0,0,1,25.2-4.2Zm1.453.172A3.616,3.616,0,0,0,27.3-1.875a2.088,2.088,0,0,0,1.746.852,2.075,2.075,0,0,0,1.75-.863A3.955,3.955,0,0,0,31.445-4.3a3.61,3.61,0,0,0-.66-2.254,2.1,2.1,0,0,0-1.754-.863A2.075,2.075,0,0,0,27.3-6.57,3.925,3.925,0,0,0,26.648-4.133Zm9.414-4.32.039.938a3.122,3.122,0,0,1,2.508-1.094A2.417,2.417,0,0,1,41.023-7.25a3.2,3.2,0,0,1,1.1-.984,3.242,3.242,0,0,1,1.6-.375q2.781,0,2.828,2.945V0H45.1V-5.578a1.941,1.941,0,0,0-.414-1.355A1.823,1.823,0,0,0,43.3-7.383a1.917,1.917,0,0,0-1.336.48,1.949,1.949,0,0,0-.617,1.293V0H39.891V-5.539a1.613,1.613,0,0,0-1.8-1.844,1.934,1.934,0,0,0-1.945,1.211V0H34.7V-8.453ZM52.234.156a3.693,3.693,0,0,1-2.8-1.129,4.19,4.19,0,0,1-1.078-3.02v-.266A5.073,5.073,0,0,1,48.84-6.5a3.748,3.748,0,0,1,1.344-1.547,3.378,3.378,0,0,1,1.871-.559,3.166,3.166,0,0,1,2.563,1.086,4.7,4.7,0,0,1,.914,3.109v.6H49.8a3,3,0,0,0,.73,2.02,2.3,2.3,0,0,0,1.777.77,2.517,2.517,0,0,0,1.3-.312,3.259,3.259,0,0,0,.93-.828l.883.688A3.55,3.55,0,0,1,52.234.156Zm-.18-7.578a1.928,1.928,0,0,0-1.469.637A3.1,3.1,0,0,0,49.852-5h4.234v-.109a2.753,2.753,0,0,0-.594-1.707A1.815,1.815,0,0,0,52.055-7.422Zm18.086,2.1A7.037,7.037,0,0,1,69.578-2.4,4.261,4.261,0,0,1,67.984-.5a4.385,4.385,0,0,1-2.406.656A4.347,4.347,0,0,1,63.2-.5a4.363,4.363,0,0,1-1.613-1.883,6.752,6.752,0,0,1-.59-2.832v-.82a6.953,6.953,0,0,1,.57-2.9,4.347,4.347,0,0,1,1.613-1.926,4.329,4.329,0,0,1,2.387-.668,4.41,4.41,0,0,1,2.41.66,4.253,4.253,0,0,1,1.605,1.914,7.071,7.071,0,0,1,.563,2.918Zm-1.492-.734a5.1,5.1,0,0,0-.812-3.105,2.68,2.68,0,0,0-2.273-1.082A2.651,2.651,0,0,0,63.324-9.16a5,5,0,0,0-.84,3v.836a5.107,5.107,0,0,0,.824,3.082,2.662,2.662,0,0,0,2.27,1.121,2.652,2.652,0,0,0,2.25-1.059,5.079,5.079,0,0,0,.82-3.035Zm7.094.984a7.053,7.053,0,0,1-2.809-1.363,2.6,2.6,0,0,1-.879-2,2.751,2.751,0,0,1,1.074-2.223,4.269,4.269,0,0,1,2.793-.879,4.66,4.66,0,0,1,2.09.453,3.436,3.436,0,0,1,1.422,1.25,3.2,3.2,0,0,1,.5,1.742H78.43a2.08,2.08,0,0,0-.656-1.627,2.669,2.669,0,0,0-1.852-.592,2.732,2.732,0,0,0-1.73.489,1.632,1.632,0,0,0-.621,1.358,1.468,1.468,0,0,0,.59,1.178,5.785,5.785,0,0,0,2.008.88,9.316,9.316,0,0,1,2.219.88A3.367,3.367,0,0,1,79.574-4.4a2.861,2.861,0,0,1,.387,1.508A2.658,2.658,0,0,1,78.883-.676,4.6,4.6,0,0,1,76,.156a5.347,5.347,0,0,1-2.187-.449,3.681,3.681,0,0,1-1.566-1.23A3,3,0,0,1,71.7-3.3H73.2a1.959,1.959,0,0,0,.762,1.629A3.207,3.207,0,0,0,76-1.07a2.948,2.948,0,0,0,1.82-.484,1.573,1.573,0,0,0,.633-1.32,1.545,1.545,0,0,0-.586-1.293A6.755,6.755,0,0,0,75.742-5.07Z" transform="translate(902.471 3345.577)" fill="#263238"/>
        <rect id="Rectángulo_377679" data-name="Rectángulo 377679" width="20" height="20" transform="translate(863.471 3329.577)" fill="#107dd3"/>
        <path id="Trazado_828885" data-name="Trazado 828885" d="M9.719-1.492A3.465,3.465,0,0,1,8.105-.254,6.517,6.517,0,0,1,5.7.156,4.674,4.674,0,0,1,3.227-.5,4.346,4.346,0,0,1,1.559-2.352,6.408,6.408,0,0,1,.953-5.141v-.992a5.982,5.982,0,0,1,1.2-3.984,4.179,4.179,0,0,1,3.371-1.414,4.316,4.316,0,0,1,2.867.91A3.965,3.965,0,0,1,9.719-8.039h-1.5A2.48,2.48,0,0,0,5.531-10.3a2.655,2.655,0,0,0-2.285,1.06,5.173,5.173,0,0,0-.785,3.069v.93A4.848,4.848,0,0,0,3.336-2.2,2.836,2.836,0,0,0,5.7-1.07,5.228,5.228,0,0,0,7.18-1.257a2.283,2.283,0,0,0,1.047-.631V-4.437H5.594V-5.664H9.719ZM20.961,0H19.453L13.727-8.766V0H12.219V-11.375h1.508l5.742,8.8v-8.8h1.492ZM31.633-11.375v7.734a3.628,3.628,0,0,1-1.012,2.633A4.077,4.077,0,0,1,27.9.141l-.4.016A4.258,4.258,0,0,1,24.523-.852,3.6,3.6,0,0,1,23.4-3.625v-7.75h1.484v7.7a2.6,2.6,0,0,0,.68,1.918A2.612,2.612,0,0,0,27.5-1.07a2.63,2.63,0,0,0,1.949-.68,2.6,2.6,0,0,0,.676-1.914v-7.711ZM34.063.977H32.82l4.75-12.352H38.8Zm8.039-2.2h5.391V0h-6.9V-11.375H42.1ZM50.547,0H49.1V-8.453h1.445ZM48.984-10.7a.863.863,0,0,1,.215-.594.807.807,0,0,1,.637-.242.819.819,0,0,1,.641.242.854.854,0,0,1,.219.594.826.826,0,0,1-.219.586.834.834,0,0,1-.641.234.821.821,0,0,1-.637-.234A.834.834,0,0,1,48.984-10.7Zm5.242,2.242.047,1.063A3.08,3.08,0,0,1,56.8-8.609q2.68,0,2.7,3.023V0H58.063V-5.594a1.946,1.946,0,0,0-.418-1.352,1.675,1.675,0,0,0-1.277-.437,2.086,2.086,0,0,0-1.234.375,2.546,2.546,0,0,0-.828.984V0H52.859V-8.453ZM66.906-.836A3.07,3.07,0,0,1,64.43.156a2.628,2.628,0,0,1-2.059-.785,3.4,3.4,0,0,1-.715-2.324v-5.5H63.1v5.461q0,1.922,1.563,1.922a2.163,2.163,0,0,0,2.2-1.234V-8.453h1.445V0H66.938Zm6.438-4.531,1.875-3.086h1.688l-2.766,4.18L76.992,0H75.32L73.367-3.164,71.414,0h-1.68l2.852-4.273L69.82-8.453h1.672Z" transform="translate(776.471 3345.577)" fill="#263238"/>
      </g>
      <g id="Grupo_1075853" data-name="Grupo 1075853" transform="translate(612.502 2914.025)">
        <g id="Grupo_1075852" data-name="Grupo 1075852" clip-path="url(#clip-path)">
          <path id="Trazado_824627" data-name="Trazado 824627" d="M129.35,0a187.5,187.5,0,0,1,48.316,6.3l-1.406,5.3a182.048,182.048,0,0,0-46.91-6.121Z" transform="translate(58.969)" fill="#096e72"/>
          <g transform="matrix(1, 0, 0, 1, -432.03, -43)" filter="url(#Trazado_824628)">
            <path id="Trazado_824628-2" data-name="Trazado 824628" d="M236.3,4.331q4.119,1.094,8.186,2.373t8.071,2.741q4.005,1.461,7.939,3.1t7.79,3.459q3.857,1.819,7.626,3.809t7.445,4.149q3.675,2.16,7.25,4.484t7.041,4.806q3.466,2.483,6.815,5.119t6.576,5.423q3.228,2.787,6.324,5.716t6.059,6q2.961,3.066,5.783,6.263t5.493,6.519q2.671,3.322,5.192,6.761t4.88,6.988q2.361,3.551,4.56,7.2t4.229,7.4q2.031,3.75,3.89,7.585t3.542,7.754q1.684,3.916,3.188,7.907t2.827,8.041q1.323,4.055,2.46,8.163t2.089,8.264q.95,4.156,1.712,8.351t1.332,8.421q.572,4.226.951,8.47t.566,8.507q.188,4.258.181,8.523t-.2,8.523q-.2,4.258-.591,8.5t-.975,8.469q-.583,4.224-1.355,8.416t-1.737,8.345q-.963,4.154-2.111,8.259t-2.485,8.154q-1.334,4.051-2.849,8.035t-3.212,7.9q-1.692,3.911-3.564,7.744t-3.911,7.574q-2.042,3.743-4.251,7.39t-4.58,7.189q-2.372,3.544-4.9,6.975t-5.211,6.745q-2.684,3.315-5.512,6.5t-5.8,6.249q-2.97,3.057-6.077,5.978t-6.34,5.7q-3.236,2.778-6.592,5.4t-6.831,5.1q-3.472,2.474-7.052,4.787t-7.263,4.462q-3.682,2.149-7.457,4.129t-7.638,3.787q-3.861,1.808-7.8,3.437t-7.948,3.081q-4.01,1.452-8.08,2.72t-8.192,2.35q-4.123,1.081-8.291,1.976t-8.373,1.6q-4.206.7-8.437,1.219t-8.483.836q-4.25.321-8.511.451t-8.524.066q-4.263-.066-8.518-.32t-8.5-.706q-4.239-.45-8.453-1.089t-8.4-1.472q-4.182-.83-8.322-1.849t-8.229-2.225q-4.088-1.205-8.119-2.594t-7.993-2.958q-3.964-1.57-7.853-3.318t-7.693-3.669q-3.806-1.922-7.52-4.014t-7.33-4.352q-3.616-2.258-7.127-4.676t-6.907-5q-3.4-2.575-6.674-5.3t-6.428-5.6q-3.151-2.872-6.167-5.885t-5.9-6.157q-2.876-3.145-5.61-6.418t-5.314-6.665q-2.581-3.394-5.007-6.9T28.421,286.4q-2.265-3.612-4.363-7.323t-4.027-7.514q-1.928-3.8-3.682-7.689t-3.333-7.846q-1.575-3.962-2.971-7.99t-2.609-8.117Q6.224,235.833,5.2,231.7t-1.865-8.319q-.836-4.18-1.485-8.395T.743,206.529L6.2,205.94q.443,4.117,1.072,8.207t1.443,8.15q.812,4.06,1.808,8.077t2.174,7.986q1.177,3.968,2.532,7.879T18.113,254q1.531,3.846,3.235,7.619t3.574,7.464q1.874,3.691,3.911,7.294t4.235,7.111q2.2,3.507,4.554,6.911t4.861,6.7q2.5,3.293,5.158,6.471t5.446,6.23q2.793,3.055,5.723,5.979t5.988,5.713q3.06,2.789,6.24,5.436t6.48,5.148q3.3,2.5,6.706,4.85t6.918,4.542q3.512,2.19,7.116,4.224t7.3,3.9q3.7,1.867,7.47,3.564t7.623,3.22q3.848,1.524,7.761,2.872t7.882,2.519q3.97,1.171,7.99,2.159t8.079,1.8q4.06.808,8.152,1.428t8.208,1.058q4.114.437,8.246.684t8.269.312q4.141.063,8.277-.063t8.264-.438q4.127-.312,8.236-.811t8.191-1.184q4.082-.686,8.128-1.553t8.05-1.919q4-1.05,7.956-2.281t7.843-2.64q3.892-1.409,7.716-2.99t7.574-3.338q3.747-1.754,7.413-3.676t7.24-4.008q3.575-2.088,7.052-4.333t6.848-4.647q3.37-2.4,6.63-4.951t6.4-5.247q3.14-2.7,6.155-5.532t5.9-5.8q2.885-2.97,5.631-6.065T330.1,301.4q2.6-3.217,5.059-6.549t4.756-6.773q2.3-3.439,4.448-6.979t4.126-7.175q1.983-3.634,3.8-7.354t3.461-7.518q1.644-3.8,3.117-7.667t2.766-7.8q1.3-3.931,2.411-7.917t2.051-8.018q.935-4.034,1.686-8.1t1.316-8.17q.568-4.1.946-8.223t.574-8.256q.194-4.134.2-8.275t-.176-8.274q-.181-4.134-.549-8.258t-.923-8.226q-.555-4.1-1.294-8.175t-1.663-8.106q-.924-4.036-2.028-8.025t-2.389-7.924q-1.284-3.935-2.744-7.808t-3.1-7.675q-1.633-3.8-3.439-7.528t-3.778-7.364q-1.97-3.64-4.106-7.186T340.2,85.08q-2.291-3.446-4.737-6.784t-5.042-6.565q-2.594-3.226-5.333-6.329t-5.612-6.081q-2.876-2.977-5.883-5.821t-6.141-5.548q-3.132-2.706-6.386-5.266t-6.617-4.97q-3.363-2.411-6.834-4.666T280.577,28.7q-3.568-2.1-7.228-4.028t-7.4-3.7q-3.745-1.765-7.565-3.359T250.673,14.6q-3.887-1.419-7.836-2.661t-7.949-2.3Z" transform="translate(432.37 44.97)" fill="#5eabe8"/>
          </g>
          <g transform="matrix(1, 0, 0, 1, -432.03, -43)" filter="url(#Trazado_824629)">
            <path id="Trazado_824629-2" data-name="Trazado 824629" d="M1.082,185.061q-.95-8.829-1.066-17.709t.6-17.733q.721-8.851,2.27-17.6t3.916-17.3q2.365-8.558,5.527-16.859T19.42,81.6q3.929-7.964,8.588-15.526T38.018,51.422l4.378,3.3Q37.2,61.608,32.677,68.948T24.341,84.021q-3.813,7.733-6.882,15.791T12.093,116.18q-2.3,8.309-3.8,16.8t-2.2,17.085q-.7,8.593-.587,17.214t1.035,17.194Z" transform="translate(432.03 66.44)" fill="#efd34c"/>
          </g>
          <g transform="matrix(1, 0, 0, 1, -432.03, -43)" filter="url(#Trazado_824630)">
            <path id="Trazado_824630-2" data-name="Trazado 824630" d="M26.114,74.864A188.3,188.3,0,0,1,176.414,0V5.487A182.835,182.835,0,0,0,30.492,78.169Z" transform="translate(443.94 43)" fill="#0d6ebb"/>
          </g>
          <path id="Trazado_824631" data-name="Trazado 824631" d="M129.35,3.768a182.048,182.048,0,0,1,46.91,6.121L157.5,80.58a109.265,109.265,0,0,0-28.145-3.673Z" transform="translate(58.969 1.718)" fill="#0f7f83"/>
          <path id="Trazado_824632" data-name="Trazado 824632" d="M233.181,7.972q4,1.064,7.948,2.3t7.837,2.661q3.887,1.419,7.707,3.012t7.563,3.359q3.743,1.767,7.4,3.7t7.23,4.028q3.568,2.1,7.039,4.352t6.834,4.666q3.365,2.411,6.617,4.97t6.386,5.266q3.134,2.706,6.139,5.548t5.883,5.822q2.876,2.977,5.614,6.08t5.333,6.33q2.594,3.226,5.04,6.563t4.739,6.786q2.293,3.446,4.427,6.993t4.106,7.186q1.972,3.638,3.777,7.364t3.439,7.528q1.636,3.8,3.1,7.675t2.744,7.808q1.284,3.935,2.389,7.924t2.028,8.023q.922,4.036,1.661,8.108t1.3,8.175q.552,4.1.922,8.224t.55,8.259q.181,4.134.175,8.275t-.2,8.274q-.194,4.134-.574,8.256t-.946,8.221q-.566,4.1-1.318,8.172t-1.686,8.1q-.935,4.034-2.05,8.019t-2.411,7.917q-1.295,3.931-2.768,7.8t-3.117,7.668q-1.644,3.8-3.461,7.518t-3.8,7.354q-1.983,3.632-4.126,7.173t-4.448,6.981q-2.3,3.44-4.758,6.771t-5.059,6.55q-2.605,3.217-5.35,6.314t-5.631,6.065q-2.885,2.968-5.9,5.8t-6.157,5.531q-3.14,2.695-6.4,5.246t-6.63,4.953q-3.372,2.4-6.848,4.647t-7.051,4.331q-3.575,2.086-7.24,4.009t-7.415,3.676q-3.75,1.754-7.574,3.338t-7.715,2.99q-3.894,1.409-7.844,2.64t-7.955,2.281q-4.005,1.05-8.051,1.919t-8.128,1.552q-4.082.686-8.191,1.184t-8.236.812q-4.127.31-8.264.437t-8.275.064q-4.138-.063-8.269-.312t-8.248-.686q-4.114-.435-8.207-1.057t-8.153-1.428q-4.058-.806-8.077-1.8t-7.99-2.159q-3.97-1.171-7.882-2.519t-7.761-2.874q-3.85-1.522-7.624-3.22t-7.469-3.563q-3.7-1.867-7.3-3.9T89.436,339.8q-3.512-2.193-6.918-4.541t-6.706-4.85q-3.3-2.5-6.48-5.148t-6.241-5.438q-3.057-2.787-5.987-5.713t-5.723-5.978q-2.793-3.053-5.446-6.231t-5.16-6.471q-2.507-3.293-4.861-6.7t-4.554-6.913q-2.2-3.505-4.234-7.109t-3.911-7.3q-1.872-3.691-3.576-7.464T16.4,252.336q-1.529-3.846-2.886-7.757T10.987,236.7q-1.177-3.97-2.174-7.986T7,220.637q-.812-4.058-1.441-8.15t-1.073-8.207l72.713-7.83q.533,4.94,1.51,9.813T81.1,215.9q1.413,4.763,3.251,9.382t4.085,9.05q2.249,4.431,4.887,8.642t5.649,8.166q3.009,3.955,6.364,7.62t7.026,7.016q3.673,3.348,7.632,6.351t8.175,5.634q4.215,2.632,8.651,4.873t9.056,4.071q4.621,1.83,9.388,3.235t9.639,2.372q4.874.97,9.816,1.492t9.91.6q4.968.076,9.923-.3t9.856-1.2q4.9-.821,9.708-2.083t9.479-2.953q4.671-1.69,9.174-3.8t8.792-4.612q4.291-2.5,8.339-5.387t7.82-6.119q3.769-3.236,7.233-6.8t6.588-7.428q3.127-3.863,5.892-7.993t5.144-8.492q2.378-4.363,4.355-8.923t3.531-9.281q1.555-4.719,2.677-9.561t1.8-9.765q.677-4.922.91-9.887t.015-9.929q-.218-4.966-.884-9.89t-1.773-9.769q-1.109-4.846-2.65-9.57t-3.5-9.29q-1.963-4.566-4.33-8.936t-5.119-8.507q-2.754-4.138-5.869-8.009t-6.567-7.447q-3.453-3.575-7.214-6.822t-7.8-6.141q-4.04-2.894-8.325-5.412t-8.78-4.636q-4.494-2.118-9.162-3.823t-9.472-2.979Z" transform="translate(2.046 3.634)" fill="#70bffe"/>
          <path id="Trazado_824633" data-name="Trazado 824633" d="M4.819,183.438q-.924-8.572-1.037-17.194t.588-17.216q.7-8.591,2.2-17.083t3.8-16.8q2.3-8.312,5.365-16.369t6.882-15.791q3.813-7.733,8.338-15.073t9.718-14.221L99.049,97.759a109.717,109.717,0,0,0-21.517,77.849Z" transform="translate(1.718 24.477)" fill="#f9df61"/>
          <path id="Trazado_824634" data-name="Trazado 824634" d="M29.12,76.452A182.819,182.819,0,0,1,175.042,3.768V76.909a109.7,109.7,0,0,0-87.553,43.61Z" transform="translate(13.275 1.718)" fill="#107dd3"/>
        </g>
      </g>
      <path id="Trazado_828881" data-name="Trazado 828881" d="M-11.922-6.555h1.156a2.069,2.069,0,0,0,1.387-.453A1.617,1.617,0,0,0-8.867-8.3a1.762,1.762,0,0,0-.426-1.262,1.714,1.714,0,0,0-1.3-.449,1.813,1.813,0,0,0-1.258.441,1.475,1.475,0,0,0-.492,1.152h-1.9a2.874,2.874,0,0,1,.465-1.594,3.123,3.123,0,0,1,1.3-1.121,4.225,4.225,0,0,1,1.863-.4,3.912,3.912,0,0,1,2.676.855A3,3,0,0,1-6.969-8.3a2.417,2.417,0,0,1-.488,1.441,3.062,3.062,0,0,1-1.262,1.02A2.791,2.791,0,0,1-7.293-4.828,2.759,2.759,0,0,1-6.8-3.187,3.055,3.055,0,0,1-7.855-.75a4.08,4.08,0,0,1-2.762.906A4.049,4.049,0,0,1-13.3-.719a2.882,2.882,0,0,1-1.047-2.328h1.9a1.588,1.588,0,0,0,.5,1.219,1.911,1.911,0,0,0,1.355.469A1.971,1.971,0,0,0-9.2-1.828,1.758,1.758,0,0,0-8.7-3.187,1.776,1.776,0,0,0-9.227-4.57,2.271,2.271,0,0,0-10.8-5.055h-1.117ZM2.391-4.789a6.2,6.2,0,0,1-.918,3.7A3.242,3.242,0,0,1-1.32.156,3.285,3.285,0,0,1-4.1-1.059a5.94,5.94,0,0,1-.957-3.6V-6.625a6.11,6.11,0,0,1,.918-3.68,3.272,3.272,0,0,1,2.8-1.227,3.291,3.291,0,0,1,2.785,1.2,5.924,5.924,0,0,1,.941,3.578ZM.492-6.914A4.813,4.813,0,0,0,.055-9.262a1.493,1.493,0,0,0-1.391-.746A1.492,1.492,0,0,0-2.7-9.3a4.448,4.448,0,0,0-.461,2.207v2.578a4.937,4.937,0,0,0,.445,2.375,1.5,1.5,0,0,0,1.4.781A1.469,1.469,0,0,0,.031-2.082,4.645,4.645,0,0,0,.492-4.344Zm3.5-2.273a2.283,2.283,0,0,1,.664-1.691,2.363,2.363,0,0,1,1.742-.66,2.371,2.371,0,0,1,1.754.66,2.34,2.34,0,0,1,.66,1.73v.563a2.267,2.267,0,0,1-.66,1.68,2.358,2.358,0,0,1-1.738.656,2.433,2.433,0,0,1-1.738-.645,2.275,2.275,0,0,1-.684-1.738Zm1.328.6a1.253,1.253,0,0,0,.3.873,1.018,1.018,0,0,0,.793.333A1,1,0,0,0,7.2-7.716a1.31,1.31,0,0,0,.3-.9v-.572a1.268,1.268,0,0,0-.3-.877,1.012,1.012,0,0,0-.793-.337.983.983,0,0,0-.785.341,1.327,1.327,0,0,0-.293.9Zm4.141,5.8a2.236,2.236,0,0,1,.68-1.7,2.411,2.411,0,0,1,1.734-.648,2.407,2.407,0,0,1,1.738.648,2.312,2.312,0,0,1,.676,1.75v.555A2.285,2.285,0,0,1,13.637-.5a2.344,2.344,0,0,1-1.746.66A2.413,2.413,0,0,1,10.129-.5a2.3,2.3,0,0,1-.668-1.723Zm1.328.6a1.246,1.246,0,0,0,.309.871,1.023,1.023,0,0,0,.793.34.991.991,0,0,0,.785-.324,1.333,1.333,0,0,0,.285-.91V-2.8a1.235,1.235,0,0,0-.3-.875A1.019,1.019,0,0,0,11.875-4a1.015,1.015,0,0,0-.785.328,1.291,1.291,0,0,0-.3.906ZM6.8-.852l-.977-.562L11.383-10.3l.977.563Z" transform="translate(658.471 3073)" fill="#12263f"/>
      <path id="Trazado_828879" data-name="Trazado 828879" d="M-9.062-5.641l.617-5.734h6.109v1.641H-6.867L-7.18-7.016A3.512,3.512,0,0,1-5.4-7.469,3.169,3.169,0,0,1-2.871-6.43a4.118,4.118,0,0,1,.9,2.8,3.79,3.79,0,0,1-1,2.762A3.65,3.65,0,0,1-5.711.156,3.822,3.822,0,0,1-8.3-.73,3.206,3.206,0,0,1-9.414-3.07h1.836A2,2,0,0,0-6.984-1.8a1.806,1.806,0,0,0,1.266.441,1.632,1.632,0,0,0,1.363-.625,2.7,2.7,0,0,0,.488-1.7,2.384,2.384,0,0,0-.539-1.645,1.885,1.885,0,0,0-1.484-.605,2.469,2.469,0,0,0-.875.137,2.478,2.478,0,0,0-.781.535ZM-.555-9.187a2.283,2.283,0,0,1,.664-1.691,2.363,2.363,0,0,1,1.742-.66,2.371,2.371,0,0,1,1.754.66,2.34,2.34,0,0,1,.66,1.73v.563a2.267,2.267,0,0,1-.66,1.68,2.358,2.358,0,0,1-1.738.656A2.433,2.433,0,0,1,.129-6.895,2.275,2.275,0,0,1-.555-8.633Zm1.328.6a1.253,1.253,0,0,0,.3.873,1.018,1.018,0,0,0,.793.333,1,1,0,0,0,.781-.333,1.31,1.31,0,0,0,.3-.9v-.572a1.268,1.268,0,0,0-.3-.877,1.012,1.012,0,0,0-.793-.337.983.983,0,0,0-.785.341,1.327,1.327,0,0,0-.293.9Zm4.141,5.8a2.236,2.236,0,0,1,.68-1.7,2.411,2.411,0,0,1,1.734-.648,2.407,2.407,0,0,1,1.738.648,2.312,2.312,0,0,1,.676,1.75v.555A2.285,2.285,0,0,1,9.09-.5a2.344,2.344,0,0,1-1.746.66A2.413,2.413,0,0,1,5.582-.5a2.3,2.3,0,0,1-.668-1.723Zm1.328.6a1.246,1.246,0,0,0,.309.871,1.023,1.023,0,0,0,.793.34A.991.991,0,0,0,8.129-1.3a1.333,1.333,0,0,0,.285-.91V-2.8a1.235,1.235,0,0,0-.3-.875A1.019,1.019,0,0,0,7.328-4a1.015,1.015,0,0,0-.785.328,1.291,1.291,0,0,0-.3.906ZM2.258-.852l-.977-.562L6.836-10.3l.977.563Z" transform="translate(821.471 2962)" fill="#fff"/>
      <path id="Trazado_828880" data-name="Trazado 828880" d="M-8.977,0h-1.891V-9.138l-2.789.951V-9.781l4.438-1.633h.242Zm4.461-5.641.617-5.734H2.211v1.641H-2.32l-.312,2.719A3.512,3.512,0,0,1-.852-7.469,3.169,3.169,0,0,1,1.676-6.43a4.118,4.118,0,0,1,.9,2.8,3.79,3.79,0,0,1-1,2.762A3.65,3.65,0,0,1-1.164.156,3.822,3.822,0,0,1-3.754-.73,3.206,3.206,0,0,1-4.867-3.07h1.836A2,2,0,0,0-2.437-1.8a1.806,1.806,0,0,0,1.266.441A1.632,1.632,0,0,0,.191-1.984a2.7,2.7,0,0,0,.488-1.7A2.384,2.384,0,0,0,.141-5.332a1.885,1.885,0,0,0-1.484-.605,2.469,2.469,0,0,0-.875.137A2.478,2.478,0,0,0-3-5.266ZM3.992-9.187a2.283,2.283,0,0,1,.664-1.691,2.363,2.363,0,0,1,1.742-.66,2.371,2.371,0,0,1,1.754.66,2.34,2.34,0,0,1,.66,1.73v.563a2.267,2.267,0,0,1-.66,1.68,2.358,2.358,0,0,1-1.738.656,2.433,2.433,0,0,1-1.738-.645,2.275,2.275,0,0,1-.684-1.738Zm1.328.6a1.253,1.253,0,0,0,.3.873,1.018,1.018,0,0,0,.793.333A1,1,0,0,0,7.2-7.716a1.31,1.31,0,0,0,.3-.9v-.572a1.268,1.268,0,0,0-.3-.877,1.012,1.012,0,0,0-.793-.337.983.983,0,0,0-.785.341,1.327,1.327,0,0,0-.293.9Zm4.141,5.8a2.236,2.236,0,0,1,.68-1.7,2.411,2.411,0,0,1,1.734-.648,2.407,2.407,0,0,1,1.738.648,2.312,2.312,0,0,1,.676,1.75v.555A2.285,2.285,0,0,1,13.637-.5a2.344,2.344,0,0,1-1.746.66A2.413,2.413,0,0,1,10.129-.5a2.3,2.3,0,0,1-.668-1.723Zm1.328.6a1.246,1.246,0,0,0,.309.871,1.023,1.023,0,0,0,.793.34.991.991,0,0,0,.785-.324,1.333,1.333,0,0,0,.285-.91V-2.8a1.235,1.235,0,0,0-.3-.875A1.019,1.019,0,0,0,11.875-4a1.015,1.015,0,0,0-.785.328,1.291,1.291,0,0,0-.3.906ZM6.8-.852l-.977-.562L11.383-10.3l.977.563Z" transform="translate(740.471 2978)" fill="#fff"/>
      <g transform="matrix(1, 0, 0, 1, 180.47, 2871.03)" filter="url(#Elipse_10545)">
        <circle id="Elipse_10545-2" data-name="Elipse 10545" cx="112" cy="112" r="112" transform="translate(508 118.97)" fill="#fff"/>
      </g>
      <path id="Trazado_828878" data-name="Trazado 828878" d="M-68.539-3.7a4.107,4.107,0,0,1-1.344,2.84A4.581,4.581,0,0,1-73,.156a4.436,4.436,0,0,1-2.395-.645,4.231,4.231,0,0,1-1.6-1.832,6.611,6.611,0,0,1-.586-2.758V-6.141a6.659,6.659,0,0,1,.57-2.836,4.3,4.3,0,0,1,1.637-1.891,4.566,4.566,0,0,1,2.465-.664,4.4,4.4,0,0,1,3.031,1.02,4.26,4.26,0,0,1,1.336,2.887h-1.969a2.81,2.81,0,0,0-.715-1.77,2.363,2.363,0,0,0-1.684-.543A2.308,2.308,0,0,0-74.887-9a4.709,4.709,0,0,0-.707,2.764v1.009a5,5,0,0,0,.66,2.815A2.191,2.191,0,0,0-73-1.437a2.555,2.555,0,0,0,1.75-.523A2.729,2.729,0,0,0-70.508-3.7Zm6.7,2.875a2.944,2.944,0,0,1-2.375.984,2.624,2.624,0,0,1-2.082-.8A3.423,3.423,0,0,1-67-2.977V-8.453h1.9V-3q0,1.609,1.336,1.609A1.876,1.876,0,0,0-61.9-2.383v-6.07H-60V0h-1.789ZM-58.422-4.3a4.984,4.984,0,0,1,.492-2.238,3.6,3.6,0,0,1,1.383-1.531A3.9,3.9,0,0,1-54.5-8.609a3.692,3.692,0,0,1,2.777,1.1A4.333,4.333,0,0,1-50.57-4.586l.008.445a5.029,5.029,0,0,1-.48,2.234A3.551,3.551,0,0,1-52.418-.383a3.925,3.925,0,0,1-2.066.539,3.667,3.667,0,0,1-2.863-1.191,4.563,4.563,0,0,1-1.074-3.176Zm1.9.164A3.406,3.406,0,0,0-55.984-2.1a1.752,1.752,0,0,0,1.5.738,1.733,1.733,0,0,0,1.5-.75,3.762,3.762,0,0,0,.535-2.2A3.362,3.362,0,0,0-53-6.336a1.759,1.759,0,0,0-1.5-.75,1.743,1.743,0,0,0-1.477.738A3.691,3.691,0,0,0-56.523-4.141Zm9.945-6.367v2.055h1.492v1.406h-1.492v4.719a1.039,1.039,0,0,0,.191.7.888.888,0,0,0,.684.215,2.924,2.924,0,0,0,.664-.078V-.023a4.676,4.676,0,0,1-1.25.18q-2.187,0-2.187-2.414V-7.047h-1.391V-8.453h1.391v-2.055ZM-38.586,0A2.93,2.93,0,0,1-38.8-.789a2.955,2.955,0,0,1-2.219.945A2.982,2.982,0,0,1-43.1-.57a2.325,2.325,0,0,1-.8-1.8,2.4,2.4,0,0,1,1-2.074,4.865,4.865,0,0,1,2.871-.723h1.164v-.555a1.481,1.481,0,0,0-.367-1.051,1.456,1.456,0,0,0-1.117-.395,1.672,1.672,0,0,0-1.062.324,1,1,0,0,0-.414.824h-1.9a2.107,2.107,0,0,1,.461-1.3,3.071,3.071,0,0,1,1.254-.949,4.4,4.4,0,0,1,1.77-.344,3.547,3.547,0,0,1,2.367.746,2.661,2.661,0,0,1,.906,2.1v3.813a4.321,4.321,0,0,0,.32,1.82V0Zm-2.086-1.367a2.16,2.16,0,0,0,1.059-.273,1.827,1.827,0,0,0,.746-.734V-3.969h-1.023a2.8,2.8,0,0,0-1.586.367,1.189,1.189,0,0,0-.531,1.039,1.109,1.109,0,0,0,.363.871A1.407,1.407,0,0,0-40.672-1.367Zm9.32-2.922a5.026,5.026,0,0,1,.906-3.137,2.9,2.9,0,0,1,2.43-1.184,2.759,2.759,0,0,1,2.172.938V-12h1.9V0h-1.719l-.094-.875A2.8,2.8,0,0,1-28.031.156a2.887,2.887,0,0,1-2.4-1.2A5.21,5.21,0,0,1-31.352-4.289Zm1.9.164a3.519,3.519,0,0,0,.5,2.012,1.61,1.61,0,0,0,1.41.723,1.793,1.793,0,0,0,1.7-1.039V-6.039a1.766,1.766,0,0,0-1.687-1.016,1.622,1.622,0,0,0-1.422.73A3.918,3.918,0,0,0-29.453-4.125ZM-18.242.156A3.928,3.928,0,0,1-21.168-.98a4.124,4.124,0,0,1-1.121-3.027v-.234A5.072,5.072,0,0,1-21.8-6.5,3.716,3.716,0,0,1-20.43-8.055a3.625,3.625,0,0,1,1.969-.555,3.318,3.318,0,0,1,2.668,1.1,4.658,4.658,0,0,1,.941,3.117v.766h-5.523a2.539,2.539,0,0,0,.7,1.656,2.1,2.1,0,0,0,1.543.609,2.571,2.571,0,0,0,2.125-1.055l1.023.977A3.418,3.418,0,0,1-16.34-.262,4.244,4.244,0,0,1-18.242.156Zm-.227-7.242a1.6,1.6,0,0,0-1.262.547,2.835,2.835,0,0,0-.613,1.523h3.617v-.141A2.307,2.307,0,0,0-17.234-6.6,1.586,1.586,0,0,0-18.469-7.086ZM-7.609-8.453l.055.883A3.042,3.042,0,0,1-5.117-8.609a2.337,2.337,0,0,1,2.32,1.3A3,3,0,0,1-.2-8.609a2.636,2.636,0,0,1,2.082.773,3.405,3.405,0,0,1,.7,2.281V0H.68V-5.5A1.681,1.681,0,0,0,.328-6.68,1.539,1.539,0,0,0-.836-7.055a1.581,1.581,0,0,0-1.059.348,1.833,1.833,0,0,0-.574.91L-2.461,0h-1.9V-5.562A1.354,1.354,0,0,0-5.883-7.055a1.671,1.671,0,0,0-1.617.93V0H-9.4V-8.453ZM8.25.156A3.928,3.928,0,0,1,5.324-.98,4.124,4.124,0,0,1,4.2-4.008v-.234A5.072,5.072,0,0,1,4.691-6.5,3.716,3.716,0,0,1,6.063-8.055a3.625,3.625,0,0,1,1.969-.555,3.318,3.318,0,0,1,2.668,1.1,4.658,4.658,0,0,1,.941,3.117v.766H6.117a2.539,2.539,0,0,0,.7,1.656,2.1,2.1,0,0,0,1.543.609,2.571,2.571,0,0,0,2.125-1.055l1.023.977A3.418,3.418,0,0,1,10.152-.262,4.244,4.244,0,0,1,8.25.156ZM8.023-7.086a1.6,1.6,0,0,0-1.262.547,2.835,2.835,0,0,0-.613,1.523H9.766v-.141A2.307,2.307,0,0,0,9.258-6.6,1.586,1.586,0,0,0,8.023-7.086Zm9.516.367a4.7,4.7,0,0,0-.773-.062,1.741,1.741,0,0,0-1.758,1V0h-1.9V-8.453h1.813l.047.945a2.139,2.139,0,0,1,1.906-1.1,1.777,1.777,0,0,1,.672.109Zm4.523,5.359a1.716,1.716,0,0,0,1.18-.414,1.415,1.415,0,0,0,.5-1.023h1.789a2.789,2.789,0,0,1-.492,1.473,3.228,3.228,0,0,1-1.25,1.082,3.725,3.725,0,0,1-1.7.4A3.6,3.6,0,0,1,19.273-.992a4.555,4.555,0,0,1-1.039-3.172v-.2a4.479,4.479,0,0,1,1.031-3.09,3.571,3.571,0,0,1,2.813-1.16,3.473,3.473,0,0,1,2.457.879,3.148,3.148,0,0,1,1,2.309H23.742a1.738,1.738,0,0,0-.5-1.2,1.6,1.6,0,0,0-1.184-.469,1.671,1.671,0,0,0-1.422.668,3.408,3.408,0,0,0-.508,2.027v.3a3.465,3.465,0,0,0,.5,2.051A1.669,1.669,0,0,0,22.063-1.359ZM32.016,0A2.93,2.93,0,0,1,31.8-.789a2.955,2.955,0,0,1-2.219.945A2.982,2.982,0,0,1,27.5-.57a2.325,2.325,0,0,1-.8-1.8,2.4,2.4,0,0,1,1-2.074,4.865,4.865,0,0,1,2.871-.723h1.164v-.555a1.481,1.481,0,0,0-.367-1.051,1.456,1.456,0,0,0-1.117-.395,1.672,1.672,0,0,0-1.062.324,1,1,0,0,0-.414.824h-1.9a2.107,2.107,0,0,1,.461-1.3,3.071,3.071,0,0,1,1.254-.949,4.4,4.4,0,0,1,1.77-.344,3.547,3.547,0,0,1,2.367.746,2.661,2.661,0,0,1,.906,2.1v3.813a4.321,4.321,0,0,0,.32,1.82V0ZM29.93-1.367a2.159,2.159,0,0,0,1.059-.273,1.827,1.827,0,0,0,.746-.734V-3.969H30.711a2.8,2.8,0,0,0-1.586.367,1.189,1.189,0,0,0-.531,1.039,1.109,1.109,0,0,0,.363.871A1.407,1.407,0,0,0,29.93-1.367Zm5.336-2.922a5.026,5.026,0,0,1,.906-3.137A2.9,2.9,0,0,1,38.6-8.609a2.759,2.759,0,0,1,2.172.938V-12h1.9V0H40.953l-.094-.875A2.8,2.8,0,0,1,38.586.156a2.887,2.887,0,0,1-2.4-1.2A5.21,5.21,0,0,1,35.266-4.289Zm1.9.164a3.519,3.519,0,0,0,.5,2.012,1.61,1.61,0,0,0,1.41.723,1.793,1.793,0,0,0,1.7-1.039V-6.039a1.766,1.766,0,0,0-1.687-1.016,1.622,1.622,0,0,0-1.422.73A3.919,3.919,0,0,0,37.164-4.125ZM44.3-4.3a4.984,4.984,0,0,1,.492-2.238,3.6,3.6,0,0,1,1.383-1.531,3.9,3.9,0,0,1,2.047-.535A3.692,3.692,0,0,1,51-7.508a4.333,4.333,0,0,1,1.152,2.922l.008.445a5.029,5.029,0,0,1-.48,2.234A3.551,3.551,0,0,1,50.3-.383a3.925,3.925,0,0,1-2.066.539,3.667,3.667,0,0,1-2.863-1.191A4.563,4.563,0,0,1,44.3-4.211Zm1.9.164A3.406,3.406,0,0,0,46.734-2.1a1.752,1.752,0,0,0,1.5.738,1.733,1.733,0,0,0,1.5-.75,3.762,3.762,0,0,0,.535-2.2,3.362,3.362,0,0,0-.551-2.031,1.759,1.759,0,0,0-1.5-.75,1.743,1.743,0,0,0-1.477.738A3.691,3.691,0,0,0,46.2-4.141Zm11.2-.148A5.026,5.026,0,0,1,58.3-7.426a2.9,2.9,0,0,1,2.43-1.184,2.759,2.759,0,0,1,2.172.938V-12h1.9V0H63.078l-.094-.875A2.8,2.8,0,0,1,60.711.156a2.887,2.887,0,0,1-2.4-1.2A5.21,5.21,0,0,1,57.391-4.289Zm1.9.164a3.519,3.519,0,0,0,.5,2.012,1.61,1.61,0,0,0,1.41.723A1.793,1.793,0,0,0,62.9-2.43V-6.039a1.766,1.766,0,0,0-1.687-1.016,1.622,1.622,0,0,0-1.422.73A3.919,3.919,0,0,0,59.289-4.125ZM70.5.156A3.928,3.928,0,0,1,67.574-.98a4.124,4.124,0,0,1-1.121-3.027v-.234A5.072,5.072,0,0,1,66.941-6.5a3.716,3.716,0,0,1,1.371-1.551,3.625,3.625,0,0,1,1.969-.555,3.318,3.318,0,0,1,2.668,1.1,4.658,4.658,0,0,1,.941,3.117v.766H68.367a2.539,2.539,0,0,0,.7,1.656,2.1,2.1,0,0,0,1.543.609,2.571,2.571,0,0,0,2.125-1.055l1.023.977A3.418,3.418,0,0,1,72.4-.262,4.244,4.244,0,0,1,70.5.156Zm-.227-7.242a1.6,1.6,0,0,0-1.262.547A2.835,2.835,0,0,0,68.4-5.016h3.617v-.141A2.307,2.307,0,0,0,71.508-6.6,1.586,1.586,0,0,0,70.273-7.086ZM-79.34,21.7a.861.861,0,0,0-.418-.773,4.445,4.445,0,0,0-1.387-.469,7.128,7.128,0,0,1-1.617-.516,2.158,2.158,0,0,1-1.422-1.992,2.25,2.25,0,0,1,.922-1.828,3.644,3.644,0,0,1,2.344-.734,3.792,3.792,0,0,1,2.449.75,2.38,2.38,0,0,1,.934,1.945h-1.9a1.17,1.17,0,0,0-.406-.91,1.557,1.557,0,0,0-1.078-.363,1.682,1.682,0,0,0-1.02.289.911.911,0,0,0-.395.773.769.769,0,0,0,.367.68,5.049,5.049,0,0,0,1.484.488,7.027,7.027,0,0,1,1.754.586,2.484,2.484,0,0,1,.945.816,2.082,2.082,0,0,1,.309,1.156,2.2,2.2,0,0,1-.945,1.848,4.031,4.031,0,0,1-2.477.707,4.371,4.371,0,0,1-1.852-.375,3.047,3.047,0,0,1-1.266-1.031,2.441,2.441,0,0,1-.453-1.414h1.844a1.338,1.338,0,0,0,.508,1.035,1.973,1.973,0,0,0,1.242.363,1.92,1.92,0,0,0,1.141-.285A.883.883,0,0,0-79.34,21.7ZM-73.8,24h-1.9V15.547h1.9Zm-2.016-10.656a1.02,1.02,0,0,1,.277-.732,1.043,1.043,0,0,1,.793-.291,1.056,1.056,0,0,1,.8.291,1.012,1.012,0,0,1,.281.732.988.988,0,0,1-.281.72,1.064,1.064,0,0,1-.8.287,1.051,1.051,0,0,1-.793-.287A1,1,0,0,1-75.816,13.344ZM-67,21.7a.861.861,0,0,0-.418-.773,4.445,4.445,0,0,0-1.387-.469,7.128,7.128,0,0,1-1.617-.516,2.158,2.158,0,0,1-1.422-1.992,2.25,2.25,0,0,1,.922-1.828,3.644,3.644,0,0,1,2.344-.734,3.792,3.792,0,0,1,2.449.75,2.38,2.38,0,0,1,.934,1.945h-1.9a1.17,1.17,0,0,0-.406-.91,1.557,1.557,0,0,0-1.078-.363,1.682,1.682,0,0,0-1.02.289.911.911,0,0,0-.395.773.769.769,0,0,0,.367.68,5.049,5.049,0,0,0,1.484.488,7.027,7.027,0,0,1,1.754.586,2.484,2.484,0,0,1,.945.816,2.082,2.082,0,0,1,.309,1.156,2.2,2.2,0,0,1-.945,1.848,4.031,4.031,0,0,1-2.477.707,4.371,4.371,0,0,1-1.852-.375,3.047,3.047,0,0,1-1.266-1.031,2.441,2.441,0,0,1-.453-1.414h1.844a1.338,1.338,0,0,0,.508,1.035,1.973,1.973,0,0,0,1.242.363,1.92,1.92,0,0,0,1.141-.285A.883.883,0,0,0-67,21.7Zm5.9-8.211v2.055h1.492v1.406H-61.1v4.719a1.039,1.039,0,0,0,.191.7.888.888,0,0,0,.684.215,2.924,2.924,0,0,0,.664-.078v1.469a4.676,4.676,0,0,1-1.25.18Q-63,24.156-63,21.742V16.953h-1.391V15.547H-63V13.492Zm6.664,10.664a3.928,3.928,0,0,1-2.926-1.137,4.124,4.124,0,0,1-1.121-3.027v-.234a5.072,5.072,0,0,1,.488-2.262,3.716,3.716,0,0,1,1.371-1.551,3.625,3.625,0,0,1,1.969-.555,3.318,3.318,0,0,1,2.668,1.1,4.658,4.658,0,0,1,.941,3.117v.766h-5.523a2.539,2.539,0,0,0,.7,1.656,2.1,2.1,0,0,0,1.543.609A2.571,2.571,0,0,0-52.2,21.586l1.023.977a3.418,3.418,0,0,1-1.355,1.176A4.244,4.244,0,0,1-54.434,24.156Zm-.227-7.242a1.6,1.6,0,0,0-1.262.547,2.835,2.835,0,0,0-.613,1.523h3.617v-.141a2.307,2.307,0,0,0-.508-1.441A1.586,1.586,0,0,0-54.66,16.914Zm6.875-1.367.055.883a3.042,3.042,0,0,1,2.438-1.039,2.337,2.337,0,0,1,2.32,1.3,3,3,0,0,1,2.594-1.3,2.636,2.636,0,0,1,2.082.773,3.405,3.405,0,0,1,.7,2.281V24h-1.9V18.5a1.681,1.681,0,0,0-.352-1.18,1.539,1.539,0,0,0-1.164-.375,1.581,1.581,0,0,0-1.059.348,1.833,1.833,0,0,0-.574.91l.008,5.8h-1.9V18.438a1.354,1.354,0,0,0-1.523-1.492,1.671,1.671,0,0,0-1.617.93V24h-1.9V15.547ZM-30.6,24a2.93,2.93,0,0,1-.219-.789,2.955,2.955,0,0,1-2.219.945,2.982,2.982,0,0,1-2.078-.727,2.325,2.325,0,0,1-.8-1.8,2.4,2.4,0,0,1,1-2.074,4.865,4.865,0,0,1,2.871-.723h1.164v-.555a1.481,1.481,0,0,0-.367-1.051,1.456,1.456,0,0,0-1.117-.395,1.672,1.672,0,0,0-1.062.324,1,1,0,0,0-.414.824h-1.9a2.107,2.107,0,0,1,.461-1.3,3.071,3.071,0,0,1,1.254-.949,4.4,4.4,0,0,1,1.77-.344,3.547,3.547,0,0,1,2.367.746,2.661,2.661,0,0,1,.906,2.1v3.813a4.321,4.321,0,0,0,.32,1.82V24Zm-2.086-1.367a2.16,2.16,0,0,0,1.059-.273,1.827,1.827,0,0,0,.746-.734V20.031H-31.9a2.8,2.8,0,0,0-1.586.367,1.189,1.189,0,0,0-.531,1.039,1.109,1.109,0,0,0,.363.871A1.407,1.407,0,0,0-32.684,22.633Zm10.43-.93a.861.861,0,0,0-.418-.773,4.445,4.445,0,0,0-1.387-.469,7.129,7.129,0,0,1-1.617-.516A2.158,2.158,0,0,1-27.1,17.953a2.25,2.25,0,0,1,.922-1.828,3.644,3.644,0,0,1,2.344-.734,3.792,3.792,0,0,1,2.449.75,2.38,2.38,0,0,1,.934,1.945h-1.9a1.17,1.17,0,0,0-.406-.91,1.557,1.557,0,0,0-1.078-.363,1.682,1.682,0,0,0-1.02.289.911.911,0,0,0-.395.773.769.769,0,0,0,.367.68,5.049,5.049,0,0,0,1.484.488,7.027,7.027,0,0,1,1.754.586,2.484,2.484,0,0,1,.945.816,2.082,2.082,0,0,1,.309,1.156,2.2,2.2,0,0,1-.945,1.848,4.031,4.031,0,0,1-2.477.707,4.371,4.371,0,0,1-1.852-.375,3.047,3.047,0,0,1-1.266-1.031,2.441,2.441,0,0,1-.453-1.414h1.844a1.338,1.338,0,0,0,.508,1.035,1.973,1.973,0,0,0,1.242.363,1.92,1.92,0,0,0,1.141-.285A.883.883,0,0,0-22.254,21.7Zm7.148-2.008a4.984,4.984,0,0,1,.492-2.238,3.6,3.6,0,0,1,1.383-1.531,3.9,3.9,0,0,1,2.047-.535,3.692,3.692,0,0,1,2.777,1.1,4.333,4.333,0,0,1,1.152,2.922l.008.445a5.029,5.029,0,0,1-.48,2.234A3.551,3.551,0,0,1-9.1,23.617a3.925,3.925,0,0,1-2.066.539,3.667,3.667,0,0,1-2.863-1.191,4.563,4.563,0,0,1-1.074-3.176Zm1.9.164a3.406,3.406,0,0,0,.539,2.043,1.752,1.752,0,0,0,1.5.738,1.733,1.733,0,0,0,1.5-.75,3.762,3.762,0,0,0,.535-2.2,3.362,3.362,0,0,0-.551-2.031,1.759,1.759,0,0,0-1.5-.75,1.743,1.743,0,0,0-1.477.738A3.691,3.691,0,0,0-13.207,19.859Zm14.969,0a5.033,5.033,0,0,1-.891,3.129A2.852,2.852,0,0,1-1.52,24.156a2.871,2.871,0,0,1-2.227-.914V27.25h-1.9v-11.7h1.75l.078.859a2.788,2.788,0,0,1,2.273-1.016A2.881,2.881,0,0,1,.883,16.543a5.167,5.167,0,0,1,.879,3.2ZM-.129,19.7a3.526,3.526,0,0,0-.5-2.008,1.638,1.638,0,0,0-1.441-.742,1.747,1.747,0,0,0-1.672.961v3.75a1.763,1.763,0,0,0,1.688.984,1.636,1.636,0,0,0,1.418-.73A3.881,3.881,0,0,0-.129,19.7ZM7.09,24.156A3.928,3.928,0,0,1,4.164,23.02a4.124,4.124,0,0,1-1.121-3.027v-.234A5.072,5.072,0,0,1,3.531,17.5,3.716,3.716,0,0,1,4.9,15.945a3.625,3.625,0,0,1,1.969-.555,3.318,3.318,0,0,1,2.668,1.1,4.658,4.658,0,0,1,.941,3.117v.766H4.957a2.539,2.539,0,0,0,.7,1.656,2.1,2.1,0,0,0,1.543.609,2.571,2.571,0,0,0,2.125-1.055l1.023.977a3.418,3.418,0,0,1-1.355,1.176A4.244,4.244,0,0,1,7.09,24.156Zm-.227-7.242a1.6,1.6,0,0,0-1.262.547,2.835,2.835,0,0,0-.613,1.523H8.605v-.141A2.307,2.307,0,0,0,8.1,17.4,1.586,1.586,0,0,0,6.863,16.914Zm9.516.367a4.7,4.7,0,0,0-.773-.062,1.741,1.741,0,0,0-1.758,1V24h-1.9V15.547h1.813l.047.945a2.139,2.139,0,0,1,1.906-1.1,1.777,1.777,0,0,1,.672.109ZM22.395,24a2.93,2.93,0,0,1-.219-.789,3.193,3.193,0,0,1-4.3.219,2.325,2.325,0,0,1-.8-1.8,2.4,2.4,0,0,1,1-2.074,4.865,4.865,0,0,1,2.871-.723h1.164v-.555a1.481,1.481,0,0,0-.367-1.051,1.456,1.456,0,0,0-1.117-.395,1.672,1.672,0,0,0-1.062.324,1,1,0,0,0-.414.824h-1.9a2.107,2.107,0,0,1,.461-1.3,3.071,3.071,0,0,1,1.254-.949,4.4,4.4,0,0,1,1.77-.344,3.547,3.547,0,0,1,2.367.746,2.661,2.661,0,0,1,.906,2.1v3.813a4.321,4.321,0,0,0,.32,1.82V24Zm-2.086-1.367a2.16,2.16,0,0,0,1.059-.273,1.827,1.827,0,0,0,.746-.734V20.031H21.09A2.8,2.8,0,0,0,19.5,20.4a1.189,1.189,0,0,0-.531,1.039,1.109,1.109,0,0,0,.363.871A1.407,1.407,0,0,0,20.309,22.633Zm8.07-9.141v2.055h1.492v1.406H28.379v4.719a1.039,1.039,0,0,0,.191.7.888.888,0,0,0,.684.215,2.924,2.924,0,0,0,.664-.078v1.469a4.676,4.676,0,0,1-1.25.18q-2.188,0-2.187-2.414V16.953H25.09V15.547H26.48V13.492ZM33.34,24h-1.9V15.547h1.9ZM31.324,13.344a1.02,1.02,0,0,1,.277-.732,1.043,1.043,0,0,1,.793-.291,1.056,1.056,0,0,1,.8.291,1.012,1.012,0,0,1,.281.732.988.988,0,0,1-.281.72,1.064,1.064,0,0,1-.8.287,1.051,1.051,0,0,1-.793-.287A1,1,0,0,1,31.324,13.344Zm7.063,8.25,1.789-6.047h1.961L39.207,24H37.559l-2.953-8.453h1.969Zm4.461-1.9a4.984,4.984,0,0,1,.492-2.238,3.6,3.6,0,0,1,1.383-1.531,3.9,3.9,0,0,1,2.047-.535,3.692,3.692,0,0,1,2.777,1.1A4.333,4.333,0,0,1,50.7,19.414l.008.445a5.029,5.029,0,0,1-.48,2.234,3.551,3.551,0,0,1-1.375,1.523,3.925,3.925,0,0,1-2.066.539,3.667,3.667,0,0,1-2.863-1.191,4.563,4.563,0,0,1-1.074-3.176Zm1.9.164a3.406,3.406,0,0,0,.539,2.043,1.752,1.752,0,0,0,1.5.738,1.733,1.733,0,0,0,1.5-.75,3.762,3.762,0,0,0,.535-2.2,3.362,3.362,0,0,0-.551-2.031,1.856,1.856,0,0,0-2.973-.012A3.691,3.691,0,0,0,44.746,19.859Zm12.3,1.844a.861.861,0,0,0-.418-.773,4.445,4.445,0,0,0-1.387-.469,7.129,7.129,0,0,1-1.617-.516,2.158,2.158,0,0,1-1.422-1.992,2.25,2.25,0,0,1,.922-1.828,3.644,3.644,0,0,1,2.344-.734,3.792,3.792,0,0,1,2.449.75,2.38,2.38,0,0,1,.934,1.945h-1.9a1.17,1.17,0,0,0-.406-.91,1.557,1.557,0,0,0-1.078-.363,1.682,1.682,0,0,0-1.02.289.911.911,0,0,0-.395.773.769.769,0,0,0,.367.68,5.049,5.049,0,0,0,1.484.488,7.027,7.027,0,0,1,1.754.586,2.484,2.484,0,0,1,.945.816,2.082,2.082,0,0,1,.309,1.156,2.2,2.2,0,0,1-.945,1.848,4.031,4.031,0,0,1-2.477.707,4.371,4.371,0,0,1-1.852-.375,3.047,3.047,0,0,1-1.266-1.031,2.441,2.441,0,0,1-.453-1.414H53.77a1.338,1.338,0,0,0,.508,1.035,1.973,1.973,0,0,0,1.242.363,1.92,1.92,0,0,0,1.141-.285A.883.883,0,0,0,57.051,21.7Zm11.227,2.453a3.928,3.928,0,0,1-2.926-1.137,4.124,4.124,0,0,1-1.121-3.027v-.234a5.072,5.072,0,0,1,.488-2.262,3.716,3.716,0,0,1,1.371-1.551,3.625,3.625,0,0,1,1.969-.555,3.318,3.318,0,0,1,2.668,1.1,4.658,4.658,0,0,1,.941,3.117v.766H66.145a2.539,2.539,0,0,0,.7,1.656,2.1,2.1,0,0,0,1.543.609,2.571,2.571,0,0,0,2.125-1.055l1.023.977a3.418,3.418,0,0,1-1.355,1.176A4.244,4.244,0,0,1,68.277,24.156Zm-.227-7.242a1.6,1.6,0,0,0-1.262.547,2.835,2.835,0,0,0-.613,1.523h3.617v-.141a2.307,2.307,0,0,0-.508-1.441A1.586,1.586,0,0,0,68.051,16.914ZM74.9,15.547l.055.977a3.039,3.039,0,0,1,2.461-1.133q2.641,0,2.688,3.023V24h-1.9V18.523a1.741,1.741,0,0,0-.348-1.191,1.462,1.462,0,0,0-1.137-.387,1.829,1.829,0,0,0-1.711,1.039V24h-1.9V15.547ZM-76.891,44.3a4.107,4.107,0,0,1-1.344,2.84,4.581,4.581,0,0,1-3.117,1.02,4.436,4.436,0,0,1-2.395-.645,4.231,4.231,0,0,1-1.6-1.832,6.611,6.611,0,0,1-.586-2.758V41.859a6.659,6.659,0,0,1,.57-2.836,4.3,4.3,0,0,1,1.637-1.891,4.566,4.566,0,0,1,2.465-.664,4.4,4.4,0,0,1,3.031,1.02,4.26,4.26,0,0,1,1.336,2.887h-1.969a2.81,2.81,0,0,0-.715-1.77,2.363,2.363,0,0,0-1.684-.543,2.308,2.308,0,0,0-1.98.942,4.709,4.709,0,0,0-.707,2.764v1.009a5,5,0,0,0,.66,2.815,2.191,2.191,0,0,0,1.934.97,2.555,2.555,0,0,0,1.75-.523,2.729,2.729,0,0,0,.742-1.742Zm1.227-.6a4.984,4.984,0,0,1,.492-2.238,3.6,3.6,0,0,1,1.383-1.531,3.9,3.9,0,0,1,2.047-.535,3.692,3.692,0,0,1,2.777,1.1,4.333,4.333,0,0,1,1.152,2.922l.008.445a5.029,5.029,0,0,1-.48,2.234,3.551,3.551,0,0,1-1.375,1.523,3.925,3.925,0,0,1-2.066.539,3.667,3.667,0,0,1-2.863-1.191,4.563,4.563,0,0,1-1.074-3.176Zm1.9.164a3.406,3.406,0,0,0,.539,2.043,1.752,1.752,0,0,0,1.5.738,1.733,1.733,0,0,0,1.5-.75,3.762,3.762,0,0,0,.535-2.2,3.362,3.362,0,0,0-.551-2.031,1.759,1.759,0,0,0-1.5-.75,1.743,1.743,0,0,0-1.477.738A3.691,3.691,0,0,0-73.766,43.859ZM-64.18,48h-1.9V36h1.9Zm1.711-4.3a4.984,4.984,0,0,1,.492-2.238,3.6,3.6,0,0,1,1.383-1.531,3.9,3.9,0,0,1,2.047-.535,3.692,3.692,0,0,1,2.777,1.1,4.333,4.333,0,0,1,1.152,2.922l.008.445a5.029,5.029,0,0,1-.48,2.234,3.551,3.551,0,0,1-1.375,1.523,3.925,3.925,0,0,1-2.066.539,3.667,3.667,0,0,1-2.863-1.191,4.563,4.563,0,0,1-1.074-3.176Zm1.9.164a3.406,3.406,0,0,0,.539,2.043,1.752,1.752,0,0,0,1.5.738,1.733,1.733,0,0,0,1.5-.75,3.762,3.762,0,0,0,.535-2.2,3.362,3.362,0,0,0-.551-2.031,1.759,1.759,0,0,0-1.5-.75,1.743,1.743,0,0,0-1.477.738A3.691,3.691,0,0,0-60.57,43.859Zm9.352-4.312.055.883a3.042,3.042,0,0,1,2.438-1.039,2.337,2.337,0,0,1,2.32,1.3,3,3,0,0,1,2.594-1.3,2.636,2.636,0,0,1,2.082.773,3.405,3.405,0,0,1,.7,2.281V48h-1.9V42.5a1.681,1.681,0,0,0-.352-1.18,1.539,1.539,0,0,0-1.164-.375,1.581,1.581,0,0,0-1.059.348,1.833,1.833,0,0,0-.574.91l.008,5.8h-1.9V42.438a1.354,1.354,0,0,0-1.523-1.492,1.671,1.671,0,0,0-1.617.93V48h-1.9V39.547Zm19.555,4.313a5.078,5.078,0,0,1-.879,3.133,2.863,2.863,0,0,1-2.418,1.164,2.758,2.758,0,0,1-2.312-1.07l-.094.914h-1.719V36h1.9v4.359a2.748,2.748,0,0,1,2.211-.969,2.9,2.9,0,0,1,2.43,1.148,5.162,5.162,0,0,1,.883,3.211Zm-1.9-.164a3.589,3.589,0,0,0-.484-2.062,1.613,1.613,0,0,0-1.406-.687,1.763,1.763,0,0,0-1.734,1.078v3.484a1.781,1.781,0,0,0,1.75,1.1,1.6,1.6,0,0,0,1.375-.664,3.477,3.477,0,0,0,.5-2.008Zm5.508,4.3h-1.9V39.547h1.9ZM-30.07,37.344a1.02,1.02,0,0,1,.277-.732A1.043,1.043,0,0,1-29,36.32a1.056,1.056,0,0,1,.8.291,1.012,1.012,0,0,1,.281.732.988.988,0,0,1-.281.72,1.064,1.064,0,0,1-.8.287,1.051,1.051,0,0,1-.793-.287A1,1,0,0,1-30.07,37.344ZM-20.937,48a2.93,2.93,0,0,1-.219-.789,2.955,2.955,0,0,1-2.219.945,2.982,2.982,0,0,1-2.078-.727,2.325,2.325,0,0,1-.8-1.8,2.4,2.4,0,0,1,1-2.074,4.865,4.865,0,0,1,2.871-.723h1.164v-.555a1.481,1.481,0,0,0-.367-1.051,1.456,1.456,0,0,0-1.117-.395,1.672,1.672,0,0,0-1.062.324,1,1,0,0,0-.414.824h-1.9a2.107,2.107,0,0,1,.461-1.3,3.071,3.071,0,0,1,1.254-.949,4.4,4.4,0,0,1,1.77-.344,3.547,3.547,0,0,1,2.367.746,2.661,2.661,0,0,1,.906,2.1v3.813a4.321,4.321,0,0,0,.32,1.82V48Zm-2.086-1.367a2.159,2.159,0,0,0,1.059-.273,1.827,1.827,0,0,0,.746-.734V44.031h-1.023a2.8,2.8,0,0,0-1.586.367,1.189,1.189,0,0,0-.531,1.039,1.109,1.109,0,0,0,.363.871A1.407,1.407,0,0,0-23.023,46.633Zm13.359-2.7h-4.1V42.4h4.1ZM-3.93,48V36.625H-.57a5.269,5.269,0,0,1,2.676.672A4.581,4.581,0,0,1,3.914,39.2a6.051,6.051,0,0,1,.641,2.828v.57a6.026,6.026,0,0,1-.645,2.844,4.526,4.526,0,0,1-1.836,1.891A5.513,5.513,0,0,1-.656,48Zm1.977-9.781v8.188H-.664a2.971,2.971,0,0,0,2.387-.971,4.223,4.223,0,0,0,.848-2.788v-.632a4.333,4.333,0,0,0-.8-2.823A2.855,2.855,0,0,0-.57,38.219ZM8.359,48h-1.9V39.547h1.9ZM6.344,37.344a1.02,1.02,0,0,1,.277-.732,1.043,1.043,0,0,1,.793-.291,1.056,1.056,0,0,1,.8.291,1.012,1.012,0,0,1,.281.732.988.988,0,0,1-.281.72,1.064,1.064,0,0,1-.8.287,1.051,1.051,0,0,1-.793-.287A1,1,0,0,1,6.344,37.344Zm8.82,8.359a.861.861,0,0,0-.418-.773,4.445,4.445,0,0,0-1.387-.469,7.129,7.129,0,0,1-1.617-.516,2.158,2.158,0,0,1-1.422-1.992,2.25,2.25,0,0,1,.922-1.828,3.644,3.644,0,0,1,2.344-.734,3.792,3.792,0,0,1,2.449.75,2.38,2.38,0,0,1,.934,1.945h-1.9a1.17,1.17,0,0,0-.406-.91,1.557,1.557,0,0,0-1.078-.363,1.682,1.682,0,0,0-1.02.289.911.911,0,0,0-.395.773.769.769,0,0,0,.367.68,5.049,5.049,0,0,0,1.484.488,7.027,7.027,0,0,1,1.754.586,2.484,2.484,0,0,1,.945.816,2.082,2.082,0,0,1,.309,1.156,2.2,2.2,0,0,1-.945,1.848,4.031,4.031,0,0,1-2.477.707,4.371,4.371,0,0,1-1.852-.375,3.047,3.047,0,0,1-1.266-1.031,2.441,2.441,0,0,1-.453-1.414h1.844a1.338,1.338,0,0,0,.508,1.035,1.973,1.973,0,0,0,1.242.363,1.92,1.92,0,0,0,1.141-.285A.883.883,0,0,0,15.164,45.7Zm10.922-1.844a5.033,5.033,0,0,1-.891,3.129,3.094,3.094,0,0,1-4.617.254V51.25h-1.9v-11.7h1.75l.078.859a2.788,2.788,0,0,1,2.273-1.016,2.881,2.881,0,0,1,2.426,1.152,5.167,5.167,0,0,1,.879,3.2ZM24.2,43.7a3.526,3.526,0,0,0-.5-2.008,1.638,1.638,0,0,0-1.441-.742,1.747,1.747,0,0,0-1.672.961v3.75a1.763,1.763,0,0,0,1.688.984,1.636,1.636,0,0,0,1.418-.73A3.881,3.881,0,0,0,24.2,43.7Zm3.141,0a4.984,4.984,0,0,1,.492-2.238,3.6,3.6,0,0,1,1.383-1.531,3.9,3.9,0,0,1,2.047-.535,3.692,3.692,0,0,1,2.777,1.1,4.333,4.333,0,0,1,1.152,2.922l.008.445a5.029,5.029,0,0,1-.48,2.234,3.551,3.551,0,0,1-1.375,1.523,3.925,3.925,0,0,1-2.066.539,3.667,3.667,0,0,1-2.863-1.191,4.563,4.563,0,0,1-1.074-3.176Zm1.9.164a3.406,3.406,0,0,0,.539,2.043,1.752,1.752,0,0,0,1.5.738,1.733,1.733,0,0,0,1.5-.75,3.762,3.762,0,0,0,.535-2.2,3.362,3.362,0,0,0-.551-2.031,1.856,1.856,0,0,0-2.973-.012A3.691,3.691,0,0,0,29.234,43.859Zm12.3,1.844a.861.861,0,0,0-.418-.773,4.445,4.445,0,0,0-1.387-.469,7.129,7.129,0,0,1-1.617-.516A2.158,2.158,0,0,1,36.7,41.953a2.25,2.25,0,0,1,.922-1.828,3.644,3.644,0,0,1,2.344-.734,3.792,3.792,0,0,1,2.449.75,2.38,2.38,0,0,1,.934,1.945h-1.9a1.17,1.17,0,0,0-.406-.91,1.557,1.557,0,0,0-1.078-.363,1.682,1.682,0,0,0-1.02.289.911.911,0,0,0-.395.773.769.769,0,0,0,.367.68,5.049,5.049,0,0,0,1.484.488,7.027,7.027,0,0,1,1.754.586,2.484,2.484,0,0,1,.945.816,2.082,2.082,0,0,1,.309,1.156,2.2,2.2,0,0,1-.945,1.848,4.031,4.031,0,0,1-2.477.707,4.371,4.371,0,0,1-1.852-.375,3.047,3.047,0,0,1-1.266-1.031,2.441,2.441,0,0,1-.453-1.414h1.844a1.338,1.338,0,0,0,.508,1.035,1.973,1.973,0,0,0,1.242.363,1.92,1.92,0,0,0,1.141-.285A.883.883,0,0,0,41.539,45.7ZM47.078,48h-1.9V39.547h1.9ZM45.063,37.344a1.02,1.02,0,0,1,.277-.732,1.043,1.043,0,0,1,.793-.291,1.056,1.056,0,0,1,.8.291,1.012,1.012,0,0,1,.281.732.988.988,0,0,1-.281.72,1.064,1.064,0,0,1-.8.287,1.051,1.051,0,0,1-.793-.287A1,1,0,0,1,45.063,37.344Zm6.461.148v2.055h1.492v1.406H51.523v4.719a1.039,1.039,0,0,0,.191.7.888.888,0,0,0,.684.215,2.925,2.925,0,0,0,.664-.078v1.469a4.676,4.676,0,0,1-1.25.18q-2.187,0-2.187-2.414V40.953H48.234V39.547h1.391V37.492ZM56.484,48h-1.9V39.547h1.9ZM54.469,37.344a1.02,1.02,0,0,1,.277-.732,1.043,1.043,0,0,1,.793-.291,1.056,1.056,0,0,1,.8.291,1.012,1.012,0,0,1,.281.732.988.988,0,0,1-.281.72,1.064,1.064,0,0,1-.8.287,1.051,1.051,0,0,1-.793-.287A1,1,0,0,1,54.469,37.344Zm7.063,8.25,1.789-6.047h1.961L62.352,48H60.7L57.75,39.547h1.969Zm4.461-1.9a4.984,4.984,0,0,1,.492-2.238,3.6,3.6,0,0,1,1.383-1.531,3.9,3.9,0,0,1,2.047-.535,3.692,3.692,0,0,1,2.777,1.1,4.333,4.333,0,0,1,1.152,2.922l.008.445a5.029,5.029,0,0,1-.48,2.234A3.551,3.551,0,0,1,72,47.617a3.925,3.925,0,0,1-2.066.539,3.667,3.667,0,0,1-2.863-1.191,4.563,4.563,0,0,1-1.074-3.176Zm1.9.164A3.406,3.406,0,0,0,68.43,45.9a1.752,1.752,0,0,0,1.5.738,1.733,1.733,0,0,0,1.5-.75,3.762,3.762,0,0,0,.535-2.2,3.362,3.362,0,0,0-.551-2.031,1.856,1.856,0,0,0-2.973-.012A3.691,3.691,0,0,0,67.891,43.859ZM80.2,45.7a.861.861,0,0,0-.418-.773,4.445,4.445,0,0,0-1.387-.469,7.129,7.129,0,0,1-1.617-.516,2.158,2.158,0,0,1-1.422-1.992,2.25,2.25,0,0,1,.922-1.828,3.644,3.644,0,0,1,2.344-.734,3.792,3.792,0,0,1,2.449.75A2.38,2.38,0,0,1,82,42.086H80.1a1.17,1.17,0,0,0-.406-.91,1.557,1.557,0,0,0-1.078-.363,1.682,1.682,0,0,0-1.02.289.911.911,0,0,0-.395.773.769.769,0,0,0,.367.68,5.049,5.049,0,0,0,1.484.488,7.027,7.027,0,0,1,1.754.586,2.484,2.484,0,0,1,.945.816,2.082,2.082,0,0,1,.309,1.156,2.2,2.2,0,0,1-.945,1.848,4.031,4.031,0,0,1-2.477.707,4.371,4.371,0,0,1-1.852-.375,3.047,3.047,0,0,1-1.266-1.031,2.441,2.441,0,0,1-.453-1.414h1.844a1.338,1.338,0,0,0,.508,1.035,1.973,1.973,0,0,0,1.242.363,1.92,1.92,0,0,0,1.141-.285A.883.883,0,0,0,80.2,45.7ZM-44.156,67.711a5.026,5.026,0,0,1,.906-3.137,2.9,2.9,0,0,1,2.43-1.184,2.759,2.759,0,0,1,2.172.938V60h1.9V72h-1.719l-.094-.875a2.8,2.8,0,0,1-2.273,1.031,2.887,2.887,0,0,1-2.4-1.2A5.21,5.21,0,0,1-44.156,67.711Zm1.9.164a3.519,3.519,0,0,0,.5,2.012,1.61,1.61,0,0,0,1.41.723,1.793,1.793,0,0,0,1.7-1.039V65.961a1.766,1.766,0,0,0-1.687-1.016,1.622,1.622,0,0,0-1.422.73A3.919,3.919,0,0,0-42.258,67.875Zm11.211,4.281a3.928,3.928,0,0,1-2.926-1.137,4.124,4.124,0,0,1-1.121-3.027v-.234a5.072,5.072,0,0,1,.488-2.262,3.716,3.716,0,0,1,1.371-1.551,3.625,3.625,0,0,1,1.969-.555,3.318,3.318,0,0,1,2.668,1.1,4.658,4.658,0,0,1,.941,3.117v.766H-33.18a2.539,2.539,0,0,0,.7,1.656,2.1,2.1,0,0,0,1.543.609,2.571,2.571,0,0,0,2.125-1.055l1.023.977a3.418,3.418,0,0,1-1.355,1.176A4.244,4.244,0,0,1-31.047,72.156Zm-.227-7.242a1.6,1.6,0,0,0-1.262.547,2.835,2.835,0,0,0-.613,1.523h3.617v-.141a2.307,2.307,0,0,0-.508-1.441A1.586,1.586,0,0,0-31.273,64.914Zm12.8,7.242A3.928,3.928,0,0,1-21.4,71.02a4.124,4.124,0,0,1-1.121-3.027v-.234a5.072,5.072,0,0,1,.488-2.262,3.716,3.716,0,0,1,1.371-1.551,3.625,3.625,0,0,1,1.969-.555,3.318,3.318,0,0,1,2.668,1.1,4.658,4.658,0,0,1,.941,3.117v.766h-5.523a2.539,2.539,0,0,0,.7,1.656,2.1,2.1,0,0,0,1.543.609,2.571,2.571,0,0,0,2.125-1.055l1.023.977a3.418,3.418,0,0,1-1.355,1.176A4.244,4.244,0,0,1-18.477,72.156Zm-.227-7.242a1.6,1.6,0,0,0-1.262.547,2.835,2.835,0,0,0-.613,1.523h3.617v-.141a2.307,2.307,0,0,0-.508-1.441A1.586,1.586,0,0,0-18.7,64.914ZM-8.875,69.7a.861.861,0,0,0-.418-.773,4.445,4.445,0,0,0-1.387-.469,7.128,7.128,0,0,1-1.617-.516,2.158,2.158,0,0,1-1.422-1.992,2.25,2.25,0,0,1,.922-1.828,3.644,3.644,0,0,1,2.344-.734A3.792,3.792,0,0,1-8,64.141a2.38,2.38,0,0,1,.934,1.945h-1.9a1.17,1.17,0,0,0-.406-.91,1.557,1.557,0,0,0-1.078-.363,1.682,1.682,0,0,0-1.02.289.911.911,0,0,0-.395.773.769.769,0,0,0,.367.68,5.049,5.049,0,0,0,1.484.488,7.027,7.027,0,0,1,1.754.586,2.484,2.484,0,0,1,.945.816A2.082,2.082,0,0,1-7.008,69.6a2.2,2.2,0,0,1-.945,1.848,4.031,4.031,0,0,1-2.477.707,4.371,4.371,0,0,1-1.852-.375,3.047,3.047,0,0,1-1.266-1.031A2.441,2.441,0,0,1-14,69.336h1.844a1.338,1.338,0,0,0,.508,1.035,1.973,1.973,0,0,0,1.242.363,1.92,1.92,0,0,0,1.141-.285A.883.883,0,0,0-8.875,69.7Zm6.992.938A1.717,1.717,0,0,0-.7,70.227,1.415,1.415,0,0,0-.2,69.2H1.586a2.789,2.789,0,0,1-.492,1.473,3.228,3.228,0,0,1-1.25,1.082,3.725,3.725,0,0,1-1.7.4,3.6,3.6,0,0,1-2.812-1.148,4.555,4.555,0,0,1-1.039-3.172v-.2a4.479,4.479,0,0,1,1.031-3.09,3.571,3.571,0,0,1,2.813-1.16A3.473,3.473,0,0,1,.59,64.27a3.148,3.148,0,0,1,1,2.309H-.2a1.738,1.738,0,0,0-.5-1.2,1.6,1.6,0,0,0-1.184-.469,1.671,1.671,0,0,0-1.422.668,3.408,3.408,0,0,0-.508,2.027v.3a3.465,3.465,0,0,0,.5,2.051A1.669,1.669,0,0,0-1.883,70.641Zm9.328-5.359a4.7,4.7,0,0,0-.773-.062,1.741,1.741,0,0,0-1.758,1V72h-1.9V63.547H4.828l.047.945a2.139,2.139,0,0,1,1.906-1.1,1.777,1.777,0,0,1,.672.109ZM10.664,72h-1.9V63.547h1.9ZM8.648,61.344a1.02,1.02,0,0,1,.277-.732,1.043,1.043,0,0,1,.793-.291,1.056,1.056,0,0,1,.8.291,1.012,1.012,0,0,1,.281.732.988.988,0,0,1-.281.72,1.064,1.064,0,0,1-.8.287,1.051,1.051,0,0,1-.793-.287A1,1,0,0,1,8.648,61.344Zm6.461.148v2.055H16.6v1.406H15.109v4.719a1.039,1.039,0,0,0,.191.7.888.888,0,0,0,.684.215,2.924,2.924,0,0,0,.664-.078v1.469a4.676,4.676,0,0,1-1.25.18q-2.187,0-2.187-2.414V64.953H11.82V63.547h1.391V61.492Zm2.352,6.2a4.984,4.984,0,0,1,.492-2.238,3.6,3.6,0,0,1,1.383-1.531,3.9,3.9,0,0,1,2.047-.535,3.692,3.692,0,0,1,2.777,1.1,4.333,4.333,0,0,1,1.152,2.922l.008.445a5.029,5.029,0,0,1-.48,2.234,3.551,3.551,0,0,1-1.375,1.523,3.925,3.925,0,0,1-2.066.539,3.667,3.667,0,0,1-2.863-1.191,4.563,4.563,0,0,1-1.074-3.176Zm1.9.164A3.406,3.406,0,0,0,19.9,69.9a1.752,1.752,0,0,0,1.5.738,1.733,1.733,0,0,0,1.5-.75,3.762,3.762,0,0,0,.535-2.2,3.362,3.362,0,0,0-.551-2.031,1.856,1.856,0,0,0-2.973-.012A3.691,3.691,0,0,0,19.359,67.859Zm11.992-2.578a4.7,4.7,0,0,0-.773-.062,1.741,1.741,0,0,0-1.758,1V72h-1.9V63.547h1.813l.047.945a2.139,2.139,0,0,1,1.906-1.1,1.777,1.777,0,0,1,.672.109ZM34.57,72h-1.9V63.547h1.9ZM32.555,61.344a1.02,1.02,0,0,1,.277-.732,1.043,1.043,0,0,1,.793-.291,1.056,1.056,0,0,1,.8.291,1.012,1.012,0,0,1,.281.732.988.988,0,0,1-.281.72,1.064,1.064,0,0,1-.8.287,1.051,1.051,0,0,1-.793-.287A1,1,0,0,1,32.555,61.344ZM36.281,67.7a4.984,4.984,0,0,1,.492-2.238,3.6,3.6,0,0,1,1.383-1.531,3.9,3.9,0,0,1,2.047-.535,3.692,3.692,0,0,1,2.777,1.1,4.333,4.333,0,0,1,1.152,2.922l.008.445a5.029,5.029,0,0,1-.48,2.234,3.551,3.551,0,0,1-1.375,1.523,3.925,3.925,0,0,1-2.066.539,3.667,3.667,0,0,1-2.863-1.191,4.563,4.563,0,0,1-1.074-3.176Zm1.9.164a3.406,3.406,0,0,0,.539,2.043,1.752,1.752,0,0,0,1.5.738,1.733,1.733,0,0,0,1.5-.75,3.762,3.762,0,0,0,.535-2.2,3.362,3.362,0,0,0-.551-2.031,1.856,1.856,0,0,0-2.973-.012A3.691,3.691,0,0,0,38.18,67.859Z" transform="translate(800.471 3080)" fill="#263238"/>
      <path id="Trazado_828882" data-name="Trazado 828882" d="M-13.609-5.641l.617-5.734h6.109v1.641h-4.531l-.312,2.719a3.512,3.512,0,0,1,1.781-.453A3.169,3.169,0,0,1-7.418-6.43a4.118,4.118,0,0,1,.9,2.8,3.79,3.79,0,0,1-1,2.762A3.65,3.65,0,0,1-10.258.156a3.822,3.822,0,0,1-2.59-.887,3.206,3.206,0,0,1-1.113-2.34h1.836a2,2,0,0,0,.594,1.27,1.806,1.806,0,0,0,1.266.441A1.632,1.632,0,0,0-8.9-1.984a2.7,2.7,0,0,0,.488-1.7,2.384,2.384,0,0,0-.539-1.645,1.885,1.885,0,0,0-1.484-.605,2.469,2.469,0,0,0-.875.137,2.478,2.478,0,0,0-.781.535Zm16,.852a6.2,6.2,0,0,1-.918,3.7A3.242,3.242,0,0,1-1.32.156,3.285,3.285,0,0,1-4.1-1.059a5.94,5.94,0,0,1-.957-3.6V-6.625a6.11,6.11,0,0,1,.918-3.68,3.272,3.272,0,0,1,2.8-1.227,3.291,3.291,0,0,1,2.785,1.2,5.924,5.924,0,0,1,.941,3.578ZM.492-6.914A4.813,4.813,0,0,0,.055-9.262a1.493,1.493,0,0,0-1.391-.746A1.492,1.492,0,0,0-2.7-9.3a4.448,4.448,0,0,0-.461,2.207v2.578a4.937,4.937,0,0,0,.445,2.375,1.5,1.5,0,0,0,1.4.781A1.469,1.469,0,0,0,.031-2.082,4.645,4.645,0,0,0,.492-4.344Zm3.5-2.273a2.283,2.283,0,0,1,.664-1.691,2.363,2.363,0,0,1,1.742-.66,2.371,2.371,0,0,1,1.754.66,2.34,2.34,0,0,1,.66,1.73v.563a2.267,2.267,0,0,1-.66,1.68,2.358,2.358,0,0,1-1.738.656,2.433,2.433,0,0,1-1.738-.645,2.275,2.275,0,0,1-.684-1.738Zm1.328.6a1.253,1.253,0,0,0,.3.873,1.018,1.018,0,0,0,.793.333A1,1,0,0,0,7.2-7.716a1.31,1.31,0,0,0,.3-.9v-.572a1.268,1.268,0,0,0-.3-.877,1.012,1.012,0,0,0-.793-.337.983.983,0,0,0-.785.341,1.327,1.327,0,0,0-.293.9Zm4.141,5.8a2.236,2.236,0,0,1,.68-1.7,2.411,2.411,0,0,1,1.734-.648,2.407,2.407,0,0,1,1.738.648,2.312,2.312,0,0,1,.676,1.75v.555A2.285,2.285,0,0,1,13.637-.5a2.344,2.344,0,0,1-1.746.66A2.413,2.413,0,0,1,10.129-.5a2.3,2.3,0,0,1-.668-1.723Zm1.328.6a1.246,1.246,0,0,0,.309.871,1.023,1.023,0,0,0,.793.34.991.991,0,0,0,.785-.324,1.333,1.333,0,0,0,.285-.91V-2.8a1.235,1.235,0,0,0-.3-.875A1.019,1.019,0,0,0,11.875-4a1.015,1.015,0,0,0-.785.328,1.291,1.291,0,0,0-.3.906ZM6.8-.852l-.977-.562L11.383-10.3l.977.563Z" transform="translate(912.471 3206)" fill="#12263f"/>
    </g>
  </g>
</svg>
