<svg xmlns="http://www.w3.org/2000/svg" width="266.326" height="218.049" viewBox="0 0 266.326 218.049">
  <g id="Grupo_1073768" data-name="Grupo 1073768" transform="translate(-216.7 -432.952)">
    <g id="Grupo_1075435" data-name="Grupo 1075435" transform="translate(16.5)">
      <g id="Grupo_1075429" data-name="Grupo 1075429" transform="translate(24.575 145)">
        <g id="_232_Convertido_" data-name="232 [Convertido]" transform="translate(178.425 292)">
          <g id="Capa_1" data-name="Capa 1" transform="translate(0 0)">
            <g id="Grupo_1075177" data-name="Grupo 1075177">
              <path id="Trazado_823479" data-name="Trazado 823479" d="M0,0H260" transform="translate(0 170.028)" fill="#b5d6ea" stroke="#b5d6ea" stroke-linecap="round" stroke-width="5.6"/>
              <g id="Grupo_1075171" data-name="Grupo 1075171" transform="translate(152.719 17.087)">
                <line id="Línea_3749" data-name="Línea 3749" x2="73.744" fill="none" stroke="#b5d6ea" stroke-linecap="round" stroke-linejoin="round" stroke-width="5.6"/>
                <line id="Línea_3750" data-name="Línea 3750" x2="69.576" transform="translate(9.165 11.164)" fill="none" stroke="#b5d6ea" stroke-linecap="round" stroke-linejoin="round" stroke-width="5.6"/>
                <line id="Línea_3751" data-name="Línea 3751" x2="55.48" transform="translate(4.284 22.327)" fill="none" stroke="#b5d6ea" stroke-linecap="round" stroke-linejoin="round" stroke-width="5.6"/>
                <line id="Línea_3752" data-name="Línea 3752" y2="11.164" transform="translate(19.45)" fill="none" stroke="#b5d6ea" stroke-linecap="round" stroke-linejoin="round" stroke-width="5.6"/>
                <line id="Línea_3753" data-name="Línea 3753" y2="11.163" transform="translate(35.632 11.164)" fill="none" stroke="#b5d6ea" stroke-linecap="round" stroke-linejoin="round" stroke-width="5.6"/>
                <line id="Línea_3754" data-name="Línea 3754" y2="11.164" transform="translate(57.058)" fill="none" stroke="#b5d6ea" stroke-linecap="round" stroke-linejoin="round" stroke-width="5.6"/>
              </g>
              <g id="Grupo_1075172" data-name="Grupo 1075172" transform="translate(194.232 66.277)">
                <line id="Línea_3755" data-name="Línea 3755" x2="66.494" transform="translate(0 22.327)" fill="none" stroke="#b5d6ea" stroke-linecap="round" stroke-linejoin="round" stroke-width="5.6"/>
                <line id="Línea_3756" data-name="Línea 3756" y2="11.163" transform="translate(16.544 11.164)" fill="none" stroke="#b5d6ea" stroke-linecap="round" stroke-linejoin="round" stroke-width="5.6"/>
                <line id="Línea_3757" data-name="Línea 3757" y2="11.164" transform="translate(41.047 22.327)" fill="none" stroke="#b5d6ea" stroke-linecap="round" stroke-linejoin="round" stroke-width="5.6"/>
                <line id="Línea_3758" data-name="Línea 3758" x2="55.48" transform="translate(4.986 11.164)" fill="none" stroke="#b5d6ea" stroke-linecap="round" stroke-linejoin="round" stroke-width="5.6"/>
                <line id="Línea_3759" data-name="Línea 3759" y2="11.164" transform="translate(29.118)" fill="none" stroke="#b5d6ea" stroke-linecap="round" stroke-linejoin="round" stroke-width="5.6"/>
                <line id="Línea_3760" data-name="Línea 3760" y2="11.163" transform="translate(54.152 11.164)" fill="none" stroke="#b5d6ea" stroke-linecap="round" stroke-linejoin="round" stroke-width="5.6"/>
              </g>
              <g id="Grupo_1075174" data-name="Grupo 1075174" transform="translate(177.736 82.246)">
                <path id="Trazado_822795" data-name="Trazado 822795" d="M1762.211,1330.95c-1.617-2.007-25.978-2.007-27.594,0a15.3,15.3,0,0,0-2.259,11.373,30.537,30.537,0,0,0,3.261,8.277c1.5,2.759,2.843,5.435,4.182,8.278,1,2.091,2.174,3.6,4.6,3.679h8.027c2.424-.083,3.6-1.588,4.6-3.679,1.338-2.843,2.675-5.52,4.18-8.278a30.434,30.434,0,0,0,3.261-8.277A15.3,15.3,0,0,0,1762.211,1330.95Z" transform="translate(-1714.167 -1265.315)" fill="#a6cae1"/>
                <g id="Grupo_1075173" data-name="Grupo 1075173" transform="translate(0)">
                  <path id="Trazado_822796" data-name="Trazado 822796" d="M1632.617,1018.672c-.746-2.233-.714-4.567-.939-6.89-.272-2.784-1.448-5.576-2.353-8.2a65.559,65.559,0,0,0-6.226-13.9,51.33,51.33,0,0,0-8.99-10.463c-3.794-3.448-8.084-6.42-10.608-11.011-.2-.368-1.058-.022-.824.4,2.177,3.957,5.691,6.823,9.08,9.7a55.2,55.2,0,0,1,10.1,11.134c2.989,4.41,4.811,9.382,6.567,14.376a53.919,53.919,0,0,1,2.246,7.429c.5,2.574.2,5.142,1.047,7.664.144.428,1.042.18.9-.24h0Z" transform="translate(-1600.366 -947.571)" fill="#a6cae1"/>
                  <path id="Trazado_822797" data-name="Trazado 822797" d="M1598.845,947.859c-1.71.621-4.665,2.022-6.531,1.087-2.332-1.243-1.4-4.509-2.954-6.531-1.866-2.022-4.354-2.176-5.287-5.287-.622-2.488.156-4.82.466-7.309,1.4,3.11,2.332,3.578,5.442,4.354,3.422.778,3.422,2.178,4.821,4.976,1.4,2.488,7.929,5.131,4.354,8.708Z" transform="translate(-1583.839 -913.958)" fill="#b5d6ea"/>
                  <path id="Trazado_822798" data-name="Trazado 822798" d="M1718.221,890.263c2.7-5.585,2.22-12.183,2.46-18.219.273-6.9.531-13.746-.324-20.618-1.754-14.1-10.793-24.472-18.957-35.432-.15-.2-1.016.1-.844.326,4.125,5.535,8.562,10.846,12.187,16.738a47.622,47.622,0,0,1,6.713,18.61,105.318,105.318,0,0,1,.354,19.968c-.337,6.236.312,12.983-2.484,18.766-.094.194.773.111.894-.14h0Z" transform="translate(-1686.44 -813.823)" fill="#a6cae1"/>
                  <path id="Trazado_822799" data-name="Trazado 822799" d="M1696.619,825.393c.778-2.176,2.954-5.6,2.8-8.086-.31-3.422-5.132-3.576-6.22-6.842-1.09-3.576.466-7.463-4.354-8.241-.622-.156-1.866.31-2.332,0-.778-.466-.623-1.4-1.4-2.178-1.4-1.243-2.8-1.4-4.666-1.4-1.088,0-2.176-.156-3.266-.156a53.863,53.863,0,0,0,2.954,8.4c1.4,3.109,4.665,5.131,6.064,8.4.466,1.4.312,3.11,1.088,4.354.778,1.4,2.644,2.022,3.888,2.8,1.09.621,4.841,2.643,5.442,2.953h0Z" transform="translate(-1665.906 -798.49)" fill="#b5d6ea"/>
                  <path id="Trazado_822800" data-name="Trazado 822800" d="M1865.35,1135.475c.859-7.323,2.127-14.629,4.866-21.509,2.831-7.108,8.123-14.719,15.6-17.418.6-.218.031-.332-.312-.207-7.153,2.584-12.264,9.272-15.379,15.941-3.416,7.315-4.742,15.482-5.673,23.437-.015.116.868.033.9-.242h0Z" transform="translate(-1830.556 -1060.32)" fill="#a6cae1"/>
                  <path id="Trazado_822801" data-name="Trazado 822801" d="M1926.748,1080.393c-3.533.289-3.407,3-5.891,4.438-1.6.966-2.2-.094-3.236,2.084a19.641,19.641,0,0,0-1.65,4.121c-.228,1.222-.327,4.969.266,6.028,4.7,2.777,5.851-1.881,7.73-5.168,1.221-2.3,3.771-3.25,4.992-5.554,1.556-2.4,2.3-3.841,5.308-4.7a15.836,15.836,0,0,0-7.519-1.246Z" transform="translate(-1875.699 -1046.292)" fill="#b5d6ea"/>
                  <path id="Trazado_822802" data-name="Trazado 822802" d="M1593.243,953.762c.612,2.11,3.263,3.2,4.9,4.389a30.812,30.812,0,0,1,3.966,3.628c.806.833,3.256,3.086,3.256,4.325,0,.441.908.28.908-.085,0-.742-.887-1.624-1.292-2.2a28.818,28.818,0,0,0-3.73-4.1,29.49,29.49,0,0,0-3.034-2.518c-1.419-1.027-3.549-1.864-4.078-3.689-.111-.38-1.011-.135-.9.242h0Z" transform="translate(-1592.099 -934.629)" fill="#fffdf0"/>
                  <path id="Trazado_822803" data-name="Trazado 822803" d="M1651.011,1055.1a10.964,10.964,0,0,1,2.583-.123.877.877,0,0,0,.637-.17c.145-.115.106-.248-.074-.277a11.612,11.612,0,0,0-2.781.11.853.853,0,0,0-.6.235c-.129.163.109.236.233.225h0Z" transform="translate(-1642.66 -1023.552)" fill="#fffdf0"/>
                  <path id="Trazado_822804" data-name="Trazado 822804" d="M1636.035,1030.888a5.286,5.286,0,0,1,2.515.192c.194.06.983-.256.745-.331a6.434,6.434,0,0,0-3.082-.158c-.344.063-.813.412-.176.3h0Z" transform="translate(-1629.454 -1002.456)" fill="#fffdf0"/>
                  <path id="Trazado_822805" data-name="Trazado 822805" d="M1619.1,1009.076a3.2,3.2,0,0,1,2.221.149c.414.124,1.063-.475.511-.64a4.276,4.276,0,0,0-3.144-.083c-.546.279-.058.815.411.575h0Z" transform="translate(-1614.264 -982.896)" fill="#fffdf0"/>
                  <path id="Trazado_822806" data-name="Trazado 822806" d="M1595.729,988.076a10.693,10.693,0,0,1,2.8.64,1.142,1.142,0,0,0,.629-.122c.065-.029.314-.171.116-.213a11.43,11.43,0,0,0-3.147-.643c-.22.017-.99.382-.4.336h0Z" transform="translate(-1594.1 -964.872)" fill="#fffdf0"/>
                  <path id="Trazado_822807" data-name="Trazado 822807" d="M1688.968,811.653a109.858,109.858,0,0,0,7.275,10.988c1.5,1.872,3.033,3.723,4.563,5.573,1.556,1.883,2.7,4.062,4.256,5.95.2.24,1.064-.078.837-.354-1.385-1.678-2.5-3.546-3.764-5.311-1.376-1.915-3.006-3.68-4.493-5.512-1.465-1.806-2.97-3.6-4.249-5.546-1.3-1.98-2.331-4.131-3.587-6.139-.159-.255-1.035.035-.837.353h0Z" transform="translate(-1676.245 -809.667)" fill="#fffdf0"/>
                  <path id="Trazado_822808" data-name="Trazado 822808" d="M1723.15,814.373c.64,2.01.5,4.112.757,6.182.028.226.936.036.9-.242-.259-2.069-.117-4.172-.759-6.18-.08-.252-.975,0-.9.24h0Z" transform="translate(-1706.318 -812.152)" fill="#fffdf0"/>
                  <path id="Trazado_822809" data-name="Trazado 822809" d="M1754.006,842.849c.483,1.727.135,3.512.109,5.272-.007.5.911.382.917-.057.026-1.824.377-3.667-.125-5.458-.124-.444-1.024-.2-.9.242h0Z" transform="translate(-1733.442 -837.07)" fill="#fffdf0"/>
                  <path id="Trazado_822810" data-name="Trazado 822810" d="M1778.57,861.057c-.121,2.488-.283,4.974-.35,7.463,0,.138.895.019.9-.242.068-2.489.229-4.976.35-7.464.006-.132-.889-.022-.9.242h0Z" transform="translate(-1754.742 -853.237)" fill="#fffdf0"/>
                  <path id="Trazado_822811" data-name="Trazado 822811" d="M1806.506,915.52a13.856,13.856,0,0,1-.354,4.818c-.082.425.838.3.911-.08a14.247,14.247,0,0,0,.346-4.979c-.063-.391-.968-.167-.9.24h0Z" transform="translate(-1779.296 -900.994)" fill="#fffdf0"/>
                  <path id="Trazado_822812" data-name="Trazado 822812" d="M1822.862,937.735c.321,1.7-.775,3.427-1.224,5.013-.086.307.818.173.9-.118.461-1.639,1.558-3.377,1.225-5.133-.056-.294-.96-.074-.9.24h0Z" transform="translate(-1792.911 -920.585)" fill="#fffdf0"/>
                  <path id="Trazado_822813" data-name="Trazado 822813" d="M1921.8,1103.847c1-2.809,2.034-5.551,4.09-7.775a20.548,20.548,0,0,1,8.881-5.511c.544-.162.4-.722-.148-.558a21.934,21.934,0,0,0-8.347,4.762c-2.737,2.528-4.1,5.54-5.328,9.008-.166.47.733.412.854.074h0Z" transform="translate(-1880.208 -1054.767)" fill="#fffdf0"/>
                  <path id="Trazado_822814" data-name="Trazado 822814" d="M1936.467,1179.177a10.748,10.748,0,0,1,2.581-.929c.55-.117.427-.536-.112-.422a12.741,12.741,0,0,0-3.021,1.109c-.121.06-.274.249-.085.332a.8.8,0,0,0,.637-.09h0Z" transform="translate(-1893.238 -1131.992)" fill="#fffdf0"/>
                  <path id="Trazado_822815" data-name="Trazado 822815" d="M1949.45,1156.786a9.366,9.366,0,0,1,3-.632c.383-.05.789-.459.156-.376a11.392,11.392,0,0,0-3.684.85c-.537.267.3.272.53.157Z" transform="translate(-1904.668 -1112.615)" fill="#fffdf0"/>
                  <path id="Trazado_822816" data-name="Trazado 822816" d="M1968.659,1131.111a8.831,8.831,0,0,1,3.787-.845c.481-.022.72-.61.1-.582a10.035,10.035,0,0,0-4.266.974c-.547.289-.047.678.378.453h0Z" transform="translate(-1921.635 -1089.68)" fill="#fffdf0"/>
                  <path id="Trazado_822817" data-name="Trazado 822817" d="M1994.185,1111.644c.651-.722,1.993-.436,2.812-.194.349.1,1.065-.406.531-.563-1.279-.378-3.1-.564-4.086.535-.373.414.5.493.743.222Z" transform="translate(-1943.889 -1072.896)" fill="#fffdf0"/>
                </g>
              </g>
              <g id="Grupo_1075176" data-name="Grupo 1075176">
                <path id="Trazado_822818" data-name="Trazado 822818" d="M152.526,274.447l68.347,4.155L217.757,151.88l-72.087,7.687Z" transform="translate(-141.639 -147.734)" fill="#dfecf4"/>
                <path id="Trazado_822819" data-name="Trazado 822819" d="M222.512,370.491c-.016,0-.031,0-.047.006a2.279,2.279,0,0,0,.047-.457,2.236,2.236,0,0,0-1.855-2.2,3.067,3.067,0,0,0-3.865-2.753,4.585,4.585,0,0,0-8.774,1.586,1.762,1.762,0,0,0-.387-.045,1.7,1.7,0,0,0-1.655,1.3,2.23,2.23,0,0,0-2.954,2.115,2.284,2.284,0,0,0,.047.457c-.016,0-.03-.006-.047-.006a1.423,1.423,0,0,0,0,2.846H222.51a1.423,1.423,0,0,0,0-2.846Z" transform="translate(-190.814 -332.782)" fill="#fff"/>
                <path id="Trazado_822820" data-name="Trazado 822820" d="M413.179,636.362c-.016,0-.03,0-.046,0a2.263,2.263,0,0,0,.046-.457,2.236,2.236,0,0,0-1.855-2.2,3.076,3.076,0,0,0-3.068-2.86,3.027,3.027,0,0,0-.795.109,4.585,4.585,0,0,0-8.774,1.586,1.7,1.7,0,0,0-2.041,1.251,2.23,2.23,0,0,0-2.954,2.115,2.193,2.193,0,0,0,.047.457c-.016,0-.03,0-.047,0a1.422,1.422,0,1,0,0,2.843h19.487a1.422,1.422,0,0,0,0-2.843Z" transform="translate(-358.454 -566.54)" fill="#fff"/>
                <path id="Trazado_822821" data-name="Trazado 822821" d="M511.508,364.99a13.4,13.4,0,1,1-13.4-13.4A13.4,13.4,0,0,1,511.508,364.99Z" transform="translate(-439.729 -323.322)" fill="#fff"/>
                <g id="Grupo_1075175" data-name="Grupo 1075175" transform="translate(10.055 73.003)">
                  <rect id="Rectángulo_376543" data-name="Rectángulo 376543" width="6.382" height="54.256" fill="#fff"/>
                  <rect id="Rectángulo_376544" data-name="Rectángulo 376544" width="20.643" height="39.055" transform="translate(2.815 15.201)" fill="#fff"/>
                  <rect id="Rectángulo_376545" data-name="Rectángulo 376545" width="20.643" height="30.122" transform="translate(26.274 24.134)" fill="#fff"/>
                  <rect id="Rectángulo_376546" data-name="Rectángulo 376546" width="20.643" height="41.052" transform="translate(37.346 13.205)" fill="#fff"/>
                  <rect id="Rectángulo_376547" data-name="Rectángulo 376547" width="5.818" height="50.845" transform="translate(45.416 3.411)" fill="#fff"/>
                  <rect id="Rectángulo_376548" data-name="Rectángulo 376548" width="11.261" height="55.467" transform="translate(56.676 1.1)" fill="#fff"/>
                  <rect id="Rectángulo_376549" data-name="Rectángulo 376549" width="7.037" height="44.792" transform="translate(21.488 9.463)" fill="#fff"/>
                </g>
                <path id="Trazado_822822" data-name="Trazado 822822" d="M191.524,117.55,112.3,125.522,120,246.9l75.586,5L191.523,117.55Zm-34.987,50.217,30.18-3.036,1.162,38.417-30.18,3.038-1.162-38.419Zm-5.054,39.044-27.6,2.778L121.449,171.3l28.871-2.9,1.162,38.417Zm35.044-48.326-30.179,3.036-1.03-34.063,30.179-3.039,1.03,34.064Zm-37.425-30.4,1.029,34.064-29.077,2.925L118.9,131.122Zm-24.829,87.729,27.4-2.756.9,29.75-26.7-1.766Zm34.545,27.407-.931-30.79,30.179-3.036,1.083,35.834Z" transform="translate(-112.3 -117.55)" fill="#b5d6ea"/>
              </g>
            </g>
          </g>
        </g>
      </g>
      <g id="Grupo_1075445" data-name="Grupo 1075445" transform="translate(33.902 114.721)">
        <g id="_232_Convertido_2" data-name="232 [Convertido]" transform="translate(234.184 318.231)">
          <g id="Capa_1-2" data-name="Capa 1" transform="translate(0 0)">
            <g id="Grupo_1075205" data-name="Grupo 1075205" transform="translate(3.451 0)">
              <path id="Trazado_822823" data-name="Trazado 822823" d="M734.855,530.913c7.622-10.88,21.271-26.511,15.366-43-8.181-22.825-4.709-20.5-5.474-32.441s-6.32-18.1-11.5-16.416c-12.924,4.186-10.716,8.47-25.578,8.542-14.857-.072-12.647-4.356-25.567-8.542-5.187-1.68-10.747,4.467-11.506,16.416s2.707,9.617-5.469,32.441c-5.911,16.487,2.932,28.848,10.555,39.727l59.174,3.269Z" transform="translate(-646.777 -422.112)" fill="#394045"/>
              <path id="Trazado_822824" data-name="Trazado 822824" d="M776.435,414.224a3.862,3.862,0,0,1,.061-.816,49.289,49.289,0,0,0-4.17-16.26c-1.807-3.8-6.193-9.018-10.772-10.7-8.21-3.011-8.9,1.412-13.986.418-2.449-6.53-16.838-6.258-26.151-1.492s-11.681,10.776-13.186,19.551c-1.056,6.153-2.475,12.2-3.819,18.307a191.707,191.707,0,0,0-4.2,39.341c-.021,1.47.081,3.625.257,6.215a9.058,9.058,0,0,1,5.137,4.728c4.186,9.665,12.351,16.975,14.459,27.609.136-.182.268-.364.4-.548,1.283-3.585,2.163-7.257,3.129-11.013,1.167-4.52,27.242-11.767,27.242-11.767,10.179-5.474,17.026-16.987,21.145-29.316a95.86,95.86,0,0,0,4.452-34.259Z" transform="translate(-678.653 -373.1)" fill="#633429"/>
              <path id="Trazado_822825" data-name="Trazado 822825" d="M552.334,1148.328a7.345,7.345,0,0,0,5.775-2.634c9.882-12.2,41.421-53.436,32.259-71.6-.961-1.906-2.128-2.836-3.568-2.836-3.43,0-8.684,4.969-14.4,13.632-9.372,14.2-25.315,44.1-27.263,54.139a7.83,7.83,0,0,0,1.373,6.721,7.612,7.612,0,0,0,5.821,2.575h0Z" transform="translate(-544.933 -966.782)" fill="#9a9ba0"/>
              <g id="Grupo_1075181" data-name="Grupo 1075181" transform="translate(51.938 104.437)">
                <path id="Trazado_822826" data-name="Trazado 822826" d="M1148.151,1144.018a7.342,7.342,0,0,1-6.017-2.014c-11.113-11.1-46.8-48.807-39.588-67.826.759-2,1.821-3.04,3.25-3.193,3.411-.357,9.157,4.033,15.747,12.046,10.812,13.136,29.8,41.2,32.787,50.983a7.814,7.814,0,0,1-.665,6.832,7.608,7.608,0,0,1-5.513,3.171h0Z" transform="translate(-1076.25 -1070.965)" fill="#9a9ba0"/>
                <path id="Trazado_822827" data-name="Trazado 822827" d="M1090.2,1496.447a9.824,9.824,0,0,1,2.144,2.832,6.9,6.9,0,0,1-1.58,7.9c-6.813,6.7-17.433,12.991-29.905,17.724-14.383,5.459-18.357,6.316-22.564,7.221-1.524.328-3.1.667-5.187,1.234-1.2.328-2.178.439-3-1.288l-.105-.221c-.734-1.722.06-2.341,17.076-13.287,2.209-1.419,4.678-3.008,7.436-4.784,3.944-2.55,7.758-5.478,11.451-8.315,10.007-7.688,18.65-14.331,24.239-9.023Z" transform="translate(-1014.446 -1435.731)" fill="#9a9ba0"/>
                <g id="Grupo_1075180" data-name="Grupo 1075180" transform="translate(0 87.878)">
                  <g id="Grupo_1075179" data-name="Grupo 1075179">
                    <g id="Grupo_1075178" data-name="Grupo 1075178" transform="translate(0 5.122)">
                      <path id="Trazado_822828" data-name="Trazado 822828" d="M944.905,1805.634a1.852,1.852,0,0,0-1.277,2.073h0a1.471,1.471,0,0,0,2.017.908l4.885-1.73a1.858,1.858,0,0,0,1.277-2.073h0a1.47,1.47,0,0,0-2.017-.908l-4.885,1.731Z" transform="translate(-940.179 -1795.057)" fill="#f7b284"/>
                      <path id="Trazado_822829" data-name="Trazado 822829" d="M930.417,1787.4a1.863,1.863,0,0,0-1.277,2.073h0a1.467,1.467,0,0,0,2.013.908l4.89-1.727a1.858,1.858,0,0,0,1.277-2.077h0a1.468,1.468,0,0,0-2.013-.908Z" transform="translate(-927.704 -1779.352)" fill="#f7b284"/>
                      <path id="Trazado_822830" data-name="Trazado 822830" d="M920.365,1767.625a1.849,1.849,0,0,0-1.277,2.073h0a1.466,1.466,0,0,0,2.013.905l4.89-1.728a1.865,1.865,0,0,0,1.277-2.073h0a1.469,1.469,0,0,0-2.017-.908Z" transform="translate(-919.046 -1762.324)" fill="#f7b284"/>
                      <path id="Trazado_822831" data-name="Trazado 822831" d="M924.847,1742.7a1.867,1.867,0,0,0-1.277,2.074h0a1.469,1.469,0,0,0,2.017.908l4.884-1.73a1.851,1.851,0,0,0,1.279-2.073h0a1.469,1.469,0,0,0-2.017-.905l-4.885,1.727Z" transform="translate(-922.907 -1740.862)" fill="#f7b284"/>
                    </g>
                    <path id="Trazado_822832" data-name="Trazado 822832" d="M986.776,1704.314a1.786,1.786,0,0,0-2.385.254h0a1.532,1.532,0,0,0-.1,2.246l3.39,2.963a1.792,1.792,0,0,0,2.391-.253h0a1.531,1.531,0,0,0,.1-2.249l-3.392-2.96Z" transform="translate(-974.85 -1703.965)" fill="#f7b284"/>
                  </g>
                  <path id="Trazado_822833" data-name="Trazado 822833" d="M959.875,1726.125c4.694-.794,8.985-1.07,8.97,2.886-.015,4.2-1.2,4.815-5.3,7.523-7.607,5.036-9.508,4.752-11-1.27S953.335,1727.233,959.875,1726.125Z" transform="translate(-947.522 -1722.631)" fill="#f7b284"/>
                </g>
              </g>
              <path id="Trazado_822834" data-name="Trazado 822834" d="M892.568,1044.472c-5.781-2.52-11.038-3.232-18.736-3.232s-13.1.74-18.982,3.343v32.825h37.718Z" transform="translate(-811.825 -940.93)" fill="#f7b284"/>
              <g id="Grupo_1075182" data-name="Grupo 1075182" transform="translate(56.476 123.392)">
                <path id="Trazado_822835" data-name="Trazado 822835" d="M997.1,1207.59c-5.2-.887-5.524,5.385-5.524,6.97,0,.226.005.357.005.357.186-7.057,5.518-7.329,5.518-7.329Z" transform="translate(-986.049 -1207.504)" fill="#e6986d"/>
                <path id="Trazado_822836" data-name="Trazado 822836" d="M957.26,1214.925s.01-.13.01-.357c0-1.585-.322-7.859-5.53-6.971,0,0,5.338.272,5.518,7.329Z" transform="translate(-951.74 -1207.511)" fill="#e6986d"/>
              </g>
              <path id="Trazado_822837" data-name="Trazado 822837" d="M737.54,1173.4h70.514c-7.783-18.587-14.287-38.243-4.809-63.234,10.033-16.519-1.378-34.221-1.378-34.221-2.822-3.622-8.442-6.85-6.927-16a44.375,44.375,0,0,0-4.789-1.959c-.307,11.374-3.482,22.5-17,23.434-.121.006-.236,0-.353,0s-.23,0-.347,0c-13.523-.938-16.7-12.062-17.005-23.434a44.487,44.487,0,0,0-4.79,1.959c1.515,9.147-4.1,12.375-6.922,16,0,0-11.41,17.7-1.378,34.221C751.828,1135.16,745.323,1154.815,737.54,1173.4Z" transform="translate(-710.8 -955.354)" fill="#787342"/>
              <path id="Trazado_822838" data-name="Trazado 822838" d="M829.94,1078.032c-.065,6.4,2.793,12.44,2.7,18.892-.086,5.98-.548,11.946-.911,17.913-.786,12.751-.926,25.445-.65,38.215.146,6.88.634,13.629,1.309,20.368h31.222c-.579-10.594.031-21.107.462-31.7.443-10.916.539-21.814,1.193-32.726.579-9.7.4-19.719,3.181-29.112a11.876,11.876,0,0,1,2.143-4.155,1.375,1.375,0,0,1-.006-.283,25.162,25.162,0,0,1,1.656-4.976c-1.731-2.459-2.938-5.645-2.134-10.5a44.369,44.369,0,0,0-4.79-1.959c-.307,11.374-3.482,22.5-17,23.434-.121.006-.236,0-.353,0s-.23,0-.347,0c-13.523-.938-16.7-12.061-17-23.434a44.394,44.394,0,0,0-4.79,1.959,13.762,13.762,0,0,1-1,8.577,10.327,10.327,0,0,1,5.121,9.489Z" transform="translate(-785.963 -955.372)" fill="#2a2a29"/>
              <path id="Trazado_822839" data-name="Trazado 822839" d="M737.54,1333.571h10.716c-2.491-2.4-.882-4.911,1.584-6.832,1.5-1.167,3.451-1.394,5.016-2.388,1.847-1.166-2.937-5.379-3.616-6.829-1.2-2.556,3.25-4.755,4.628-6.18,4.04-4.186-3.407-5.96-1.227-10.305,1.072-2.144,2.082-4.32.61-6.6a25.272,25.272,0,0,1-2.008-3.1,4.439,4.439,0,0,1-.065-4.29c.987-2.535-5.177-6.882-.4-8.96,1.75-.762,3.6-.857,5.434-1.34a21.431,21.431,0,0,0,6.465-3.089c-7.286,1.9-11.2,1.641-15.5-.815-3.411-1.949-6.958-6.074-7.829-9.551a45.888,45.888,0,0,1-1.177-19.307c-2.218,6.69-3.662,16.723,2.189,26.358,9.474,24.992,2.968,44.647-4.814,63.234Z" transform="translate(-710.8 -1115.524)" fill="#d1c9c6"/>
              <path id="Trazado_822840" data-name="Trazado 822840" d="M1062.06,1278.082c4.774,2.077-1.389,6.425-.4,8.96a4.435,4.435,0,0,1-.065,4.29,25.254,25.254,0,0,1-2.007,3.1c-1.479,2.284-.468,4.461.609,6.6,2.178,4.345-5.267,6.12-1.227,10.305,1.378,1.426,5.821,3.625,4.629,6.181-.684,1.449-5.464,5.663-3.622,6.829,1.57.994,3.522,1.221,5.021,2.388,2.466,1.922,4.076,4.427,1.58,6.832h10.716c-7.783-18.586-14.288-38.243-4.809-63.234,5.851-9.635,4.408-19.667,2.189-26.358a45.95,45.95,0,0,1-1.177,19.307c-.876,3.476-4.417,7.6-7.834,9.552-4.3,2.457-8.21,2.717-15.5.815a21.471,21.471,0,0,0,6.469,3.089c1.831.483,3.683.578,5.434,1.34Z" transform="translate(-980.02 -1115.523)" fill="#d1c9c6"/>
              <g id="Grupo_1075183" data-name="Grupo 1075183" transform="translate(56.478 153.015)">
                <path id="Trazado_822841" data-name="Trazado 822841" d="M951.75,1425.589c5.208.568,5.529-3.464,5.529-4.483a2.151,2.151,0,0,0-.01-.226c-.18,4.532-5.518,4.709-5.518,4.709Z" transform="translate(-951.75 -1420.88)" fill="#010000"/>
                <path id="Trazado_822842" data-name="Trazado 822842" d="M991.576,1420.88s-.006.082-.006.226c0,1.019.322,5.05,5.524,4.483C997.094,1425.589,991.761,1425.412,991.576,1420.88Z" transform="translate(-986.042 -1420.88)" fill="#010000"/>
              </g>
              <g id="Grupo_1075195" data-name="Grupo 1075195" transform="translate(20.989 10.267)">
                <g id="Grupo_1075184" data-name="Grupo 1075184" transform="translate(13.385 33.974)">
                  <path id="Trazado_822843" data-name="Trazado 822843" d="M796.453,637.384c-2.164.307-5.735,2.237-2.833,9.041,1.827,4.279,2.586,6.242,4.749,5.936s3.689-2.363,3.083-7.048-2.838-8.237-5-7.929Z" transform="translate(-792.529 -637.366)" fill="#efa57a"/>
                  <path id="Trazado_822844" data-name="Trazado 822844" d="M1130.729,637.384c-2.164-.308-4.4,3.242-5,7.929s.925,6.74,3.089,7.048,2.922-1.658,4.749-5.936c2.9-6.8-.669-8.734-2.832-9.041Z" transform="translate(-1079.354 -637.366)" fill="#efa57a"/>
                </g>
                <g id="Grupo_1075185" data-name="Grupo 1075185" transform="translate(29.254 49.549)">
                  <path id="Trazado_822845" data-name="Trazado 822845" d="M909.165,749.56l-2.326,42.562c0,4.651,5.273,8.424,11.778,8.424s11.778-3.773,11.778-8.424l-2.329-42.562h-18.9Z" transform="translate(-906.84 -749.56)" fill="#f7b284"/>
                  <path id="Trazado_822846" data-name="Trazado 822846" d="M928.248,779.019c3.587-.805,5.549,1.664,7.23,9.4l-2.123-38.86h-18.9l-1.474,27.024C915.208,777.85,919.474,780.986,928.248,779.019Z" transform="translate(-912.128 -749.56)" fill="#e7a175"/>
                </g>
                <path id="Trazado_822847" data-name="Trazado 822847" d="M843.914,431.38c-8.235,0-26.241,2.381-23.549,24,1.267,10.147,1.729,10.68,1.066,22.711-.579,10.562,15.184,24.528,22.483,24.528s23.064-13.966,22.484-24.528c-.665-12.031-.2-12.562,1.062-22.711C870.157,433.761,852.151,431.38,843.914,431.38Z" transform="translate(-802.882 -426.003)" fill="#f7b284"/>
                <g id="Grupo_1075188" data-name="Grupo 1075188" transform="translate(22.213 29.338)">
                  <g id="Grupo_1075186" data-name="Grupo 1075186">
                    <path id="Trazado_822848" data-name="Trazado 822848" d="M861.056,604.164c-1.766.45-4.045,1.58-4.916,3.305-.326.644,3.592-1.453,4.337-1.608,2.118-.444,3.723.777,5.781,1.009.82.093,1.252.3,1.735-.57.338-.609-.015-1.17-.961-1.548a11.224,11.224,0,0,0-5.977-.587Z" transform="translate(-856.121 -603.974)" fill="#3d231e"/>
                    <path id="Trazado_822849" data-name="Trazado 822849" d="M870.173,655.4A4.507,4.507,0,0,1,873,654.23a6.158,6.158,0,0,1,3.149,1.119,4.331,4.331,0,0,0-6.214-.691,5.571,5.571,0,0,1-2.7.15s1.519,1.567,2.933.593Z" transform="translate(-865.696 -646.759)" fill="#3d231e"/>
                  </g>
                  <g id="Grupo_1075187" data-name="Grupo 1075187" transform="translate(25.641)">
                    <path id="Trazado_822850" data-name="Trazado 822850" d="M1047.88,604.164c1.767.45,4.046,1.58,4.916,3.305.327.644-3.593-1.453-4.337-1.608-2.117-.444-3.722.777-5.781,1.009-.819.093-1.252.3-1.736-.57-.341-.609.016-1.17.961-1.548a11.221,11.221,0,0,1,5.977-.587Z" transform="translate(-1040.816 -603.974)" fill="#3d231e"/>
                    <path id="Trazado_822851" data-name="Trazado 822851" d="M1057.918,655.4a4.507,4.507,0,0,0-2.828-1.172,6.165,6.165,0,0,0-3.15,1.119,4.331,4.331,0,0,1,6.214-.691,5.575,5.575,0,0,0,2.7.15s-1.519,1.567-2.932.593Z" transform="translate(-1050.396 -646.759)" fill="#3d231e"/>
                  </g>
                </g>
                <g id="Grupo_1075189" data-name="Grupo 1075189" transform="translate(27.616 36.641)">
                  <path id="Trazado_822852" data-name="Trazado 822852" d="M899.11,660.348c0,2.078-.916,3.764-2.038,3.764s-2.032-1.685-2.032-3.764.911-3.768,2.032-3.768S899.11,658.265,899.11,660.348Z" transform="translate(-895.04 -656.58)" fill="#3d231e"/>
                  <path id="Trazado_822853" data-name="Trazado 822853" d="M1063.086,660.348c0,2.078-.915,3.764-2.038,3.764s-2.038-1.685-2.038-3.764.911-3.768,2.038-3.768S1063.086,658.265,1063.086,660.348Z" transform="translate(-1036.246 -656.58)" fill="#3d231e"/>
                </g>
                <g id="Grupo_1075190" data-name="Grupo 1075190" transform="translate(26.435 41.27)">
                  <path id="Trazado_822854" data-name="Trazado 822854" d="M892.647,691.722c0,.99-1.369,1.8-3.058,1.8s-3.058-.809-3.058-1.8,1.369-1.8,3.058-1.8S892.647,690.727,892.647,691.722Z" transform="translate(-886.53 -689.92)" fill="#f7b284"/>
                  <path id="Trazado_822855" data-name="Trazado 822855" d="M1058.889,691.722c0,.99-1.369,1.8-3.06,1.8s-3.06-.809-3.06-1.8,1.369-1.8,3.06-1.8S1058.889,690.727,1058.889,691.722Z" transform="translate(-1029.691 -689.92)" fill="#f7b284"/>
                </g>
                <g id="Grupo_1075193" data-name="Grupo 1075193" transform="translate(18.502 32.826)">
                  <path id="Trazado_822856" data-name="Trazado 822856" d="M873.3,630.148a42.871,42.871,0,0,1-4.322-.564.089.089,0,0,1,.006.015c-3.869-1.319-9.454.211-12.21,1.569l.006,0a8.539,8.539,0,0,1-2.958.637,7.069,7.069,0,0,0-3.129-.005c-.976.25-2.974-.632-2.974-.632v0c-2.761-1.361-8.352-2.889-12.22-1.565,0,0,.006-.019.006-.019a42.867,42.867,0,0,1-4.322.564c-1.1,0-2.339,2.335-1.54,3.454s1.252,3.5,1.826,4.762c.006.011.015.007.021.015.976,3.16,4.307,5.091,8.718,5.091,4.976,0,6.973-1.069,8.307-2.77a9.944,9.944,0,0,0,1.544-3.7v0c.01-.047.015-.1.025-.146.1-.514.548-2.243,2.088-2.243,1.806,0,2.269,2.4,2.269,2.4v0a9.871,9.871,0,0,0,1.545,3.7c1.334,1.7,3.325,2.77,8.3,2.77,4.433,0,7.773-1.944,8.734-5.121.573-1.262,1.026-3.632,1.827-4.746s-.448-3.454-1.544-3.454Zm-26.011,9.594c-.826,1.048-2.118,2.17-7.084,2.171h0c-3.054,0-5.484-1.013-6.671-2.781-1.011-1.5-1.062-3.48-.146-5.724.75-1.839,2.606-2.768,5.514-2.768a19.57,19.57,0,0,1,8.834,2.306,1.972,1.972,0,0,1,.9,1.484,8.462,8.462,0,0,1-1.344,5.312Zm23.67-.609c-1.187,1.767-3.622,2.781-6.671,2.781h0c-4.966,0-6.258-1.123-7.083-2.171a8.467,8.467,0,0,1-1.344-5.312,1.969,1.969,0,0,1,.9-1.484,19.58,19.58,0,0,1,8.835-2.306c2.909,0,4.765.93,5.514,2.768.911,2.243.861,4.222-.146,5.724Z" transform="translate(-829.392 -629.094)" fill="#242121"/>
                  <g id="Grupo_1075192" data-name="Grupo 1075192" transform="translate(3.351 1.547)">
                    <path id="Trazado_822857" data-name="Trazado 822857" d="M868.079,649.341c-.826,1.048-2.119,2.17-7.084,2.171h0c-3.054,0-5.484-1.014-6.671-2.781-1.011-1.5-1.062-3.48-.146-5.724.749-1.839,2.606-2.768,5.514-2.768a19.566,19.566,0,0,1,8.834,2.306,1.971,1.971,0,0,1,.9,1.484,8.463,8.463,0,0,1-1.344,5.311Zm23.67-.609c-1.187,1.767-3.622,2.781-6.671,2.781h0c-4.966,0-6.258-1.123-7.083-2.171a8.467,8.467,0,0,1-1.344-5.311,1.968,1.968,0,0,1,.9-1.484,19.578,19.578,0,0,1,8.835-2.306c2.909,0,4.765.93,5.514,2.768.911,2.244.861,4.222-.146,5.724Z" transform="translate(-853.526 -640.24)" fill="#fff" opacity="0.1"/>
                    <g id="Grupo_1075191" data-name="Grupo 1075191" transform="translate(0.012 0.008)" opacity="0.3">
                      <path id="Trazado_822858" data-name="Trazado 822858" d="M870.47,642.561l-8.08,8.706A6.383,6.383,0,0,0,865.2,653l8.778-9.458a21.717,21.717,0,0,0-3.511-.977Z" transform="translate(-861.171 -642.246)" fill="#fff"/>
                      <path id="Trazado_822859" data-name="Trazado 822859" d="M912.595,659.066a2.052,2.052,0,0,0-.734-1.366l-8.2,8.829c.167.006.332.019.508.019h0c.911,0,1.691-.036,2.375-.1l6.112-6.586a4.64,4.64,0,0,0-.06-.793Z" transform="translate(-896.712 -655.284)" fill="#fff"/>
                      <path id="Trazado_822860" data-name="Trazado 822860" d="M857.351,640.576l-3.517,3.791a6.571,6.571,0,0,0-.191,2.278l5.892-6.346A9.274,9.274,0,0,0,857.351,640.576Z" transform="translate(-853.613 -640.3)" fill="#fff"/>
                      <path id="Trazado_822861" data-name="Trazado 822861" d="M1086.54,665.04l-7.27,7.829h.211a11.364,11.364,0,0,0,2.928-.364l4.522-4.873a7.2,7.2,0,0,0-.392-2.593Z" transform="translate(-1047.942 -661.605)" fill="#fff"/>
                      <path id="Trazado_822862" data-name="Trazado 822862" d="M1024.886,642.571l-4.5,4.848a9.192,9.192,0,0,0,.418,1.626l6.531-7.035a21.849,21.849,0,0,0-2.45.561Z" transform="translate(-997.237 -641.773)" fill="#fff"/>
                      <path id="Trazado_822863" data-name="Trazado 822863" d="M1042.6,640.591l-8.954,9.643a5.86,5.86,0,0,0,3.175,1.34l9.077-9.775a5.854,5.854,0,0,0-3.3-1.209Z" transform="translate(-1008.656 -640.55)" fill="#fff"/>
                    </g>
                  </g>
                </g>
                <path id="Trazado_822864" data-name="Trazado 822864" d="M963.416,683.748a1.981,1.981,0,0,1-.086.958,2.139,2.139,0,0,1-.658.958,2.291,2.291,0,0,1-1.466.539,4.99,4.99,0,0,1-3.5-1.286,2.5,2.5,0,0,1-.665-1.011,1.276,1.276,0,0,1,.006-.83,1.182,1.182,0,0,1,.634-.638,16.63,16.63,0,0,0,1.809-.758,3.761,3.761,0,0,0,.7-.518l.294-.3.162-.192.1-.157a6.579,6.579,0,0,0,.716-1.612,10.226,10.226,0,0,0,.347-1.688,10.538,10.538,0,0,0,.063-1.567,10.369,10.369,0,0,0-.122-1.34c-.047-.4-.142-.747-.193-1.038l-.233-.907.13.208c.082.137.219.335.355.6a7.826,7.826,0,0,1,.44,1,7.968,7.968,0,0,1,.383,1.384,8.681,8.681,0,0,1,.154,1.71,9.137,9.137,0,0,1-.235,1.924,6.593,6.593,0,0,1-.812,1.98l-.174.26-.158.2c-.156.185-.274.276-.414.418a4.91,4.91,0,0,1-.941.664,10.761,10.761,0,0,1-1.946.733c-.068.028-.065.035-.07.028a.227.227,0,0,0,.007.137,1.568,1.568,0,0,0,.374.6,3.761,3.761,0,0,0,1.334.9,4.907,4.907,0,0,0,1.463.342,1.925,1.925,0,0,0,1.864-.864,2.247,2.247,0,0,0,.275-.6c.035-.156.053-.24.053-.24Z" transform="translate(-920.762 -633.528)" fill="#d9936b"/>
                <path id="Trazado_822865" data-name="Trazado 822865" d="M1050.639,403.084c-4.055-6.544-12.542-7.051-16.416-4.749-.347,2.214,1.268,6.165,2.476,8.938a33.436,33.436,0,0,0,6.751,7.992c3.416,2.516,6.661,6.812,6.354,12.236a35.28,35.28,0,0,0,.729,9.562s.578-2.378,2.274-9.719,3.074-15.8-2.168-24.26Z" transform="translate(-987.243 -396.471)" fill="#6c382e"/>
                <path id="Trazado_822866" data-name="Trazado 822866" d="M727.258,392.664c-33.637-1.12-32.676,53.224-29.924,85.558a8.925,8.925,0,0,1,4.744,4.574c3.351,7.748,9.261,13.98,12.572,21.621,1.137-6.925,1-14.14.987-21.492-.015-9.487,1.087-18.747,1.821-28.178.458-5.849.648-11.714.85-17.577.383-11.151,2.575-27.953,14.108-33.269a17.563,17.563,0,0,1,13.157-.455c-1.967-9.941-1.66-10.226-18.313-10.783Z" transform="translate(-696.115 -392.647)" fill="#6c382e"/>
                <path id="Trazado_822867" data-name="Trazado 822867" d="M1154.967,734.345a1.263,1.263,0,1,1-1.263-1.265A1.261,1.261,0,0,1,1154.967,734.345Z" transform="translate(-1089.09 -685.818)" fill="#fff"/>
                <path id="Trazado_823478" data-name="Trazado 823478" d="M990.7,816.57l-.1.178a3.464,3.464,0,0,1-.3.492,6.916,6.916,0,0,1-.578.7,11.324,11.324,0,0,1-.869.792c-.341.262-.726.53-1.144.8s-.887.494-1.376.726a12.811,12.811,0,0,1-1.559.595,11.1,11.1,0,0,1-1.687.413,12.43,12.43,0,0,1-1.751.176c-.568.007-1.1-.021-1.638-.052a10.4,10.4,0,0,1-2.912-.606,5.375,5.375,0,0,1-1.811-1.138,3.451,3.451,0,0,1-.386-.449c-.081-.109-.122-.167-.122-.167s.271.113.724.269a8.723,8.723,0,0,0,1.874.383,24.255,24.255,0,0,0,2.695.093c.494.009,1.035,0,1.552-.009a10.536,10.536,0,0,0,1.529-.109c.512-.07,1.029-.16,1.534-.268s.995-.261,1.474-.39a18.365,18.365,0,0,0,2.549-.975,10.3,10.3,0,0,0,1.692-.972,3.951,3.951,0,0,0,.447-.347l.154-.131Z" transform="translate(-940.417 -756.328)" fill="#d9936b"/>
              </g>
              <path id="Trazado_822871" data-name="Trazado 822871" d="M631.34,383.759c7.924-21.032,4.563-18.885,5.3-29.9s6.122-16.675,11.154-15.128c12.522,3.859,10.379,7.8,24.788,7.87,14.4-.065,12.261-4.011,24.788-7.87,5.025-1.547,10.413,4.118,11.153,15.128s-2.625,8.863,5.3,29.9-18.564,32.652-21.421,46.519c-1.133,5.491,1.277,7.7,7.039,5.357,12.356-15.761,10.323-11.7,19.419-30.073.276-.554,7.883-14.641,0-28.335s-3.844-26.046-9.227-36.248-27.917-22.289-37.053-22.289-31.665,12.084-37.053,22.289-1.348,22.554-9.232,36.248-.464,27.925,0,28.335c0,0,8.366,12.281,24.772,33.244,4.351.707,5.217-6.51,4.311-8.527-5.8-12.915-31.978-25.482-24.044-46.518Z" transform="translate(-611.896 -318.69)" fill="#9d9fa4"/>
              <g id="Grupo_1075198" data-name="Grupo 1075198" transform="translate(36.445 111.586)">
                <g id="Grupo_1075196" data-name="Grupo 1075196">
                  <path id="Trazado_822872" data-name="Trazado 822872" d="M1086.563,1228.922h4.009c1-17.084,1.691-35.393,2.063-52.24.729-33.277,5.936-48.865,5.936-48.865-5.56,3.059-7.038-5.357-7.038-5.357-3.246,7.526-6.726,44.752-4.84,76.5a277.275,277.275,0,0,1-.13,29.959Z" transform="translate(-1047.468 -1122.46)" fill="#857f4c"/>
                  <path id="Trazado_822873" data-name="Trazado 822873" d="M815.455,1228.93h4.009a275.983,275.983,0,0,1-.136-29.959c1.891-31.75-1.59-68.975-4.835-76.5,0,0-1.484,8.416-7.043,5.357,0,0,5.206,15.586,5.942,48.865.372,16.845,1.066,35.154,2.063,52.24Z" transform="translate(-807.45 -1122.469)" fill="#857f4c"/>
                </g>
                <g id="Grupo_1075197" data-name="Grupo 1075197" transform="translate(4.805 11.077)">
                  <path id="Trazado_822874" data-name="Trazado 822874" d="M842.794,1203.726a.816.816,0,0,1-.529-.218.764.764,0,0,1-.205-.533.745.745,0,0,1,.205-.513.758.758,0,0,1,1.047,0,.691.691,0,0,1,.221.513.748.748,0,0,1-.739.751Z" transform="translate(-842.06 -1202.253)" fill="#fff"/>
                  <path id="Trazado_822875" data-name="Trazado 822875" d="M873,1809.952a.74.74,0,0,1,.709-.765h0a.742.742,0,0,1,.765.722h0a.733.733,0,0,1-.7.751h0a.044.044,0,0,1-.029.016h0a.747.747,0,0,1-.74-.722Z" transform="translate(-868.701 -1724.926)" fill="#fff"/>
                  <path id="Trazado_822876" data-name="Trazado 822876" d="M870.9,1734.018a.736.736,0,0,1,.719-.751h0a.725.725,0,0,1,.75.722h0a.735.735,0,0,1-.719.751h-.015a.742.742,0,0,1-.735-.72Z" transform="translate(-866.896 -1659.547)" fill="#fff"/>
                  <path id="Trazado_822877" data-name="Trazado 822877" d="M870.14,1657.976a.73.73,0,0,1,.739-.736h0a.727.727,0,0,1,.736.736h0a.735.735,0,0,1-.736.734h0A.738.738,0,0,1,870.14,1657.976Z" transform="translate(-866.242 -1594.075)" fill="#fff"/>
                  <path id="Trazado_822878" data-name="Trazado 822878" d="M870.04,1581.953h0a.737.737,0,0,1,.725-.736h0a.719.719,0,0,1,.75.72h0a.734.734,0,0,1-.72.735h-.015a.728.728,0,0,1-.739-.721Z" transform="translate(-866.155 -1528.606)" fill="#fff"/>
                  <path id="Trazado_822879" data-name="Trazado 822879" d="M868.037,1505.96a.727.727,0,0,1,.7-.763h0a.727.727,0,0,1,.765.706h0a.755.755,0,0,1-.7.766h-.031a.741.741,0,0,1-.735-.708Z" transform="translate(-864.43 -1463.139)" fill="#fff"/>
                  <path id="Trazado_822880" data-name="Trazado 822880" d="M864.107,1430.049a.718.718,0,0,1,.689-.782h0a.737.737,0,0,1,.78.679h0a.735.735,0,0,1-.689.777h-.046A.716.716,0,0,1,864.107,1430.049Z" transform="translate(-861.044 -1397.749)" fill="#fff"/>
                  <path id="Trazado_822881" data-name="Trazado 822881" d="M858.482,1354.132a.737.737,0,0,1,.659-.8h0a.734.734,0,0,1,.8.68h0a.737.737,0,0,1-.659.794H859.2A.733.733,0,0,1,858.482,1354.132Z" transform="translate(-856.198 -1332.36)" fill="#fff"/>
                  <path id="Trazado_822882" data-name="Trazado 822882" d="M851.161,1278.447h0a.732.732,0,0,1,.644-.807h0a.742.742,0,0,1,.825.661h0a.735.735,0,0,1-.659.809H851.9A.744.744,0,0,1,851.161,1278.447Z" transform="translate(-849.893 -1267.171)" fill="#fff"/>
                </g>
              </g>
              <g id="Grupo_1075201" data-name="Grupo 1075201" transform="translate(0 168.22)">
                <path id="Trazado_822883" data-name="Trazado 822883" d="M548.447,1531.623a9.124,9.124,0,0,0-2.536,2.5c-1.916,2.968-.7,6.329.916,8.3,6.555,8.015,17.187,16.293,29.924,23.32,14.685,8.094,18.811,9.672,23.177,11.34,1.576.6,3.21,1.224,5.363,2.174,1.237.546,2.263.833,3.3-.773l.131-.208c.947-1.618.161-2.388-16.783-16.53-2.2-1.83-4.663-3.885-7.406-6.181-3.929-3.29-7.683-6.946-11.315-10.479-9.846-9.59-18.347-17.872-24.774-13.466Z" transform="translate(-544.931 -1530.408)" fill="#f7b284"/>
                <path id="Trazado_822884" data-name="Trazado 822884" d="M602.4,1569.564c-2.425-2.067-6.31-4.344-10.454-7.805-2.2-1.83-4.663-3.884-7.406-6.18-3.929-3.29-7.683-6.946-11.315-10.479-9.846-9.59-18.347-17.871-24.774-13.466a9.127,9.127,0,0,0-2.536,2.5c-1.916,2.968-.7,6.329.916,8.3,6.555,8.015,17.187,16.293,29.924,23.321,12.482,6.877,17.281,9.646,21.135,11.169a43.774,43.774,0,0,1,4.508-7.36Z" transform="translate(-544.931 -1530.417)" fill="#9a9ba0"/>
                <g id="Grupo_1075200" data-name="Grupo 1075200" transform="translate(57.682 38.95)">
                  <g id="Grupo_1075199" data-name="Grupo 1075199" transform="translate(1.841)">
                    <path id="Trazado_822885" data-name="Trazado 822885" d="M1010.176,1811.262a1.833,1.833,0,0,1,2.33.313h0a1.384,1.384,0,0,1,.176,2.083l-3.2,2.634a1.836,1.836,0,0,1-2.33-.317h0a1.384,1.384,0,0,1-.176-2.084l3.2-2.631Z" transform="translate(-1002.012 -1810.969)" fill="#f7b284"/>
                    <path id="Trazado_822886" data-name="Trazado 822886" d="M979.651,1825.98c.755-.154.575.964.876,1.871h0a1.383,1.383,0,0,1-.82,1.926l-4.055.834a1.835,1.835,0,0,1-1.912-1.369h0a2.092,2.092,0,0,1,1.354-2.311Z" transform="translate(-973.68 -1823.884)" fill="#f7b284"/>
                  </g>
                  <path id="Trazado_822887" data-name="Trazado 822887" d="M975.156,1840.749c.508-3.612-1.484-5.364-6.072-6.8-4.115-1.288-7.94-2.023-8.5,1.906-.341,2.4-.146,3.661.694,4.9h13.88Z" transform="translate(-960.421 -1829.872)" fill="#f7b284"/>
                </g>
              </g>
              <g id="Grupo_1075204" data-name="Grupo 1075204" transform="translate(48.805 101.357)">
                <path id="Trazado_822888" data-name="Trazado 822888" d="M909.541,1065.592l-.071-.033c-12.914-5.878-12.99-16.451-12.99-16.559,0-.123.11-.242.226-.218a.217.217,0,0,1,.217.222c0,.1.085,10.358,12.651,16.118.9-.272,9.686-3.285,12.885-16.175a.227.227,0,0,1,.267-.161.219.219,0,0,1,.161.269c-3.421,13.786-13.176,16.489-13.272,16.518l-.075.019Z" transform="translate(-896.48 -1048.778)" fill="#ffd835"/>
                <g id="Grupo_1075203" data-name="Grupo 1075203" transform="translate(10.45 15.182)">
                  <g id="Grupo_1075202" data-name="Grupo 1075202" transform="translate(0 1.931)">
                    <path id="Trazado_822889" data-name="Trazado 822889" d="M972.852,1174.259a1.1,1.1,0,1,1,1.106-1.105A1.1,1.1,0,0,1,972.852,1174.259Zm0-1.84a.736.736,0,1,0,.739.735A.738.738,0,0,0,972.852,1172.419Z" transform="translate(-971.75 -1172.05)" fill="#ffd835"/>
                    <path id="Trazado_822890" data-name="Trazado 822890" d="M992.752,1174.259a1.1,1.1,0,1,1,1.1-1.105A1.1,1.1,0,0,1,992.752,1174.259Zm0-1.84a.736.736,0,1,0,.734.735A.735.735,0,0,0,992.752,1172.419Z" transform="translate(-988.887 -1172.05)" fill="#ffd835"/>
                  </g>
                  <path id="Trazado_822891" data-name="Trazado 822891" d="M977.82,1169.382a.123.123,0,0,1-.05-.007.179.179,0,0,1-.126-.226l.387-1.423a.19.19,0,0,1,.182-.136h1.831a.181.181,0,0,1,.166.108l.639,1.423a.183.183,0,1,1-.332.153l-.594-1.319h-1.574l-.353,1.291a.178.178,0,0,1-.176.135Z" transform="translate(-976.819 -1166.278)" fill="#ffd835"/>
                  <path id="Trazado_822892" data-name="Trazado 822892" d="M993.837,1159.818a.145.145,0,0,1-.081-.019.182.182,0,0,1-.085-.244l.639-1.309a.181.181,0,0,1,.221-.1l.92.3a.183.183,0,1,1-.111.348l-.771-.253-.568,1.17a.193.193,0,0,1-.167.1Z" transform="translate(-990.612 -1158.139)" fill="#ffd835"/>
                </g>
              </g>
            </g>
            <g id="Grupo_1075207" data-name="Grupo 1075207" transform="translate(0 121.285)">
              <path id="Trazado_822893" data-name="Trazado 822893" d="M656.231,1786.763c2.446-4.409,1.5-13.977-5.038-15.5-5.752-1.383-119.094-1.383-124.847,0-6.532,1.519-7.481,11.087-5.038,15.5H656.229Z" transform="translate(-520.076 -1690.001)" fill="#d0e2eb"/>
              <g id="Grupo_1075206" data-name="Grupo 1075206" transform="translate(5.376)">
                <path id="Trazado_822894" data-name="Trazado 822894" d="M681.363,1197.141c-5.377-6.422-111.325-6.422-116.7,0-6.14,7.1-7.007,52.063-4.677,72.443h0c.48,4.172,1.091,7.319,1.817,8.894,4.994,12.132,117.426,12.132,122.419,0,.73-1.574,1.34-4.72,1.817-8.894h0c2.332-20.379,1.465-65.339-4.676-72.443Z" transform="translate(-558.796 -1192.325)" fill="#d0e2eb"/>
                <path id="Trazado_822895" data-name="Trazado 822895" d="M898.069,1421.655c-17.671,22.351,20.127,41.574,29.82,13.2C934.487,1415.556,908.392,1408.607,898.069,1421.655Z" transform="translate(-846.971 -1384.065)" fill="#fff"/>
                <path id="Trazado_822896" data-name="Trazado 822896" d="M697.263,1201.262c-1.692-2.021-13.325-3.4-28.651-4.152,6.718,6.765,11.3,16.1,14.33,24.97a78.051,78.051,0,0,1,3.525,35.319c-.954,7.3-3.814,16.154-10.413,20.051-21.241,12.524-72.865,9.63-83.311,8.4a52.622,52.622,0,0,1-15.482-4.444,10.393,10.393,0,0,0,.439,1.2c4.994,12.132,117.426,12.132,122.418,0,.73-1.575,1.34-4.72,1.817-8.894h0c2.332-20.379,1.465-65.339-4.676-72.443Z" transform="translate(-574.697 -1196.446)" fill="#a9cddf"/>
              </g>
            </g>
          </g>
        </g>
      </g>
    </g>
  </g>
</svg>
