<svg xmlns="http://www.w3.org/2000/svg" width="81" height="81" viewBox="0 0 81 81">
  <g id="Grupo_1080323" data-name="Grupo 1080323" transform="translate(-201.333 -287)">
    <rect id="Rectángulo_374757" data-name="Rectángulo 374757" width="81" height="81" rx="8" transform="translate(201.333 287)" fill="#021456"/>
    <g id="Grupo_1080267" data-name="Grupo 1080267" transform="translate(212.149 295.348)">
      <g id="Grupo_1073747" data-name="Grupo 1073747">
        <path id="Trazado_113939" data-name="Trazado 113939" d="M29.72,0A29.72,29.72,0,1,1,0,29.72,29.72,29.72,0,0,1,29.72,0Z" fill="#fff"/>
      </g>
      <g id="Grupo_1080319" data-name="Grupo 1080319" transform="translate(5.657 3.34)">
        <g id="programador" transform="translate(0 0)">
          <path id="Trazado_828236" data-name="Trazado 828236" d="M39.3,67.087V66H39.17A15.356,15.356,0,0,0,23.814,81.353v5.389a4.227,4.227,0,0,1,3.873,2.536V73.1A2.113,2.113,0,0,1,29.8,70.982H41.382A4.683,4.683,0,0,1,39.3,67.087Z" transform="translate(-19.073 -32.047)" fill="#29f8eb"/>
          <path id="Trazado_828237" data-name="Trazado 828237" d="M69.149,66h-.133v1.09a4.683,4.683,0,0,1-2.08,3.9H78.517A2.114,2.114,0,0,1,80.631,73.1V89.283A4.227,4.227,0,0,1,84.5,86.747V81.358A15.356,15.356,0,0,0,69.147,66Z" transform="translate(-39.41 -32.047)" fill="#29f8eb"/>
          <path id="Trazado_828238" data-name="Trazado 828238" d="M39.3,67.087V66H39.17A15.356,15.356,0,0,0,23.814,81.353v1.585A15.3,15.3,0,0,1,27.727,72.7,2.107,2.107,0,0,1,29.5,71.01a15.289,15.289,0,0,1,9.67-3.425h.164A4.789,4.789,0,0,1,39.3,67.087Z" transform="translate(-19.073 -32.047)" fill="#fff"/>
          <path id="Trazado_828239" data-name="Trazado 828239" d="M70.977,66h-.133v1.09a4.789,4.789,0,0,1-.031.5h.164a15.289,15.289,0,0,1,9.669,3.43,2.107,2.107,0,0,1,1.773,1.691,15.3,15.3,0,0,1,3.913,10.237V81.358A15.356,15.356,0,0,0,70.975,66Z" transform="translate(-41.239 -32.047)" fill="#fff"/>
          <path id="Trazado_828240" data-name="Trazado 828240" d="M55.208,70.427h5.216a4.684,4.684,0,0,0,2.08-3.9V64.823a11.836,11.836,0,0,1-4.611.929h-.153a11.836,11.836,0,0,1-4.611-.929v1.709a4.684,4.684,0,0,0,2.08,3.9Z" transform="translate(-32.898 -31.492)" fill="#fff"/>
          <path id="Trazado_828241" data-name="Trazado 828241" d="M85.17,38.891a1.347,1.347,0,0,0-.7.205v2.557a11.935,11.935,0,0,1-.158,1.935,1.391,1.391,0,0,0,.862.33c.983,0,1.78-1.125,1.78-2.513S86.153,38.891,85.17,38.891Z" transform="translate(-47.604 -19.262)" fill="#fff"/>
          <path id="Trazado_828242" data-name="Trazado 828242" d="M37.176,41.653V39.1a1.347,1.347,0,0,0-.7-.205c-.983,0-1.78,1.125-1.78,2.513s.8,2.511,1.78,2.511a1.391,1.391,0,0,0,.862-.328,11.942,11.942,0,0,1-.16-1.935Z" transform="translate(-24.204 -19.262)" fill="#fff"/>
          <path id="Trazado_828243" data-name="Trazado 828243" d="M60.342,20.924A4.006,4.006,0,0,0,56.2,20a15.946,15.946,0,0,1-4.864.677A15.946,15.946,0,0,1,46.479,20a4.006,4.006,0,0,0-4.139.921A10.174,10.174,0,0,0,39.4,28.095v4.544A11.869,11.869,0,0,0,51.262,44.507h.155A11.869,11.869,0,0,0,63.285,32.638V28.093A10.174,10.174,0,0,0,60.342,20.924Z" transform="translate(-26.422 -10.246)" fill="#fff"/>
          <path id="Trazado_828244" data-name="Trazado 828244" d="M45.468,31.678h4.69a1.837,1.837,0,0,1,1.837,1.837v2.674A3.112,3.112,0,0,1,48.883,39.3H45.9a3.112,3.112,0,0,1-3.112-3.112v-1.83a2.681,2.681,0,0,1,2.68-2.68Z" transform="translate(-28.021 -15.86)" fill="#d4fbff"/>
          <path id="Trazado_828245" data-name="Trazado 828245" d="M3.112,0H6.1A3.112,3.112,0,0,1,9.207,3.112v3.3A1.208,1.208,0,0,1,8,7.62H2.681A2.681,2.681,0,0,1,0,4.939V3.112A3.112,3.112,0,0,1,3.112,0Z" transform="translate(35.069 23.44) rotate(180)" fill="#d4fbff"/>
          <path id="Trazado_828246" data-name="Trazado 828246" d="M63.48,96.246a4.214,4.214,0,0,1,.271-2.519V77.543a2.114,2.114,0,0,0-2.114-2.114H33.259a2.113,2.113,0,0,0-2.113,2.114V93.728a4.214,4.214,0,0,1,.271,2.519Z" transform="translate(-22.531 -36.494)" fill="#6dc9f7"/>
          <path id="Trazado_828247" data-name="Trazado 828247" d="M35.5,98.738V82.827a2.113,2.113,0,0,1,2.114-2.113H61.39A2.113,2.113,0,0,1,63.5,82.827V98.738Z" transform="translate(-24.584 -38.986)" fill="#e6e7e8"/>
          <path id="Trazado_828248" data-name="Trazado 828248" d="M61.511,114.828H29.448a4.233,4.233,0,0,1-2.476,3.055,2.1,2.1,0,0,0,1.149.343H62.839a2.1,2.1,0,0,0,1.149-.343A4.233,4.233,0,0,1,61.511,114.828Z" transform="translate(-20.562 -55.076)" fill="#0089ef"/>
          <circle id="Elipse_10591" data-name="Elipse 10591" cx="4.227" cy="4.227" r="4.227" transform="translate(0.514 54.696)" fill="#fff"/>
          <circle id="Elipse_10592" data-name="Elipse 10592" cx="4.227" cy="4.227" r="4.227" transform="translate(40.867 54.696)" fill="#fff"/>
          <g id="Grupo_1080316" data-name="Grupo 1080316">
            <path id="Trazado_828249" data-name="Trazado 828249" d="M50.96,38.563a1.195,1.195,0,1,0,1.195,1.195A1.195,1.195,0,0,0,50.96,38.563Z" transform="translate(-31.312 -19.107)" fill="#3a2c60"/>
            <path id="Trazado_828250" data-name="Trazado 828250" d="M70.908,38.563A1.195,1.195,0,1,0,72.1,39.758,1.195,1.195,0,0,0,70.908,38.563Z" transform="translate(-40.72 -19.107)" fill="#3a2c60"/>
            <path id="Trazado_828251" data-name="Trazado 828251" d="M60.316,50.019A1.889,1.889,0,0,0,62.2,48.133v-.8a.528.528,0,0,0-1.057,0v.8a.83.83,0,0,1-1.66,0v-.8a.528.528,0,0,0-1.057,0v.8a1.889,1.889,0,0,0,1.887,1.887Z" transform="translate(-35.398 -22.996)" fill="#3a2c60"/>
            <path id="Trazado_828252" data-name="Trazado 828252" d="M72.385,34.875l-2.338-.408a.529.529,0,1,0-.182,1.041l2.339.408a.6.6,0,0,0,.091.007.528.528,0,0,0,.09-1.049Z" transform="translate(-40.585 -17.172)" fill="#3a2c60"/>
            <path id="Trazado_828253" data-name="Trazado 828253" d="M50.922,34.467l-2.339.408a.528.528,0,0,0,.09,1.049.6.6,0,0,0,.091-.007l2.339-.408a.529.529,0,0,0-.182-1.041Z" transform="translate(-30.548 -17.172)" fill="#3a2c60"/>
            <path id="Trazado_828254" data-name="Trazado 828254" d="M62.234,55.32a.528.528,0,1,0-.842-.638A2.937,2.937,0,0,1,59.166,55.7a2.833,2.833,0,0,1-2.219-1.007.528.528,0,1,0-.855.621,3.894,3.894,0,0,0,3.074,1.442,4,4,0,0,0,3.068-1.435Z" transform="translate(-34.248 -26.606)" fill="#3a2c60"/>
            <path id="Trazado_828255" data-name="Trazado 828255" d="M35.028,100.829a.528.528,0,0,0,.528-.528V96.866a.528.528,0,1,0-1.057,0V100.3A.528.528,0,0,0,35.028,100.829Z" transform="translate(-24.113 -46.355)" fill="#3a2c60"/>
            <path id="Trazado_828259" data-name="Trazado 828259" d="M60.464,55.94V51.047a15.9,15.9,0,0,0-15.029-15.86,12.441,12.441,0,0,0,6.493-8.334,1.691,1.691,0,0,0,.479.072c1.3,0,2.309-1.336,2.309-3.042a3.558,3.558,0,0,0-.7-2.2V16.255A11.012,11.012,0,0,0,49.8,7.589h.015L42.854,2.211,43,4.055,39.759,1.741,37.084,3.978l-.165-1.354L34.805,4.7V3.516L29.664,7.628c-.072.057-.145.113-.215.172l-.094.075h.011A11.008,11.008,0,0,0,25.5,16.256v5.432a3.557,3.557,0,0,0-.7,2.2c0,1.706,1.014,3.042,2.308,3.042a1.691,1.691,0,0,0,.479-.072,12.441,12.441,0,0,0,6.493,8.334,15.9,15.9,0,0,0-15.029,15.86V55.94a4.755,4.755,0,0,0,.528,9.48H59.936a4.755,4.755,0,0,0,.528-9.48Zm-1.057,0a4.742,4.742,0,0,0-2.817,1.348v-14.5a2.639,2.639,0,0,0-.049-.491,14.744,14.744,0,0,1,2.866,8.749ZM44.975,36.232a14.771,14.771,0,0,1,9.794,4.059,2.612,2.612,0,0,0-.821-.144H43.725a5.172,5.172,0,0,0,1.25-3.367Zm-1.066-.392s.007,0,.01,0v.939a4.14,4.14,0,0,1-1.74,3.367H37.34a4.14,4.14,0,0,1-1.74-3.367v-.938h.013a12.348,12.348,0,0,0,4.068.687h.153a12.327,12.327,0,0,0,4.074-.69Zm-8.116,4.308H25.569a2.612,2.612,0,0,0-.821.144,14.77,14.77,0,0,1,9.794-4.061v.55a5.172,5.172,0,0,0,1.25,3.365ZM25.569,41.205H53.948a1.585,1.585,0,0,1,1.585,1.585V58.873a4.73,4.73,0,0,0-.353,1.793c0,.1.008.2.015.3h-.906V45.581a2.645,2.645,0,0,0-2.642-2.642H27.87a2.645,2.645,0,0,0-2.642,2.642v4.71a.528.528,0,0,0,1.057,0v-4.71A1.585,1.585,0,0,1,27.87,44H51.647a1.585,1.585,0,0,1,1.585,1.585V60.965H26.285V57.524a.528.528,0,0,0-1.057,0v3.441h-.906c.006-.1.015-.2.015-.3a4.73,4.73,0,0,0-.353-1.793V42.789A1.585,1.585,0,0,1,25.569,41.2ZM24.137,62.023H55.38a4.769,4.769,0,0,0,1.573,2.341H22.564a4.769,4.769,0,0,0,1.573-2.343Zm26.291-42a3.211,3.211,0,0,0-3.2-2.989H41.911a1.739,1.739,0,0,0-1.737,1.737v.4h-.853a2.362,2.362,0,0,0-2.343-2.142h-4.69a3.21,3.21,0,0,0-3.2,2.988l-.748.214v-.644a9.625,9.625,0,0,1,2.79-6.8,3.358,3.358,0,0,1,2.407-.986,3.76,3.76,0,0,1,1.189.2,16.5,16.5,0,0,0,5.031.7,16.5,16.5,0,0,0,5.031-.7,3.464,3.464,0,0,1,3.593.793,9.624,9.624,0,0,1,2.794,6.8v.644Zm-1.046.221v1.83A2.589,2.589,0,0,1,46.8,24.651H43.815a2.589,2.589,0,0,1-2.584-2.583v-3.3a.682.682,0,0,1,.681-.681H47.23a2.156,2.156,0,0,1,2.153,2.155Zm-11.1-.845v2.674A2.586,2.586,0,0,1,35.7,24.651H32.719a2.586,2.586,0,0,1-2.584-2.583V20.24a2.155,2.155,0,0,1,2.152-2.153h4.69A1.31,1.31,0,0,1,38.286,19.4ZM52.119,25.8a12.462,12.462,0,0,0,.116-1.671V21.92c.731-.178,1.427.8,1.427,1.963,0,1.227-.756,2.26-1.543,1.922ZM27.4,25.8c-.789.338-1.54-.7-1.54-1.922,0-1.076.573-1.985,1.252-1.985a.756.756,0,0,1,.174.021V24.13A12.462,12.462,0,0,0,27.4,25.8Zm.943-1.673v-2.8l.737-.211v.951a3.646,3.646,0,0,0,3.641,3.64H35.7a3.646,3.646,0,0,0,3.641-3.64V20.229h.831V22.07a3.646,3.646,0,0,0,3.641,3.638H46.8a3.646,3.646,0,0,0,3.641-3.64v-.951l.737.211v2.8A11.354,11.354,0,0,1,39.835,35.473h-.153A11.354,11.354,0,0,1,28.342,24.132ZM22.977,42.3a2.6,2.6,0,0,0-.05.491v14.5A4.742,4.742,0,0,0,20.11,55.94V51.047A14.745,14.745,0,0,1,22.977,42.3ZM15.883,60.665a3.7,3.7,0,1,1,3.7,3.7,3.7,3.7,0,0,1-3.7-3.7Zm44.053,3.7a3.7,3.7,0,1,1,3.7-3.7,3.7,3.7,0,0,1-3.7,3.7Z" transform="translate(-14.841 -1.741)" fill="#3a2c60"/>
          </g>
        </g>
        <g id="la-bolsa" transform="translate(16.864 43.918)">
          <path id="Trazado_828172" data-name="Trazado 828172" d="M48.554,223.76H46.164V216.79a.63.63,0,0,1,.63-.63h1.132a.63.63,0,0,1,.63.63Zm0,0" transform="translate(-44.71 -209.371)" fill="#ff4a73"/>
          <path id="Trazado_828173" data-name="Trazado 828173" d="M158.8,161.291h-2.391v-9a.63.63,0,0,1,.63-.63h1.132a.63.63,0,0,1,.63.63Zm0,0" transform="translate(-151.483 -146.902)" fill="#44c7b6"/>
          <path id="Trazado_828174" data-name="Trazado 828174" d="M269.039,224.51h-2.391v-6.946a.63.63,0,0,1,.63-.63h1.132a.63.63,0,0,1,.63.63Zm0,0" transform="translate(-258.255 -210.121)" fill="#f9d335"/>
          <path id="Trazado_828175" data-name="Trazado 828175" d="M379.281,166.4h-2.391v-8.835a.63.63,0,0,1,.63-.63h1.132a.63.63,0,0,1,.63.63Zm0,0" transform="translate(-365.026 -152.01)" fill="#3193f3"/>
          <path id="Trazado_828176" data-name="Trazado 828176" d="M47.734,216.168a.629.629,0,0,0-.63.63v6.971H46.16V216.8a.629.629,0,0,1,.63-.63Zm0,0" transform="translate(-44.707 -209.379)" fill="#f973a3"/>
          <path id="Trazado_828177" data-name="Trazado 828177" d="M157.972,151.668a.63.63,0,0,0-.63.63v9H156.4v-9a.629.629,0,0,1,.63-.63Zm0,0" transform="translate(-151.475 -146.909)" fill="#4bdbc3"/>
          <path id="Trazado_828178" data-name="Trazado 828178" d="M268.215,216.941a.629.629,0,0,0-.63.63v6.946h-.944v-6.946a.629.629,0,0,1,.63-.63Zm0,0" transform="translate(-258.247 -210.127)" fill="#f9e27d"/>
          <path id="Trazado_828179" data-name="Trazado 828179" d="M378.453,156.941a.629.629,0,0,0-.63.63v8.835h-.944v-8.835a.629.629,0,0,1,.63-.63Zm0,0" transform="translate(-365.015 -152.016)" fill="#35b1fc"/>
          <g id="Grupo_1080270" data-name="Grupo 1080270" transform="translate(0 0)">
            <path id="Trazado_828180" data-name="Trazado 828180" d="M15.457,152.51h-.95v-8.583a.882.882,0,0,0-.881-.881H12.494a.882.882,0,0,0-.881.881v8.583h-.576v-6.694a.882.882,0,0,0-.881-.881H9.024a.882.882,0,0,0-.881.881v6.694H7.566V143.76a.883.883,0,0,0-.881-.881H5.553a.883.883,0,0,0-.881.881v8.749H4.1v-6.694a.882.882,0,0,0-.881-.881H2.083a.882.882,0,0,0-.881.881v6.694H.252a.252.252,0,0,0,0,.5h15.2a.252.252,0,0,0,0-.5Zm-11.865,0H1.7v-6.694a.378.378,0,0,1,.378-.378H3.214a.378.378,0,0,1,.378.378Zm3.47,0H5.175V143.76a.378.378,0,0,1,.378-.378H6.685a.378.378,0,0,1,.378.378Zm3.47,0H8.646v-6.694a.378.378,0,0,1,.378-.378h1.132a.378.378,0,0,1,.378.378Zm3.47,0H12.116v-8.583a.378.378,0,0,1,.378-.378h1.132a.378.378,0,0,1,.378.378Zm0,0" transform="translate(0 -138.397)" fill="#3a2c60"/>
            <path id="Trazado_828181" data-name="Trazado 828181" d="M74.909,6.5,78.3,3.7,81.484,6.3a.252.252,0,0,0,.338-.019l4.771-4.849L86.42,3.437a.252.252,0,0,0,.5.043l.234-2.7A.253.253,0,0,0,86.883.5l-2.7.234a.252.252,0,0,0,.043.5l2.025-.175-4.623,4.7L78.458,3.183a.252.252,0,0,0-.319,0L74.589,6.112a.252.252,0,0,0,.321.389Zm0,0" transform="translate(-72.152 -0.502)" fill="#3a2c60"/>
          </g>
        </g>
      </g>
    </g>
  </g>
</svg>
