<svg xmlns="http://www.w3.org/2000/svg" xmlns:xlink="http://www.w3.org/1999/xlink" width="361.439" height="407.191" viewBox="0 0 361.439 407.191">
  <defs>
    <clipPath id="clip-path">
      <rect id="Rectángulo_377524" data-name="Rectángulo 377524" width="70" height="80" transform="translate(8.745 79.512)" fill="#fff" stroke="#707070" stroke-width="1"/>
    </clipPath>
  </defs>
  <g id="Grupo_1075637" data-name="Grupo 1075637" transform="translate(-613.681 -1506.066)">
    <g id="Grupo_1075500" data-name="Grupo 1075500" transform="translate(333 -26.053)">
      <g id="Grupo_1075495" data-name="Grupo 1075495" transform="translate(-328.385 4)">
        <g id="Window" transform="translate(650.255 1550.488)">
          <g id="Grupo_1070653" data-name="Grupo 1070653" transform="translate(0)">
            <path id="Trazado_816119" data-name="Trazado 816119" d="M317.288,86.037V224.811a17.1,17.1,0,0,1-17.1,17.1H56.1a17.1,17.1,0,0,1-17.1-17.1V86.037c0-.408.015-.809.054-1.21A17.1,17.1,0,0,1,56.11,68.92H300.186a17.1,17.1,0,0,1,17.056,15.907c.031.4.054.8.054,1.21Z" transform="translate(-39 -68.92)" fill="#fff" stroke="#263238" stroke-linecap="round" stroke-linejoin="round" stroke-width="1.1"/>
            <path id="Trazado_816120" data-name="Trazado 816120" d="M49.8,97.89H312.311V226.082a16.038,16.038,0,0,1-16.031,16.031H65.831A16.038,16.038,0,0,1,49.8,226.082V97.89Z" transform="translate(-41.476 -75.563)" fill="#263238"/>
            <path id="Trazado_816121" data-name="Trazado 816121" d="M312.311,97.88v128.2A15.945,15.945,0,0,1,296.458,242.1H65.654A15.945,15.945,0,0,1,49.8,226.08V97.88H312.319Z" transform="translate(-41.476 -75.56)" fill="#fff" opacity="0.2"/>
            <path id="Trazado_816122" data-name="Trazado 816122" d="M317.248,84.837H39.06A17.1,17.1,0,0,1,56.116,68.93H300.192A17.1,17.1,0,0,1,317.248,84.837Z" transform="translate(-39.014 -68.922)" fill="#263238" stroke="#263238" stroke-miterlimit="10" stroke-width="1.1"/>
            <path id="Trazado_816123" data-name="Trazado 816123" d="M81.618,78.349a3.029,3.029,0,1,1-3.029-3.029A3.029,3.029,0,0,1,81.618,78.349Z" transform="translate(-47.383 -70.387)" fill="#fceea6"/>
            <path id="Trazado_816124" data-name="Trazado 816124" d="M98.238,78.349a3.029,3.029,0,1,1-3.029-3.029A3.029,3.029,0,0,1,98.238,78.349Z" transform="translate(-51.194 -70.387)" fill="#fceea6"/>
            <circle id="Elipse_9149" data-name="Elipse 9149" cx="3.029" cy="3.029" r="3.029" transform="translate(53.796 4.933)" fill="#fceea6"/>
            <path id="Trazado_816125" data-name="Trazado 816125" d="M312.311,97.89V226.082a16.033,16.033,0,0,1-16.031,16.031H65.831a16.035,16.035,0,0,1-15.722-12.925H50.1v-.046a16.169,16.169,0,0,1-.3-3.067V97.89Z" transform="translate(-41.476 -75.563)" fill="none" stroke="#263238" stroke-miterlimit="10" stroke-width="1.1"/>
            <path id="Trazado_816126" data-name="Trazado 816126" d="M381.049,121.267a16.139,16.139,0,0,0-3.561-1.472l-1.433-6.435h-6.119L368.51,119.8a15.548,15.548,0,0,0-3.568,1.472l-5.526-3.538-4.324,4.324,3.476,5.526a15.627,15.627,0,0,0-1.472,3.568l-6.435,1.426v6.119l6.435,1.434a15.573,15.573,0,0,0,1.472,3.6l-3.538,5.557,4.324,4.324,5.557-3.538a15.715,15.715,0,0,0,3.568,1.48l1.426,6.428h6.119l1.433-6.428a16.014,16.014,0,0,0,3.561-1.48l.277.177V121.083l-.254.162ZM373,143.587a7.907,7.907,0,1,1,7.907-7.907A7.9,7.9,0,0,1,373,143.587Z" transform="translate(-110.461 -79.11)" fill="#263238"/>
            <path id="Trazado_816127" data-name="Trazado 816127" d="M218.973,123.917V111.007L205.4,108a35.079,35.079,0,0,0-3.106-7.53l1.642-2.582H139.891l1.58,2.52a33.557,33.557,0,0,0-3.1,7.522L124.8,110.954v12.9l13.572,3.029a33.667,33.667,0,0,0,3.1,7.584l-7.453,11.723,9.133,9.125,11.715-7.453a34.584,34.584,0,0,0,7.53,3.121l3.006,13.549H178.31l3.037-13.549a34.786,34.786,0,0,0,7.507-3.121l11.723,7.453,9.125-9.125-7.407-11.723a35.352,35.352,0,0,0,3.106-7.514l13.572-3.029Zm-47.013,10.22a16.67,16.67,0,1,1,16.67-16.67A16.671,16.671,0,0,1,171.96,134.136Z" transform="translate(-58.673 -75.563)" fill="#263238"/>
            <path id="Trazado_816129" data-name="Trazado 816129" d="M227.725,216.892a21,21,0,0,0,.624-4.848l7.36-3.869-2.035-7.468-8.308.385a20.44,20.44,0,0,0-2.983-3.854l2.459-7.946-6.705-3.846-5.611,6.127a21.672,21.672,0,0,0-4.832-.617l-3.884-7.368-7.453,2.027.393,8.316a20.743,20.743,0,0,0-3.861,2.983l-7.946-2.451-3.846,6.7,6.158,5.6a20.1,20.1,0,0,0-.609,4.832l-7.376,3.884,2.035,7.468,8.316-.393a20.065,20.065,0,0,0,2.975,3.861l-2.474,7.907,6.705,3.846,5.58-6.073a20.117,20.117,0,0,0,4.84.609l3.877,7.368,7.453-2.027-.324-7.106-.054-1.218a20.357,20.357,0,0,0,3.9-2.983l7.946,2.466,3.283-5.734.563-.971-6.15-5.6ZM210.1,221.424a9.989,9.989,0,1,1,7.013-12.262A9.991,9.991,0,0,1,210.1,221.424Z" transform="translate(-71.163 -95.213)" fill="#263238"/>
            <path id="Trazado_816130" data-name="Trazado 816130" d="M330.616,229.106l1.7-10.243-10.374-4.177a27.661,27.661,0,0,0-1.487-6.4l7.468-8.316-6.042-8.447-10.3,4.37a27.214,27.214,0,0,0-5.557-3.453l-.6-11.168-10.25-1.7-4.2,10.328a28.652,28.652,0,0,0-6.366,1.5l-8.339-7.468-8.439,6.042,4.378,10.289a27.935,27.935,0,0,0-3.121,4.848c-.116.239-.239.478-.347.717l-11.16.624-1.7,10.235,1.68.678,8.686,3.5a27.113,27.113,0,0,0,1.487,6.366l-7.468,8.339,6.042,8.439,10.3-4.385a26.606,26.606,0,0,0,5.549,3.476l.578,11.121,10.243,1.7,4.193-10.25a27.074,27.074,0,0,0,6.382-1.5l8.324,7.476,8.447-6.05-4.378-10.3a27.161,27.161,0,0,0,3.514-5.588l11.16-.609Zm-28.747-.462a13.417,13.417,0,1,1,3.1-18.721A13.421,13.421,0,0,1,301.868,228.643Z" transform="translate(-88.728 -94.293)" fill="#263238"/>
            <g id="Enmascarar_grupo_1059106" data-name="Enmascarar grupo 1059106" clip-path="url(#clip-path)">
              <path id="Trazado_823731" data-name="Trazado 823731" d="M330.616,229.106l1.7-10.243-10.374-4.177a27.661,27.661,0,0,0-1.487-6.4l7.468-8.316-6.042-8.447-10.3,4.37a27.214,27.214,0,0,0-5.557-3.453l-.6-11.168-10.25-1.7-4.2,10.328a28.652,28.652,0,0,0-6.366,1.5l-8.339-7.468-8.439,6.042,4.378,10.289a27.935,27.935,0,0,0-3.121,4.848c-.116.239-.239.478-.347.717l-11.16.624-1.7,10.235,1.68.678,8.686,3.5a27.113,27.113,0,0,0,1.487,6.366l-7.468,8.339,6.042,8.439,10.3-4.385a26.606,26.606,0,0,0,5.549,3.476l.578,11.121,10.243,1.7,4.193-10.25a27.074,27.074,0,0,0,6.382-1.5l8.324,7.476,8.447-6.05-4.378-10.3a27.161,27.161,0,0,0,3.514-5.588l11.16-.609Zm-28.747-.462a13.417,13.417,0,1,1,3.1-18.721A13.421,13.421,0,0,1,301.868,228.643Z" transform="translate(-255.88 -96.293)" fill="#263238"/>
            </g>
          </g>
        </g>
        <g id="Grupo_1075494" data-name="Grupo 1075494" transform="translate(-35.558 -85.228)">
          <g id="Shadow" transform="translate(670.942 1969.68)">
            <g id="Grupo_1070652" data-name="Grupo 1070652" transform="translate(0)">
              <ellipse id="Elipse_9147" data-name="Elipse 9147" cx="159.865" cy="25.429" rx="159.865" ry="25.429" fill="#a6adc4"/>
              <ellipse id="Elipse_9148" data-name="Elipse 9148" cx="159.865" cy="25.429" rx="159.865" ry="25.429" fill="#a6adc4" opacity="0.5"/>
            </g>
          </g>
          <g id="Character" transform="translate(714.742 1613.347)">
            <g id="Grupo_1070663" data-name="Grupo 1070663" transform="translate(0)">
              <path id="Trazado_816138" data-name="Trazado 816138" d="M301.825,403.893s-44,12.622-50.141,14.792c-5.583,1.972-20.739,7.282-32.1,5.644a24.109,24.109,0,0,1-3.247-.7c-11.515-3.429-16.688-6.63-18.19-13.867-1.517-7.267,4.218-12.562,9.74-15.975s35.486-6.979,35.486-6.979l7.237,2.124h.015l51.2,14.974Z" transform="translate(-197.897 -51.059)" fill="#8ce9ec"/>
              <path id="Trazado_816139" data-name="Trazado 816139" d="M219.581,424.328a24.111,24.111,0,0,1-3.247-.7c-11.515-3.429-16.688-6.63-18.19-13.867-1.517-7.267,4.218-12.562,9.74-15.975s35.486-6.979,35.486-6.979l7.237,2.124c-6.539,3.019-30.949,4.688-36.259,7.752-5.325,3.065-7.9,8.83-4.749,16.628,1.669,4.157,6.16,8.162,10.013,11.03Z" transform="translate(-197.897 -51.059)" fill="#fff"/>
              <path id="Trazado_816140" data-name="Trazado 816140" d="M295.126,405.091s-33.043,8.557-46.151,14.033-38.1,7.874-47-3.429-1.032-21.027,7.874-23.182,26.914-5.583,36.745-4.218" transform="translate(-197.812 -50.452)" fill="none" stroke="#263238" stroke-linecap="round" stroke-linejoin="round" stroke-width="1.1"/>
              <path id="Trazado_816141" data-name="Trazado 816141" d="M216.844,423.018s-16.81-9.224-11.227-22.135c4.127-9.527,26.55-7.464,37.655-12.683" transform="translate(-194.492 -50.341)" fill="none" stroke="#263238" stroke-linecap="round" stroke-linejoin="round" stroke-width="1.1"/>
              <path id="Trazado_816142" data-name="Trazado 816142" d="M385.99,426.671c-.455,4.506-2.048,8.815-6.6,11.5-3.034,1.79-7.343,2.867-13.518,2.792-15.429-.2-44.437-11.227-44.437-11.227l-27.157-15L308.4,392.369l3.869-6.129,10,2.245s8.268,4.688,16.582,8.42,28.507,4.521,35.607,10.271C381.576,412.911,386.764,419.177,385.99,426.671Z" transform="translate(-148.055 -51.354)" fill="#8ce9ec"/>
              <path id="Trazado_816143" data-name="Trazado 816143" d="M381.181,426.671c-.455,4.506-2.048,8.815-6.6,11.5a20.328,20.328,0,0,0-.774-13.563c-3.019-6.812-12.9-12.82-25.9-13.821-12.971-1-22.924-7.085-28.128-9.785-4.066-2.109-12.638-6.706-16.2-8.633l3.869-6.129,10,2.245s8.268,4.688,16.582,8.42,28.507,4.521,35.607,10.271c7.115,5.735,12.3,12,11.53,19.5Z" transform="translate(-143.245 -51.354)" fill="#fff"/>
              <path id="Trazado_816144" data-name="Trazado 816144" d="M299.2,415.853c19.328,11.075,41.448,19.055,63.568,21.71,4.946.592,10.7.683,14-3.034a10.279,10.279,0,0,0,2.276-7.752c-.592-6.979-6.463-12.5-12.9-15.262s-13.533-3.429-20.36-4.961a80.338,80.338,0,0,1-19.571-7.161c-4.916-2.564-9.664-5.674-15.08-6.812-5.416-1.153-11.864.243-14.762,4.961" transform="translate(-146.969 -48.273)" fill="none" stroke="#263238" stroke-linecap="round" stroke-linejoin="round" stroke-width="1.1"/>
              <path id="Trazado_816145" data-name="Trazado 816145" d="M370.2,438.742c4.991-2.564,9.1-7.282,9.937-12.835.986-6.569-2.761-13.184-8.026-17.219-5.28-4.035-11.864-5.947-18.372-7.3s-13.153-2.26-19.358-4.673c-9.512-3.717-18.9-11.06-28.78-8.45" transform="translate(-142.201 -50.59)" fill="none" stroke="#263238" stroke-linecap="round" stroke-linejoin="round" stroke-width="1.1"/>
              <path id="Trazado_816146" data-name="Trazado 816146" d="M374.5,265.509l-45.954-17.492-.561-.212s.167-1.229.3-2.989c.288-3.671.44-9.634-1.29-11.667-2.564-2.989-9.831-.486-16.9-3.732-7.085-3.247-20.178,2.564-20.178,2.564s-9.452-1.745-13.624,5.082c-2.124,5.507-1.4,13.7-1.4,13.7s-.3.121-.865.319c-5.477,2.048-35.258,13.26-41.569,17.75-6.964,4.931-14.655,55.557-17.144,70.425-2.473,14.883-6.873,28.264-4.642,33.392,2.23,5.1,34.242,29.751,52.644,36.123s83.73,4.506,83.73,4.506,1.077-.288,2.958-.88c11.045-3.55,50.247-18.16,71.032-52.614,0,0-20.132-66.041-46.546-94.259ZM250.336,350.665c-3.383,2.4-1.578,11.682-1.578,11.682l-5.75-5.067,14.443-35.516,6.159,27.263S253.72,348.283,250.336,350.665Zm115.544,22.56c-1.593.819,4.567-16.248,1.638-20.117s-11.7-3.5-11.7-3.5l.758-4.673c.106-.516,5.2-26.686,5.2-26.686l1.729-2.063s17.872,30.646,21.073,41.433c0,0-19.48,15.6-18.691,15.6Z" transform="translate(-191.604 -132.962)" fill="#66707e"/>
              <path id="Trazado_816147" data-name="Trazado 816147" d="M270.11,179.865,246.4,205.049s-3.277,2.9-1.972,10.2c1.3,7.313,4.324,13.578,6.615,14.064a32.419,32.419,0,0,0,5.492.485s5.082,11.014,8.678,15.338c0,0,1.259,17.007.592,21.725,0,0,8.526,7.449,16.552,8.39s20.42-11.348,20.42-11.348l3.08-15.05s7.282-11.045,7.768-13.988c.5-2.943,3.823-2.185,5.462-3.641s5.416-7.935,6.038-14.064.667-13.169-6.448-11.105c-6.175-1.654-2.306-14.7-2.306-14.7l-10.848-9.573-35.41-1.927Z" transform="translate(-173.995 -158.084)" fill="#fff"/>
              <path id="Trazado_816148" data-name="Trazado 816148" d="M306.736,248.016a22.771,22.771,0,0,1-1.229,2.746c-3.914,7.373-20.967,21.437-20.967,21.437l-5.158-15.854L276.56,272.2c-5.689-2.473-23.045-17.523-23.045-17.523s-.592-1.411-1.3-3.6c.577-.2.865-.319.865-.319s-.743-8.208,1.4-13.7c4.172-6.827,13.624-5.082,13.624-5.082s13.108-5.811,20.178-2.564c7.085,3.247,14.337.743,16.9,3.732s.986,14.655.986,14.655l.561.212Z" transform="translate(-169.81 -132.962)" fill="#fff" opacity="0.5"/>
              <path id="Trazado_816149" data-name="Trazado 816149" d="M336.844,259.924l-45.954-17.492-.561-.212s.167-1.229.3-2.989l-.956,5.962-6.8,9.239a186.216,186.216,0,0,1,21.209,9.346,18.611,18.611,0,0,1,9.74,18.57l-8.466,72.443L301.9,395.919,312.388,406.8c11.045-3.55,50.247-18.16,71.032-52.614,0,0-20.132-66.04-46.545-94.259ZM328.227,367.64c-1.593.819,4.567-16.248,1.638-20.117-2.928-3.884-11.7-3.5-11.7-3.5l.758-4.673c.106-.516,5.2-26.686,5.2-26.686l1.729-2.063s17.872,30.646,21.073,41.433c0,0-19.48,15.6-18.691,15.6Z" transform="translate(-153.95 -127.377)" opacity="0.2"/>
              <path id="Trazado_816150" data-name="Trazado 816150" d="M263.353,337.32l-7.146-23.88s-12.8-43.693-21.6-54.48L236.91,289.7s-7.54,36.714-14.519,47.623c-6.979,10.893-8.481,13.624,0,13.624S251.5,367.389,251.5,367.389l-1.593-13.73L263.338,337.3Zm-17.963,9.239-5.75-5.067,14.443-35.516,6.16,27.263s-9.892-.743-13.275,1.639C243.585,337.274,245.39,346.559,245.39,346.559Z" transform="translate(-188.236 -117.174)" opacity="0.2"/>
              <path id="Trazado_816151" data-name="Trazado 816151" d="M258.02,222.89s1.32,12.88,0,18.767" transform="translate(-166.806 -135.827)" fill="none" stroke="#263238" stroke-linecap="round" stroke-linejoin="round" stroke-width="1.1"/>
              <path id="Trazado_816152" data-name="Trazado 816152" d="M283.65,238.314a55.347,55.347,0,0,1,1.426-12.3" transform="translate(-153.552 -134.213)" fill="none" stroke="#263238" stroke-linecap="round" stroke-linejoin="round" stroke-width="1.1"/>
              <path id="Trazado_816153" data-name="Trazado 816153" d="M303.747,186.19s7.8,9.785,7.388,17.174-1,16.188-.8,24.775S296.54,254.7,289.349,256.312c-7.191,1.593-13.381,2-17.978-2.594s-9.194-10.984-15.186-19.176-4.6-26.17-4.6-26.17" transform="translate(-170.205 -154.805)" fill="none" stroke="#263238" stroke-linecap="round" stroke-linejoin="round" stroke-width="1.1"/>
              <path id="Trazado_816154" data-name="Trazado 816154" d="M273.808,205.32a40.7,40.7,0,0,0-.607,8.147c.061,2.276.395,4.749,2,6.372.865.88,2.109,1.578,2.276,2.807a2.969,2.969,0,0,1-1.593,2.655,22.432,22.432,0,0,0-2.807,1.669" transform="translate(-159.018 -144.913)" fill="none" stroke="#263238" stroke-linecap="round" stroke-linejoin="round" stroke-width="1.1"/>
              <path id="Trazado_816155" data-name="Trazado 816155" d="M265.4,220.21s.9,5.811,8.693,7.024" transform="translate(-162.989 -137.213)" fill="none" stroke="#263238" stroke-linecap="round" stroke-linejoin="round" stroke-width="1.1"/>
              <path id="Trazado_816156" data-name="Trazado 816156" d="M267.047,209.274c0,1.684-.728,3.034-1.623,3.034s-1.623-1.365-1.623-3.034.728-3.034,1.623-3.034S267.047,207.605,267.047,209.274Z" transform="translate(-163.817 -144.437)" fill="#263238"/>
              <path id="Trazado_816157" data-name="Trazado 816157" d="M282.357,209.754c0,1.684-.728,3.034-1.623,3.034s-1.623-1.365-1.623-3.034.728-3.034,1.623-3.034S282.357,208.085,282.357,209.754Z" transform="translate(-155.899 -144.189)" fill="#263238"/>
              <path id="Trazado_816158" data-name="Trazado 816158" d="M278.16,204.932s7.555-7.555,13.942.865" transform="translate(-156.391 -146.725)" fill="none" stroke="#263238" stroke-linecap="round" stroke-linejoin="round" stroke-width="2.21"/>
              <path id="Trazado_816159" data-name="Trazado 816159" d="M271.839,204.784s-4.794-5.371-12.349,0" transform="translate(-166.046 -146.424)" fill="none" stroke="#263238" stroke-linecap="round" stroke-linejoin="round" stroke-width="2.21"/>
              <path id="Trazado_816160" data-name="Trazado 816160" d="M258.606,229.975s4.627,12.744,14.959,16.37c10.332,3.611,24.046-15.156,24.046-15.156l-.713-2.443s-8.982,11.682-18.979,9.679c-10-1.987-19.889-15.535-19.889-15.535l.592,7.07Z" transform="translate(-166.801 -135.827)" fill="#263238"/>
              <path id="Trazado_816161" data-name="Trazado 816161" d="M256.427,221.079s-6.16,2.169-7.8-2.625-7.252-17.432-2.336-21.634c4.916-4.218,8.86,5.553,8.86,5.553" transform="translate(-173.891 -149.855)" fill="none" stroke="#263238" stroke-linecap="round" stroke-linejoin="round" stroke-width="1.1"/>
              <path id="Trazado_816162" data-name="Trazado 816162" d="M290.26,223.155s5.719,1.153,7.358-3.641,7.252-17.432,2.336-21.634c-4.916-4.218-8.86,5.553-8.86,5.553" transform="translate(-150.134 -149.306)" fill="none" stroke="#263238" stroke-linecap="round" stroke-linejoin="round" stroke-width="1.1"/>
              <path id="Trazado_816163" data-name="Trazado 816163" d="M257.435,230.34a8.569,8.569,0,0,0,5.4-3.186,13.762,13.762,0,0,0,1.578-4.84,56.859,56.859,0,0,0,.85-9.755,12.834,12.834,0,0,1,.349-3.808,9.869,9.869,0,0,1,2.063-3.383c2.154-2.518,4.733-4.642,6.781-7.252s3.55-5.9,2.989-9.163c0,0,13.958,12.759,34.09,8.814,10.832-2.124,21.24-11.636,19.98-23.591a9.705,9.705,0,0,0-7.631-8.329c-5.355-1.335-10.165,1.517-15.02,3.353-8.845,3.338-17.508-2.4-26.443-3.353-7.646-.819-17.037.121-21.012,7.722,0,0-13.73,1.608-19.753,12.9s5.416,26.9,5.416,26.9,4.6-5.568,10.514,5.7l-.137,11.272Z" transform="translate(-176.173 -165.503)" fill="#263238"/>
              <path id="Trazado_816164" data-name="Trazado 816164" d="M286.718,185.917s-3.55,18.509,5.72,27.475c0,0,2.033-5.568,4.081-6.918a21.446,21.446,0,0,0-1.623-20.542c-6.782-10.772-8.177,0-8.177,0Z" transform="translate(-152.311 -157.414)" fill="#263238"/>
              <path id="Trazado_816165" data-name="Trazado 816165" d="M322.114,170.41c-1.365,5.1-5.689,9.042-10.574,11.045-12.865,5.234-25.366-.577-38.247-1.714-10.529-.925-22.135,8.557-22.863,19.359" transform="translate(-170.731 -162.966)" fill="none" stroke="#fff" stroke-linecap="round" stroke-linejoin="round" stroke-width="1.1" opacity="0.2"/>
              <path id="Trazado_816166" data-name="Trazado 816166" d="M245.16,194.2a22.472,22.472,0,0,1,13.7-19.844" transform="translate(-173.456 -160.923)" fill="none" stroke="#fff" stroke-linecap="round" stroke-linejoin="round" stroke-width="1.1" opacity="0.2"/>
              <path id="Trazado_816167" data-name="Trazado 816167" d="M256.07,234.632s8.481,9.346,20.041,13.7c0,0,15.4-4.46,23.242-15.2" transform="translate(-167.814 -130.531)" fill="none" stroke="#263238" stroke-linecap="round" stroke-linejoin="round" stroke-width="1.1"/>
              <circle id="Elipse_9150" data-name="Elipse 9150" cx="13.624" cy="13.624" r="13.624" transform="matrix(0.909, -0.417, 0.417, 0.909, 80.224, 58.109)" fill="none" stroke="#263238" stroke-linecap="round" stroke-linejoin="round" stroke-width="1.1"/>
              <circle id="Elipse_9151" data-name="Elipse 9151" cx="13.624" cy="13.624" r="13.624" transform="translate(113.538 53.006) rotate(-7)" fill="none" stroke="#263238" stroke-linecap="round" stroke-linejoin="round" stroke-width="1.1"/>
              <path id="Trazado_816168" data-name="Trazado 816168" d="M260.728,230.77a10.662,10.662,0,0,0-6.554,5.082c-2.412,4.248-.956,17.614-.956,17.614s12.456,12.319,23.06,17.523l3.125-17.584,4.855,17.584s16.415-11.606,20.967-21.422c0,0,1.487-11.439,0-15.2a5.232,5.232,0,0,0-4.9-3.58" transform="translate(-169.514 -131.752)" fill="none" stroke="#263238" stroke-linecap="round" stroke-linejoin="round" stroke-width="1.1"/>
              <path id="Trazado_816169" data-name="Trazado 816169" d="M249.023,323.963s-4.855-32.618-11.333-45.923" transform="translate(-177.319 -107.307)" fill="none" stroke="#263238" stroke-linecap="round" stroke-linejoin="round" stroke-width="1.1"/>
              <path id="Trazado_816170" data-name="Trazado 816170" d="M228.46,258.96a130.714,130.714,0,0,1,10.074,16.855" transform="translate(-182.092 -117.174)" fill="none" stroke="#263238" stroke-linecap="round" stroke-linejoin="round" stroke-width="1.1"/>
              <path id="Trazado_816171" data-name="Trazado 816171" d="M312.77,280.435a94.216,94.216,0,0,1,5.355-15.915" transform="translate(-138.493 -114.299)" fill="none" stroke="#263238" stroke-linecap="round" stroke-linejoin="round" stroke-width="1.1"/>
              <path id="Trazado_816172" data-name="Trazado 816172" d="M306.13,322.21s3.5-22.362,7.692-40.78" transform="translate(-141.927 -105.554)" fill="none" stroke="#263238" stroke-linecap="round" stroke-linejoin="round" stroke-width="1.1"/>
              <path id="Trazado_816173" data-name="Trazado 816173" d="M310.06,290.79a25.65,25.65,0,0,1,13.563-9.27" transform="translate(-139.894 -105.508)" fill="none" stroke="#263238" stroke-linecap="round" stroke-linejoin="round" stroke-width="1.1"/>
              <path id="Trazado_816174" data-name="Trazado 816174" d="M287.78,241.2s28.279,11.287,46.53,17.7c0,0,22.454,21.118,46.53,94.259,0,0-22.074,37.109-64.023,49" transform="translate(-151.416 -126.358)" fill="none" stroke="#263238" stroke-linecap="round" stroke-linejoin="round" stroke-width="1.1"/>
              <path id="Trazado_816175" data-name="Trazado 816175" d="M311.72,332.054l20.269-16.931s10.726-8.147,21.877-2.579" transform="translate(-139.036 -90.471)" fill="none" stroke="#263238" stroke-linecap="round" stroke-linejoin="round" stroke-width="1.1"/>
              <path id="Trazado_816176" data-name="Trazado 816176" d="M311.2,286.28s16.764,24.7,21.058,41.433" transform="translate(-139.305 -103.046)" fill="none" stroke="#263238" stroke-linecap="round" stroke-linejoin="round" stroke-width="1.1"/>
              <path id="Trazado_816177" data-name="Trazado 816177" d="M244.114,319.3l-5.932-5.659s-8.814-1.532-18.782,5.143" transform="translate(-186.777 -88.975)" fill="none" stroke="#263238" stroke-linecap="round" stroke-linejoin="round" stroke-width="1.1"/>
              <path id="Trazado_816178" data-name="Trazado 816178" d="M231.78,326.1s7.373-24.2,14.64-36.7" transform="translate(-180.375 -101.433)" fill="none" stroke="#263238" stroke-linecap="round" stroke-linejoin="round" stroke-width="1.1"/>
              <path id="Trazado_816179" data-name="Trazado 816179" d="M274.666,243.16S233.992,258.422,230,262.867s-19.146,89.814-19.541,99.584c-.364,8.739,31.329,28.355,46.97,36.623" transform="translate(-191.401 -125.345)" fill="none" stroke="#263238" stroke-linecap="round" stroke-linejoin="round" stroke-width="1.1"/>
              <path id="Trazado_816182" data-name="Trazado 816182" d="M274.65,263.07a2.67,2.67,0,1,1-2.67-2.67A2.674,2.674,0,0,1,274.65,263.07Z" transform="translate(-160.967 -116.429)" fill="#263238"/>
              <path id="Trazado_816186" data-name="Trazado 816186" d="M359.762,419.035,349.9,444.917s-25.139-6.341-57.363-12.941c-33.68-6.9-68.862-15.839-87.113-47.85-2.23-3.9-3.7-8.511-2.67-12.88,2.64-11.06,17.022-14.064,26.5-15.171a177.158,177.158,0,0,1,17.948-1.017c3.049-.046,13.123-1.638,15.566.152a70.8,70.8,0,0,0,11.712,6.933c5.386,2.291,84-2.048,84-2.048a28.058,28.058,0,0,0,2.473-9.437c12.365-6.281,40.978-11.606,53.069-9.254,19.01,3.7,30.1,14.792,27.991,26.413S397.948,410.6,359.777,419.05Z" transform="translate(-195.559 -74.834)" fill="#263238"/>
              <path id="Trazado_816187" data-name="Trazado 816187" d="M342.086,407.826s-23.91-6.342-43.45-19.541-34.8-28.522-62.035-25.351" transform="translate(-177.883 -63.624)" fill="none" stroke="#fff" stroke-linecap="round" stroke-linejoin="round" stroke-width="1.1"/>
              <path id="Trazado_816188" data-name="Trazado 816188" d="M274.53,391.506c12.349-3.55,21.407-11.53,31.314-19.207,10.5-8.117,21.589-15.99,33.513-22.029" transform="translate(-158.268 -69.955)" fill="none" stroke="#fff" stroke-linecap="round" stroke-linejoin="round" stroke-width="1.1"/>
              <line id="Línea_3703" data-name="Línea 3703" x2="3.611" transform="translate(111.923 66.992)" fill="none" stroke="#263238" stroke-linecap="round" stroke-linejoin="round" stroke-width="1.1"/>
              <g id="Grupo_1070662" data-name="Grupo 1070662" transform="translate(38.755 188.019)">
                <path id="Trazado_816183" data-name="Trazado 816183" d="M351.591,365.865,244.2,368.878c-1.541,0-2.789-3.437-2.789-7.679h0c0-4.242,1.248-7.679,2.789-7.679H363.216c1.541,0,2.789,3.437,2.789,7.679l-2.789-3.418C363.216,362.023,353.132,365.865,351.591,365.865Z" transform="translate(-228.5 -265.32)" fill="#263238"/>
                <path id="Trazado_816184" data-name="Trazado 816184" d="M373.661,392.833l15.955-74.9a7.981,7.981,0,0,0-7.8-9.635H242.766a7.975,7.975,0,0,0-7.821,9.518l14.3,72.4a7.957,7.957,0,0,0,7.646,6.417l108.8,2.5a7.981,7.981,0,0,0,7.977-6.3Z" transform="translate(-234.791 -308.3)" fill="#fff" stroke="#263238" stroke-linecap="round" stroke-linejoin="round" stroke-width="1.1"/>
                <line id="Línea_3701" data-name="Línea 3701" x2="16.52" transform="translate(109.945 7.119)" fill="none" stroke="#263238" stroke-linecap="round" stroke-linejoin="round" stroke-width="1.1"/>
                <line id="Línea_3702" data-name="Línea 3702" x2="62.727" transform="translate(31.049 7.119)" fill="none" stroke="#263238" stroke-linecap="round" stroke-linejoin="round" stroke-width="1.1"/>
              </g>
            </g>
          </g>
        </g>
        <text id="_Qué_quieres_mostrar_" data-name="¿Qué quieres
 mostrar?" transform="translate(795 1758.795)" fill="#12263f" font-size="18" font-family="Roboto-Black, Roboto" font-weight="800"><tspan x="-53.358" y="0">¿Qué quieres</tspan><tspan x="-38.795" y="24" xml:space="preserve"> mostrar?</tspan></text>
      </g>
    </g>
    <g id="Graphics" transform="translate(860.023 1563.357)">
      <g id="Grupo_1070661" data-name="Grupo 1070661" transform="translate(0 0)">
        <g id="Grupo_1070660" data-name="Grupo 1070660" transform="translate(0)">
          <path id="Trazado_816133" data-name="Trazado 816133" d="M179.25,53.049V93.417A10.775,10.775,0,0,0,190.032,104.2h92.982A10.78,10.78,0,0,0,293.8,93.417V53.049A10.785,10.785,0,0,0,283.014,42.26H190.032A10.781,10.781,0,0,0,179.25,53.049Z" transform="translate(-179.25 -42.26)" fill="#fff" stroke="#222221" stroke-miterlimit="10" stroke-width="1.1"/>
          <path id="Trazado_816134" data-name="Trazado 816134" d="M179.25,53.049v.917H293.8v-.917A10.785,10.785,0,0,0,283.014,42.26H190.032A10.781,10.781,0,0,0,179.25,53.049Z" transform="translate(-179.25 -42.26)" fill="#ffe979" stroke="#263238" stroke-miterlimit="10" stroke-width="1.1"/>
          <path id="Trazado_816135" data-name="Trazado 816135" d="M200.044,52.281a1.654,1.654,0,1,0,0-2.339A1.649,1.649,0,0,0,200.044,52.281Z" transform="translate(-102.33 -44.493)" fill="#263238"/>
          <path id="Trazado_816136" data-name="Trazado 816136" d="M211.166,52.282a1.654,1.654,0,1,0,0-2.339A1.649,1.649,0,0,0,211.166,52.282Z" transform="translate(-121.123 -44.494)" fill="#263238"/>
          <path id="Trazado_816137" data-name="Trazado 816137" d="M222.286,52.281a1.654,1.654,0,1,0,0-2.339A1.649,1.649,0,0,0,222.286,52.281Z" transform="translate(-139.914 -44.493)" fill="#263238"/>
          <rect id="Rectángulo_375032" data-name="Rectángulo 375032" width="37.444" height="32.367" transform="translate(69.797 19.136)" fill="none" stroke="#263238" stroke-linecap="round" stroke-linejoin="round" stroke-width="1.1" stroke-dasharray="0 4.41"/>
          <g id="Grupo_1070659" data-name="Grupo 1070659" transform="translate(14.804 19.136)">
            <rect id="Rectángulo_375033" data-name="Rectángulo 375033" width="43.094" height="2.276" transform="translate(6.126)" fill="#263238"/>
            <rect id="Rectángulo_375034" data-name="Rectángulo 375034" width="33.057" height="2.27" transform="translate(16.163 4.712)" fill="#263238"/>
            <rect id="Rectángulo_375035" data-name="Rectángulo 375035" width="49.219" height="2.297" transform="translate(0 9.402)" fill="#263238"/>
            <rect id="Rectángulo_375036" data-name="Rectángulo 375036" width="41.914" height="2.297" transform="translate(7.305 13.976)" fill="#263238"/>
          </g>
        </g>
      </g>
    </g>
    <g id="Window-2" data-name="Window" transform="translate(614.255 1588.369)">
      <g id="Grupo_1070653-2" data-name="Grupo 1070653" transform="translate(0 0)">
        <path id="Trazado_816119-2" data-name="Trazado 816119" d="M127.989,74.394V118.77a5.469,5.469,0,0,1-5.469,5.469H44.469A5.469,5.469,0,0,1,39,118.77V74.394c0-.131,0-.259.017-.387a5.468,5.468,0,0,1,5.454-5.087h78.049a5.469,5.469,0,0,1,5.454,5.087c.01.128.017.256.017.387Z" transform="translate(-39 -68.92)" fill="#fff" stroke="#263238" stroke-linecap="round" stroke-linejoin="round" stroke-width="1.1"/>
        <path id="Trazado_816120-2" data-name="Trazado 816120" d="M49.8,97.89h83.945v40.993a5.129,5.129,0,0,1-5.126,5.126H54.926a5.129,5.129,0,0,1-5.126-5.126V97.89Z" transform="translate(-47.138 -90.75)" fill="#263238"/>
        <path id="Trazado_816121-2" data-name="Trazado 816121" d="M133.745,97.88v41a5.1,5.1,0,0,1-5.07,5.124H54.87a5.1,5.1,0,0,1-5.07-5.124v-41h83.947Z" transform="translate(-47.138 -90.743)" fill="#fff" opacity="0.2"/>
        <path id="Trazado_816122-2" data-name="Trazado 816122" d="M128.017,74.017H39.06a5.468,5.468,0,0,1,5.454-5.087h78.049A5.469,5.469,0,0,1,128.017,74.017Z" transform="translate(-39.045 -68.928)" fill="#ffe979" stroke="#263238" stroke-miterlimit="10" stroke-width="1.1"/>
        <path id="Trazado_816123-2" data-name="Trazado 816123" d="M77.5,76.289a.969.969,0,1,1-.969-.969A.969.969,0,0,1,77.5,76.289Z" transform="translate(-66.55 -73.743)" fill="#263238"/>
        <path id="Trazado_816124-2" data-name="Trazado 816124" d="M94.117,76.289a.969.969,0,1,1-.969-.969A.969.969,0,0,1,94.117,76.289Z" transform="translate(-79.074 -73.743)" fill="#263238"/>
        <circle id="Elipse_9149-2" data-name="Elipse 9149" cx="0.969" cy="0.969" r="0.969" transform="translate(17.202 1.577)" fill="#263238"/>
        <path id="Trazado_816125-2" data-name="Trazado 816125" d="M133.745,97.89v40.993a5.127,5.127,0,0,1-5.126,5.126H54.926a5.127,5.127,0,0,1-5.028-4.133h0v-.015a5.17,5.17,0,0,1-.1-.981V97.89Z" transform="translate(-47.138 -90.75)" fill="none" stroke="#263238" stroke-miterlimit="10" stroke-width="1.1"/>
        <path id="Trazado_816126-2" data-name="Trazado 816126" d="M360.378,115.889a5.16,5.16,0,0,0-1.139-.471l-.458-2.058h-1.957l-.456,2.058a4.972,4.972,0,0,0-1.141.471l-1.767-1.131-1.383,1.383,1.112,1.767a5,5,0,0,0-.471,1.141l-2.058.456v1.957l2.058.458a4.979,4.979,0,0,0,.471,1.151l-1.131,1.777,1.383,1.383,1.777-1.131a5.024,5.024,0,0,0,1.141.473l.456,2.055h1.957l.458-2.055a5.122,5.122,0,0,0,1.139-.473l.089.057v-9.326l-.081.052Zm-2.573,7.137a2.529,2.529,0,1,1,2.529-2.529A2.528,2.528,0,0,1,357.8,123.026Z" transform="translate(-273.85 -102.408)" fill="#263238"/>
        <path id="Trazado_816127-2" data-name="Trazado 816127" d="M154.914,106.213v-4.128l-4.34-.961a11.216,11.216,0,0,0-.993-2.408l.525-.826h-20.48l.505.806a10.732,10.732,0,0,0-.991,2.405l-4.34.966v4.126l4.34.969a10.767,10.767,0,0,0,.991,2.425l-2.383,3.749,2.92,2.918,3.746-2.383a11.059,11.059,0,0,0,2.408,1l.961,4.333h4.128l.971-4.333a11.123,11.123,0,0,0,2.4-1l3.749,2.383,2.918-2.918-2.368-3.749a11.3,11.3,0,0,0,.993-2.4l4.34-.969Zm-15.034,3.268a5.331,5.331,0,1,1,5.331-5.331A5.331,5.331,0,0,1,139.881,109.481Z" transform="translate(-103.654 -90.75)" fill="#263238"/>
        <path id="Sustracción_12" data-name="Sustracción 12" d="M7083.116,10135.705h0l-3.273-.176-.025-.14-.56-3.342a8.346,8.346,0,0,1-1.875-.906l-3.081,1.74-1.458-1.626,0-.01-.1-1.7,1.417-1.981a8.716,8.716,0,0,1-.694-1.954l-.72-.2v-4.434l.995-.163a8.408,8.408,0,0,1,.9-1.867l-1.74-3.078,2.442-2.2,2.877,2.051a8.606,8.606,0,0,1,1.948-.689l.946-3.4,3.271.175.587,3.48a9.1,9.1,0,0,1,1.87.893l3.073-1.737,2.2,2.439-2.053,2.877a9.236,9.236,0,0,1,.7,1.948l3.393.954-.175,3.273-3.487.588a8.4,8.4,0,0,1-.888,1.864l1.735,3.078-2.442,2.2-2.872-2.048a8.821,8.821,0,0,1-1.956.689l-.86,3.091-.086.312Zm-.87-16.437a4,4,0,1,0,4,4A4,4,0,0,0,7082.246,10119.268Z" transform="translate(-7070 -10082.136)" fill="#263238"/>
        <path id="Trazado_816129-2" data-name="Trazado 816129" d="M194.765,194.239a6.717,6.717,0,0,0,.2-1.55l2.354-1.237-.651-2.388-2.657.123a6.537,6.537,0,0,0-.954-1.232l.786-2.541-2.144-1.23-1.794,1.959a6.929,6.929,0,0,0-1.545-.2l-1.242-2.356-2.383.648.126,2.659a6.632,6.632,0,0,0-1.235.954l-2.541-.784-1.23,2.142L181.823,191a6.427,6.427,0,0,0-.195,1.545l-2.359,1.242.651,2.388,2.659-.126a6.416,6.416,0,0,0,.951,1.235l-.791,2.529,2.144,1.23,1.784-1.942a6.431,6.431,0,0,0,1.548.195l1.24,2.356,2.383-.648-.1-2.272-.017-.389a6.51,6.51,0,0,0,1.247-.954l2.541.789,1.05-1.834.18-.311-1.967-1.792Zm-5.636,1.449a3.194,3.194,0,1,1,2.243-3.921A3.195,3.195,0,0,1,189.128,195.688Z" transform="translate(-144.7 -155.329)" fill="#263238"/>
        <path id="Trazado_816130-2" data-name="Trazado 816130" d="M279.779,195.417l.545-3.275-3.317-1.336a8.845,8.845,0,0,0-.476-2.046l2.388-2.659-1.932-2.7-3.293,1.4a8.7,8.7,0,0,0-1.777-1.1l-.192-3.571-3.278-.542-1.343,3.3a9.163,9.163,0,0,0-2.036.478l-2.667-2.388-2.7,1.932,1.4,3.29a8.935,8.935,0,0,0-1,1.55c-.037.076-.076.153-.111.229l-3.569.2-.545,3.273.537.217,2.778,1.119a8.672,8.672,0,0,0,.476,2.036l-2.388,2.667,1.932,2.7,3.293-1.4a8.511,8.511,0,0,0,1.774,1.112l.185,3.556,3.275.542,1.341-3.278a8.657,8.657,0,0,0,2.041-.478l2.662,2.391,2.7-1.935-1.4-3.293a8.685,8.685,0,0,0,1.124-1.787l3.569-.195Zm-9.193-.148a4.291,4.291,0,1,1,.991-5.986A4.292,4.292,0,0,1,270.586,195.269Z" transform="translate(-202.429 -152.307)" fill="#263238"/>
      </g>
    </g>
  </g>
</svg>
