<svg xmlns="http://www.w3.org/2000/svg" width="70" height="70.009" viewBox="0 0 70 70.009">
  <g id="python" transform="translate(-1.853 -1.836)">
    <path id="Trazado_801223" data-name="Trazado 801223" d="M123.254,81.274a37.917,37.917,0,0,1-.036,17.54,7.461,7.461,0,0,1-7.268,5.756h-11.4v11.4a7.463,7.463,0,0,1-5.917,7.306,37.91,37.91,0,0,1-17.359,0,7.465,7.465,0,0,1-5.926-7.307V97.435a7.467,7.467,0,0,1,7.467-7.467H97.086a7.467,7.467,0,0,0,7.467-7.466V75.368h11.4a7.461,7.461,0,0,1,7.3,5.906Z" transform="translate(-53.106 -53.13)" fill="#f7cd00"/>
    <path id="Trazado_801224" data-name="Trazado 801224" d="M53.22,12.641V31.172a7.467,7.467,0,0,1-7.467,7.467H31.485A7.467,7.467,0,0,0,24.018,46.1v7.134h-11.4a7.461,7.461,0,0,1-7.267-5.751,37.926,37.926,0,0,1,0-17.7,7.461,7.461,0,0,1,7.267-5.751h11.4V12.64a7.464,7.464,0,0,1,5.906-7.3,37.913,37.913,0,0,1,17.353-.008,7.467,7.467,0,0,1,5.942,7.312Z" transform="translate(-1.772 -1.799)" fill="#2981b7"/>
    <circle id="Elipse_8473" data-name="Elipse 8473" cx="2.333" cy="2.333" r="2.333" transform="translate(27.735 11.746) rotate(-22.514)" fill="#fff"/>
    <circle id="Elipse_8474" data-name="Elipse 8474" cx="2.333" cy="2.333" r="2.333" transform="translate(40.582 58.329)" fill="#fff"/>
    <path id="Trazado_801225" data-name="Trazado 801225" d="M168.169,125.128a.694.694,0,0,1-.694-.694v-1.347a.694.694,0,0,1,1.387,0v1.347A.694.694,0,0,1,168.169,125.128Zm0-4.121a.694.694,0,0,1-.694-.694V108.995a.694.694,0,0,1,.694-.694h14.344a2.873,2.873,0,0,0,2.811-2.225,33.54,33.54,0,0,0,0-15.6,2.869,2.869,0,0,0-2.809-2.217.694.694,0,1,1,0-1.387,4.255,4.255,0,0,1,4.194,3.432,34.925,34.925,0,0,1-.033,16.092,4.254,4.254,0,0,1-4.162,3.3H168.864v10.625a.694.694,0,0,1-.7.694Z" transform="translate(-119.669 -61.439)" fill="#f9e5af"/>
    <path id="Trazado_801226" data-name="Trazado 801226" d="M59.545,60.7A.694.694,0,0,1,58.851,60V58.761a.694.694,0,1,1,1.387,0V60A.694.694,0,0,1,59.545,60.7Zm-.021-4.019a.694.694,0,0,1-.646-.738A12.072,12.072,0,0,1,70.9,44.71H85.164a2.892,2.892,0,0,0,2.889-2.889V23.29a2.872,2.872,0,0,0-2.223-2.811l-.186-.045a.694.694,0,1,1,.316-1.351l.186.044a4.254,4.254,0,0,1,3.294,4.162V41.82A4.281,4.281,0,0,1,85.164,46.1H70.9a10.682,10.682,0,0,0-10.633,9.937.694.694,0,0,1-.738.646Z" transform="translate(-41.184 -12.449)" fill="#c5e5ff"/>
    <path id="Trazado_801227" data-name="Trazado 801227" d="M71.254,69.089A8.167,8.167,0,0,0,63.313,62.8H52.606v-3.21a.694.694,0,0,0-1.384-.006.01.01,0,0,0,0,.006v11.04a6.8,6.8,0,0,1-6.773,6.773H30.18a8.154,8.154,0,0,0-8.16,8.16v6.44h-10.7a6.737,6.737,0,0,1-6.592-5.216,37.552,37.552,0,0,1-.838-4.93A.694.694,0,0,0,2.5,82a38.9,38.9,0,0,0,.868,5.108,8.159,8.159,0,0,0,7.944,6.284h10.7v10.7a8.16,8.16,0,0,0,6.443,7.98,38.287,38.287,0,0,0,17.754-.011A8.165,8.165,0,0,0,52.61,104.1v-10.7h3.332a.694.694,0,0,0,0-1.387H37.314a.694.694,0,0,0,0,1.387H51.222v10.7a6.74,6.74,0,0,1-5.383,6.631,37.374,37.374,0,0,1-17.041,0,6.744,6.744,0,0,1-5.391-6.634V85.566a6.8,6.8,0,0,1,6.773-6.773h14.27a8.163,8.163,0,0,0,8.16-8.16V64.192h10.7a6.739,6.739,0,0,1,6.6,5.28.934.934,0,0,1,.022.094A37.371,37.371,0,0,1,69.9,86.788a6.736,6.736,0,0,1-6.592,5.219h-1.82a.694.694,0,1,0,0,1.387h1.82a8.157,8.157,0,0,0,7.944-6.29c1.726-7.269,1.084-12.115,0-18.015Z" transform="translate(-0.468 -41.261)"/>
    <circle id="Elipse_8475" data-name="Elipse 8475" cx="0.694" cy="0.694" r="0.694" transform="translate(57.555 50.746)"/>
    <path id="Trazado_801228" data-name="Trazado 801228" d="M178.786,48.794a.694.694,0,1,0,.691.694A.694.694,0,0,0,178.786,48.794Z" transform="translate(-127.339 -33.929)"/>
    <path id="Trazado_801229" data-name="Trazado 801229" d="M2.636,35.821a.694.694,0,0,0,.694-.658v-.006A37.25,37.25,0,0,1,4.32,28.15a6.736,6.736,0,0,1,6.592-5.219h26a.694.694,0,0,0,0-1.387H23v-10.7a6.737,6.737,0,0,1,5.372-6.63,37.331,37.331,0,0,1,17.091.006,6.742,6.742,0,0,1,5.349,6.623v1.942a.7.7,0,0,0,1.39,0l0-1.942a8.158,8.158,0,0,0-6.476-7.988,38.753,38.753,0,0,0-17.671.008,8.165,8.165,0,0,0-6.44,7.98v10.7h-10.7A8.168,8.168,0,0,0,2.927,28,38.931,38.931,0,0,0,1.942,35.1a.694.694,0,0,0,.694.725Z" transform="translate(-0.064)"/>
    <path id="Trazado_801230" data-name="Trazado 801230" d="M2.566,130.71A.7.7,0,0,0,3.241,130a.686.686,0,0,0-.713-.674.694.694,0,1,0,.039,1.387Z" transform="translate(0 -92.114)"/>
    <path id="Trazado_801231" data-name="Trazado 801231" d="M95.192,34.247a3.027,3.027,0,1,0,3.027-3.027A3.027,3.027,0,0,0,95.192,34.247Zm4.667,0a1.64,1.64,0,1,1-1.64-1.64A1.64,1.64,0,0,1,99.859,34.247Z" transform="translate(-67.442 -21.231)"/>
    <path id="Trazado_801232" data-name="Trazado 801232" d="M144.993,205.972A3.027,3.027,0,1,0,141.966,209,3.027,3.027,0,0,0,144.993,205.972Zm-4.667,0a1.64,1.64,0,1,1,1.64,1.64A1.64,1.64,0,0,1,140.326,205.972Z" transform="translate(-99.051 -145.31)"/>
  </g>
</svg>
