<svg xmlns="http://www.w3.org/2000/svg" width="85.044" height="56.828" viewBox="0 0 85.044 56.828">
  <g id="Grupo_1080923" data-name="Grupo 1080923" transform="translate(-1335.529 -9227.672)">
    <g id="Grupo_1079678" data-name="Grupo 1079678" transform="translate(1391.537 9228.379)">
      <path id="Trazado_821483" data-name="Trazado 821483" d="M72.966,39.75,65.02,47.7l7.946,7.938" transform="translate(-44.961 -39.75)" fill="none" stroke="#3a3e44" stroke-linecap="round" stroke-linejoin="round" stroke-width="1"/>
      <path id="Trazado_821484" data-name="Trazado 821484" d="M85.386,39.75,77.44,47.7l7.946,7.938" transform="translate(-67.411 -39.75)" fill="none" stroke="#3a3e44" stroke-linecap="round" stroke-linejoin="round" stroke-width="1"/>
      <path id="Trazado_821485" data-name="Trazado 821485" d="M97.806,39.75,89.86,47.7l7.946,7.938" transform="translate(-89.86 -39.75)" fill="none" stroke="#3a3e44" stroke-linecap="round" stroke-linejoin="round" stroke-width="1"/>
    </g>
    <g id="Grupo_1079682" data-name="Grupo 1079682" transform="translate(0.529 9)">
      <path id="Trazado_821495" data-name="Trazado 821495" d="M23.65,85.261a2.581,2.581,0,1,0,2.581-2.571A2.583,2.583,0,0,0,23.65,85.261Z" transform="translate(1391.232 9162.126)" fill="#3a3e44"/>
      <path id="Trazado_821496" data-name="Trazado 821496" d="M39.37,85.261a2.576,2.576,0,1,0,2.581-2.571A2.583,2.583,0,0,0,39.37,85.261Z" transform="translate(1361.136 9162.126)" fill="#3a3e44"/>
      <path id="Trazado_821497" data-name="Trazado 821497" d="M55.08,85.261a2.576,2.576,0,1,0,2.581-2.571A2.583,2.583,0,0,0,55.08,85.261Z" transform="translate(1329.049 9162.126)" fill="#3a3e44"/>
      <path id="Trazado_827279" data-name="Trazado 827279" d="M55.08,85.261a2.576,2.576,0,1,0,2.581-2.571A2.583,2.583,0,0,0,55.08,85.261Z" transform="translate(1312.673 9162.126)" fill="#3a3e44"/>
      <path id="Trazado_827282" data-name="Trazado 827282" d="M55.08,85.261a2.576,2.576,0,1,0,2.581-2.571A2.583,2.583,0,0,0,55.08,85.261Z" transform="translate(1296.296 9162.126)" fill="#3a3e44"/>
      <path id="Trazado_827285" data-name="Trazado 827285" d="M55.08,85.261a2.576,2.576,0,1,0,2.581-2.571A2.583,2.583,0,0,0,55.08,85.261Z" transform="translate(1279.92 9162.126)" fill="#3a3e44"/>
      <path id="Trazado_821498" data-name="Trazado 821498" d="M23.65,99.211a2.581,2.581,0,1,0,2.581-2.571A2.583,2.583,0,0,0,23.65,99.211Z" transform="translate(1391.232 9160.942)" fill="#3a3e44"/>
      <path id="Trazado_821499" data-name="Trazado 821499" d="M39.37,99.211a2.576,2.576,0,1,0,2.581-2.571A2.583,2.583,0,0,0,39.37,99.211Z" transform="translate(1361.136 9160.942)" fill="#3a3e44"/>
      <path id="Trazado_821500" data-name="Trazado 821500" d="M55.08,99.211a2.576,2.576,0,1,0,2.581-2.571A2.583,2.583,0,0,0,55.08,99.211Z" transform="translate(1329.049 9160.942)" fill="#3a3e44"/>
      <path id="Trazado_827280" data-name="Trazado 827280" d="M55.08,99.211a2.576,2.576,0,1,0,2.581-2.571A2.583,2.583,0,0,0,55.08,99.211Z" transform="translate(1312.673 9160.942)" fill="#3a3e44"/>
      <path id="Trazado_827283" data-name="Trazado 827283" d="M55.08,99.211a2.576,2.576,0,1,0,2.581-2.571A2.583,2.583,0,0,0,55.08,99.211Z" transform="translate(1296.296 9160.942)" fill="#3a3e44"/>
      <path id="Trazado_827286" data-name="Trazado 827286" d="M55.08,99.211a2.576,2.576,0,1,0,2.581-2.571A2.583,2.583,0,0,0,55.08,99.211Z" transform="translate(1279.92 9160.942)" fill="#3a3e44"/>
      <path id="Trazado_821501" data-name="Trazado 821501" d="M23.65,113.161a2.581,2.581,0,1,0,2.581-2.581A2.583,2.583,0,0,0,23.65,113.161Z" transform="translate(1391.232 9159.759)" fill="#3a3e44"/>
      <path id="Trazado_821502" data-name="Trazado 821502" d="M39.37,113.161a2.576,2.576,0,1,0,2.581-2.581A2.583,2.583,0,0,0,39.37,113.161Z" transform="translate(1361.136 9159.759)" fill="#3a3e44"/>
      <path id="Trazado_821503" data-name="Trazado 821503" d="M55.08,113.161a2.576,2.576,0,1,0,2.581-2.581A2.583,2.583,0,0,0,55.08,113.161Z" transform="translate(1329.049 9159.759)" fill="#3a3e44"/>
      <path id="Trazado_827281" data-name="Trazado 827281" d="M55.08,113.161a2.576,2.576,0,1,0,2.581-2.581A2.583,2.583,0,0,0,55.08,113.161Z" transform="translate(1312.673 9159.759)" fill="#3a3e44"/>
      <path id="Trazado_827284" data-name="Trazado 827284" d="M55.08,113.161a2.576,2.576,0,1,0,2.581-2.581A2.583,2.583,0,0,0,55.08,113.161Z" transform="translate(1296.296 9159.759)" fill="#3a3e44"/>
      <path id="Trazado_827287" data-name="Trazado 827287" d="M55.08,113.161a2.576,2.576,0,1,0,2.581-2.581A2.583,2.583,0,0,0,55.08,113.161Z" transform="translate(1279.92 9159.759)" fill="#3a3e44"/>
    </g>
  </g>
</svg>
