<svg xmlns="http://www.w3.org/2000/svg" xmlns:xlink="http://www.w3.org/1999/xlink" width="400" height="702" viewBox="0 0 400 702">
  <defs>
    <clipPath id="clip-path">
      <rect id="Rectángulo_381333" data-name="Rectángulo 381333" width="400" height="702" transform="translate(180 11323)" fill="#021456" opacity="0.15"/>
    </clipPath>
    <clipPath id="clip-path-2">
      <rect id="Rectángulo_381259" data-name="Rectángulo 381259" width="119.545" height="90.1" fill="none"/>
    </clipPath>
    <clipPath id="clip-path-3">
      <rect id="Rectángulo_381279" data-name="Rectángulo 381279" width="122.782" height="92.541" fill="none"/>
    </clipPath>
    <clipPath id="clip-path-4">
      <rect id="Rectángulo_381331" data-name="Rectángulo 381331" width="119.715" height="90.229" fill="none"/>
    </clipPath>
  </defs>
  <g id="Enmascarar_grupo_1075559" data-name="Enmascarar grupo 1075559" transform="translate(-180 -11323)" clip-path="url(#clip-path)">
    <g id="Grupo_1080117" data-name="Grupo 1080117" transform="translate(-33.182 6507.549)">
      <rect id="Rectángulo_381258" data-name="Rectángulo 381258" width="210" height="687.83" rx="6" transform="translate(386.471 4830)" fill="#fff9cc"/>
      <g id="Grupo_1080116" data-name="Grupo 1080116" transform="translate(241.607 4854.352)">
        <g id="Grupo_1080102" data-name="Grupo 1080102" transform="translate(-5.999 0.044)">
          <path id="Trazado_827514" data-name="Trazado 827514" d="M65.02,39.75l8.161,8.161L65.02,56.065" transform="translate(-65.02 -39.749)" fill="none" stroke="#3a3e44" stroke-linecap="round" stroke-linejoin="round" stroke-width="1"/>
          <path id="Trazado_827515" data-name="Trazado 827515" d="M77.44,39.75,85.6,47.911,77.44,56.065" transform="translate(-67.139 -39.749)" fill="none" stroke="#3a3e44" stroke-linecap="round" stroke-linejoin="round" stroke-width="1"/>
          <path id="Trazado_827516" data-name="Trazado 827516" d="M89.86,39.75l8.161,8.161L89.86,56.065" transform="translate(-69.258 -39.749)" fill="none" stroke="#3a3e44" stroke-linecap="round" stroke-linejoin="round" stroke-width="1"/>
        </g>
        <g id="Grupo_1080103" data-name="Grupo 1080103" transform="translate(297.912 510.417)">
          <path id="Trazado_827517" data-name="Trazado 827517" d="M75.756,39.75,65.02,50.486,75.756,61.211" transform="translate(-37.918 -39.75)" fill="none" stroke="#3a3e44" stroke-linecap="round" stroke-linejoin="round" stroke-width="1"/>
          <path id="Trazado_827518" data-name="Trazado 827518" d="M88.176,39.75,77.44,50.486,88.176,61.211" transform="translate(-63.889 -39.75)" fill="none" stroke="#3a3e44" stroke-linecap="round" stroke-linejoin="round" stroke-width="1"/>
          <path id="Trazado_827519" data-name="Trazado 827519" d="M100.6,39.75,89.86,50.486,100.6,61.211" transform="translate(-89.86 -39.75)" fill="none" stroke="#3a3e44" stroke-linecap="round" stroke-linejoin="round" stroke-width="1"/>
        </g>
        <g id="Grupo_1080107" data-name="Grupo 1080107" transform="translate(342.558 211.717)">
          <g id="Grupo_1080104" data-name="Grupo 1080104" transform="translate(0 0)">
            <path id="Trazado_827520" data-name="Trazado 827520" d="M590.968,263.481a1.784,1.784,0,1,1-1.787-1.781A1.789,1.789,0,0,1,590.968,263.481Z" transform="translate(-587.4 -261.7)" fill="#12263f"/>
            <path id="Trazado_827521" data-name="Trazado 827521" d="M606.678,263.481a1.784,1.784,0,1,1-1.787-1.781A1.789,1.789,0,0,1,606.678,263.481Z" transform="translate(-593.153 -261.7)" fill="#12263f"/>
            <path id="Trazado_827522" data-name="Trazado 827522" d="M622.378,263.481a1.784,1.784,0,1,1-1.787-1.781A1.789,1.789,0,0,1,622.378,263.481Z" transform="translate(-598.902 -261.7)" fill="#12263f"/>
          </g>
          <g id="Grupo_1080105" data-name="Grupo 1080105" transform="translate(0 8.835)">
            <path id="Trazado_827523" data-name="Trazado 827523" d="M590.968,277.427a1.784,1.784,0,1,1-1.787-1.787A1.784,1.784,0,0,1,590.968,277.427Z" transform="translate(-587.4 -275.64)" fill="#12263f"/>
            <path id="Trazado_827524" data-name="Trazado 827524" d="M606.678,277.427a1.784,1.784,0,1,1-1.787-1.787A1.784,1.784,0,0,1,606.678,277.427Z" transform="translate(-593.153 -275.64)" fill="#12263f"/>
            <path id="Trazado_827525" data-name="Trazado 827525" d="M622.378,277.427a1.784,1.784,0,1,1-1.787-1.787A1.784,1.784,0,0,1,622.378,277.427Z" transform="translate(-598.902 -275.64)" fill="#12263f"/>
          </g>
          <g id="Grupo_1080106" data-name="Grupo 1080106" transform="translate(0 17.67)">
            <path id="Trazado_827526" data-name="Trazado 827526" d="M590.968,291.367a1.784,1.784,0,1,1-1.787-1.787A1.784,1.784,0,0,1,590.968,291.367Z" transform="translate(-587.4 -289.58)" fill="#12263f"/>
            <path id="Trazado_827527" data-name="Trazado 827527" d="M606.678,291.367a1.784,1.784,0,1,1-1.787-1.787A1.784,1.784,0,0,1,606.678,291.367Z" transform="translate(-593.153 -289.58)" fill="#12263f"/>
            <path id="Trazado_827528" data-name="Trazado 827528" d="M622.378,291.367a1.784,1.784,0,1,1-1.787-1.787A1.784,1.784,0,0,1,622.378,291.367Z" transform="translate(-598.902 -289.58)" fill="#12263f"/>
          </g>
        </g>
        <g id="Grupo_1080111" data-name="Grupo 1080111" transform="translate(-6 31.098)">
          <g id="Grupo_1080108" data-name="Grupo 1080108" transform="translate(0 -0.001)">
            <path id="Trazado_827529" data-name="Trazado 827529" d="M30.4,86.055a3.377,3.377,0,1,1-3.377-3.365A3.381,3.381,0,0,1,30.4,86.055Z" transform="translate(-23.65 -82.69)" fill="#3a3e44"/>
            <path id="Trazado_827530" data-name="Trazado 827530" d="M46.112,86.055a3.371,3.371,0,1,1-3.377-3.365A3.381,3.381,0,0,1,46.112,86.055Z" transform="translate(-20.545 -82.69)" fill="#3a3e44"/>
            <path id="Trazado_827531" data-name="Trazado 827531" d="M61.822,86.055a3.371,3.371,0,1,1-3.377-3.365A3.381,3.381,0,0,1,61.822,86.055Z" transform="translate(-17.441 -82.69)" fill="#3a3e44"/>
          </g>
          <g id="Grupo_1080109" data-name="Grupo 1080109" transform="translate(0 16.705)">
            <path id="Trazado_827532" data-name="Trazado 827532" d="M30.4,100.005a3.377,3.377,0,1,1-3.377-3.365A3.381,3.381,0,0,1,30.4,100.005Z" transform="translate(-23.65 -96.64)" fill="#3a3e44"/>
            <path id="Trazado_827533" data-name="Trazado 827533" d="M46.112,100.005a3.371,3.371,0,1,1-3.377-3.365A3.381,3.381,0,0,1,46.112,100.005Z" transform="translate(-20.545 -96.64)" fill="#3a3e44"/>
            <path id="Trazado_827534" data-name="Trazado 827534" d="M61.822,100.005a3.371,3.371,0,1,1-3.377-3.365A3.381,3.381,0,0,1,61.822,100.005Z" transform="translate(-17.441 -96.64)" fill="#3a3e44"/>
          </g>
          <g id="Grupo_1080110" data-name="Grupo 1080110" transform="translate(0 33.398)">
            <path id="Trazado_827535" data-name="Trazado 827535" d="M30.4,113.957a3.377,3.377,0,1,1-3.377-3.377A3.381,3.381,0,0,1,30.4,113.957Z" transform="translate(-23.65 -110.58)" fill="#3a3e44"/>
            <path id="Trazado_827536" data-name="Trazado 827536" d="M46.112,113.957a3.371,3.371,0,1,1-3.377-3.377A3.381,3.381,0,0,1,46.112,113.957Z" transform="translate(-20.545 -110.58)" fill="#3a3e44"/>
            <path id="Trazado_827537" data-name="Trazado 827537" d="M61.822,113.957a3.371,3.371,0,1,1-3.377-3.377A3.381,3.381,0,0,1,61.822,113.957Z" transform="translate(-17.441 -110.58)" fill="#3a3e44"/>
          </g>
        </g>
        <g id="Grupo_1080115" data-name="Grupo 1080115" transform="translate(277.37 551.265)">
          <g id="Grupo_1080112" data-name="Grupo 1080112" transform="translate(0 0)">
            <path id="Trazado_827538" data-name="Trazado 827538" d="M23.65,87.117a4.442,4.442,0,1,0,4.442-4.427A4.447,4.447,0,0,0,23.65,87.117Z" transform="translate(25.846 -82.69)" fill="#3a3e44"/>
            <path id="Trazado_827539" data-name="Trazado 827539" d="M39.37,87.117a4.434,4.434,0,1,0,4.442-4.427A4.447,4.447,0,0,0,39.37,87.117Z" transform="translate(-14.622 -82.69)" fill="#3a3e44"/>
            <path id="Trazado_827540" data-name="Trazado 827540" d="M55.08,87.117a4.434,4.434,0,1,0,4.442-4.427A4.447,4.447,0,0,0,55.08,87.117Z" transform="translate(-55.08 -82.69)" fill="#3a3e44"/>
          </g>
          <g id="Grupo_1080113" data-name="Grupo 1080113" transform="translate(0 21.975)">
            <path id="Trazado_827541" data-name="Trazado 827541" d="M23.65,101.067a4.442,4.442,0,1,0,4.442-4.427A4.447,4.447,0,0,0,23.65,101.067Z" transform="translate(25.846 -96.64)" fill="#3a3e44"/>
            <path id="Trazado_827542" data-name="Trazado 827542" d="M39.37,101.067a4.434,4.434,0,1,0,4.442-4.427A4.447,4.447,0,0,0,39.37,101.067Z" transform="translate(-14.622 -96.64)" fill="#3a3e44"/>
            <path id="Trazado_827543" data-name="Trazado 827543" d="M55.08,101.067a4.434,4.434,0,1,0,4.442-4.427A4.447,4.447,0,0,0,55.08,101.067Z" transform="translate(-55.08 -96.64)" fill="#3a3e44"/>
          </g>
          <g id="Grupo_1080114" data-name="Grupo 1080114" transform="translate(0 43.935)">
            <path id="Trazado_827544" data-name="Trazado 827544" d="M23.65,115.022a4.442,4.442,0,1,0,4.442-4.442A4.447,4.447,0,0,0,23.65,115.022Z" transform="translate(25.846 -110.58)" fill="#3a3e44"/>
            <path id="Trazado_827545" data-name="Trazado 827545" d="M39.37,115.022a4.434,4.434,0,1,0,4.442-4.442A4.447,4.447,0,0,0,39.37,115.022Z" transform="translate(-14.622 -110.58)" fill="#3a3e44"/>
            <path id="Trazado_827546" data-name="Trazado 827546" d="M55.08,115.022a4.434,4.434,0,1,0,4.442-4.442A4.447,4.447,0,0,0,55.08,115.022Z" transform="translate(-55.08 -110.58)" fill="#3a3e44"/>
          </g>
        </g>
      </g>
    </g>
    <g id="Grupo_1080121" data-name="Grupo 1080121" transform="translate(190.111 11492.824)">
      <g id="Grupo_1080120" data-name="Grupo 1080120" transform="translate(2.961 4.738)" opacity="0.2">
        <g id="Grupo_1080119" data-name="Grupo 1080119">
          <g id="Grupo_1080118" data-name="Grupo 1080118" clip-path="url(#clip-path-2)">
            <path id="Trazado_827547" data-name="Trazado 827547" d="M116.84,159.216H11.061a6.883,6.883,0,0,1-6.883-6.883V76a6.883,6.883,0,0,1,6.883-6.883H116.84A6.883,6.883,0,0,1,123.723,76v76.335a6.883,6.883,0,0,1-6.883,6.883" transform="translate(-4.177 -69.116)"/>
          </g>
        </g>
      </g>
      <path id="Trazado_827548" data-name="Trazado 827548" d="M113.162,153.332H7.383A6.883,6.883,0,0,1,.5,146.449V70.115a6.883,6.883,0,0,1,6.883-6.883H113.162a6.883,6.883,0,0,1,6.883,6.883v76.335a6.883,6.883,0,0,1-6.883,6.883" transform="translate(-0.5 -63.232)" fill="#fff"/>
      <rect id="Rectángulo_381260" data-name="Rectángulo 381260" width="119.545" height="90.1" rx="8.548" transform="translate(0 0)" fill="none" stroke="#263238" stroke-linecap="round" stroke-linejoin="round" stroke-width="1"/>
      <path id="Trazado_827549" data-name="Trazado 827549" d="M42.009,107.881,16.436,116.19A26.889,26.889,0,0,1,33.7,82.308a25.564,25.564,0,0,1,8.31-1.317Z" transform="translate(-3.347 -66.692)" fill="#78f0f4"/>
      <path id="Trazado_827550" data-name="Trazado 827550" d="M42.009,107.881,16.436,116.19A26.889,26.889,0,0,1,33.7,82.308a25.564,25.564,0,0,1,8.31-1.317Z" transform="translate(-3.347 -66.692)" fill="none" stroke="#263238" stroke-linecap="round" stroke-linejoin="round" stroke-width="1"/>
      <path id="Trazado_827551" data-name="Trazado 827551" d="M42.329,114.386,58.134,136.14a26.889,26.889,0,0,1-37.559-5.949,25.559,25.559,0,0,1-3.819-7.5Z" transform="translate(-3.667 -73.197)" fill="#fff"/>
      <path id="Trazado_827552" data-name="Trazado 827552" d="M42.329,114.386,58.134,136.14a26.889,26.889,0,0,1-37.559-5.949,25.559,25.559,0,0,1-3.819-7.5Z" transform="translate(-3.667 -73.197)" fill="none" stroke="#263238" stroke-linecap="round" stroke-linejoin="round" stroke-width="1"/>
      <path id="Trazado_827553" data-name="Trazado 827553" d="M48.516,112.376l25.573-8.31a26.467,26.467,0,0,1-9.768,30.064Z" transform="translate(-9.854 -71.186)" fill="#263238"/>
      <path id="Trazado_827554" data-name="Trazado 827554" d="M48.516,112.376l25.573-8.31a26.467,26.467,0,0,1-9.768,30.064Z" transform="translate(-9.854 -71.186)" fill="none" stroke="#263238" stroke-linecap="round" stroke-linejoin="round" stroke-width="1"/>
      <path id="Trazado_827555" data-name="Trazado 827555" d="M48.516,107.881V80.991a26.467,26.467,0,0,1,25.573,18.58Z" transform="translate(-9.854 -66.692)" fill="#fff"/>
      <path id="Trazado_827556" data-name="Trazado 827556" d="M48.516,107.881V80.991a26.467,26.467,0,0,1,25.573,18.58Z" transform="translate(-9.854 -66.692)" fill="none" stroke="#263238" stroke-linecap="round" stroke-linejoin="round" stroke-width="1"/>
      <path id="Trazado_827557" data-name="Trazado 827557" d="M61.257,110.331A16.764,16.764,0,1,0,44.492,127.1a16.764,16.764,0,0,0,16.764-16.764" transform="translate(-5.804 -69.141)" fill="#fff"/>
      <ellipse id="Elipse_10574" data-name="Elipse 10574" cx="16.764" cy="16.764" rx="16.764" ry="16.764" transform="translate(18.52 28.726) rotate(-13.283)" fill="none" stroke="#263238" stroke-linecap="round" stroke-linejoin="round" stroke-width="1"/>
      <rect id="Rectángulo_381261" data-name="Rectángulo 381261" width="36.837" height="3.048" transform="translate(73.115 12.669)" fill="#78f0f4"/>
      <rect id="Rectángulo_381262" data-name="Rectángulo 381262" width="36.837" height="3.048" transform="translate(73.115 12.669)" fill="none" stroke="#263238" stroke-linecap="round" stroke-linejoin="round" stroke-width="1"/>
      <rect id="Rectángulo_381263" data-name="Rectángulo 381263" width="28.916" height="3.048" transform="translate(73.116 19.201)" fill="#263238"/>
      <rect id="Rectángulo_381264" data-name="Rectángulo 381264" width="28.916" height="3.048" transform="translate(73.116 19.201)" fill="none" stroke="#263238" stroke-linecap="round" stroke-linejoin="round" stroke-width="1"/>
      <rect id="Rectángulo_381265" data-name="Rectángulo 381265" width="21.25" height="3.048" transform="translate(73.116 25.732)" fill="#fff"/>
      <rect id="Rectángulo_381266" data-name="Rectángulo 381266" width="21.25" height="3.048" transform="translate(73.116 25.732)" fill="none" stroke="#263238" stroke-linecap="round" stroke-linejoin="round" stroke-width="1"/>
      <rect id="Rectángulo_381267" data-name="Rectángulo 381267" width="30.193" height="3.048" transform="translate(73.115 32.263)" fill="#78f0f4"/>
      <rect id="Rectángulo_381268" data-name="Rectángulo 381268" width="30.193" height="3.048" transform="translate(73.115 32.263)" fill="none" stroke="#263238" stroke-linecap="round" stroke-linejoin="round" stroke-width="1"/>
      <rect id="Rectángulo_381269" data-name="Rectángulo 381269" width="14.351" height="3.048" transform="translate(73.116 38.795)" fill="#263238"/>
      <rect id="Rectángulo_381270" data-name="Rectángulo 381270" width="14.351" height="3.048" transform="translate(73.116 38.795)" fill="none" stroke="#263238" stroke-linecap="round" stroke-linejoin="round" stroke-width="1"/>
      <rect id="Rectángulo_381271" data-name="Rectángulo 381271" width="36.837" height="3.048" transform="translate(73.115 45.326)" fill="#fff"/>
      <rect id="Rectángulo_381272" data-name="Rectángulo 381272" width="36.837" height="3.048" transform="translate(73.115 45.326)" fill="none" stroke="#263238" stroke-linecap="round" stroke-linejoin="round" stroke-width="1"/>
      <rect id="Rectángulo_381273" data-name="Rectángulo 381273" width="27.127" height="3.048" transform="translate(73.115 51.857)" fill="#78f0f4"/>
      <rect id="Rectángulo_381274" data-name="Rectángulo 381274" width="27.127" height="3.048" transform="translate(73.115 51.857)" fill="none" stroke="#263238" stroke-linecap="round" stroke-linejoin="round" stroke-width="1"/>
      <rect id="Rectángulo_381275" data-name="Rectángulo 381275" width="23.705" height="3.048" transform="translate(73.116 58.39)" fill="#263238"/>
      <rect id="Rectángulo_381276" data-name="Rectángulo 381276" width="23.705" height="3.048" transform="translate(73.116 58.39)" fill="none" stroke="#263238" stroke-linecap="round" stroke-linejoin="round" stroke-width="1"/>
      <rect id="Rectángulo_381277" data-name="Rectángulo 381277" width="36.837" height="3.048" transform="translate(73.115 64.921)" fill="#fff"/>
      <rect id="Rectángulo_381278" data-name="Rectángulo 381278" width="36.837" height="3.048" transform="translate(73.115 64.921)" fill="none" stroke="#263238" stroke-linecap="round" stroke-linejoin="round" stroke-width="1"/>
      <line id="Línea_4234" data-name="Línea 4234" x2="28.56" transform="translate(24.974 73.817)" fill="none" stroke="#263238" stroke-linecap="round" stroke-linejoin="round" stroke-width="1"/>
      <line id="Línea_4235" data-name="Línea 4235" x2="36.637" transform="translate(20.935 77.844)" fill="none" stroke="#263238" stroke-linecap="round" stroke-linejoin="round" stroke-width="1"/>
      <line id="Línea_4236" data-name="Línea 4236" x2="28.56" transform="translate(74.091 73.817)" fill="none" stroke="#263238" stroke-linecap="round" stroke-linejoin="round" stroke-width="1"/>
      <line id="Línea_4237" data-name="Línea 4237" x2="36.637" transform="translate(70.052 77.844)" fill="none" stroke="#263238" stroke-linecap="round" stroke-linejoin="round" stroke-width="1"/>
    </g>
    <g id="Grupo_1080125" data-name="Grupo 1080125" transform="translate(-546.207 -1137.117)">
      <g id="Grupo_1080124" data-name="Grupo 1080124" transform="translate(958.556 12531.312)" opacity="0.2">
        <g id="Grupo_1080123" data-name="Grupo 1080123">
          <g id="Grupo_1080122" data-name="Grupo 1080122" clip-path="url(#clip-path-3)">
            <path id="Trazado_827558" data-name="Trazado 827558" d="M31.534,320.233H138.16a8.078,8.078,0,0,0,8.078-8.078V235.771a8.079,8.079,0,0,0-8.078-8.079H31.534a8.079,8.079,0,0,0-8.078,8.079v76.383a8.078,8.078,0,0,0,8.078,8.078" transform="translate(-23.456 -227.692)"/>
          </g>
        </g>
      </g>
      <path id="Trazado_827559" data-name="Trazado 827559" d="M27.121,315.085H133.747a8.078,8.078,0,0,0,8.078-8.078V230.623a8.079,8.079,0,0,0-8.078-8.079H27.121a8.079,8.079,0,0,0-8.078,8.079v76.383a8.078,8.078,0,0,0,8.078,8.078" transform="translate(943.683 12303.903)" fill="#fff"/>
      <path id="Rectángulo_381280" data-name="Rectángulo 381280" d="M8.548,0H114.234a8.548,8.548,0,0,1,8.548,8.548V83.993a8.548,8.548,0,0,1-8.548,8.548H8.549A8.549,8.549,0,0,1,0,83.992V8.548A8.548,8.548,0,0,1,8.548,0Z" transform="translate(962.726 12526.446)" fill="none" stroke="#263238" stroke-linecap="round" stroke-linejoin="round" stroke-width="1"/>
      <line id="Línea_4238" data-name="Línea 4238" x1="16.377" transform="translate(1060.719 12570.444)" fill="none" stroke="#263238" stroke-linecap="round" stroke-linejoin="round" stroke-width="1"/>
      <line id="Línea_4239" data-name="Línea 4239" x1="25.899" transform="translate(1051.198 12574.143)" fill="none" stroke="#263238" stroke-linecap="round" stroke-linejoin="round" stroke-width="1"/>
      <line id="Línea_4240" data-name="Línea 4240" x1="16.377" transform="translate(1060.719 12577.841)" fill="none" stroke="#263238" stroke-linecap="round" stroke-linejoin="round" stroke-width="1"/>
      <line id="Línea_4241" data-name="Línea 4241" x1="23.62" transform="translate(1053.476 12581.539)" fill="none" stroke="#263238" stroke-linecap="round" stroke-linejoin="round" stroke-width="1"/>
      <line id="Línea_4242" data-name="Línea 4242" x1="16.377" transform="translate(1060.719 12585.236)" fill="none" stroke="#263238" stroke-linecap="round" stroke-linejoin="round" stroke-width="1"/>
      <line id="Línea_4243" data-name="Línea 4243" x1="28.937" transform="translate(1048.159 12588.935)" fill="none" stroke="#263238" stroke-linecap="round" stroke-linejoin="round" stroke-width="1"/>
      <line id="Línea_4244" data-name="Línea 4244" x1="16.377" transform="translate(1019.706 12570.444)" fill="none" stroke="#263238" stroke-linecap="round" stroke-linejoin="round" stroke-width="1"/>
      <line id="Línea_4245" data-name="Línea 4245" x1="25.899" transform="translate(1010.185 12574.143)" fill="none" stroke="#263238" stroke-linecap="round" stroke-linejoin="round" stroke-width="1"/>
      <line id="Línea_4246" data-name="Línea 4246" x1="16.377" transform="translate(1019.706 12577.841)" fill="none" stroke="#263238" stroke-linecap="round" stroke-linejoin="round" stroke-width="1"/>
      <line id="Línea_4247" data-name="Línea 4247" x1="23.62" transform="translate(1012.464 12581.539)" fill="none" stroke="#263238" stroke-linecap="round" stroke-linejoin="round" stroke-width="1"/>
      <line id="Línea_4248" data-name="Línea 4248" x1="16.377" transform="translate(1019.706 12585.236)" fill="none" stroke="#263238" stroke-linecap="round" stroke-linejoin="round" stroke-width="1"/>
      <line id="Línea_4249" data-name="Línea 4249" x1="28.937" transform="translate(1007.147 12588.935)" fill="none" stroke="#263238" stroke-linecap="round" stroke-linejoin="round" stroke-width="1"/>
      <line id="Línea_4250" data-name="Línea 4250" x1="16.377" transform="translate(978.694 12570.444)" fill="none" stroke="#263238" stroke-linecap="round" stroke-linejoin="round" stroke-width="1"/>
      <line id="Línea_4251" data-name="Línea 4251" x1="25.899" transform="translate(969.173 12574.143)" fill="none" stroke="#263238" stroke-linecap="round" stroke-linejoin="round" stroke-width="1"/>
      <line id="Línea_4252" data-name="Línea 4252" x1="16.377" transform="translate(978.694 12577.841)" fill="none" stroke="#263238" stroke-linecap="round" stroke-linejoin="round" stroke-width="1"/>
      <line id="Línea_4253" data-name="Línea 4253" x1="23.62" transform="translate(971.451 12581.539)" fill="none" stroke="#263238" stroke-linecap="round" stroke-linejoin="round" stroke-width="1"/>
      <line id="Línea_4254" data-name="Línea 4254" x1="16.377" transform="translate(978.694 12585.236)" fill="none" stroke="#263238" stroke-linecap="round" stroke-linejoin="round" stroke-width="1"/>
      <line id="Línea_4255" data-name="Línea 4255" x1="28.937" transform="translate(966.134 12588.935)" fill="none" stroke="#263238" stroke-linecap="round" stroke-linejoin="round" stroke-width="1"/>
      <rect id="Rectángulo_381281" data-name="Rectángulo 381281" width="31.698" height="6.339" transform="translate(1046.454 12558.294)" fill="#263238"/>
      <rect id="Rectángulo_381282" data-name="Rectángulo 381282" width="31.698" height="6.339" transform="translate(1004.719 12558.294)" fill="#263238"/>
      <rect id="Rectángulo_381283" data-name="Rectángulo 381283" width="31.698" height="6.339" transform="translate(962.982 12558.294)" fill="#263238"/>
      <line id="Línea_4256" data-name="Línea 4256" y2="32.089" transform="translate(1041.514 12557.918)" fill="none" stroke="#263238" stroke-linecap="round" stroke-linejoin="round" stroke-width="1"/>
      <line id="Línea_4257" data-name="Línea 4257" y2="32.089" transform="translate(1000.122 12557.918)" fill="none" stroke="#263238" stroke-linecap="round" stroke-linejoin="round" stroke-width="1"/>
      <path id="Trazado_827560" data-name="Trazado 827560" d="M40.1,239.918l-6.861-2.229a7.214,7.214,0,1,0,9.09-4.632A6.874,6.874,0,0,0,40.1,232.7Z" transform="translate(1025.107 12303.345)" fill="#78f0f4"/>
      <path id="Trazado_827561" data-name="Trazado 827561" d="M40.1,239.918l-6.861-2.229a7.214,7.214,0,1,0,9.09-4.632A6.874,6.874,0,0,0,40.1,232.7Z" transform="translate(1025.107 12303.345)" fill="none" stroke="#263238" stroke-miterlimit="10" stroke-width="0.5"/>
      <path id="Trazado_827562" data-name="Trazado 827562" d="M47.383,239.918V232.7a7.1,7.1,0,0,0-6.861,4.985Z" transform="translate(1017.826 12303.345)" fill="#263238"/>
      <path id="Trazado_827563" data-name="Trazado 827563" d="M47.383,239.918V232.7a7.1,7.1,0,0,0-6.861,4.985Z" transform="translate(1017.826 12303.345)" fill="none" stroke="#263238" stroke-miterlimit="10" stroke-width="0.5"/>
      <path id="Trazado_827564" data-name="Trazado 827564" d="M113.585,239.918l-6.861-2.229a7.214,7.214,0,1,0,9.09-4.632,6.874,6.874,0,0,0-2.229-.353Z" transform="translate(882.18 12303.345)" fill="#78f0f4"/>
      <path id="Trazado_827565" data-name="Trazado 827565" d="M113.585,239.918l-6.861-2.229a7.214,7.214,0,1,0,9.09-4.632,6.874,6.874,0,0,0-2.229-.353Z" transform="translate(882.18 12303.345)" fill="none" stroke="#263238" stroke-miterlimit="10" stroke-width="0.5"/>
      <path id="Trazado_827566" data-name="Trazado 827566" d="M120.866,239.918V232.7A7.1,7.1,0,0,0,114,237.689Z" transform="translate(874.899 12303.345)" fill="#263238"/>
      <path id="Trazado_827567" data-name="Trazado 827567" d="M120.866,239.918V232.7A7.1,7.1,0,0,0,114,237.689Z" transform="translate(874.899 12303.345)" fill="none" stroke="#263238" stroke-miterlimit="10" stroke-width="0.5"/>
      <path id="Trazado_827568" data-name="Trazado 827568" d="M57.382,239.918v7.213a7.214,7.214,0,1,0,0-14.428Z" transform="translate(984.68 12303.345)" fill="#78f0f4"/>
      <path id="Trazado_827569" data-name="Trazado 827569" d="M57.382,239.918v7.213a7.214,7.214,0,1,0,0-14.428Z" transform="translate(984.68 12303.345)" fill="none" stroke="#263238" stroke-miterlimit="10" stroke-width="0.5"/>
      <path id="Trazado_827570" data-name="Trazado 827570" d="M72.229,239.918V232.7a7.214,7.214,0,0,0,0,14.428Z" transform="translate(969.832 12303.345)" fill="#263238"/>
      <path id="Trazado_827571" data-name="Trazado 827571" d="M72.229,239.918V232.7a7.214,7.214,0,0,0,0,14.428Z" transform="translate(969.832 12303.345)" fill="none" stroke="#263238" stroke-miterlimit="10" stroke-width="0.5"/>
      <path id="Trazado_827572" data-name="Trazado 827572" d="M88.736,239.918l-6.861,2.229A7.214,7.214,0,0,0,95.6,237.689a7.1,7.1,0,0,0-6.861-4.985Z" transform="translate(930.177 12303.345)" fill="#78f0f4"/>
      <path id="Trazado_827573" data-name="Trazado 827573" d="M88.736,239.918l-6.861,2.229A7.214,7.214,0,0,0,95.6,237.689a7.1,7.1,0,0,0-6.861-4.985Z" transform="translate(930.177 12303.345)" fill="none" stroke="#263238" stroke-miterlimit="10" stroke-width="0.5"/>
      <path id="Trazado_827574" data-name="Trazado 827574" d="M96.724,239.918V232.7a7.214,7.214,0,0,0-7.213,7.214,6.873,6.873,0,0,0,.353,2.229Z" transform="translate(922.189 12303.345)" fill="#263238"/>
      <path id="Trazado_827575" data-name="Trazado 827575" d="M96.724,239.918V232.7a7.214,7.214,0,0,0-7.213,7.214,6.873,6.873,0,0,0,.353,2.229Z" transform="translate(922.189 12303.345)" fill="none" stroke="#263238" stroke-miterlimit="10" stroke-width="0.5"/>
      <path id="Trazado_827576" data-name="Trazado 827576" d="M137.725,239.918l-6.861,2.229a7.214,7.214,0,0,0,13.722-4.459,7.1,7.1,0,0,0-6.861-4.985Z" transform="translate(834.892 12303.345)" fill="#78f0f4"/>
      <path id="Trazado_827577" data-name="Trazado 827577" d="M137.725,239.918l-6.861,2.229a7.214,7.214,0,0,0,13.722-4.459,7.1,7.1,0,0,0-6.861-4.985Z" transform="translate(834.892 12303.345)" fill="none" stroke="#263238" stroke-miterlimit="10" stroke-width="0.5"/>
      <rect id="Rectángulo_381284" data-name="Rectángulo 381284" width="6.31" height="2.135" transform="translate(971.199 12608.73)" fill="#78f0f4"/>
      <rect id="Rectángulo_381285" data-name="Rectángulo 381285" width="6.31" height="2.135" transform="translate(971.199 12608.73)" fill="none" stroke="#263238" stroke-linecap="round" stroke-linejoin="round" stroke-width="0.75"/>
      <rect id="Rectángulo_381286" data-name="Rectángulo 381286" width="6.31" height="12.807" transform="translate(978.211 12598.057)" fill="#263238"/>
      <rect id="Rectángulo_381287" data-name="Rectángulo 381287" width="6.31" height="12.807" transform="translate(978.211 12598.057)" fill="none" stroke="#263238" stroke-linecap="round" stroke-linejoin="round" stroke-width="0.75"/>
      <rect id="Rectángulo_381288" data-name="Rectángulo 381288" width="6.31" height="8.21" transform="translate(985.221 12602.654)" fill="#fff"/>
      <rect id="Rectángulo_381289" data-name="Rectángulo 381289" width="6.31" height="8.21" transform="translate(985.221 12602.654)" fill="none" stroke="#263238" stroke-linecap="round" stroke-linejoin="round" stroke-width="0.75"/>
      <rect id="Rectángulo_381290" data-name="Rectángulo 381290" width="6.31" height="14.614" transform="translate(992.232 12596.251)" fill="#78f0f4"/>
      <rect id="Rectángulo_381291" data-name="Rectángulo 381291" width="6.31" height="14.614" transform="translate(992.232 12596.251)" fill="none" stroke="#263238" stroke-linecap="round" stroke-linejoin="round" stroke-width="0.75"/>
      <rect id="Rectángulo_381292" data-name="Rectángulo 381292" width="6.31" height="3.776" transform="translate(999.243 12607.087)" fill="#263238"/>
      <rect id="Rectángulo_381293" data-name="Rectángulo 381293" width="6.31" height="3.776" transform="translate(999.243 12607.087)" fill="none" stroke="#263238" stroke-linecap="round" stroke-linejoin="round" stroke-width="0.75"/>
      <rect id="Rectángulo_381294" data-name="Rectángulo 381294" width="6.31" height="4.926" transform="translate(1006.253 12605.938)" fill="#fff"/>
      <rect id="Rectángulo_381295" data-name="Rectángulo 381295" width="6.31" height="4.926" transform="translate(1006.253 12605.938)" fill="none" stroke="#263238" stroke-linecap="round" stroke-linejoin="round" stroke-width="0.75"/>
      <rect id="Rectángulo_381296" data-name="Rectángulo 381296" width="6.31" height="9.852" transform="translate(1013.265 12601.014)" fill="#78f0f4"/>
      <rect id="Rectángulo_381297" data-name="Rectángulo 381297" width="6.31" height="9.852" transform="translate(1013.265 12601.014)" fill="none" stroke="#263238" stroke-linecap="round" stroke-linejoin="round" stroke-width="0.75"/>
      <rect id="Rectángulo_381298" data-name="Rectángulo 381298" width="6.31" height="1.642" transform="translate(1020.276 12609.223)" fill="#263238"/>
      <rect id="Rectángulo_381299" data-name="Rectángulo 381299" width="6.31" height="1.642" transform="translate(1020.276 12609.223)" fill="none" stroke="#263238" stroke-linecap="round" stroke-linejoin="round" stroke-width="0.75"/>
      <rect id="Rectángulo_381300" data-name="Rectángulo 381300" width="6.31" height="12.807" transform="translate(1027.287 12598.057)" fill="#fff"/>
      <rect id="Rectángulo_381301" data-name="Rectángulo 381301" width="6.31" height="12.807" transform="translate(1027.287 12598.057)" fill="none" stroke="#263238" stroke-linecap="round" stroke-linejoin="round" stroke-width="0.75"/>
      <rect id="Rectángulo_381302" data-name="Rectángulo 381302" width="6.31" height="10.344" transform="translate(1034.297 12600.521)" fill="#78f0f4"/>
      <rect id="Rectángulo_381303" data-name="Rectángulo 381303" width="6.31" height="10.344" transform="translate(1034.297 12600.521)" fill="none" stroke="#263238" stroke-linecap="round" stroke-linejoin="round" stroke-width="0.75"/>
      <rect id="Rectángulo_381304" data-name="Rectángulo 381304" width="6.31" height="0.492" transform="translate(1041.308 12610.371)" fill="#263238"/>
      <rect id="Rectángulo_381305" data-name="Rectángulo 381305" width="6.31" height="0.492" transform="translate(1041.308 12610.371)" fill="none" stroke="#263238" stroke-linecap="round" stroke-linejoin="round" stroke-width="0.75"/>
      <rect id="Rectángulo_381306" data-name="Rectángulo 381306" width="6.31" height="0.657" transform="translate(1048.32 12610.208)" fill="#fff"/>
      <rect id="Rectángulo_381307" data-name="Rectángulo 381307" width="6.31" height="0.657" transform="translate(1048.32 12610.208)" fill="none" stroke="#263238" stroke-linecap="round" stroke-linejoin="round" stroke-width="0.75"/>
      <rect id="Rectángulo_381308" data-name="Rectángulo 381308" width="6.31" height="8.21" transform="translate(1055.33 12602.654)" fill="#78f0f4"/>
      <rect id="Rectángulo_381309" data-name="Rectángulo 381309" width="6.31" height="8.21" transform="translate(1055.33 12602.654)" fill="none" stroke="#263238" stroke-linecap="round" stroke-linejoin="round" stroke-width="0.75"/>
      <rect id="Rectángulo_381310" data-name="Rectángulo 381310" width="6.31" height="1.642" transform="translate(1062.341 12609.223)" fill="#263238"/>
      <rect id="Rectángulo_381311" data-name="Rectángulo 381311" width="6.31" height="1.642" transform="translate(1062.341 12609.223)" fill="none" stroke="#263238" stroke-linecap="round" stroke-linejoin="round" stroke-width="0.75"/>
      <rect id="Rectángulo_381312" data-name="Rectángulo 381312" width="6.31" height="3.284" transform="translate(1069.352 12607.581)" fill="#fff"/>
      <rect id="Rectángulo_381313" data-name="Rectángulo 381313" width="6.31" height="3.284" transform="translate(1069.352 12607.581)" fill="none" stroke="#263238" stroke-linecap="round" stroke-linejoin="round" stroke-width="0.75"/>
    </g>
    <g id="Grupo_1080126" data-name="Grupo 1080126" transform="translate(-426.979 -745.204)">
      <path id="Trazado_827578" data-name="Trazado 827578" d="M200.341,126.948c0,2.832,5.318,5.118,5.857,7.8.558,2.759-3.452,6.858-2.377,9.4,1.1,2.582,6.9,2.7,8.469,5,1.58,2.312-.519,7.609,1.482,9.569s7.411-.1,9.771,1.452c2.344,1.537,2.464,7.222,5.1,8.292,2.592,1.053,6.776-2.874,9.593-2.328,2.734.53,5.068,5.736,7.96,5.736s5.226-5.206,7.96-5.736c2.819-.546,7,3.38,9.595,2.328,2.638-1.071,2.756-6.757,5.1-8.292,2.363-1.549,7.769.508,9.771-1.454s-.1-7.255,1.485-9.569c1.568-2.3,7.372-2.411,8.467-4.993,1.073-2.538-2.935-6.638-2.377-9.4.539-2.677,5.857-4.963,5.857-7.8s-5.318-5.118-5.857-7.8c-.558-2.759,3.45-6.858,2.375-9.4-1.093-2.582-6.9-2.7-8.467-5-1.582-2.312.519-7.609-1.482-9.569s-7.411.1-9.773-1.452c-2.342-1.537-2.462-7.222-5.1-8.292-2.592-1.053-6.778,2.874-9.595,2.328-2.734-.53-5.066-5.736-7.96-5.736s-5.224,5.206-7.96,5.736c-2.817.546-7-3.38-9.595-2.328-2.636,1.071-2.754,6.755-5.1,8.292-2.363,1.549-7.77-.508-9.773,1.454s.1,7.257-1.482,9.569c-1.568,2.3-7.374,2.411-8.467,5-1.075,2.536,2.935,6.636,2.377,9.394-.539,2.677-5.857,4.963-5.857,7.8" transform="translate(493.627 12068.752)" fill="#262626"/>
      <path id="Trazado_827579" data-name="Trazado 827579" d="M206.371,173.79c2.705-24.521,2.709-24.565,5.163-46.783a17.169,17.169,0,0,1,34.209,1.7c0,.207-.024.407-.032.612-.817,22.445-.817,22.445-1.738,47.135a18.875,18.875,0,0,1-37.716-.675,18.364,18.364,0,0,1,.114-1.986" transform="translate(527.942 12098.209)" fill="#802f1d"/>
      <path id="Trazado_827580" data-name="Trazado 827580" d="M229.809,245.543q3.638-39.516,7.834-84.828a15.388,15.388,0,0,1,.917-3.939,15.571,15.571,0,0,1,19.911-8.89,15.12,15.12,0,0,1,9.907,16.243c0,.1-.018.187-.03.28q-6.258,44.9-11.72,84.113a13.4,13.4,0,0,1-18.108,10.6,13.206,13.206,0,0,1-8.711-13.581" transform="translate(457.512 12132.738)" fill="#73716e"/>
      <path id="Trazado_827581" data-name="Trazado 827581" d="M172.55,160.846a15.279,15.279,0,0,1,14.636-15.935,15.445,15.445,0,0,1,15.7,11.023,2.529,2.529,0,0,1,.087.266q12.561,43.619,23.53,81.708a13.546,13.546,0,0,1,.487,2.892,13.33,13.33,0,0,1-12.773,13.9,13.49,13.49,0,0,1-13.519-9.047Q187.932,208,173.317,164.815a15.523,15.523,0,0,1-.767-3.968" transform="translate(615.078 12130.732)" fill="#615f5d"/>
      <path id="Trazado_827582" data-name="Trazado 827582" d="M286.638,149.379l9.7,41.391a48.422,48.422,0,0,1,1.276,11.039v.107a48.386,48.386,0,0,1-1.006,9.815L282.981,277.5l-69.072.552L184.44,154.039l31.638-10.34,33.984-2.86Z" transform="translate(520.321 12126.735)" fill="#73716e"/>
      <path id="Trazado_827583" data-name="Trazado 827583" d="M171.9,195.76c3.914-3.573,15.513-15.315,15.513-15.315l19.011,20.97S191.848,217.536,189.5,218.9a14.974,14.974,0,0,1-6.788,2.022,14.7,14.7,0,0,1-15.58-13.722A14.331,14.331,0,0,1,171.9,195.76" transform="translate(646.651 12165.794)" fill="#73716e"/>
      <path id="Trazado_827584" data-name="Trazado 827584" d="M199.33,149.519l17.812-5.821,33.986-2.86,17.291,4.038c.012.185.059.367.059.554,0,9.283-15.746,16.807-35.169,16.807-16.22,0-29.916-5.581-33.98-12.717" transform="translate(519.255 12126.735)" fill="#802f1d"/>
      <path id="Trazado_827585" data-name="Trazado 827585" d="M210.552,336.347a16.391,16.391,0,0,1,7.165-15.454,17.1,17.1,0,0,1,23.487,4.183,16.192,16.192,0,0,1,2.989,9.581c-.337,33.061-.608,58.742-.854,81.886a11.553,11.553,0,0,1-5.09,9.394,11.975,11.975,0,0,1-16.441-2.928,11.312,11.312,0,0,1-1.975-5.313c-2.661-22.991-5.555-48.507-9.28-81.35" transform="translate(520.994 12301.394)" fill="#262626"/>
      <path id="Trazado_827586" data-name="Trazado 827586" d="M206.962,204.884h73.744l12.759,27,2.813,54.372L183.053,273.026Z" transform="translate(524.467 12189.894)" fill="#78f0f4"/>
      <path id="Trazado_827587" data-name="Trazado 827587" d="M207.9,316.077a24.452,24.452,0,0,1,23.643-25.291c13.661-.59,25.223,9.778,25.825,23.154.018.381-.006.755-.006,1.13-.093,48.493-.176,80.8-.272,118.27l-38.184,1.648c-3.462-37.32-6.447-69.491-10.929-117.786,0-.377-.061-.745-.077-1.126" transform="translate(513.03 12274.582)" fill="#78f0f4"/>
      <path id="Trazado_827588" data-name="Trazado 827588" d="M169.926,276.07a33.523,33.523,0,0,1-4.076-16.026c0-18.87,15.62-34.165,34.887-34.165a34.824,34.824,0,0,1,33.191,23.661c.024.056.043.109.063.169.03.1.065.193.1.29,20.536,62.228,20.579,62.355,35.225,106.741a23.891,23.891,0,0,1,1.2,7.456,24.507,24.507,0,0,1-24.759,24.247,24.817,24.817,0,0,1-21.862-12.876c-22.357-41.216-22.408-41.308-53.782-99.158-.036-.066-.071-.133-.107-.2-.026-.048-.049-.091-.075-.139" transform="translate(585.121 12210.596)" fill="#78f0f4"/>
      <path id="Trazado_827589" data-name="Trazado 827589" d="M205.472,263.33c-.85-18.85,14.069-34.807,33.317-35.637s35.542,13.776,36.389,32.628c.045.989.022,1.964-.018,2.936-2.858,67.262-2.858,67.262-4.9,115a24.8,24.8,0,0,1-49.272,2.127c-6.34-47.373-6.34-47.373-15.253-114.125-.105-.965-.217-1.936-.262-2.926" transform="translate(500.143 12212.352)" fill="#78f0f4"/>
      <path id="Trazado_827590" data-name="Trazado 827590" d="M186.31,394.384c10.682-20.64,22.584-43.512,37.906-72.955a16.907,16.907,0,0,1,14.661-9.053,16.727,16.727,0,0,1,17.273,16.137,16.2,16.2,0,0,1-2.882,9.613c-18.839,27.437-33.479,48.744-46.672,67.946a11.927,11.927,0,0,1-9.526,5.108,11.708,11.708,0,0,1-12.091-11.3,11.241,11.241,0,0,1,1.33-5.5" transform="translate(560.687 12295.891)" fill="#802f1d"/>
      <path id="Trazado_827591" data-name="Trazado 827591" d="M218.015,254.538h4.711a17.815,17.815,0,0,0,14.622-7.553l20.068-28.731-1.675-1.12-20.068,28.731a15.77,15.77,0,0,1-12.947,6.687h-4.711Z" transform="translate(492.423 12201.972)" fill="#262626"/>
      <path id="Trazado_827592" data-name="Trazado 827592" d="M202.885,307.179l8.5-10.733V203.839h-2.028v91.928l-8.076,10.195Z" transform="translate(572.391 12188.862)" fill="#262626"/>
      <path id="Trazado_827593" data-name="Trazado 827593" d="M0,37.3l1.992-.013L2.238,0,.246.013Z" transform="translate(783.177 12486.14) rotate(-109.8)" fill="#262626"/>
      <rect id="Rectángulo_381314" data-name="Rectángulo 381314" width="2.028" height="15.061" transform="translate(754.033 12394.779)" fill="#262626"/>
      <rect id="Rectángulo_381315" data-name="Rectángulo 381315" width="2.028" height="14.143" transform="translate(799.332 12394.779)" fill="#262626"/>
      <path id="Trazado_827594" data-name="Trazado 827594" d="M165.85,387.462s44.076-87.859,44.721-89.352a24.772,24.772,0,0,1,22.8-14.8,24.508,24.508,0,0,1,24.761,24.247,23.8,23.8,0,0,1-1.2,7.45,24.092,24.092,0,0,1-3.669,6.983c-.752.993-50.649,79.432-50.649,79.432Z" transform="translate(597.5 12267.234)" fill="#78f0f4"/>
      <path id="Trazado_827595" data-name="Trazado 827595" d="M166.751,183.693c-.018,3.049,2.083,7.569,5.721,11.758,3.022,3.454,6.435,5.935,9.287,6.946a9.068,9.068,0,0,0,1.239.348,4.134,4.134,0,0,0,3.527-.55c1.294-1.1,1.426-3.271.6-5.935-.15-.477-.339-.991-.546-1.505a27.769,27.769,0,0,0-4.632-7.222c-4.409-5.053-9.662-8.01-12.72-7.349a2.925,2.925,0,0,0-1.294.57,2.842,2.842,0,0,0-.807,1.1,4.066,4.066,0,0,0-.375,1.837" transform="translate(666.164 12165.446)" fill="#262626"/>
      <path id="Trazado_827596" data-name="Trazado 827596" d="M192.255,366.9l-1.519,32.581H259.3v-8.435s-37.152-6.119-43.907-24.145Z" transform="translate(545.864 12349.666)" fill="#262626"/>
      <rect id="Rectángulo_381316" data-name="Rectángulo 381316" width="68.563" height="5.541" transform="translate(736.6 12749.148)" fill="#73716e"/>
      <path id="Trazado_827597" data-name="Trazado 827597" d="M0,11.669l2.024-.012L2.095,0,.071.012Z" transform="matrix(-0.954, -0.301, 0.301, -0.954, 795.847, 12750.694)" fill="#73716e"/>
      <rect id="Rectángulo_381317" data-name="Rectángulo 381317" width="49.479" height="1.986" transform="translate(736.6 12750.926)" fill="#262626"/>
      <rect id="Rectángulo_381318" data-name="Rectángulo 381318" width="2.028" height="5.952" transform="translate(785.064 12748.734)" fill="#262626"/>
      <path id="Trazado_827598" data-name="Trazado 827598" d="M223.676,349.14l-19.914,16.338L244.21,419.7l6.954-4.975s-11.306-20.5-5.253-53.884Z" transform="translate(527.581 12332.149)" fill="#73716e"/>
      <path id="Trazado_827599" data-name="Trazado 827599" d="M205.522,383.949l10.69-3.5-.641-1.885-10.69,3.5Z" transform="translate(560.264 12361.162)" fill="#f2eadf"/>
      <path id="Trazado_827600" data-name="Trazado 827600" d="M0,6.291l67.637-.675L67.693,0,.056.675Z" transform="matrix(-0.59, -0.807, 0.807, -0.59, 766.709, 12755.558)" fill="#f2eadf"/>
      <path id="Trazado_827601" data-name="Trazado 827601" d="M0,2.5l48.813-.487L48.833,0,.02.487Z" transform="matrix(-0.59, -0.807, 0.807, -0.59, 757.055, 12739.274)" fill="#262626"/>
      <path id="Trazado_827602" data-name="Trazado 827602" d="M0,5.635l2-.02L2.056,0l-2,.02Z" transform="translate(756.579 12740.883) rotate(-126.147)" fill="#262626"/>
      <path id="Trazado_827603" data-name="Trazado 827603" d="M221.49,372.141a8.6,8.6,0,0,0,8.674-8.495h-2.028a6.647,6.647,0,1,1-6.646-6.511,6.683,6.683,0,0,1,5.806,3.339l1.771-.969a8.72,8.72,0,0,0-7.577-4.356,8.5,8.5,0,1,0,0,16.991" transform="translate(530.219 12338.077)" fill="#f2eadf"/>
      <path id="Trazado_827604" data-name="Trazado 827604" d="M235.653,260.295h67.536c2.071,0,3.142-1.645,2.391-3.674l-34.329-92.707a5.918,5.918,0,0,0-5.113-3.674H198.6c-2.073,0-3.143,1.645-2.391,3.674L230.54,256.62a5.916,5.916,0,0,0,5.113,3.674" transform="translate(488.726 12145.868)" fill="#f2eadf"/>
      <path id="Trazado_827605" data-name="Trazado 827605" d="M236.578,261.22h67.534c2.073,0,3.144-1.645,2.393-3.674l-34.331-92.707a5.913,5.913,0,0,0-5.113-3.674H199.528c-2.073,0-3.143,1.645-2.391,3.674l34.329,92.707a5.915,5.915,0,0,0,5.113,3.674" transform="translate(485.925 12146.78)" fill="#262626"/>
      <path id="Trazado_827606" data-name="Trazado 827606" d="M205.232,183.29c7.573-.642,10.528-.886,15.584-1.3.073.006.142-.008.213-.008a2.5,2.5,0,0,1,2.537,2.471,2.477,2.477,0,0,1-1.921,2.387c-4.92,1.212-7.8,1.913-15.17,3.716a4.586,4.586,0,0,1-.927.111,3.691,3.691,0,0,1-.316-7.375" transform="translate(559.264 12167.307)" fill="#802f1d"/>
      <path id="Trazado_827607" data-name="Trazado 827607" d="M206.415,177.111a3.878,3.878,0,0,1,.529.052c6.027.81,6.027.81,10.049,1.36.1.024.191.042.284.066,4.157,1.043,4.157,1.043,6.62,1.664a1.5,1.5,0,0,1,1.123,1.416,1.471,1.471,0,0,1-1.43,1.448c-2.525.127-2.551.127-6.753.318l-10.013,1.059c-.136,0-.27.022-.41.022a3.7,3.7,0,1,1,0-7.4" transform="translate(556.057 12162.505)" fill="#802f1d"/>
      <path id="Trazado_827608" data-name="Trazado 827608" d="M204.9,188.377c7.246-2.236,7.431-2.294,12.27-3.776a3.111,3.111,0,0,1,.76-.113,2.5,2.5,0,0,1,2.537,2.471,2.449,2.449,0,0,1-1.324,2.157c-4.445,2.381-4.614,2.471-11.284,6.026a4.08,4.08,0,0,1-1.825.455,3.754,3.754,0,0,1-3.8-3.7,3.706,3.706,0,0,1,2.669-3.516" transform="translate(561.392 12169.78)" fill="#802f1d"/>
      <path id="Trazado_827609" data-name="Trazado 827609" d="M204.486,192.3c6.344-3.051,6.344-3.051,10.58-5.079a2.707,2.707,0,0,1,1.119-.254,2.506,2.506,0,0,1,2.537,2.471,2.435,2.435,0,0,1-.967,1.927c-3.693,2.866-3.693,2.866-9.238,7.148a3.955,3.955,0,0,1-2.363.8,3.755,3.755,0,0,1-3.8-3.7,3.684,3.684,0,0,1,2.134-3.311" transform="translate(562.882 12172.229)" fill="#802f1d"/>
      <path id="Trazado_827610" data-name="Trazado 827610" d="M205.178,193.2c5.2-1.793,5.2-1.793,8.463-2.908a2.79,2.79,0,0,1,.669-.111,1.993,1.993,0,0,1,2.02,1.966,1.921,1.921,0,0,1-.888,1.585c-2.823,1.946-2.823,1.946-7.364,5.007a3.31,3.31,0,0,1-1.835.558,3.188,3.188,0,0,1-3.229-3.144,3.139,3.139,0,0,1,2.164-2.953" transform="translate(563.932 12175.395)" fill="#802f1d"/>
      <path id="Trazado_827611" data-name="Trazado 827611" d="M215.754,206.5,260.345,189.8l13.539-11.242,8.124-1.432,5.466,5.273-2.614,5.627,5.36,24.139h-4.2l-18.551-3.919L227.811,228a12.8,12.8,0,0,1-2.888,1.438l-.091.046a13.25,13.25,0,0,1-4.2.7,12.485,12.485,0,0,1-12.647-12.318,12.32,12.32,0,0,1,7.765-11.363" transform="translate(479.952 12162.524)" fill="#802f1d"/>
      <path id="Trazado_827612" data-name="Trazado 827612" d="M0,8.792l1.989-.012L2.041,0,.052.012Z" transform="matrix(-0.298, -0.954, 0.954, -0.298, 767.144, 12358.972)" fill="#262626"/>
      <path id="Trazado_827613" data-name="Trazado 827613" d="M143.752,219.7c-.018,3.049,2.083,7.569,5.721,11.758,3.022,3.454,6.435,5.935,9.287,6.946a9.056,9.056,0,0,0,1.239.348c1.276-1.984,2.663-4.169,4.127-6.485,12.006-19.015,29-47.216,29-47.216l1.071-5.033,17.088-21.643-9.455-14.789-25.117,4.886-1,27.137-30.784,41.153-.807,1.1a4.065,4.065,0,0,0-.375,1.837" transform="translate(689.162 12129.442)" fill="#802f1d"/>
      <path id="Trazado_827614" data-name="Trazado 827614" d="M146.109,144.832l1.73,16.3,5.936,2.842,13.76-7.919-14.415-13.48Z" transform="translate(728.133 12128.446)" fill="#262626"/>
      <path id="Trazado_827615" data-name="Trazado 827615" d="M143.659,148.977a2.979,2.979,0,0,1-.426-1.688,3.085,3.085,0,0,1,5.622-1.515c2.492,3.633,2.492,3.633,5.186,7.575a3.261,3.261,0,0,1,.558,1.98,3.348,3.348,0,0,1-6.194,1.5c-2.464-4.072-2.47-4.082-4.732-7.825l-.014-.022" transform="translate(746.905 12130.278)" fill="#802f1d"/>
      <path id="Trazado_827616" data-name="Trazado 827616" d="M153.031,148.9c1.089-2.139,1.1-2.151,2.614-5.12a2.267,2.267,0,0,1,2.134-1.239,2.215,2.215,0,0,1,2.129,2.3,2.164,2.164,0,0,1-.505,1.269c-2.154,2.612-2.154,2.612-3.7,4.475a1.689,1.689,0,0,1-1.324.578,1.554,1.554,0,0,1-1.351-2.266" transform="translate(722.069 12128.411)" fill="#73716e"/>
      <path id="Trazado_827617" data-name="Trazado 827617" d="M151.556,153.065c1.726-2.646,2.121-3.243,4.565-6.928a2.28,2.28,0,0,1,1.994-1,2.217,2.217,0,0,1,2.127,2.306,2.168,2.168,0,0,1-.574,1.345c-2.977,3.285-3.462,3.815-5.593,6.157a1.7,1.7,0,0,1-1.278.524,1.584,1.584,0,0,1-1.519-1.649,1.509,1.509,0,0,1,.278-.759" transform="translate(724.943 12130.976)" fill="#73716e"/>
      <path id="Trazado_827618" data-name="Trazado 827618" d="M149.874,154.424c1.529-2.62,1.529-2.62,3.776-6.419a2.276,2.276,0,0,1,2.056-1.092,2.214,2.214,0,0,1,2.125,2.306,2.153,2.153,0,0,1-.548,1.315c-2.914,3.335-2.914,3.335-4.922,5.621a1.641,1.641,0,0,1-1.247.524,1.522,1.522,0,0,1-1.46-1.585,1.435,1.435,0,0,1,.219-.669" transform="translate(730.647 12132.723)" fill="#73716e"/>
      <path id="Trazado_827619" data-name="Trazado 827619" d="M154.851,138.624a3.383,3.383,0,0,1,1.164.276c3.859,1.6,4.078,1.448,6.861,1.263.089,0,.176-.008.268,0a2.221,2.221,0,1,1-.229,4.435,2.357,2.357,0,0,1-.268-.04c0,.01-6.956.6-6.956.6a3.776,3.776,0,0,1-1.186.147,3.343,3.343,0,1,1,.347-6.675" transform="translate(719.917 12124.547)" fill="#802f1d"/>
      <path id="Trazado_827620" data-name="Trazado 827620" d="M155.233,151.528c2.929-6.191,2.939-6.213,5.194-10.973a3.43,3.43,0,0,1,3.269-1.931,3.369,3.369,0,0,1,3.235,3.508,3.157,3.157,0,0,1-.126.723c-1.432,5.059-1.438,5.083-3.285,11.581a4.441,4.441,0,0,1-4.506,3.237,4.364,4.364,0,0,1-4.19-4.544,4.2,4.2,0,0,1,.41-1.6" transform="translate(711.071 12124.547)" fill="#802f1d"/>
      <path id="Trazado_827621" data-name="Trazado 827621" d="M144.944,156.757c3.184-7.4,11.16-25.865,12.46-28.87a1.738,1.738,0,0,1,1.174-.957,1.665,1.665,0,0,1,1.985,1.239,1.553,1.553,0,0,1-.026.749c-.8,3.17-5.837,22.6-7.855,30.388a4.092,4.092,0,0,1-4.184,3.023,4.048,4.048,0,0,1-3.888-4.215,3.94,3.94,0,0,1,.333-1.356" transform="translate(738.118 12112.982)" fill="#802f1d"/>
      <path id="Trazado_827622" data-name="Trazado 827622" d="M149.243,146.328c3.178-2.685,3.178-2.685,7.542-6.364a3.132,3.132,0,0,1,2.164-.725,3.035,3.035,0,0,1,2.914,3.162,3,3,0,0,1-1.48,2.423l-8.52,5.045a2.27,2.27,0,0,1-1.274.314,2.214,2.214,0,0,1-2.125-2.306,2.169,2.169,0,0,1,.779-1.549" transform="translate(729.031 12125.154)" fill="#802f1d"/>
      <path id="Trazado_827623" data-name="Trazado 827623" d="M147.66,148.93c3.178-2.685,3.178-2.685,7.542-6.364a3.13,3.13,0,0,1,2.162-.725A3.035,3.035,0,0,1,160.28,145a3,3,0,0,1-1.48,2.423c-4.926,2.918-4.928,2.92-8.52,5.045a2.286,2.286,0,0,1-1.274.314,2.214,2.214,0,0,1-2.125-2.306,2.169,2.169,0,0,1,.779-1.549" transform="translate(733.825 12127.722)" fill="#802f1d"/>
      <path id="Trazado_827624" data-name="Trazado 827624" d="M146.705,149.8c2.724-2.016,2.724-2.016,6.465-4.769a3.18,3.18,0,0,1,2-.6,3.037,3.037,0,0,1,2.916,3.162,3,3,0,0,1-1.772,2.56c-4.229,1.96-4.229,1.96-7.317,3.382a2.408,2.408,0,0,1-1.069.2,2.213,2.213,0,0,1-2.125-2.3,2.166,2.166,0,0,1,.9-1.637" transform="translate(738.192 12130.278)" fill="#802f1d"/>
      <path id="Trazado_827625" data-name="Trazado 827625" d="M0,19.93l2.007-.021L2.215,0,.208.021Z" transform="matrix(-0.727, -0.687, 0.687, -0.727, 820.472, 12361.412)" fill="#262626"/>
      <rect id="Rectángulo_381319" data-name="Rectángulo 381319" width="19.384" height="1.986" transform="translate(706.647 12471.574)" fill="#262626"/>
      <rect id="Rectángulo_381320" data-name="Rectángulo 381320" width="30.198" height="1.986" transform="translate(787.735 12329.546)" fill="#262626"/>
      <rect id="Rectángulo_381321" data-name="Rectángulo 381321" width="14.523" height="1.986" transform="translate(714.535 12311.395)" fill="#f2eadf"/>
      <path id="Trazado_827626" data-name="Trazado 827626" d="M158.442,160.054a3.82,3.82,0,0,1,1.462-.276,4.73,4.73,0,0,1,.864.091l-1.332,1.8a.793.793,0,0,0-.3.074,3.38,3.38,0,0,0-1.726,2.628,10.787,10.787,0,0,0-.243,2.04,24.4,24.4,0,0,0,2.044,9.607c2.476,6.008,6.135,9.756,8.65,10.362a2.329,2.329,0,0,0,1.426-.036c1.18-.479,1.912-2.169,1.969-4.667a6.588,6.588,0,0,0-.018-.844q.87-1.406,1.631-2.7a18.753,18.753,0,0,1,.264,3.6c-.093,3.307-1.2,5.549-3.133,6.32a4.405,4.405,0,0,1-1.462.276,5,5,0,0,1-1.671-.312c-3.32-1.122-6.979-5.458-9.4-11.3a27.171,27.171,0,0,1-2.158-9.535,6.047,6.047,0,0,1-.018-.808c.093-3.325,1.219-5.567,3.152-6.32" transform="translate(703.918 12145.414)" fill="#f2eadf"/>
      <path id="Trazado_827627" data-name="Trazado 827627" d="M271.563,168.7a5.235,5.235,0,0,0,1.288-4.852l-.679-2.713,1.817-2.435-2.129-4.667,2.58-4.773-1.756-3.108,2.377-1.551a2.988,2.988,0,0,0,.519-4.588l-7.465-7.69a4.719,4.719,0,0,1-.957-5.144l.223-.52a11.936,11.936,0,0,0,.448-8.227l-1.914-6.252a12.136,12.136,0,0,0-3.022-5.019L250.072,94.317H210.746L194.653,121.73l6.121,24.751L265.692,170.1a5.47,5.47,0,0,0,5.871-1.4" transform="translate(520.796 12080.859)" fill="#802f1d"/>
      <path id="Trazado_827628" data-name="Trazado 827628" d="M200.417,112.976l3.774-2.4,7.694-.054-.016-1.986-8.285.058-4.269,2.711Z" transform="translate(575.875 12094.888)" fill="#262626"/>
      <path id="Trazado_827629" data-name="Trazado 827629" d="M0,2.036l3.58-.009L3.585,0,.005.009Z" transform="translate(783.566 12210.711) rotate(-97.125)" fill="#262626"/>
      <path id="Trazado_827630" data-name="Trazado 827630" d="M0,8.7l1.99-.013L2.047,0,.056.013Z" transform="translate(778.295 12213.907) rotate(-109.38)" fill="#262626"/>
      <path id="Trazado_827631" data-name="Trazado 827631" d="M207.126,117.312V112.3H205.1v2.137l-3.772-1.4-.718,1.857Z" transform="translate(578.016 12098.593)" fill="#262626"/>
      <path id="Trazado_827632" data-name="Trazado 827632" d="M241.118,136.819l6.715,6.213a7.309,7.309,0,0,0,3.861-7.414l-.558-4.127a7.342,7.342,0,0,1,3-6.928l4.5-3.267a4.849,4.849,0,0,0,1.028-6.86l-4.922-6.475,7.437-3.025a7.761,7.761,0,0,0,3.61-11.545c-.055-.079-43.007-.079-43.007-.079l-16.658,29.077,7.139,27.971,17.316,13.681,3.265-27Z" transform="translate(506.829 12079.868)" fill="#262626"/>
      <path id="Trazado_827633" data-name="Trazado 827633" d="M232.636,131.408l-2.72.8-10.276-3.7a6,6,0,0,1-4-5.623v-3.579a6.055,6.055,0,0,1,6.117-5.99,6.234,6.234,0,0,1,4.63,1.976l7.386,8.014Z" transform="translate(520.892 12099.596)" fill="#802f1d"/>
      <path id="Trazado_827634" data-name="Trazado 827634" d="M195.324,127.081H201.5L202.623,126a4.449,4.449,0,0,0,1.371-3.2v-1.15Z" transform="translate(591.864 12107.807)" fill="#262626"/>
      <path id="Trazado_827635" data-name="Trazado 827635" d="M201.5,124.381l1.833,2.008a2.539,2.539,0,0,1,.665,1.708v1.611l-8.67-5.327Z" transform="translate(591.864 12110.508)" fill="#262626"/>
      <path id="Trazado_827636" data-name="Trazado 827636" d="M0,2.181,28.223,1.99,28.236,0,.014.191Z" transform="translate(763.213 12243.753) rotate(-159.624)" fill="#262626"/>
      <path id="Trazado_827637" data-name="Trazado 827637" d="M197.2,126.317H204.1v-1.986h-4.88v-.906H197.2Z" transform="translate(587.958 12109.563)" fill="#262626"/>
      <path id="Trazado_827638" data-name="Trazado 827638" d="M0,2.116l10.379-.108L10.4,0,.021.108Z" transform="matrix(-0.677, -0.736, 0.736, -0.677, 748.753, 12224.849)" fill="#201600"/>
      <path id="Trazado_827639" data-name="Trazado 827639" d="M0,2.265l39.323-.275L39.337,0,.014.275Z" transform="translate(799.662 12669.836) rotate(-158.826)" fill="#262626"/>
    </g>
    <g id="Grupo_1080127" data-name="Grupo 1080127" transform="translate(-249.408 -625.565)">
      <path id="Trazado_827640" data-name="Trazado 827640" d="M398.436,373.908l-48.648-76.413a2.705,2.705,0,0,0-3.68-.836l-29.7,18.134a2.617,2.617,0,0,0-1.176,1.576l-3.483,13.423a2.613,2.613,0,0,1-1.176,1.576l-49.2,30.04a2.588,2.588,0,0,0-.854,3.605l42.684,67.041a2.7,2.7,0,0,0,3.68.836l90.7-55.377a2.585,2.585,0,0,0,.854-3.605" transform="translate(269.243 12195.836)"/>
      <path id="Trazado_827641" data-name="Trazado 827641" d="M0,107.87l29.787-.281L30.792,0,1,.281Z" transform="matrix(-0.529, -0.849, 0.849, -0.529, 549.664, 12585.221)" fill="#f2eadf"/>
      <path id="Trazado_827642" data-name="Trazado 827642" d="M301.882,426.5l90.7-55.379a2.583,2.583,0,0,0,.854-3.6l-37.624-59.1a3.066,3.066,0,0,0-4.173-.948l-90.089,55.008a2.93,2.93,0,0,0-.968,4.087l37.623,59.1a2.705,2.705,0,0,0,3.682.836" transform="translate(274.247 12202.221)" fill="#f35a38"/>
      <rect id="Rectángulo_381322" data-name="Rectángulo 381322" width="74.157" height="72.93" transform="translate(598.723 12563.977)" fill="#f2eadf"/>
      <rect id="Rectángulo_381323" data-name="Rectángulo 381323" width="82.529" height="72.93" transform="translate(516.194 12563.977)" fill="#73716e"/>
      <path id="Trazado_827643" data-name="Trazado 827643" d="M270.843,360.264h37.27a5.989,5.989,0,1,0,0-11.976h-37.27a5.989,5.989,0,1,0,0,11.976m37.27-10.383a4.4,4.4,0,1,1,0,8.79h-37.27a4.4,4.4,0,1,1,0-8.79Z" transform="translate(346.324 12226.697)" fill="#262626"/>
      <path id="Trazado_827644" data-name="Trazado 827644" d="M385.283,374.43H302.755L338.6,341.378h82.527Z" transform="translate(177.598 12222.6)" fill="#262626"/>
      <rect id="Rectángulo_381324" data-name="Rectángulo 381324" width="353.761" height="1.593" transform="translate(452.176 12634.768)" fill="#262626"/>
      <rect id="Rectángulo_381325" data-name="Rectángulo 381325" width="313.124" height="7.225" transform="translate(510.121 12439.855)" fill="#73716e"/>
      <path id="Trazado_827645" data-name="Trazado 827645" d="M98.294,270.792H413.043v-8.82H98.294ZM411.815,269.2H99.521v-5.634H411.815Z" transform="translate(415.895 12175.492)" fill="#262626"/>
      <path id="Trazado_827646" data-name="Trazado 827646" d="M266.381,280.321H422.111a3.3,3.3,0,0,0,2.668-1.2,3.34,3.34,0,0,0,.511-2.968l-23.9-88.131a5.306,5.306,0,0,0-4.9-3.765H240.756a3.3,3.3,0,0,0-2.666,1.206,3.34,3.34,0,0,0-.512,2.968l23.9,88.129a5.3,5.3,0,0,0,4.9,3.765m130.108-94.475a3.716,3.716,0,0,1,3.329,2.583l23.9,88.128a1.765,1.765,0,0,1-.228,1.587,1.694,1.694,0,0,1-1.378.585H266.381a3.71,3.71,0,0,1-3.327-2.579l-23.9-88.131a1.766,1.766,0,0,1,.229-1.587,1.688,1.688,0,0,1,1.376-.585Z" transform="translate(279.551 12129.389)" fill="#262626"/>
      <path id="Trazado_827647" data-name="Trazado 827647" d="M268.067,279.228H423.8a2.373,2.373,0,0,0,2.393-3.174l-23.9-88.129a4.512,4.512,0,0,0-4.114-3.172H242.444a2.373,2.373,0,0,0-2.393,3.172l23.9,88.129a4.512,4.512,0,0,0,4.114,3.174" transform="translate(274.611 12129.684)" fill="#fff"/>
      <rect id="Rectángulo_381326" data-name="Rectángulo 381326" width="26.311" height="40.546" transform="translate(592.705 12368.367)" fill="#73716e"/>
      <path id="Trazado_827648" data-name="Trazado 827648" d="M268.381,280.321H424.111a3.3,3.3,0,0,0,2.668-1.2,3.336,3.336,0,0,0,.511-2.968l-23.9-88.131a5.306,5.306,0,0,0-4.9-3.765H242.758a3.3,3.3,0,0,0-2.668,1.206,3.34,3.34,0,0,0-.512,2.968l23.9,88.129a5.3,5.3,0,0,0,4.9,3.765m130.108-94.475a3.715,3.715,0,0,1,3.329,2.583l23.9,88.128a1.765,1.765,0,0,1-.228,1.587,1.693,1.693,0,0,1-1.378.585H268.381a3.711,3.711,0,0,1-3.327-2.579l-23.9-88.131a1.766,1.766,0,0,1,.229-1.587,1.689,1.689,0,0,1,1.378-.585Z" transform="translate(274.297 12129.389)" fill="#262626"/>
      <path id="Trazado_827649" data-name="Trazado 827649" d="M290.053,288.877h26.526L334.763,218.6H308.237Z" transform="translate(284.623 12149.766)" fill="#fff"/>
      <path id="Trazado_827650" data-name="Trazado 827650" d="M289.41,289.969h28.2l18.6-71.866h-28.2Zm26.939-1.593H291.5L309.274,219.7h24.849Z" transform="translate(284.219 12149.469)" fill="#262626"/>
      <path id="Trazado_827651" data-name="Trazado 827651" d="M325.138,218.6h0Z" transform="translate(294.248 12149.766)" fill="#fff"/>
      <rect id="Rectángulo_381327" data-name="Rectángulo 381327" width="35.085" height="1.593" transform="translate(584.301 12367.572)" fill="#262626"/>
      <rect id="Rectángulo_381328" data-name="Rectángulo 381328" width="10.947" height="1.593" transform="translate(657.137 12318.627)" fill="#262626"/>
      <rect id="Rectángulo_381329" data-name="Rectángulo 381329" width="1.861" height="1.593" transform="translate(650.459 12318.627)" fill="#262626"/>
      <path id="Trazado_827652" data-name="Trazado 827652" d="M0,194.515l1.626-.006L2.39,0,.765.006Z" transform="translate(573.237 12636.619) rotate(-169.058)" fill="#262626"/>
      <rect id="Rectángulo_381330" data-name="Rectángulo 381330" width="5.396" height="1.593" transform="translate(815.124 12634.768)" fill="#262626"/>
    </g>
    <g id="Grupo_1080131" data-name="Grupo 1080131" transform="translate(-287.333 -613.098)">
      <g id="Grupo_1080130" data-name="Grupo 1080130" transform="translate(742.255 12252.253)" opacity="0.2">
        <g id="Grupo_1080129" data-name="Grupo 1080129">
          <g id="Grupo_1080128" data-name="Grupo 1080128" clip-path="url(#clip-path-4)">
            <path id="Trazado_827653" data-name="Trazado 827653" d="M201.174,112.246h102.68a8.517,8.517,0,0,0,8.518-8.518V30.535a8.517,8.517,0,0,0-8.518-8.518H201.174a8.517,8.517,0,0,0-8.518,8.518v73.193a8.517,8.517,0,0,0,8.518,8.518" transform="translate(-192.656 -22.017)"/>
          </g>
        </g>
      </g>
      <path id="Trazado_827654" data-name="Trazado 827654" d="M196.761,106.362H299.44a8.518,8.518,0,0,0,8.519-8.518V24.651a8.518,8.518,0,0,0-8.519-8.518H196.761a8.517,8.517,0,0,0-8.518,8.518V97.844a8.517,8.517,0,0,0,8.518,8.518" transform="translate(558.409 12230.256)" fill="#fff"/>
      <path id="Rectángulo_381332" data-name="Rectángulo 381332" d="M8.549,0H111.167a8.548,8.548,0,0,1,8.548,8.548V81.68a8.548,8.548,0,0,1-8.548,8.548H8.548A8.548,8.548,0,0,1,0,81.68V8.549A8.549,8.549,0,0,1,8.549,0Z" transform="translate(746.652 12246.39)" fill="none" stroke="#263238" stroke-linecap="round" stroke-linejoin="round" stroke-width="1"/>
      <line id="Línea_4258" data-name="Línea 4258" x1="112.398" transform="translate(748.415 12328.171)" fill="none" stroke="#263238" stroke-miterlimit="10" stroke-width="0.5"/>
      <line id="Línea_4259" data-name="Línea 4259" y2="1.663" transform="translate(860.813 12328.171)" fill="none" stroke="#263238" stroke-miterlimit="10" stroke-width="0.5"/>
      <line id="Línea_4260" data-name="Línea 4260" y2="1.663" transform="translate(853.32 12328.171)" fill="none" stroke="#263238" stroke-miterlimit="10" stroke-width="0.5"/>
      <line id="Línea_4261" data-name="Línea 4261" y2="1.663" transform="translate(845.827 12328.171)" fill="none" stroke="#263238" stroke-miterlimit="10" stroke-width="0.5"/>
      <line id="Línea_4262" data-name="Línea 4262" y2="1.663" transform="translate(838.334 12328.171)" fill="none" stroke="#263238" stroke-miterlimit="10" stroke-width="0.5"/>
      <line id="Línea_4263" data-name="Línea 4263" y2="1.663" transform="translate(830.84 12328.171)" fill="none" stroke="#263238" stroke-miterlimit="10" stroke-width="0.5"/>
      <line id="Línea_4264" data-name="Línea 4264" y2="1.663" transform="translate(823.347 12328.171)" fill="none" stroke="#263238" stroke-miterlimit="10" stroke-width="0.5"/>
      <line id="Línea_4265" data-name="Línea 4265" y2="1.663" transform="translate(815.854 12328.171)" fill="none" stroke="#263238" stroke-miterlimit="10" stroke-width="0.5"/>
      <line id="Línea_4266" data-name="Línea 4266" y2="1.663" transform="translate(808.361 12328.171)" fill="none" stroke="#263238" stroke-miterlimit="10" stroke-width="0.5"/>
      <line id="Línea_4267" data-name="Línea 4267" y2="1.663" transform="translate(800.867 12328.171)" fill="none" stroke="#263238" stroke-miterlimit="10" stroke-width="0.5"/>
      <line id="Línea_4268" data-name="Línea 4268" y2="1.663" transform="translate(793.374 12328.171)" fill="none" stroke="#263238" stroke-miterlimit="10" stroke-width="0.5"/>
      <line id="Línea_4269" data-name="Línea 4269" y2="1.663" transform="translate(785.881 12328.171)" fill="none" stroke="#263238" stroke-miterlimit="10" stroke-width="0.5"/>
      <line id="Línea_4270" data-name="Línea 4270" y2="1.663" transform="translate(778.388 12328.171)" fill="none" stroke="#263238" stroke-miterlimit="10" stroke-width="0.5"/>
      <line id="Línea_4271" data-name="Línea 4271" y2="1.663" transform="translate(770.895 12328.171)" fill="none" stroke="#263238" stroke-miterlimit="10" stroke-width="0.5"/>
      <line id="Línea_4272" data-name="Línea 4272" y2="1.663" transform="translate(763.401 12328.171)" fill="none" stroke="#263238" stroke-miterlimit="10" stroke-width="0.5"/>
      <line id="Línea_4273" data-name="Línea 4273" y2="1.663" transform="translate(755.908 12328.171)" fill="none" stroke="#263238" stroke-miterlimit="10" stroke-width="0.5"/>
      <line id="Línea_4274" data-name="Línea 4274" y2="1.663" transform="translate(748.415 12328.171)" fill="none" stroke="#263238" stroke-miterlimit="10" stroke-width="0.5"/>
      <path id="Trazado_827655" data-name="Trazado 827655" d="M302.482,96.593H197.577v-14.5l7.416-14.353a1.034,1.034,0,0,0,.1-.318l6.6-42.558a.8.8,0,0,1,1.6.028L220,76.845a.972.972,0,0,0,.353.644l6.468,5.007a.751.751,0,0,0,1.155-.322l6.512-13.442a.751.751,0,0,1,1.307-.168l6.739,8.694,7.493,9.667,7.493-9.667,6.6-8.518a.764.764,0,0,1,1.36.3l7.025,21.752L280,52.023,287.5,94.66l7.493-5.8,5.934-16.842c.337-.956,1.559-.676,1.559.357Z" transform="translate(554.585 12230.228)" fill="#78f0f4"/>
      <path id="Trazado_827656" data-name="Trazado 827656" d="M197.577,96.653H302.482V84.183L295.066,71.84a.8.8,0,0,1-.1-.274l-6.6-36.6a.81.81,0,0,0-1.6.023l-6.711,44.679a.81.81,0,0,1-.353.554l-6.468,4.306a.811.811,0,0,1-1.155-.276l-6.512-11.561a.81.81,0,0,0-1.307-.144l-6.739,7.476-7.493,8.314-7.493-8.314-6.6-7.324a.81.81,0,0,0-1.36.257L227.55,91.665h-7.493l-7.493,3.325L205.07,90l-5.934-14.484a.81.81,0,0,0-1.559.308Z" transform="translate(554.585 12230.191)" fill="#263238"/>
      <line id="Línea_4275" data-name="Línea 4275" x1="23.216" transform="translate(777.041 12258.423)" fill="none" stroke="#263238" stroke-linecap="round" stroke-linejoin="round" stroke-width="1"/>
      <line id="Línea_4276" data-name="Línea 4276" x1="23.216" transform="translate(777.041 12263.859)" fill="none" stroke="#263238" stroke-linecap="round" stroke-linejoin="round" stroke-width="1"/>
      <line id="Línea_4277" data-name="Línea 4277" x1="23.216" transform="translate(777.041 12269.295)" fill="none" stroke="#263238" stroke-linecap="round" stroke-linejoin="round" stroke-width="1"/>
      <line id="Línea_4278" data-name="Línea 4278" x1="23.216" transform="translate(777.041 12274.731)" fill="none" stroke="#263238" stroke-linecap="round" stroke-linejoin="round" stroke-width="1"/>
      <line id="Línea_4279" data-name="Línea 4279" x1="23.216" transform="translate(777.041 12280.167)" fill="none" stroke="#263238" stroke-linecap="round" stroke-linejoin="round" stroke-width="1"/>
      <line id="Línea_4280" data-name="Línea 4280" x1="23.216" transform="translate(777.041 12285.604)" fill="none" stroke="#263238" stroke-linecap="round" stroke-linejoin="round" stroke-width="1"/>
      <line id="Línea_4281" data-name="Línea 4281" x1="2.902" transform="translate(802.632 12258.423)" fill="none" stroke="#263238" stroke-linecap="round" stroke-linejoin="round" stroke-width="1"/>
      <line id="Línea_4282" data-name="Línea 4282" x1="2.902" transform="translate(802.632 12263.859)" fill="none" stroke="#263238" stroke-linecap="round" stroke-linejoin="round" stroke-width="1"/>
      <line id="Línea_4283" data-name="Línea 4283" x1="2.902" transform="translate(802.632 12269.295)" fill="none" stroke="#263238" stroke-linecap="round" stroke-linejoin="round" stroke-width="1"/>
      <line id="Línea_4284" data-name="Línea 4284" x1="2.902" transform="translate(802.632 12274.731)" fill="none" stroke="#263238" stroke-linecap="round" stroke-linejoin="round" stroke-width="1"/>
      <line id="Línea_4285" data-name="Línea 4285" x1="2.902" transform="translate(802.632 12280.167)" fill="none" stroke="#263238" stroke-linecap="round" stroke-linejoin="round" stroke-width="1"/>
      <line id="Línea_4286" data-name="Línea 4286" x1="2.902" transform="translate(802.632 12285.604)" fill="none" stroke="#263238" stroke-linecap="round" stroke-linejoin="round" stroke-width="1"/>
    </g>
  </g>
</svg>
