<svg xmlns="http://www.w3.org/2000/svg" xmlns:xlink="http://www.w3.org/1999/xlink" width="400" height="497" viewBox="0 0 400 497">
  <defs>
    <clipPath id="clip-path">
      <rect id="Rectángulo_382016" data-name="Rectángulo 382016" width="400" height="497" transform="translate(180 829)" fill="#021456" opacity="0.23"/>
    </clipPath>
  </defs>
  <g id="Enmascarar_grupo_1075558" data-name="Enmascarar grupo 1075558" transform="translate(-180 -829)" clip-path="url(#clip-path)">
    <g id="Grupo_1075456" data-name="Grupo 1075456" transform="translate(180 829.422)">
      <rect id="Rectángulo_376271" data-name="Rectángulo 376271" width="210" height="496.893" rx="6" transform="translate(157.289 0)" fill="#fff9cc"/>
      <g id="Grupo_1072676" data-name="Grupo 1072676" transform="translate(28.896 21.352)">
        <path id="Trazado_821583" data-name="Trazado 821583" d="M0,0H192.867V133.175H0Z" transform="translate(96.503 0.019)" fill="#ececec"/>
        <path id="Trazado_821584" data-name="Trazado 821584" d="M0,0H92.681V107.233H0Z" transform="translate(226.985 53.88)" fill="#ffeae0"/>
        <g id="Grupo_1072640" data-name="Grupo 1072640" transform="translate(96.503)">
          <path id="Trazado_821474" data-name="Trazado 821474" d="M348.32,39.68l109.623.019.19,47.187" transform="translate(-265.266 -39.68)" fill="none" stroke="#31313c" stroke-linecap="round" stroke-linejoin="round" stroke-width="1"/>
          <path id="Trazado_821475" data-name="Trazado 821475" d="M344.7,172.874l-127.42-.71V39.7L273.7,39.68" transform="translate(-217.28 -39.68)" fill="none" stroke="#31313c" stroke-linecap="round" stroke-linejoin="round" stroke-width="1"/>
          <line id="Línea_3786" data-name="Línea 3786" x2="184.615" transform="translate(2.63 11.079)" fill="none" stroke="#31313c" stroke-linecap="round" stroke-linejoin="round" stroke-width="1"/>
          <line id="Línea_3787" data-name="Línea 3787" x2="8.018" transform="translate(157.665 6.281)" fill="none" stroke="#31313c" stroke-linecap="round" stroke-linejoin="round" stroke-width="1"/>
          <rect id="Rectángulo_376276" data-name="Rectángulo 376276" width="8.227" height="6.256" transform="translate(169.258 2.345)" fill="none" stroke="#31313c" stroke-linecap="round" stroke-linejoin="round" stroke-width="1"/>
          <g id="Grupo_1072639" data-name="Grupo 1072639" transform="translate(182.453 2.973)">
            <line id="Línea_3788" data-name="Línea 3788" x2="5.229" y2="5.229" transform="translate(0)" fill="none" stroke="#31313c" stroke-linecap="round" stroke-linejoin="round" stroke-width="1"/>
            <line id="Línea_3789" data-name="Línea 3789" x1="5.229" y2="5.229" transform="translate(0)" fill="none" stroke="#31313c" stroke-linecap="round" stroke-linejoin="round" stroke-width="1"/>
          </g>
        </g>
        <g id="Grupo_1072642" data-name="Grupo 1072642" transform="translate(226.985 53.88)">
          <path id="Trazado_821476" data-name="Trazado 821476" d="M472.872,232.525H423.15V124.69h92.295V232.525H491.835" transform="translate(-423.15 -124.69)" fill="none" stroke="#31313c" stroke-linecap="round" stroke-linejoin="round" stroke-width="1"/>
          <line id="Línea_3790" data-name="Línea 3790" x2="82.705" transform="translate(3.968 11.079)" fill="none" stroke="#31313c" stroke-linecap="round" stroke-linejoin="round" stroke-width="1"/>
          <line id="Línea_3791" data-name="Línea 3791" x2="8.018" transform="translate(57.093 6.275)" fill="none" stroke="#31313c" stroke-linecap="round" stroke-linejoin="round" stroke-width="1"/>
          <rect id="Rectángulo_376277" data-name="Rectángulo 376277" width="8.227" height="6.256" transform="translate(68.685 2.339)" fill="none" stroke="#31313c" stroke-linecap="round" stroke-linejoin="round" stroke-width="1"/>
          <g id="Grupo_1072641" data-name="Grupo 1072641" transform="translate(81.881 2.973)">
            <line id="Línea_3792" data-name="Línea 3792" x2="5.223" y2="5.229" transform="translate(0)" fill="none" stroke="#31313c" stroke-linecap="round" stroke-linejoin="round" stroke-width="1"/>
            <line id="Línea_3793" data-name="Línea 3793" x1="5.223" y2="5.229" transform="translate(0)" fill="none" stroke="#31313c" stroke-linecap="round" stroke-linejoin="round" stroke-width="1"/>
          </g>
        </g>
        <text id="Python_" data-name="Python " transform="translate(106.885 34.77)" fill="#3a3e44" font-size="13" font-family="SegoeUI-BoldItalic, Segoe UI" font-weight="700" font-style="italic"><tspan x="0" y="0">Python </tspan></text>
        <path id="Trazado_821585" data-name="Trazado 821585" d="M0,0H76.785V31.766H0Z" transform="translate(235.098 121.354)" fill="none" stroke="#31313c" stroke-linecap="round" stroke-width="1"/>
        <g id="Grupo_1072643" data-name="Grupo 1072643" transform="translate(196.905 108.273)">
          <path id="Trazado_821477" data-name="Trazado 821477" d="M375.69,210.51l6.23,6.23-6.23,6.237" transform="translate(-375.69 -210.51)" fill="none" stroke="#3a3e44" stroke-linecap="round" stroke-linejoin="round" stroke-width="1"/>
          <path id="Trazado_821478" data-name="Trazado 821478" d="M388.11,210.51l6.23,6.23-6.23,6.237" transform="translate(-380.238 -210.51)" fill="none" stroke="#3a3e44" stroke-linecap="round" stroke-linejoin="round" stroke-width="1"/>
          <path id="Trazado_821479" data-name="Trazado 821479" d="M400.53,210.51l6.23,6.23-6.23,6.237" transform="translate(-384.786 -210.51)" fill="none" stroke="#3a3e44" stroke-linecap="round" stroke-linejoin="round" stroke-width="1"/>
        </g>
        <g id="Grupo_1072644" data-name="Grupo 1072644" transform="translate(299.784 32.882)">
          <path id="Trazado_821480" data-name="Trazado 821480" d="M538.01,91.56l6.23,6.237-6.23,6.23" transform="translate(-538.01 -91.56)" fill="none" stroke="#3a3e44" stroke-linecap="round" stroke-linejoin="round" stroke-width="1"/>
          <path id="Trazado_821481" data-name="Trazado 821481" d="M550.43,91.56l6.23,6.237-6.23,6.23" transform="translate(-542.558 -91.56)" fill="none" stroke="#3a3e44" stroke-linecap="round" stroke-linejoin="round" stroke-width="1"/>
          <path id="Trazado_821482" data-name="Trazado 821482" d="M562.85,91.56l6.23,6.237-6.23,6.23" transform="translate(-547.106 -91.56)" fill="none" stroke="#3a3e44" stroke-linecap="round" stroke-linejoin="round" stroke-width="1"/>
        </g>
        <g id="Grupo_1072645" data-name="Grupo 1072645" transform="translate(0 0.044)">
          <path id="Trazado_821483" data-name="Trazado 821483" d="M65.02,39.75l6.237,6.237-6.237,6.23" transform="translate(-65.02 -39.75)" fill="none" stroke="#3a3e44" stroke-linecap="round" stroke-linejoin="round" stroke-width="1"/>
          <path id="Trazado_821484" data-name="Trazado 821484" d="M77.44,39.75l6.237,6.237-6.237,6.23" transform="translate(-69.568 -39.75)" fill="none" stroke="#3a3e44" stroke-linecap="round" stroke-linejoin="round" stroke-width="1"/>
          <path id="Trazado_821485" data-name="Trazado 821485" d="M89.86,39.75,96.1,45.987l-6.237,6.23" transform="translate(-74.116 -39.75)" fill="none" stroke="#3a3e44" stroke-linecap="round" stroke-linejoin="round" stroke-width="1"/>
        </g>
        <g id="Grupo_1072649" data-name="Grupo 1072649" transform="translate(331.087 140.717)">
          <g id="Grupo_1072646" data-name="Grupo 1072646" transform="translate(0 0)">
            <path id="Trazado_821486" data-name="Trazado 821486" d="M590.968,263.481a1.784,1.784,0,1,1-1.787-1.781A1.789,1.789,0,0,1,590.968,263.481Z" transform="translate(-587.4 -261.7)" fill="#fff"/>
            <path id="Trazado_821487" data-name="Trazado 821487" d="M606.678,263.481a1.784,1.784,0,1,1-1.787-1.781A1.789,1.789,0,0,1,606.678,263.481Z" transform="translate(-593.153 -261.7)" fill="#fff"/>
            <path id="Trazado_821488" data-name="Trazado 821488" d="M622.378,263.481a1.784,1.784,0,1,1-1.787-1.781A1.789,1.789,0,0,1,622.378,263.481Z" transform="translate(-598.902 -261.7)" fill="#fff"/>
          </g>
          <g id="Grupo_1072647" data-name="Grupo 1072647" transform="translate(0 8.835)">
            <path id="Trazado_821489" data-name="Trazado 821489" d="M590.968,277.427a1.784,1.784,0,1,1-1.787-1.787A1.784,1.784,0,0,1,590.968,277.427Z" transform="translate(-587.4 -275.64)" fill="#fff"/>
            <path id="Trazado_821490" data-name="Trazado 821490" d="M606.678,277.427a1.784,1.784,0,1,1-1.787-1.787A1.784,1.784,0,0,1,606.678,277.427Z" transform="translate(-593.153 -275.64)" fill="#fff"/>
            <path id="Trazado_821491" data-name="Trazado 821491" d="M622.378,277.427a1.784,1.784,0,1,1-1.787-1.787A1.784,1.784,0,0,1,622.378,277.427Z" transform="translate(-598.902 -275.64)" fill="#fff"/>
          </g>
          <g id="Grupo_1072648" data-name="Grupo 1072648" transform="translate(0 17.67)">
            <path id="Trazado_821492" data-name="Trazado 821492" d="M590.968,291.367a1.784,1.784,0,1,1-1.787-1.787A1.784,1.784,0,0,1,590.968,291.367Z" transform="translate(-587.4 -289.58)" fill="#fff"/>
            <path id="Trazado_821493" data-name="Trazado 821493" d="M606.678,291.367a1.784,1.784,0,1,1-1.787-1.787A1.784,1.784,0,0,1,606.678,291.367Z" transform="translate(-593.153 -289.58)" fill="#fff"/>
            <path id="Trazado_821494" data-name="Trazado 821494" d="M622.378,291.367a1.784,1.784,0,1,1-1.787-1.787A1.784,1.784,0,0,1,622.378,291.367Z" transform="translate(-598.902 -289.58)" fill="#fff"/>
          </g>
        </g>
        <g id="Grupo_1072653" data-name="Grupo 1072653" transform="translate(0 23.774)">
          <g id="Grupo_1072650" data-name="Grupo 1072650" transform="translate(0)">
            <path id="Trazado_821495" data-name="Trazado 821495" d="M28.811,85.261a2.581,2.581,0,1,1-2.581-2.571A2.583,2.583,0,0,1,28.811,85.261Z" transform="translate(-23.65 -82.69)" fill="#3a3e44"/>
            <path id="Trazado_821496" data-name="Trazado 821496" d="M44.522,85.261a2.576,2.576,0,1,1-2.581-2.571A2.583,2.583,0,0,1,44.522,85.261Z" transform="translate(-24.984 -82.69)" fill="#3a3e44"/>
            <path id="Trazado_821497" data-name="Trazado 821497" d="M60.232,85.261a2.576,2.576,0,1,1-2.581-2.571A2.583,2.583,0,0,1,60.232,85.261Z" transform="translate(-26.318 -82.69)" fill="#3a3e44"/>
          </g>
          <g id="Grupo_1072651" data-name="Grupo 1072651" transform="translate(0 12.766)">
            <path id="Trazado_821498" data-name="Trazado 821498" d="M28.811,99.211a2.581,2.581,0,1,1-2.581-2.571A2.583,2.583,0,0,1,28.811,99.211Z" transform="translate(-23.65 -96.64)" fill="#3a3e44"/>
            <path id="Trazado_821499" data-name="Trazado 821499" d="M44.522,99.211a2.576,2.576,0,1,1-2.581-2.571A2.583,2.583,0,0,1,44.522,99.211Z" transform="translate(-24.984 -96.64)" fill="#3a3e44"/>
            <path id="Trazado_821500" data-name="Trazado 821500" d="M60.232,99.211a2.576,2.576,0,1,1-2.581-2.571A2.583,2.583,0,0,1,60.232,99.211Z" transform="translate(-26.318 -96.64)" fill="#3a3e44"/>
          </g>
          <g id="Grupo_1072652" data-name="Grupo 1072652" transform="translate(0 25.522)">
            <path id="Trazado_821501" data-name="Trazado 821501" d="M28.811,113.161a2.581,2.581,0,1,1-2.581-2.581A2.583,2.583,0,0,1,28.811,113.161Z" transform="translate(-23.65 -110.58)" fill="#3a3e44"/>
            <path id="Trazado_821502" data-name="Trazado 821502" d="M44.522,113.161a2.576,2.576,0,1,1-2.581-2.581A2.583,2.583,0,0,1,44.522,113.161Z" transform="translate(-24.984 -110.58)" fill="#3a3e44"/>
            <path id="Trazado_821503" data-name="Trazado 821503" d="M60.232,113.161a2.576,2.576,0,1,1-2.581-2.581A2.583,2.583,0,0,1,60.232,113.161Z" transform="translate(-26.318 -110.58)" fill="#3a3e44"/>
          </g>
        </g>
      </g>
      <g id="Grupo_1072637" data-name="Grupo 1072637" transform="translate(0 113.01)">
        <g id="Grupo_158072" data-name="Grupo 158072" transform="translate(0 0)">
          <path id="Trazado_152014" data-name="Trazado 152014" d="M127.176.437V102.7a.433.433,0,0,0,.865,0V.437a.433.433,0,0,0-.865,0" transform="translate(-17.171 -0.003)" fill="#2b244a"/>
          <path id="Trazado_152015" data-name="Trazado 152015" d="M98.176.437V102.7a.433.433,0,0,0,.865,0V.437a.433.433,0,0,0-.865,0" transform="translate(-13.255 -0.003)" fill="#2b244a"/>
          <path id="Trazado_152016" data-name="Trazado 152016" d="M69.676.437V102.7a.433.433,0,0,0,.865,0V.437a.433.433,0,0,0-.865,0" transform="translate(-9.407 -0.003)" fill="#2b244a"/>
          <path id="Trazado_152017" data-name="Trazado 152017" d="M184.787.437V102.7a.433.433,0,0,0,.865,0V.437a.433.433,0,0,0-.865,0" transform="translate(-24.949 -0.003)" fill="#2b244a"/>
          <path id="Trazado_152018" data-name="Trazado 152018" d="M156.287.437V102.7a.433.433,0,0,0,.865,0V.437a.433.433,0,0,0-.865,0" transform="translate(-21.101 -0.003)" fill="#2b244a"/>
          <path id="Trazado_152019" data-name="Trazado 152019" d="M184.119,102.263H50.063c-1.7,0-3.394.14-4.937-.742a5.826,5.826,0,0,1-2.864-5.2q0-1.02,0-2.04V11.444c0-1.617-.017-3.235,0-4.852A5.742,5.742,0,0,1,47.933.868c.25,0,.5,0,.752,0H183.747a6.184,6.184,0,0,1,3.506.943,5.855,5.855,0,0,1,2.536,5.033V95.12c0,.472.005.945,0,1.418a5.742,5.742,0,0,1-5.67,5.724.433.433,0,0,0,0,.865,6.62,6.62,0,0,0,6.535-6.539c.006-.4,0-.794,0-1.19V12.776c0-1.987,0-3.974,0-5.961A6.667,6.667,0,0,0,183.888,0c-1.422,0-2.843,0-4.265,0H48.6c-.358,0-.721-.01-1.079.013A6.614,6.614,0,0,0,41.4,6.548c-.02,1.489,0,2.982,0,4.472V94.336c0,.675,0,1.349,0,2.024a6.707,6.707,0,0,0,2.412,5.3c1.8,1.456,3.792,1.467,5.922,1.467H184.119a.433.433,0,0,0,0-.865" transform="translate(-5.588 0)" fill="#2b244a"/>
          <path id="Trazado_152020" data-name="Trazado 152020" d="M190.226,59.113H41.834a.433.433,0,0,0,0,.865H190.226a.433.433,0,0,0,0-.865" transform="translate(-5.592 -7.982)" fill="#2b244a"/>
          <path id="Trazado_152021" data-name="Trazado 152021" d="M190.226,29.558H41.834a.433.433,0,0,0,0,.865H190.226a.433.433,0,0,0,0-.865" transform="translate(-5.592 -3.991)" fill="#2b244a"/>
          <path id="Trazado_152022" data-name="Trazado 152022" d="M190.226,88.669H41.834a.433.433,0,0,0,0,.865H190.226a.433.433,0,0,0,0-.865" transform="translate(-5.592 -11.972)" fill="#2b244a"/>
          <g id="Grupo_1072743" data-name="Grupo 1072743" transform="translate(51.618 4.471)">
            <path id="Trazado_152023" data-name="Trazado 152023" d="M102.06,36.5H60.541a.865.865,0,0,1-.865-.865V6.034a.865.865,0,0,1,.865-.865H102.06a.865.865,0,0,1,.865.865v29.6a.865.865,0,0,1-.865.865" transform="translate(-59.676 -5.169)" fill="#ccb16c"/>
            <path id="Trazado_152024" data-name="Trazado 152024" d="M71.535,15.22a11.964,11.964,0,0,1,2.521-1.361c.335-.129.945-.407,1.209-.045.205.281.131.759.207,1.091.336,1.457,2.011,2.039,3.344,1.8,1.869-.329,3.193-1.952,5.041-2.306a1.572,1.572,0,0,1,.7-.046c.161.072.241.324.344.458a1.356,1.356,0,0,0,.722.484,3.382,3.382,0,0,0,2.055-.3,13.49,13.49,0,0,1,6.71-.824c.545.074.78-.759.23-.835a14.25,14.25,0,0,0-5.964.408,10.244,10.244,0,0,1-2.468.752c-.438.01-.554-.177-.778-.512a1.071,1.071,0,0,0-.872-.5c-1.98-.138-3.45,1.524-5.178,2.173a2.614,2.614,0,0,1-2.479-.149c-.742-.534-.46-1.307-.805-2.027-.4-.824-1.329-.788-2.076-.526a12.156,12.156,0,0,0-2.9,1.515c-.453.315-.022,1.066.437.746" transform="translate(-61.192 -6.198)" fill="#2b244a"/>
            <path id="Trazado_152025" data-name="Trazado 152025" d="M71.4,31.118a14.445,14.445,0,0,1,4.727-2.472,3.5,3.5,0,0,1,.618-.173c.293-.029.283-.011.262.249-.026.339-.25.663-.287,1.012a1.549,1.549,0,0,0,.912,1.528A3.723,3.723,0,0,0,80.16,31.2l3.009-.721c.208-.049.875-.3,1.071-.09.068.074.023.366.054.475a.79.79,0,0,0,.276.413,1.409,1.409,0,0,0,.931.188c.535-.009,1.069-.023,1.6-.035l6.953-.15a.433.433,0,0,0,0-.865l-6.418.138-1.6.035a3.15,3.15,0,0,1-.749.016c-.252-.067-.13-.075-.195-.362-.149-.667-.825-.825-1.424-.751a27.268,27.268,0,0,0-2.907.676c-.8.193-2.386.874-3.04.094-.462-.552.332-1.366.172-2.018-.2-.832-1.108-.687-1.735-.509a15.525,15.525,0,0,0-5.372,2.772c-.437.344.179.952.612.612" transform="translate(-61.155 -8.197)" fill="#2b244a"/>
            <path id="Trazado_152026" data-name="Trazado 152026" d="M71.1,21.289c-.217.646-.813,1.6-.127,2.177a2.251,2.251,0,0,0,1.9.136c2.32-.535,4.621-1.165,6.929-1.748l-.532-.532a1.466,1.466,0,0,0,1.272,1.827,4.169,4.169,0,0,0,1.759-.261,9.563,9.563,0,0,1,1.939-.33A36.046,36.046,0,0,1,88,22.6l4.152.15c.557.021.556-.844,0-.865-2.169-.078-4.34-.2-6.511-.221a13.959,13.959,0,0,0-2.891.229c-.52.1-1.021.311-1.543.4-.449.072-1.335-.074-1.1-.731a.436.436,0,0,0-.532-.532L74.2,22.377a11.758,11.758,0,0,1-2.179.491c-.257.013-.434.049-.5-.189-.078-.28.324-.894.413-1.16.178-.529-.657-.756-.834-.23" transform="translate(-61.157 -7.305)" fill="#2b244a"/>
          </g>
          <path id="Trazado_152027" data-name="Trazado 152027" d="M145.98,65.9h-22.1a.865.865,0,0,1-.865-.865V25.923a.865.865,0,0,1,.865-.865h22.1a.865.865,0,0,1,.865.865V65.039a.865.865,0,0,1-.865.865" transform="translate(-16.608 -3.384)" fill="#ffeae0"/>
          <path id="Trazado_152028" data-name="Trazado 152028" d="M141.209,53.163H130.541a.865.865,0,0,1-.865-.865V33.7a.865.865,0,0,1,.865-.865h10.668a.865.865,0,0,1,.865.865V52.3a.865.865,0,0,1-.865.865" transform="translate(-17.508 -4.434)" fill="#ccb16c"/>
          <path id="Trazado_152029" data-name="Trazado 152029" d="M135.6,62.566a4.762,4.762,0,0,1,1.171-.5,4.571,4.571,0,0,1,.629-.125c.106-.013.473-.093.558,0,.136.152-.3.8-.351.964a.737.737,0,0,0,.4.95,1.9,1.9,0,0,0,1.109-.1,12.36,12.36,0,0,0,1.168-.41,8.1,8.1,0,0,1,2.417-.7c.553-.035.557-.9,0-.865a8.331,8.331,0,0,0-2.531.683c-.4.158-.808.318-1.224.439q-.178.052-.358.093l-.12.026c-.111-.01-.132.013-.062.067.044.137.107-.12.131-.167.05-.106.108-.206.156-.312a1.026,1.026,0,0,0-.927-1.561,5.253,5.253,0,0,0-2.6.768.433.433,0,0,0,.437.746" transform="translate(-18.221 -8.243)" fill="#2b244a"/>
          <path id="Trazado_152030" data-name="Trazado 152030" d="M198.287,72.7H173.875a.865.865,0,0,1-.865-.865V39.256a.865.865,0,0,1,.865-.865h24.412a.866.866,0,0,1,.865.865V71.837a.866.866,0,0,1-.865.865" transform="translate(-23.359 -5.184)" fill="#ffeae0"/>
          <path id="Trazado_152031" data-name="Trazado 152031" d="M190.388,64.836h5.19a.865.865,0,0,1,.865.865v5.19a.865.865,0,0,1-.865.865h-5.19a.865.865,0,0,1-.865-.865V65.7a.865.865,0,0,1,.865-.865" transform="translate(-25.589 -8.754)" fill="#d9a389"/>
          <path id="Trazado_152032" data-name="Trazado 152032" d="M179.639,47.133a18.08,18.08,0,0,1,2.547-.945,8.282,8.282,0,0,1,2.292-.454c.875.01,1.071.629,1.249,1.361a2.715,2.715,0,0,0,.778,1.519c.968.819,2.387.423,3.479.135l5.15-1.356a.433.433,0,0,0-.23-.834l-5.252,1.383a4.87,4.87,0,0,1-1.981.268c-.774-.125-.963-.745-1.127-1.418a2.661,2.661,0,0,0-.75-1.5,2.308,2.308,0,0,0-1.82-.389,16.638,16.638,0,0,0-4.772,1.48c-.505.231-.067.977.437.746" transform="translate(-24.165 -6.059)" fill="#2b244a"/>
          <path id="Trazado_152033" data-name="Trazado 152033" d="M179.728,62.234a2.165,2.165,0,0,1,2.769-.22,3.526,3.526,0,0,0,1.451.835,1.279,1.279,0,0,0,1.385-.611c.242-.5-.5-.938-.746-.436-.2.409-.757.131-1.018-.05a5.248,5.248,0,0,0-1.448-.882,3.055,3.055,0,0,0-3,.753.433.433,0,0,0,.612.612" transform="translate(-24.167 -8.202)" fill="#2b244a"/>
          <path id="Trazado_152034" data-name="Trazado 152034" d="M179.641,55.789a5.956,5.956,0,0,1,2.521-1.048c.465-.011.35.26.261.6a1.272,1.272,0,0,0-.036.763c.272.737,1.137.445,1.682.258a14.023,14.023,0,0,0,2.427-1.121c.093-.054.365-.248.474-.195-.061-.029-.137.21-.164.33a.834.834,0,0,0,.175.746c.412.458,1.12.307,1.627.142.912-.3,1.818-.612,2.727-.916a4.148,4.148,0,0,1,2.882-.29c.517.2.742-.631.229-.834a3.954,3.954,0,0,0-2.6.05c-.97.285-1.923.637-2.88.959-.171.057-1.12.509-1.291.319-.038-.042.135-.388.145-.449a.883.883,0,0,0-.007-.356c-.176-.692-.991-.624-1.5-.39a25.52,25.52,0,0,1-2.563,1.2c-.049.016-.6.173-.545.242-.043-.055.108-.41.124-.479a1.307,1.307,0,0,0-.035-.88c-.686-1.449-3.274.112-4.088.6a.433.433,0,0,0,.437.746" transform="translate(-24.168 -7.27)" fill="#2b244a"/>
          <path id="Trazado_152035" data-name="Trazado 152035" d="M102.45,117.671H63.43a.865.865,0,0,1-.865-.865V71.923a.865.865,0,0,1,.865-.865h39.02a.865.865,0,0,1,.865.865v44.883a.865.865,0,0,1-.865.865" transform="translate(-8.447 -9.594)" fill="#ffeae0"/>
          <path id="Trazado_152036" data-name="Trazado 152036" d="M71.316,85.115a55.109,55.109,0,0,1,5.748-2.958q.768-.34,1.547-.653c.247-.1.493-.2.741-.292.191-.072.471-.231.581-.043s-.159.58-.244.765q-.175.384-.351.768l-.746,1.633a.446.446,0,0,0,.067.524,1.962,1.962,0,0,0,1.874.28c.844-.223,1.673-.543,2.5-.817,1.779-.587,3.552-1.21,5.344-1.755a7.658,7.658,0,0,1,2.561-.432,8.544,8.544,0,0,1,2.567.82c1.674.617,3.339.026,4.9-.631.505-.212.283-1.049-.23-.834a11.528,11.528,0,0,1-2.421.81,4.118,4.118,0,0,1-2.435-.35,6.949,6.949,0,0,0-2.1-.658,6.852,6.852,0,0,0-2.317.228c-1.66.413-3.281,1.037-4.9,1.572l-2.4.791c-.572.188-1.778.828-2.335.363l.067.524.967-2.113a3.93,3.93,0,0,0,.566-1.561c-.037-1.425-1.777-.714-2.489-.427a55.539,55.539,0,0,0-7.5,3.7.433.433,0,0,0,.437.746" transform="translate(-9.542 -10.834)" fill="#2b244a"/>
          <path id="Trazado_152037" data-name="Trazado 152037" d="M71.217,95q2.433-1.008,4.948-1.793c1.288-.4,3.05-1.134,4.38-.518.658.3.913.984,1.34,1.522a2.269,2.269,0,0,0,1.652.864,5.674,5.674,0,0,0,2.132-.38q1.322-.426,2.645-.855l6.006-1.938c.528-.17.3-1.006-.229-.835L88.8,92.779l-2.646.855a8.1,8.1,0,0,1-2.367.587c-.894,0-1.24-.57-1.689-1.238a2.879,2.879,0,0,0-1.419-1.167,6.641,6.641,0,0,0-4.063.354,56.984,56.984,0,0,0-5.627,2c-.507.21-.285,1.047.231.834" transform="translate(-9.546 -12.293)" fill="#2b244a"/>
          <path id="Trazado_152038" data-name="Trazado 152038" d="M95.782,103.187l5.917-.974c.548-.091.316-.925-.23-.835l-5.917.975c-.548.09-.316.924.23.834" transform="translate(-12.859 -13.687)" fill="#2b244a"/>
          <path id="Trazado_152039" data-name="Trazado 152039" d="M85.878,113h-10.7a.865.865,0,0,1-.865-.865v-10.7a.864.864,0,0,1,.865-.865h10.7a.865.865,0,0,1,.865.865v10.7a.865.865,0,0,1-.865.865" transform="translate(-10.033 -13.579)" fill="#d9a389"/>
          <path id="Trazado_152040" data-name="Trazado 152040" d="M279.781,216.789,234.756,411.681h3.616l48.969-192.3Z" transform="translate(-31.696 -29.271)" fill="#d9a389"/>
          <path id="Trazado_152041" data-name="Trazado 152041" d="M336.816,216.789l45.026,194.892h-3.616l-48.969-192.3Z" transform="translate(-44.455 -29.271)" fill="#d9a389"/>
          <rect id="Rectángulo_35058" data-name="Rectángulo 35058" width="114.83" height="4.903" transform="translate(212.558 347.107)" fill="#d9a389"/>
          <path id="Trazado_152042" data-name="Trazado 152042" d="M175.619,290.226l24.556,132.842h-2.883L165.858,290.226Z" transform="translate(-22.394 -39.186)" fill="#31313c"/>
          <path id="Trazado_152043" data-name="Trazado 152043" d="M215.4,290.226l24.556,132.842h-2.883L205.635,290.226Z" transform="translate(-27.764 -39.186)" fill="#31313c"/>
          <path id="Trazado_152044" data-name="Trazado 152044" d="M114.493,290.226,89.937,423.068H92.82l31.434-132.842Z" transform="translate(-12.143 -39.186)" fill="#31313c"/>
          <path id="Trazado_152045" data-name="Trazado 152045" d="M117.79,304,152.7,325.143l9.948,6.025a.433.433,0,0,0,.437-.746l-34.908-21.145-9.948-6.025a.433.433,0,0,0-.437.746" transform="translate(-15.876 -40.936)" fill="#31313c"/>
          <path id="Trazado_152046" data-name="Trazado 152046" d="M161.909,302.1,142.7,313.738,122.951,325.7l-10.621,6.433a.433.433,0,0,0,.436.747l19.212-11.637,19.747-11.961,10.621-6.434a.433.433,0,0,0-.437-.746" transform="translate(-15.139 -40.78)" fill="#31313c"/>
          <path id="Trazado_152047" data-name="Trazado 152047" d="M103.648,192.785S87.9,253.208,99.284,273.2s66.7,13.84,77.8,6.92-24.074-71.506-24.074-71.506Z" transform="translate(-12.847 -26.03)" fill="#31313c"/>
          <path id="Trazado_152048" data-name="Trazado 152048" d="M109.095,233.654c.415,7.555,1.433,15.566,5.309,22.221,2.836,4.868,7.767,8.29,12.976,10.209a34.115,34.115,0,0,0,11.7,2,.433.433,0,0,0,0-.865,30.816,30.816,0,0,1-18.206-5.567,21.262,21.262,0,0,1-5.294-5.512,32.114,32.114,0,0,1-3.92-9.753,68.863,68.863,0,0,1-1.7-12.735c-.03-.554-.9-.557-.865,0" transform="translate(-14.73 -31.491)" fill="#8c75b5"/>
          <path id="Trazado_152049" data-name="Trazado 152049" d="M223.152,159.938l21.221,18.635-6.1,29.69s-25.352,2.982-37.3-24.29,22.187-24.034,22.187-24.034" transform="translate(-26.791 -21.579)" fill="#e0785e"/>
          <path id="Trazado_152050" data-name="Trazado 152050" d="M292.6,367.656c-.849-3-2.055-5.909-3.146-8.828l-13.307-35.623-13.307-35.623-6.675-17.869a161.282,161.282,0,0,0-6.493-15.658c-4.507-9.036-11.161-17.627-20.719-21.631a28.745,28.745,0,0,0-3.556-1.22.4.4,0,0,0-.483.489,4.329,4.329,0,0,0-.707.166c-5.993,1.944-11.745,4.444-14.45,10.536s-2.065,13.176-5.88,18.833c-2.216,3.285,1.326,6.407,4.4,5.791q5.789,16.078,11.58,32.157,6.391,17.744,12.781,35.49l6.391,17.745c1.939,5.385,3.773,10.824,5.885,16.146,3.264,8.227,8.005,17.06,17.007,19.938.177.057.358.1.537.157.612,1.922,1.835,4.92,3.645,5.483,2.7.841,13.8,1.356,20.334-2.447,2.954-1.719,2.787-4.794,1.721-7.649a18.056,18.056,0,0,0,4.956-8.071,15.807,15.807,0,0,0-.52-8.312" transform="translate(-27.433 -31.215)" fill="#f7cd00"/>
          <path id="Trazado_152051" data-name="Trazado 152051" d="M221.148,230.826c-4.272-4.86-18.76-3.456-27.219-3.456-.253-.424,1.55-18.674.518-23.358H139.682c-1.389-.893-5.131-1.97-5.97.029-4.047,9.637-7.557,27.34-9.6,36.612-1.891,8.568.144,16.835,6.979,21.969,6.694,5.028,15.252,6.333,23.366,7.163,1.179.121,2.425.27,3.692.422-.146.193-.3.37-.44.574-2.222,19.472-6.7,42.72-12.536,61.593-3.588,11.6-7.729,24.619-5,36.84a22.67,22.67,0,0,0,8.216,13.111c-.455,2.976-.08,6.634,4.129,7.563,7.385,1.629,19.6-.61,21.439-2.847a5.387,5.387,0,0,0,.832-3.446,16.349,16.349,0,0,0,2.715-.82c4.911-2.02,7.013-7.173,8.278-11.941,3.79-14.281,7.092-27.6,10.081-42.039,3-14.494,5.978-30.087,10.528-44.148,4.008-12.387,9.188-25.872,6.034-39.046q-.311-1.3-.716-2.583,2.782-1.464,5.558-2.92c-1.053-2.265,5.57-7.353,3.885-9.27" transform="translate(-16.666 -27.397)" fill="#f7cd00"/>
          <path id="Trazado_152052" data-name="Trazado 152052" d="M217.082,290.905a97.664,97.664,0,0,0,3.591-14.764c.43-2.564.775-5.143,1.017-7.732a53.616,53.616,0,0,0,.324-6.41,31.06,31.06,0,0,0-2.249-10.953,23.017,23.017,0,0,0-3.134-5.458,14.009,14.009,0,0,0-3.239-3.149,53.987,53.987,0,0,0-12.579-5.739c-.53-.175-.757.66-.23.834a57.736,57.736,0,0,1,11.631,5.19,12.046,12.046,0,0,1,2.9,2.407,20.68,20.68,0,0,1,3.373,5.149,29.5,29.5,0,0,1,2.626,10.912,43.713,43.713,0,0,1-.157,5.651c-.2,2.561-.5,5.114-.891,7.652a98.843,98.843,0,0,1-3.82,16.181c-.177.529.658.756.834.23" transform="translate(-27.042 -31.956)" fill="#2b244a"/>
          <path id="Trazado_152053" data-name="Trazado 152053" d="M211.269,154.691l-5.631-12.523c-1.709-3.8-3.378-7.63-5.258-11.341-7.044-13.9-17-18.791-32.212-17.7-6.444.463-19.891,2.183-29.238,4.764-5.913,1.632-11.192,5.487-14.809,8.7-11.714,10.394-27.41,27.916-27.41,27.916,3.565,4.322,8.02,10.036,12.044,14.007,2.024,2,4.441,3.523,6.107,5.874a42.7,42.7,0,0,1,2.243,3.668,5.359,5.359,0,0,0,2.917,2.7,17.142,17.142,0,0,0,2.749.569q1.374.222,2.758.375c.569.062,1.14.1,1.71.141-.473,3.8-.834,6.416-1.542,10.632,3.838.819,18.279,2.8,27.548,3.443,18.058,1.249,36.035-2.673,36.066-3.078.5-6.35,1.08-14.074,1.576-20.424.587-.689,16.431-14.108,20.383-17.724" transform="translate(-13.058 -15.255)" fill="#ffeae0"/>
          <path id="Trazado_152054" data-name="Trazado 152054" d="M149.187,153.342l-9.264,11.942c-.337.434.271,1.051.612.612l9.264-11.942c.337-.434-.271-1.051-.612-.612" transform="translate(-18.879 -20.684)" fill="#2b244a"/>
          <path id="Trazado_152055" data-name="Trazado 152055" d="M178.464,115.528c.276,4.576.39,9.162.448,13.745.069,5.517.045,11.035-.038,16.551q-.134,8.831-.472,17.656c-.215,5.588-.488,11.175-.851,16.756-.305,4.705-.667,9.409-1.177,14.1q-.083.756-.171,1.51c-.064.552.8.548.865,0,.534-4.553.906-9.125,1.22-13.7.381-5.5.666-11.016.894-16.528q.363-8.824.522-17.654c.1-5.591.142-11.184.093-16.776-.041-4.716-.137-9.433-.382-14.142q-.04-.759-.086-1.517c-.034-.554-.9-.557-.865,0" transform="translate(-23.79 -15.542)" fill="#2b244a"/>
          <path id="Trazado_152056" data-name="Trazado 152056" d="M101.875,155.731l16.413,16.924c.388.4,1-.212.612-.612L102.486,155.12c-.388-.4-1,.212-.612.612" transform="translate(-13.738 -20.927)" fill="#2b244a"/>
          <path id="Trazado_152057" data-name="Trazado 152057" d="M165.132,115.449q.738,3.756,1.384,7.53c.093.548.927.316.834-.23q-.645-3.773-1.384-7.53c-.107-.546-.941-.315-.834.23" transform="translate(-22.294 -15.515)" fill="#2b244a"/>
          <path id="Trazado_152058" data-name="Trazado 152058" d="M167.264,124q5.308-1.365,10.568-2.911a.433.433,0,0,0-.23-.834q-5.259,1.545-10.567,2.911a.433.433,0,0,0,.23.834" transform="translate(-22.511 -16.234)" fill="#2b244a"/>
          <path id="Trazado_152059" data-name="Trazado 152059" d="M190.986,113.281q-.112,4.245-.118,8.492a.433.433,0,0,0,.865,0q.006-4.247.118-8.492a.433.433,0,0,0-.865,0" transform="translate(-25.77 -15.239)" fill="#2b244a"/>
          <path id="Trazado_152060" data-name="Trazado 152060" d="M189.74,122.4q-5.383-1.029-10.729-2.24c-.542-.123-.773.71-.23.833q5.346,1.212,10.729,2.241c.544.1.777-.729.23-.834" transform="translate(-24.097 -16.222)" fill="#2b244a"/>
          <path id="Trazado_152061" data-name="Trazado 152061" d="M173.557,181.489c-.435-3.327-8.018-12.464-11.451-15.91a18.323,18.323,0,0,0-10.851-5.456c-5.372-.394-11.437,1.573-16.343,2.944-6.251,1.748-12.422,3.766-18.563,5.865-2.929,1-7.5,2.4-10.488,3.5-1.44-.925-8.134-8.15-10.226-10.366-.784,1.024-5.38,6.617-6.125,7.672-3.495,4.947-7.193,10.482-8.229,16.558a17.682,17.682,0,0,0,19.228,20.577c1.577-.162,19.325-8.217,26.916-12.563a224.175,224.175,0,0,1,22.408-11.21c.079,1.566.426,3.134,1.41,3.862,2.326,1.721,5.257.558,7.63-1.024s2.279-3.535,2.279-3.535c3.722.093,3.425-2.605,3.425-2.605,5.659,4.885,9.415,5.024,8.98,1.7" transform="translate(-10.939 -21.613)" fill="#e0785e"/>
          <path id="Trazado_152062" data-name="Trazado 152062" d="M304.5,157.343c.34-5.756-3.495-11.644-9.541-12.034-4.034-.26-7.814,2.184-11.24,3.993-3.783,2-7.511,4.1-11.269,6.145-5.479,2.981-33.3,16.306-36.162,18.925-4.842,4.432-10.391,10.3-11.258,17.111-.817,6.422,3.359,11.9,9.344,13.873,7.162,2.354,14.368-.77,20.663-4.09,13.958-7.361,26.09-17.455,37.961-27.74,4.974-4.309,11.081-9.049,11.5-16.182" transform="translate(-30.369 -19.617)" fill="#e0785e"/>
          <path id="Trazado_152063" data-name="Trazado 152063" d="M167.692,260.319a76.217,76.217,0,0,0-5.141,17.7c-.088.544.745.778.834.23a75.447,75.447,0,0,1,5.053-17.5c.216-.507-.529-.948-.746-.437" transform="translate(-21.946 -35.117)" fill="#2b244a"/>
          <path id="Trazado_152064" data-name="Trazado 152064" d="M272.316,413.136c7.024,1.221,14.633,1,21.151-2.156a21,21,0,0,0,4.032-2.544c.433-.349-.182-.958-.612-.612-4.888,3.935-11.515,5.23-17.653,5.128a43.349,43.349,0,0,1-6.688-.651c-.545-.1-.778.739-.23.834" transform="translate(-36.725 -55.05)" fill="#2b244a"/>
          <path id="Trazado_152065" data-name="Trazado 152065" d="M168.361,177.379a20.24,20.24,0,0,1,4.129,7.278.433.433,0,0,0,.834-.229,21.259,21.259,0,0,0-4.351-7.659c-.356-.429-.965.186-.612.611" transform="translate(-22.717 -23.847)" fill="#2b244a"/>
          <path id="Trazado_152066" data-name="Trazado 152066" d="M172.191,174.177a14.069,14.069,0,0,1,4.129,7.278c.109.545.943.314.834-.23a14.877,14.877,0,0,0-4.351-7.659c-.4-.391-1.009.22-.612.612" transform="translate(-23.231 -23.418)" fill="#2b244a"/>
          <path id="Trazado_152067" data-name="Trazado 152067" d="M160.714,187.192a54.966,54.966,0,0,1,4.914-3.109.433.433,0,0,0-.437-.747,55.16,55.16,0,0,0-4.914,3.11.444.444,0,0,0-.155.592.436.436,0,0,0,.592.155" transform="translate(-21.611 -24.746)" fill="#2b244a"/>
          <path id="Trazado_152068" data-name="Trazado 152068" d="M297.689,143.7s4.375-9.319,9.867-19.27c4.972-9.009,5.965-9.955,7.736-9.442,2.582.748-.193,10.356-1.038,12.7,0,0,6.01-4.656,10.632-6.7,4.648-2.058,10.542-4.28,11.68-3.028,1.958,2.154-.539,3.82-.539,3.82s3.386.195,4.013,1.75a3.6,3.6,0,0,1-1.115,3.826c-.368.218-9.465,4.674-9.465,4.674s9.863-2.279,10.513-2.182a2.144,2.144,0,0,1,2.086,1.816c.23,2.192-10.43,8.622-13.438,10.819s-12.31,14.333-19.543,21.247c0,0-9.552-14.33-11.387-20.03" transform="translate(-40.193 -15.51)" fill="#e0785e"/>
          <path id="Trazado_152069" data-name="Trazado 152069" d="M339.64,122.711c-4.178,3.514-8.218,7.188-12.4,10.7-.426.359.188.968.612.612,4.178-3.514,8.217-7.187,12.4-10.7.426-.359-.188-.968-.612-.612" transform="translate(-44.164 -16.554)" fill="#2b244a"/>
          <path id="Trazado_152070" data-name="Trazado 152070" d="M322.645,130.8a24.849,24.849,0,0,1,6.532,10.632c.162.531,1,.3.834-.23a25.749,25.749,0,0,0-6.754-11.013c-.4-.387-1.014.225-.612.612" transform="translate(-43.545 -17.561)" fill="#2b244a"/>
          <path id="Trazado_152071" data-name="Trazado 152071" d="M315.995,131.087a25.005,25.005,0,0,1-1.065,14.56c-.2.52.635.745.834.23a25.817,25.817,0,0,0,1.065-15.02c-.124-.542-.958-.313-.834.23" transform="translate(-42.517 -17.626)" fill="#2b244a"/>
          <path id="Trazado_152072" data-name="Trazado 152072" d="M329.035,138.3a58.506,58.506,0,0,1,5.574-3.313c.494-.257.057-1-.437-.746a58.318,58.318,0,0,0-5.574,3.313c-.459.309-.027,1.058.437.747" transform="translate(-44.34 -18.118)" fill="#2b244a"/>
          <path id="Trazado_152073" data-name="Trazado 152073" d="M91.562,180.829q7.614-3.215,15.316-6.21c.513-.2.29-1.036-.23-.834q-7.808,3.036-15.523,6.3c-.511.215-.07.961.437.746" transform="translate(-12.273 -23.46)" fill="#2b244a"/>
          <path id="Trazado_152074" data-name="Trazado 152074" d="M183.92,112.994c-1.216,2.487-4.206,7.992-6.072,7.389a61.746,61.746,0,0,1-9.072-6.286c3.648-.466,6.877-.81,9.237-.984a53.835,53.835,0,0,1,5.907-.118" transform="translate(-22.788 -15.252)" fill="#e0785e"/>
          <path id="Trazado_152075" data-name="Trazado 152075" d="M184.238,105.908l-.8,6.064-14.661.408,1.744-12.132Z" transform="translate(-22.788 -13.536)" fill="#e0785e"/>
          <path id="Trazado_152076" data-name="Trazado 152076" d="M152.445,410.938a64.474,64.474,0,0,0,20,1.828,55.039,55.039,0,0,0,5.883-.636c.548-.09.316-.923-.23-.834a64.48,64.48,0,0,1-20.577-.173,49.431,49.431,0,0,1-4.847-1.019.433.433,0,0,0-.23.834" transform="translate(-20.541 -55.369)" fill="#2b244a"/>
          <path id="Trazado_152077" data-name="Trazado 152077" d="M178.852,80.648a7.988,7.988,0,1,0,7.988-7.987,7.988,7.988,0,0,0-7.988,7.987" transform="translate(-24.148 -9.811)" fill="#2b244a"/>
          <path id="Trazado_152078" data-name="Trazado 152078" d="M172.011,99.776a31.856,31.856,0,0,0,14.741,5.936c6.391.864,8.335-4.116,8-6.283A139.319,139.319,0,0,0,190.5,82.842c-2.155-6.548-4.672-9.525-12.959-10.111s-15.409,2.4-15.1,11,7.164,14.258,9.566,16.044" transform="translate(-21.931 -9.811)" fill="#e0785e"/>
          <path id="Trazado_152079" data-name="Trazado 152079" d="M186.88,69.88a6.164,6.164,0,0,0-3.152.856,12,12,0,0,0-7.837-2.681c-4.367,0-8.086,2.009-9.559,4.833l-.016.011a.519.519,0,0,0-.086.089,7.812,7.812,0,0,0-7.17,4.479,8.746,8.746,0,0,0,1.345,9.232,9.178,9.178,0,0,0,1.367,1.283,31.016,31.016,0,0,0,3.687,7.309,15.034,15.034,0,0,0,2.9,3.025c.791.609,2.991,2.236,4.2,1.622a6.683,6.683,0,0,0,3.581-4.444,13.507,13.507,0,0,0,.423-8.659c3.93.667,8.16-2.373,9.7-6.224.2.02.409.031.618.031a5.4,5.4,0,1,0,0-10.761" transform="translate(-21.374 -9.189)" fill="#2b244a"/>
          <path id="Trazado_152080" data-name="Trazado 152080" d="M162.262,90.211a3.739,3.739,0,0,0,2.47,2.478,4.4,4.4,0,0,0,3.936-.883c.507-.373,1.135-.925,1.808-.687.338.119.636.35.97.486a3.665,3.665,0,0,0,.9.238,4.045,4.045,0,0,0,3.392-1.124c.4-.391-.215-1-.612-.612a3.174,3.174,0,0,1-3.112.786,15.558,15.558,0,0,0-1.546-.667,2.154,2.154,0,0,0-1.424.281c-.483.259-.887.637-1.348.929a3.446,3.446,0,0,1-1.89.549,2.867,2.867,0,0,1-2.712-2.005c-.162-.531-1-.3-.834.23" transform="translate(-21.905 -12.108)" fill="#8c75b5"/>
          <path id="Trazado_152081" data-name="Trazado 152081" d="M167.244,76.365a3.773,3.773,0,0,0,5.653,2.866,4.17,4.17,0,0,0,.708-.553c.248-.234.512-.59.867-.647s.848.237,1.23.291a3.342,3.342,0,0,0,.929-.005,6.454,6.454,0,0,0,3.763-2.551c.364-.419-.246-1.033-.612-.612a5.842,5.842,0,0,1-3.206,2.3,2.453,2.453,0,0,1-.988-.032,5.491,5.491,0,0,0-.932-.262,1.774,1.774,0,0,0-1.321.572,4.2,4.2,0,0,1-1.342.977,2.962,2.962,0,0,1-1.721.115,2.926,2.926,0,0,1-2.162-2.462c-.067-.546-.932-.552-.865,0" transform="translate(-22.58 -10.128)" fill="#8c75b5"/>
          <path id="Trazado_152082" data-name="Trazado 152082" d="M185.524,80.762a3.906,3.906,0,0,0,4.156,1.686c.541-.131.311-.964-.23-.834a3.024,3.024,0,0,1-3.179-1.289c-.3-.469-1.046-.035-.747.437" transform="translate(-25.04 -10.818)" fill="#8c75b5"/>
          <path id="Trazado_152083" data-name="Trazado 152083" d="M170.284,102.256l-.563,3.918s8.034.767,7.737-6.971-7.174,3.053-7.174,3.053" transform="translate(-22.915 -13.017)" fill="#2b244a"/>
          <path id="Trazado_152084" data-name="Trazado 152084" d="M195.831,89.065s2.5,1.979,3.783,3.179c.729.684.612,1.289.239,1.7a25.486,25.486,0,0,1-2.123,1.938l-3.2-2.088Z" transform="translate(-26.265 -12.026)" fill="#e0785e"/>
          <path id="Trazado_152085" data-name="Trazado 152085" d="M184.117,94.345a4.909,4.909,0,1,1-4.909-4.909,4.909,4.909,0,0,1,4.909,4.909" transform="translate(-23.533 -12.076)" fill="#e0785e"/>
          <path id="Trazado_152086" data-name="Trazado 152086" d="M192.983,89.945a1.057,1.057,0,0,0-.973-.285,1,1,0,0,0-.66.9,3.46,3.46,0,0,0,.144,1.229,2.209,2.209,0,0,0,.727,1.235.928.928,0,0,0,1.451-.722,3.066,3.066,0,0,0-.689-2.359" transform="translate(-25.834 -12.102)" fill="#2b244a"/>
          <path id="Trazado_152087" data-name="Trazado 152087" d="M193.753,87.194c-.117,1.5-1.514.773-2.948,1.6-1.318.762-2.306.868-2.5.069-.234-.964.854-2.446,2.874-2.966,1.893-.487,2.66.2,2.574,1.295" transform="translate(-25.42 -11.577)" fill="#2b244a"/>
          <path id="Trazado_152088" data-name="Trazado 152088" d="M198.073,98.327c-1.857.609-3.8,1.238-4.054,1.338a7.34,7.34,0,0,0,4.584,1.068c-.15-.709-.33-1.518-.529-2.406" transform="translate(-26.196 -13.276)" fill="#fff"/>
          <path id="Trazado_152089" data-name="Trazado 152089" d="M179.869,107.679a36.57,36.57,0,0,0,4.848,2.368.435.435,0,0,0,.532-.3.444.444,0,0,0-.3-.532,35.074,35.074,0,0,1-4.641-2.281.433.433,0,0,0-.437.746" transform="translate(-24.257 -14.43)" fill="#2b244a"/>
          <path id="Trazado_152090" data-name="Trazado 152090" d="M178.483,92.219a3.412,3.412,0,0,0-1.424,2.429,3.355,3.355,0,0,0,.978,2.665.433.433,0,0,0,.612-.612,2.477,2.477,0,0,1,.271-3.736.444.444,0,0,0,.155-.592.436.436,0,0,0-.592-.155" transform="translate(-23.904 -12.443)" fill="#2b244a"/>
          <path id="Trazado_152091" data-name="Trazado 152091" d="M275.835,418.466a69.283,69.283,0,0,0,.406,20.962h52.621s.3-10.122-6-13.329c-3.289-1.675-15.513-5.389-17.046-7.118a21.286,21.286,0,0,1-4.292-4.467c-3.4-5.166-7.688-3.326-9.37,1.187a32.134,32.134,0,0,1-16.317,2.765" transform="translate(-37.164 -55.545)" fill="#f5e3d9"/>
          <path id="Trazado_152092" data-name="Trazado 152092" d="M276.123,438.778h52a.419.419,0,0,0,0-.837h-52a.419.419,0,0,0,0,.837" transform="translate(-37.227 -59.13)" fill="#2e1616"/>
          <path id="Trazado_152093" data-name="Trazado 152093" d="M316.612,436.779a16.932,16.932,0,0,1,1.875-5.884,9.9,9.9,0,0,1,4.83-4.02c.5-.189.283-1-.222-.808a10.9,10.9,0,0,0-5.16,4.135,16.718,16.718,0,0,0-2.131,6.353c-.1.527.709.753.808.222" transform="translate(-42.638 -57.523)" fill="#2e1616"/>
          <path id="Trazado_152094" data-name="Trazado 152094" d="M294.531,416.928a27.768,27.768,0,0,0,6.331,6.471,40.6,40.6,0,0,0,8.626,4.49c1.759.717,3.535,1.387,5.3,2.09.5.2.719-.611.223-.808-5.814-2.314-11.878-4.351-16.464-8.8a27.672,27.672,0,0,1-3.291-3.865c-.31-.436-1.036-.018-.723.423" transform="translate(-39.756 -56.211)" fill="#2e1616"/>
          <path id="Trazado_152095" data-name="Trazado 152095" d="M311.637,428.27c.618-.8,1.328-1.6,2.026-2.358s1.432-1.534,2.213-2.233c.4-.36-.192-.951-.593-.592-.8.714-1.538,1.5-2.261,2.285s-1.447,1.616-2.108,2.475a.422.422,0,0,0,.151.573.429.429,0,0,0,.573-.15" transform="translate(-41.97 -57.109)" fill="#2e1616"/>
          <path id="Trazado_152096" data-name="Trazado 152096" d="M306.245,425.495a26.825,26.825,0,0,1,2.053-2.332,18.857,18.857,0,0,1,2.241-1.865.43.43,0,0,0,.15-.573.422.422,0,0,0-.573-.151,20.277,20.277,0,0,0-2.366,1.952,26.276,26.276,0,0,0-2.1,2.375.432.432,0,0,0,0,.592.422.422,0,0,0,.592,0" transform="translate(-41.252 -56.777)" fill="#2e1616"/>
          <path id="Trazado_152097" data-name="Trazado 152097" d="M300.534,421.775a24.4,24.4,0,0,1,2.772-2.148,19.563,19.563,0,0,1,3.038-1.771.423.423,0,0,0,.151-.573.428.428,0,0,0-.573-.15,19.811,19.811,0,0,0-3.113,1.822,25.684,25.684,0,0,0-2.867,2.228c-.4.365.2.956.592.592" transform="translate(-40.479 -56.314)" fill="#2e1616"/>
          <path id="Trazado_152098" data-name="Trazado 152098" d="M154.158,416.955a72.685,72.685,0,0,0,.025,22.472H206.8s.3-10.121-6-13.328c-3.289-1.675-15.513-5.389-17.046-7.119a21.3,21.3,0,0,1-4.292-4.466c-3.4-5.166-7.688-3.327-9.37,1.186a43.388,43.388,0,0,1-15.936,1.255" transform="translate(-20.699 -55.545)" fill="#f5e3d9"/>
          <path id="Trazado_152099" data-name="Trazado 152099" d="M154.048,438.778h52a.419.419,0,0,0,0-.837h-52a.419.419,0,0,0,0,.837" transform="translate(-20.744 -59.13)" fill="#2e1616"/>
          <path id="Trazado_152100" data-name="Trazado 152100" d="M194.537,436.779a16.933,16.933,0,0,1,1.875-5.884,9.9,9.9,0,0,1,4.83-4.02c.5-.189.283-1-.222-.808a10.9,10.9,0,0,0-5.16,4.135,16.716,16.716,0,0,0-2.131,6.353c-.1.527.709.753.808.222" transform="translate(-26.155 -57.523)" fill="#2e1616"/>
          <path id="Trazado_152101" data-name="Trazado 152101" d="M172.456,416.928a27.771,27.771,0,0,0,6.331,6.471,40.6,40.6,0,0,0,8.626,4.49c1.759.717,3.535,1.387,5.3,2.09.5.2.719-.611.223-.808-5.814-2.314-11.878-4.351-16.464-8.8a27.726,27.726,0,0,1-3.291-3.865c-.31-.436-1.036-.018-.723.423" transform="translate(-23.274 -56.211)" fill="#2e1616"/>
          <path id="Trazado_152102" data-name="Trazado 152102" d="M189.562,428.27c.618-.8,1.328-1.6,2.026-2.358s1.432-1.534,2.213-2.233c.4-.36-.192-.951-.593-.592-.8.714-1.538,1.5-2.261,2.285s-1.447,1.616-2.108,2.475a.422.422,0,0,0,.15.573.429.429,0,0,0,.573-.15" transform="translate(-25.488 -57.109)" fill="#2e1616"/>
          <path id="Trazado_152103" data-name="Trazado 152103" d="M184.17,425.495a26.69,26.69,0,0,1,2.053-2.332,18.777,18.777,0,0,1,2.24-1.865.43.43,0,0,0,.15-.573.422.422,0,0,0-.573-.151,20.283,20.283,0,0,0-2.366,1.952,26.28,26.28,0,0,0-2.1,2.375.431.431,0,0,0,0,.592.421.421,0,0,0,.592,0" transform="translate(-24.77 -56.777)" fill="#2e1616"/>
          <path id="Trazado_152104" data-name="Trazado 152104" d="M178.459,421.775a24.4,24.4,0,0,1,2.772-2.148,19.563,19.563,0,0,1,3.038-1.771.423.423,0,0,0,.15-.573.428.428,0,0,0-.573-.15,19.772,19.772,0,0,0-3.113,1.822,25.694,25.694,0,0,0-2.867,2.228c-.4.365.2.956.593.592" transform="translate(-23.997 -56.314)" fill="#2e1616"/>
          <path id="Trazado_152105" data-name="Trazado 152105" d="M75.423,218.491,30.4,413.383h3.616l48.969-192.3Z" transform="translate(-4.104 -29.5)" fill="#d9a389"/>
          <path id="Trazado_152106" data-name="Trazado 152106" d="M132.457,218.491l45.026,194.892h-3.616L124.9,221.079Z" transform="translate(-16.863 -29.5)" fill="#d9a389"/>
          <path id="Trazado_152107" data-name="Trazado 152107" d="M129.735,239.172H136.7a.433.433,0,0,0,0-.865h-6.963a.433.433,0,0,0,0,.865" transform="translate(-17.46 -32.176)" fill="#2b244a"/>
          <path id="Trazado_152108" data-name="Trazado 152108" d="M78.315,239.172h6.963a.433.433,0,0,0,0-.865H78.315a.433.433,0,0,0,0,.865" transform="translate(-10.517 -32.176)" fill="#2b244a"/>
          <path id="Trazado_152109" data-name="Trazado 152109" d="M323.656,216.111H41.751a2.15,2.15,0,0,1-2.15-2.15v-.6a2.15,2.15,0,0,1,2.15-2.15h281.9a2.15,2.15,0,0,1,2.15,2.15v.6a2.15,2.15,0,0,1-2.15,2.15" transform="translate(-5.347 -28.517)" fill="#d9a389"/>
          <rect id="Rectángulo_35059" data-name="Rectángulo 35059" width="229.224" height="18.459" transform="translate(67.377 187.595)" fill="#d9a389"/>
          <path id="Trazado_152110" data-name="Trazado 152110" d="M138.215,235.8V216.972a.433.433,0,0,0-.865,0V235.8a.433.433,0,0,0,.865,0" transform="translate(-18.545 -29.239)" fill="#2b244a"/>
          <path id="Trazado_152111" data-name="Trazado 152111" d="M334.522,239.172h6.963a.433.433,0,0,0,0-.865h-6.963a.433.433,0,0,0,0,.865" transform="translate(-45.11 -32.176)" fill="#2b244a"/>
          <path id="Trazado_152112" data-name="Trazado 152112" d="M283.1,239.172h6.963a.433.433,0,0,0,0-.865H283.1a.433.433,0,0,0,0,.865" transform="translate(-38.167 -32.176)" fill="#2b244a"/>
          <path id="Trazado_152113" data-name="Trazado 152113" d="M78.354,217.241H306.679a.433.433,0,0,0,0-.865H78.354a.433.433,0,0,0,0,.865" transform="translate(-10.523 -29.215)" fill="#2b244a"/>
          <rect id="Rectángulo_35060" data-name="Rectángulo 35060" width="114.83" height="4.903" transform="translate(36.041 348.579)" fill="#d9a389"/>
          <path id="Trazado_152114" data-name="Trazado 152114" d="M164.2,211.887a3.678,3.678,0,0,1-.063,3.2.443.443,0,0,0,.156.592.437.437,0,0,0,.592-.156,4.6,4.6,0,0,0,.062-4.07.436.436,0,0,0-.592-.155.442.442,0,0,0-.155.592" transform="translate(-22.154 -28.521)" fill="#2b244a"/>
          <path id="Trazado_152115" data-name="Trazado 152115" d="M268.445,142.35h-68.68a1.973,1.973,0,0,0-1.829,1.234l-23.545,58.327h72.935l22.949-56.851a1.972,1.972,0,0,0-1.829-2.711" transform="translate(-23.546 -19.22)" fill="#31313c"/>
          <path id="Trazado_152116" data-name="Trazado 152116" d="M187.824,207.491H142.381a2.111,2.111,0,0,0-2.111,2.111v1.105h47.554Z" transform="translate(-18.939 -28.015)" fill="#31313c"/>
          <path id="Trazado_152117" data-name="Trazado 152117" d="M179.875,200.057l8.921-22.139q4.7-11.673,9.408-23.348l2.4-5.954q.575-1.427,1.15-2.855a4.624,4.624,0,0,1,2.278-2.636c.5-.241.063-.988-.437-.747a5.128,5.128,0,0,0-2.178,2.028,19.378,19.378,0,0,0-1.052,2.5l-2.168,5.381-4.6,11.425q-4.819,11.958-9.637,23.915-2.459,6.1-4.916,12.2c-.208.516.628.74.834.23" transform="translate(-24.169 -19.218)" fill="#12263f"/>
          <path id="Trazado_152118" data-name="Trazado 152118" d="M176.52,207.453a2.989,2.989,0,0,1,.507.117,1.925,1.925,0,0,1,.417.181,2.892,2.892,0,0,1,.8.614c.061.064.118.13.174.2l.042.05c-.019-.024-.02-.024,0,0s.051.072.076.107a3.408,3.408,0,0,1,.258.445,2.4,2.4,0,0,1,.147.409c.021.08.039.16.053.242,0,.02.007.041.01.061q-.008-.061,0-.013c0,.047.008.094.01.142a.442.442,0,0,0,.432.432.437.437,0,0,0,.432-.432,3.777,3.777,0,0,0-3.122-3.386.447.447,0,0,0-.532.3.435.435,0,0,0,.3.532" transform="translate(-23.791 -27.897)" fill="#12263f"/>
          <path id="Trazado_152119" data-name="Trazado 152119" d="M232.431,182.189a4.581,4.581,0,0,1-3.886-1.812,5.173,5.173,0,0,1-.412-4.741,9.756,9.756,0,0,1,8.474-6.268,4.584,4.584,0,0,1,3.886,1.812,5.173,5.173,0,0,1,.412,4.741,9.756,9.756,0,0,1-8.475,6.268m4.177-11.956a8.831,8.831,0,0,0-7.658,5.688,4.272,4.272,0,0,0,.3,3.955,3.745,3.745,0,0,0,3.181,1.448,8.829,8.829,0,0,0,7.658-5.688,4.269,4.269,0,0,0-.3-3.955,3.744,3.744,0,0,0-3.181-1.448" transform="translate(-30.751 -22.868)" fill="#12263f"/>
          <path id="Trazado_152120" data-name="Trazado 152120" d="M290.48,192.8h0a1.454,1.454,0,0,1-1.454-1.454V166.73a1.454,1.454,0,0,1,2.908,0v24.615a1.454,1.454,0,0,1-1.454,1.454" transform="translate(-39.023 -22.315)" fill="#ffeae0"/>
          <path id="Trazado_152121" data-name="Trazado 152121" d="M296.442,187.13h0a1.454,1.454,0,0,1-1.253-1.63l3.651-27.941a1.454,1.454,0,0,1,2.883.377l-3.651,27.94a1.453,1.453,0,0,1-1.63,1.253" transform="translate(-39.854 -21.103)" fill="#ffeae0"/>
          <path id="Trazado_152122" data-name="Trazado 152122" d="M299.3,190.786h0a1.454,1.454,0,0,1-1.105-1.733l5.314-24.034a1.454,1.454,0,0,1,2.839.627l-5.314,24.035a1.455,1.455,0,0,1-1.733,1.105" transform="translate(-40.256 -22.127)" fill="#ffeae0"/>
          <path id="Trazado_152123" data-name="Trazado 152123" d="M286.493,183.692l1.433,23.706h12.8l1.433-23.706a.67.67,0,0,0-.67-.711H287.162a.67.67,0,0,0-.669.711" transform="translate(-38.681 -24.706)" fill="#785549"/>
          <path id="Trazado_152124" data-name="Trazado 152124" d="M65.326,359.133q-1.1,10.926-2.31,21.841c-.722,6.559-1.458,13.117-2.159,19.677q-.694,6.5-1.349,13c-.055.554.81.549.865,0q1.1-10.926,2.31-21.841c.722-6.559,1.457-13.117,2.159-19.678q.7-6.5,1.349-13c.055-.554-.81-.549-.865,0" transform="translate(-8.034 -48.434)" fill="#2b244a"/>
          <path id="Trazado_152125" data-name="Trazado 152125" d="M51.207,440.824c2.027-.026,3.405-1.711,4.29-3.356a30.443,30.443,0,0,0,2.71-8.709c.419-2.184.729-4.388.99-6.6.065-.552-.8-.547-.865,0a69.19,69.19,0,0,1-1.853,10.268c-.606,2.207-1.368,4.726-3,6.419a3.226,3.226,0,0,1-2.277,1.109.433.433,0,0,0,0,.865" transform="translate(-6.857 -56.944)" fill="#2b244a"/>
          <path id="Trazado_152126" data-name="Trazado 152126" d="M46.44,442.8H15.9a.433.433,0,0,0,0,.865H46.44a.433.433,0,0,0,0-.865" transform="translate(-2.09 -59.786)" fill="#2b244a"/>
          <path id="Trazado_152127" data-name="Trazado 152127" d="M57.727,358.7H.438a.433.433,0,0,0,0,.865H57.727a.433.433,0,0,0,0-.865" transform="translate(-0.003 -48.431)" fill="#2b244a"/>
          <path id="Trazado_152128" data-name="Trazado 152128" d="M0,359.133q1.1,10.926,2.31,21.841c.722,6.559,1.457,13.117,2.159,19.677q.694,6.5,1.349,13c.055.548.92.554.865,0q-1.1-10.926-2.31-21.841c-.722-6.559-1.457-13.117-2.159-19.678q-.7-6.5-1.349-13c-.055-.548-.92-.554-.865,0" transform="translate(0 -48.434)" fill="#2b244a"/>
          <path id="Trazado_152129" data-name="Trazado 152129" d="M14.717,439.959c-1.822-.023-2.974-1.788-3.706-3.241a31.357,31.357,0,0,1-2.476-8.276c-.4-2.079-.695-4.176-.942-6.279-.064-.546-.93-.553-.865,0a68.208,68.208,0,0,0,2.009,10.943c.658,2.284,1.522,4.914,3.319,6.578a3.98,3.98,0,0,0,2.662,1.14.433.433,0,0,0,0-.865" transform="translate(-0.908 -56.944)" fill="#2b244a"/>
          <path id="Trazado_152130" data-name="Trazado 152130" d="M33.118,359.133V431.88a.433.433,0,0,0,.865,0V359.133a.433.433,0,0,0-.865,0" transform="translate(-4.472 -48.433)" fill="#2b244a"/>
          <path id="Trazado_152131" data-name="Trazado 152131" d="M16.15,359.133q.915,13.943,1.829,27.885.98,14.929,1.958,29.858.49,7.468.979,14.936c.036.553.9.556.865,0q-.913-13.943-1.829-27.885Q18.974,389,17.995,374.07q-.49-7.468-.98-14.936c-.036-.553-.9-.557-.865,0" transform="translate(-2.18 -48.433)" fill="#2b244a"/>
          <path id="Trazado_152132" data-name="Trazado 152132" d="M49.343,359.133q-.915,13.943-1.829,27.885-.98,14.929-1.958,29.858-.489,7.468-.979,14.936c-.037.555.829.554.865,0q.913-13.943,1.829-27.885Q48.249,389,49.229,374.07q.489-7.468.979-14.936c.036-.556-.829-.554-.865,0" transform="translate(-6.018 -48.433)" fill="#2b244a"/>
          <path id="Trazado_152133" data-name="Trazado 152133" d="M8.765,432.284h42.9a.433.433,0,0,0,0-.865H8.765a.433.433,0,0,0,0,.865" transform="translate(-1.127 -58.249)" fill="#2b244a"/>
          <path id="Trazado_152134" data-name="Trazado 152134" d="M353.645,294.386h-52.8a6.606,6.606,0,0,1-6.607-6.607V214.695a6.607,6.607,0,0,1,6.607-6.607H334.33L360.252,234.8V287.78a6.607,6.607,0,0,1-6.607,6.607" transform="translate(-39.727 -28.096)" fill="#ececec"/>
          <path id="Trazado_152135" data-name="Trazado 152135" d="M340.588,208.088v20.569a6.145,6.145,0,0,0,6.144,6.145l19.778,0Z" transform="translate(-45.985 -28.096)" fill="#f5f5f5"/>
          <path id="Trazado_152136" data-name="Trazado 152136" d="M340.9,233.954s-.26,4.988,5.419,6.628a6.13,6.13,0,0,0,.65.147c2.582.462,19.582,3.485,19.582,3.095V238.3H346.774s-4.938-.169-5.874-4.343" transform="translate(-46.027 -31.588)" fill="#e1e1e1"/>
          <path id="Trazado_152137" data-name="Trazado 152137" d="M353.609,294.351c0-.031.4.009,1.141-.135a6.612,6.612,0,0,0,3-1.4,6.527,6.527,0,0,0,2.365-4.66c.034-2.131-.005-4.6,0-7.364-.019-11.066-.047-26.9-.08-46.027l.053.131-25.942-26.7.155.066-19.324.007-10.107,0H302.3a16.9,16.9,0,0,0-2.536.093,6.387,6.387,0,0,0-4.145,2.585,6.3,6.3,0,0,0-1.169,3.249c-.047,1.171-.013,2.4-.023,3.584q0,3.59,0,7.129,0,7.079,0,13.937c0,9.138-.009,17.952-.013,26.348q-.005,6.3-.01,12.269,0,2.984-.006,5.878,0,1.447,0,2.871a15.144,15.144,0,0,0,.122,2.779,6.442,6.442,0,0,0,2.99,4.248,6.368,6.368,0,0,0,2.437.86,24.457,24.457,0,0,0,2.6.069l9.966.015,30.077.072,8.178.042,2.126.022c.479.008.725.023.725.023s-.246.016-.725.023l-2.126.023-8.178.042-30.077.072-9.966.015a24.61,24.61,0,0,1-2.646-.066,6.719,6.719,0,0,1-2.575-.9,6.806,6.806,0,0,1-3.171-4.484,15.508,15.508,0,0,1-.135-2.852q0-1.425,0-2.871,0-2.895-.005-5.878-.005-5.966-.01-12.269c0-8.4-.009-17.211-.013-26.348q0-6.853,0-13.937,0-3.54,0-7.129c.01-1.2-.025-2.38.024-3.616a6.75,6.75,0,0,1,1.251-3.479,6.837,6.837,0,0,1,4.438-2.767,17.069,17.069,0,0,1,2.61-.1h2.565l10.107,0,19.324.007h.092l.063.066,25.9,26.737.054.055v.075c-.033,19.128-.06,34.961-.08,46.027-.017,2.765.005,5.223-.046,7.375a6.643,6.643,0,0,1-2.46,4.738,6.563,6.563,0,0,1-3.058,1.366,5.014,5.014,0,0,1-.86.077c-.194.005-.291,0-.291,0" transform="translate(-39.691 -28.06)" fill="#1a2e35"/>
          <path id="Trazado_152138" data-name="Trazado 152138" d="M366.475,234.8a2.192,2.192,0,0,1-.508.045l-1.457.042-5.358.071-7.946.047-4.7,0a6.375,6.375,0,0,1-5.887-4.443,7.375,7.375,0,0,1-.29-2.522c0-1.625.009-3.2.013-4.693.018-2.976.035-5.666.048-7.947.029-2.216.054-4.031.072-5.357.016-.592.031-1.074.042-1.457a2.154,2.154,0,0,1,.046-.508,2.19,2.19,0,0,1,.045.508c.011.382.025.864.042,1.457.018,1.326.042,3.141.072,5.357.014,2.281.03,4.97.048,7.947,0,1.5.009,3.067.013,4.693a6.947,6.947,0,0,0,.276,2.387,5.953,5.953,0,0,0,5.473,4.137l4.685.023,7.946.05,5.358.072,1.457.042a2.151,2.151,0,0,1,.508.046" transform="translate(-45.95 -28.096)" fill="#1a2e35"/>
          <path id="Trazado_152139" data-name="Trazado 152139" d="M335.086,229.272c0,.125-6.237.225-13.929.225s-13.93-.1-13.93-.225,6.236-.225,13.93-.225,13.929.1,13.929.225" transform="translate(-41.481 -30.926)" fill="#1a2e35"/>
          <path id="Trazado_152140" data-name="Trazado 152140" d="M348.3,241.135c0,.125-9.2.225-20.537.225s-20.539-.1-20.539-.225,9.194-.225,20.539-.225,20.537.1,20.537.225" transform="translate(-41.481 -32.527)" fill="#1a2e35"/>
          <path id="Trazado_152141" data-name="Trazado 152141" d="M348.3,253c0,.125-9.2.225-20.537.225s-20.539-.1-20.539-.225,9.194-.225,20.539-.225,20.537.1,20.537.225" transform="translate(-41.481 -34.129)" fill="#1a2e35"/>
          <path id="Trazado_152142" data-name="Trazado 152142" d="M348.3,264.86c0,.125-9.2.225-20.537.225s-20.539-.1-20.539-.225,9.194-.225,20.539-.225,20.537.1,20.537.225" transform="translate(-41.481 -35.731)" fill="#1a2e35"/>
          <path id="Trazado_152143" data-name="Trazado 152143" d="M348.3,276.722c0,.125-9.2.225-20.537.226s-20.539-.1-20.539-.226,9.194-.225,20.539-.225,20.537.1,20.537.225" transform="translate(-41.481 -37.332)" fill="#1a2e35"/>
          <path id="Trazado_152144" data-name="Trazado 152144" d="M348.3,288.585c0,.125-9.2.225-20.537.225s-20.539-.1-20.539-.225,9.194-.225,20.539-.225,20.537.1,20.537.225" transform="translate(-41.481 -38.934)" fill="#1a2e35"/>
          <path id="Trazado_152145" data-name="Trazado 152145" d="M321.744,288.242H284.2a3.652,3.652,0,0,1-3.651-3.651V271.743a3.652,3.652,0,0,1,3.651-3.652h37.546a3.651,3.651,0,0,1,3.651,3.652v12.848a3.651,3.651,0,0,1-3.651,3.651" transform="translate(-37.878 -36.197)" fill="#31313c"/>
          <g id="Grupo_1070081" data-name="Grupo 1070081" transform="translate(190.33 28.381)">
            <path id="Trazado_152149" data-name="Trazado 152149" d="M287.61,83.634H239.72a5.991,5.991,0,0,1-5.992-5.992V11.357a5.992,5.992,0,0,1,5.991-5.992h30.372L293.6,29.6V77.642a5.992,5.992,0,0,1-5.992,5.992" transform="translate(-222.989 -5.158)" fill="#ececec"/>
            <path id="Trazado_152150" data-name="Trazado 152150" d="M280.08,5.364V24.02a5.573,5.573,0,0,0,5.572,5.573l17.938,0Z" transform="translate(-232.977 -5.159)" fill="#f5f5f5"/>
            <path id="Trazado_152151" data-name="Trazado 152151" d="M280.392,31.231s-.236,4.524,4.915,6.012a5.619,5.619,0,0,0,.59.133c2.342.418,17.761,3.161,17.761,2.807V35.17H285.719s-4.479-.153-5.328-3.939" transform="translate(-233.044 -10.733)" fill="#e1e1e1"/>
            <path id="Trazado_152152" data-name="Trazado 152152" d="M287.553,83.578c0-.028.359.008,1.035-.122a6.009,6.009,0,0,0,2.718-1.267,5.923,5.923,0,0,0,2.145-4.226c.031-1.933,0-4.175,0-6.679-.017-10.036-.042-24.4-.072-41.744l.048.119L269.895,5.444l.14.06-17.526.006-9.167,0h-2.326a15.338,15.338,0,0,0-2.3.084,5.793,5.793,0,0,0-3.759,2.345,5.711,5.711,0,0,0-1.06,2.947c-.042,1.062-.012,2.172-.021,3.251q0,3.255,0,6.465,0,6.42,0,12.641c0,8.288-.009,16.282-.012,23.9q0,5.711-.009,11.128,0,2.705-.005,5.331,0,1.312,0,2.6a13.725,13.725,0,0,0,.111,2.521,5.842,5.842,0,0,0,2.712,3.853,5.775,5.775,0,0,0,2.21.78,22.178,22.178,0,0,0,2.357.063l9.039.013,27.279.065,7.417.038,1.928.02c.435.007.657.021.657.021s-.223.014-.657.021l-1.928.02-7.417.038-27.279.065-9.039.013a22.332,22.332,0,0,1-2.4-.06,6.1,6.1,0,0,1-2.336-.818,6.171,6.171,0,0,1-2.876-4.067A14.068,14.068,0,0,1,233.5,76.2q0-1.292,0-2.6,0-2.625,0-5.331,0-5.412-.009-11.128c0-7.615-.008-15.609-.012-23.9q0-6.216,0-12.641,0-3.21,0-6.465c.009-1.091-.023-2.16.021-3.28A6.13,6.13,0,0,1,234.624,7.7a6.2,6.2,0,0,1,4.025-2.51,15.483,15.483,0,0,1,2.367-.089h2.326l9.167,0,17.526.006h.083l.057.06,23.492,24.249.049.05v.068c-.03,17.349-.055,31.708-.072,41.744-.016,2.508,0,4.737-.042,6.689a6.025,6.025,0,0,1-2.231,4.3,5.953,5.953,0,0,1-2.773,1.239,4.473,4.473,0,0,1-.78.07c-.176,0-.264,0-.264,0" transform="translate(-222.933 -5.102)" fill="#1a2e35"/>
            <path id="Trazado_152153" data-name="Trazado 152153" d="M303.534,29.6a1.987,1.987,0,0,1-.461.041l-1.321.038-4.859.064-7.207.042-4.261,0a5.781,5.781,0,0,1-5.339-4.031,6.681,6.681,0,0,1-.263-2.287c0-1.474.008-2.9.012-4.256.016-2.7.031-5.139.044-7.207.027-2.01.049-3.656.065-4.858.015-.537.028-.974.038-1.321a1.953,1.953,0,0,1,.042-.461,1.99,1.99,0,0,1,.041.461c.01.347.023.784.038,1.321.017,1.2.038,2.849.065,4.858.013,2.069.027,4.508.044,7.207,0,1.358.008,2.782.012,4.256a6.3,6.3,0,0,0,.25,2.165,5.4,5.4,0,0,0,4.964,3.752l4.249.02,7.207.046,4.859.065,1.321.039a1.987,1.987,0,0,1,.461.041" transform="translate(-232.921 -5.159)" fill="#1a2e35"/>
            <path id="Trazado_152154" data-name="Trazado 152154" d="M271.987,26.528c0,.113-5.657.2-12.634.2s-12.633-.091-12.633-.2,5.656-.2,12.633-.2,12.634.091,12.634.2" transform="translate(-225.789 -9.676)" fill="#1a2e35"/>
            <path id="Trazado_152155" data-name="Trazado 152155" d="M283.974,38.39c0,.113-8.34.2-18.627.2s-18.628-.091-18.628-.2,8.339-.2,18.628-.2,18.627.091,18.627.2" transform="translate(-225.789 -12.232)" fill="#1a2e35"/>
            <path id="Trazado_152156" data-name="Trazado 152156" d="M283.974,50.253c0,.113-8.34.2-18.627.2s-18.628-.091-18.628-.2,8.339-.2,18.628-.2,18.627.091,18.627.2" transform="translate(-225.789 -14.788)" fill="#1a2e35"/>
            <path id="Trazado_152157" data-name="Trazado 152157" d="M283.974,62.115c0,.113-8.34.2-18.627.2s-18.628-.091-18.628-.2,8.339-.2,18.628-.2,18.627.091,18.627.2" transform="translate(-225.789 -17.343)" fill="#1a2e35"/>
            <path id="Trazado_152158" data-name="Trazado 152158" d="M283.974,73.978c0,.113-8.34.2-18.627.2s-18.628-.091-18.628-.2,8.339-.2,18.628-.2,18.627.091,18.627.2" transform="translate(-225.789 -19.901)" fill="#1a2e35"/>
            <path id="Trazado_152159" data-name="Trazado 152159" d="M283.974,85.84c0,.113-8.34.2-18.627.2s-18.628-.091-18.628-.2,8.339-.2,18.628-.2,18.627.091,18.627.2" transform="translate(-225.789 -22.457)" fill="#1a2e35"/>
            <path id="Trazado_152160" data-name="Trazado 152160" d="M257.4,83.644H223.35a3.312,3.312,0,0,1-3.311-3.311V68.679a3.312,3.312,0,0,1,3.311-3.312H257.4a3.312,3.312,0,0,1,3.311,3.312V80.332a3.312,3.312,0,0,1-3.311,3.311" transform="translate(-220.039 -18.089)" fill="#31313c"/>
            <text id="Bokeh" transform="translate(4.67 60.188)" fill="#fff" font-size="11" font-family="Roboto-BoldItalic, Roboto" font-weight="700" font-style="italic"><tspan x="0" y="0">Bokeh</tspan></text>
          </g>
          <path id="Trazado_152164" data-name="Trazado 152164" d="M88.778,178.774h-52.8a6.606,6.606,0,0,1-6.607-6.607V99.083a6.606,6.606,0,0,1,6.606-6.607H69.463l25.922,26.717v52.975a6.607,6.607,0,0,1-6.607,6.607" transform="translate(-3.965 -12.486)" fill="#ececec"/>
          <path id="Trazado_152165" data-name="Trazado 152165" d="M75.721,92.476v20.569a6.145,6.145,0,0,0,6.144,6.145l19.778,0Z" transform="translate(-10.224 -12.486)" fill="#f5f5f5"/>
          <path id="Trazado_152166" data-name="Trazado 152166" d="M76.033,118.343s-.26,4.988,5.419,6.628a6.153,6.153,0,0,0,.65.147c2.582.461,19.582,3.485,19.582,3.095v-5.527H81.907s-4.938-.169-5.874-4.343" transform="translate(-10.265 -15.979)" fill="#e1e1e1"/>
          <path id="Trazado_152167" data-name="Trazado 152167" d="M88.742,178.739c0-.031.4.009,1.141-.135a6.612,6.612,0,0,0,3-1.4,6.527,6.527,0,0,0,2.365-4.659c.034-2.131-.005-4.6,0-7.365-.019-11.066-.047-26.9-.08-46.027l.053.132c-7.848-8.078-16.6-17.086-25.942-26.7l.155.065L50.1,92.663,40,92.665H37.431a16.908,16.908,0,0,0-2.536.093,6.383,6.383,0,0,0-4.145,2.585,6.3,6.3,0,0,0-1.169,3.25c-.047,1.171-.013,2.394-.023,3.584q0,3.59,0,7.128,0,7.08,0,13.937c0,9.138-.01,17.952-.013,26.348q-.005,6.3-.01,12.27,0,2.983-.006,5.878,0,1.447,0,2.871a15.152,15.152,0,0,0,.122,2.78,6.442,6.442,0,0,0,2.99,4.247,6.368,6.368,0,0,0,2.437.86,24.466,24.466,0,0,0,2.6.069l9.966.015,30.077.072,8.178.042,2.126.022c.479.008.725.023.725.023s-.246.016-.725.023l-2.126.023-8.178.042-30.077.072-9.966.015a24.625,24.625,0,0,1-2.646-.066,6.72,6.72,0,0,1-2.575-.9,6.806,6.806,0,0,1-3.171-4.484,15.5,15.5,0,0,1-.135-2.852q0-1.423,0-2.871,0-2.893-.005-5.878-.005-5.967-.01-12.27c0-8.4-.009-17.211-.013-26.348q0-6.852,0-13.937,0-3.539,0-7.128c.01-1.2-.025-2.381.023-3.616a6.758,6.758,0,0,1,1.252-3.479,6.833,6.833,0,0,1,4.438-2.766,17.072,17.072,0,0,1,2.61-.1H40l10.107,0c6.651,0,13.115,0,19.324.007h.092l.063.065,25.9,26.737.054.055v.075c-.033,19.129-.06,34.961-.08,46.027-.017,2.765.005,5.223-.046,7.375a6.643,6.643,0,0,1-2.46,4.738,6.564,6.564,0,0,1-3.058,1.366,5.02,5.02,0,0,1-.86.077c-.194.005-.292,0-.292,0" transform="translate(-3.93 -12.451)" fill="#1a2e35"/>
          <path id="Trazado_152168" data-name="Trazado 152168" d="M101.608,119.194a2.192,2.192,0,0,1-.508.045l-1.457.042-5.358.071-7.946.047-4.7,0a6.374,6.374,0,0,1-5.887-4.444,7.366,7.366,0,0,1-.29-2.521c0-1.625.009-3.2.013-4.693.018-2.976.035-5.666.048-7.947.029-2.216.054-4.031.071-5.357.017-.593.032-1.074.042-1.457a2.151,2.151,0,0,1,.046-.508,2.191,2.191,0,0,1,.045.508c.011.382.025.864.042,1.457.018,1.326.042,3.141.072,5.357.014,2.281.03,4.97.048,7.947,0,1.5.009,3.067.013,4.693a6.949,6.949,0,0,0,.276,2.387,5.953,5.953,0,0,0,5.473,4.137l4.685.022,7.946.05,5.358.072,1.457.043a2.19,2.19,0,0,1,.508.045" transform="translate(-10.188 -12.486)" fill="#1a2e35"/>
          <path id="Trazado_152169" data-name="Trazado 152169" d="M70.22,113.661c0,.125-6.237.225-13.929.225s-13.93-.1-13.93-.225,6.236-.225,13.93-.225,13.929.1,13.929.225" transform="translate(-5.719 -15.316)" fill="#1a2e35"/>
          <path id="Trazado_152170" data-name="Trazado 152170" d="M83.436,125.523c0,.125-9.2.225-20.537.225s-20.539-.1-20.539-.225,9.194-.225,20.539-.225,20.537.1,20.537.225" transform="translate(-5.719 -16.918)" fill="#1a2e35"/>
          <path id="Trazado_152171" data-name="Trazado 152171" d="M83.436,137.386c0,.125-9.2.225-20.537.225s-20.539-.1-20.539-.225,9.194-.225,20.539-.225,20.537.1,20.537.225" transform="translate(-5.719 -18.519)" fill="#1a2e35"/>
          <path id="Trazado_152172" data-name="Trazado 152172" d="M83.436,149.248c0,.125-9.2.225-20.537.225s-20.539-.1-20.539-.225,9.194-.225,20.539-.225,20.537.1,20.537.225" transform="translate(-5.719 -20.121)" fill="#1a2e35"/>
          <path id="Trazado_152173" data-name="Trazado 152173" d="M83.436,161.11c0,.125-9.2.225-20.537.225s-20.539-.1-20.539-.225,9.194-.225,20.539-.225,20.537.1,20.537.225" transform="translate(-5.719 -21.723)" fill="#1a2e35"/>
          <path id="Trazado_152174" data-name="Trazado 152174" d="M83.436,172.973c0,.125-9.2.225-20.537.225s-20.539-.1-20.539-.225,9.194-.225,20.539-.225,20.537.1,20.537.225" transform="translate(-5.719 -23.324)" fill="#1a2e35"/>
          <path id="Trazado_152175" data-name="Trazado 152175" d="M56.877,172.63H19.331a3.651,3.651,0,0,1-3.651-3.651V156.131a3.652,3.652,0,0,1,3.651-3.652H56.877a3.652,3.652,0,0,1,3.652,3.652v12.848a3.651,3.651,0,0,1-3.652,3.651" transform="translate(-2.117 -20.588)" fill="#31313c"/>
          <path id="Trazado_152178" data-name="Trazado 152178" d="M92.324,330.8h-52.8a6.606,6.606,0,0,1-6.607-6.607V251.111a6.606,6.606,0,0,1,6.606-6.607H73.009l25.922,26.718V324.2a6.607,6.607,0,0,1-6.607,6.607" transform="translate(-4.444 -33.013)" fill="#ececec"/>
          <path id="Trazado_152179" data-name="Trazado 152179" d="M79.267,244.5v20.569a6.145,6.145,0,0,0,6.144,6.145l19.778,0Z" transform="translate(-10.702 -33.013)" fill="#f5f5f5"/>
          <path id="Trazado_152180" data-name="Trazado 152180" d="M79.579,270.371S79.318,275.359,85,277a6.154,6.154,0,0,0,.65.147c2.582.462,19.582,3.486,19.582,3.095v-5.527H85.453s-4.938-.169-5.874-4.343" transform="translate(-10.744 -36.505)" fill="#e1e1e1"/>
          <path id="Trazado_152181" data-name="Trazado 152181" d="M92.288,330.767c0-.031.4.009,1.141-.135a6.612,6.612,0,0,0,3-1.4,6.528,6.528,0,0,0,2.365-4.66c.034-2.131-.005-4.6,0-7.365-.019-11.066-.047-26.9-.08-46.027l.053.132-25.942-26.7.155.066-19.324.007-10.107,0H40.977a16.9,16.9,0,0,0-2.536.093,6.387,6.387,0,0,0-4.145,2.585,6.3,6.3,0,0,0-1.169,3.249c-.047,1.171-.013,2.4-.023,3.584q0,3.59,0,7.129,0,7.079,0,13.937c0,9.138-.01,17.952-.013,26.348q-.005,6.3-.01,12.269,0,2.984-.006,5.878,0,1.447,0,2.871a15.145,15.145,0,0,0,.122,2.779,6.442,6.442,0,0,0,2.99,4.248,6.368,6.368,0,0,0,2.437.86,24.457,24.457,0,0,0,2.6.069l9.966.015,30.077.072,8.178.041,2.126.023c.479.008.725.023.725.023s-.246.016-.725.023l-2.126.022-8.178.042-30.077.072-9.966.015a24.609,24.609,0,0,1-2.646-.066,6.721,6.721,0,0,1-2.575-.9,6.806,6.806,0,0,1-3.171-4.484,15.5,15.5,0,0,1-.135-2.852q0-1.425,0-2.871,0-2.895-.005-5.878-.005-5.966-.01-12.269c0-8.4-.009-17.211-.013-26.348q0-6.853,0-13.937,0-3.54,0-7.129c.01-1.2-.025-2.38.023-3.616a6.758,6.758,0,0,1,1.252-3.479,6.837,6.837,0,0,1,4.438-2.767,17.072,17.072,0,0,1,2.61-.1h2.565l10.107,0,19.324.007h.092l.063.066,25.9,26.737.054.055v.075c-.033,19.128-.06,34.961-.08,46.027-.017,2.765.005,5.223-.046,7.375a6.643,6.643,0,0,1-2.46,4.738,6.551,6.551,0,0,1-3.058,1.365,4.956,4.956,0,0,1-.86.078c-.194.005-.292,0-.292,0" transform="translate(-4.409 -32.977)" fill="#1a2e35"/>
          <path id="Trazado_152182" data-name="Trazado 152182" d="M105.154,271.222a2.131,2.131,0,0,1-.508.045l-1.457.042-5.358.071-7.946.047-4.7,0a6.375,6.375,0,0,1-5.887-4.443,7.374,7.374,0,0,1-.29-2.522c0-1.625.009-3.2.013-4.693.018-2.976.035-5.666.048-7.947.029-2.216.054-4.031.072-5.357.016-.592.031-1.074.042-1.457a2.151,2.151,0,0,1,.046-.508,2.191,2.191,0,0,1,.045.508c.011.382.025.864.042,1.457.018,1.326.042,3.141.072,5.357.014,2.281.03,4.97.048,7.947,0,1.5.009,3.067.013,4.693a6.948,6.948,0,0,0,.276,2.387,5.953,5.953,0,0,0,5.473,4.137l4.685.022,7.946.05,5.358.072,1.457.042a2.215,2.215,0,0,1,.508.046" transform="translate(-10.667 -33.013)" fill="#1a2e35"/>
          <path id="Trazado_152183" data-name="Trazado 152183" d="M73.765,265.688c0,.125-6.237.225-13.929.225s-13.93-.1-13.93-.225,6.236-.225,13.93-.225,13.929.1,13.929.225" transform="translate(-6.198 -35.842)" fill="#1a2e35"/>
          <path id="Trazado_152184" data-name="Trazado 152184" d="M86.982,277.551c0,.125-9.2.225-20.537.225s-20.539-.1-20.539-.225,9.194-.225,20.539-.225,20.537.1,20.537.225" transform="translate(-6.198 -37.444)" fill="#1a2e35"/>
          <path id="Trazado_152185" data-name="Trazado 152185" d="M86.982,289.413c0,.125-9.2.225-20.537.225s-20.539-.1-20.539-.225,9.194-.225,20.539-.225,20.537.1,20.537.225" transform="translate(-6.198 -39.046)" fill="#1a2e35"/>
          <path id="Trazado_152186" data-name="Trazado 152186" d="M86.982,301.276c0,.125-9.2.225-20.537.225s-20.539-.1-20.539-.225,9.194-.225,20.539-.225,20.537.1,20.537.225" transform="translate(-6.198 -40.647)" fill="#1a2e35"/>
          <path id="Trazado_152187" data-name="Trazado 152187" d="M86.982,313.138c0,.125-9.2.225-20.537.225s-20.539-.1-20.539-.225,9.194-.225,20.539-.225,20.537.1,20.537.225" transform="translate(-6.198 -42.249)" fill="#1a2e35"/>
          <path id="Trazado_152188" data-name="Trazado 152188" d="M86.982,325c0,.125-9.2.225-20.537.225s-20.539-.1-20.539-.225,9.194-.225,20.539-.225,20.537.1,20.537.225" transform="translate(-6.198 -43.851)" fill="#1a2e35"/>
          <path id="Trazado_152189" data-name="Trazado 152189" d="M66.725,324.658H23.436a3.961,3.961,0,0,1-4.21-3.651V308.159a3.961,3.961,0,0,1,4.21-3.652H66.725a3.961,3.961,0,0,1,4.21,3.652v12.848a3.961,3.961,0,0,1-4.21,3.651" transform="translate(-2.596 -41.114)" fill="#31313c"/>
          <path id="Trazado_152193" data-name="Trazado 152193" d="M229.84,370.864h-52.8a6.606,6.606,0,0,1-6.607-6.607V291.173a6.606,6.606,0,0,1,6.606-6.607h33.488l25.922,26.717v52.975a6.607,6.607,0,0,1-6.607,6.607" transform="translate(-23.011 -38.422)" fill="#ececec"/>
          <path id="Trazado_152194" data-name="Trazado 152194" d="M216.783,284.566v20.569a6.145,6.145,0,0,0,6.144,6.145l19.778,0Z" transform="translate(-29.269 -38.422)" fill="#f5f5f5"/>
          <path id="Trazado_152195" data-name="Trazado 152195" d="M217.095,310.433s-.26,4.988,5.419,6.628a6.2,6.2,0,0,0,.65.147c2.582.462,19.582,3.486,19.582,3.095v-5.527H222.969s-4.938-.169-5.874-4.343" transform="translate(-29.311 -41.914)" fill="#e1e1e1"/>
          <path id="Trazado_152196" data-name="Trazado 152196" d="M229.8,370.829c0-.031.4.009,1.141-.135a6.613,6.613,0,0,0,3-1.4,6.531,6.531,0,0,0,2.365-4.66c.034-2.131-.005-4.6,0-7.364-.019-11.066-.047-26.9-.08-46.027l.053.131-25.942-26.7.155.066-19.324.007-10.107,0h-2.566a16.907,16.907,0,0,0-2.535.093,6.388,6.388,0,0,0-4.145,2.585,6.3,6.3,0,0,0-1.169,3.249c-.047,1.171-.013,2.4-.023,3.584q0,3.59,0,7.129,0,7.079,0,13.937c0,9.138-.01,17.952-.013,26.348q-.005,6.3-.01,12.269,0,2.984-.006,5.878,0,1.447,0,2.871a15.143,15.143,0,0,0,.122,2.779,6.429,6.429,0,0,0,5.427,5.108,24.449,24.449,0,0,0,2.6.069l9.966.015,30.077.072,8.178.042,2.126.022c.479.008.725.023.725.023s-.246.016-.725.023l-2.126.022-8.178.042-30.077.072-9.966.015a24.616,24.616,0,0,1-2.646-.066,6.719,6.719,0,0,1-2.575-.9,6.806,6.806,0,0,1-3.171-4.484,15.5,15.5,0,0,1-.135-2.852q0-1.425,0-2.871,0-2.895-.005-5.878-.005-5.966-.01-12.269c0-8.4-.009-17.211-.013-26.348q0-6.853,0-13.937,0-3.54,0-7.129c.01-1.2-.025-2.381.023-3.616a6.758,6.758,0,0,1,1.252-3.479,6.837,6.837,0,0,1,4.438-2.767,17.063,17.063,0,0,1,2.609-.1h2.566l10.107,0,19.324.007h.092l.063.066,25.9,26.737.054.055v.075c-.033,19.128-.061,34.961-.08,46.027-.017,2.765.005,5.223-.046,7.375a6.643,6.643,0,0,1-2.46,4.737,6.551,6.551,0,0,1-3.058,1.365,4.948,4.948,0,0,1-.86.078c-.194.005-.291,0-.291,0" transform="translate(-22.975 -38.386)" fill="#1a2e35"/>
          <path id="Trazado_152197" data-name="Trazado 152197" d="M242.67,311.284a2.195,2.195,0,0,1-.508.045l-1.457.042-5.358.071-7.946.047-4.7,0a6.375,6.375,0,0,1-5.887-4.443,7.352,7.352,0,0,1-.29-2.522c0-1.625.009-3.2.013-4.693.018-2.976.035-5.666.048-7.947.029-2.216.054-4.031.071-5.357.017-.592.032-1.074.042-1.457a2.148,2.148,0,0,1,.046-.508,2.193,2.193,0,0,1,.045.508c.011.382.025.864.042,1.457.018,1.326.042,3.141.072,5.357.014,2.281.03,4.97.048,7.947,0,1.5.009,3.067.013,4.693a6.949,6.949,0,0,0,.276,2.387,5.953,5.953,0,0,0,5.473,4.137l4.685.023,7.946.05,5.358.072,1.457.042a2.154,2.154,0,0,1,.508.046" transform="translate(-29.234 -38.422)" fill="#1a2e35"/>
          <path id="Trazado_152198" data-name="Trazado 152198" d="M211.282,305.751c0,.125-6.237.225-13.929.225s-13.93-.1-13.93-.225,6.236-.225,13.93-.225,13.929.1,13.929.225" transform="translate(-24.765 -41.252)" fill="#1a2e35"/>
          <path id="Trazado_152199" data-name="Trazado 152199" d="M224.5,317.613c0,.124-9.2.225-20.537.225s-20.539-.1-20.539-.225,9.194-.225,20.539-.225,20.537.1,20.537.225" transform="translate(-24.765 -42.853)" fill="#1a2e35"/>
          <path id="Trazado_152200" data-name="Trazado 152200" d="M224.5,329.475c0,.125-9.2.225-20.537.225s-20.539-.1-20.539-.225,9.194-.225,20.539-.225,20.537.1,20.537.225" transform="translate(-24.765 -44.455)" fill="#1a2e35"/>
          <path id="Trazado_152201" data-name="Trazado 152201" d="M224.5,341.338c0,.125-9.2.225-20.537.225s-20.539-.1-20.539-.225,9.194-.225,20.539-.225,20.537.1,20.537.225" transform="translate(-24.765 -46.057)" fill="#1a2e35"/>
          <path id="Trazado_152202" data-name="Trazado 152202" d="M224.5,353.2c0,.125-9.2.225-20.537.225s-20.539-.1-20.539-.225,9.194-.225,20.539-.225,20.537.1,20.537.225" transform="translate(-24.765 -47.658)" fill="#1a2e35"/>
          <path id="Trazado_152203" data-name="Trazado 152203" d="M224.5,365.063c0,.125-9.2.225-20.537.225s-20.539-.1-20.539-.225,9.194-.225,20.539-.225,20.537.1,20.537.225" transform="translate(-24.765 -49.26)" fill="#1a2e35"/>
          <path id="Trazado_152204" data-name="Trazado 152204" d="M197.94,364.721H160.394a3.651,3.651,0,0,1-3.651-3.651V348.221a3.651,3.651,0,0,1,3.651-3.652H197.94a3.651,3.651,0,0,1,3.65,3.652v12.848a3.651,3.651,0,0,1-3.65,3.651" transform="translate(-21.163 -46.523)" fill="#31313c"/>
          <text id="Seaborn" transform="translate(17 145.568)" fill="#fff" font-size="10" font-family="Roboto-BoldItalic, Roboto" font-weight="700" font-style="italic"><tspan x="0" y="0">Seaborn</tspan></text>
          <text id="Matplotlib" transform="translate(19 277.568)" fill="#fff" font-size="10" font-family="Roboto-BoldItalic, Roboto" font-weight="700" font-style="italic"><tspan x="0" y="0">Matplotlib</tspan></text>
          <text id="Folium" transform="translate(249 246.568)" fill="#fff" font-size="11" font-family="Roboto-BoldItalic, Roboto" font-weight="700" font-style="italic"><tspan x="0" y="0">Folium</tspan></text>
          <text id="Python_2" data-name="Python " transform="translate(141 312.568)" fill="#fff" font-size="11" font-family="Roboto-BoldItalic, Roboto" font-weight="700" font-style="italic"><tspan x="0" y="0">Python </tspan></text>
        </g>
      </g>
    </g>
  </g>
</svg>
