<svg xmlns="http://www.w3.org/2000/svg" width="99.82" height="98" viewBox="0 0 99.82 98">
  <g id="Grupo_1080097" data-name="Grupo 1080097" transform="translate(-335.18 -9357)">
    <circle id="Elipse_10564" data-name="Elipse 10564" cx="49" cy="49" r="49" transform="translate(337 9357)" fill="#fff"/>
    <g id="analisis-de-mercado_1_" data-name="analisis-de-mercado (1)" transform="translate(329.29 9348.082)">
      <circle id="Elipse_10567" data-name="Elipse 10567" cx="5.016" cy="5.016" r="5.016" transform="translate(31.72 29.038)" fill="#f87023"/>
      <circle id="Elipse_10568" data-name="Elipse 10568" cx="5.016" cy="5.016" r="5.016" transform="translate(67.15 29.038)" fill="#f8af23"/>
      <path id="Trazado_827237" data-name="Trazado 827237" d="M114.851,162.081H61.406v-7.245a21.647,21.647,0,0,1,21.647-21.647h9.274a21.647,21.647,0,0,1,21.647,21.647Z" transform="translate(-33.239 -74.404)" fill="#63bce7"/>
      <path id="Trazado_827238" data-name="Trazado 827238" d="M90.477,133.189H83.054a21.647,21.647,0,0,0-21.647,21.647v7.245h7.424v-7.245a21.647,21.647,0,0,1,21.647-21.647Z" transform="translate(-33.239 -74.404)" fill="#6377e7"/>
      <rect id="Rectángulo_380968" data-name="Rectángulo 380968" width="10.834" height="21.436" rx="5.417" transform="translate(49.034 44.338)" fill="#f8af23"/>
      <path id="Trazado_827239" data-name="Trazado 827239" d="M113.406,102.677v10.6a5.439,5.439,0,0,0,4.689,5.368V97.309a5.439,5.439,0,0,0-4.689,5.368Z" transform="translate(-64.372 -52.922)" fill="#f87023"/>
      <rect id="Rectángulo_380969" data-name="Rectángulo 380969" width="35.43" height="44.171" rx="17.715" transform="translate(36.736 11.04)" fill="#f8af23"/>
      <path id="Trazado_827240" data-name="Trazado 827240" d="M90.183,40.661v-8.74a17.782,17.782,0,0,1,14-17.318A17.7,17.7,0,0,0,82.759,31.921v8.74a17.7,17.7,0,0,0,21.427,17.318,17.782,17.782,0,0,1-14-17.318Z" transform="translate(-46.023 -3.166)" fill="#f87023"/>
      <path id="Trazado_827241" data-name="Trazado 827241" d="M109.19,128.862l5.417,7.059-5.869,3.16-2.374-9.934,2.826-3.208Z" transform="translate(-60.156 -70.063)" fill="#f46275"/>
      <path id="Trazado_827242" data-name="Trazado 827242" d="M132.323,128.862l-5.417,7.059,5.869,3.16,2.375-9.934-2.826-3.208Z" transform="translate(-72.455 -70.063)" fill="#f46275"/>
      <path id="Trazado_827243" data-name="Trazado 827243" d="M113.12,80.836a1.115,1.115,0,1,1-2.229,0V79.271a1.115,1.115,0,1,1,2.229,0Z" transform="translate(-62.866 -41.455)" fill="#3f3679"/>
      <path id="Trazado_827244" data-name="Trazado 827244" d="M115.243,10.421a8.96,8.96,0,0,0-6.982,3.335,17.549,17.549,0,0,0-7.785-1.817A17.767,17.767,0,0,0,82.759,29.655V33.58h2.918V31.212A8.249,8.249,0,0,0,91.64,23.2s7.517,6.673,21.062,4.811a8.979,8.979,0,1,0,2.54-17.59Z" transform="translate(-46.023 -0.9)" fill="#9e9e9e"/>
      <path id="Trazado_827245" data-name="Trazado 827245" d="M104.176,14.6a17.563,17.563,0,0,0-3.7-.4A17.767,17.767,0,0,0,82.759,31.918v3.924h2.918V33.475a8.681,8.681,0,0,0,4.595-3.324,17.8,17.8,0,0,1,13.9-15.549Z" transform="translate(-46.023 -3.163)" fill="#707070"/>
      <path id="Trazado_827246" data-name="Trazado 827246" d="M0,0H11.236V3.9H0Z" transform="matrix(0.941, -0.338, 0.338, 0.941, 66.199, 53.938)" fill="#f8af23"/>
      <path id="Trazado_827247" data-name="Trazado 827247" d="M0,0H11.236V27.956A5.618,5.618,0,1,1,0,27.956V0Z" transform="matrix(0.941, -0.338, 0.338, 0.941, 67.513, 57.602)" fill="#63bce7"/>
      <path id="Trazado_827248" data-name="Trazado 827248" d="M0,0H11.236V3.311H0Z" transform="matrix(0.941, -0.338, 0.338, 0.941, 67.515, 57.603)" fill="#f46275"/>
      <circle id="Elipse_10569" data-name="Elipse 10569" cx="6.747" cy="6.747" r="6.747" transform="translate(52.473 33.409) rotate(-31.671)" fill="#9e9e9e"/>
      <rect id="Rectángulo_380970" data-name="Rectángulo 380970" width="4.216" height="11.562" rx="2.108" transform="translate(64.825 44.596) rotate(-31.671)" fill="#f46275"/>
      <path id="Trazado_827249" data-name="Trazado 827249" d="M2.244,0H4.658A1.111,1.111,0,0,1,5.768,1.111v7.71A1.111,1.111,0,0,1,4.658,9.932H2.244A2.244,2.244,0,0,1,0,7.688V2.244A2.244,2.244,0,0,1,2.244,0Z" transform="translate(67.451 47.716) rotate(-53.909)" fill="#f8af23"/>
      <path id="Trazado_827250" data-name="Trazado 827250" d="M155.561,113.052l-2.295-3.566a2.006,2.006,0,0,1-.293-1.408l.5-3.046a2.006,2.006,0,0,1,.989-1.422l3.439-1.955a1.433,1.433,0,0,1,1.45,2.472l-3.465,2.1A9.97,9.97,0,0,1,160,111.461Z" transform="translate(-88.046 -55.412)" fill="#f8af23"/>
      <path id="Trazado_827251" data-name="Trazado 827251" d="M145.592,80.836a1.115,1.115,0,1,1-2.23,0V79.271a1.115,1.115,0,1,1,2.23,0Z" transform="translate(-82.308 -41.455)" fill="#3f3679"/>
      <path id="Trazado_827252" data-name="Trazado 827252" d="M111.544,224.277v1.143a2.7,2.7,0,0,1-2.689,2.689H47.344a2.7,2.7,0,0,1-2.689-2.689v-1.143Z" transform="translate(-23.209 -128.94)" fill="#6377e7"/>
      <path id="Trazado_827253" data-name="Trazado 827253" d="M55.816,145.033h57.931v35.63H55.816Z" transform="translate(-29.892 -81.495)" fill="#63bce7"/>
      <path id="Trazado_827254" data-name="Trazado 827254" d="M55.816,145.033H63.24v35.63H55.816Z" transform="translate(-29.892 -81.495)" fill="#6377e7"/>
      <path id="Trazado_827255" data-name="Trazado 827255" d="M181.684,145.033h7.424v35.63h-7.424Z" transform="translate(-105.252 -81.495)" fill="#63e2e7"/>
      <circle id="Elipse_10570" data-name="Elipse 10570" cx="4.637" cy="4.637" r="4.637" transform="translate(50.254 76.716)" fill="#9e9e9e"/>
      <path id="Trazado_827256" data-name="Trazado 827256" d="M20.508,92.525v14.254H38.9V92.525l-9.2-4.6Z" transform="translate(-8.752 -47.305)" fill="#f46275"/>
      <path id="Trazado_827257" data-name="Trazado 827257" d="M36.537,85.754,25.662,80.316a1.472,1.472,0,0,0-1.316,0L13.468,85.754a1.471,1.471,0,1,0,1.316,2.632l.876-.438L25,83.277l9.343,4.671.876.438a1.471,1.471,0,1,0,1.316-2.632Z" transform="translate(-4.05 -42.655)" fill="#63bce7"/>
      <path id="Trazado_827258" data-name="Trazado 827258" d="M197.508,107.876h4.229v10.847h-4.229Z" transform="translate(-114.726 -59.249)" fill="#f8af23"/>
      <path id="Trazado_827259" data-name="Trazado 827259" d="M215.157,98.468h4.229v14.623h-4.229Z" transform="translate(-125.293 -53.616)" fill="#63bce7"/>
      <path id="Trazado_827260" data-name="Trazado 827260" d="M232.806,89.06h4.229v18.4h-4.229Z" transform="translate(-135.86 -47.983)" fill="#f8af23"/>
      <path id="Trazado_827261" data-name="Trazado 827261" d="M39.953,114.467H33.131l-1.2-5.827h9.229Z" transform="translate(-15.589 -59.706)" fill="#f8af23"/>
      <rect id="Rectángulo_380971" data-name="Rectángulo 380971" width="2.282" height="5.819" rx="1.141" transform="translate(19.812 45.038)" fill="#63bce7"/>
      <circle id="Elipse_10571" data-name="Elipse 10571" cx="6.134" cy="6.134" r="6.134" transform="translate(85.845 28.308)" fill="#f8af23"/>
      <g id="Grupo_1079681" data-name="Grupo 1079681" transform="translate(5.89 8.918)">
        <path id="Trazado_827262" data-name="Trazado 827262" d="M47.341,39.648A18.36,18.36,0,0,0,59.508,54.791v.857l-2.537,2.88a22.243,22.243,0,0,0-9.825,4.408H37a.6.6,0,0,0-.6.6v31.2H32.522a.6.6,0,0,0-.6.6v1.143a3.274,3.274,0,0,0,.748,2.087H24.992a.6.6,0,1,0,0,1.2h81.949a.6.6,0,1,0,0-1.2H99.264a3.274,3.274,0,0,0,.748-2.087V95.337a.6.6,0,0,0-.6-.6H95.534V87.864a6.225,6.225,0,0,0,3.638-7.905L95.555,69.875a.469.469,0,0,0-.022-.045V63.538a.6.6,0,0,0-.6-.6H93.066l-2.215-6.175-1.118-3.117L88.9,51.33l.877-1.2a1.712,1.712,0,0,0-.376-2.393l-6.231-4.54a1.731,1.731,0,0,0-.205-.12,18.084,18.084,0,0,0,.748-3.424,5.613,5.613,0,0,0,.123-11.175q-.008-.529-.047-1.057a9.579,9.579,0,1,0-10.634-15.3,18.026,18.026,0,0,0-7.628-1.676A18.335,18.335,0,0,0,47.218,28.474a5.613,5.613,0,0,0,.124,11.175ZM65.527,55.812a18.222,18.222,0,0,0,4.815-.646v3.428l-3.331,4.341H64.045l-3.331-4.341V55.165a18.267,18.267,0,0,0,4.813.647ZM75.789,54.4l2.258,3.507.718,2a22.093,22.093,0,0,0-4.681-1.381l-2.537-2.881v-.858a18.2,18.2,0,0,0,3.838-1.879,2.6,2.6,0,0,0,.4,1.49Zm.278-13.55a6.13,6.13,0,1,1,2.1-8.413,6.13,6.13,0,0,1-2.1,8.413Zm1.951,3.165a1.512,1.512,0,0,1,2.074.49l0,0-.736,1.01a2.846,2.846,0,0,0-.5,1.206l-.693.394-.638-1.034a1.508,1.508,0,0,1,.49-2.072Zm-.233,4.707,3.439-1.955a.831.831,0,1,1,.843,1.433L78.6,50.3a.6.6,0,0,0,.025,1.043,9.374,9.374,0,0,1,3.618,4.351l-3.4,1.221L76.8,53.749a1.4,1.4,0,0,1-.205-.986l.5-3.047a1.4,1.4,0,0,1,.693-1Zm10.243,3.732.37,1.029-5.02,1.8a11.514,11.514,0,0,0-.5-1.04,2.655,2.655,0,0,0,2.06-1.235,2.809,2.809,0,0,0,1.113.238,2.884,2.884,0,0,0,.448-.035,2.825,2.825,0,0,0,1.527-.757Zm-16.6,6.713a.6.6,0,0,0,.125-.366V57.47l1.565,1.778-.883,3.688h-3.7Zm2.8.616a20.887,20.887,0,0,1,5.107,1.7l.522,1.452H73.47ZM79.361,58l2.819-1.012L88.8,54.617l.711,1.984-9.443,3.387Zm4.093-5.173a1.5,1.5,0,0,1-1.418.083,10.569,10.569,0,0,0-2.011-2.073l.984-.6,2.914,2.123a1.485,1.485,0,0,1-.469.464ZM59.508,57.47V58.8a.6.6,0,0,0,.124.366l2.894,3.772h-3.7l-.883-3.688Zm-2.675,2.317.753,3.15H49.208a21.022,21.022,0,0,1,7.625-3.15ZM33.124,96.479v-.541H36.4v2.627H35.21a2.087,2.087,0,0,1-2.086-2.086Zm65.685-.541v.541a2.087,2.087,0,0,1-2.087,2.087H95.533V95.939Zm-.77-15.574a5.021,5.021,0,0,1-2.505,6.191V73.38Zm-3.709,18.2H37.6V64.14H94.33Zm-13.2-35.63-.651-1.815,9.443-3.387,1.866,5.2Zm7.566-14.23a.508.508,0,0,1,.111.711l-1.421,1.951a1.641,1.641,0,0,1-2.293.361l-2.965-2.16.562-.339a2.033,2.033,0,0,0-1.943-3.567l1.008-1.383a.508.508,0,0,1,.711-.111ZM87.654,34.054a4.418,4.418,0,0,1-3.838,4.374c.016-.31.026-.62.026-.931V29.682a4.4,4.4,0,0,1,3.815,4.373Zm-5.016-5.3v8.74a16.946,16.946,0,0,1-.891,5.429,1.691,1.691,0,0,0-.911.579,2.709,2.709,0,0,0-2.9-.77l-.738-1.2a7.347,7.347,0,1,0-11.016-2.821v4.3a.6.6,0,0,0,.6.6l.025,0a1.26,1.26,0,1,1-.025,2.519.6.6,0,1,0,0,1.2,2.463,2.463,0,0,0,.6-4.852V40.536a7.292,7.292,0,0,0,3.763,2.234,7.387,7.387,0,0,0,1.709.2,7.278,7.278,0,0,0,3.318-.8l.738,1.2a2.713,2.713,0,0,0-.409,3.353l.618,1a2.593,2.593,0,0,0-1.215,1.8L75.616,51.3l-.017.01a16.938,16.938,0,0,1-10.072,3.3A17.132,17.132,0,0,1,48.414,37.5V33.282H50.73a.6.6,0,0,0,.6-.6V30.748a8.85,8.85,0,0,0,5.891-7.278c2.418,1.711,9.453,5.732,20.488,4.254a9.578,9.578,0,0,0,4.9.071c.018.322.03.642.03.961Zm-34.226,0A17.132,17.132,0,0,1,65.525,11.642a16.849,16.849,0,0,1,7.52,1.754.6.6,0,0,0,.734-.161,8.375,8.375,0,1,1,4.145,13.3.609.609,0,0,0-.252-.019c-13.088,1.8-20.505-4.6-20.58-4.664a.6.6,0,0,0-1,.445,7.593,7.593,0,0,1-5.509,7.433.6.6,0,0,0-.455.583v1.766H48.414V28.755Zm-1.2.927V37.5q0,.468.024.931a4.412,4.412,0,0,1-.024-8.745Z" transform="translate(-16.966 -8.918)" fill="#3f3679"/>
        <path id="Trazado_827263" data-name="Trazado 827263" d="M119.2,107.212a2.565,2.565,0,0,1-.755-1.824.6.6,0,0,0-1.2,0,3.784,3.784,0,0,0,6.459,2.675.6.6,0,1,0-.851-.851,2.583,2.583,0,0,1-3.648,0Z" transform="translate(-72.557 -66.316)" fill="#3f3679"/>
        <path id="Trazado_827264" data-name="Trazado 827264" d="M112.356,71.566a.6.6,0,0,0-.13-.843,4.379,4.379,0,0,0-3.4-.816,3.94,3.94,0,0,0-2.6,1.677.6.6,0,0,0,1.008.659,2.732,2.732,0,0,1,1.811-1.151,3.186,3.186,0,0,1,2.468.6A.6.6,0,0,0,112.356,71.566Z" transform="translate(-65.906 -45.394)" fill="#3f3679"/>
        <path id="Trazado_827265" data-name="Trazado 827265" d="M143.146,70.727a4.382,4.382,0,0,0-3.4-.816,3.941,3.941,0,0,0-2.6,1.677.6.6,0,0,0,1.008.658,2.734,2.734,0,0,1,1.812-1.151,3.186,3.186,0,0,1,2.468.6.6.6,0,0,0,.711-.972Z" transform="translate(-84.418 -45.396)" fill="#3f3679"/>
        <path id="Trazado_827266" data-name="Trazado 827266" d="M13.916,244.079H6.492a.6.6,0,1,0,0,1.2h7.424a.6.6,0,1,0,0-1.2Z" transform="translate(-5.89 -149.714)" fill="#3f3679"/>
        <path id="Trazado_827267" data-name="Trazado 827267" d="M236.636,244.079h-7.424a.6.6,0,1,0,0,1.2h7.424a.6.6,0,1,0,0-1.2Z" transform="translate(-139.237 -149.714)" fill="#3f3679"/>
        <path id="Trazado_827268" data-name="Trazado 827268" d="M109.858,244.079H39.765a.6.6,0,1,0,0,1.2h70.093a.6.6,0,1,0,0-1.2Z" transform="translate(-25.811 -149.714)" fill="#3f3679"/>
        <path id="Trazado_827269" data-name="Trazado 827269" d="M6.492,233.528H9.679a.6.6,0,1,0,0-1.2H6.492a.6.6,0,1,0,0,1.2Z" transform="translate(-5.89 -142.676)" fill="#3f3679"/>
        <path id="Trazado_827270" data-name="Trazado 827270" d="M239.167,232.926a.6.6,0,0,0,.6.6h3.187a.6.6,0,1,0,0-1.2h-3.187A.6.6,0,0,0,239.167,232.926Z" transform="translate(-145.558 -142.676)" fill="#3f3679"/>
        <path id="Trazado_827271" data-name="Trazado 827271" d="M120.183,186.85a5.239,5.239,0,1,0-5.239-5.239A5.239,5.239,0,0,0,120.183,186.85Zm0-9.273a4.035,4.035,0,1,1-4.035,4.035A4.035,4.035,0,0,1,120.183,177.577Z" transform="translate(-71.183 -109.177)" fill="#3f3679"/>
        <path id="Trazado_827272" data-name="Trazado 827272" d="M12.576,88.141a2.061,2.061,0,0,0,1.583-.112l.15-.075v13.28a.6.6,0,0,0,.6.6H33.3a.6.6,0,0,0,.6-.6V87.954l.15.075a2.073,2.073,0,0,0,1.855-3.708L25.034,78.882a2.087,2.087,0,0,0-1.854,0L12.306,84.32a2.073,2.073,0,0,0,.272,3.821Zm20.127-.79v13.28H15.513V87.352l8.595-4.3ZM12.843,85.4l10.875-5.439a.876.876,0,0,1,.778,0L35.373,85.4a.869.869,0,0,1,.389,1.167.881.881,0,0,1-1.166.388L24.378,81.843a.6.6,0,0,0-.539,0L13.62,86.952a.869.869,0,0,1-.777-1.555Z" transform="translate(-9.045 -50.677)" fill="#3f3679"/>
        <path id="Trazado_827273" data-name="Trazado 827273" d="M196.61,118.427h4.229a.6.6,0,0,0,.6-.6V106.978a.6.6,0,0,0-.6-.6H196.61a.6.6,0,0,0-.6.6v10.847a.6.6,0,0,0,.6.6Zm.6-10.847h3.025v9.643h-3.025Z" transform="translate(-119.718 -67.268)" fill="#3f3679"/>
        <path id="Trazado_827274" data-name="Trazado 827274" d="M214.259,96.968a.6.6,0,0,0-.6.6v14.622a.6.6,0,0,0,.6.6h4.231a.6.6,0,0,0,.6-.6V97.57a.6.6,0,0,0-.6-.6Zm3.627,14.622h-3.025V98.172h3.027Z" transform="translate(-130.285 -61.635)" fill="#3f3679"/>
        <path id="Trazado_827275" data-name="Trazado 827275" d="M231.306,88.163v18.4a.6.6,0,0,0,.6.6h4.229a.6.6,0,0,0,.6-.6v-18.4a.6.6,0,0,0-.6-.6h-4.229a.6.6,0,0,0-.6.6Zm1.2.6h3.026v17.194H232.51Z" transform="translate(-140.852 -56.003)" fill="#3f3679"/>
        <path id="Trazado_827276" data-name="Trazado 827276" d="M31.644,107.881a.6.6,0,0,0,.589.482h6.822a.6.6,0,0,0,.589-.482l1.2-5.827a.6.6,0,0,0-.589-.722H37.387V99.18a1.743,1.743,0,1,0-3.486,0v2.152H31.029a.6.6,0,0,0-.589.722Zm3.461-8.7a.539.539,0,1,1,1.079,0v3.536a.539.539,0,1,1-1.078,0Zm-1.2,3.356v.18a1.743,1.743,0,0,0,3.486,0v-.18H39.52l-.955,4.623H32.723l-.955-4.623Z" transform="translate(-20.581 -61.916)" fill="#3f3679"/>
        <path id="Trazado_827277" data-name="Trazado 827277" d="M210.377,69.212a6.736,6.736,0,1,0-6.736-6.736A6.736,6.736,0,0,0,210.377,69.212Zm0-12.267a5.532,5.532,0,1,1-5.532,5.532,5.532,5.532,0,0,1,5.532-5.532Z" transform="translate(-124.288 -36.951)" fill="#3f3679"/>
        <path id="Trazado_827278" data-name="Trazado 827278" d="M218.874,65.258v2.135a.586.586,0,0,1-.187.433.613.613,0,0,1-.444.183h-1.878v1.5a.589.589,0,0,1-.183.437.6.6,0,0,1-.433.18.615.615,0,0,1-.447-.18.588.588,0,0,1-.183-.437V67.994h-1.864a.6.6,0,0,1-.433-.18.588.588,0,0,1-.183-.437.614.614,0,0,1,.616-.616h4.358v-.888h-4.344a.6.6,0,0,1-.437-.176.59.59,0,0,1-.18-.441V63.13a.614.614,0,0,1,.616-.616h1.849v-1.5a.609.609,0,0,1,.638-.616.586.586,0,0,1,.429.18.6.6,0,0,1,.18.437v1.5h1.893a.613.613,0,0,1,.444.183.587.587,0,0,1,.187.433.639.639,0,0,1-.631.631H213.9v.88h4.343a.613.613,0,0,1,.444.183.586.586,0,0,1,.187.433Z" transform="translate(-129.675 -39.737)" fill="#3f3679"/>
      </g>
    </g>
  </g>
</svg>
