<svg xmlns="http://www.w3.org/2000/svg" xmlns:xlink="http://www.w3.org/1999/xlink" width="190" height="180" viewBox="0 0 190 180">
  <defs>
    <clipPath id="clip-path">
      <rect id="Rectángulo_374223" data-name="Rectángulo 374223" width="190" height="180" rx="5" transform="translate(1125 11068)" fill="#dfecf4"/>
    </clipPath>
  </defs>
  <g id="Enmascarar_grupo_1059124" data-name="Enmascarar grupo 1059124" transform="translate(-1125 -11068)" clip-path="url(#clip-path)">
    <g id="python" transform="translate(1230 11065.105)" opacity="0.1">
      <path id="Trazado_801223" data-name="Trazado 801223" d="M157.374,85.481a64.925,64.925,0,0,1-.062,30.034,12.775,12.775,0,0,1-12.444,9.855H125.353v19.518A12.778,12.778,0,0,1,115.221,157.4a64.913,64.913,0,0,1-29.724,0,12.782,12.782,0,0,1-10.147-12.512V113.152a12.785,12.785,0,0,1,12.785-12.785h24.432a12.785,12.785,0,0,0,12.785-12.783V75.368h19.516a12.776,12.776,0,0,1,12.505,10.113Z" transform="translate(-40.433 -40.434)" fill="#f7cd00"/>
      <path id="Trazado_801224" data-name="Trazado 801224" d="M88.061,18.563v31.73A12.785,12.785,0,0,1,75.275,63.078H50.843A12.785,12.785,0,0,0,38.058,75.862V88.077H18.541A12.775,12.775,0,0,1,6.1,78.23a64.94,64.94,0,0,1,0-30.3,12.776,12.776,0,0,1,12.443-9.848H38.058V18.561A12.78,12.78,0,0,1,48.172,6.056a64.918,64.918,0,0,1,29.714-.013,12.785,12.785,0,0,1,10.174,12.52Z" transform="translate(-3.141 -3.143)" fill="#2981b7"/>
      <circle id="Elipse_8473" data-name="Elipse 8473" cx="3.995" cy="3.995" r="3.995" transform="translate(44.317 16.968) rotate(-22.514)" fill="#fff"/>
      <circle id="Elipse_8474" data-name="Elipse 8474" cx="3.995" cy="3.995" r="3.995" transform="translate(66.315 96.731)" fill="#fff"/>
      <path id="Trazado_801225" data-name="Trazado 801225" d="M168.663,152.381a1.188,1.188,0,0,1-1.188-1.188v-2.306a1.188,1.188,0,0,1,2.375,0v2.306A1.188,1.188,0,0,1,168.663,152.381Zm0-7.057a1.188,1.188,0,0,1-1.188-1.188V124.755a1.188,1.188,0,0,1,1.188-1.188h24.562a4.92,4.92,0,0,0,4.814-3.81,57.43,57.43,0,0,0,0-26.719,4.912,4.912,0,0,0-4.81-3.8,1.188,1.188,0,1,1,0-2.375,7.286,7.286,0,0,1,7.181,5.877,59.8,59.8,0,0,1-.056,27.555,7.285,7.285,0,0,1-7.126,5.643H169.853v18.193a1.188,1.188,0,0,1-1.19,1.189Z" transform="translate(-88.791 -46.471)" fill="#f9e5af"/>
      <path id="Trazado_801226" data-name="Trazado 801226" d="M60.039,90.353a1.188,1.188,0,0,1-1.188-1.188V87.036a1.188,1.188,0,0,1,2.375,0v2.129A1.188,1.188,0,0,1,60.039,90.353ZM60,83.471A1.188,1.188,0,0,1,58.9,82.207,20.671,20.671,0,0,1,79.475,62.976h24.432a4.951,4.951,0,0,0,4.946-4.946V26.3a4.918,4.918,0,0,0-3.807-4.813l-.319-.076a1.188,1.188,0,1,1,.542-2.313l.319.075a7.284,7.284,0,0,1,5.641,7.126v31.73a7.33,7.33,0,0,1-7.322,7.322H79.475A18.291,18.291,0,0,0,61.268,82.365,1.188,1.188,0,0,1,60,83.471Z" transform="translate(-31.772 -10.88)" fill="#c5e5ff"/>
      <path id="Trazado_801227" data-name="Trazado 801227" d="M120.226,76.317a13.984,13.984,0,0,0-13.6-10.761H88.3v-5.5a1.188,1.188,0,0,0-2.371-.01.017.017,0,0,0,0,.01v18.9a11.64,11.64,0,0,1-11.6,11.6H49.895a13.962,13.962,0,0,0-13.972,13.972v11.027H17.6a11.536,11.536,0,0,1-11.288-8.932,64.3,64.3,0,0,1-1.435-8.442,1.189,1.189,0,0,0-2.366.242,66.6,66.6,0,0,0,1.487,8.746,13.97,13.97,0,0,0,13.6,10.761H35.924v18.329a13.972,13.972,0,0,0,11.031,13.663,65.558,65.558,0,0,0,30.4-.019A13.98,13.98,0,0,0,88.3,136.263V117.934h5.706a1.188,1.188,0,0,0,0-2.375h-31.9a1.188,1.188,0,0,0,0,2.375H85.925v18.329a11.541,11.541,0,0,1-9.217,11.355,63.994,63.994,0,0,1-29.18,0A11.548,11.548,0,0,1,38.3,136.263V104.53a11.634,11.634,0,0,1,11.6-11.6H74.328A13.977,13.977,0,0,0,88.3,78.961V67.931h18.329a11.539,11.539,0,0,1,11.307,9.041,1.6,1.6,0,0,1,.038.162,63.989,63.989,0,0,1-.062,29.488,11.535,11.535,0,0,1-11.288,8.936h-3.117a1.188,1.188,0,1,0,0,2.375h3.117a13.967,13.967,0,0,0,13.6-10.77c2.955-12.447,1.856-20.745,0-30.847Z" transform="translate(-2.193 -31.812)"/>
      <circle id="Elipse_8475" data-name="Elipse 8475" cx="1.188" cy="1.188" r="1.188" transform="translate(95.378 83.747)"/>
      <path id="Trazado_801228" data-name="Trazado 801228" d="M179.282,48.794a1.188,1.188,0,1,0,1.183,1.188A1.188,1.188,0,0,0,179.282,48.794Z" transform="translate(-94.363 -26.485)"/>
      <path id="Trazado_801229" data-name="Trazado 801229" d="M3.13,60.028A1.188,1.188,0,0,0,4.318,58.9v-.009a63.783,63.783,0,0,1,1.7-12A11.535,11.535,0,0,1,17.3,37.956H61.817a1.188,1.188,0,0,0,0-2.375H38.006V17.256A11.536,11.536,0,0,1,47.2,5.9a63.922,63.922,0,0,1,29.265.01,11.545,11.545,0,0,1,9.16,11.34V20.58a1.19,1.19,0,0,0,2.38,0l0-3.326A13.968,13.968,0,0,0,76.916,3.577a66.356,66.356,0,0,0-30.258.014A13.98,13.98,0,0,0,35.631,17.254V35.578H17.3A13.986,13.986,0,0,0,3.629,46.643,66.66,66.66,0,0,0,1.943,58.786,1.188,1.188,0,0,0,3.13,60.028Z" transform="translate(-1.899 -1.836)"/>
      <path id="Trazado_801230" data-name="Trazado 801230" d="M3.074,131.7a1.192,1.192,0,0,0,1.154-1.221,1.174,1.174,0,0,0-1.221-1.154,1.188,1.188,0,1,0,.067,2.375Z" transform="translate(-1.853 -68.756)"/>
      <path id="Trazado_801231" data-name="Trazado 801231" d="M95.192,36.4a5.183,5.183,0,1,0,5.183-5.183A5.183,5.183,0,0,0,95.192,36.4Zm7.99,0a2.808,2.808,0,1,1-2.808-2.808A2.808,2.808,0,0,1,103.182,36.4Z" transform="translate(-50.848 -17.26)"/>
      <path id="Trazado_801232" data-name="Trazado 801232" d="M149.305,208.129a5.183,5.183,0,1,0-5.183,5.183A5.183,5.183,0,0,0,149.305,208.129Zm-7.991,0a2.808,2.808,0,1,1,2.808,2.807A2.808,2.808,0,0,1,141.314,208.129Z" transform="translate(-73.812 -107.401)"/>
    </g>
  </g>
</svg>
