<svg xmlns="http://www.w3.org/2000/svg" width="85" height="69" viewBox="0 0 85 69">
  <g id="Grupo_1080919" data-name="Grupo 1080919" transform="translate(-180 -1535)">
    <rect id="Rectángulo_381238" data-name="Rectángulo 381238" width="85" height="69" rx="5" transform="translate(180 1535)" fill="#fceea6"/>
    <g id="ventas-y-marketing" transform="translate(180.057 1526.673)">
      <path id="Trazado_821228" data-name="Trazado 821228" d="M182.98,53.593s.84,3.118,3.258,3.263c0,0-3.228,1.115-3.283,3.5,0,0-.635-3.343-3.185-3.463,0,0,2.97-.45,3.21-3.3Z" transform="translate(-124.229 -29.021)" fill="#d6df58"/>
      <path id="Trazado_821229" data-name="Trazado 821229" d="M181.824,59.592a.37.37,0,0,1-.363-.3c-.006-.031-.615-3.059-2.84-3.163a.37.37,0,0,1-.038-.734,3.42,3.42,0,0,0,2.9-2.964.369.369,0,0,1,.725-.065c.008.029.8,2.864,2.924,2.99a.369.369,0,0,1,.1.718c-.03.011-2.986,1.062-3.034,3.157a.369.369,0,0,1-.338.36Zm-1.908-3.874a4.305,4.305,0,0,1,1.87,2.187,5.254,5.254,0,0,1,2.205-2.076,4.512,4.512,0,0,1-2.054-2.149A3.969,3.969,0,0,1,179.917,55.718Z" transform="translate(-123.098 -27.89)" fill="#3a312a"/>
      <path id="Trazado_821230" data-name="Trazado 821230" d="M164.144,70.573s.594,2.205,2.3,2.308c0,0-2.284.788-2.322,2.474,0,0-.449-2.365-2.253-2.449a2.7,2.7,0,0,0,2.27-2.333Z" transform="translate(-110.741 -41.819)" fill="#d6df58"/>
      <path id="Trazado_821231" data-name="Trazado 821231" d="M163,74.593a.37.37,0,0,1-.363-.3c0-.02-.42-2.079-1.907-2.15a.37.37,0,0,1-.038-.734,2.315,2.315,0,0,0,1.957-2,.369.369,0,0,1,.725-.066c.005.019.549,1.951,1.97,2.036a.369.369,0,0,1,.1.718c-.02.007-2.041.727-2.073,2.134a.37.37,0,0,1-.339.36Zm-1.114-2.839a3.161,3.161,0,0,1,1.1,1.3,3.862,3.862,0,0,1,1.322-1.225,3.3,3.3,0,0,1-1.218-1.287A2.946,2.946,0,0,1,161.882,71.754Z" transform="translate(-109.61 -40.687)" fill="#3a312a"/>
      <path id="Trazado_821232" data-name="Trazado 821232" d="M164.144,43.915s.594,2.205,2.3,2.308c0,0-2.284.788-2.322,2.474,0,0-.449-2.365-2.253-2.449a2.7,2.7,0,0,0,2.27-2.333Z" transform="translate(-110.741 -21.727)" fill="#d6df58"/>
      <path id="Trazado_821233" data-name="Trazado 821233" d="M163,47.935a.37.37,0,0,1-.363-.3c0-.02-.42-2.079-1.907-2.15a.37.37,0,0,1-.038-.734,2.315,2.315,0,0,0,1.957-2,.369.369,0,0,1,.725-.066c.005.019.549,1.951,1.97,2.036a.369.369,0,0,1,.1.718c-.02.007-2.041.727-2.073,2.133a.37.37,0,0,1-.339.36ZM161.882,45.1a3.159,3.159,0,0,1,1.1,1.3,3.862,3.862,0,0,1,1.322-1.225,3.3,3.3,0,0,1-1.218-1.287A2.946,2.946,0,0,1,161.882,45.1Z" transform="translate(-109.61 -20.595)" fill="#3a312a"/>
      <path id="Trazado_821234" data-name="Trazado 821234" d="M159.892,182.542h4.668v14.007h-4.668Z" transform="translate(-109.247 -126.209)" fill="#00ffc1"/>
      <path id="Trazado_821235" data-name="Trazado 821235" d="M163.43,195.788h-4.668a.369.369,0,0,1-.369-.369V181.41a.369.369,0,0,1,.369-.369h4.668a.369.369,0,0,1,.369.369v14.008A.37.37,0,0,1,163.43,195.788Zm-4.3-.739h3.929V181.78h-3.929Z" transform="translate(-108.117 -125.078)" fill="#3a312a"/>
      <path id="Trazado_821236" data-name="Trazado 821236" d="M194.916,162.608v-7.765h-4.668v20.83h4.668V162.608Z" transform="translate(-132.126 -105.332)" fill="#ffe93e"/>
      <path id="Trazado_821237" data-name="Trazado 821237" d="M193.786,174.913h-4.668a.369.369,0,0,1-.369-.369v-20.83a.369.369,0,0,1,.369-.369h4.668a.369.369,0,0,1,.369.369v7.765a.369.369,0,1,1-.739,0v-7.4h-3.929v20.091h3.929v-8.857a.369.369,0,0,1,.739,0v9.226A.37.37,0,0,1,193.786,174.913Z" transform="translate(-130.996 -104.203)" fill="#3a312a"/>
      <path id="Trazado_821238" data-name="Trazado 821238" d="M220.6,127.145h4.668V154.8H220.6Z" transform="translate(-155.005 -84.457)" fill="#fff"/>
      <path id="Trazado_821239" data-name="Trazado 821239" d="M224.142,154.037h-4.668a.369.369,0,0,1-.369-.369V126.015a.369.369,0,0,1,.369-.369h4.668a.369.369,0,0,1,.369.369v27.652A.37.37,0,0,1,224.142,154.037Zm-4.3-.739h3.929V126.385h-3.929Z" transform="translate(-153.875 -83.327)" fill="#3a312a"/>
      <path id="Trazado_821240" data-name="Trazado 821240" d="M49.315,183.317V176.6a7.408,7.408,0,0,0-7.414-7.409H37v-4.152H28.763v4.152h-4.9a7.414,7.414,0,0,0-7.421,7.409v6.719Z" transform="translate(-1.131 -113.015)" fill="#f6e2c6"/>
      <path id="Trazado_821241" data-name="Trazado 821241" d="M48.185,182.556H15.312a.369.369,0,0,1-.369-.369v-6.719a7.793,7.793,0,0,1,7.791-7.778h4.53v-3.783a.369.369,0,0,1,.369-.369h8.237a.369.369,0,0,1,.369.369v3.783h4.532a7.79,7.79,0,0,1,7.783,7.778v6.719a.369.369,0,0,1-.369.369Zm-32.5-.739H47.815v-6.35a7.05,7.05,0,0,0-7.044-7.039h-4.9a.369.369,0,0,1-.369-.369v-3.783H28v3.783a.369.369,0,0,1-.369.369h-4.9a7.054,7.054,0,0,0-7.052,7.039v6.35Z" transform="translate(0 -111.885)" fill="#3a312a"/>
      <path id="Trazado_821242" data-name="Trazado 821242" d="M49.315,189.3v6.719H16.443V189.3a7.414,7.414,0,0,1,7.421-7.409h5.419l3.594,4.771,3.6-4.771H41.9A7.408,7.408,0,0,1,49.315,189.3Z" transform="translate(-1.131 -125.72)" fill="#8bc0d7"/>
      <path id="Trazado_821243" data-name="Trazado 821243" d="M48.185,195.261H15.312a.369.369,0,0,1-.369-.369v-6.719a7.793,7.793,0,0,1,7.791-7.778h5.419a.37.37,0,0,1,.3.147l3.3,4.379,3.3-4.38a.369.369,0,0,1,.3-.147h5.429a7.79,7.79,0,0,1,7.783,7.778v6.719a.369.369,0,0,1-.369.369Zm-32.5-.739H47.815v-6.35a7.05,7.05,0,0,0-7.044-7.039H35.526l-3.485,4.624a.369.369,0,0,1-.59,0l-3.483-4.624H22.734a7.054,7.054,0,0,0-7.052,7.039v6.35Z" transform="translate(0 -124.59)" fill="#3a312a"/>
      <path id="Trazado_821244" data-name="Trazado 821244" d="M49.315,189.3v6.719H16.443V189.3a7.414,7.414,0,0,1,7.421-7.409h5.419l3.594,4.771,3.6-4.771H41.9A7.408,7.408,0,0,1,49.315,189.3Z" transform="translate(-1.131 -125.72)" fill="#eb6e7a"/>
      <path id="Trazado_821245" data-name="Trazado 821245" d="M48.185,195.261H15.312a.369.369,0,0,1-.369-.369v-6.719a7.793,7.793,0,0,1,7.791-7.778h5.419a.37.37,0,0,1,.3.147l3.3,4.379,3.3-4.38a.369.369,0,0,1,.3-.147h5.429a7.79,7.79,0,0,1,7.783,7.778v6.719a.369.369,0,0,1-.369.369Zm-32.5-.739H47.815v-6.35a7.05,7.05,0,0,0-7.044-7.039H35.526l-3.485,4.624a.369.369,0,0,1-.59,0l-3.483-4.624H22.734a7.054,7.054,0,0,0-7.052,7.039v6.35Z" transform="translate(0 -124.59)" fill="#3a312a"/>
      <path id="Trazado_821246" data-name="Trazado 821246" d="M41.589,191.281v4.744h7.377L44.1,181.9H42.816a7.188,7.188,0,0,0-1.227.1v9.281Z" transform="translate(-20.083 -125.723)" fill="#87796f"/>
      <path id="Trazado_821247" data-name="Trazado 821247" d="M47.835,195.265H40.458a.369.369,0,0,1-.369-.369v-4.744a.369.369,0,0,1,.739,0v4.375h6.489L42.7,181.137H41.685a6.931,6.931,0,0,0-.857.052V186.1a.369.369,0,1,1-.739,0v-5.232a.37.37,0,0,1,.306-.364,7.593,7.593,0,0,1,1.289-.109h1.281a.37.37,0,0,1,.349.249l4.869,14.128a.369.369,0,0,1-.349.49Z" transform="translate(-18.952 -124.593)" fill="#3a312a"/>
      <path id="Trazado_821248" data-name="Trazado 821248" d="M102.178,182v14.025H94.8L99.669,181.9h1.288A7.107,7.107,0,0,1,102.178,182Z" transform="translate(-60.187 -125.723)" fill="#87796f"/>
      <path id="Trazado_821249" data-name="Trazado 821249" d="M101.048,195.265H93.669a.369.369,0,0,1-.349-.49l4.869-14.128a.37.37,0,0,1,.349-.249h1.288a7.5,7.5,0,0,1,1.285.109.37.37,0,0,1,.306.364V194.9A.369.369,0,0,1,101.048,195.265Zm-6.861-.739h6.492V181.189a6.894,6.894,0,0,0-.852-.052H98.8Z" transform="translate(-59.056 -124.593)" fill="#3a312a"/>
      <path id="Trazado_821250" data-name="Trazado 821250" d="M77.938,205.664l.858-4.383H74.548l.858,4.383Z" transform="translate(-44.924 -140.332)" fill="#87796f"/>
      <path id="Trazado_821251" data-name="Trazado 821251" d="M76.808,204.9H74.276a.37.37,0,0,1-.363-.3l-.858-4.383a.37.37,0,0,1,.363-.44h4.248a.37.37,0,0,1,.363.44l-.858,4.383A.37.37,0,0,1,76.808,204.9Zm-2.228-.739H76.5l.713-3.644H73.867Z" transform="translate(-43.794 -139.202)" fill="#3a312a"/>
      <path id="Trazado_821252" data-name="Trazado 821252" d="M78.886,224.049H74.723l.815-4.968H78.07Z" transform="translate(-45.056 -153.748)" fill="#87796f"/>
      <path id="Trazado_821253" data-name="Trazado 821253" d="M77.755,223.288H73.592a.369.369,0,0,1-.365-.429l.816-4.968a.369.369,0,0,1,.365-.31H76.94a.369.369,0,0,1,.365.31l.815,4.968a.369.369,0,0,1-.365.429Zm-3.728-.739H77.32l-.694-4.229h-1.9Z" transform="translate(-43.925 -152.618)" fill="#3a312a"/>
      <path id="Trazado_821254" data-name="Trazado 821254" d="M59.5,180.573l-2.641,1.986L51.771,175.8l2.64-1.991Z" transform="translate(-27.757 -119.627)" fill="#eb6e7a"/>
      <path id="Trazado_821255" data-name="Trazado 821255" d="M55.732,181.8a.368.368,0,0,1-.3-.147l-5.092-6.758a.37.37,0,0,1,.073-.517l2.64-1.991a.369.369,0,0,1,.517.073l5.092,6.763a.369.369,0,0,1-.073.517l-2.64,1.986A.364.364,0,0,1,55.732,181.8Zm-4.575-7.055,4.648,6.169,2.05-1.542L53.208,173.2Z" transform="translate(-26.626 -118.497)" fill="#3a312a"/>
      <path id="Trazado_821256" data-name="Trazado 821256" d="M90.9,175.8l-5.092,6.758-2.645-1.986,5.1-6.764Z" transform="translate(-51.418 -119.627)" fill="#eb6e7a"/>
      <path id="Trazado_821257" data-name="Trazado 821257" d="M84.677,181.8a.368.368,0,0,1-.222-.074l-2.645-1.986a.369.369,0,0,1-.073-.518l5.1-6.763a.369.369,0,0,1,.518-.073l2.64,1.991a.369.369,0,0,1,.073.517l-5.092,6.758A.369.369,0,0,1,84.677,181.8ZM82.55,179.37l2.054,1.543,4.648-6.169L87.2,173.2Z" transform="translate(-50.286 -118.497)" fill="#3a312a"/>
      <path id="Trazado_821258" data-name="Trazado 821258" d="M26.789,100.741a2.866,2.866,0,1,1-2.867-2.865A2.866,2.866,0,0,1,26.789,100.741Z" transform="translate(-4.607 -62.397)" fill="#f7e3c7" fill-rule="evenodd"/>
      <path id="Trazado_821259" data-name="Trazado 821259" d="M22.792,102.845a3.234,3.234,0,1,1,3.236-3.235A3.239,3.239,0,0,1,22.792,102.845Zm0-5.73a2.5,2.5,0,1,0,2.5,2.5,2.5,2.5,0,0,0-2.5-2.5Z" transform="translate(-3.477 -61.266)" fill="#3a312a"/>
      <path id="Trazado_821260" data-name="Trazado 821260" d="M128.363,100.741a2.866,2.866,0,1,1-2.867-2.865A2.866,2.866,0,0,1,128.363,100.741Z" transform="translate(-81.163 -62.397)" fill="#f7e3c7" fill-rule="evenodd"/>
      <path id="Trazado_821261" data-name="Trazado 821261" d="M124.367,102.845A3.234,3.234,0,1,1,127.6,99.61,3.239,3.239,0,0,1,124.367,102.845Zm0-5.73a2.5,2.5,0,1,0,2.5,2.5,2.5,2.5,0,0,0-2.5-2.5Z" transform="translate(-80.033 -61.266)" fill="#3a312a"/>
      <path id="Trazado_821262" data-name="Trazado 821262" d="M57.3,65c0,7.014-6.759,17.78-12.707,17.78C38.919,82.779,31.89,72.012,31.89,65A12.707,12.707,0,0,1,57.3,65Z" transform="translate(-12.773 -28.045)" fill="#f7e3c7"/>
      <path id="Trazado_821263" data-name="Trazado 821263" d="M43.466,82.018c-2.723,0-6.008-2.4-8.787-6.42-2.646-3.827-4.29-8.322-4.29-11.731a13.076,13.076,0,0,1,26.153,0c0,3.447-1.6,7.941-4.187,11.729-2.783,4.081-6.022,6.421-8.889,6.421Zm0-30.481A12.348,12.348,0,0,0,31.129,63.868c0,3.266,1.594,7.6,4.159,11.31,2.641,3.82,5.7,6.1,8.179,6.1,2.58,0,5.675-2.28,8.279-6.1,2.5-3.671,4.059-8.006,4.059-11.312A12.348,12.348,0,0,0,43.466,51.537Z" transform="translate(-11.642 -26.914)" fill="#3a312a"/>
      <path id="Trazado_821264" data-name="Trazado 821264" d="M62.711,99.486a1.24,1.24,0,1,1-1.24-1.24A1.24,1.24,0,0,1,62.711,99.486Z" transform="translate(-34.133 -62.676)" fill="#3a312a"/>
      <path id="Trazado_821265" data-name="Trazado 821265" d="M99.14,99.486a1.24,1.24,0,1,1-1.24-1.24A1.24,1.24,0,0,1,99.14,99.486Z" transform="translate(-61.59 -62.676)" fill="#3a312a"/>
      <path id="Trazado_821266" data-name="Trazado 821266" d="M50.8,113.356c0,.882-.957,1.6-2.136,1.6s-2.136-.715-2.136-1.6.957-1.6,2.136-1.6S50.8,112.475,50.8,113.356Z" transform="translate(-23.806 -72.861)" fill="#f59689"/>
      <path id="Trazado_821267" data-name="Trazado 821267" d="M107.357,113.356c0,.882-.956,1.6-2.136,1.6s-2.136-.715-2.136-1.6.957-1.6,2.136-1.6,2.136.715,2.136,1.6Z" transform="translate(-66.431 -72.861)" fill="#f59689"/>
      <path id="Trazado_821268" data-name="Trazado 821268" d="M71.6,138.24a3.96,3.96,0,0,1-3.845-2.395.369.369,0,1,1,.667-.318A3.234,3.234,0,0,0,71.6,137.5a3.319,3.319,0,0,0,3.165-1.945.369.369,0,1,1,.692.259A4.072,4.072,0,0,1,71.6,138.24Z" transform="translate(-39.78 -90.615)" fill="#3a312a"/>
      <path id="Trazado_821269" data-name="Trazado 821269" d="M62.472,128.988a3.209,3.209,0,0,0-2.392.85,3.209,3.209,0,0,0-2.392-.85c-2.268,0-5.255,1.88-5.255,3.776,0,.343.891-.376,1.854-.719a13.1,13.1,0,0,1,3.4-.112,3.209,3.209,0,0,0,2.392-.851,3.209,3.209,0,0,0,2.392.851,13.1,13.1,0,0,1,3.4.112c.963.343,1.854,1.062,1.854.719C67.727,130.868,64.739,128.988,62.472,128.988Z" transform="translate(-28.255 -85.846)" fill="#87796f"/>
      <g id="Grupo_1072534" data-name="Grupo 1072534" transform="translate(18.595 32.453)">
        <path id="Trazado_821270" data-name="Trazado 821270" d="M66.514,132.1a2.128,2.128,0,0,1-.845-.337,8.045,8.045,0,0,0-1.052-.5,8.516,8.516,0,0,0-2.5-.115c-.29.013-.563.024-.781.024a3.925,3.925,0,0,1-2.392-.709,3.925,3.925,0,0,1-2.392.709c-.217,0-.491-.012-.781-.024a8.491,8.491,0,0,0-2.5.115,8.022,8.022,0,0,0-1.052.5c-.523.279-.811.434-1.082.271a.447.447,0,0,1-.214-.4c0-2.135,3.169-4.146,5.624-4.146a3.924,3.924,0,0,1,2.392.709,3.925,3.925,0,0,1,2.392-.709c2.456,0,5.624,2.01,5.624,4.146a.449.449,0,0,1-.45.462Zm-9.958-3.869c-1.861,0-4.386,1.425-4.821,2.956l.144-.076a8.584,8.584,0,0,1,1.152-.54,8.654,8.654,0,0,1,2.776-.157c.282.012.548.024.749.024a2.914,2.914,0,0,0,2.109-.718.369.369,0,0,1,.567,0,2.913,2.913,0,0,0,2.109.718c.2,0,.467-.012.749-.024a8.64,8.64,0,0,1,2.776.157,8.617,8.617,0,0,1,1.152.54l.133.07c-.432-1.357-2.636-2.951-4.809-2.951a2.913,2.913,0,0,0-2.109.718.382.382,0,0,1-.567,0A2.914,2.914,0,0,0,56.556,128.227Z" transform="translate(-45.718 -117.168)" fill="#3a312a"/>
        <path id="Trazado_821271" data-name="Trazado 821271" d="M91.676,94.392a5.022,5.022,0,0,1-5.016-5.016c0-2.44,1.782-3.785,5.016-3.785s5.016,1.344,5.016,3.785A5.022,5.022,0,0,1,91.676,94.392Zm0-8.062c-2.838,0-4.277,1.025-4.277,3.046a4.277,4.277,0,1,0,8.554,0C95.954,87.355,94.514,86.33,91.676,86.33Z" transform="translate(-72.647 -85.591)" fill="#3a312a"/>
        <path id="Trazado_821272" data-name="Trazado 821272" d="M79.961,100.158H77.65a.369.369,0,0,1,0-.739h2.31a.369.369,0,1,1,0,.739Z" transform="translate(-65.578 -96.013)" fill="#3a312a"/>
        <path id="Trazado_821273" data-name="Trazado 821273" d="M32.669,95.114l-.037,0-2.53-.255a.369.369,0,1,1,.074-.735l2.53.255a.37.37,0,0,1-.037.737Z" transform="translate(-29.768 -92.019)" fill="#3a312a"/>
        <path id="Trazado_821274" data-name="Trazado 821274" d="M124.3,95.106a.369.369,0,0,1-.043-.736l2.528-.3a.369.369,0,1,1,.087.734l-2.528.3Z" transform="translate(-100.738 -91.979)" fill="#3a312a"/>
        <path id="Trazado_821275" data-name="Trazado 821275" d="M44.565,94.392a5.022,5.022,0,0,1-5.016-5.016c0-2.44,1.782-3.785,5.016-3.785s5.016,1.344,5.016,3.785A5.022,5.022,0,0,1,44.565,94.392Zm0-8.062c-2.838,0-4.277,1.025-4.277,3.046a4.277,4.277,0,0,0,8.555,0C48.842,87.355,47.4,86.33,44.565,86.33Z" transform="translate(-37.14 -85.591)" fill="#3a312a"/>
      </g>
      <path id="Trazado_821276" data-name="Trazado 821276" d="M43.831,40.917c-7.264,0-13.152,5.627-13.152,12.568a5.347,5.347,0,0,0,.38,1.966c.117.322,2-.707,2.16-.82a6.839,6.839,0,0,0,1.947-2.175,7.421,7.421,0,0,0,.507-1.067c.434-1.142,1.611-4.319,2.807-4.069a27.632,27.632,0,0,0,10.7,0c1.2-.249,2.374,2.928,2.807,4.069a7.4,7.4,0,0,0,.507,1.067,5.736,5.736,0,0,0,3.838,2.973c0-.08.105-.108.181-.135.544-.2.468-1.373.468-1.809,0-6.941-5.889-12.568-13.153-12.568Z" transform="translate(-11.86 -19.467)" fill="#87796f"/>
      <path id="Trazado_821277" data-name="Trazado 821277" d="M30.037,54.747a.53.53,0,0,1-.159-.021.457.457,0,0,1-.3-.28,5.688,5.688,0,0,1-.4-2.091c0-7.134,6.066-12.938,13.522-12.938s13.522,5.8,13.522,12.937V52.5c.009.611.026,1.747-.713,2.015l-.007,0a.377.377,0,0,1-.067.071.368.368,0,0,1-.287.08,6.062,6.062,0,0,1-4.1-3.153,7.786,7.786,0,0,1-.533-1.121l-.027-.072c-1.3-3.434-2.038-3.833-2.359-3.767a28.007,28.007,0,0,1-10.851,0c-.324-.067-1.057.333-2.359,3.766l-.027.072a7.79,7.79,0,0,1-.533,1.121A7.23,7.23,0,0,1,32.3,53.8a7.088,7.088,0,0,1-2.264.944Zm25.536-.429h0ZM42.7,40.156c-7.048,0-12.783,5.472-12.783,12.2a4.792,4.792,0,0,0,.286,1.634,9.53,9.53,0,0,0,1.673-.792,6.488,6.488,0,0,0,1.839-2.057,7.077,7.077,0,0,0,.482-1.013l.027-.072c.85-2.243,1.9-4.5,3.2-4.228a27.257,27.257,0,0,0,10.55,0c1.3-.271,2.35,1.985,3.2,4.228l.027.072a7.061,7.061,0,0,0,.482,1.014A5.452,5.452,0,0,0,55.07,53.9a.855.855,0,0,1,.172-.078c.108-.039.259-.253.243-1.315v-.152C55.483,45.628,49.749,40.156,42.7,40.156Z" transform="translate(-10.73 -18.337)" fill="#3a312a"/>
      <path id="Trazado_821278" data-name="Trazado 821278" d="M52.888,16.588A32.779,32.779,0,0,0,46.4,20c-2.039,1.466-3.483,2.881-3.483,4.343,0,3.6,4.466,6.527,9.975,6.527s9.975-2.922,9.975-6.527S53.012,16.588,52.888,16.588Z" transform="translate(-21.081 -1.131)" fill="#87796f"/>
      <path id="Trazado_821279" data-name="Trazado 821279" d="M51.758,30.113c-5.7,0-10.345-3.094-10.345-6.9,0-1.422,1.088-2.81,3.637-4.643a30.593,30.593,0,0,1,6.708-3.485,31.828,31.828,0,0,1,5.224,2.581c3.4,2.041,5.121,3.908,5.121,5.548C62.1,27.019,57.462,30.113,51.758,30.113Zm-.013-14.27a34.349,34.349,0,0,0-6.264,3.331c-2.3,1.655-3.329,2.9-3.329,4.043,0,3.4,4.309,6.158,9.606,6.158s9.606-2.762,9.606-6.158C61.364,20.154,52.914,16.28,51.745,15.843Z" transform="translate(-19.95 0)" fill="#3a312a"/>
      <path id="Trazado_821280" data-name="Trazado 821280" d="M131.712,190.994v6.35h-3.695v-6.35a7,7,0,0,0-1.759-4.648v-2.209A7.051,7.051,0,0,1,131.712,190.994Z" transform="translate(-83.898 -127.411)" fill="#d04e5d"/>
      <path id="Trazado_821281" data-name="Trazado 821281" d="M117.026,183.45v1.618a7.018,7.018,0,0,0-2.037-1.207l.16-.463h1.025A6.853,6.853,0,0,1,117.026,183.45Z" transform="translate(-75.404 -126.854)" fill="#695b51"/>
    </g>
  </g>
</svg>
