<svg xmlns="http://www.w3.org/2000/svg" width="90" height="90" viewBox="0 0 90 90">
  <g id="Grupo_1075594" data-name="Grupo 1075594" transform="translate(-282 -2096)">
    <path id="Trazado_827303" data-name="Trazado 827303" d="M45,0A45,45,0,1,1,0,45,45,45,0,0,1,45,0Z" transform="translate(282 2096)" fill="#f7cd00"/>
    <g id="repartido" transform="translate(298.418 2114.305)">
      <path id="Trazado_823841" data-name="Trazado 823841" d="M19.606,20.951H8.845A1.345,1.345,0,0,1,7.5,19.606V8.845A1.345,1.345,0,0,1,8.845,7.5H19.606a1.345,1.345,0,0,1,1.345,1.345V19.606A1.345,1.345,0,0,1,19.606,20.951Z" transform="translate(-6.659 -6.659)" fill="#ff2c5c"/>
      <path id="Trazado_823842" data-name="Trazado 823842" d="M88.863,7.5H85.5a1.345,1.345,0,0,1,1.345,1.345V19.606A1.345,1.345,0,0,1,85.5,20.951h3.363a1.345,1.345,0,0,0,1.345-1.345V8.845A1.345,1.345,0,0,0,88.863,7.5Z" transform="translate(-75.916 -6.659)" fill="#e62753"/>
      <path id="Trazado_823843" data-name="Trazado 823843" d="M37.5,43.777V37.948a.448.448,0,0,1,.448-.448h5.829a.448.448,0,0,1,.448.448v5.829a.448.448,0,0,1-.448.448H37.948A.448.448,0,0,1,37.5,43.777Z" transform="translate(-33.297 -33.297)" fill="#685c79"/>
      <path id="Trazado_823844" data-name="Trazado 823844" d="M190.59,192.383h-14.8A1.793,1.793,0,0,1,174,190.59v-14.8A1.793,1.793,0,0,1,175.793,174h14.8a1.793,1.793,0,0,1,1.793,1.793v14.8A1.793,1.793,0,0,1,190.59,192.383Z" transform="translate(-154.496 -154.496)" fill="#ade7ff"/>
      <path id="Trazado_823845" data-name="Trazado 823845" d="M295.37,174h-3.363a1.793,1.793,0,0,1,1.793,1.793v14.8a1.793,1.793,0,0,1-1.793,1.793h3.363a1.793,1.793,0,0,0,1.793-1.793v-14.8A1.793,1.793,0,0,0,295.37,174Z" transform="translate(-259.276 -154.496)" fill="#82d2f5"/>
      <path id="Trazado_823846" data-name="Trazado 823846" d="M204,215.209V204.448a.448.448,0,0,1,.448-.448h10.761a.448.448,0,0,1,.448.448v10.761a.448.448,0,0,1-.448.448H204.448A.448.448,0,0,1,204,215.209Z" transform="translate(-181.133 -181.133)" fill="#ff2c5c"/>
      <circle id="Elipse_10525" data-name="Elipse 10525" cx="1.669" cy="1.669" r="1.669" transform="translate(24.523 11.171)" fill="#ff2c5c"/>
      <circle id="Elipse_10526" data-name="Elipse 10526" cx="1.669" cy="1.669" r="1.669" transform="translate(30.364 42.882)" fill="#ff2c5c"/>
      <circle id="Elipse_10527" data-name="Elipse 10527" cx="1.681" cy="1.681" r="1.681" transform="translate(43.43 23.315)" fill="#ff2c5c"/>
      <circle id="Elipse_10528" data-name="Elipse 10528" cx="1.669" cy="1.669" r="1.669" transform="translate(13.675 30.364)" fill="#ff2c5c"/>
      <path id="Trazado_823847" data-name="Trazado 823847" d="M19.606,397.951H8.845A1.345,1.345,0,0,1,7.5,396.606V385.845A1.345,1.345,0,0,1,8.845,384.5H19.606a1.345,1.345,0,0,1,1.345,1.345v10.761A1.345,1.345,0,0,1,19.606,397.951Z" transform="translate(-6.659 -341.401)" fill="#4fb1f5"/>
      <path id="Trazado_823848" data-name="Trazado 823848" d="M88.863,384.5H85.5a1.345,1.345,0,0,1,1.345,1.345v10.761a1.345,1.345,0,0,1-1.345,1.345h3.363a1.345,1.345,0,0,0,1.345-1.345V385.845A1.345,1.345,0,0,0,88.863,384.5Z" transform="translate(-75.916 -341.401)" fill="#46a4e6"/>
      <path id="Trazado_823849" data-name="Trazado 823849" d="M37.5,420.777v-5.829a.448.448,0,0,1,.448-.448h5.829a.448.448,0,0,1,.448.448v5.829a.448.448,0,0,1-.448.448H37.948A.448.448,0,0,1,37.5,420.777Z" transform="translate(-33.297 -368.038)" fill="#ff2c5c"/>
      <path id="Trazado_823850" data-name="Trazado 823850" d="M396.606,20.951H385.845a1.345,1.345,0,0,1-1.345-1.345V8.845A1.345,1.345,0,0,1,385.845,7.5h10.761a1.345,1.345,0,0,1,1.345,1.345V19.606A1.345,1.345,0,0,1,396.606,20.951Z" transform="translate(-341.401 -6.659)" fill="#ffd659"/>
      <path id="Trazado_823851" data-name="Trazado 823851" d="M465.863,7.5H462.5a1.345,1.345,0,0,1,1.345,1.345V19.606a1.345,1.345,0,0,1-1.345,1.345h3.363a1.345,1.345,0,0,0,1.345-1.345V8.845A1.345,1.345,0,0,0,465.863,7.5Z" transform="translate(-410.658 -6.659)" fill="#ffbd54"/>
      <path id="Trazado_823852" data-name="Trazado 823852" d="M414.5,43.777V37.948a.448.448,0,0,1,.448-.448h5.829a.448.448,0,0,1,.448.448v5.829a.448.448,0,0,1-.448.448h-5.829A.448.448,0,0,1,414.5,43.777Z" transform="translate(-368.038 -33.297)" fill="#ff2c5c"/>
      <path id="Trazado_823853" data-name="Trazado 823853" d="M396.606,397.951H385.845a1.345,1.345,0,0,1-1.345-1.345V385.845a1.345,1.345,0,0,1,1.345-1.345h10.761a1.345,1.345,0,0,1,1.345,1.345v10.761A1.345,1.345,0,0,1,396.606,397.951Z" transform="translate(-341.401 -341.401)" fill="#685c79"/>
      <path id="Trazado_823854" data-name="Trazado 823854" d="M465.863,384.5H462.5a1.345,1.345,0,0,1,1.345,1.345v10.761a1.345,1.345,0,0,1-1.345,1.345h3.363a1.345,1.345,0,0,0,1.345-1.345V385.845A1.345,1.345,0,0,0,465.863,384.5Z" transform="translate(-410.658 -341.401)" fill="#594f69"/>
      <path id="Trazado_823855" data-name="Trazado 823855" d="M414.5,420.777v-5.829a.448.448,0,0,1,.448-.448h5.829a.448.448,0,0,1,.448.448v5.829a.448.448,0,0,1-.448.448h-5.829A.448.448,0,0,1,414.5,420.777Z" transform="translate(-368.038 -368.038)" fill="#ff2c5c"/>
      <g id="Grupo_1075593" data-name="Grupo 1075593">
        <path id="Trazado_823856" data-name="Trazado 823856" d="M205.916,197.341a.841.841,0,0,0,.841.841h1.4v9.976h-9.976v-9.976h4.988a.841.841,0,0,0,0-1.681h-5.38a1.291,1.291,0,0,0-1.289,1.289V208.55a1.291,1.291,0,0,0,1.289,1.289H208.55a1.29,1.29,0,0,0,1.289-1.289V197.789a1.291,1.291,0,0,0-1.289-1.289h-1.793A.841.841,0,0,0,205.916,197.341Z" transform="translate(-174.474 -174.474)"/>
        <path id="Trazado_823857" data-name="Trazado 823857" d="M31.289,30A1.291,1.291,0,0,0,30,31.289v5.829a1.291,1.291,0,0,0,1.289,1.289h5.829a1.291,1.291,0,0,0,1.289-1.289V31.289A1.291,1.291,0,0,0,37.118,30Zm5.436,6.725H31.681V31.681h5.044Z" transform="translate(-26.637 -26.637)"/>
        <path id="Trazado_823858" data-name="Trazado 823858" d="M37.118,407H31.289A1.291,1.291,0,0,0,30,408.289v5.829a1.291,1.291,0,0,0,1.289,1.289h5.829a1.291,1.291,0,0,0,1.289-1.289v-5.829A1.291,1.291,0,0,0,37.118,407Zm-.392,6.725H31.681v-5.044h5.044Z" transform="translate(-26.637 -361.379)"/>
        <path id="Trazado_823859" data-name="Trazado 823859" d="M44.444,15.132H55.2a2.188,2.188,0,0,0,2.186-2.186V2.186A2.188,2.188,0,0,0,55.2,0H44.444a2.188,2.188,0,0,0-2.186,2.186v4.54H32.17a.841.841,0,0,0-.841.841v11.1h-4.6V15.38a2.522,2.522,0,1,0-1.681,0v3.283H21.3A2.636,2.636,0,0,0,18.663,21.3v4.877H8.407V15.132h4.54a2.188,2.188,0,0,0,2.186-2.186V10.761a.841.841,0,1,0-1.681,0v2.186a.505.505,0,0,1-.5.5H2.186a.505.505,0,0,1-.5-.5V2.186a.505.505,0,0,1,.5-.5H12.947a.505.505,0,0,1,.5.5V7.174a.841.841,0,1,0,1.681,0V2.186A2.188,2.188,0,0,0,12.947,0H2.186A2.188,2.188,0,0,0,0,2.186V12.947a2.188,2.188,0,0,0,2.186,2.186h4.54V27.014a.841.841,0,0,0,.841.841h11.1v3.587H17.51a2.522,2.522,0,1,0,0,1.681h1.153v2.971A2.636,2.636,0,0,0,21.3,38.727h3.756v9.986h-9.92V44.444a2.188,2.188,0,0,0-2.186-2.186H2.186A2.188,2.188,0,0,0,0,44.444V55.2a2.188,2.188,0,0,0,2.186,2.186H12.947A2.188,2.188,0,0,0,15.132,55.2V50.394H25.893a.841.841,0,0,0,.841-.841V38.727h4.6v3.732a2.522,2.522,0,1,0,1.681,0V38.727h3.083a2.636,2.636,0,0,0,2.633-2.633V30.371H48.985V42.258H44.444a2.188,2.188,0,0,0-2.186,2.186V46.63a.841.841,0,0,0,1.681,0V44.444a.505.505,0,0,1,.5-.5H55.2a.505.505,0,0,1,.5.5V55.2a.505.505,0,0,1-.5.5H44.444a.505.505,0,0,1-.5-.5v-5a.841.841,0,0,0-1.681,0v5a2.188,2.188,0,0,0,2.186,2.186H55.2A2.188,2.188,0,0,0,57.391,55.2V44.444A2.188,2.188,0,0,0,55.2,42.258H50.666V29.531a.841.841,0,0,0-.841-.841h-11.1V25.837h4.006a2.522,2.522,0,1,0,0-1.681H38.727V21.3a2.636,2.636,0,0,0-2.633-2.633H33.011V8.407h9.248v4.54A2.188,2.188,0,0,0,44.444,15.132Zm-18.551-2.97a.841.841,0,1,1-.841.841A.842.842,0,0,1,25.893,12.162ZM15.132,33.123a.841.841,0,1,1,.841-.841A.842.842,0,0,1,15.132,33.123ZM13.451,55.2a.505.505,0,0,1-.5.5H2.186a.505.505,0,0,1-.5-.5V44.444a.505.505,0,0,1,.5-.5H12.947a.505.505,0,0,1,.5.5ZM32.17,45.677a.841.841,0,1,1,.841-.841A.842.842,0,0,1,32.17,45.677ZM45.111,24.156A.841.841,0,1,1,44.27,25,.842.842,0,0,1,45.111,24.156ZM37.046,21.3v14.8a.953.953,0,0,1-.952.952H21.3a.953.953,0,0,1-.952-.952V21.3a.953.953,0,0,1,.952-.952h14.8A.953.953,0,0,1,37.046,21.3Zm7.4-19.615H55.2a.505.505,0,0,1,.5.5V12.947a.505.505,0,0,1-.5.5H44.444a.505.505,0,0,1-.5-.5V2.186A.505.505,0,0,1,44.444,1.681Z"/>
        <path id="Trazado_823860" data-name="Trazado 823860" d="M408.289,38.407h5.829a1.291,1.291,0,0,0,1.289-1.289V31.289A1.291,1.291,0,0,0,414.118,30h-5.829A1.291,1.291,0,0,0,407,31.289v5.829A1.291,1.291,0,0,0,408.289,38.407Zm.392-6.725h5.044v5.044h-5.044Z" transform="translate(-361.379 -26.637)"/>
        <path id="Trazado_823861" data-name="Trazado 823861" d="M414.118,415.407a1.291,1.291,0,0,0,1.289-1.289v-5.829A1.291,1.291,0,0,0,414.118,407h-5.829A1.291,1.291,0,0,0,407,408.289v5.829a1.291,1.291,0,0,0,1.289,1.289Zm-5.436-6.725h5.044v5.044h-5.044Z" transform="translate(-361.379 -361.379)"/>
      </g>
    </g>
  </g>
</svg>
