<svg xmlns="http://www.w3.org/2000/svg" width="1240" height="568" viewBox="0 0 1240 568">
  <g id="Grupo_1080915" data-name="Grupo 1080915" transform="translate(-181 -5172)">
    <rect id="Rectángulo_356256" data-name="Rectángulo 356256" width="1240" height="568" transform="translate(181 5172)" fill="#f6f6f6"/>
    <g id="Grupo_1076979" data-name="Grupo 1076979" transform="translate(0.529 -3.546)">
      <path id="Trazado_824931" data-name="Trazado 824931" d="M-4037.28-6174l877.756-214.152" transform="translate(4438.75 11700)" fill="none" stroke="#107dd3" stroke-width="3"/>
      <g id="Grupo_1076777" data-name="Grupo 1076777" transform="translate(-1)">
        <path id="Trazado_828898" data-name="Trazado 828898" d="M9.026-5.1H4.052V0H.967V-12.8H9.527v2.382H4.052v2.944H9.026ZM13.8,0H10.828V-13.5H13.8Zm7.488-1.028a3.054,3.054,0,0,1-2.54,1.2,3,3,0,0,1-2.369-.91,3.826,3.826,0,0,1-.8-2.615V-9.51h2.962v6.179a1.065,1.065,0,0,0,1.187,1.222,1.548,1.548,0,0,0,1.45-.729V-9.51h2.979V0H21.375Zm8.508-1.081a1.317,1.317,0,0,0,.967-.338,1.241,1.241,0,0,0,.334-.945h2.777A3.288,3.288,0,0,1,32.752-.826a4.168,4.168,0,0,1-2.887,1,4.22,4.22,0,0,1-3.27-1.3,5.125,5.125,0,0,1-1.2-3.6v-.123A5.792,5.792,0,0,1,25.932-7.4a3.872,3.872,0,0,1,1.534-1.7,4.573,4.573,0,0,1,2.373-.593,4.116,4.116,0,0,1,2.944,1.028,3.647,3.647,0,0,1,1.09,2.786H31.1A1.626,1.626,0,0,0,30.735-7a1.244,1.244,0,0,0-.967-.4q-1.151,0-1.345,1.468a10.357,10.357,0,0,0-.062,1.283,4.068,4.068,0,0,0,.343,1.986A1.187,1.187,0,0,0,29.795-2.109Zm8.78-9.765V-9.51H40.14v2.057H38.575V-3.1a1.111,1.111,0,0,0,.193.747,1.037,1.037,0,0,0,.765.211,4.345,4.345,0,0,0,.738-.053V-.079A5.466,5.466,0,0,1,38.6.176a3.1,3.1,0,0,1-2.259-.721,2.954,2.954,0,0,1-.729-2.188v-4.72H34.4V-9.51h1.213v-2.364ZM46.969-1.028a3.054,3.054,0,0,1-2.54,1.2,3,3,0,0,1-2.369-.91,3.826,3.826,0,0,1-.8-2.615V-9.51h2.962v6.179A1.065,1.065,0,0,0,45.4-2.109a1.548,1.548,0,0,0,1.45-.729V-9.51h2.979V0H47.057ZM56.813,0a3.344,3.344,0,0,1-.281-.853A2.754,2.754,0,0,1,54.246.176a3.374,3.374,0,0,1-2.285-.813,2.588,2.588,0,0,1-.94-2.043,2.66,2.66,0,0,1,1.143-2.338,5.821,5.821,0,0,1,3.322-.791H56.4v-.5q0-1.316-1.134-1.316a.927.927,0,0,0-1.055,1.042H51.249a2.655,2.655,0,0,1,1.173-2.239,4.931,4.931,0,0,1,2.993-.86,4.323,4.323,0,0,1,2.874.888A3.086,3.086,0,0,1,59.37-6.363v4.21a4.311,4.311,0,0,0,.4,2V0ZM54.958-1.934a1.652,1.652,0,0,0,.918-.237,1.487,1.487,0,0,0,.523-.536V-4.228h-.861q-1.547,0-1.547,1.389a.848.848,0,0,0,.272.655A.986.986,0,0,0,54.958-1.934ZM65.03-2.109A1.317,1.317,0,0,0,66-2.448a1.241,1.241,0,0,0,.334-.945h2.777A3.288,3.288,0,0,1,67.988-.826a4.168,4.168,0,0,1-2.887,1,4.22,4.22,0,0,1-3.27-1.3,5.125,5.125,0,0,1-1.2-3.6v-.123A5.792,5.792,0,0,1,61.167-7.4a3.872,3.872,0,0,1,1.534-1.7,4.573,4.573,0,0,1,2.373-.593,4.116,4.116,0,0,1,2.944,1.028,3.647,3.647,0,0,1,1.09,2.786H66.331A1.626,1.626,0,0,0,65.971-7,1.244,1.244,0,0,0,65-7.4q-1.151,0-1.345,1.468A10.357,10.357,0,0,0,63.6-4.649a4.068,4.068,0,0,0,.343,1.986A1.187,1.187,0,0,0,65.03-2.109ZM73.485,0H70.515V-9.51h2.971ZM70.339-11.971a1.334,1.334,0,0,1,.457-1.043,1.718,1.718,0,0,1,1.187-.407,1.718,1.718,0,0,1,1.187.407,1.334,1.334,0,0,1,.457,1.043,1.334,1.334,0,0,1-.457,1.043,1.718,1.718,0,0,1-1.187.407,1.718,1.718,0,0,1-1.187-.407A1.334,1.334,0,0,1,70.339-11.971Zm4.6,7.128a5.613,5.613,0,0,1,.554-2.536A3.96,3.96,0,0,1,77.08-9.088a4.791,4.791,0,0,1,2.435-.6,4.373,4.373,0,0,1,3.366,1.323,5.076,5.076,0,0,1,1.23,3.6v.105a4.925,4.925,0,0,1-1.235,3.529A4.384,4.384,0,0,1,79.532.176a4.434,4.434,0,0,1-3.261-1.217,4.761,4.761,0,0,1-1.327-3.3Zm2.962.185a3.538,3.538,0,0,0,.413,1.934,1.376,1.376,0,0,0,1.222.615q1.582,0,1.617-2.435v-.3q0-2.558-1.635-2.558-1.485,0-1.608,2.206ZM88.137-9.51l.1,1.116a3.225,3.225,0,0,1,2.716-1.292,2.713,2.713,0,0,1,2.219.888,4.226,4.226,0,0,1,.76,2.672V0H90.958V-6a1.6,1.6,0,0,0-.29-1.059A1.342,1.342,0,0,0,89.613-7.4a1.413,1.413,0,0,0-1.292.686V0H85.359V-9.51ZM100.169.176a4.889,4.889,0,0,1-3.542-1.305,4.507,4.507,0,0,1-1.354-3.4v-.246a5.84,5.84,0,0,1,.541-2.575,3.955,3.955,0,0,1,1.578-1.727,4.763,4.763,0,0,1,2.461-.611,4.117,4.117,0,0,1,3.164,1.244,4.887,4.887,0,0,1,1.16,3.467v1.151H98.288a2.135,2.135,0,0,0,.694,1.257,2.066,2.066,0,0,0,1.389.457,2.662,2.662,0,0,0,2.2-.984l1.354,1.6a3.784,3.784,0,0,1-1.569,1.217A5.3,5.3,0,0,1,100.169.176ZM99.835-7.4q-1.3,0-1.547,1.723h2.988v-.229a1.467,1.467,0,0,0-.36-1.1A1.434,1.434,0,0,0,99.835-7.4Zm10.512,4.729a.684.684,0,0,0-.4-.606,6.016,6.016,0,0,0-1.5-.475A6.853,6.853,0,0,1,106.62-4.4a3.062,3.062,0,0,1-1.1-.971,2.319,2.319,0,0,1-.378-1.31,2.628,2.628,0,0,1,1.081-2.158,4.453,4.453,0,0,1,2.83-.848,4.934,4.934,0,0,1,3.023.853,2.666,2.666,0,0,1,1.143,2.241H110.25q0-1.143-1.2-1.143a1.194,1.194,0,0,0-.782.259.8.8,0,0,0-.316.646.737.737,0,0,0,.387.642,3.654,3.654,0,0,0,1.235.4,10.671,10.671,0,0,1,1.49.378A2.706,2.706,0,0,1,113.2-2.76a2.491,2.491,0,0,1-1.156,2.118,5.068,5.068,0,0,1-2.993.817,5.172,5.172,0,0,1-2.18-.439,3.645,3.645,0,0,1-1.494-1.2,2.707,2.707,0,0,1-.536-1.591h2.769a1.145,1.145,0,0,0,.439.962,1.808,1.808,0,0,0,1.081.3,1.422,1.422,0,0,0,.91-.246A.787.787,0,0,0,110.347-2.672Zm8.35-2.153a5.809,5.809,0,0,1,.976-3.56,3.211,3.211,0,0,1,2.725-1.3,2.731,2.731,0,0,1,2.145,1V-13.5h2.971V0h-2.663L124.7-1.02a2.8,2.8,0,0,1-2.32,1.2,3.205,3.205,0,0,1-2.689-1.3A5.993,5.993,0,0,1,118.7-4.825Zm2.962.185q0,2.531,1.477,2.531a1.458,1.458,0,0,0,1.406-.826V-6.557a1.419,1.419,0,0,0-1.389-.844q-1.371,0-1.485,2.215ZM133.8.176a4.889,4.889,0,0,1-3.542-1.305,4.507,4.507,0,0,1-1.354-3.4v-.246a5.84,5.84,0,0,1,.541-2.575,3.955,3.955,0,0,1,1.578-1.727,4.763,4.763,0,0,1,2.461-.611,4.117,4.117,0,0,1,3.164,1.244,4.887,4.887,0,0,1,1.16,3.467v1.151h-5.889a2.135,2.135,0,0,0,.694,1.257A2.066,2.066,0,0,0,134-2.109a2.662,2.662,0,0,0,2.2-.984l1.354,1.6A3.784,3.784,0,0,1,135.98-.277,5.3,5.3,0,0,1,133.8.176ZM133.462-7.4q-1.3,0-1.547,1.723H134.9v-.229a1.467,1.467,0,0,0-.36-1.1A1.434,1.434,0,0,0,133.462-7.4ZM142.119,0h-2.971V-13.5h2.971ZM153.4-2.672a.684.684,0,0,0-.4-.606,6.016,6.016,0,0,0-1.5-.475,6.853,6.853,0,0,1-1.828-.646,3.062,3.062,0,0,1-1.1-.971,2.319,2.319,0,0,1-.378-1.31,2.628,2.628,0,0,1,1.081-2.158,4.453,4.453,0,0,1,2.83-.848,4.934,4.934,0,0,1,3.023.853,2.666,2.666,0,0,1,1.143,2.241h-2.971q0-1.143-1.2-1.143a1.194,1.194,0,0,0-.782.259.8.8,0,0,0-.316.646.737.737,0,0,0,.387.642,3.654,3.654,0,0,0,1.235.4,10.671,10.671,0,0,1,1.49.378,2.706,2.706,0,0,1,2.145,2.646A2.491,2.491,0,0,1,155.1-.642a5.068,5.068,0,0,1-2.993.817,5.172,5.172,0,0,1-2.18-.439,3.645,3.645,0,0,1-1.494-1.2A2.707,2.707,0,0,1,147.9-3.05h2.769a1.145,1.145,0,0,0,.439.962,1.808,1.808,0,0,0,1.081.3,1.422,1.422,0,0,0,.91-.246A.787.787,0,0,0,153.4-2.672ZM162.246.176A4.889,4.889,0,0,1,158.7-1.129a4.507,4.507,0,0,1-1.354-3.4v-.246a5.84,5.84,0,0,1,.541-2.575,3.955,3.955,0,0,1,1.578-1.727,4.763,4.763,0,0,1,2.461-.611,4.117,4.117,0,0,1,3.164,1.244,4.887,4.887,0,0,1,1.16,3.467v1.151h-5.889a2.135,2.135,0,0,0,.694,1.257,2.066,2.066,0,0,0,1.389.457,2.662,2.662,0,0,0,2.2-.984L166-1.494A3.784,3.784,0,0,1,164.43-.277,5.3,5.3,0,0,1,162.246.176ZM161.912-7.4q-1.3,0-1.547,1.723h2.988v-.229a1.467,1.467,0,0,0-.36-1.1A1.434,1.434,0,0,0,161.912-7.4Zm11.285.571-.976-.07a1.752,1.752,0,0,0-1.793.879V0h-2.962V-9.51h2.777l.1,1.222a2.294,2.294,0,0,1,2.083-1.4,2.888,2.888,0,0,1,.826.105Zm5.019,3.3,1.5-5.985h3.12L179.736,0h-3.023l-3.1-9.51h3.129ZM186.847,0h-2.971V-9.51h2.971ZM183.7-11.971a1.334,1.334,0,0,1,.457-1.043,1.718,1.718,0,0,1,1.187-.407,1.718,1.718,0,0,1,1.187.407,1.334,1.334,0,0,1,.457,1.043,1.334,1.334,0,0,1-.457,1.043,1.718,1.718,0,0,1-1.187.407,1.718,1.718,0,0,1-1.187-.407A1.334,1.334,0,0,1,183.7-11.971Zm8.991,9.861a1.317,1.317,0,0,0,.967-.338,1.241,1.241,0,0,0,.334-.945h2.777a3.288,3.288,0,0,1-1.121,2.566,4.168,4.168,0,0,1-2.887,1,4.22,4.22,0,0,1-3.27-1.3,5.125,5.125,0,0,1-1.2-3.6v-.123a5.792,5.792,0,0,1,.532-2.544,3.872,3.872,0,0,1,1.534-1.7,4.573,4.573,0,0,1,2.373-.593,4.116,4.116,0,0,1,2.944,1.028,3.647,3.647,0,0,1,1.09,2.786h-2.777A1.626,1.626,0,0,0,193.632-7a1.244,1.244,0,0,0-.967-.4q-1.151,0-1.345,1.468a10.357,10.357,0,0,0-.062,1.283,4.068,4.068,0,0,0,.343,1.986A1.187,1.187,0,0,0,192.691-2.109ZM201.146,0h-2.971V-9.51h2.971ZM198-11.971a1.334,1.334,0,0,1,.457-1.043,1.718,1.718,0,0,1,1.187-.407,1.718,1.718,0,0,1,1.187.407,1.334,1.334,0,0,1,.457,1.043,1.334,1.334,0,0,1-.457,1.043,1.718,1.718,0,0,1-1.187.407,1.718,1.718,0,0,1-1.187-.407A1.334,1.334,0,0,1,198-11.971Zm4.6,7.128a5.613,5.613,0,0,1,.554-2.536,3.96,3.96,0,0,1,1.591-1.709,4.791,4.791,0,0,1,2.435-.6,4.373,4.373,0,0,1,3.366,1.323,5.076,5.076,0,0,1,1.23,3.6v.105a4.925,4.925,0,0,1-1.235,3.529A4.384,4.384,0,0,1,207.193.176a4.434,4.434,0,0,1-3.261-1.217,4.761,4.761,0,0,1-1.327-3.3Zm2.962.185a3.538,3.538,0,0,0,.413,1.934,1.376,1.376,0,0,0,1.222.615q1.582,0,1.617-2.435v-.3q0-2.558-1.635-2.558-1.485,0-1.608,2.206Zm11.628-.167a5.809,5.809,0,0,1,.976-3.56,3.211,3.211,0,0,1,2.725-1.3,2.731,2.731,0,0,1,2.145,1V-13.5H226V0h-2.663l-.149-1.02a2.8,2.8,0,0,1-2.32,1.2,3.205,3.205,0,0,1-2.689-1.3A5.993,5.993,0,0,1,217.187-4.825Zm2.962.185q0,2.531,1.477,2.531a1.458,1.458,0,0,0,1.406-.826V-6.557a1.419,1.419,0,0,0-1.389-.844q-1.371,0-1.485,2.215ZM232.286.176a4.889,4.889,0,0,1-3.542-1.305,4.507,4.507,0,0,1-1.354-3.4v-.246a5.84,5.84,0,0,1,.541-2.575,3.955,3.955,0,0,1,1.578-1.727,4.763,4.763,0,0,1,2.461-.611,4.117,4.117,0,0,1,3.164,1.244,4.887,4.887,0,0,1,1.16,3.467v1.151h-5.889a2.135,2.135,0,0,0,.694,1.257,2.066,2.066,0,0,0,1.389.457,2.662,2.662,0,0,0,2.2-.984l1.354,1.6A3.784,3.784,0,0,1,234.47-.277,5.3,5.3,0,0,1,232.286.176ZM231.952-7.4q-1.3,0-1.547,1.723h2.988v-.229a1.467,1.467,0,0,0-.36-1.1A1.434,1.434,0,0,0,231.952-7.4ZM245.092,0h-2.971V-9.51h2.971Zm-3.146-11.971a1.334,1.334,0,0,1,.457-1.043,1.718,1.718,0,0,1,1.187-.407,1.718,1.718,0,0,1,1.187.407,1.334,1.334,0,0,1,.457,1.043,1.334,1.334,0,0,1-.457,1.043,1.718,1.718,0,0,1-1.187.407,1.718,1.718,0,0,1-1.187-.407A1.334,1.334,0,0,1,241.945-11.971Zm7.69,2.461.1,1.116a3.225,3.225,0,0,1,2.716-1.292,2.713,2.713,0,0,1,2.219.888,4.226,4.226,0,0,1,.76,2.672V0h-2.971V-6a1.6,1.6,0,0,0-.29-1.059,1.342,1.342,0,0,0-1.055-.338,1.413,1.413,0,0,0-1.292.686V0h-2.962V-9.51Zm10.881-2.364V-9.51h1.564v2.057h-1.564V-3.1a1.111,1.111,0,0,0,.193.747,1.037,1.037,0,0,0,.765.211,4.345,4.345,0,0,0,.738-.053V-.079a5.466,5.466,0,0,1-1.67.255,3.1,3.1,0,0,1-2.259-.721,2.954,2.954,0,0,1-.729-2.188v-4.72h-1.213V-9.51h1.213v-2.364Zm7.33,12.05A4.889,4.889,0,0,1,264.3-1.129a4.507,4.507,0,0,1-1.354-3.4v-.246a5.84,5.84,0,0,1,.541-2.575,3.955,3.955,0,0,1,1.578-1.727,4.763,4.763,0,0,1,2.461-.611,4.117,4.117,0,0,1,3.164,1.244,4.887,4.887,0,0,1,1.16,3.467v1.151h-5.889a2.135,2.135,0,0,0,.694,1.257,2.066,2.066,0,0,0,1.389.457,2.662,2.662,0,0,0,2.2-.984l1.354,1.6a3.784,3.784,0,0,1-1.569,1.217A5.3,5.3,0,0,1,267.847.176ZM267.513-7.4q-1.3,0-1.547,1.723h2.988v-.229a1.467,1.467,0,0,0-.36-1.1A1.434,1.434,0,0,0,267.513-7.4Zm11.285.571-.976-.07a1.752,1.752,0,0,0-1.793.879V0h-2.962V-9.51h2.777l.1,1.222a2.294,2.294,0,0,1,2.083-1.4,2.888,2.888,0,0,1,.826.105Zm3.788-2.681.1,1.116A3.225,3.225,0,0,1,285.4-9.686a2.713,2.713,0,0,1,2.219.888,4.226,4.226,0,0,1,.76,2.672V0h-2.971V-6a1.6,1.6,0,0,0-.29-1.059,1.342,1.342,0,0,0-1.055-.338,1.413,1.413,0,0,0-1.292.686V0h-2.962V-9.51ZM294.618.176a4.889,4.889,0,0,1-3.542-1.305,4.507,4.507,0,0,1-1.354-3.4v-.246a5.84,5.84,0,0,1,.541-2.575,3.955,3.955,0,0,1,1.578-1.727,4.763,4.763,0,0,1,2.461-.611,4.117,4.117,0,0,1,3.164,1.244,4.887,4.887,0,0,1,1.16,3.467v1.151h-5.889a2.135,2.135,0,0,0,.694,1.257,2.066,2.066,0,0,0,1.389.457,2.662,2.662,0,0,0,2.2-.984l1.354,1.6A3.784,3.784,0,0,1,296.8-.277,5.3,5.3,0,0,1,294.618.176ZM294.284-7.4q-1.3,0-1.547,1.723h2.988v-.229a1.467,1.467,0,0,0-.36-1.1A1.434,1.434,0,0,0,294.284-7.4Zm8.982-4.474V-9.51h1.564v2.057h-1.564V-3.1a1.111,1.111,0,0,0,.193.747,1.037,1.037,0,0,0,.765.211,4.345,4.345,0,0,0,.738-.053V-.079a5.466,5.466,0,0,1-1.67.255,3.1,3.1,0,0,1-2.259-.721,2.954,2.954,0,0,1-.729-2.188v-4.72h-1.213V-9.51H300.3v-2.364Z" transform="translate(647.471 5222.546)" fill="#12263f"/>
        <path id="Trazado_828899" data-name="Trazado 828899" d="M8.023-4.531H3.6V0H.859V-11.375H8.469v2.117H3.6v2.617H8.023ZM12.266,0H9.625V-12h2.641Zm6.656-.914A2.714,2.714,0,0,1,16.664.156a2.662,2.662,0,0,1-2.105-.809,3.4,3.4,0,0,1-.715-2.324V-8.453h2.633v5.492a.946.946,0,0,0,1.055,1.086,1.376,1.376,0,0,0,1.289-.648v-5.93h2.648V0H19Zm7.563-.961a1.171,1.171,0,0,0,.859-.3,1.1,1.1,0,0,0,.3-.84h2.469a2.922,2.922,0,0,1-1,2.281,3.705,3.705,0,0,1-2.566.891A3.751,3.751,0,0,1,23.641-1a4.556,4.556,0,0,1-1.062-3.2v-.109a5.149,5.149,0,0,1,.473-2.262,3.441,3.441,0,0,1,1.363-1.508,4.065,4.065,0,0,1,2.109-.527,3.658,3.658,0,0,1,2.617.914,3.242,3.242,0,0,1,.969,2.477H27.641a1.445,1.445,0,0,0-.32-1.008,1.106,1.106,0,0,0-.859-.352q-1.023,0-1.2,1.3a9.206,9.206,0,0,0-.055,1.141,3.616,3.616,0,0,0,.3,1.766A1.055,1.055,0,0,0,26.484-1.875Zm7.8-8.68v2.1H35.68v1.828H34.289v3.867a.987.987,0,0,0,.172.664.922.922,0,0,0,.68.188,3.862,3.862,0,0,0,.656-.047V-.07a4.859,4.859,0,0,1-1.484.227A2.758,2.758,0,0,1,32.3-.484a2.626,2.626,0,0,1-.648-1.945v-4.2H30.578V-8.453h1.078v-2.1ZM41.75-.914A2.714,2.714,0,0,1,39.492.156a2.662,2.662,0,0,1-2.105-.809,3.4,3.4,0,0,1-.715-2.324V-8.453H39.3v5.492a.946.946,0,0,0,1.055,1.086,1.376,1.376,0,0,0,1.289-.648v-5.93H44.3V0H41.828ZM50.5,0a2.973,2.973,0,0,1-.25-.758,2.448,2.448,0,0,1-2.031.914,3,3,0,0,1-2.031-.723,2.3,2.3,0,0,1-.836-1.816,2.364,2.364,0,0,1,1.016-2.078,5.174,5.174,0,0,1,2.953-.7h.813v-.448q0-1.17-1.008-1.17a.824.824,0,0,0-.937.926H45.555A2.36,2.36,0,0,1,46.6-7.845a4.383,4.383,0,0,1,2.66-.765,3.843,3.843,0,0,1,2.555.789,2.743,2.743,0,0,1,.961,2.164v3.742a3.832,3.832,0,0,0,.359,1.781V0ZM48.852-1.719a1.469,1.469,0,0,0,.816-.211,1.322,1.322,0,0,0,.465-.477V-3.758h-.766q-1.375,0-1.375,1.234a.754.754,0,0,0,.242.582A.876.876,0,0,0,48.852-1.719ZM57.8-1.875a1.171,1.171,0,0,0,.859-.3,1.1,1.1,0,0,0,.3-.84H61.43a2.922,2.922,0,0,1-1,2.281,3.705,3.705,0,0,1-2.566.891A3.751,3.751,0,0,1,54.961-1,4.556,4.556,0,0,1,53.9-4.2v-.109a5.149,5.149,0,0,1,.473-2.262,3.441,3.441,0,0,1,1.363-1.508,4.065,4.065,0,0,1,2.109-.527,3.658,3.658,0,0,1,2.617.914,3.242,3.242,0,0,1,.969,2.477H58.961a1.445,1.445,0,0,0-.32-1.008,1.106,1.106,0,0,0-.859-.352q-1.023,0-1.2,1.3a9.206,9.206,0,0,0-.055,1.141,3.616,3.616,0,0,0,.3,1.766A1.055,1.055,0,0,0,57.8-1.875ZM65.32,0H62.68V-8.453H65.32Zm-2.8-10.641a1.186,1.186,0,0,1,.406-.927,1.527,1.527,0,0,1,1.055-.362,1.527,1.527,0,0,1,1.055.362,1.186,1.186,0,0,1,.406.927,1.186,1.186,0,0,1-.406.927,1.527,1.527,0,0,1-1.055.362,1.527,1.527,0,0,1-1.055-.362A1.186,1.186,0,0,1,62.523-10.641ZM66.609-4.3A4.989,4.989,0,0,1,67.1-6.559a3.52,3.52,0,0,1,1.414-1.52,4.259,4.259,0,0,1,2.164-.531,3.887,3.887,0,0,1,2.992,1.176,4.512,4.512,0,0,1,1.094,3.2v.094A4.378,4.378,0,0,1,73.668-1,3.9,3.9,0,0,1,70.7.156,3.942,3.942,0,0,1,67.8-.926a4.232,4.232,0,0,1-1.18-2.934Zm2.633.164a3.145,3.145,0,0,0,.367,1.719,1.223,1.223,0,0,0,1.086.547q1.406,0,1.438-2.164V-4.3q0-2.273-1.453-2.273-1.32,0-1.43,1.961Zm9.1-4.312.086.992a2.867,2.867,0,0,1,2.414-1.148,2.412,2.412,0,0,1,1.973.789,3.757,3.757,0,0,1,.676,2.375V0H80.852V-5.336a1.426,1.426,0,0,0-.258-.941,1.193,1.193,0,0,0-.937-.3,1.256,1.256,0,0,0-1.148.609V0H75.875V-8.453ZM89.039.156A4.345,4.345,0,0,1,85.891-1a4.006,4.006,0,0,1-1.2-3.02v-.219a5.191,5.191,0,0,1,.48-2.289,3.516,3.516,0,0,1,1.4-1.535,4.233,4.233,0,0,1,2.188-.543A3.659,3.659,0,0,1,91.57-7.5,4.344,4.344,0,0,1,92.6-4.422V-3.4H87.367a1.9,1.9,0,0,0,.617,1.117,1.836,1.836,0,0,0,1.234.406,2.366,2.366,0,0,0,1.953-.875l1.2,1.422A3.363,3.363,0,0,1,90.98-.246,4.713,4.713,0,0,1,89.039.156Zm-.3-6.734q-1.156,0-1.375,1.531h2.656v-.2a1.3,1.3,0,0,0-.32-.98A1.275,1.275,0,0,0,88.742-6.578Zm9.344,4.2a.608.608,0,0,0-.352-.539A5.348,5.348,0,0,0,96.4-3.336a6.092,6.092,0,0,1-1.625-.574,2.722,2.722,0,0,1-.977-.863,2.061,2.061,0,0,1-.336-1.164,2.336,2.336,0,0,1,.961-1.918,3.958,3.958,0,0,1,2.516-.754,4.386,4.386,0,0,1,2.688.758,2.37,2.37,0,0,1,1.016,1.992H98q0-1.016-1.07-1.016a1.061,1.061,0,0,0-.7.23.714.714,0,0,0-.281.574.655.655,0,0,0,.344.57,3.248,3.248,0,0,0,1.1.359,9.486,9.486,0,0,1,1.324.336,2.406,2.406,0,0,1,1.906,2.352A2.214,2.214,0,0,1,99.6-.57a4.505,4.505,0,0,1-2.66.727A4.6,4.6,0,0,1,95-.234,3.24,3.24,0,0,1,93.672-1.3,2.406,2.406,0,0,1,93.2-2.711h2.461a1.017,1.017,0,0,0,.391.855,1.607,1.607,0,0,0,.961.27,1.264,1.264,0,0,0,.809-.219A.7.7,0,0,0,98.086-2.375Zm7.422-1.937a5.074,5.074,0,0,1,.875-3.156A2.874,2.874,0,0,1,108.8-8.609a2.454,2.454,0,0,1,2.078,1.063l.188-.906h2.281V3.25H110.7V-.7a2.451,2.451,0,0,1-1.922.859A2.849,2.849,0,0,1,106.395-1,5.357,5.357,0,0,1,105.508-4.312Zm2.633.164q0,2.273,1.313,2.273a1.271,1.271,0,0,0,1.25-.687V-5.906a1.244,1.244,0,0,0-1.234-.672q-1.227,0-1.32,1.961ZM119.867-.914a2.714,2.714,0,0,1-2.258,1.07A2.662,2.662,0,0,1,115.5-.652a3.4,3.4,0,0,1-.715-2.324V-8.453h2.633v5.492a.946.946,0,0,0,1.055,1.086,1.376,1.376,0,0,0,1.289-.648v-5.93h2.648V0h-2.469Zm8.078,1.07A4.345,4.345,0,0,1,124.8-1a4.006,4.006,0,0,1-1.2-3.02v-.219a5.191,5.191,0,0,1,.48-2.289,3.516,3.516,0,0,1,1.4-1.535,4.233,4.233,0,0,1,2.188-.543A3.659,3.659,0,0,1,130.477-7.5a4.344,4.344,0,0,1,1.031,3.082V-3.4h-5.234a1.9,1.9,0,0,0,.617,1.117,1.836,1.836,0,0,0,1.234.406,2.366,2.366,0,0,0,1.953-.875l1.2,1.422a3.363,3.363,0,0,1-1.395,1.082A4.713,4.713,0,0,1,127.945.156Zm-.3-6.734q-1.156,0-1.375,1.531h2.656v-.2a1.3,1.3,0,0,0-.32-.98A1.275,1.275,0,0,0,127.648-6.578ZM141.313,0a2.973,2.973,0,0,1-.25-.758,2.448,2.448,0,0,1-2.031.914A3,3,0,0,1,137-.566a2.3,2.3,0,0,1-.836-1.816,2.364,2.364,0,0,1,1.016-2.078,5.174,5.174,0,0,1,2.953-.7h.813v-.448q0-1.17-1.008-1.17a.824.824,0,0,0-.937.926h-2.633a2.36,2.36,0,0,1,1.043-1.99,4.383,4.383,0,0,1,2.66-.765,3.843,3.843,0,0,1,2.555.789,2.743,2.743,0,0,1,.961,2.164v3.742a3.832,3.832,0,0,0,.359,1.781V0Zm-1.648-1.719a1.469,1.469,0,0,0,.816-.211,1.322,1.322,0,0,0,.465-.477V-3.758h-.766q-1.375,0-1.375,1.234a.754.754,0,0,0,.242.582A.876.876,0,0,0,139.664-1.719ZM145.625,0V-6.625H144.4V-8.453h1.227v-.672a2.921,2.921,0,0,1,.852-2.242,3.364,3.364,0,0,1,2.391-.8A5.235,5.235,0,0,1,150.1-12l.008,1.938a2.4,2.4,0,0,0-.648-.07q-1.2,0-1.2,1.031v.648h1.648v1.828h-1.648V0Zm9.117.156A4.345,4.345,0,0,1,151.594-1a4.006,4.006,0,0,1-1.2-3.02v-.219a5.191,5.191,0,0,1,.48-2.289,3.516,3.516,0,0,1,1.4-1.535,4.233,4.233,0,0,1,2.188-.543A3.659,3.659,0,0,1,157.273-7.5,4.344,4.344,0,0,1,158.3-4.422V-3.4H153.07a1.9,1.9,0,0,0,.617,1.117,1.836,1.836,0,0,0,1.234.406,2.366,2.366,0,0,0,1.953-.875l1.2,1.422a3.363,3.363,0,0,1-1.395,1.082A4.713,4.713,0,0,1,154.742.156Zm-.3-6.734q-1.156,0-1.375,1.531h2.656v-.2a1.3,1.3,0,0,0-.32-.98A1.275,1.275,0,0,0,154.445-6.578Zm8.492,4.7a1.171,1.171,0,0,0,.859-.3,1.1,1.1,0,0,0,.3-.84h2.469a2.922,2.922,0,0,1-1,2.281A3.705,3.705,0,0,1,163,.156,3.751,3.751,0,0,1,160.094-1a4.556,4.556,0,0,1-1.062-3.2v-.109a5.149,5.149,0,0,1,.473-2.262,3.441,3.441,0,0,1,1.363-1.508,4.065,4.065,0,0,1,2.109-.527,3.658,3.658,0,0,1,2.617.914,3.242,3.242,0,0,1,.969,2.477h-2.469a1.445,1.445,0,0,0-.32-1.008,1.106,1.106,0,0,0-.859-.352q-1.023,0-1.2,1.3a9.207,9.207,0,0,0-.055,1.141,3.616,3.616,0,0,0,.3,1.766A1.055,1.055,0,0,0,162.938-1.875Zm7.8-8.68v2.1h1.391v1.828h-1.391v3.867a.987.987,0,0,0,.172.664.922.922,0,0,0,.68.188,3.862,3.862,0,0,0,.656-.047V-.07a4.859,4.859,0,0,1-1.484.227,2.758,2.758,0,0,1-2.008-.641,2.626,2.626,0,0,1-.648-1.945v-4.2h-1.078V-8.453h1.078v-2.1ZM177.93,0a2.973,2.973,0,0,1-.25-.758,2.448,2.448,0,0,1-2.031.914,3,3,0,0,1-2.031-.723,2.3,2.3,0,0,1-.836-1.816A2.364,2.364,0,0,1,173.8-4.461a5.174,5.174,0,0,1,2.953-.7h.813v-.448q0-1.17-1.008-1.17a.824.824,0,0,0-.937.926h-2.633a2.36,2.36,0,0,1,1.043-1.99,4.383,4.383,0,0,1,2.66-.765,3.843,3.843,0,0,1,2.555.789,2.743,2.743,0,0,1,.961,2.164v3.742a3.832,3.832,0,0,0,.359,1.781V0Zm-1.648-1.719a1.469,1.469,0,0,0,.816-.211,1.322,1.322,0,0,0,.465-.477V-3.758H176.8q-1.375,0-1.375,1.234a.754.754,0,0,0,.242.582A.876.876,0,0,0,176.281-1.719ZM186.773-6.07l-.867-.062a1.558,1.558,0,0,0-1.594.781V0H181.68V-8.453h2.469l.086,1.086a2.039,2.039,0,0,1,1.852-1.242,2.567,2.567,0,0,1,.734.094Zm.336,1.766a4.989,4.989,0,0,1,.492-2.254,3.52,3.52,0,0,1,1.414-1.52,4.259,4.259,0,0,1,2.164-.531,3.887,3.887,0,0,1,2.992,1.176,4.512,4.512,0,0,1,1.094,3.2v.094A4.378,4.378,0,0,1,194.168-1,3.9,3.9,0,0,1,191.2.156a3.942,3.942,0,0,1-2.9-1.082,4.232,4.232,0,0,1-1.18-2.934Zm2.633.164a3.145,3.145,0,0,0,.367,1.719,1.223,1.223,0,0,0,1.086.547q1.406,0,1.438-2.164V-4.3q0-2.273-1.453-2.273-1.32,0-1.43,1.961Zm9.1-4.312.086.992a2.867,2.867,0,0,1,2.414-1.148,2.412,2.412,0,0,1,1.973.789,3.757,3.757,0,0,1,.676,2.375V0h-2.641V-5.336a1.426,1.426,0,0,0-.258-.941,1.193,1.193,0,0,0-.937-.3,1.256,1.256,0,0,0-1.148.609V0h-2.633V-8.453ZM213.523.156A4.345,4.345,0,0,1,210.375-1a4.006,4.006,0,0,1-1.2-3.02v-.219a5.191,5.191,0,0,1,.48-2.289,3.516,3.516,0,0,1,1.4-1.535,4.233,4.233,0,0,1,2.188-.543A3.659,3.659,0,0,1,216.055-7.5a4.344,4.344,0,0,1,1.031,3.082V-3.4h-5.234a1.9,1.9,0,0,0,.617,1.117,1.836,1.836,0,0,0,1.234.406,2.366,2.366,0,0,0,1.953-.875l1.2,1.422a3.363,3.363,0,0,1-1.395,1.082A4.713,4.713,0,0,1,213.523.156Zm-.3-6.734q-1.156,0-1.375,1.531h2.656v-.2a1.3,1.3,0,0,0-.32-.98A1.275,1.275,0,0,0,213.227-6.578ZM220.922,0h-2.641V-12h2.641Zm10.031-2.375a.608.608,0,0,0-.352-.539,5.348,5.348,0,0,0-1.336-.422,6.092,6.092,0,0,1-1.625-.574,2.722,2.722,0,0,1-.977-.863,2.061,2.061,0,0,1-.336-1.164,2.336,2.336,0,0,1,.961-1.918,3.958,3.958,0,0,1,2.516-.754,4.386,4.386,0,0,1,2.688.758,2.37,2.37,0,0,1,1.016,1.992h-2.641q0-1.016-1.07-1.016a1.061,1.061,0,0,0-.7.23.714.714,0,0,0-.281.574.655.655,0,0,0,.344.57,3.248,3.248,0,0,0,1.1.359,9.485,9.485,0,0,1,1.324.336,2.406,2.406,0,0,1,1.906,2.352A2.214,2.214,0,0,1,232.465-.57a4.505,4.505,0,0,1-2.66.727,4.6,4.6,0,0,1-1.937-.391A3.24,3.24,0,0,1,226.539-1.3a2.406,2.406,0,0,1-.477-1.414h2.461a1.017,1.017,0,0,0,.391.855,1.607,1.607,0,0,0,.961.27,1.264,1.264,0,0,0,.809-.219A.7.7,0,0,0,230.953-2.375ZM238.813.156A4.345,4.345,0,0,1,235.664-1a4.006,4.006,0,0,1-1.2-3.02v-.219a5.191,5.191,0,0,1,.48-2.289,3.516,3.516,0,0,1,1.4-1.535,4.233,4.233,0,0,1,2.188-.543A3.659,3.659,0,0,1,241.344-7.5a4.344,4.344,0,0,1,1.031,3.082V-3.4h-5.234a1.9,1.9,0,0,0,.617,1.117,1.836,1.836,0,0,0,1.234.406,2.366,2.366,0,0,0,1.953-.875l1.2,1.422a3.363,3.363,0,0,1-1.395,1.082A4.713,4.713,0,0,1,238.813.156Zm-.3-6.734q-1.156,0-1.375,1.531H239.8v-.2a1.3,1.3,0,0,0-.32-.98A1.275,1.275,0,0,0,238.516-6.578Zm10.031.508-.867-.062a1.558,1.558,0,0,0-1.594.781V0h-2.633V-8.453h2.469l.086,1.086a2.039,2.039,0,0,1,1.852-1.242,2.567,2.567,0,0,1,.734.094Zm4.461,2.938,1.336-5.32h2.773L254.359,0h-2.687l-2.758-8.453H251.7ZM260.68,0h-2.641V-8.453h2.641Zm-2.8-10.641a1.185,1.185,0,0,1,.406-.927,1.527,1.527,0,0,1,1.055-.362,1.527,1.527,0,0,1,1.055.362,1.185,1.185,0,0,1,.406.927,1.185,1.185,0,0,1-.406.927,1.527,1.527,0,0,1-1.055.362,1.527,1.527,0,0,1-1.055-.362A1.185,1.185,0,0,1,257.883-10.641Zm7.992,8.766a1.171,1.171,0,0,0,.859-.3,1.1,1.1,0,0,0,.3-.84H269.5a2.922,2.922,0,0,1-1,2.281,3.705,3.705,0,0,1-2.566.891A3.751,3.751,0,0,1,263.031-1a4.556,4.556,0,0,1-1.062-3.2v-.109a5.149,5.149,0,0,1,.473-2.262A3.441,3.441,0,0,1,263.8-8.082a4.065,4.065,0,0,1,2.109-.527,3.658,3.658,0,0,1,2.617.914,3.242,3.242,0,0,1,.969,2.477h-2.469a1.445,1.445,0,0,0-.32-1.008,1.106,1.106,0,0,0-.859-.352q-1.023,0-1.2,1.3a9.2,9.2,0,0,0-.055,1.141,3.616,3.616,0,0,0,.3,1.766A1.055,1.055,0,0,0,265.875-1.875ZM273.391,0H270.75V-8.453h2.641Zm-2.8-10.641a1.185,1.185,0,0,1,.406-.927,1.527,1.527,0,0,1,1.055-.362,1.527,1.527,0,0,1,1.055.362,1.185,1.185,0,0,1,.406.927,1.185,1.185,0,0,1-.406.927,1.527,1.527,0,0,1-1.055.362A1.527,1.527,0,0,1,271-9.713,1.185,1.185,0,0,1,270.594-10.641ZM274.68-4.3a4.989,4.989,0,0,1,.492-2.254,3.52,3.52,0,0,1,1.414-1.52,4.259,4.259,0,0,1,2.164-.531,3.887,3.887,0,0,1,2.992,1.176,4.512,4.512,0,0,1,1.094,3.2v.094A4.377,4.377,0,0,1,281.738-1a3.9,3.9,0,0,1-2.973,1.16,3.942,3.942,0,0,1-2.9-1.082,4.232,4.232,0,0,1-1.18-2.934Zm2.633.164a3.145,3.145,0,0,0,.367,1.719,1.223,1.223,0,0,0,1.086.547q1.406,0,1.438-2.164V-4.3q0-2.273-1.453-2.273-1.32,0-1.43,1.961Z" transform="translate(268.471 5603) rotate(-90)" fill="#12263f"/>
        <path id="Trazado_824233" data-name="Trazado 824233" d="M-4060.615-9920.031h-13.417" transform="translate(4426.223 15193.077)" fill="none" stroke="#12263f" stroke-width="1"/>
        <path id="Trazado_824929" data-name="Trazado 824929" d="M-4060.615-9920.031h-13.417" transform="translate(4426.223 15263.531)" fill="none" stroke="#12263f" stroke-width="1"/>
        <path id="Trazado_824234" data-name="Trazado 824234" d="M-4060.615-9920.031h-13.417" transform="translate(4426.223 15334.381)" fill="none" stroke="#12263f" stroke-width="1"/>
        <path id="Trazado_824235" data-name="Trazado 824235" d="M-4060.615-9920.031h-13.417" transform="translate(4426.223 15404.531)" fill="none" stroke="#12263f" stroke-width="1"/>
        <path id="Trazado_824930" data-name="Trazado 824930" d="M-4060.615-9920.031h-13.417" transform="translate(4426.223 15475.031)" fill="none" stroke="#12263f" stroke-width="1"/>
        <path id="Trazado_824236" data-name="Trazado 824236" d="M-4060.615-9920.031h-13.417" transform="translate(4426.223 15568.229)" fill="none" stroke="#12263f" stroke-width="1.5"/>
        <path id="Trazado_828901" data-name="Trazado 828901" d="M7.771-9.9,3.354,0H1.934l4.4-9.551H.564v-1.113H7.771ZM16-4.548a6.2,6.2,0,0,1-.813,3.538A2.891,2.891,0,0,1,12.642.146,2.912,2.912,0,0,1,10.115-.985a5.882,5.882,0,0,1-.85-3.38V-6.174a6.059,6.059,0,0,1,.813-3.494,2.914,2.914,0,0,1,2.549-1.143,2.94,2.94,0,0,1,2.534,1.1A5.847,5.847,0,0,1,16-6.306ZM14.641-6.4a4.965,4.965,0,0,0-.483-2.509A1.664,1.664,0,0,0,12.627-9.7a1.642,1.642,0,0,0-1.516.784A4.848,4.848,0,0,0,10.62-6.5v2.168a5.045,5.045,0,0,0,.5,2.552,1.661,1.661,0,0,0,1.52.824,1.638,1.638,0,0,0,1.49-.776,4.862,4.862,0,0,0,.509-2.446Z" transform="translate(306.471 5419.85)" fill="#263238"/>
        <path id="Trazado_828900" data-name="Trazado 828900" d="M7.354-7.881A2.476,2.476,0,0,1,6.932-6.46a2.865,2.865,0,0,1-1.139.974A3.056,3.056,0,0,1,7.115-4.438,2.636,2.636,0,0,1,7.6-2.878a2.787,2.787,0,0,1-.934,2.2,3.588,3.588,0,0,1-2.457.82A3.572,3.572,0,0,1,1.747-.677a2.8,2.8,0,0,1-.927-2.2,2.714,2.714,0,0,1,.472-1.56A2.94,2.94,0,0,1,2.6-5.493a2.8,2.8,0,0,1-1.121-.974,2.512,2.512,0,0,1-.41-1.414,2.757,2.757,0,0,1,.864-2.139,3.242,3.242,0,0,1,2.278-.791,3.245,3.245,0,0,1,2.274.791A2.751,2.751,0,0,1,7.354-7.881ZM6.248-2.908A1.965,1.965,0,0,0,5.68-4.365,2.013,2.013,0,0,0,4.2-4.929a1.978,1.978,0,0,0-1.469.557,1.988,1.988,0,0,0-.553,1.465,1.893,1.893,0,0,0,.538,1.428,2.066,2.066,0,0,0,1.5.52,2.06,2.06,0,0,0,1.494-.524A1.888,1.888,0,0,0,6.248-2.908ZM4.211-9.7A1.748,1.748,0,0,0,2.919-9.2a1.816,1.816,0,0,0-.494,1.344,1.807,1.807,0,0,0,.487,1.315,1.729,1.729,0,0,0,1.3.5,1.729,1.729,0,0,0,1.3-.5A1.807,1.807,0,0,0,6-7.859a1.808,1.808,0,0,0-.505-1.326A1.724,1.724,0,0,0,4.211-9.7ZM16-4.548a6.2,6.2,0,0,1-.813,3.538A2.891,2.891,0,0,1,12.642.146,2.912,2.912,0,0,1,10.115-.985a5.882,5.882,0,0,1-.85-3.38V-6.174a6.059,6.059,0,0,1,.813-3.494,2.914,2.914,0,0,1,2.549-1.143,2.94,2.94,0,0,1,2.534,1.1A5.847,5.847,0,0,1,16-6.306ZM14.641-6.4a4.965,4.965,0,0,0-.483-2.509A1.664,1.664,0,0,0,12.627-9.7a1.642,1.642,0,0,0-1.516.784A4.848,4.848,0,0,0,10.62-6.5v2.168a5.045,5.045,0,0,0,.5,2.552,1.661,1.661,0,0,0,1.52.824,1.638,1.638,0,0,0,1.49-.776,4.862,4.862,0,0,0,.509-2.446Z" transform="translate(306.471 5349)" fill="#263238"/>
        <path id="Trazado_828897" data-name="Trazado 828897" d="M5.339,0H3.977V-9.031l-2.732,1v-1.23l3.882-1.458h.212ZM16-4.548a6.2,6.2,0,0,1-.813,3.538A2.891,2.891,0,0,1,12.642.146,2.912,2.912,0,0,1,10.115-.985a5.882,5.882,0,0,1-.85-3.38V-6.174a6.059,6.059,0,0,1,.813-3.494,2.914,2.914,0,0,1,2.549-1.143,2.94,2.94,0,0,1,2.534,1.1A5.847,5.847,0,0,1,16-6.306ZM14.641-6.4a4.965,4.965,0,0,0-.483-2.509A1.664,1.664,0,0,0,12.627-9.7a1.642,1.642,0,0,0-1.516.784A4.848,4.848,0,0,0,10.62-6.5v2.168a5.045,5.045,0,0,0,.5,2.552,1.661,1.661,0,0,0,1.52.824,1.638,1.638,0,0,0,1.49-.776,4.862,4.862,0,0,0,.509-2.446Zm9.778,1.853a6.2,6.2,0,0,1-.813,3.538A2.891,2.891,0,0,1,21.064.146,2.912,2.912,0,0,1,18.538-.985a5.882,5.882,0,0,1-.85-3.38V-6.174A6.059,6.059,0,0,1,18.5-9.668a2.914,2.914,0,0,1,2.549-1.143,2.94,2.94,0,0,1,2.534,1.1,5.847,5.847,0,0,1,.835,3.4ZM23.064-6.4a4.965,4.965,0,0,0-.483-2.509A1.664,1.664,0,0,0,21.05-9.7a1.642,1.642,0,0,0-1.516.784,4.848,4.848,0,0,0-.491,2.41v2.168a5.045,5.045,0,0,0,.5,2.552,1.661,1.661,0,0,0,1.52.824,1.638,1.638,0,0,0,1.49-.776,4.862,4.862,0,0,0,.509-2.446Z" transform="translate(302.471 5279)" fill="#263238"/>
        <path id="Trazado_828902" data-name="Trazado 828902" d="M6.2-10.671v1.15H5.955a3.568,3.568,0,0,0-2.52.938A3.9,3.9,0,0,0,2.351-6.028a2.892,2.892,0,0,1,2.3-.967,2.765,2.765,0,0,1,2.223.981,3.786,3.786,0,0,1,.831,2.534,3.774,3.774,0,0,1-.9,2.637A3.089,3.089,0,0,1,4.4.146,3.044,3.044,0,0,1,1.919-1.029,4.659,4.659,0,0,1,.967-4.058v-.52a7.02,7.02,0,0,1,1.256-4.5,4.613,4.613,0,0,1,3.739-1.593Zm-1.78,4.8a2.162,2.162,0,0,0-1.282.417A2.175,2.175,0,0,0,2.329-4.4v.5A3.5,3.5,0,0,0,2.922-1.78,1.778,1.778,0,0,0,4.4-.974a1.723,1.723,0,0,0,1.439-.674,2.8,2.8,0,0,0,.524-1.765,2.8,2.8,0,0,0-.531-1.776A1.7,1.7,0,0,0,4.424-5.867ZM16-4.548a6.2,6.2,0,0,1-.813,3.538A2.891,2.891,0,0,1,12.642.146,2.912,2.912,0,0,1,10.115-.985a5.882,5.882,0,0,1-.85-3.38V-6.174a6.059,6.059,0,0,1,.813-3.494,2.914,2.914,0,0,1,2.549-1.143,2.94,2.94,0,0,1,2.534,1.1A5.847,5.847,0,0,1,16-6.306ZM14.641-6.4a4.965,4.965,0,0,0-.483-2.509A1.664,1.664,0,0,0,12.627-9.7a1.642,1.642,0,0,0-1.516.784A4.848,4.848,0,0,0,10.62-6.5v2.168a5.045,5.045,0,0,0,.5,2.552,1.661,1.661,0,0,0,1.52.824,1.638,1.638,0,0,0,1.49-.776,4.862,4.862,0,0,0,.509-2.446Z" transform="translate(306.471 5490)" fill="#263238"/>
        <path id="Trazado_828903" data-name="Trazado 828903" d="M1.509-5.347l.542-5.317H7.515v1.252H3.2L2.878-6.5a3.441,3.441,0,0,1,1.78-.461A2.942,2.942,0,0,1,6.973-6,3.775,3.775,0,0,1,7.83-3.4,3.643,3.643,0,0,1,6.94-.8,3.243,3.243,0,0,1,4.453.146,3.371,3.371,0,0,1,2.146-.637,3.128,3.128,0,0,1,1.128-2.805H2.41a2.152,2.152,0,0,0,.652,1.381,2.027,2.027,0,0,0,1.392.465A1.828,1.828,0,0,0,5.936-1.6a2.694,2.694,0,0,0,.538-1.78A2.473,2.473,0,0,0,5.892-5.1,1.981,1.981,0,0,0,4.343-5.75a2.234,2.234,0,0,0-1.392.388l-.359.293ZM16-4.548a6.2,6.2,0,0,1-.813,3.538A2.891,2.891,0,0,1,12.642.146,2.912,2.912,0,0,1,10.115-.985a5.882,5.882,0,0,1-.85-3.38V-6.174a6.059,6.059,0,0,1,.813-3.494,2.914,2.914,0,0,1,2.549-1.143,2.94,2.94,0,0,1,2.534,1.1A5.847,5.847,0,0,1,16-6.306ZM14.641-6.4a4.965,4.965,0,0,0-.483-2.509A1.664,1.664,0,0,0,12.627-9.7a1.642,1.642,0,0,0-1.516.784A4.848,4.848,0,0,0,10.62-6.5v2.168a5.045,5.045,0,0,0,.5,2.552,1.661,1.661,0,0,0,1.52.824,1.638,1.638,0,0,0,1.49-.776,4.862,4.862,0,0,0,.509-2.446Z" transform="translate(306.471 5560.85)" fill="#263238"/>
        <path id="Trazado_828904" data-name="Trazado 828904" d="M5.726-3.1H7.008v.958H5.726V0H4.545V-2.146H.336v-.692l4.139-6.4h1.25Zm-4.056,0H4.545V-7.636l-.14.254Zm12.194-.838a5.371,5.371,0,0,1-.7,3.066,2.506,2.506,0,0,1-2.2,1,2.524,2.524,0,0,1-2.19-.981A5.1,5.1,0,0,1,8.03-3.783V-5.351a5.251,5.251,0,0,1,.7-3.028,2.525,2.525,0,0,1,2.209-.99,2.548,2.548,0,0,1,2.2.955,5.068,5.068,0,0,1,.724,2.948ZM12.689-5.548a4.3,4.3,0,0,0-.419-2.174A1.442,1.442,0,0,0,10.943-8.4a1.423,1.423,0,0,0-1.314.679A4.2,4.2,0,0,0,9.2-5.637v1.879a4.372,4.372,0,0,0,.435,2.212,1.439,1.439,0,0,0,1.317.714A1.42,1.42,0,0,0,12.248-1.5a4.214,4.214,0,0,0,.441-2.12Z" transform="translate(307.471 5652.546)" fill="#263238"/>
        <path id="Trazado_828909" data-name="Trazado 828909" d="M.859,0V-11.375H4.523a5.39,5.39,0,0,1,2.711.684,4.805,4.805,0,0,1,1.879,1.93A5.826,5.826,0,0,1,9.8-5.969v.523a5.86,5.86,0,0,1-.66,2.8A4.826,4.826,0,0,1,7.277-.707,5.271,5.271,0,0,1,4.6,0ZM3.6-9.258v7.148h.953a2.133,2.133,0,0,0,1.813-.84A4.116,4.116,0,0,0,7-5.445v-.492a4.082,4.082,0,0,0-.633-2.484,2.17,2.17,0,0,0-1.844-.836ZM16.117-.914A2.714,2.714,0,0,1,13.859.156a2.662,2.662,0,0,1-2.105-.809,3.4,3.4,0,0,1-.715-2.324V-8.453h2.633v5.492a.946.946,0,0,0,1.055,1.086,1.376,1.376,0,0,0,1.289-.648v-5.93h2.648V0H16.2Zm9.1-5.156-.867-.062a1.558,1.558,0,0,0-1.594.781V0H20.125V-8.453h2.469l.086,1.086a2.039,2.039,0,0,1,1.852-1.242,2.567,2.567,0,0,1,.734.094ZM30.7,0a2.973,2.973,0,0,1-.25-.758,2.448,2.448,0,0,1-2.031.914,3,3,0,0,1-2.031-.723,2.3,2.3,0,0,1-.836-1.816,2.364,2.364,0,0,1,1.016-2.078,5.174,5.174,0,0,1,2.953-.7h.813v-.448q0-1.17-1.008-1.17a.824.824,0,0,0-.937.926H25.75a2.36,2.36,0,0,1,1.043-1.99,4.383,4.383,0,0,1,2.66-.765,3.843,3.843,0,0,1,2.555.789,2.743,2.743,0,0,1,.961,2.164v3.742a3.832,3.832,0,0,0,.359,1.781V0ZM29.047-1.719a1.469,1.469,0,0,0,.816-.211,1.322,1.322,0,0,0,.465-.477V-3.758h-.766q-1.375,0-1.375,1.234a.754.754,0,0,0,.242.582A.876.876,0,0,0,29.047-1.719ZM38-1.875a1.171,1.171,0,0,0,.859-.3,1.1,1.1,0,0,0,.3-.84h2.469a2.922,2.922,0,0,1-1,2.281,3.705,3.705,0,0,1-2.566.891A3.751,3.751,0,0,1,35.156-1a4.556,4.556,0,0,1-1.062-3.2v-.109a5.149,5.149,0,0,1,.473-2.262A3.441,3.441,0,0,1,35.93-8.082a4.065,4.065,0,0,1,2.109-.527,3.658,3.658,0,0,1,2.617.914,3.242,3.242,0,0,1,.969,2.477H39.156a1.445,1.445,0,0,0-.32-1.008,1.106,1.106,0,0,0-.859-.352q-1.023,0-1.2,1.3a9.206,9.206,0,0,0-.055,1.141,3.616,3.616,0,0,0,.3,1.766A1.055,1.055,0,0,0,38-1.875ZM45.516,0H42.875V-8.453h2.641Zm-2.8-10.641a1.186,1.186,0,0,1,.406-.927,1.527,1.527,0,0,1,1.055-.362,1.527,1.527,0,0,1,1.055.362,1.186,1.186,0,0,1,.406.927,1.186,1.186,0,0,1-.406.927,1.527,1.527,0,0,1-1.055.362,1.527,1.527,0,0,1-1.055-.362A1.186,1.186,0,0,1,42.719-10.641ZM46.8-4.3A4.989,4.989,0,0,1,47.3-6.559a3.52,3.52,0,0,1,1.414-1.52,4.259,4.259,0,0,1,2.164-.531,3.887,3.887,0,0,1,2.992,1.176,4.512,4.512,0,0,1,1.094,3.2v.094A4.378,4.378,0,0,1,53.863-1,3.9,3.9,0,0,1,50.891.156a3.942,3.942,0,0,1-2.9-1.082,4.232,4.232,0,0,1-1.18-2.934Zm2.633.164A3.145,3.145,0,0,0,49.8-2.422a1.223,1.223,0,0,0,1.086.547q1.406,0,1.438-2.164V-4.3q0-2.273-1.453-2.273-1.32,0-1.43,1.961ZM51.234-12h2.781L51.844-9.547l-2.148,0Zm7.3,3.547.086.992a2.867,2.867,0,0,1,2.414-1.148,2.412,2.412,0,0,1,1.973.789,3.757,3.757,0,0,1,.676,2.375V0H61.047V-5.336a1.426,1.426,0,0,0-.258-.941,1.193,1.193,0,0,0-.937-.3,1.256,1.256,0,0,0-1.148.609V0H56.07V-8.453ZM68.8-4.289a5.164,5.164,0,0,1,.867-3.164,2.854,2.854,0,0,1,2.422-1.156,2.428,2.428,0,0,1,1.906.891V-12h2.641V0H74.266l-.133-.906A2.493,2.493,0,0,1,72.07.156,2.849,2.849,0,0,1,69.68-1,5.327,5.327,0,0,1,68.8-4.289Zm2.633.164q0,2.25,1.313,2.25a1.3,1.3,0,0,0,1.25-.734V-5.828a1.261,1.261,0,0,0-1.234-.75q-1.219,0-1.32,1.969ZM82.219.156A4.345,4.345,0,0,1,79.07-1a4.006,4.006,0,0,1-1.2-3.02v-.219a5.191,5.191,0,0,1,.48-2.289,3.516,3.516,0,0,1,1.4-1.535,4.233,4.233,0,0,1,2.188-.543A3.659,3.659,0,0,1,84.75-7.5a4.344,4.344,0,0,1,1.031,3.082V-3.4H80.547a1.9,1.9,0,0,0,.617,1.117,1.836,1.836,0,0,0,1.234.406,2.366,2.366,0,0,0,1.953-.875l1.2,1.422A3.363,3.363,0,0,1,84.16-.246,4.713,4.713,0,0,1,82.219.156Zm-.3-6.734q-1.156,0-1.375,1.531H83.2v-.2a1.3,1.3,0,0,0-.32-.98A1.275,1.275,0,0,0,81.922-6.578ZM93.6,0H90.961V-12H93.6Zm6.383,0a2.973,2.973,0,0,1-.25-.758A2.448,2.448,0,0,1,97.7.156a3,3,0,0,1-2.031-.723,2.3,2.3,0,0,1-.836-1.816,2.364,2.364,0,0,1,1.016-2.078,5.174,5.174,0,0,1,2.953-.7h.813v-.448q0-1.17-1.008-1.17a.824.824,0,0,0-.937.926H95.039a2.36,2.36,0,0,1,1.043-1.99,4.383,4.383,0,0,1,2.66-.765,3.843,3.843,0,0,1,2.555.789,2.743,2.743,0,0,1,.961,2.164v3.742a3.832,3.832,0,0,0,.359,1.781V0ZM98.336-1.719a1.469,1.469,0,0,0,.816-.211,1.322,1.322,0,0,0,.465-.477V-3.758h-.766q-1.375,0-1.375,1.234a.754.754,0,0,0,.242.582A.876.876,0,0,0,98.336-1.719Zm9.8-.656a.608.608,0,0,0-.352-.539,5.348,5.348,0,0,0-1.336-.422,6.092,6.092,0,0,1-1.625-.574,2.722,2.722,0,0,1-.977-.863,2.061,2.061,0,0,1-.336-1.164,2.336,2.336,0,0,1,.961-1.918,3.958,3.958,0,0,1,2.516-.754,4.386,4.386,0,0,1,2.688.758A2.37,2.37,0,0,1,110.7-5.859h-2.641q0-1.016-1.07-1.016a1.061,1.061,0,0,0-.7.23.714.714,0,0,0-.281.574.655.655,0,0,0,.344.57,3.248,3.248,0,0,0,1.1.359,9.486,9.486,0,0,1,1.324.336,2.406,2.406,0,0,1,1.906,2.352A2.214,2.214,0,0,1,109.652-.57a4.505,4.505,0,0,1-2.66.727,4.6,4.6,0,0,1-1.937-.391A3.24,3.24,0,0,1,103.727-1.3a2.406,2.406,0,0,1-.477-1.414h2.461a1.017,1.017,0,0,0,.391.855,1.607,1.607,0,0,0,.961.27,1.264,1.264,0,0,0,.809-.219A.7.7,0,0,0,108.141-2.375Zm13.641-7.7q-.672-.055-1.133-.055-1.531,0-1.531,1.2v.484h1.648v1.828h-1.648V0h-2.641V-6.625H115.25V-8.453h1.227V-9a2.919,2.919,0,0,1,.98-2.34,4.192,4.192,0,0,1,2.785-.824q1.289,0,4.188.164V0h-2.648ZM131.07-.914a2.714,2.714,0,0,1-2.258,1.07,2.662,2.662,0,0,1-2.105-.809,3.4,3.4,0,0,1-.715-2.324V-8.453h2.633v5.492a.946.946,0,0,0,1.055,1.086,1.376,1.376,0,0,0,1.289-.648v-5.93h2.648V0h-2.469Zm7.563-.961a1.171,1.171,0,0,0,.859-.3,1.1,1.1,0,0,0,.3-.84h2.469a2.922,2.922,0,0,1-1,2.281A3.705,3.705,0,0,1,138.7.156,3.751,3.751,0,0,1,135.789-1a4.556,4.556,0,0,1-1.062-3.2v-.109a5.149,5.149,0,0,1,.473-2.262,3.441,3.441,0,0,1,1.363-1.508,4.065,4.065,0,0,1,2.109-.527,3.658,3.658,0,0,1,2.617.914,3.242,3.242,0,0,1,.969,2.477h-2.469a1.445,1.445,0,0,0-.32-1.008,1.106,1.106,0,0,0-.859-.352q-1.023,0-1.2,1.3a9.207,9.207,0,0,0-.055,1.141,3.616,3.616,0,0,0,.3,1.766A1.055,1.055,0,0,0,138.633-1.875Zm7.8-8.68v2.1h1.391v1.828h-1.391v3.867a.987.987,0,0,0,.172.664.922.922,0,0,0,.68.188,3.862,3.862,0,0,0,.656-.047V-.07a4.859,4.859,0,0,1-1.484.227,2.758,2.758,0,0,1-2.008-.641A2.626,2.626,0,0,1,143.8-2.43v-4.2h-1.078V-8.453H143.8v-2.1ZM153.9-.914a2.714,2.714,0,0,1-2.258,1.07,2.662,2.662,0,0,1-2.105-.809,3.4,3.4,0,0,1-.715-2.324V-8.453h2.633v5.492a.946.946,0,0,0,1.055,1.086,1.376,1.376,0,0,0,1.289-.648v-5.93h2.648V0h-2.469Zm8.75.914a2.973,2.973,0,0,1-.25-.758,2.448,2.448,0,0,1-2.031.914,3,3,0,0,1-2.031-.723,2.3,2.3,0,0,1-.836-1.816,2.364,2.364,0,0,1,1.016-2.078,5.174,5.174,0,0,1,2.953-.7h.813v-.448q0-1.17-1.008-1.17a.824.824,0,0,0-.937.926H157.7a2.36,2.36,0,0,1,1.043-1.99,4.383,4.383,0,0,1,2.66-.765,3.843,3.843,0,0,1,2.555.789,2.743,2.743,0,0,1,.961,2.164v3.742a3.832,3.832,0,0,0,.359,1.781V0ZM161-1.719a1.469,1.469,0,0,0,.816-.211,1.322,1.322,0,0,0,.465-.477V-3.758h-.766q-1.375,0-1.375,1.234a.754.754,0,0,0,.242.582A.876.876,0,0,0,161-1.719Zm8.953-.156a1.171,1.171,0,0,0,.859-.3,1.1,1.1,0,0,0,.3-.84h2.469a2.922,2.922,0,0,1-1,2.281,3.705,3.705,0,0,1-2.566.891A3.751,3.751,0,0,1,167.109-1a4.556,4.556,0,0,1-1.062-3.2v-.109a5.149,5.149,0,0,1,.473-2.262,3.441,3.441,0,0,1,1.363-1.508,4.065,4.065,0,0,1,2.109-.527,3.658,3.658,0,0,1,2.617.914,3.242,3.242,0,0,1,.969,2.477h-2.469a1.445,1.445,0,0,0-.32-1.008,1.106,1.106,0,0,0-.859-.352q-1.023,0-1.2,1.3a9.207,9.207,0,0,0-.055,1.141,3.616,3.616,0,0,0,.3,1.766A1.055,1.055,0,0,0,169.953-1.875ZM177.469,0h-2.641V-8.453h2.641Zm-2.8-10.641a1.186,1.186,0,0,1,.406-.927,1.527,1.527,0,0,1,1.055-.362,1.527,1.527,0,0,1,1.055.362,1.186,1.186,0,0,1,.406.927,1.186,1.186,0,0,1-.406.927,1.527,1.527,0,0,1-1.055.362,1.527,1.527,0,0,1-1.055-.362A1.186,1.186,0,0,1,174.672-10.641ZM178.758-4.3a4.989,4.989,0,0,1,.492-2.254,3.52,3.52,0,0,1,1.414-1.52,4.259,4.259,0,0,1,2.164-.531,3.887,3.887,0,0,1,2.992,1.176,4.512,4.512,0,0,1,1.094,3.2v.094A4.378,4.378,0,0,1,185.816-1a3.9,3.9,0,0,1-2.973,1.16,3.942,3.942,0,0,1-2.9-1.082,4.232,4.232,0,0,1-1.18-2.934Zm2.633.164a3.145,3.145,0,0,0,.367,1.719,1.223,1.223,0,0,0,1.086.547q1.406,0,1.438-2.164V-4.3q0-2.273-1.453-2.273-1.32,0-1.43,1.961Zm9.1-4.312.086.992a2.867,2.867,0,0,1,2.414-1.148,2.412,2.412,0,0,1,1.973.789,3.757,3.757,0,0,1,.676,2.375V0H193V-5.336a1.426,1.426,0,0,0-.258-.941,1.193,1.193,0,0,0-.937-.3,1.256,1.256,0,0,0-1.148.609V0h-2.633V-8.453Zm10.7,8.609A4.345,4.345,0,0,1,198.039-1a4.006,4.006,0,0,1-1.2-3.02v-.219a5.191,5.191,0,0,1,.48-2.289,3.516,3.516,0,0,1,1.4-1.535,4.233,4.233,0,0,1,2.188-.543A3.659,3.659,0,0,1,203.719-7.5a4.344,4.344,0,0,1,1.031,3.082V-3.4h-5.234a1.9,1.9,0,0,0,.617,1.117,1.836,1.836,0,0,0,1.234.406,2.366,2.366,0,0,0,1.953-.875l1.2,1.422a3.363,3.363,0,0,1-1.395,1.082A4.713,4.713,0,0,1,201.188.156Zm-.3-6.734q-1.156,0-1.375,1.531h2.656v-.2a1.3,1.3,0,0,0-.32-.98A1.275,1.275,0,0,0,200.891-6.578Zm9.344,4.2a.608.608,0,0,0-.352-.539,5.348,5.348,0,0,0-1.336-.422,6.092,6.092,0,0,1-1.625-.574,2.722,2.722,0,0,1-.977-.863,2.061,2.061,0,0,1-.336-1.164,2.336,2.336,0,0,1,.961-1.918,3.958,3.958,0,0,1,2.516-.754,4.386,4.386,0,0,1,2.688.758,2.37,2.37,0,0,1,1.016,1.992h-2.641q0-1.016-1.07-1.016a1.061,1.061,0,0,0-.7.23.714.714,0,0,0-.281.574.655.655,0,0,0,.344.57,3.248,3.248,0,0,0,1.1.359,9.485,9.485,0,0,1,1.324.336,2.406,2.406,0,0,1,1.906,2.352A2.214,2.214,0,0,1,211.746-.57a4.505,4.505,0,0,1-2.66.727,4.6,4.6,0,0,1-1.937-.391A3.24,3.24,0,0,1,205.82-1.3a2.406,2.406,0,0,1-.477-1.414H207.8a1.017,1.017,0,0,0,.391.855,1.607,1.607,0,0,0,.961.27,1.264,1.264,0,0,0,.809-.219A.7.7,0,0,0,210.234-2.375Zm7.953-2.25a11.939,11.939,0,0,1,.508-3.547,8.56,8.56,0,0,1,1.4-2.781,4.98,4.98,0,0,1,1.988-1.594l.5,1.3a5.093,5.093,0,0,0-1.691,2.512,12.25,12.25,0,0,0-.605,4v.344a12.49,12.49,0,0,0,.6,4.078,5.072,5.072,0,0,0,1.7,2.531l-.5,1.3a4.931,4.931,0,0,1-1.988-1.6,8.43,8.43,0,0,1-1.4-2.77,12,12,0,0,1-.508-3.422Zm9.172-6.75L229.9-3.461l2.531-7.914h3.609V0h-2.75V-2.656l.266-5.437L230.8,0h-1.812l-2.758-8.1.266,5.445V0h-2.742V-11.375ZM240.438,0H237.8V-8.453h2.641Zm-2.8-10.641a1.186,1.186,0,0,1,.406-.927,1.527,1.527,0,0,1,1.055-.362,1.527,1.527,0,0,1,1.055.362,1.186,1.186,0,0,1,.406.927,1.186,1.186,0,0,1-.406.927,1.527,1.527,0,0,1-1.055.362,1.527,1.527,0,0,1-1.055-.362A1.186,1.186,0,0,1,237.641-10.641Zm6.836,2.188.086.992a2.867,2.867,0,0,1,2.414-1.148,2.412,2.412,0,0,1,1.973.789,3.757,3.757,0,0,1,.676,2.375V0h-2.641V-5.336a1.426,1.426,0,0,0-.258-.941,1.193,1.193,0,0,0-.937-.3,1.256,1.256,0,0,0-1.148.609V0h-2.633V-8.453Zm8.234,5.9a1.5,1.5,0,0,1,1.039.371,1.218,1.218,0,0,1,.414.949,1.218,1.218,0,0,1-.414.949,1.5,1.5,0,0,1-1.039.371,1.486,1.486,0,0,1-1.043-.375,1.226,1.226,0,0,1-.41-.945,1.226,1.226,0,0,1,.41-.945A1.486,1.486,0,0,1,252.711-2.555Zm7.359-1.852a11.14,11.14,0,0,1-.539,3.484,8.9,8.9,0,0,1-1.488,2.832,4.955,4.955,0,0,1-2.051,1.605l-.5-1.3a5.144,5.144,0,0,0,1.68-2.5,12.068,12.068,0,0,0,.617-3.883v-.477a12.49,12.49,0,0,0-.6-4.078,5.072,5.072,0,0,0-1.7-2.531l.5-1.3a5.046,5.046,0,0,1,2.035,1.59,8.787,8.787,0,0,1,1.484,2.789,11.046,11.046,0,0,1,.559,3.418Z" transform="translate(670.471 5710.571)" fill="#12263f"/>
        <path id="Trazado_824232" data-name="Trazado 824232" d="M-4069.267-9875.087v375.152h986" transform="translate(4434.141 15148.133)" fill="none" stroke="#12263f" stroke-width="1.5"/>
        <path id="Polígono_7" data-name="Polígono 7" d="M4.5,0,9,7H0Z" transform="translate(421.471 5472)" fill="#70bffe"/>
        <path id="Polígono_8" data-name="Polígono 8" d="M4.5,0,9,7H0Z" transform="translate(421.471 5486)" fill="#70bffe"/>
        <path id="Polígono_9" data-name="Polígono 9" d="M4.5,0,9,7H0Z" transform="translate(421.471 5500)" fill="#70bffe"/>
        <path id="Polígono_10" data-name="Polígono 10" d="M4.5,0,9,7H0Z" transform="translate(447.471 5486)" fill="#70bffe"/>
        <path id="Polígono_11" data-name="Polígono 11" d="M4.5,0,9,7H0Z" transform="translate(448.471 5464)" fill="#70bffe"/>
        <path id="Polígono_12" data-name="Polígono 12" d="M4.5,0,9,7H0Z" transform="translate(472.471 5467)" fill="#70bffe"/>
        <path id="Polígono_13" data-name="Polígono 13" d="M4.5,0,9,7H0Z" transform="translate(474.471 5457)" fill="#70bffe"/>
        <path id="Polígono_14" data-name="Polígono 14" d="M4.5,0,9,7H0Z" transform="translate(499.471 5450)" fill="#70bffe"/>
        <path id="Polígono_15" data-name="Polígono 15" d="M4.5,0,9,7H0Z" transform="translate(474.471 5493)" fill="#70bffe"/>
        <path id="Polígono_20" data-name="Polígono 20" d="M4.5,0,9,7H0Z" transform="translate(474.471 5514)" fill="#70bffe"/>
        <path id="Polígono_29" data-name="Polígono 29" d="M4.5,0,9,7H0Z" transform="translate(447.471 5514)" fill="#70bffe"/>
        <path id="Polígono_34" data-name="Polígono 34" d="M4.5,0,9,7H0Z" transform="translate(421.471 5535)" fill="#70bffe"/>
        <path id="Polígono_21" data-name="Polígono 21" d="M4.5,0,9,7H0Z" transform="translate(474.471 5522)" fill="#70bffe"/>
        <path id="Polígono_27" data-name="Polígono 27" d="M4.5,0,9,7H0Z" transform="translate(447.471 5522)" fill="#70bffe"/>
        <path id="Polígono_32" data-name="Polígono 32" d="M4.5,0,9,7H0Z" transform="translate(421.471 5543)" fill="#70bffe"/>
        <path id="Polígono_22" data-name="Polígono 22" d="M4.5,0,9,7H0Z" transform="translate(474.471 5532)" fill="#70bffe"/>
        <path id="Polígono_70" data-name="Polígono 70" d="M4.5,0,9,7H0Z" transform="translate(837.471 5332)" fill="#70bffe"/>
        <path id="Polígono_105" data-name="Polígono 105" d="M4.5,0,9,7H0Z" transform="translate(1043.471 5359)" fill="#70bffe"/>
        <path id="Polígono_108" data-name="Polígono 108" d="M4.5,0,9,7H0Z" transform="translate(1043.471 5383)" fill="#70bffe"/>
        <path id="Polígono_126" data-name="Polígono 126" d="M4.5,0,9,7H0Z" transform="translate(1068.471 5388)" fill="#70bffe"/>
        <path id="Polígono_130" data-name="Polígono 130" d="M4.5,0,9,7H0Z" transform="translate(1119.471 5315)" fill="#70bffe"/>
        <path id="Polígono_134" data-name="Polígono 134" d="M4.5,0,9,7H0Z" transform="translate(1119.471 5368)" fill="#70bffe"/>
        <path id="Polígono_83" data-name="Polígono 83" d="M4.5,0,9,7H0Z" transform="translate(992.471 5316)" fill="#70bffe"/>
        <path id="Polígono_100" data-name="Polígono 100" d="M4.5,0,9,7H0Z" transform="translate(991.471 5353)" fill="#70bffe"/>
        <path id="Polígono_103" data-name="Polígono 103" d="M4.5,0,9,7H0Z" transform="translate(966.471 5360)" fill="#70bffe"/>
        <path id="Polígono_73" data-name="Polígono 73" d="M4.5,0,9,7H0Z" transform="translate(888.471 5317)" fill="#70bffe"/>
        <path id="Polígono_81" data-name="Polígono 81" d="M4.5,0,9,7H0Z" transform="translate(940.471 5324)" fill="#70bffe"/>
        <path id="Polígono_147" data-name="Polígono 147" d="M4.5,0,9,7H0Z" transform="translate(1043.471 5322)" fill="#70bffe"/>
        <path id="Polígono_160" data-name="Polígono 160" d="M4.5,0,9,7H0Z" transform="translate(1146.471 5278)" fill="#70bffe"/>
        <path id="Polígono_163" data-name="Polígono 163" d="M4.5,0,9,7H0Z" transform="translate(1171.471 5270)" fill="#70bffe"/>
        <path id="Polígono_164" data-name="Polígono 164" d="M4.5,0,9,7H0Z" transform="translate(1171.471 5247)" fill="#70bffe"/>
        <path id="Polígono_165" data-name="Polígono 165" d="M4.5,0,9,7H0Z" transform="translate(1144.471 5254)" fill="#70bffe"/>
        <path id="Polígono_166" data-name="Polígono 166" d="M4.5,0,9,7H0Z" transform="translate(1121.471 5240)" fill="#70bffe"/>
        <path id="Polígono_167" data-name="Polígono 167" d="M4.5,0,9,7H0Z" transform="translate(1043.471 5283)" fill="#70bffe"/>
        <path id="Polígono_168" data-name="Polígono 168" d="M4.5,0,9,7H0Z" transform="translate(1094.471 5305)" fill="#70bffe"/>
        <path id="Polígono_169" data-name="Polígono 169" d="M4.5,0,9,7H0Z" transform="translate(1094.471 5317)" fill="#70bffe"/>
        <path id="Polígono_80" data-name="Polígono 80" d="M4.5,0,9,7H0Z" transform="translate(913.471 5303)" fill="#70bffe"/>
        <path id="Polígono_89" data-name="Polígono 89" d="M4.5,0,9,7H0Z" transform="translate(965.471 5276)" fill="#70bffe"/>
        <path id="Polígono_90" data-name="Polígono 90" d="M4.5,0,9,7H0Z" transform="translate(992.471 5267)" fill="#70bffe"/>
        <path id="Polígono_91" data-name="Polígono 91" d="M4.5,0,9,7H0Z" transform="translate(992.471 5287)" fill="#70bffe"/>
        <path id="Polígono_92" data-name="Polígono 92" d="M4.5,0,9,7H0Z" transform="translate(1018.471 5303)" fill="#70bffe"/>
        <path id="Polígono_93" data-name="Polígono 93" d="M4.5,0,9,7H0Z" transform="translate(1018.471 5340)" fill="#70bffe"/>
        <path id="Polígono_137" data-name="Polígono 137" d="M4.5,0,9,7H0Z" transform="translate(1068.471 5338)" fill="#70bffe"/>
        <path id="Polígono_148" data-name="Polígono 148" d="M4.5,0,9,7H0Z" transform="translate(1068.471 5324)" fill="#70bffe"/>
        <path id="Polígono_149" data-name="Polígono 149" d="M4.5,0,9,7H0Z" transform="translate(1068.471 5361)" fill="#70bffe"/>
        <path id="Polígono_150" data-name="Polígono 150" d="M4.5,0,9,7H0Z" transform="translate(1094.471 5352)" fill="#70bffe"/>
        <path id="Polígono_151" data-name="Polígono 151" d="M4.5,0,9,7H0Z" transform="translate(1119.471 5345)" fill="#70bffe"/>
        <path id="Polígono_152" data-name="Polígono 152" d="M4.5,0,9,7H0Z" transform="translate(1146.471 5345)" fill="#70bffe"/>
        <path id="Polígono_154" data-name="Polígono 154" d="M4.5,0,9,7H0Z" transform="translate(1146.471 5329)" fill="#70bffe"/>
        <path id="Polígono_155" data-name="Polígono 155" d="M4.5,0,9,7H0Z" transform="translate(1146.471 5316)" fill="#70bffe"/>
        <path id="Polígono_156" data-name="Polígono 156" d="M4.5,0,9,7H0Z" transform="translate(1171.471 5317)" fill="#70bffe"/>
        <path id="Polígono_157" data-name="Polígono 157" d="M4.5,0,9,7H0Z" transform="translate(1171.471 5332)" fill="#70bffe"/>
        <path id="Polígono_158" data-name="Polígono 158" d="M4.5,0,9,7H0Z" transform="translate(1171.471 5340)" fill="#70bffe"/>
        <path id="Polígono_159" data-name="Polígono 159" d="M4.5,0,9,7H0Z" transform="translate(1171.471 5348)" fill="#70bffe"/>
        <path id="Polígono_170" data-name="Polígono 170" d="M4.5,0,9,7H0Z" transform="translate(1197.471 5373)" fill="#70bffe"/>
        <path id="Polígono_171" data-name="Polígono 171" d="M4.5,0,9,7H0Z" transform="translate(1222.471 5374)" fill="#70bffe"/>
        <path id="Polígono_172" data-name="Polígono 172" d="M4.5,0,9,7H0Z" transform="translate(1247.471 5339)" fill="#70bffe"/>
        <path id="Polígono_173" data-name="Polígono 173" d="M4.5,0,9,7H0Z" transform="translate(1273.471 5317)" fill="#70bffe"/>
        <path id="Polígono_174" data-name="Polígono 174" d="M4.5,0,9,7H0Z" transform="translate(1247.471 5268)" fill="#70bffe"/>
        <path id="Polígono_153" data-name="Polígono 153" d="M4.5,0,9,7H0Z" transform="translate(1093.471 5373)" fill="#70bffe"/>
        <path id="Polígono_139" data-name="Polígono 139" d="M4.5,0,9,7H0Z" transform="translate(1094.471 5330)" fill="#70bffe"/>
        <path id="Polígono_141" data-name="Polígono 141" d="M4.5,0,9,7H0Z" transform="translate(1093.471 5405)" fill="#70bffe"/>
        <path id="Polígono_143" data-name="Polígono 143" d="M4.5,0,9,7H0Z" transform="translate(1146.471 5372)" fill="#70bffe"/>
        <path id="Polígono_94" data-name="Polígono 94" d="M4.5,0,9,7H0Z" transform="translate(1018.471 5349)" fill="#70bffe"/>
        <path id="Polígono_136" data-name="Polígono 136" d="M4.5,0,9,7H0Z" transform="translate(1068.471 5347)" fill="#70bffe"/>
        <path id="Polígono_138" data-name="Polígono 138" d="M4.5,0,9,7H0Z" transform="translate(1094.471 5339)" fill="#70bffe"/>
        <path id="Polígono_140" data-name="Polígono 140" d="M4.5,0,9,7H0Z" transform="translate(1093.471 5414)" fill="#70bffe"/>
        <path id="Polígono_142" data-name="Polígono 142" d="M4.5,0,9,7H0Z" transform="translate(1146.471 5381)" fill="#70bffe"/>
        <path id="Polígono_144" data-name="Polígono 144" d="M4.5,0,9,7H0Z" transform="translate(1146.471 5393)" fill="#70bffe"/>
        <path id="Polígono_95" data-name="Polígono 95" d="M4.5,0,9,7H0Z" transform="translate(1018.471 5367)" fill="#70bffe"/>
        <path id="Polígono_96" data-name="Polígono 96" d="M4.5,0,9,7H0Z" transform="translate(1018.471 5376)" fill="#70bffe"/>
        <path id="Polígono_97" data-name="Polígono 97" d="M4.5,0,9,7H0Z" transform="translate(1018.471 5385)" fill="#70bffe"/>
        <path id="Polígono_79" data-name="Polígono 79" d="M4.5,0,9,7H0Z" transform="translate(810.471 5303)" fill="#70bffe"/>
        <path id="Polígono_78" data-name="Polígono 78" d="M4.5,0,9,7H0Z" transform="translate(865.471 5303)" fill="#70bffe"/>
        <path id="Polígono_76" data-name="Polígono 76" d="M4.5,0,9,7H0Z" transform="translate(888.471 5352)" fill="#70bffe"/>
        <path id="Polígono_37" data-name="Polígono 37" d="M4.5,0,9,7H0Z" transform="translate(447.471 5577)" fill="#70bffe"/>
        <path id="Polígono_40" data-name="Polígono 40" d="M4.5,0,9,7H0Z" transform="translate(499.471 5507)" fill="#70bffe"/>
        <path id="Polígono_28" data-name="Polígono 28" d="M4.5,0,9,7H0Z" transform="translate(447.471 5532)" fill="#70bffe"/>
        <path id="Polígono_23" data-name="Polígono 23" d="M4.5,0,9,7H0Z" transform="translate(474.471 5541)" fill="#70bffe"/>
        <path id="Polígono_69" data-name="Polígono 69" d="M4.5,0,9,7H0Z" transform="translate(837.471 5340)" fill="#70bffe"/>
        <path id="Polígono_106" data-name="Polígono 106" d="M4.5,0,9,7H0Z" transform="translate(1043.471 5367)" fill="#70bffe"/>
        <path id="Polígono_109" data-name="Polígono 109" d="M4.5,0,9,7H0Z" transform="translate(1043.471 5391)" fill="#70bffe"/>
        <path id="Polígono_124" data-name="Polígono 124" d="M4.5,0,9,7H0Z" transform="translate(1068.471 5396)" fill="#70bffe"/>
        <path id="Polígono_128" data-name="Polígono 128" d="M4.5,0,9,7H0Z" transform="translate(1119.471 5323)" fill="#70bffe"/>
        <path id="Polígono_112" data-name="Polígono 112" d="M4.5,0,9,7H0Z" transform="translate(1043.471 5420)" fill="#70bffe"/>
        <path id="Polígono_114" data-name="Polígono 114" d="M4.5,0,9,7H0Z" transform="translate(965.471 5408)" fill="#70bffe"/>
        <path id="Polígono_84" data-name="Polígono 84" d="M4.5,0,9,7H0Z" transform="translate(992.471 5324)" fill="#70bffe"/>
        <path id="Polígono_99" data-name="Polígono 99" d="M4.5,0,9,7H0Z" transform="translate(991.471 5361)" fill="#70bffe"/>
        <path id="Polígono_102" data-name="Polígono 102" d="M4.5,0,9,7H0Z" transform="translate(966.471 5368)" fill="#70bffe"/>
        <path id="Polígono_72" data-name="Polígono 72" d="M4.5,0,9,7H0Z" transform="translate(888.471 5325)" fill="#70bffe"/>
        <path id="Polígono_82" data-name="Polígono 82" d="M4.5,0,9,7H0Z" transform="translate(940.471 5332)" fill="#70bffe"/>
        <path id="Polígono_145" data-name="Polígono 145" d="M4.5,0,9,7H0Z" transform="translate(1043.471 5330)" fill="#70bffe"/>
        <path id="Polígono_161" data-name="Polígono 161" d="M4.5,0,9,7H0Z" transform="translate(1146.471 5286)" fill="#70bffe"/>
        <path id="Polígono_86" data-name="Polígono 86" d="M4.5,0,9,7H0Z" transform="translate(967.471 5332)" fill="#70bffe"/>
        <path id="Polígono_87" data-name="Polígono 87" d="M4.5,0,9,7H0Z" transform="translate(913.471 5379)" fill="#70bffe"/>
        <path id="Polígono_115" data-name="Polígono 115" d="M4.5,0,9,7H0Z" transform="translate(913.471 5400)" fill="#70bffe"/>
        <path id="Polígono_116" data-name="Polígono 116" d="M4.5,0,9,7H0Z" transform="translate(940.471 5395)" fill="#70bffe"/>
        <path id="Polígono_117" data-name="Polígono 117" d="M4.5,0,9,7H0Z" transform="translate(940.471 5385)" fill="#70bffe"/>
        <path id="Polígono_88" data-name="Polígono 88" d="M4.5,0,9,7H0Z" transform="translate(940.471 5345)" fill="#70bffe"/>
        <path id="Polígono_146" data-name="Polígono 146" d="M4.5,0,9,7H0Z" transform="translate(1043.471 5343)" fill="#70bffe"/>
        <path id="Polígono_162" data-name="Polígono 162" d="M4.5,0,9,7H0Z" transform="translate(1146.471 5299)" fill="#70bffe"/>
        <path id="Polígono_75" data-name="Polígono 75" d="M4.5,0,9,7H0Z" transform="translate(888.471 5360)" fill="#70bffe"/>
        <path id="Polígono_47" data-name="Polígono 47" d="M4.5,0,9,7H0Z" transform="translate(498.471 5557)" fill="#70bffe"/>
        <path id="Polígono_50" data-name="Polígono 50" d="M4.5,0,9,7H0Z" transform="translate(577.471 5520)" fill="#70bffe"/>
        <path id="Polígono_36" data-name="Polígono 36" d="M4.5,0,9,7H0Z" transform="translate(447.471 5586)" fill="#70bffe"/>
        <path id="Polígono_39" data-name="Polígono 39" d="M4.5,0,9,7H0Z" transform="translate(499.471 5522)" fill="#70bffe"/>
        <path id="Polígono_41" data-name="Polígono 41" d="M4.5,0,9,7H0Z" transform="translate(499.471 5534)" fill="#70bffe"/>
        <path id="Polígono_42" data-name="Polígono 42" d="M4.5,0,9,7H0Z" transform="translate(524.471 5527)" fill="#70bffe"/>
        <path id="Polígono_43" data-name="Polígono 43" d="M4.5,0,9,7H0Z" transform="translate(524.471 5514)" fill="#70bffe"/>
        <path id="Polígono_44" data-name="Polígono 44" d="M4.5,0,9,7H0Z" transform="translate(550.471 5534)" fill="#70bffe"/>
        <path id="Polígono_45" data-name="Polígono 45" d="M4.5,0,9,7H0Z" transform="translate(524.471 5556)" fill="#70bffe"/>
        <path id="Polígono_25" data-name="Polígono 25" d="M4.5,0,9,7H0Z" transform="translate(447.471 5541)" fill="#70bffe"/>
        <path id="Polígono_24" data-name="Polígono 24" d="M4.5,0,9,7H0Z" transform="translate(474.471 5551)" fill="#70bffe"/>
        <path id="Polígono_68" data-name="Polígono 68" d="M4.5,0,9,7H0Z" transform="translate(837.471 5348)" fill="#70bffe"/>
        <path id="Polígono_107" data-name="Polígono 107" d="M4.5,0,9,7H0Z" transform="translate(1043.471 5375)" fill="#70bffe"/>
        <path id="Polígono_127" data-name="Polígono 127" d="M4.5,0,9,7H0Z" transform="translate(1068.471 5380)" fill="#70bffe"/>
        <path id="Polígono_131" data-name="Polígono 131" d="M4.5,0,9,7H0Z" transform="translate(1119.471 5307)" fill="#70bffe"/>
        <path id="Polígono_135" data-name="Polígono 135" d="M4.5,0,9,7H0Z" transform="translate(1119.471 5360)" fill="#70bffe"/>
        <path id="Polígono_110" data-name="Polígono 110" d="M4.5,0,9,7H0Z" transform="translate(1043.471 5399)" fill="#70bffe"/>
        <path id="Polígono_125" data-name="Polígono 125" d="M4.5,0,9,7H0Z" transform="translate(1068.471 5404)" fill="#70bffe"/>
        <path id="Polígono_129" data-name="Polígono 129" d="M4.5,0,9,7H0Z" transform="translate(1119.471 5331)" fill="#70bffe"/>
        <path id="Polígono_133" data-name="Polígono 133" d="M4.5,0,9,7H0Z" transform="translate(1119.471 5384)" fill="#70bffe"/>
        <path id="Polígono_175" data-name="Polígono 175" d="M4.5,0,9,7H0Z" transform="translate(1119.471 5421)" fill="#70bffe"/>
        <path id="Polígono_111" data-name="Polígono 111" d="M4.5,0,9,7H0Z" transform="translate(1043.471 5428)" fill="#70bffe"/>
        <path id="Polígono_113" data-name="Polígono 113" d="M4.5,0,9,7H0Z" transform="translate(965.471 5416)" fill="#70bffe"/>
        <path id="Polígono_118" data-name="Polígono 118" d="M4.5,0,9,7H0Z" transform="translate(965.471 5428)" fill="#70bffe"/>
        <path id="Polígono_119" data-name="Polígono 119" d="M4.5,0,9,7H0Z" transform="translate(888.471 5420)" fill="#70bffe"/>
        <path id="Polígono_120" data-name="Polígono 120" d="M4.5,0,9,7H0Z" transform="translate(888.471 5435)" fill="#70bffe"/>
        <path id="Polígono_121" data-name="Polígono 121" d="M4.5,0,9,7H0Z" transform="translate(992.471 5442)" fill="#70bffe"/>
        <path id="Polígono_123" data-name="Polígono 123" d="M4.5,0,9,7H0Z" transform="translate(913.471 5483)" fill="#70bffe"/>
        <path id="Polígono_122" data-name="Polígono 122" d="M4.5,0,9,7H0Z" transform="translate(991.471 5415)" fill="#70bffe"/>
        <path id="Polígono_85" data-name="Polígono 85" d="M4.5,0,9,7H0Z" transform="translate(992.471 5332)" fill="#70bffe"/>
        <path id="Polígono_98" data-name="Polígono 98" d="M4.5,0,9,7H0Z" transform="translate(991.471 5369)" fill="#70bffe"/>
        <path id="Polígono_101" data-name="Polígono 101" d="M4.5,0,9,7H0Z" transform="translate(966.471 5376)" fill="#70bffe"/>
        <path id="Polígono_104" data-name="Polígono 104" d="M4.5,0,9,7H0Z" transform="translate(966.471 5385)" fill="#70bffe"/>
        <path id="Polígono_77" data-name="Polígono 77" d="M4.5,0,9,7H0Z" transform="translate(888.471 5393)" fill="#70bffe"/>
        <path id="Polígono_46" data-name="Polígono 46" d="M4.5,0,9,7H0Z" transform="translate(498.471 5567)" fill="#70bffe"/>
        <path id="Polígono_49" data-name="Polígono 49" d="M4.5,0,9,7H0Z" transform="translate(577.471 5530)" fill="#70bffe"/>
        <path id="Polígono_35" data-name="Polígono 35" d="M4.5,0,9,7H0Z" transform="translate(447.471 5596)" fill="#70bffe"/>
        <path id="Polígono_38" data-name="Polígono 38" d="M4.5,0,9,7H0Z" transform="translate(498.471 5583)" fill="#70bffe"/>
        <path id="Polígono_48" data-name="Polígono 48" d="M4.5,0,9,7H0Z" transform="translate(577.471 5546)" fill="#70bffe"/>
        <path id="Polígono_26" data-name="Polígono 26" d="M4.5,0,9,7H0Z" transform="translate(447.471 5551)" fill="#70bffe"/>
        <path id="Polígono_16" data-name="Polígono 16" d="M4.5,0,9,7H0Z" transform="translate(524.471 5464)" fill="#70bffe"/>
        <path id="Polígono_17" data-name="Polígono 17" d="M4.5,0,9,7H0Z" transform="translate(548.471 5458)" fill="#70bffe"/>
        <path id="Polígono_51" data-name="Polígono 51" d="M4.5,0,9,7H0Z" transform="translate(577.471 5423)" fill="#70bffe"/>
        <path id="Polígono_52" data-name="Polígono 52" d="M4.5,0,9,7H0Z" transform="translate(627.471 5430)" fill="#70bffe"/>
        <path id="Polígono_53" data-name="Polígono 53" d="M4.5,0,9,7H0Z" transform="translate(651.471 5423)" fill="#70bffe"/>
        <path id="Polígono_54" data-name="Polígono 54" d="M4.5,0,9,7H0Z" transform="translate(678.471 5465)" fill="#70bffe"/>
        <path id="Polígono_56" data-name="Polígono 56" d="M4.5,0,9,7H0Z" transform="translate(729.471 5472)" fill="#70bffe"/>
        <path id="Polígono_57" data-name="Polígono 57" d="M4.5,0,9,7H0Z" transform="translate(729.471 5501)" fill="#70bffe"/>
        <path id="Polígono_58" data-name="Polígono 58" d="M4.5,0,9,7H0Z" transform="translate(775.471 5501)" fill="#70bffe"/>
        <path id="Polígono_59" data-name="Polígono 59" d="M4.5,0,9,7H0Z" transform="translate(761.471 5532)" fill="#70bffe"/>
        <path id="Polígono_60" data-name="Polígono 60" d="M4.5,0,9,7H0Z" transform="translate(786.471 5470)" fill="#70bffe"/>
        <path id="Polígono_61" data-name="Polígono 61" d="M4.5,0,9,7H0Z" transform="translate(786.471 5442)" fill="#70bffe"/>
        <path id="Polígono_62" data-name="Polígono 62" d="M4.5,0,9,7H0Z" transform="translate(709.471 5401)" fill="#70bffe"/>
        <path id="Polígono_63" data-name="Polígono 63" d="M4.5,0,9,7H0Z" transform="translate(683.471 5358)" fill="#70bffe"/>
        <path id="Polígono_64" data-name="Polígono 64" d="M4.5,0,9,7H0Z" transform="translate(761.471 5351)" fill="#70bffe"/>
        <path id="Polígono_65" data-name="Polígono 65" d="M4.5,0,9,7H0Z" transform="translate(786.471 5373)" fill="#70bffe"/>
        <path id="Polígono_66" data-name="Polígono 66" d="M4.5,0,9,7H0Z" transform="translate(811.471 5380)" fill="#70bffe"/>
        <path id="Polígono_67" data-name="Polígono 67" d="M4.5,0,9,7H0Z" transform="translate(837.471 5394)" fill="#70bffe"/>
        <path id="Polígono_55" data-name="Polígono 55" d="M4.5,0,9,7H0Z" transform="translate(627.471 5480)" fill="#70bffe"/>
        <path id="Polígono_18" data-name="Polígono 18" d="M4.5,0,9,7H0Z" transform="translate(550.471 5487)" fill="#70bffe"/>
        <path id="Polígono_19" data-name="Polígono 19" d="M4.5,0,9,7H0Z" transform="translate(550.471 5497)" fill="#70bffe"/>
        <path id="Trazado_824932" data-name="Trazado 824932" d="M-4065.655-9920.031h-8.377" transform="translate(-9419.561 9722.23) rotate(90)" fill="none" stroke="#12263f" stroke-width="1"/>
        <path id="Trazado_824933" data-name="Trazado 824933" d="M-4065.655-9920.031h-8.377" transform="translate(-9159.061 9722.23) rotate(90)" fill="none" stroke="#12263f" stroke-width="1"/>
        <path id="Trazado_824934" data-name="Trazado 824934" d="M-4065.655-9920.031h-8.377" transform="translate(-8902.061 9722.23) rotate(90)" fill="none" stroke="#12263f" stroke-width="1"/>
        <path id="Trazado_824935" data-name="Trazado 824935" d="M-4065.655-9920.031h-8.377" transform="translate(-8649.561 9722.23) rotate(90)" fill="none" stroke="#12263f" stroke-width="1"/>
        <path id="Trazado_828905" data-name="Trazado 828905" d="M7.874,0H.886V-.974l3.691-4.1A8.77,8.77,0,0,0,5.709-6.588a2.524,2.524,0,0,0,.311-1.2,1.913,1.913,0,0,0-.505-1.37A1.767,1.767,0,0,0,4.167-9.7,2.093,2.093,0,0,0,2.6-9.122a2.2,2.2,0,0,0-.56,1.6H.681A3.145,3.145,0,0,1,1.63-9.9a3.516,3.516,0,0,1,2.538-.908,3.379,3.379,0,0,1,2.351.78,2.661,2.661,0,0,1,.864,2.076q0,1.575-2.007,3.75L2.52-1.106H7.874Z" transform="translate(495.971 5673.571)" fill="#263238"/>
        <path id="Trazado_828906" data-name="Trazado 828906" d="M2.856-5.991H3.875A2.238,2.238,0,0,0,5.383-6.5a1.688,1.688,0,0,0,.549-1.326A1.654,1.654,0,0,0,4.065-9.7a1.943,1.943,0,0,0-1.4.5,1.756,1.756,0,0,0-.524,1.329H.784A2.72,2.72,0,0,1,1.71-9.972a3.375,3.375,0,0,1,2.355-.839,3.335,3.335,0,0,1,2.366.8,2.884,2.884,0,0,1,.857,2.219,2.341,2.341,0,0,1-.45,1.348,2.72,2.72,0,0,1-1.227.974,2.621,2.621,0,0,1,1.359.923,2.563,2.563,0,0,1,.48,1.575A2.909,2.909,0,0,1,6.511-.7,3.511,3.511,0,0,1,4.072.146,3.6,3.6,0,0,1,1.63-.667,2.7,2.7,0,0,1,.688-2.812H2.051A1.743,1.743,0,0,0,2.6-1.465a2.089,2.089,0,0,0,1.472.505,2.05,2.05,0,0,0,1.5-.513,1.976,1.976,0,0,0,.52-1.472,1.793,1.793,0,0,0-.571-1.428,2.489,2.489,0,0,0-1.648-.513H2.856Z" transform="translate(757.471 5673.571)" fill="#263238"/>
        <path id="Trazado_828907" data-name="Trazado 828907" d="M6.606-3.582H8.086v1.106H6.606V0H5.244V-2.476H.388v-.8l4.775-7.39H6.606Zm-4.68,0H5.244V-8.811l-.161.293Z" transform="translate(1014.471 5673.571)" fill="#263238"/>
        <path id="Trazado_828908" data-name="Trazado 828908" d="M1.509-5.347l.542-5.317H7.515v1.252H3.2L2.878-6.5a3.441,3.441,0,0,1,1.78-.461A2.942,2.942,0,0,1,6.973-6,3.775,3.775,0,0,1,7.83-3.4,3.643,3.643,0,0,1,6.94-.8,3.243,3.243,0,0,1,4.453.146,3.371,3.371,0,0,1,2.146-.637,3.128,3.128,0,0,1,1.128-2.805H2.41a2.152,2.152,0,0,0,.652,1.381,2.027,2.027,0,0,0,1.392.465A1.828,1.828,0,0,0,5.936-1.6a2.694,2.694,0,0,0,.538-1.78A2.473,2.473,0,0,0,5.892-5.1,1.981,1.981,0,0,0,4.343-5.75a2.234,2.234,0,0,0-1.392.388l-.359.293Z" transform="translate(1266.971 5673.571)" fill="#263238"/>
      </g>
    </g>
  </g>
</svg>
