<svg xmlns="http://www.w3.org/2000/svg" width="90" height="90" viewBox="0 0 90 90">
  <g id="Grupo_1075636" data-name="Grupo 1075636" transform="translate(-913 -2096)">
    <circle id="Elipse_4724" data-name="Elipse 4724" cx="45" cy="45" r="45" transform="translate(913 2096)" fill="#f7cd00"/>
    <g id="Grupo_1075635" data-name="Grupo 1075635">
      <g id="informe-de-datos" transform="translate(876.172 2077.467)">
        <path id="Trazado_823913" data-name="Trazado 823913" d="M132.883,41.363h24.849V52.228h10.449V87.682l-1.04,1.767-1.508.468H133.948V78.3H130.6v-34Z" transform="translate(-63.945 -3.476)" fill="#e5eaff"/>
        <path id="Trazado_823914" data-name="Trazado 823914" d="M133.949,224.616h31.685l1.508-.468,1.04-1.768V194.94c-4.418,7.477-15.453,20.337-37.585,15.891V213h3.353Z" transform="translate(-63.946 -138.175)" fill="#b2c6f9"/>
        <path id="Trazado_823915" data-name="Trazado 823915" d="M351.353,48.4v10H361.8Z" transform="translate(-257.566 -9.648)" fill="#b2c6f9"/>
        <path id="Trazado_823916" data-name="Trazado 823916" d="M262.966,259.583h8.11V283.6h-8.11Z" transform="translate(-180.044 -194.872)" fill="#fd5426"/>
        <path id="Trazado_823917" data-name="Trazado 823917" d="M172.994,300.182h8.616v19.027h-8.616Z" transform="translate(-101.132 -230.481)" fill="#01d0fb"/>
        <path id="Trazado_823918" data-name="Trazado 823918" d="M90,341.2H98v13.984H90Z" transform="translate(-28.337 -266.46)" fill="#39af00"/>
        <path id="Trazado_823919" data-name="Trazado 823919" d="M271.075,330.975c-1.642,4.038-4.485,9.039-8.11,7.529v7.712h8.11Z" transform="translate(-180.044 -257.489)" fill="#d83e1a"/>
        <path id="Trazado_823920" data-name="Trazado 823920" d="M181.61,359.078V345.639c-1.245,2.859-4.489,8.98-8.616,6.566v6.872Z" transform="translate(-101.131 -270.35)" fill="#13b8ce"/>
        <path id="Trazado_823921" data-name="Trazado 823921" d="M98,365.542c-1.428,2.878-4.4,7.626-8.006,6.411v4.581H98Z" transform="translate(-28.338 -287.806)" fill="#026400"/>
        <path id="Trazado_823922" data-name="Trazado 823922" d="M175.589,99.131V107.2h8.648s.28,5.229-4.476,6.669-8.071.143-9.864-2.5-1.053-7.1-1.053-7.1S171.216,98.2,175.589,99.131Z" transform="translate(-97.359 -54.058)" fill="#fd5426"/>
        <path id="Trazado_823923" data-name="Trazado 823923" d="M192.49,165.486h-3.856c-.917,2.1-3.648,6.2-10.532,4.1.016.025.031.051.048.075,1.793,2.641,5.108,3.938,9.864,2.5S192.49,165.486,192.49,165.486Z" transform="translate(-105.611 -112.342)" fill="#d83e1a"/>
        <path id="Trazado_823924" data-name="Trazado 823924" d="M256.2,83.966v6.628h7.018S261.735,83.888,256.2,83.966Z" transform="translate(-174.109 -40.842)" fill="#39af00"/>
        <path id="Trazado_823925" data-name="Trazado 823925" d="M260.713,99.55c-.46,1.51-1.638,3.767-4.514,3.171v1.542h7.018A11.057,11.057,0,0,0,260.713,99.55Z" transform="translate(-174.109 -54.511)" fill="#026400"/>
        <g id="Grupo_1075630" data-name="Grupo 1075630" transform="translate(57.688 37.399)">
          <path id="Trazado_823926" data-name="Trazado 823926" d="M104.013,47.4l-9.046-9.046a3.239,3.239,0,0,0-2.306-.955H69.33a3.264,3.264,0,0,0-3.261,3.261V74.044h-4.43a.676.676,0,0,0-.676.676V88.314h-2.6a.676.676,0,1,0,0,1.352H95.17a.676.676,0,0,0,0-1.352H91.687v-1.19h10.02a3.264,3.264,0,0,0,3.261-3.261V49.706a3.239,3.239,0,0,0-.955-2.306Zm-1.079.834H94.408V39.707ZM62.316,88.314V75.4h6.914V88.314Zm10.449,0V70.328h6.913V88.314Zm10.657,0V65.182h6.913V88.314Zm20.194-4.451a1.911,1.911,0,0,1-1.909,1.909H91.687V64.505a.676.676,0,0,0-.676-.676H82.745a.676.676,0,0,0-.676.676V88.314H81.03V69.652a.676.676,0,0,0-.676-.676H72.089a.676.676,0,0,0-.676.676V88.314h-.831V74.721a.676.676,0,0,0-.676-.676H67.421V40.66a1.911,1.911,0,0,1,1.909-1.909H92.661a1.925,1.925,0,0,1,.395.041V48.91a.676.676,0,0,0,.676.676h9.878c0,.04.006.08.006.12V83.864Z" transform="translate(-57.688 -37.399)" fill="#161616"/>
          <path id="Trazado_823927" data-name="Trazado 823927" d="M178.232,101.62h-7.764a.039.039,0,0,1-.039-.039V93.816a.676.676,0,0,0-.737-.673,8.474,8.474,0,1,0,9.214,9.214.676.676,0,0,0-.673-.737Zm-2.95,5.209A7.121,7.121,0,1,1,169.077,94.6v6.985a1.393,1.393,0,0,0,1.392,1.392h6.985A7.105,7.105,0,0,1,175.282,106.829Z" transform="translate(-149.172 -86.288)" fill="#161616"/>
          <path id="Trazado_823928" data-name="Trazado 823928" d="M250.116,77.482a.676.676,0,0,0-.737.673V85.2a.676.676,0,0,0,.676.676H257.1a.676.676,0,0,0,.673-.737A8.461,8.461,0,0,0,250.116,77.482Zm.615,7.046V78.934a7.11,7.11,0,0,1,5.593,5.593Z" transform="translate(-225.815 -72.552)" fill="#161616"/>
          <path id="Trazado_823929" data-name="Trazado 823929" d="M355.048,381.822h-6.429a.676.676,0,0,0,0,1.352h6.429a.676.676,0,0,0,0-1.352Z" transform="translate(-312.264 -339.484)" fill="#161616"/>
          <path id="Trazado_823930" data-name="Trazado 823930" d="M355.048,346.932h-6.429a.676.676,0,1,0,0,1.352h6.429a.676.676,0,0,0,0-1.352Z" transform="translate(-312.264 -308.883)" fill="#161616"/>
          <path id="Trazado_823931" data-name="Trazado 823931" d="M355.048,311.725h-6.429a.676.676,0,1,0,0,1.352h6.429a.676.676,0,0,0,0-1.352Z" transform="translate(-312.264 -278.004)" fill="#161616"/>
          <path id="Trazado_823932" data-name="Trazado 823932" d="M355.048,276.835h-6.429a.676.676,0,0,0,0,1.352h6.429a.676.676,0,1,0,0-1.352Z" transform="translate(-312.264 -247.403)" fill="#161616"/>
        </g>
      </g>
      <g id="actualizar" transform="translate(965.558 2129.539)">
        <g id="Grupo_1075632" data-name="Grupo 1075632" transform="translate(0.592)">
          <g id="Grupo_1075631" data-name="Grupo 1075631">
            <path id="Trazado_823933" data-name="Trazado 823933" d="M37.987,1.479a.419.419,0,0,0-.455.379l-.055.609a5.287,5.287,0,0,0-9.193.441.419.419,0,1,0,.746.381,4.453,4.453,0,0,1,7.746-.369l-.6-.427a.419.419,0,0,0-.487.682L37.5,4.468a.419.419,0,0,0,.661-.3l.2-2.231A.419.419,0,0,0,37.987,1.479Z" transform="translate(-28.237)"/>
          </g>
        </g>
        <g id="Grupo_1075634" data-name="Grupo 1075634" transform="translate(0.001 6.176)">
          <g id="Grupo_1075633" data-name="Grupo 1075633">
            <path id="Trazado_823934" data-name="Trazado 823934" d="M9.9,295.988a.419.419,0,0,0-.563.182,4.453,4.453,0,0,1-7.746.369l.6.427a.419.419,0,0,0,.487-.682L.867,294.991a.419.419,0,0,0-.661.3L0,297.525a.419.419,0,1,0,.834.076l.055-.609a5.287,5.287,0,0,0,9.193-.441A.419.419,0,0,0,9.9,295.988Z" transform="translate(-0.001 -294.913)"/>
          </g>
        </g>
      </g>
    </g>
  </g>
</svg>
