<svg xmlns="http://www.w3.org/2000/svg" xmlns:xlink="http://www.w3.org/1999/xlink" width="1240" height="483" viewBox="0 0 1240 483">
  <defs>
    <filter id="Elipse_10562" x="813" y="144.316" width="253" height="253" filterUnits="userSpaceOnUse">
      <feOffset dy="3" input="SourceAlpha"/>
      <feGaussianBlur stdDeviation="3" result="blur"/>
      <feFlood flood-opacity="0.161"/>
      <feComposite operator="in" in2="blur"/>
      <feComposite in="SourceGraphic"/>
    </filter>
    <filter id="Elipse_10563" x="895" y="225.316" width="88" height="89" filterUnits="userSpaceOnUse">
      <feOffset dy="3" input="SourceAlpha"/>
      <feGaussianBlur stdDeviation="3" result="blur-2"/>
      <feFlood flood-opacity="0.161"/>
      <feComposite operator="in" in2="blur-2"/>
      <feComposite in="SourceGraphic"/>
    </filter>
    <filter id="Trazado_825220" x="880.922" y="228.049" width="43.59" height="41.089" filterUnits="userSpaceOnUse">
      <feOffset dy="3" input="SourceAlpha"/>
      <feGaussianBlur stdDeviation="3" result="blur-3"/>
      <feFlood flood-opacity="0.161"/>
      <feComposite operator="in" in2="blur-3"/>
      <feComposite in="SourceGraphic"/>
    </filter>
    <filter id="Trazado_825225" x="948.89" y="267.206" width="83.212" height="69.476" filterUnits="userSpaceOnUse">
      <feOffset dy="3" input="SourceAlpha"/>
      <feGaussianBlur stdDeviation="3" result="blur-4"/>
      <feFlood flood-opacity="0.161"/>
      <feComposite operator="in" in2="blur-4"/>
      <feComposite in="SourceGraphic"/>
    </filter>
    <filter id="Trazado_825235" x="240.055" y="186.352" width="34.875" height="193.69" filterUnits="userSpaceOnUse">
      <feOffset dy="3" input="SourceAlpha"/>
      <feGaussianBlur stdDeviation="3" result="blur-5"/>
      <feFlood flood-opacity="0.161"/>
      <feComposite operator="in" in2="blur-5"/>
      <feComposite in="SourceGraphic"/>
    </filter>
    <filter id="Trazado_825236" x="227.67" y="341.751" width="58.581" height="58.581" filterUnits="userSpaceOnUse">
      <feOffset dy="3" input="SourceAlpha"/>
      <feGaussianBlur stdDeviation="3" result="blur-6"/>
      <feFlood flood-opacity="0.161"/>
      <feComposite operator="in" in2="blur-6"/>
      <feComposite in="SourceGraphic"/>
    </filter>
    <filter id="Trazado_825235-2" x="583.133" y="186.352" width="34.875" height="193.69" filterUnits="userSpaceOnUse">
      <feOffset dy="3" input="SourceAlpha"/>
      <feGaussianBlur stdDeviation="3" result="blur-7"/>
      <feFlood flood-opacity="0.161"/>
      <feComposite operator="in" in2="blur-7"/>
      <feComposite in="SourceGraphic"/>
    </filter>
    <filter id="Trazado_825236-2" x="570.747" y="341.751" width="58.581" height="58.581" filterUnits="userSpaceOnUse">
      <feOffset dy="3" input="SourceAlpha"/>
      <feGaussianBlur stdDeviation="3" result="blur-8"/>
      <feFlood flood-opacity="0.161"/>
      <feComposite operator="in" in2="blur-8"/>
      <feComposite in="SourceGraphic"/>
    </filter>
  </defs>
  <g id="Grupo_1080610" data-name="Grupo 1080610" transform="translate(-181 -6414.684)">
    <rect id="Rectángulo_379728" data-name="Rectángulo 379728" width="1240" height="483" transform="translate(181 6414.684)" fill="#f6f6f6"/>
    <path id="Trazado_828862" data-name="Trazado 828862" d="M11.32-4.333a4.673,4.673,0,0,1-.721,2.36A4.35,4.35,0,0,1,8.75-.387a6.3,6.3,0,0,1-2.72.563A5.025,5.025,0,0,1,2.057-1.468,6.786,6.786,0,0,1,.606-6.108v-.633a7.746,7.746,0,0,1,.655-3.292,4.961,4.961,0,0,1,1.885-2.18,5.26,5.26,0,0,1,2.848-.769,5.516,5.516,0,0,1,3.744,1.226,4.844,4.844,0,0,1,1.608,3.379H8.271a2.292,2.292,0,0,0-.589-1.679,2.422,2.422,0,0,0-1.687-.51A1.843,1.843,0,0,0,4.307-9.7a5.536,5.536,0,0,0-.562,2.751v.905A6.125,6.125,0,0,0,4.258-3.12a1.882,1.882,0,0,0,1.771.879,2.369,2.369,0,0,0,1.626-.5,2.126,2.126,0,0,0,.6-1.591ZM15.768,0H12.8V-13.5h2.971Zm4.948,0H17.745V-9.51h2.971ZM17.569-11.971a1.334,1.334,0,0,1,.457-1.043,1.718,1.718,0,0,1,1.187-.407,1.718,1.718,0,0,1,1.187.407,1.334,1.334,0,0,1,.457,1.043,1.334,1.334,0,0,1-.457,1.043,1.718,1.718,0,0,1-1.187.407,1.718,1.718,0,0,1-1.187-.407A1.334,1.334,0,0,1,17.569-11.971Zm7.77,2.461.1,1.116a3.27,3.27,0,0,1,2.716-1.292,2.407,2.407,0,0,1,2.435,1.433,3.165,3.165,0,0,1,2.795-1.433q2.892,0,2.971,3.5V0H33.381V-6a1.813,1.813,0,0,0-.246-1.063,1.048,1.048,0,0,0-.9-.334,1.4,1.4,0,0,0-1.31.782l.009.123V0H27.967V-5.985a1.906,1.906,0,0,0-.237-1.081,1.045,1.045,0,0,0-.905-.334,1.42,1.42,0,0,0-1.3.782V0H22.562V-9.51ZM43.4,0a3.344,3.344,0,0,1-.281-.853A2.754,2.754,0,0,1,40.834.176a3.374,3.374,0,0,1-2.285-.813,2.588,2.588,0,0,1-.94-2.043,2.66,2.66,0,0,1,1.143-2.338,5.821,5.821,0,0,1,3.322-.791h.914v-.5q0-1.316-1.134-1.316A.927.927,0,0,0,40.8-6.587H37.837A2.655,2.655,0,0,1,39.01-8.825,4.931,4.931,0,0,1,42-9.686a4.323,4.323,0,0,1,2.874.888,3.086,3.086,0,0,1,1.081,2.435v4.21a4.311,4.311,0,0,0,.4,2V0ZM41.546-1.934a1.652,1.652,0,0,0,.918-.237,1.487,1.487,0,0,0,.523-.536V-4.228h-.861q-1.547,0-1.547,1.389a.848.848,0,0,0,.272.655A.986.986,0,0,0,41.546-1.934ZM56.681.176a4.889,4.889,0,0,1-3.542-1.305,4.507,4.507,0,0,1-1.354-3.4v-.246a5.84,5.84,0,0,1,.541-2.575A3.955,3.955,0,0,1,53.9-9.075a4.763,4.763,0,0,1,2.461-.611,4.117,4.117,0,0,1,3.164,1.244,4.887,4.887,0,0,1,1.16,3.467v1.151H54.8a2.135,2.135,0,0,0,.694,1.257,2.066,2.066,0,0,0,1.389.457,2.662,2.662,0,0,0,2.2-.984l1.354,1.6A3.784,3.784,0,0,1,58.865-.277,5.3,5.3,0,0,1,56.681.176ZM56.347-7.4q-1.3,0-1.547,1.723h2.988v-.229a1.467,1.467,0,0,0-.36-1.1A1.434,1.434,0,0,0,56.347-7.4ZM64.6-9.51l.1,1.116a3.225,3.225,0,0,1,2.716-1.292,2.713,2.713,0,0,1,2.219.888,4.226,4.226,0,0,1,.76,2.672V0H67.421V-6a1.6,1.6,0,0,0-.29-1.059A1.342,1.342,0,0,0,66.076-7.4a1.413,1.413,0,0,0-1.292.686V0H61.822V-9.51ZM79.638,0H76.667V-13.5h2.971Zm7.181,0a3.344,3.344,0,0,1-.281-.853A2.754,2.754,0,0,1,84.252.176a3.374,3.374,0,0,1-2.285-.813,2.588,2.588,0,0,1-.94-2.043,2.66,2.66,0,0,1,1.143-2.338,5.821,5.821,0,0,1,3.322-.791h.914v-.5q0-1.316-1.134-1.316a.927.927,0,0,0-1.055,1.042H81.255a2.655,2.655,0,0,1,1.173-2.239,4.931,4.931,0,0,1,2.993-.86,4.323,4.323,0,0,1,2.874.888,3.086,3.086,0,0,1,1.081,2.435v4.21a4.311,4.311,0,0,0,.4,2V0ZM84.964-1.934a1.652,1.652,0,0,0,.918-.237,1.487,1.487,0,0,0,.523-.536V-4.228h-.861Q84-4.228,84-2.839a.848.848,0,0,0,.272.655A.986.986,0,0,0,84.964-1.934Zm14.555-.176a1.317,1.317,0,0,0,.967-.338,1.241,1.241,0,0,0,.334-.945H103.6a3.288,3.288,0,0,1-1.121,2.566,4.168,4.168,0,0,1-2.887,1,4.22,4.22,0,0,1-3.27-1.3,5.125,5.125,0,0,1-1.2-3.6v-.123A5.792,5.792,0,0,1,95.656-7.4a3.872,3.872,0,0,1,1.534-1.7,4.573,4.573,0,0,1,2.373-.593,4.116,4.116,0,0,1,2.944,1.028,3.647,3.647,0,0,1,1.09,2.786h-2.777A1.626,1.626,0,0,0,100.459-7a1.244,1.244,0,0,0-.967-.4q-1.151,0-1.345,1.468a10.357,10.357,0,0,0-.062,1.283,4.068,4.068,0,0,0,.343,1.986A1.187,1.187,0,0,0,99.519-2.109ZM107.974,0H105V-9.51h2.971Zm-3.146-11.971a1.334,1.334,0,0,1,.457-1.043,1.718,1.718,0,0,1,1.187-.407,1.718,1.718,0,0,1,1.187.407,1.334,1.334,0,0,1,.457,1.043,1.334,1.334,0,0,1-.457,1.043,1.718,1.718,0,0,1-1.187.407,1.718,1.718,0,0,1-1.187-.407A1.334,1.334,0,0,1,104.827-11.971ZM115.462-1.028a3.054,3.054,0,0,1-2.54,1.2,3,3,0,0,1-2.369-.91,3.826,3.826,0,0,1-.8-2.615V-9.51h2.962v6.179A1.065,1.065,0,0,0,113.9-2.109a1.548,1.548,0,0,0,1.45-.729V-9.51h2.979V0H115.55Zm4.113-3.8a5.809,5.809,0,0,1,.976-3.56,3.211,3.211,0,0,1,2.725-1.3,2.731,2.731,0,0,1,2.145,1V-13.5h2.971V0h-2.663l-.149-1.02a2.8,2.8,0,0,1-2.32,1.2,3.205,3.205,0,0,1-2.689-1.3A5.993,5.993,0,0,1,119.575-4.825Zm2.962.185q0,2.531,1.477,2.531a1.458,1.458,0,0,0,1.406-.826V-6.557a1.419,1.419,0,0,0-1.389-.844q-1.371,0-1.485,2.215ZM135.431,0a3.344,3.344,0,0,1-.281-.853A2.754,2.754,0,0,1,132.864.176a3.374,3.374,0,0,1-2.285-.813,2.588,2.588,0,0,1-.94-2.043,2.66,2.66,0,0,1,1.143-2.338A5.821,5.821,0,0,1,134.1-5.81h.914v-.5q0-1.316-1.134-1.316a.927.927,0,0,0-1.055,1.042h-2.962a2.655,2.655,0,0,1,1.173-2.239,4.931,4.931,0,0,1,2.993-.86,4.323,4.323,0,0,1,2.874.888,3.086,3.086,0,0,1,1.081,2.435v4.21a4.311,4.311,0,0,0,.4,2V0Zm-1.854-1.934a1.652,1.652,0,0,0,.918-.237,1.487,1.487,0,0,0,.523-.536V-4.228h-.861q-1.547,0-1.547,1.389a.848.848,0,0,0,.272.655A.986.986,0,0,0,133.576-1.934Zm5.678-2.892a5.809,5.809,0,0,1,.976-3.56,3.211,3.211,0,0,1,2.725-1.3,2.731,2.731,0,0,1,2.145,1V-13.5h2.971V0h-2.663l-.149-1.02a2.8,2.8,0,0,1-2.32,1.2,3.205,3.205,0,0,1-2.689-1.3A5.993,5.993,0,0,1,139.254-4.825Zm2.962.185q0,2.531,1.477,2.531a1.458,1.458,0,0,0,1.406-.826V-6.557A1.419,1.419,0,0,0,143.71-7.4q-1.371,0-1.485,2.215Z" transform="translate(726 6460)" fill="#12263f"/>
    <g id="Grupo_1080609" data-name="Grupo 1080609" transform="translate(-3)">
      <g id="Grupo_1080607" data-name="Grupo 1080607" transform="translate(-14)">
        <path id="Trazado_828878" data-name="Trazado 828878" d="M9.434,0H8.02V-4.929H2.644V0H1.238V-10.664H2.644v4.585H8.02v-4.585H9.434Zm7.178-.784a2.878,2.878,0,0,1-2.322.93A2.464,2.464,0,0,1,12.36-.59a3.186,3.186,0,0,1-.67-2.179V-7.925h1.355v5.12q0,1.8,1.465,1.8a2.028,2.028,0,0,0,2.065-1.157V-7.925H17.93V0H16.641Zm4.651-7.141.037.879A2.927,2.927,0,0,1,23.65-8.071,2.266,2.266,0,0,1,25.913-6.8a3,3,0,0,1,1.029-.923,3.039,3.039,0,0,1,1.5-.352q2.607,0,2.651,2.761V0H29.736V-5.229A1.82,1.82,0,0,0,29.348-6.5a1.71,1.71,0,0,0-1.3-.421,1.8,1.8,0,0,0-1.252.45,1.827,1.827,0,0,0-.579,1.212V0H24.851V-5.193a1.512,1.512,0,0,0-1.692-1.729,1.813,1.813,0,0,0-1.824,1.135V0H19.98V-7.925ZM36.423.146A3.463,3.463,0,0,1,33.8-.912a3.928,3.928,0,0,1-1.011-2.831v-.249a4.756,4.756,0,0,1,.45-2.106,3.514,3.514,0,0,1,1.26-1.45,3.167,3.167,0,0,1,1.754-.524,2.968,2.968,0,0,1,2.4,1.018,4.408,4.408,0,0,1,.857,2.915v.564H34.146a2.817,2.817,0,0,0,.685,1.893A2.153,2.153,0,0,0,36.5-.959a2.36,2.36,0,0,0,1.216-.293,3.055,3.055,0,0,0,.872-.776l.828.645A3.328,3.328,0,0,1,36.423.146Zm-.168-7.1a1.807,1.807,0,0,0-1.377.6,2.9,2.9,0,0,0-.688,1.674h3.97v-.1a2.581,2.581,0,0,0-.557-1.6A1.7,1.7,0,0,0,36.255-6.958Zm4.5,2.93a4.642,4.642,0,0,1,.864-2.933,2.733,2.733,0,0,1,2.263-1.11,2.748,2.748,0,0,1,2.2.952V-11.25h1.355V0H46.194l-.066-.85a2.759,2.759,0,0,1-2.263,1A2.707,2.707,0,0,1,41.62-.981a4.7,4.7,0,0,1-.868-2.944Zm1.355.154a3.515,3.515,0,0,0,.557,2.109A1.8,1.8,0,0,0,44.2-1a1.977,1.977,0,0,0,1.882-1.157V-5.8a1.992,1.992,0,0,0-1.868-1.121,1.808,1.808,0,0,0-1.553.769A3.87,3.87,0,0,0,42.107-3.875ZM54.434,0a2.846,2.846,0,0,1-.19-.835,3.023,3.023,0,0,1-2.256.981,2.8,2.8,0,0,1-1.923-.663A2.145,2.145,0,0,1,49.314-2.2a2.24,2.24,0,0,1,.941-1.923A4.437,4.437,0,0,1,52.9-4.8h1.318v-.623A1.522,1.522,0,0,0,53.8-6.559a1.707,1.707,0,0,0-1.252-.421,1.976,1.976,0,0,0-1.216.366,1.079,1.079,0,0,0-.491.886H49.475A1.87,1.87,0,0,1,49.9-6.874a2.874,2.874,0,0,1,1.143-.875,3.844,3.844,0,0,1,1.586-.322,3.133,3.133,0,0,1,2.146.685A2.47,2.47,0,0,1,55.576-5.5v3.647a4.459,4.459,0,0,0,.278,1.736V0ZM52.185-1.033a2.381,2.381,0,0,0,1.208-.33,1.994,1.994,0,0,0,.828-.857V-3.845H53.159q-2.49,0-2.49,1.458a1.234,1.234,0,0,0,.425,1A1.633,1.633,0,0,0,52.185-1.033Zm5.186-3a4.642,4.642,0,0,1,.864-2.933A2.733,2.733,0,0,1,60.5-8.071a2.748,2.748,0,0,1,2.2.952V-11.25h1.355V0H62.813l-.066-.85a2.759,2.759,0,0,1-2.263,1A2.707,2.707,0,0,1,58.239-.981a4.7,4.7,0,0,1-.868-2.944Zm1.355.154a3.515,3.515,0,0,0,.557,2.109A1.8,1.8,0,0,0,60.82-1,1.977,1.977,0,0,0,62.7-2.161V-5.8a1.992,1.992,0,0,0-1.868-1.121,1.808,1.808,0,0,0-1.553.769A3.87,3.87,0,0,0,58.726-3.875ZM76.2-7.881A2.476,2.476,0,0,1,75.78-6.46a2.865,2.865,0,0,1-1.139.974,3.056,3.056,0,0,1,1.322,1.047,2.636,2.636,0,0,1,.487,1.56,2.787,2.787,0,0,1-.934,2.2,3.588,3.588,0,0,1-2.457.82,3.572,3.572,0,0,1-2.465-.824,2.8,2.8,0,0,1-.927-2.2,2.714,2.714,0,0,1,.472-1.56,2.94,2.94,0,0,1,1.307-1.055,2.8,2.8,0,0,1-1.121-.974,2.512,2.512,0,0,1-.41-1.414,2.757,2.757,0,0,1,.864-2.139,3.242,3.242,0,0,1,2.278-.791,3.245,3.245,0,0,1,2.274.791A2.751,2.751,0,0,1,76.2-7.881ZM75.1-2.908a1.965,1.965,0,0,0-.568-1.458,2.013,2.013,0,0,0-1.483-.564,1.978,1.978,0,0,0-1.469.557,1.988,1.988,0,0,0-.553,1.465,1.893,1.893,0,0,0,.538,1.428,2.066,2.066,0,0,0,1.5.52,2.06,2.06,0,0,0,1.494-.524A1.888,1.888,0,0,0,75.1-2.908ZM73.059-9.7a1.748,1.748,0,0,0-1.293.494,1.816,1.816,0,0,0-.494,1.344,1.807,1.807,0,0,0,.487,1.315,1.729,1.729,0,0,0,1.3.5,1.729,1.729,0,0,0,1.3-.5,1.807,1.807,0,0,0,.487-1.315,1.808,1.808,0,0,0-.505-1.326A1.724,1.724,0,0,0,73.059-9.7ZM84.844-4.548a6.2,6.2,0,0,1-.813,3.538A2.891,2.891,0,0,1,81.489.146,2.912,2.912,0,0,1,78.962-.985a5.882,5.882,0,0,1-.85-3.38V-6.174a6.059,6.059,0,0,1,.813-3.494,2.914,2.914,0,0,1,2.549-1.143,2.94,2.94,0,0,1,2.534,1.1,5.847,5.847,0,0,1,.835,3.4ZM83.489-6.4a4.965,4.965,0,0,0-.483-2.509A1.664,1.664,0,0,0,81.475-9.7a1.642,1.642,0,0,0-1.516.784,4.848,4.848,0,0,0-.491,2.41v2.168a5.045,5.045,0,0,0,.5,2.552,1.661,1.661,0,0,0,1.52.824,1.638,1.638,0,0,0,1.49-.776,4.862,4.862,0,0,0,.509-2.446Zm2.974-2.212a2.164,2.164,0,0,1,.612-1.582,2.107,2.107,0,0,1,1.571-.623,2.094,2.094,0,0,1,1.578.626,2.239,2.239,0,0,1,.6,1.622v.52a2.136,2.136,0,0,1-.612,1.578,2.108,2.108,0,0,1-1.556.612,2.155,2.155,0,0,1-1.575-.612,2.181,2.181,0,0,1-.623-1.63Zm1.011.561a1.386,1.386,0,0,0,.322.943,1.087,1.087,0,0,0,.864.371A1.066,1.066,0,0,0,89.5-7.1a1.431,1.431,0,0,0,.319-.984v-.536a1.421,1.421,0,0,0-.315-.947,1.061,1.061,0,0,0-.857-.374,1.061,1.061,0,0,0-.857.374,1.465,1.465,0,0,0-.315.976Zm4.182,5.438a2.151,2.151,0,0,1,.612-1.578,2.113,2.113,0,0,1,1.571-.619,2.132,2.132,0,0,1,1.575.615,2.208,2.208,0,0,1,.615,1.633v.52a2.151,2.151,0,0,1-.612,1.578,2.1,2.1,0,0,1-1.564.619,2.155,2.155,0,0,1-1.575-.612,2.181,2.181,0,0,1-.623-1.63Zm1.011.568a1.4,1.4,0,0,0,.322.951,1.087,1.087,0,0,0,.864.371,1.059,1.059,0,0,0,.842-.363,1.456,1.456,0,0,0,.315-.987v-.543a1.393,1.393,0,0,0-.319-.947,1.073,1.073,0,0,0-.853-.367,1.084,1.084,0,0,0-.846.363,1.413,1.413,0,0,0-.326.98Zm-3.7,1.241L88.2-1.289l5.208-8.335.769.483Z" transform="translate(1086 6513.546)" fill="#263238"/>
        <path id="Trazado_828879" data-name="Trazado 828879" d="M7.119-4.709H2.644V0H1.238V-10.664H7.844v1.15h-5.2v3.655H7.119ZM14.048-.784a2.878,2.878,0,0,1-2.322.93A2.464,2.464,0,0,1,9.8-.59a3.186,3.186,0,0,1-.67-2.179V-7.925h1.355v5.12q0,1.8,1.465,1.8a2.028,2.028,0,0,0,2.065-1.157V-7.925h1.355V0H14.077Zm6.665.93A3.463,3.463,0,0,1,18.091-.912,3.928,3.928,0,0,1,17.08-3.743v-.249a4.756,4.756,0,0,1,.45-2.106,3.514,3.514,0,0,1,1.26-1.45,3.167,3.167,0,0,1,1.754-.524,2.968,2.968,0,0,1,2.4,1.018A4.408,4.408,0,0,1,23.8-4.138v.564H18.435a2.817,2.817,0,0,0,.685,1.893,2.153,2.153,0,0,0,1.666.721A2.36,2.36,0,0,0,22-1.252a3.055,3.055,0,0,0,.872-.776l.828.645A3.328,3.328,0,0,1,20.713.146Zm-.168-7.1a1.807,1.807,0,0,0-1.377.6,2.9,2.9,0,0,0-.688,1.674h3.97v-.1a2.581,2.581,0,0,0-.557-1.6A1.7,1.7,0,0,0,20.544-6.958Zm8.657.249a4.061,4.061,0,0,0-.667-.051,1.786,1.786,0,0,0-1.809,1.135V0H25.371V-7.925h1.318l.022.916A2.11,2.11,0,0,1,28.6-8.071a1.384,1.384,0,0,1,.6.1Zm2.52,5.6h4.636V0H30.066V-1L34.438-6.8H30.132V-7.925h6.006v.959ZM42.773,0a2.846,2.846,0,0,1-.19-.835,3.023,3.023,0,0,1-2.256.981A2.8,2.8,0,0,1,38.4-.516,2.145,2.145,0,0,1,37.654-2.2a2.24,2.24,0,0,1,.941-1.923A4.437,4.437,0,0,1,41.243-4.8h1.318v-.623a1.522,1.522,0,0,0-.425-1.132,1.707,1.707,0,0,0-1.252-.421,1.976,1.976,0,0,0-1.216.366,1.079,1.079,0,0,0-.491.886H37.815a1.87,1.87,0,0,1,.421-1.146,2.874,2.874,0,0,1,1.143-.875,3.844,3.844,0,0,1,1.586-.322,3.133,3.133,0,0,1,2.146.685A2.47,2.47,0,0,1,43.916-5.5v3.647a4.459,4.459,0,0,0,.278,1.736V0ZM40.525-1.033a2.381,2.381,0,0,0,1.208-.33,1.994,1.994,0,0,0,.828-.857V-3.845H41.5q-2.49,0-2.49,1.458a1.234,1.234,0,0,0,.425,1A1.633,1.633,0,0,0,40.525-1.033Zm8.9-3a4.642,4.642,0,0,1,.864-2.933,2.733,2.733,0,0,1,2.263-1.11,2.748,2.748,0,0,1,2.2.952V-11.25h1.355V0H54.866L54.8-.85a2.759,2.759,0,0,1-2.263,1A2.707,2.707,0,0,1,50.292-.981a4.7,4.7,0,0,1-.868-2.944Zm1.355.154a3.515,3.515,0,0,0,.557,2.109A1.8,1.8,0,0,0,52.874-1a1.977,1.977,0,0,0,1.882-1.157V-5.8a1.992,1.992,0,0,0-1.868-1.121,1.808,1.808,0,0,0-1.553.769A3.87,3.87,0,0,0,50.779-3.875ZM61.5.146A3.463,3.463,0,0,1,58.879-.912a3.928,3.928,0,0,1-1.011-2.831v-.249a4.756,4.756,0,0,1,.45-2.106,3.514,3.514,0,0,1,1.26-1.45,3.167,3.167,0,0,1,1.754-.524,2.968,2.968,0,0,1,2.4,1.018,4.408,4.408,0,0,1,.857,2.915v.564H59.224a2.817,2.817,0,0,0,.685,1.893,2.153,2.153,0,0,0,1.666.721,2.36,2.36,0,0,0,1.216-.293,3.055,3.055,0,0,0,.872-.776l.828.645A3.328,3.328,0,0,1,61.5.146Zm-.168-7.1a1.807,1.807,0,0,0-1.377.6,2.9,2.9,0,0,0-.688,1.674h3.97v-.1a2.581,2.581,0,0,0-.557-1.6A1.7,1.7,0,0,0,61.333-6.958ZM67.632,0H66.277V-11.25h1.355Zm8.5-1.838,1.963-6.086h1.384L76.633,0H75.6L72.729-7.925h1.384ZM82.251,0H80.9V-7.925h1.355ZM80.786-10.027a.809.809,0,0,1,.2-.557.756.756,0,0,1,.6-.227.768.768,0,0,1,.6.227.8.8,0,0,1,.205.557.774.774,0,0,1-.205.549.782.782,0,0,1-.6.22.77.77,0,0,1-.6-.22A.782.782,0,0,1,80.786-10.027ZM87.708.146A3.463,3.463,0,0,1,85.085-.912a3.928,3.928,0,0,1-1.011-2.831v-.249a4.756,4.756,0,0,1,.45-2.106,3.514,3.514,0,0,1,1.26-1.45,3.167,3.167,0,0,1,1.754-.524,2.968,2.968,0,0,1,2.4,1.018A4.408,4.408,0,0,1,90.8-4.138v.564H85.43a2.817,2.817,0,0,0,.685,1.893,2.153,2.153,0,0,0,1.666.721A2.36,2.36,0,0,0,89-1.252a3.055,3.055,0,0,0,.872-.776l.828.645A3.328,3.328,0,0,1,87.708.146Zm-.168-7.1a1.807,1.807,0,0,0-1.377.6,2.9,2.9,0,0,0-.688,1.674h3.97v-.1a2.581,2.581,0,0,0-.557-1.6A1.7,1.7,0,0,0,87.539-6.958Zm6.108-.967.044,1a2.888,2.888,0,0,1,2.373-1.143q2.512,0,2.534,2.834V0H97.244V-5.244a1.824,1.824,0,0,0-.392-1.267,1.57,1.57,0,0,0-1.2-.41A1.956,1.956,0,0,0,94.5-6.57a2.387,2.387,0,0,0-.776.923V0H92.366V-7.925Zm8.833-1.919v1.919h1.479v1.047H102.48v4.921a1.1,1.1,0,0,0,.2.715.832.832,0,0,0,.674.238A3.281,3.281,0,0,0,104-1.091V0a3.951,3.951,0,0,1-1.04.146,1.687,1.687,0,0,1-1.37-.549,2.36,2.36,0,0,1-.461-1.56V-6.877H99.683V-7.925h1.443V-9.844Zm2.556,5.808a4.681,4.681,0,0,1,.458-2.095,3.415,3.415,0,0,1,1.274-1.436,3.469,3.469,0,0,1,1.864-.505,3.342,3.342,0,0,1,2.618,1.121,4.311,4.311,0,0,1,1,2.981v.1a4.722,4.722,0,0,1-.443,2.076,3.365,3.365,0,0,1-1.267,1.432,3.509,3.509,0,0,1-1.893.513,3.334,3.334,0,0,1-2.611-1.121,4.29,4.29,0,0,1-1-2.966Zm1.362.161a3.39,3.39,0,0,0,.612,2.117,1.957,1.957,0,0,0,1.637.8,1.945,1.945,0,0,0,1.641-.809,3.707,3.707,0,0,0,.608-2.267,3.384,3.384,0,0,0-.619-2.113,1.968,1.968,0,0,0-1.644-.809,1.946,1.946,0,0,0-1.619.8A3.68,3.68,0,0,0,106.4-3.875Z" transform="translate(1078 6855)" fill="#263238"/>
        <g id="Grupo_1076990" data-name="Grupo 1076990" transform="translate(262.742 -13.443)">
          <g transform="matrix(1, 0, 0, 1, -64.74, 6428.13)" filter="url(#Elipse_10562)">
            <g id="Elipse_10562-2" data-name="Elipse 10562" transform="translate(822 150.32)" fill="#fff" stroke="#12263f" stroke-width="2" opacity="0.47">
              <circle cx="117.5" cy="117.5" r="117.5" stroke="none"/>
              <circle cx="117.5" cy="117.5" r="116.5" fill="none"/>
            </g>
          </g>
          <path id="Trazado_828887" data-name="Trazado 828887" d="M9.624,0h-2.2L3.149-7.017V0H.952V-10.664h2.2L7.434-3.633v-7.031h2.19Z" transform="translate(869.258 6569.443)" fill="#263238"/>
          <path id="Trazado_828880" data-name="Trazado 828880" d="M9.624,0h-2.2L3.149-7.017V0H.952V-10.664h2.2L7.434-3.633v-7.031h2.19ZM20.3-5.09a6.438,6.438,0,0,1-.557,2.761A4.192,4.192,0,0,1,18.153-.5a4.407,4.407,0,0,1-2.377.645,4.437,4.437,0,0,1-2.366-.637A4.233,4.233,0,0,1,11.8-2.311a6.253,6.253,0,0,1-.579-2.721v-.527a6.4,6.4,0,0,1,.568-2.772,4.226,4.226,0,0,1,1.6-1.838,4.412,4.412,0,0,1,2.369-.641,4.412,4.412,0,0,1,2.369.641,4.226,4.226,0,0,1,1.6,1.838A6.386,6.386,0,0,1,20.3-5.566Zm-2.227-.483a4.488,4.488,0,0,0-.6-2.549,1.957,1.957,0,0,0-1.714-.872,1.958,1.958,0,0,0-1.707.861,4.436,4.436,0,0,0-.608,2.523v.52a4.544,4.544,0,0,0,.6,2.534,1.952,1.952,0,0,0,1.729.9,1.935,1.935,0,0,0,1.7-.868,4.517,4.517,0,0,0,.6-2.531Z" transform="translate(763.258 6604.443)" fill="#263238"/>
          <path id="Trazado_828886" data-name="Trazado 828886" d="M9.624,0h-2.2L3.149-7.017V0H.952V-10.664h2.2L7.434-3.633v-7.031h2.19Zm8.335-4.636H13.74v2.871h4.951V0H11.543V-10.664h7.134v1.78H13.74v2.542h4.219Z" transform="translate(964.258 6604.443)" fill="#263238"/>
          <path id="Trazado_828885" data-name="Trazado 828885" d="M7.368-4.636H3.149v2.871H8.1V0H.952V-10.664H8.086v1.78H3.149v2.542H7.368Z" transform="translate(1000.258 6702.443)" fill="#263238"/>
          <path id="Trazado_828881" data-name="Trazado 828881" d="M9.712-5.09a6.438,6.438,0,0,1-.557,2.761A4.192,4.192,0,0,1,7.562-.5,4.407,4.407,0,0,1,5.186.146,4.437,4.437,0,0,1,2.82-.491a4.233,4.233,0,0,1-1.611-1.82A6.253,6.253,0,0,1,.63-5.032v-.527A6.4,6.4,0,0,1,1.2-8.331,4.226,4.226,0,0,1,2.8-10.17a4.412,4.412,0,0,1,2.369-.641,4.412,4.412,0,0,1,2.369.641,4.226,4.226,0,0,1,1.6,1.838,6.386,6.386,0,0,1,.568,2.765ZM7.485-5.574a4.488,4.488,0,0,0-.6-2.549,1.957,1.957,0,0,0-1.714-.872,1.958,1.958,0,0,0-1.707.861A4.436,4.436,0,0,0,2.856-5.61v.52a4.544,4.544,0,0,0,.6,2.534,1.952,1.952,0,0,0,1.729.9,1.935,1.935,0,0,0,1.7-.868,4.517,4.517,0,0,0,.6-2.531Z" transform="translate(734.258 6702.443)" fill="#263238"/>
          <path id="Trazado_828884" data-name="Trazado 828884" d="M6.482-2.8a1.128,1.128,0,0,0-.439-.956,5.764,5.764,0,0,0-1.582-.7,11.215,11.215,0,0,1-1.809-.729A2.956,2.956,0,0,1,.835-7.83a2.575,2.575,0,0,1,.487-1.542,3.177,3.177,0,0,1,1.4-1.058,5.265,5.265,0,0,1,2.047-.381A4.793,4.793,0,0,1,6.8-10.4,3.242,3.242,0,0,1,8.192-9.229a3.057,3.057,0,0,1,.494,1.714h-2.2a1.438,1.438,0,0,0-.461-1.139,1.9,1.9,0,0,0-1.3-.406,2.026,2.026,0,0,0-1.252.341,1.074,1.074,0,0,0-.447.9,1.029,1.029,0,0,0,.524.872A5.916,5.916,0,0,0,5.1-6.292a6.661,6.661,0,0,1,2.732,1.4,2.786,2.786,0,0,1,.857,2.08A2.566,2.566,0,0,1,7.639-.641a4.585,4.585,0,0,1-2.82.787A5.445,5.445,0,0,1,2.578-.3,3.546,3.546,0,0,1,1.036-1.538,3.161,3.161,0,0,1,.505-3.354h2.2q0,1.765,2.109,1.765a2.052,2.052,0,0,0,1.223-.319A1.037,1.037,0,0,0,6.482-2.8ZM16.589-4.636H12.371v2.871h4.951V0H10.173V-10.664h7.134v1.78H12.371v2.542h4.219Z" transform="translate(964.258 6796.443)" fill="#263238"/>
          <path id="Trazado_828882" data-name="Trazado 828882" d="M6.482-2.8a1.128,1.128,0,0,0-.439-.956,5.764,5.764,0,0,0-1.582-.7,11.215,11.215,0,0,1-1.809-.729A2.956,2.956,0,0,1,.835-7.83a2.575,2.575,0,0,1,.487-1.542,3.177,3.177,0,0,1,1.4-1.058,5.265,5.265,0,0,1,2.047-.381A4.793,4.793,0,0,1,6.8-10.4,3.242,3.242,0,0,1,8.192-9.229a3.057,3.057,0,0,1,.494,1.714h-2.2a1.438,1.438,0,0,0-.461-1.139,1.9,1.9,0,0,0-1.3-.406,2.026,2.026,0,0,0-1.252.341,1.074,1.074,0,0,0-.447.9,1.029,1.029,0,0,0,.524.872A5.916,5.916,0,0,0,5.1-6.292a6.661,6.661,0,0,1,2.732,1.4,2.786,2.786,0,0,1,.857,2.08A2.566,2.566,0,0,1,7.639-.641a4.585,4.585,0,0,1-2.82.787A5.445,5.445,0,0,1,2.578-.3,3.546,3.546,0,0,1,1.036-1.538,3.161,3.161,0,0,1,.505-3.354h2.2q0,1.765,2.109,1.765a2.052,2.052,0,0,0,1.223-.319A1.037,1.037,0,0,0,6.482-2.8ZM18.933-5.09a6.438,6.438,0,0,1-.557,2.761A4.192,4.192,0,0,1,16.783-.5a4.407,4.407,0,0,1-2.377.645,4.437,4.437,0,0,1-2.366-.637,4.233,4.233,0,0,1-1.611-1.82,6.253,6.253,0,0,1-.579-2.721v-.527a6.4,6.4,0,0,1,.568-2.772,4.226,4.226,0,0,1,1.6-1.838,4.412,4.412,0,0,1,2.369-.641,4.412,4.412,0,0,1,2.369.641,4.226,4.226,0,0,1,1.6,1.838,6.386,6.386,0,0,1,.568,2.765Zm-2.227-.483a4.488,4.488,0,0,0-.6-2.549,1.957,1.957,0,0,0-1.714-.872,1.958,1.958,0,0,0-1.707.861,4.436,4.436,0,0,0-.608,2.523v.52a4.544,4.544,0,0,0,.6,2.534,1.952,1.952,0,0,0,1.729.9,1.935,1.935,0,0,0,1.7-.868,4.517,4.517,0,0,0,.6-2.531Z" transform="translate(762.258 6796.443)" fill="#263238"/>
          <path id="Trazado_828883" data-name="Trazado 828883" d="M6.482-2.8a1.128,1.128,0,0,0-.439-.956,5.764,5.764,0,0,0-1.582-.7,11.215,11.215,0,0,1-1.809-.729A2.956,2.956,0,0,1,.835-7.83a2.575,2.575,0,0,1,.487-1.542,3.177,3.177,0,0,1,1.4-1.058,5.265,5.265,0,0,1,2.047-.381A4.793,4.793,0,0,1,6.8-10.4,3.242,3.242,0,0,1,8.192-9.229a3.057,3.057,0,0,1,.494,1.714h-2.2a1.438,1.438,0,0,0-.461-1.139,1.9,1.9,0,0,0-1.3-.406,2.026,2.026,0,0,0-1.252.341,1.074,1.074,0,0,0-.447.9,1.029,1.029,0,0,0,.524.872A5.916,5.916,0,0,0,5.1-6.292a6.661,6.661,0,0,1,2.732,1.4,2.786,2.786,0,0,1,.857,2.08A2.566,2.566,0,0,1,7.639-.641a4.585,4.585,0,0,1-2.82.787A5.445,5.445,0,0,1,2.578-.3,3.546,3.546,0,0,1,1.036-1.538,3.161,3.161,0,0,1,.505-3.354h2.2q0,1.765,2.109,1.765a2.052,2.052,0,0,0,1.223-.319A1.037,1.037,0,0,0,6.482-2.8Z" transform="translate(869.258 6832.443)" fill="#263238"/>
          <g transform="matrix(1, 0, 0, 1, -64.74, 6428.13)" filter="url(#Elipse_10563)">
            <g id="Elipse_10563-2" data-name="Elipse 10563" transform="translate(904 231.32)" fill="#fafafa" stroke="#3a3e44" stroke-width="1">
              <ellipse cx="35" cy="35.5" rx="35" ry="35.5" stroke="none"/>
              <ellipse cx="35" cy="35.5" rx="34.5" ry="35" fill="none"/>
            </g>
          </g>
          <g transform="matrix(1, 0, 0, 1, -64.74, 6428.13)" filter="url(#Trazado_825220)">
            <path id="Trazado_825220-2" data-name="Trazado 825220" d="M-3572.071-5049.092l13.083,23.089a42.365,42.365,0,0,1,4.584-10.684,48.161,48.161,0,0,1,7.923-9.134Z" transform="translate(4461.99 5283.14)" fill="#63b4f4"/>
          </g>
          <g transform="matrix(1, 0, 0, 1, -64.74, 6428.13)" filter="url(#Trazado_825225)">
            <path id="Trazado_825225-2" data-name="Trazado 825225" d="M-3515.806-4991.83l65.212,26.417-47.852-51.476s-1.547,8.831-5.887,15.1S-3515.806-4991.83-3515.806-4991.83Z" transform="translate(4473.7 5290.09)" fill="#63b4f4"/>
          </g>
          <path id="Trazado_825226" data-name="Trazado 825226" d="M-3603.039-5090.443l9.736,9.021" transform="translate(4396.85 11708.016)" fill="none" stroke="#12263f" stroke-linecap="round" stroke-width="1"/>
          <path id="Trazado_825229" data-name="Trazado 825229" d="M-3603.039-5081.422l9.736-9.022" transform="translate(4396.85 11854.915)" fill="none" stroke="#12263f" stroke-linecap="round" stroke-width="1"/>
          <path id="Trazado_825227" data-name="Trazado 825227" d="M-3593.3-5090.443l-9.736,9.021" transform="translate(4548.56 11708.016)" fill="none" stroke="#12263f" stroke-linecap="round" stroke-width="1"/>
          <path id="Trazado_825228" data-name="Trazado 825228" d="M-3593.3-5081.422l-9.736-9.022" transform="translate(4548.56 11854.915)" fill="none" stroke="#12263f" stroke-linecap="round" stroke-width="1"/>
          <path id="Trazado_825231" data-name="Trazado 825231" d="M-3445.1-5019.551h13.731" transform="translate(4418.764 11715.063)" fill="none" stroke="#12263f" stroke-linecap="round" stroke-width="1"/>
          <path id="Trazado_825233" data-name="Trazado 825233" d="M0,0H13.731" transform="translate(874.708 6584.472) rotate(90)" fill="none" stroke="#12263f" stroke-linecap="round" stroke-width="1"/>
          <path id="Trazado_825234" data-name="Trazado 825234" d="M0,0H13.731" transform="translate(874.708 6788.825) rotate(90)" fill="none" stroke="#12263f" stroke-linecap="round" stroke-width="1"/>
          <path id="Trazado_825232" data-name="Trazado 825232" d="M-3445.1-5019.551h13.731" transform="translate(4206.437 11715.063)" fill="none" stroke="#12263f" stroke-linecap="round" stroke-width="1"/>
          <path id="Trazado_828888" data-name="Trazado 828888" d="M4.869,0H3.333V-7.425l-2.266.773V-7.947L4.672-9.274h.2ZM8.493-4.583l.5-4.659h4.964v1.333H10.277L10.023-5.7a2.854,2.854,0,0,1,1.447-.368,2.575,2.575,0,0,1,2.053.844,3.346,3.346,0,0,1,.733,2.272,3.079,3.079,0,0,1-.812,2.244,2.965,2.965,0,0,1-2.228.835,3.106,3.106,0,0,1-2.1-.72,2.6,2.6,0,0,1-.9-1.9H9.7a1.629,1.629,0,0,0,.482,1.031A1.467,1.467,0,0,0,11.21-1.1a1.326,1.326,0,0,0,1.108-.508A2.192,2.192,0,0,0,12.714-3a1.937,1.937,0,0,0-.438-1.336,1.532,1.532,0,0,0-1.206-.492,2.006,2.006,0,0,0-.711.111,2.014,2.014,0,0,0-.635.435ZM20.255-6.868l.044.717A2.471,2.471,0,0,1,22.28-7a1.9,1.9,0,0,1,1.885,1.054A2.436,2.436,0,0,1,26.273-7a2.141,2.141,0,0,1,1.692.628,2.767,2.767,0,0,1,.568,1.854V0H26.99V-4.469a1.366,1.366,0,0,0-.286-.958,1.25,1.25,0,0,0-.946-.3,1.284,1.284,0,0,0-.86.282,1.49,1.49,0,0,0-.467.74L24.438,0H22.9V-4.52a1.1,1.1,0,0,0-1.238-1.212,1.358,1.358,0,0,0-1.314.755V0H18.8V-6.868ZM30.551.793H29.339L32.976-9.242h1.212Zm8.557-2.66a.7.7,0,0,0-.34-.628,3.612,3.612,0,0,0-1.127-.381,5.792,5.792,0,0,1-1.314-.419,1.754,1.754,0,0,1-1.155-1.619A1.828,1.828,0,0,1,35.921-6.4a2.961,2.961,0,0,1,1.9-.6,3.081,3.081,0,0,1,1.99.609,1.934,1.934,0,0,1,.759,1.581H39.032a.951.951,0,0,0-.33-.74,1.265,1.265,0,0,0-.876-.3A1.367,1.367,0,0,0,37-5.6a.74.74,0,0,0-.321.628.625.625,0,0,0,.3.552,4.1,4.1,0,0,0,1.206.4,5.709,5.709,0,0,1,1.425.476,2.018,2.018,0,0,1,.768.663,1.692,1.692,0,0,1,.251.939,1.789,1.789,0,0,1-.768,1.5,3.275,3.275,0,0,1-2.012.574,3.551,3.551,0,0,1-1.5-.3,2.476,2.476,0,0,1-1.028-.838,1.983,1.983,0,0,1-.368-1.149h1.5a1.087,1.087,0,0,0,.413.841,1.6,1.6,0,0,0,1.009.3,1.56,1.56,0,0,0,.927-.232A.717.717,0,0,0,39.108-1.866Z" transform="translate(854.258 6699.943)" fill="#263238"/>
        </g>
      </g>
      <g id="Grupo_1080608" data-name="Grupo 1080608">
        <g id="Grupo_1080606" data-name="Grupo 1080606" transform="translate(-1)">
          <g id="Grupo_1080604" data-name="Grupo 1080604">
            <path id="Trazado_828870" data-name="Trazado 828870" d="M8.606-9.514H5.178V0h-1.4V-9.514H.359v-1.15H8.606ZM12.539.146A3.463,3.463,0,0,1,9.917-.912,3.928,3.928,0,0,1,8.906-3.743v-.249A4.756,4.756,0,0,1,9.357-6.1a3.514,3.514,0,0,1,1.26-1.45,3.167,3.167,0,0,1,1.754-.524,2.968,2.968,0,0,1,2.4,1.018,4.408,4.408,0,0,1,.857,2.915v.564H10.261a2.817,2.817,0,0,0,.685,1.893,2.153,2.153,0,0,0,1.666.721,2.36,2.36,0,0,0,1.216-.293,3.055,3.055,0,0,0,.872-.776l.828.645A3.328,3.328,0,0,1,12.539.146Zm-.168-7.1a1.807,1.807,0,0,0-1.377.6,2.9,2.9,0,0,0-.688,1.674h3.97v-.1a2.581,2.581,0,0,0-.557-1.6A1.7,1.7,0,0,0,12.371-6.958Zm6.1-.967.037.879a2.927,2.927,0,0,1,2.351-1.025A2.266,2.266,0,0,1,23.123-6.8a3,3,0,0,1,1.029-.923,3.039,3.039,0,0,1,1.5-.352q2.607,0,2.651,2.761V0H26.946V-5.229A1.82,1.82,0,0,0,26.558-6.5a1.71,1.71,0,0,0-1.3-.421A1.8,1.8,0,0,0,24-6.471a1.827,1.827,0,0,0-.579,1.212V0H22.061V-5.193a1.512,1.512,0,0,0-1.692-1.729,1.813,1.813,0,0,0-1.824,1.135V0H17.19V-7.925Zm18.567,4.05a4.745,4.745,0,0,1-.828,2.915A2.653,2.653,0,0,1,33.97.146,2.906,2.906,0,0,1,31.7-.769V3.047H30.344V-7.925h1.238l.066.879a2.791,2.791,0,0,1,2.3-1.025,2.7,2.7,0,0,1,2.26,1.077,4.8,4.8,0,0,1,.831,3Zm-1.355-.154a3.5,3.5,0,0,0-.571-2.117,1.84,1.84,0,0,0-1.567-.776A1.992,1.992,0,0,0,31.7-5.83v3.787A2,2,0,0,0,33.56-.959a1.832,1.832,0,0,0,1.549-.773A3.822,3.822,0,0,0,35.684-4.028ZM42.048.146A3.463,3.463,0,0,1,39.426-.912a3.928,3.928,0,0,1-1.011-2.831v-.249a4.756,4.756,0,0,1,.45-2.106,3.514,3.514,0,0,1,1.26-1.45,3.167,3.167,0,0,1,1.754-.524,2.968,2.968,0,0,1,2.4,1.018,4.408,4.408,0,0,1,.857,2.915v.564H39.771a2.817,2.817,0,0,0,.685,1.893,2.153,2.153,0,0,0,1.666.721,2.36,2.36,0,0,0,1.216-.293,3.055,3.055,0,0,0,.872-.776l.828.645A3.328,3.328,0,0,1,42.048.146Zm-.168-7.1a1.807,1.807,0,0,0-1.377.6,2.9,2.9,0,0,0-.688,1.674h3.97v-.1a2.581,2.581,0,0,0-.557-1.6A1.7,1.7,0,0,0,41.88-6.958Zm8.657.249a4.061,4.061,0,0,0-.667-.051,1.786,1.786,0,0,0-1.809,1.135V0H46.707V-7.925h1.318l.022.916a2.11,2.11,0,0,1,1.89-1.062,1.384,1.384,0,0,1,.6.1ZM56.382,0a2.846,2.846,0,0,1-.19-.835,3.023,3.023,0,0,1-2.256.981,2.8,2.8,0,0,1-1.923-.663A2.145,2.145,0,0,1,51.262-2.2,2.24,2.24,0,0,1,52.2-4.12,4.437,4.437,0,0,1,54.851-4.8h1.318v-.623a1.522,1.522,0,0,0-.425-1.132,1.707,1.707,0,0,0-1.252-.421,1.976,1.976,0,0,0-1.216.366,1.079,1.079,0,0,0-.491.886H51.423a1.87,1.87,0,0,1,.421-1.146,2.874,2.874,0,0,1,1.143-.875,3.844,3.844,0,0,1,1.586-.322,3.133,3.133,0,0,1,2.146.685A2.47,2.47,0,0,1,57.524-5.5v3.647A4.459,4.459,0,0,0,57.8-.117V0ZM54.133-1.033a2.381,2.381,0,0,0,1.208-.33,1.994,1.994,0,0,0,.828-.857V-3.845H55.107q-2.49,0-2.49,1.458a1.234,1.234,0,0,0,.425,1A1.633,1.633,0,0,0,54.133-1.033Zm7.354-8.811v1.919h1.479v1.047H61.487v4.921a1.1,1.1,0,0,0,.2.715A.832.832,0,0,0,62.358-1,3.281,3.281,0,0,0,63-1.091V0a3.951,3.951,0,0,1-1.04.146A1.687,1.687,0,0,1,60.593-.4a2.36,2.36,0,0,1-.461-1.56V-6.877H58.689V-7.925h1.443V-9.844Zm7.954,9.06a2.878,2.878,0,0,1-2.322.93,2.464,2.464,0,0,1-1.93-.736,3.186,3.186,0,0,1-.67-2.179V-7.925h1.355v5.12q0,1.8,1.465,1.8A2.028,2.028,0,0,0,69.4-2.161V-7.925h1.355V0H69.47Zm7.207-5.925a4.061,4.061,0,0,0-.667-.051,1.786,1.786,0,0,0-1.809,1.135V0H72.817V-7.925h1.318l.022.916a2.11,2.11,0,0,1,1.89-1.062,1.384,1.384,0,0,1,.6.1ZM82.493,0a2.846,2.846,0,0,1-.19-.835,3.023,3.023,0,0,1-2.256.981,2.8,2.8,0,0,1-1.923-.663A2.145,2.145,0,0,1,77.373-2.2a2.24,2.24,0,0,1,.941-1.923A4.437,4.437,0,0,1,80.962-4.8H82.28v-.623a1.522,1.522,0,0,0-.425-1.132A1.707,1.707,0,0,0,80.6-6.98a1.976,1.976,0,0,0-1.216.366,1.079,1.079,0,0,0-.491.886H77.534a1.87,1.87,0,0,1,.421-1.146A2.874,2.874,0,0,1,79.1-7.749a3.844,3.844,0,0,1,1.586-.322,3.133,3.133,0,0,1,2.146.685A2.47,2.47,0,0,1,83.635-5.5v3.647a4.459,4.459,0,0,0,.278,1.736V0ZM80.244-1.033a2.381,2.381,0,0,0,1.208-.33,1.994,1.994,0,0,0,.828-.857V-3.845H81.218q-2.49,0-2.49,1.458a1.234,1.234,0,0,0,.425,1A1.633,1.633,0,0,0,80.244-1.033ZM92.761.146A3.463,3.463,0,0,1,90.139-.912a3.928,3.928,0,0,1-1.011-2.831v-.249a4.756,4.756,0,0,1,.45-2.106,3.514,3.514,0,0,1,1.26-1.45,3.167,3.167,0,0,1,1.754-.524A2.968,2.968,0,0,1,95-7.053a4.408,4.408,0,0,1,.857,2.915v.564H90.483a2.817,2.817,0,0,0,.685,1.893,2.153,2.153,0,0,0,1.666.721,2.36,2.36,0,0,0,1.216-.293,3.055,3.055,0,0,0,.872-.776l.828.645A3.328,3.328,0,0,1,92.761.146Zm-.168-7.1a1.807,1.807,0,0,0-1.377.6,2.9,2.9,0,0,0-.688,1.674H94.5v-.1a2.581,2.581,0,0,0-.557-1.6A1.7,1.7,0,0,0,92.593-6.958ZM98.7-7.925l.044,1a2.888,2.888,0,0,1,2.373-1.143q2.512,0,2.534,2.834V0H102.3V-5.244a1.824,1.824,0,0,0-.392-1.267,1.57,1.57,0,0,0-1.2-.41,1.956,1.956,0,0,0-1.157.352,2.387,2.387,0,0,0-.776.923V0H97.419V-7.925Zm14,8.071a3.463,3.463,0,0,1-2.622-1.058,3.928,3.928,0,0,1-1.011-2.831v-.249a4.756,4.756,0,0,1,.45-2.106,3.514,3.514,0,0,1,1.26-1.45,3.167,3.167,0,0,1,1.754-.524,2.968,2.968,0,0,1,2.4,1.018,4.408,4.408,0,0,1,.857,2.915v.564H110.42a2.817,2.817,0,0,0,.685,1.893,2.153,2.153,0,0,0,1.666.721,2.36,2.36,0,0,0,1.216-.293,3.055,3.055,0,0,0,.872-.776l.828.645A3.328,3.328,0,0,1,112.7.146Zm-.168-7.1a1.807,1.807,0,0,0-1.377.6,2.9,2.9,0,0,0-.688,1.674h3.97v-.1a2.581,2.581,0,0,0-.557-1.6A1.7,1.7,0,0,0,112.529-6.958ZM118.828,0h-1.355V-11.25h1.355ZM129.6,0a2.846,2.846,0,0,1-.19-.835,3.023,3.023,0,0,1-2.256.981,2.8,2.8,0,0,1-1.923-.663,2.145,2.145,0,0,1-.751-1.681,2.24,2.24,0,0,1,.941-1.923,4.437,4.437,0,0,1,2.648-.685h1.318v-.623a1.522,1.522,0,0,0-.425-1.132,1.707,1.707,0,0,0-1.252-.421,1.976,1.976,0,0,0-1.216.366,1.079,1.079,0,0,0-.491.886h-1.362a1.87,1.87,0,0,1,.421-1.146,2.874,2.874,0,0,1,1.143-.875,3.844,3.844,0,0,1,1.586-.322,3.133,3.133,0,0,1,2.146.685,2.47,2.47,0,0,1,.806,1.886v3.647a4.459,4.459,0,0,0,.278,1.736V0Zm-2.249-1.033a2.381,2.381,0,0,0,1.208-.33,1.994,1.994,0,0,0,.828-.857V-3.845h-1.062q-2.49,0-2.49,1.458a1.234,1.234,0,0,0,.425,1A1.633,1.633,0,0,0,127.354-1.033ZM134.341,0h-1.355V-7.925h1.355Zm-1.465-10.027a.809.809,0,0,1,.2-.557.756.756,0,0,1,.6-.227.768.768,0,0,1,.6.227.8.8,0,0,1,.205.557.774.774,0,0,1-.205.549.782.782,0,0,1-.6.22.77.77,0,0,1-.6-.22A.782.782,0,0,1,132.876-10.027Zm7.463,3.318a4.061,4.061,0,0,0-.667-.051,1.786,1.786,0,0,0-1.809,1.135V0h-1.355V-7.925h1.318l.022.916a2.11,2.11,0,0,1,1.89-1.062,1.384,1.384,0,0,1,.6.1ZM144.734.146a3.463,3.463,0,0,1-2.622-1.058A3.928,3.928,0,0,1,141.1-3.743v-.249a4.756,4.756,0,0,1,.45-2.106,3.514,3.514,0,0,1,1.26-1.45,3.167,3.167,0,0,1,1.754-.524,2.968,2.968,0,0,1,2.4,1.018,4.408,4.408,0,0,1,.857,2.915v.564h-5.369a2.817,2.817,0,0,0,.685,1.893,2.153,2.153,0,0,0,1.666.721,2.36,2.36,0,0,0,1.216-.293,3.055,3.055,0,0,0,.872-.776l.828.645A3.328,3.328,0,0,1,144.734.146Zm-.168-7.1a1.807,1.807,0,0,0-1.377.6,2.9,2.9,0,0,0-.688,1.674h3.97v-.1a2.581,2.581,0,0,0-.557-1.6A1.7,1.7,0,0,0,144.565-6.958Z" transform="translate(351 6855)" fill="#263238"/>
            <path id="Trazado_828869" data-name="Trazado 828869" d="M2.878-6.27H4.006a1.589,1.589,0,0,0,1.194-.4,1.476,1.476,0,0,0,.388-1.069,1.305,1.305,0,0,0-.385-1A1.49,1.49,0,0,0,4.146-9.1a1.562,1.562,0,0,0-1.018.333,1.066,1.066,0,0,0-.41.868H.6a2.6,2.6,0,0,1,.45-1.5,3,3,0,0,1,1.26-1.036,4.2,4.2,0,0,1,1.783-.374A3.987,3.987,0,0,1,6.746-10a2.761,2.761,0,0,1,.959,2.23,2.244,2.244,0,0,1-.447,1.348,2.9,2.9,0,0,1-1.172.945,2.65,2.65,0,0,1,1.344.967,2.623,2.623,0,0,1,.443,1.523A2.807,2.807,0,0,1,6.837-.71,4.167,4.167,0,0,1,4.094.146,3.951,3.951,0,0,1,1.483-.7,2.751,2.751,0,0,1,.469-2.922H2.585a1.226,1.226,0,0,0,.45.981,1.66,1.66,0,0,0,1.11.381,1.668,1.668,0,0,0,1.183-.4,1.378,1.378,0,0,0,.428-1.058q0-1.6-1.758-1.6H2.878ZM16.641,0H9.331V-1.45l3.45-3.677a8.51,8.51,0,0,0,1.051-1.355,2.177,2.177,0,0,0,.341-1.1A1.629,1.629,0,0,0,13.813-8.7,1.3,1.3,0,0,0,12.788-9.1a1.4,1.4,0,0,0-1.132.494,1.958,1.958,0,0,0-.414,1.3H9.119a3.5,3.5,0,0,1,.465-1.78A3.278,3.278,0,0,1,10.9-10.353a4,4,0,0,1,1.926-.458,3.784,3.784,0,0,1,2.56.791A2.8,2.8,0,0,1,16.3-7.786a3.586,3.586,0,0,1-.41,1.611A8.954,8.954,0,0,1,14.48-4.263L12.056-1.707h4.585Zm1.494-8.789a1.947,1.947,0,0,1,.593-1.428,1.914,1.914,0,0,1,1.4-.593,1.875,1.875,0,0,1,1.381.59,1.962,1.962,0,0,1,.582,1.432,1.913,1.913,0,0,1-.582,1.417,1.9,1.9,0,0,1-1.381.575,1.952,1.952,0,0,1-1.392-.575A1.884,1.884,0,0,1,18.135-8.789Zm1.992.908a.856.856,0,0,0,.641-.26.893.893,0,0,0,.253-.648.948.948,0,0,0-.253-.659.828.828,0,0,0-.641-.278.862.862,0,0,0-.652.278.926.926,0,0,0-.264.659.871.871,0,0,0,.267.645A.889.889,0,0,0,20.127-7.881Z" transform="translate(414 6827.535)" fill="#263238"/>
            <g id="Grupo_1080602" data-name="Grupo 1080602" transform="translate(-12)">
              <path id="Trazado_828868" data-name="Trazado 828868" d="M6.059-3.639a4.958,4.958,0,0,1-.65,2.83A2.313,2.313,0,0,1,3.375.117,2.33,2.33,0,0,1,1.354-.788a4.706,4.706,0,0,1-.68-2.7V-4.939a4.847,4.847,0,0,1,.65-2.795,2.331,2.331,0,0,1,2.039-.914,2.352,2.352,0,0,1,2.027.882,4.678,4.678,0,0,1,.668,2.722ZM4.975-5.121a3.972,3.972,0,0,0-.387-2.007,1.331,1.331,0,0,0-1.225-.63,1.314,1.314,0,0,0-1.213.627A3.878,3.878,0,0,0,1.758-5.2v1.734a4.036,4.036,0,0,0,.4,2.042,1.329,1.329,0,0,0,1.216.659,1.31,1.31,0,0,0,1.192-.621,3.89,3.89,0,0,0,.407-1.957Zm2.525-2a1.5,1.5,0,0,1,.437-1.066,1.409,1.409,0,0,1,1.058-.457,1.381,1.381,0,0,1,1.04.454,1.5,1.5,0,0,1,.431,1.069,1.46,1.46,0,0,1-.431,1.061,1.4,1.4,0,0,1-1.04.439,1.438,1.438,0,0,1-1.055-.439A1.445,1.445,0,0,1,7.5-7.125Zm1.494.75a.742.742,0,0,0,.533-.207.713.713,0,0,0,.217-.54.759.759,0,0,0-.217-.557A.721.721,0,0,0,8.994-7.9a.719.719,0,0,0-.542.231.765.765,0,0,0-.22.546.716.716,0,0,0,.22.531A.743.743,0,0,0,8.994-6.375Z" transform="translate(408 6772.535)" fill="#263238"/>
              <path id="Trazado_828867" data-name="Trazado 828867" d="M4.271,0H3.182V-7.225L1-6.422v-.984L4.1-8.572h.17ZM12.8-3.639a4.958,4.958,0,0,1-.65,2.83,2.313,2.313,0,0,1-2.033.926A2.33,2.33,0,0,1,8.092-.788a4.706,4.706,0,0,1-.68-2.7V-4.939a4.847,4.847,0,0,1,.65-2.795A2.331,2.331,0,0,1,10.1-8.648a2.352,2.352,0,0,1,2.027.882A4.678,4.678,0,0,1,12.8-5.045ZM11.713-5.121a3.972,3.972,0,0,0-.387-2.007,1.331,1.331,0,0,0-1.225-.63,1.314,1.314,0,0,0-1.213.627A3.878,3.878,0,0,0,8.5-5.2v1.734a4.036,4.036,0,0,0,.4,2.042,1.329,1.329,0,0,0,1.216.659,1.31,1.31,0,0,0,1.192-.621,3.89,3.89,0,0,0,.407-1.957Zm2.525-2a1.5,1.5,0,0,1,.437-1.066,1.409,1.409,0,0,1,1.058-.457,1.381,1.381,0,0,1,1.04.454A1.5,1.5,0,0,1,17.2-7.125a1.46,1.46,0,0,1-.431,1.061,1.4,1.4,0,0,1-1.04.439,1.438,1.438,0,0,1-1.055-.439A1.445,1.445,0,0,1,14.238-7.125Zm1.494.75a.742.742,0,0,0,.533-.207.713.713,0,0,0,.217-.54.759.759,0,0,0-.217-.557.721.721,0,0,0-.533-.219.719.719,0,0,0-.542.231.765.765,0,0,0-.22.546.716.716,0,0,0,.22.531A.743.743,0,0,0,15.732-6.375Z" transform="translate(400 6716.535)" fill="#263238"/>
              <path id="Trazado_828865" data-name="Trazado 828865" d="M2.285-4.793H3.1a1.79,1.79,0,0,0,1.207-.4,1.351,1.351,0,0,0,.439-1.061,1.323,1.323,0,0,0-1.494-1.5,1.554,1.554,0,0,0-1.122.4,1.4,1.4,0,0,0-.419,1.063H.627a2.176,2.176,0,0,1,.741-1.685,2.7,2.7,0,0,1,1.884-.671,2.668,2.668,0,0,1,1.893.639A2.307,2.307,0,0,1,5.83-6.234a1.873,1.873,0,0,1-.36,1.078,2.176,2.176,0,0,1-.981.779,2.1,2.1,0,0,1,1.087.738,2.05,2.05,0,0,1,.384,1.26,2.327,2.327,0,0,1-.75,1.822A2.809,2.809,0,0,1,3.258.117,2.883,2.883,0,0,1,1.3-.533,2.158,2.158,0,0,1,.551-2.25h1.09A1.394,1.394,0,0,0,2.08-1.172a1.671,1.671,0,0,0,1.178.4,1.64,1.64,0,0,0,1.2-.41,1.581,1.581,0,0,0,.416-1.178A1.434,1.434,0,0,0,4.418-3.5,1.991,1.991,0,0,0,3.1-3.908H2.285ZM12.8-3.639a4.958,4.958,0,0,1-.65,2.83,2.313,2.313,0,0,1-2.033.926A2.33,2.33,0,0,1,8.092-.788a4.706,4.706,0,0,1-.68-2.7V-4.939a4.847,4.847,0,0,1,.65-2.795A2.331,2.331,0,0,1,10.1-8.648a2.352,2.352,0,0,1,2.027.882A4.678,4.678,0,0,1,12.8-5.045ZM11.713-5.121a3.972,3.972,0,0,0-.387-2.007,1.331,1.331,0,0,0-1.225-.63,1.314,1.314,0,0,0-1.213.627A3.878,3.878,0,0,0,8.5-5.2v1.734a4.036,4.036,0,0,0,.4,2.042,1.329,1.329,0,0,0,1.216.659,1.31,1.31,0,0,0,1.192-.621,3.89,3.89,0,0,0,.407-1.957Zm2.525-2a1.5,1.5,0,0,1,.437-1.066,1.409,1.409,0,0,1,1.058-.457,1.381,1.381,0,0,1,1.04.454A1.5,1.5,0,0,1,17.2-7.125a1.46,1.46,0,0,1-.431,1.061,1.4,1.4,0,0,1-1.04.439,1.438,1.438,0,0,1-1.055-.439A1.445,1.445,0,0,1,14.238-7.125Zm1.494.75a.742.742,0,0,0,.533-.207.713.713,0,0,0,.217-.54.759.759,0,0,0-.217-.557.721.721,0,0,0-.533-.219.719.719,0,0,0-.542.231.765.765,0,0,0-.22.546.716.716,0,0,0,.22.531A.743.743,0,0,0,15.732-6.375Z" transform="translate(400 6606.535)" fill="#263238"/>
              <path id="Trazado_828864" data-name="Trazado 828864" d="M5.285-2.865H6.469v.885H5.285V0H4.2V-1.98H.311v-.639l3.82-5.912H5.285Zm-3.744,0H4.2V-7.049l-.129.234ZM12.8-3.639a4.958,4.958,0,0,1-.65,2.83,2.313,2.313,0,0,1-2.033.926A2.33,2.33,0,0,1,8.092-.788a4.706,4.706,0,0,1-.68-2.7V-4.939a4.847,4.847,0,0,1,.65-2.795A2.331,2.331,0,0,1,10.1-8.648a2.352,2.352,0,0,1,2.027.882A4.678,4.678,0,0,1,12.8-5.045ZM11.713-5.121a3.972,3.972,0,0,0-.387-2.007,1.331,1.331,0,0,0-1.225-.63,1.314,1.314,0,0,0-1.213.627A3.878,3.878,0,0,0,8.5-5.2v1.734a4.036,4.036,0,0,0,.4,2.042,1.329,1.329,0,0,0,1.216.659,1.31,1.31,0,0,0,1.192-.621,3.89,3.89,0,0,0,.407-1.957Zm2.525-2a1.5,1.5,0,0,1,.437-1.066,1.409,1.409,0,0,1,1.058-.457,1.381,1.381,0,0,1,1.04.454A1.5,1.5,0,0,1,17.2-7.125a1.46,1.46,0,0,1-.431,1.061,1.4,1.4,0,0,1-1.04.439,1.438,1.438,0,0,1-1.055-.439A1.445,1.445,0,0,1,14.238-7.125Zm1.494.75a.742.742,0,0,0,.533-.207.713.713,0,0,0,.217-.54.759.759,0,0,0-.217-.557.721.721,0,0,0-.533-.219.719.719,0,0,0-.542.231.765.765,0,0,0-.22.546.716.716,0,0,0,.22.531A.743.743,0,0,0,15.732-6.375Z" transform="translate(400 6551.535)" fill="#263238"/>
              <g id="Grupo_1076991" data-name="Grupo 1076991" transform="translate(440.65 6607.035)">
                <g transform="matrix(1, 0, 0, 1, -243.65, -192.35)" filter="url(#Trazado_825235)">
                  <path id="Trazado_825235-3" data-name="Trazado 825235" d="M0,0H16.875V175.69H0Z" transform="translate(249.06 192.35)" fill="#63b4f4"/>
                </g>
                <g transform="matrix(1, 0, 0, 1, -243.65, -192.35)" filter="url(#Trazado_825236)">
                  <path id="Trazado_825236-3" data-name="Trazado 825236" d="M20.29,0A20.29,20.29,0,1,1,0,20.29,20.29,20.29,0,0,1,20.29,0Z" transform="translate(236.67 347.75)" fill="#64b4f4"/>
                </g>
              </g>
              <line id="Línea_4047" data-name="Línea 4047" x1="8.33" transform="translate(422.17 6601.035)" fill="none" stroke="#1d1d1b" stroke-linecap="round" stroke-width="0.5"/>
              <line id="Línea_4060" data-name="Línea 4060" x1="8.33" transform="translate(422.17 6547.035)" fill="none" stroke="#1d1d1b" stroke-linecap="round" stroke-width="0.5"/>
              <line id="Línea_4048" data-name="Línea 4048" x1="4.33" transform="translate(426.17 6607.035)" fill="none" stroke="#1d1d1b" stroke-linecap="round" stroke-width="0.5"/>
              <line id="Línea_4050" data-name="Línea 4050" x1="4.33" transform="translate(426.17 6595.035)" fill="none" stroke="#1d1d1b" stroke-linecap="round" stroke-width="0.5"/>
              <line id="Línea_4063" data-name="Línea 4063" x1="4.33" transform="translate(426.17 6637.035)" fill="none" stroke="#1d1d1b" stroke-linecap="round" stroke-width="0.5"/>
              <line id="Línea_4078" data-name="Línea 4078" x1="4.33" transform="translate(426.17 6682.035)" fill="none" stroke="#1d1d1b" stroke-linecap="round" stroke-width="0.5"/>
              <line id="Línea_4089" data-name="Línea 4089" x1="4.33" transform="translate(426.17 6747.035)" fill="none" stroke="#1d1d1b" stroke-linecap="round" stroke-width="0.5"/>
              <line id="Línea_4069" data-name="Línea 4069" x1="4.33" transform="translate(426.17 6667.035)" fill="none" stroke="#1d1d1b" stroke-linecap="round" stroke-width="0.5"/>
              <line id="Línea_4090" data-name="Línea 4090" x1="4.33" transform="translate(426.17 6732.035)" fill="none" stroke="#1d1d1b" stroke-linecap="round" stroke-width="0.5"/>
              <line id="Línea_4054" data-name="Línea 4054" x1="4.33" transform="translate(426.17 6575.035)" fill="none" stroke="#1d1d1b" stroke-linecap="round" stroke-width="0.5"/>
              <line id="Línea_4067" data-name="Línea 4067" x1="4.33" transform="translate(426.17 6617.035)" fill="none" stroke="#1d1d1b" stroke-linecap="round" stroke-width="0.5"/>
              <line id="Línea_4073" data-name="Línea 4073" x1="4.33" transform="translate(426.17 6647.035)" fill="none" stroke="#1d1d1b" stroke-linecap="round" stroke-width="0.5"/>
              <line id="Línea_4080" data-name="Línea 4080" x1="4.33" transform="translate(426.17 6692.035)" fill="none" stroke="#1d1d1b" stroke-linecap="round" stroke-width="0.5"/>
              <line id="Línea_4094" data-name="Línea 4094" x1="4.33" transform="translate(426.17 6757.035)" fill="none" stroke="#1d1d1b" stroke-linecap="round" stroke-width="0.5"/>
              <line id="Línea_4086" data-name="Línea 4086" x1="4.33" transform="translate(426.17 6722.035)" fill="none" stroke="#1d1d1b" stroke-linecap="round" stroke-width="0.5"/>
              <line id="Línea_4051" data-name="Línea 4051" x1="4.33" transform="translate(426.17 6590.035)" fill="none" stroke="#1d1d1b" stroke-linecap="round" stroke-width="0.5"/>
              <line id="Línea_4064" data-name="Línea 4064" x1="4.33" transform="translate(426.17 6632.035)" fill="none" stroke="#1d1d1b" stroke-linecap="round" stroke-width="0.5"/>
              <line id="Línea_4077" data-name="Línea 4077" x1="4.33" transform="translate(426.17 6677.035)" fill="none" stroke="#1d1d1b" stroke-linecap="round" stroke-width="0.5"/>
              <line id="Línea_4091" data-name="Línea 4091" x1="4.33" transform="translate(426.17 6742.035)" fill="none" stroke="#1d1d1b" stroke-linecap="round" stroke-width="0.5"/>
              <line id="Línea_4083" data-name="Línea 4083" x1="4.33" transform="translate(426.17 6707.035)" fill="none" stroke="#1d1d1b" stroke-linecap="round" stroke-width="0.5"/>
              <line id="Línea_4070" data-name="Línea 4070" x1="4.33" transform="translate(426.17 6662.035)" fill="none" stroke="#1d1d1b" stroke-linecap="round" stroke-width="0.5"/>
              <line id="Línea_4055" data-name="Línea 4055" x1="4.33" transform="translate(426.17 6570.035)" fill="none" stroke="#1d1d1b" stroke-linecap="round" stroke-width="0.5"/>
              <line id="Línea_4068" data-name="Línea 4068" x1="4.33" transform="translate(426.17 6612.035)" fill="none" stroke="#1d1d1b" stroke-linecap="round" stroke-width="0.5"/>
              <line id="Línea_4074" data-name="Línea 4074" x1="4.33" transform="translate(426.17 6642.035)" fill="none" stroke="#1d1d1b" stroke-linecap="round" stroke-width="0.5"/>
              <line id="Línea_4079" data-name="Línea 4079" x1="4.33" transform="translate(426.17 6687.035)" fill="none" stroke="#1d1d1b" stroke-linecap="round" stroke-width="0.5"/>
              <line id="Línea_4092" data-name="Línea 4092" x1="4.33" transform="translate(426.17 6752.035)" fill="none" stroke="#1d1d1b" stroke-linecap="round" stroke-width="0.5"/>
              <line id="Línea_4085" data-name="Línea 4085" x1="4.33" transform="translate(426.17 6717.035)" fill="none" stroke="#1d1d1b" stroke-linecap="round" stroke-width="0.5"/>
              <line id="Línea_4052" data-name="Línea 4052" x1="4.33" transform="translate(426.17 6585.035)" fill="none" stroke="#1d1d1b" stroke-linecap="round" stroke-width="0.5"/>
              <line id="Línea_4065" data-name="Línea 4065" x1="4.33" transform="translate(426.17 6627.035)" fill="none" stroke="#1d1d1b" stroke-linecap="round" stroke-width="0.5"/>
              <line id="Línea_4076" data-name="Línea 4076" x1="4.33" transform="translate(426.17 6672.035)" fill="none" stroke="#1d1d1b" stroke-linecap="round" stroke-width="0.5"/>
              <line id="Línea_4093" data-name="Línea 4093" x1="4.33" transform="translate(426.17 6737.035)" fill="none" stroke="#1d1d1b" stroke-linecap="round" stroke-width="0.5"/>
              <line id="Línea_4082" data-name="Línea 4082" x1="4.33" transform="translate(426.17 6702.035)" fill="none" stroke="#1d1d1b" stroke-linecap="round" stroke-width="0.5"/>
              <line id="Línea_4056" data-name="Línea 4056" x1="4.33" transform="translate(426.17 6565.035)" fill="none" stroke="#1d1d1b" stroke-linecap="round" stroke-width="0.5"/>
              <line id="Línea_4059" data-name="Línea 4059" x1="4.33" transform="translate(426.17 6555.035)" fill="none" stroke="#1d1d1b" stroke-linecap="round" stroke-width="0.5"/>
              <line id="Línea_4053" data-name="Línea 4053" x1="4.33" transform="translate(426.17 6580.035)" fill="none" stroke="#1d1d1b" stroke-linecap="round" stroke-width="0.5"/>
              <line id="Línea_4066" data-name="Línea 4066" x1="4.33" transform="translate(426.17 6622.035)" fill="none" stroke="#1d1d1b" stroke-linecap="round" stroke-width="0.5"/>
              <line id="Línea_4072" data-name="Línea 4072" x1="4.33" transform="translate(426.17 6652.035)" fill="none" stroke="#1d1d1b" stroke-linecap="round" stroke-width="0.5"/>
              <line id="Línea_4081" data-name="Línea 4081" x1="4.33" transform="translate(426.17 6697.035)" fill="none" stroke="#1d1d1b" stroke-linecap="round" stroke-width="0.5"/>
              <line id="Línea_4095" data-name="Línea 4095" x1="4.33" transform="translate(426.17 6762.035)" fill="none" stroke="#1d1d1b" stroke-linecap="round" stroke-width="0.5"/>
              <line id="Línea_4087" data-name="Línea 4087" x1="4.33" transform="translate(426.17 6727.035)" fill="none" stroke="#1d1d1b" stroke-linecap="round" stroke-width="0.5"/>
              <line id="Línea_4057" data-name="Línea 4057" x1="4.33" transform="translate(426.17 6560.035)" fill="none" stroke="#1d1d1b" stroke-linecap="round" stroke-width="0.5"/>
              <line id="Línea_4058" data-name="Línea 4058" x1="4.33" transform="translate(426.17 6550.035)" fill="none" stroke="#1d1d1b" stroke-linecap="round" stroke-width="0.5"/>
              <path id="Trazado_828866" data-name="Trazado 828866" d="M6.3,0H.709V-.779L3.662-4.061a7.016,7.016,0,0,0,.905-1.21,2.019,2.019,0,0,0,.249-.964,1.531,1.531,0,0,0-.4-1.1,1.414,1.414,0,0,0-1.078-.428,1.674,1.674,0,0,0-1.257.46,1.757,1.757,0,0,0-.448,1.28H.545a2.516,2.516,0,0,1,.759-1.9,2.813,2.813,0,0,1,2.03-.727,2.7,2.7,0,0,1,1.881.624,2.129,2.129,0,0,1,.691,1.661,4.88,4.88,0,0,1-1.605,3L2.016-.885H6.3Zm6.5-3.639a4.958,4.958,0,0,1-.65,2.83,2.313,2.313,0,0,1-2.033.926A2.33,2.33,0,0,1,8.092-.788a4.706,4.706,0,0,1-.68-2.7V-4.939a4.847,4.847,0,0,1,.65-2.795A2.331,2.331,0,0,1,10.1-8.648a2.352,2.352,0,0,1,2.027.882A4.678,4.678,0,0,1,12.8-5.045ZM11.713-5.121a3.972,3.972,0,0,0-.387-2.007,1.331,1.331,0,0,0-1.225-.63,1.314,1.314,0,0,0-1.213.627A3.878,3.878,0,0,0,8.5-5.2v1.734a4.036,4.036,0,0,0,.4,2.042,1.329,1.329,0,0,0,1.216.659,1.31,1.31,0,0,0,1.192-.621,3.89,3.89,0,0,0,.407-1.957Zm2.525-2a1.5,1.5,0,0,1,.437-1.066,1.409,1.409,0,0,1,1.058-.457,1.381,1.381,0,0,1,1.04.454A1.5,1.5,0,0,1,17.2-7.125a1.46,1.46,0,0,1-.431,1.061,1.4,1.4,0,0,1-1.04.439,1.438,1.438,0,0,1-1.055-.439A1.445,1.445,0,0,1,14.238-7.125Zm1.494.75a.742.742,0,0,0,.533-.207.713.713,0,0,0,.217-.54.759.759,0,0,0-.217-.557.721.721,0,0,0-.533-.219.719.719,0,0,0-.542.231.765.765,0,0,0-.22.546.716.716,0,0,0,.22.531A.743.743,0,0,0,15.732-6.375Z" transform="translate(400 6662.035)" fill="#263238"/>
              <line id="Línea_4075" data-name="Línea 4075" x1="8.33" transform="translate(422.17 6657.035)" fill="none" stroke="#1d1d1b" stroke-linecap="round" stroke-width="0.5"/>
              <line id="Línea_4088" data-name="Línea 4088" x1="8.33" transform="translate(422.17 6712.035)" fill="none" stroke="#1d1d1b" stroke-linecap="round" stroke-width="0.5"/>
              <path id="Trazado_825218" data-name="Trazado 825218" d="M-4031.423-5156.5V-4936" transform="translate(4464 11703.535)" fill="none" stroke="#12263f" stroke-width="0.7"/>
            </g>
          </g>
          <g id="Grupo_1080605" data-name="Grupo 1080605" transform="translate(25)">
            <path id="Trazado_828877" data-name="Trazado 828877" d="M8.606-9.514H5.178V0h-1.4V-9.514H.359v-1.15H8.606ZM12.539.146A3.463,3.463,0,0,1,9.917-.912,3.928,3.928,0,0,1,8.906-3.743v-.249A4.756,4.756,0,0,1,9.357-6.1a3.514,3.514,0,0,1,1.26-1.45,3.167,3.167,0,0,1,1.754-.524,2.968,2.968,0,0,1,2.4,1.018,4.408,4.408,0,0,1,.857,2.915v.564H10.261a2.817,2.817,0,0,0,.685,1.893,2.153,2.153,0,0,0,1.666.721,2.36,2.36,0,0,0,1.216-.293,3.055,3.055,0,0,0,.872-.776l.828.645A3.328,3.328,0,0,1,12.539.146Zm-.168-7.1a1.807,1.807,0,0,0-1.377.6,2.9,2.9,0,0,0-.688,1.674h3.97v-.1a2.581,2.581,0,0,0-.557-1.6A1.7,1.7,0,0,0,12.371-6.958Zm6.1-.967.037.879a2.927,2.927,0,0,1,2.351-1.025A2.266,2.266,0,0,1,23.123-6.8a3,3,0,0,1,1.029-.923,3.039,3.039,0,0,1,1.5-.352q2.607,0,2.651,2.761V0H26.946V-5.229A1.82,1.82,0,0,0,26.558-6.5a1.71,1.71,0,0,0-1.3-.421A1.8,1.8,0,0,0,24-6.471a1.827,1.827,0,0,0-.579,1.212V0H22.061V-5.193a1.512,1.512,0,0,0-1.692-1.729,1.813,1.813,0,0,0-1.824,1.135V0H17.19V-7.925Zm18.567,4.05a4.745,4.745,0,0,1-.828,2.915A2.653,2.653,0,0,1,33.97.146,2.906,2.906,0,0,1,31.7-.769V3.047H30.344V-7.925h1.238l.066.879a2.791,2.791,0,0,1,2.3-1.025,2.7,2.7,0,0,1,2.26,1.077,4.8,4.8,0,0,1,.831,3Zm-1.355-.154a3.5,3.5,0,0,0-.571-2.117,1.84,1.84,0,0,0-1.567-.776A1.992,1.992,0,0,0,31.7-5.83v3.787A2,2,0,0,0,33.56-.959a1.832,1.832,0,0,0,1.549-.773A3.822,3.822,0,0,0,35.684-4.028ZM42.048.146A3.463,3.463,0,0,1,39.426-.912a3.928,3.928,0,0,1-1.011-2.831v-.249a4.756,4.756,0,0,1,.45-2.106,3.514,3.514,0,0,1,1.26-1.45,3.167,3.167,0,0,1,1.754-.524,2.968,2.968,0,0,1,2.4,1.018,4.408,4.408,0,0,1,.857,2.915v.564H39.771a2.817,2.817,0,0,0,.685,1.893,2.153,2.153,0,0,0,1.666.721,2.36,2.36,0,0,0,1.216-.293,3.055,3.055,0,0,0,.872-.776l.828.645A3.328,3.328,0,0,1,42.048.146Zm-.168-7.1a1.807,1.807,0,0,0-1.377.6,2.9,2.9,0,0,0-.688,1.674h3.97v-.1a2.581,2.581,0,0,0-.557-1.6A1.7,1.7,0,0,0,41.88-6.958Zm8.657.249a4.061,4.061,0,0,0-.667-.051,1.786,1.786,0,0,0-1.809,1.135V0H46.707V-7.925h1.318l.022.916a2.11,2.11,0,0,1,1.89-1.062,1.384,1.384,0,0,1,.6.1ZM56.382,0a2.846,2.846,0,0,1-.19-.835,3.023,3.023,0,0,1-2.256.981,2.8,2.8,0,0,1-1.923-.663A2.145,2.145,0,0,1,51.262-2.2,2.24,2.24,0,0,1,52.2-4.12,4.437,4.437,0,0,1,54.851-4.8h1.318v-.623a1.522,1.522,0,0,0-.425-1.132,1.707,1.707,0,0,0-1.252-.421,1.976,1.976,0,0,0-1.216.366,1.079,1.079,0,0,0-.491.886H51.423a1.87,1.87,0,0,1,.421-1.146,2.874,2.874,0,0,1,1.143-.875,3.844,3.844,0,0,1,1.586-.322,3.133,3.133,0,0,1,2.146.685A2.47,2.47,0,0,1,57.524-5.5v3.647A4.459,4.459,0,0,0,57.8-.117V0ZM54.133-1.033a2.381,2.381,0,0,0,1.208-.33,1.994,1.994,0,0,0,.828-.857V-3.845H55.107q-2.49,0-2.49,1.458a1.234,1.234,0,0,0,.425,1A1.633,1.633,0,0,0,54.133-1.033Zm7.354-8.811v1.919h1.479v1.047H61.487v4.921a1.1,1.1,0,0,0,.2.715A.832.832,0,0,0,62.358-1,3.281,3.281,0,0,0,63-1.091V0a3.951,3.951,0,0,1-1.04.146A1.687,1.687,0,0,1,60.593-.4a2.36,2.36,0,0,1-.461-1.56V-6.877H58.689V-7.925h1.443V-9.844Zm7.954,9.06a2.878,2.878,0,0,1-2.322.93,2.464,2.464,0,0,1-1.93-.736,3.186,3.186,0,0,1-.67-2.179V-7.925h1.355v5.12q0,1.8,1.465,1.8A2.028,2.028,0,0,0,69.4-2.161V-7.925h1.355V0H69.47Zm7.207-5.925a4.061,4.061,0,0,0-.667-.051,1.786,1.786,0,0,0-1.809,1.135V0H72.817V-7.925h1.318l.022.916a2.11,2.11,0,0,1,1.89-1.062,1.384,1.384,0,0,1,.6.1ZM82.493,0a2.846,2.846,0,0,1-.19-.835,3.023,3.023,0,0,1-2.256.981,2.8,2.8,0,0,1-1.923-.663A2.145,2.145,0,0,1,77.373-2.2a2.24,2.24,0,0,1,.941-1.923A4.437,4.437,0,0,1,80.962-4.8H82.28v-.623a1.522,1.522,0,0,0-.425-1.132A1.707,1.707,0,0,0,80.6-6.98a1.976,1.976,0,0,0-1.216.366,1.079,1.079,0,0,0-.491.886H77.534a1.87,1.87,0,0,1,.421-1.146A2.874,2.874,0,0,1,79.1-7.749a3.844,3.844,0,0,1,1.586-.322,3.133,3.133,0,0,1,2.146.685A2.47,2.47,0,0,1,83.635-5.5v3.647a4.459,4.459,0,0,0,.278,1.736V0ZM80.244-1.033a2.381,2.381,0,0,0,1.208-.33,1.994,1.994,0,0,0,.828-.857V-3.845H81.218q-2.49,0-2.49,1.458a1.234,1.234,0,0,0,.425,1A1.633,1.633,0,0,0,80.244-1.033Zm8.9-3a4.642,4.642,0,0,1,.864-2.933,2.733,2.733,0,0,1,2.263-1.11,2.748,2.748,0,0,1,2.2.952V-11.25H95.83V0H94.585l-.066-.85a2.759,2.759,0,0,1-2.263,1A2.707,2.707,0,0,1,90.011-.981a4.7,4.7,0,0,1-.868-2.944Zm1.355.154a3.515,3.515,0,0,0,.557,2.109A1.8,1.8,0,0,0,92.593-1a1.977,1.977,0,0,0,1.882-1.157V-5.8a1.992,1.992,0,0,0-1.868-1.121,1.808,1.808,0,0,0-1.553.769A3.87,3.87,0,0,0,90.5-3.875ZM101.221.146A3.463,3.463,0,0,1,98.6-.912a3.928,3.928,0,0,1-1.011-2.831v-.249a4.756,4.756,0,0,1,.45-2.106,3.514,3.514,0,0,1,1.26-1.45,3.167,3.167,0,0,1,1.754-.524,2.968,2.968,0,0,1,2.4,1.018,4.408,4.408,0,0,1,.857,2.915v.564H98.943a2.817,2.817,0,0,0,.685,1.893,2.153,2.153,0,0,0,1.666.721,2.36,2.36,0,0,0,1.216-.293,3.055,3.055,0,0,0,.872-.776l.828.645A3.328,3.328,0,0,1,101.221.146Zm-.168-7.1a1.807,1.807,0,0,0-1.377.6,2.9,2.9,0,0,0-.688,1.674h3.97v-.1a2.581,2.581,0,0,0-.557-1.6A1.7,1.7,0,0,0,101.052-6.958ZM107.351,0H106V-11.25h1.355Zm10.774,0a2.846,2.846,0,0,1-.19-.835,3.023,3.023,0,0,1-2.256.981,2.8,2.8,0,0,1-1.923-.663,2.145,2.145,0,0,1-.751-1.681,2.24,2.24,0,0,1,.941-1.923,4.437,4.437,0,0,1,2.648-.685h1.318v-.623a1.522,1.522,0,0,0-.425-1.132,1.707,1.707,0,0,0-1.252-.421,1.976,1.976,0,0,0-1.216.366,1.079,1.079,0,0,0-.491.886h-1.362a1.87,1.87,0,0,1,.421-1.146,2.874,2.874,0,0,1,1.143-.875,3.844,3.844,0,0,1,1.586-.322,3.133,3.133,0,0,1,2.146.685,2.47,2.47,0,0,1,.806,1.886v3.647a4.459,4.459,0,0,0,.278,1.736V0Zm-2.249-1.033a2.381,2.381,0,0,0,1.208-.33,1.994,1.994,0,0,0,.828-.857V-3.845h-1.062q-2.49,0-2.49,1.458a1.234,1.234,0,0,0,.425,1A1.633,1.633,0,0,0,115.876-1.033Zm5.193-3a4.658,4.658,0,0,1,.857-2.948A2.741,2.741,0,0,1,124.2-8.071a2.726,2.726,0,0,1,2.263,1.025l.066-.879h1.238V-.19a3.224,3.224,0,0,1-.912,2.424,3.365,3.365,0,0,1-2.45.886,4.076,4.076,0,0,1-1.677-.366,2.887,2.887,0,0,1-1.252-1l.7-.813a2.65,2.65,0,0,0,2.131,1.077,2.076,2.076,0,0,0,1.542-.557A2.128,2.128,0,0,0,126.4-.11V-.791a2.785,2.785,0,0,1-2.219.938A2.707,2.707,0,0,1,121.93-.974,4.9,4.9,0,0,1,121.069-4.028Zm1.362.154a3.553,3.553,0,0,0,.549,2.106A1.785,1.785,0,0,0,124.519-1,1.985,1.985,0,0,0,126.4-2.168V-5.786a2.008,2.008,0,0,0-1.868-1.135,1.8,1.8,0,0,0-1.545.769A3.87,3.87,0,0,0,122.432-3.875ZM134.7-.784a2.878,2.878,0,0,1-2.322.93,2.464,2.464,0,0,1-1.93-.736,3.186,3.186,0,0,1-.67-2.179V-7.925h1.355v5.12q0,1.8,1.465,1.8a2.028,2.028,0,0,0,2.065-1.157V-7.925h1.355V0h-1.289ZM142.969,0a2.846,2.846,0,0,1-.19-.835,3.023,3.023,0,0,1-2.256.981A2.8,2.8,0,0,1,138.6-.516a2.145,2.145,0,0,1-.751-1.681,2.24,2.24,0,0,1,.941-1.923,4.437,4.437,0,0,1,2.648-.685h1.318v-.623a1.522,1.522,0,0,0-.425-1.132,1.707,1.707,0,0,0-1.252-.421,1.976,1.976,0,0,0-1.216.366,1.079,1.079,0,0,0-.491.886H138.01a1.87,1.87,0,0,1,.421-1.146,2.874,2.874,0,0,1,1.143-.875,3.844,3.844,0,0,1,1.586-.322,3.133,3.133,0,0,1,2.146.685,2.47,2.47,0,0,1,.806,1.886v3.647a4.459,4.459,0,0,0,.278,1.736V0ZM140.72-1.033a2.381,2.381,0,0,0,1.208-.33,1.994,1.994,0,0,0,.828-.857V-3.845h-1.062q-2.49,0-2.49,1.458a1.234,1.234,0,0,0,.425,1A1.633,1.633,0,0,0,140.72-1.033Z" transform="translate(669 6855)" fill="#263238"/>
            <path id="Trazado_828876" data-name="Trazado 828876" d="M8.035,0H.725V-1.45l3.45-3.677A8.51,8.51,0,0,0,5.226-6.482a2.177,2.177,0,0,0,.341-1.1A1.629,1.629,0,0,0,5.208-8.7,1.3,1.3,0,0,0,4.182-9.1a1.4,1.4,0,0,0-1.132.494,1.958,1.958,0,0,0-.414,1.3H.513a3.5,3.5,0,0,1,.465-1.78,3.278,3.278,0,0,1,1.315-1.263,4,4,0,0,1,1.926-.458,3.784,3.784,0,0,1,2.56.791A2.8,2.8,0,0,1,7.69-7.786a3.586,3.586,0,0,1-.41,1.611A8.954,8.954,0,0,1,5.874-4.263L3.45-1.707H8.035Zm8.247-7.83a2.48,2.48,0,0,1-.388,1.377,2.794,2.794,0,0,1-1.069.959,3.093,3.093,0,0,1,1.23,1.029,2.64,2.64,0,0,1,.454,1.542,2.8,2.8,0,0,1-.967,2.245,3.922,3.922,0,0,1-2.629.824,3.939,3.939,0,0,1-2.637-.828A2.788,2.788,0,0,1,9.3-2.922a2.657,2.657,0,0,1,.454-1.545,3.037,3.037,0,0,1,1.223-1.025,2.765,2.765,0,0,1-1.066-.959A2.5,2.5,0,0,1,9.529-7.83,2.764,2.764,0,0,1,10.437-10a3.576,3.576,0,0,1,2.468-.809,3.6,3.6,0,0,1,2.465.8A2.754,2.754,0,0,1,16.282-7.83Zm-1.9,4.753a1.536,1.536,0,0,0-.4-1.113A1.436,1.436,0,0,0,12.9-4.607a1.434,1.434,0,0,0-1.077.414,1.533,1.533,0,0,0-.4,1.117,1.532,1.532,0,0,0,.4,1.1,1.441,1.441,0,0,0,1.1.417,1.437,1.437,0,0,0,1.08-.4A1.529,1.529,0,0,0,14.385-3.076Zm-.22-4.651a1.465,1.465,0,0,0-.33-1,1.169,1.169,0,0,0-.93-.377,1.178,1.178,0,0,0-.923.366,1.456,1.456,0,0,0-.33,1.011,1.53,1.53,0,0,0,.33,1.025,1.153,1.153,0,0,0,.93.388,1.142,1.142,0,0,0,.927-.388A1.542,1.542,0,0,0,14.165-7.727Zm3.97-1.062a1.947,1.947,0,0,1,.593-1.428,1.914,1.914,0,0,1,1.4-.593,1.875,1.875,0,0,1,1.381.59,1.962,1.962,0,0,1,.582,1.432,1.913,1.913,0,0,1-.582,1.417,1.9,1.9,0,0,1-1.381.575,1.952,1.952,0,0,1-1.392-.575A1.884,1.884,0,0,1,18.135-8.789Zm1.992.908a.856.856,0,0,0,.641-.26.893.893,0,0,0,.253-.648.948.948,0,0,0-.253-.659.828.828,0,0,0-.641-.278.862.862,0,0,0-.652.278.926.926,0,0,0-.264.659.871.871,0,0,0,.267.645A.889.889,0,0,0,20.127-7.881Z" transform="translate(731 6827.535)" fill="#263238"/>
            <g id="Grupo_1080603" data-name="Grupo 1080603" transform="translate(-11)">
              <g id="Grupo_1076992" data-name="Grupo 1076992" transform="translate(4.529 9)">
                <g transform="matrix(1, 0, 0, 1, 166.47, 6405.68)" filter="url(#Trazado_825235-2)">
                  <path id="Trazado_825235-4" data-name="Trazado 825235" d="M0,0H16.875V175.69H0Z" transform="translate(592.13 192.35)" fill="#63b4f4"/>
                </g>
                <g transform="matrix(1, 0, 0, 1, 166.47, 6405.68)" filter="url(#Trazado_825236-2)">
                  <path id="Trazado_825236-4" data-name="Trazado 825236" d="M20.29,0A20.29,20.29,0,1,1,0,20.29,20.29,20.29,0,0,1,20.29,0Z" transform="translate(579.75 347.75)" fill="#64b4f4"/>
                </g>
              </g>
              <path id="Trazado_828875" data-name="Trazado 828875" d="M6.059-3.639a4.958,4.958,0,0,1-.65,2.83A2.313,2.313,0,0,1,3.375.117,2.33,2.33,0,0,1,1.354-.788a4.706,4.706,0,0,1-.68-2.7V-4.939a4.847,4.847,0,0,1,.65-2.795,2.331,2.331,0,0,1,2.039-.914,2.352,2.352,0,0,1,2.027.882,4.678,4.678,0,0,1,.668,2.722ZM4.975-5.121a3.972,3.972,0,0,0-.387-2.007,1.331,1.331,0,0,0-1.225-.63,1.314,1.314,0,0,0-1.213.627A3.878,3.878,0,0,0,1.758-5.2v1.734a4.036,4.036,0,0,0,.4,2.042,1.329,1.329,0,0,0,1.216.659,1.31,1.31,0,0,0,1.192-.621,3.89,3.89,0,0,0,.407-1.957Zm2.525-2a1.5,1.5,0,0,1,.437-1.066,1.409,1.409,0,0,1,1.058-.457,1.381,1.381,0,0,1,1.04.454,1.5,1.5,0,0,1,.431,1.069,1.46,1.46,0,0,1-.431,1.061,1.4,1.4,0,0,1-1.04.439,1.438,1.438,0,0,1-1.055-.439A1.445,1.445,0,0,1,7.5-7.125Zm1.494.75a.742.742,0,0,0,.533-.207.713.713,0,0,0,.217-.54.759.759,0,0,0-.217-.557A.721.721,0,0,0,8.994-7.9a.719.719,0,0,0-.542.231.765.765,0,0,0-.22.546.716.716,0,0,0,.22.531A.743.743,0,0,0,8.994-6.375Z" transform="translate(723 6772.535)" fill="#263238"/>
              <path id="Trazado_828874" data-name="Trazado 828874" d="M4.271,0H3.182V-7.225L1-6.422v-.984L4.1-8.572h.17ZM12.8-3.639a4.958,4.958,0,0,1-.65,2.83,2.313,2.313,0,0,1-2.033.926A2.33,2.33,0,0,1,8.092-.788a4.706,4.706,0,0,1-.68-2.7V-4.939a4.847,4.847,0,0,1,.65-2.795A2.331,2.331,0,0,1,10.1-8.648a2.352,2.352,0,0,1,2.027.882A4.678,4.678,0,0,1,12.8-5.045ZM11.713-5.121a3.972,3.972,0,0,0-.387-2.007,1.331,1.331,0,0,0-1.225-.63,1.314,1.314,0,0,0-1.213.627A3.878,3.878,0,0,0,8.5-5.2v1.734a4.036,4.036,0,0,0,.4,2.042,1.329,1.329,0,0,0,1.216.659,1.31,1.31,0,0,0,1.192-.621,3.89,3.89,0,0,0,.407-1.957Zm2.525-2a1.5,1.5,0,0,1,.437-1.066,1.409,1.409,0,0,1,1.058-.457,1.381,1.381,0,0,1,1.04.454A1.5,1.5,0,0,1,17.2-7.125a1.46,1.46,0,0,1-.431,1.061,1.4,1.4,0,0,1-1.04.439,1.438,1.438,0,0,1-1.055-.439A1.445,1.445,0,0,1,14.238-7.125Zm1.494.75a.742.742,0,0,0,.533-.207.713.713,0,0,0,.217-.54.759.759,0,0,0-.217-.557.721.721,0,0,0-.533-.219.719.719,0,0,0-.542.231.765.765,0,0,0-.22.546.716.716,0,0,0,.22.531A.743.743,0,0,0,15.732-6.375Z" transform="translate(715 6716.535)" fill="#263238"/>
              <path id="Trazado_828872" data-name="Trazado 828872" d="M2.285-4.793H3.1a1.79,1.79,0,0,0,1.207-.4,1.351,1.351,0,0,0,.439-1.061,1.323,1.323,0,0,0-1.494-1.5,1.554,1.554,0,0,0-1.122.4,1.4,1.4,0,0,0-.419,1.063H.627a2.176,2.176,0,0,1,.741-1.685,2.7,2.7,0,0,1,1.884-.671,2.668,2.668,0,0,1,1.893.639A2.307,2.307,0,0,1,5.83-6.234a1.873,1.873,0,0,1-.36,1.078,2.176,2.176,0,0,1-.981.779,2.1,2.1,0,0,1,1.087.738,2.05,2.05,0,0,1,.384,1.26,2.327,2.327,0,0,1-.75,1.822A2.809,2.809,0,0,1,3.258.117,2.883,2.883,0,0,1,1.3-.533,2.158,2.158,0,0,1,.551-2.25h1.09A1.394,1.394,0,0,0,2.08-1.172a1.671,1.671,0,0,0,1.178.4,1.64,1.64,0,0,0,1.2-.41,1.581,1.581,0,0,0,.416-1.178A1.434,1.434,0,0,0,4.418-3.5,1.991,1.991,0,0,0,3.1-3.908H2.285ZM12.8-3.639a4.958,4.958,0,0,1-.65,2.83,2.313,2.313,0,0,1-2.033.926A2.33,2.33,0,0,1,8.092-.788a4.706,4.706,0,0,1-.68-2.7V-4.939a4.847,4.847,0,0,1,.65-2.795A2.331,2.331,0,0,1,10.1-8.648a2.352,2.352,0,0,1,2.027.882A4.678,4.678,0,0,1,12.8-5.045ZM11.713-5.121a3.972,3.972,0,0,0-.387-2.007,1.331,1.331,0,0,0-1.225-.63,1.314,1.314,0,0,0-1.213.627A3.878,3.878,0,0,0,8.5-5.2v1.734a4.036,4.036,0,0,0,.4,2.042,1.329,1.329,0,0,0,1.216.659,1.31,1.31,0,0,0,1.192-.621,3.89,3.89,0,0,0,.407-1.957Zm2.525-2a1.5,1.5,0,0,1,.437-1.066,1.409,1.409,0,0,1,1.058-.457,1.381,1.381,0,0,1,1.04.454A1.5,1.5,0,0,1,17.2-7.125a1.46,1.46,0,0,1-.431,1.061,1.4,1.4,0,0,1-1.04.439,1.438,1.438,0,0,1-1.055-.439A1.445,1.445,0,0,1,14.238-7.125Zm1.494.75a.742.742,0,0,0,.533-.207.713.713,0,0,0,.217-.54.759.759,0,0,0-.217-.557.721.721,0,0,0-.533-.219.719.719,0,0,0-.542.231.765.765,0,0,0-.22.546.716.716,0,0,0,.22.531A.743.743,0,0,0,15.732-6.375Z" transform="translate(715 6606.535)" fill="#263238"/>
              <path id="Trazado_828871" data-name="Trazado 828871" d="M5.285-2.865H6.469v.885H5.285V0H4.2V-1.98H.311v-.639l3.82-5.912H5.285Zm-3.744,0H4.2V-7.049l-.129.234ZM12.8-3.639a4.958,4.958,0,0,1-.65,2.83,2.313,2.313,0,0,1-2.033.926A2.33,2.33,0,0,1,8.092-.788a4.706,4.706,0,0,1-.68-2.7V-4.939a4.847,4.847,0,0,1,.65-2.795A2.331,2.331,0,0,1,10.1-8.648a2.352,2.352,0,0,1,2.027.882A4.678,4.678,0,0,1,12.8-5.045ZM11.713-5.121a3.972,3.972,0,0,0-.387-2.007,1.331,1.331,0,0,0-1.225-.63,1.314,1.314,0,0,0-1.213.627A3.878,3.878,0,0,0,8.5-5.2v1.734a4.036,4.036,0,0,0,.4,2.042,1.329,1.329,0,0,0,1.216.659,1.31,1.31,0,0,0,1.192-.621,3.89,3.89,0,0,0,.407-1.957Zm2.525-2a1.5,1.5,0,0,1,.437-1.066,1.409,1.409,0,0,1,1.058-.457,1.381,1.381,0,0,1,1.04.454A1.5,1.5,0,0,1,17.2-7.125a1.46,1.46,0,0,1-.431,1.061,1.4,1.4,0,0,1-1.04.439,1.438,1.438,0,0,1-1.055-.439A1.445,1.445,0,0,1,14.238-7.125Zm1.494.75a.742.742,0,0,0,.533-.207.713.713,0,0,0,.217-.54.759.759,0,0,0-.217-.557.721.721,0,0,0-.533-.219.719.719,0,0,0-.542.231.765.765,0,0,0-.22.546.716.716,0,0,0,.22.531A.743.743,0,0,0,15.732-6.375Z" transform="translate(715 6551.535)" fill="#263238"/>
              <line id="Línea_4127" data-name="Línea 4127" x1="8.33" transform="translate(737.17 6601.035)" fill="none" stroke="#1d1d1b" stroke-linecap="round" stroke-width="0.5"/>
              <line id="Línea_4136" data-name="Línea 4136" x1="8.33" transform="translate(737.17 6547.035)" fill="none" stroke="#1d1d1b" stroke-linecap="round" stroke-width="0.5"/>
              <line id="Línea_4128" data-name="Línea 4128" x1="4.33" transform="translate(741.17 6607.035)" fill="none" stroke="#1d1d1b" stroke-linecap="round" stroke-width="0.5"/>
              <line id="Línea_4129" data-name="Línea 4129" x1="4.33" transform="translate(741.17 6595.035)" fill="none" stroke="#1d1d1b" stroke-linecap="round" stroke-width="0.5"/>
              <line id="Línea_4096" data-name="Línea 4096" x1="4.33" transform="translate(741.17 6637.035)" fill="none" stroke="#1d1d1b" stroke-linecap="round" stroke-width="0.5"/>
              <line id="Línea_4097" data-name="Línea 4097" x1="4.33" transform="translate(741.17 6682.035)" fill="none" stroke="#1d1d1b" stroke-linecap="round" stroke-width="0.5"/>
              <line id="Línea_4098" data-name="Línea 4098" x1="4.33" transform="translate(741.17 6747.035)" fill="none" stroke="#1d1d1b" stroke-linecap="round" stroke-width="0.5"/>
              <line id="Línea_4099" data-name="Línea 4099" x1="4.33" transform="translate(741.17 6667.035)" fill="none" stroke="#1d1d1b" stroke-linecap="round" stroke-width="0.5"/>
              <line id="Línea_4100" data-name="Línea 4100" x1="4.33" transform="translate(741.17 6732.035)" fill="none" stroke="#1d1d1b" stroke-linecap="round" stroke-width="0.5"/>
              <line id="Línea_4133" data-name="Línea 4133" x1="4.33" transform="translate(741.17 6575.035)" fill="none" stroke="#1d1d1b" stroke-linecap="round" stroke-width="0.5"/>
              <line id="Línea_4124" data-name="Línea 4124" x1="4.33" transform="translate(741.17 6617.035)" fill="none" stroke="#1d1d1b" stroke-linecap="round" stroke-width="0.5"/>
              <line id="Línea_4101" data-name="Línea 4101" x1="4.33" transform="translate(741.17 6647.035)" fill="none" stroke="#1d1d1b" stroke-linecap="round" stroke-width="0.5"/>
              <line id="Línea_4102" data-name="Línea 4102" x1="4.33" transform="translate(741.17 6692.035)" fill="none" stroke="#1d1d1b" stroke-linecap="round" stroke-width="0.5"/>
              <line id="Línea_4103" data-name="Línea 4103" x1="4.33" transform="translate(741.17 6757.035)" fill="none" stroke="#1d1d1b" stroke-linecap="round" stroke-width="0.5"/>
              <line id="Línea_4104" data-name="Línea 4104" x1="4.33" transform="translate(741.17 6722.035)" fill="none" stroke="#1d1d1b" stroke-linecap="round" stroke-width="0.5"/>
              <line id="Línea_4130" data-name="Línea 4130" x1="4.33" transform="translate(741.17 6590.035)" fill="none" stroke="#1d1d1b" stroke-linecap="round" stroke-width="0.5"/>
              <line id="Línea_4105" data-name="Línea 4105" x1="4.33" transform="translate(741.17 6632.035)" fill="none" stroke="#1d1d1b" stroke-linecap="round" stroke-width="0.5"/>
              <line id="Línea_4106" data-name="Línea 4106" x1="4.33" transform="translate(741.17 6677.035)" fill="none" stroke="#1d1d1b" stroke-linecap="round" stroke-width="0.5"/>
              <line id="Línea_4107" data-name="Línea 4107" x1="4.33" transform="translate(741.17 6742.035)" fill="none" stroke="#1d1d1b" stroke-linecap="round" stroke-width="0.5"/>
              <line id="Línea_4108" data-name="Línea 4108" x1="4.33" transform="translate(741.17 6707.035)" fill="none" stroke="#1d1d1b" stroke-linecap="round" stroke-width="0.5"/>
              <line id="Línea_4109" data-name="Línea 4109" x1="4.33" transform="translate(741.17 6662.035)" fill="none" stroke="#1d1d1b" stroke-linecap="round" stroke-width="0.5"/>
              <line id="Línea_4134" data-name="Línea 4134" x1="4.33" transform="translate(741.17 6570.035)" fill="none" stroke="#1d1d1b" stroke-linecap="round" stroke-width="0.5"/>
              <line id="Línea_4125" data-name="Línea 4125" x1="4.33" transform="translate(741.17 6612.035)" fill="none" stroke="#1d1d1b" stroke-linecap="round" stroke-width="0.5"/>
              <line id="Línea_4110" data-name="Línea 4110" x1="4.33" transform="translate(741.17 6642.035)" fill="none" stroke="#1d1d1b" stroke-linecap="round" stroke-width="0.5"/>
              <line id="Línea_4111" data-name="Línea 4111" x1="4.33" transform="translate(741.17 6687.035)" fill="none" stroke="#1d1d1b" stroke-linecap="round" stroke-width="0.5"/>
              <line id="Línea_4112" data-name="Línea 4112" x1="4.33" transform="translate(741.17 6752.035)" fill="none" stroke="#1d1d1b" stroke-linecap="round" stroke-width="0.5"/>
              <line id="Línea_4113" data-name="Línea 4113" x1="4.33" transform="translate(741.17 6717.035)" fill="none" stroke="#1d1d1b" stroke-linecap="round" stroke-width="0.5"/>
              <line id="Línea_4131" data-name="Línea 4131" x1="4.33" transform="translate(741.17 6585.035)" fill="none" stroke="#1d1d1b" stroke-linecap="round" stroke-width="0.5"/>
              <line id="Línea_4114" data-name="Línea 4114" x1="4.33" transform="translate(741.17 6627.035)" fill="none" stroke="#1d1d1b" stroke-linecap="round" stroke-width="0.5"/>
              <line id="Línea_4115" data-name="Línea 4115" x1="4.33" transform="translate(741.17 6672.035)" fill="none" stroke="#1d1d1b" stroke-linecap="round" stroke-width="0.5"/>
              <line id="Línea_4116" data-name="Línea 4116" x1="4.33" transform="translate(741.17 6737.035)" fill="none" stroke="#1d1d1b" stroke-linecap="round" stroke-width="0.5"/>
              <line id="Línea_4117" data-name="Línea 4117" x1="4.33" transform="translate(741.17 6702.035)" fill="none" stroke="#1d1d1b" stroke-linecap="round" stroke-width="0.5"/>
              <line id="Línea_4135" data-name="Línea 4135" x1="4.33" transform="translate(741.17 6565.035)" fill="none" stroke="#1d1d1b" stroke-linecap="round" stroke-width="0.5"/>
              <line id="Línea_4137" data-name="Línea 4137" x1="4.33" transform="translate(741.17 6555.035)" fill="none" stroke="#1d1d1b" stroke-linecap="round" stroke-width="0.5"/>
              <line id="Línea_4132" data-name="Línea 4132" x1="4.33" transform="translate(741.17 6580.035)" fill="none" stroke="#1d1d1b" stroke-linecap="round" stroke-width="0.5"/>
              <line id="Línea_4126" data-name="Línea 4126" x1="4.33" transform="translate(741.17 6622.035)" fill="none" stroke="#1d1d1b" stroke-linecap="round" stroke-width="0.5"/>
              <line id="Línea_4118" data-name="Línea 4118" x1="4.33" transform="translate(741.17 6652.035)" fill="none" stroke="#1d1d1b" stroke-linecap="round" stroke-width="0.5"/>
              <line id="Línea_4119" data-name="Línea 4119" x1="4.33" transform="translate(741.17 6697.035)" fill="none" stroke="#1d1d1b" stroke-linecap="round" stroke-width="0.5"/>
              <line id="Línea_4120" data-name="Línea 4120" x1="4.33" transform="translate(741.17 6762.035)" fill="none" stroke="#1d1d1b" stroke-linecap="round" stroke-width="0.5"/>
              <line id="Línea_4121" data-name="Línea 4121" x1="4.33" transform="translate(741.17 6727.035)" fill="none" stroke="#1d1d1b" stroke-linecap="round" stroke-width="0.5"/>
              <line id="Línea_4138" data-name="Línea 4138" x1="4.33" transform="translate(741.17 6560.035)" fill="none" stroke="#1d1d1b" stroke-linecap="round" stroke-width="0.5"/>
              <line id="Línea_4139" data-name="Línea 4139" x1="4.33" transform="translate(741.17 6550.035)" fill="none" stroke="#1d1d1b" stroke-linecap="round" stroke-width="0.5"/>
              <path id="Trazado_828873" data-name="Trazado 828873" d="M6.3,0H.709V-.779L3.662-4.061a7.016,7.016,0,0,0,.905-1.21,2.019,2.019,0,0,0,.249-.964,1.531,1.531,0,0,0-.4-1.1,1.414,1.414,0,0,0-1.078-.428,1.674,1.674,0,0,0-1.257.46,1.757,1.757,0,0,0-.448,1.28H.545a2.516,2.516,0,0,1,.759-1.9,2.813,2.813,0,0,1,2.03-.727,2.7,2.7,0,0,1,1.881.624,2.129,2.129,0,0,1,.691,1.661,4.88,4.88,0,0,1-1.605,3L2.016-.885H6.3Zm6.5-3.639a4.958,4.958,0,0,1-.65,2.83,2.313,2.313,0,0,1-2.033.926A2.33,2.33,0,0,1,8.092-.788a4.706,4.706,0,0,1-.68-2.7V-4.939a4.847,4.847,0,0,1,.65-2.795A2.331,2.331,0,0,1,10.1-8.648a2.352,2.352,0,0,1,2.027.882A4.678,4.678,0,0,1,12.8-5.045ZM11.713-5.121a3.972,3.972,0,0,0-.387-2.007,1.331,1.331,0,0,0-1.225-.63,1.314,1.314,0,0,0-1.213.627A3.878,3.878,0,0,0,8.5-5.2v1.734a4.036,4.036,0,0,0,.4,2.042,1.329,1.329,0,0,0,1.216.659,1.31,1.31,0,0,0,1.192-.621,3.89,3.89,0,0,0,.407-1.957Zm2.525-2a1.5,1.5,0,0,1,.437-1.066,1.409,1.409,0,0,1,1.058-.457,1.381,1.381,0,0,1,1.04.454A1.5,1.5,0,0,1,17.2-7.125a1.46,1.46,0,0,1-.431,1.061,1.4,1.4,0,0,1-1.04.439,1.438,1.438,0,0,1-1.055-.439A1.445,1.445,0,0,1,14.238-7.125Zm1.494.75a.742.742,0,0,0,.533-.207.713.713,0,0,0,.217-.54.759.759,0,0,0-.217-.557.721.721,0,0,0-.533-.219.719.719,0,0,0-.542.231.765.765,0,0,0-.22.546.716.716,0,0,0,.22.531A.743.743,0,0,0,15.732-6.375Z" transform="translate(715 6662.035)" fill="#263238"/>
              <line id="Línea_4122" data-name="Línea 4122" x1="8.33" transform="translate(737.17 6657.035)" fill="none" stroke="#1d1d1b" stroke-linecap="round" stroke-width="0.5"/>
              <line id="Línea_4123" data-name="Línea 4123" x1="8.33" transform="translate(737.17 6712.035)" fill="none" stroke="#1d1d1b" stroke-linecap="round" stroke-width="0.5"/>
              <path id="Trazado_825219" data-name="Trazado 825219" d="M-4031.423-5156.5V-4936" transform="translate(4779 11703.535)" fill="none" stroke="#12263f" stroke-width="0.7"/>
            </g>
          </g>
        </g>
        <path id="Trazado_828863" data-name="Trazado 828863" d="M9.434,0H8.02L2.651-8.218V0H1.238V-10.664H2.651L8.035-2.41v-8.254h1.4Zm7.178-.784a2.878,2.878,0,0,1-2.322.93A2.464,2.464,0,0,1,12.36-.59a3.186,3.186,0,0,1-.67-2.179V-7.925h1.355v5.12q0,1.8,1.465,1.8a2.028,2.028,0,0,0,2.065-1.157V-7.925H17.93V0H16.641ZM26.7-3.875a4.712,4.712,0,0,1-.835,2.919,2.668,2.668,0,0,1-2.241,1.1A2.763,2.763,0,0,1,21.3-.916L21.233,0H19.988V-11.25h1.355v4.2a2.747,2.747,0,0,1,2.263-1.018A2.684,2.684,0,0,1,25.873-6.98,4.853,4.853,0,0,1,26.7-3.992Zm-1.355-.154a3.662,3.662,0,0,0-.535-2.139,1.77,1.77,0,0,0-1.538-.754,1.989,1.989,0,0,0-1.926,1.245v3.428A2.045,2.045,0,0,0,23.284-1,1.76,1.76,0,0,0,24.8-1.758,3.894,3.894,0,0,0,25.342-4.028ZM29.875,0H28.521V-11.25h1.355Zm7.061,0a2.846,2.846,0,0,1-.19-.835A3.023,3.023,0,0,1,34.49.146a2.8,2.8,0,0,1-1.923-.663A2.145,2.145,0,0,1,31.816-2.2a2.24,2.24,0,0,1,.941-1.923A4.437,4.437,0,0,1,35.405-4.8h1.318v-.623A1.522,1.522,0,0,0,36.3-6.559a1.707,1.707,0,0,0-1.252-.421,1.976,1.976,0,0,0-1.216.366,1.079,1.079,0,0,0-.491.886H31.978A1.87,1.87,0,0,1,32.4-6.874a2.874,2.874,0,0,1,1.143-.875,3.844,3.844,0,0,1,1.586-.322,3.133,3.133,0,0,1,2.146.685A2.47,2.47,0,0,1,38.079-5.5v3.647a4.459,4.459,0,0,0,.278,1.736V0ZM34.688-1.033a2.381,2.381,0,0,0,1.208-.33,1.994,1.994,0,0,0,.828-.857V-3.845H35.662q-2.49,0-2.49,1.458a1.234,1.234,0,0,0,.425,1A1.633,1.633,0,0,0,34.688-1.033Zm5.186-3a4.642,4.642,0,0,1,.864-2.933A2.733,2.733,0,0,1,43-8.071a2.748,2.748,0,0,1,2.2.952V-11.25H46.56V0H45.315l-.066-.85a2.759,2.759,0,0,1-2.263,1A2.707,2.707,0,0,1,40.741-.981a4.7,4.7,0,0,1-.868-2.944Zm1.355.154a3.515,3.515,0,0,0,.557,2.109A1.8,1.8,0,0,0,43.323-1a1.977,1.977,0,0,0,1.882-1.157V-5.8a1.992,1.992,0,0,0-1.868-1.121,1.808,1.808,0,0,0-1.553.769A3.87,3.87,0,0,0,41.228-3.875ZM48.3-4.036a4.681,4.681,0,0,1,.458-2.095,3.415,3.415,0,0,1,1.274-1.436A3.469,3.469,0,0,1,51.9-8.071a3.342,3.342,0,0,1,2.618,1.121,4.311,4.311,0,0,1,1,2.981v.1A4.722,4.722,0,0,1,55.074-1.8,3.365,3.365,0,0,1,53.807-.366a3.509,3.509,0,0,1-1.893.513A3.334,3.334,0,0,1,49.3-.974a4.29,4.29,0,0,1-1-2.966Zm1.362.161a3.39,3.39,0,0,0,.612,2.117,1.957,1.957,0,0,0,1.637.8,1.945,1.945,0,0,0,1.641-.809,3.707,3.707,0,0,0,.608-2.267,3.384,3.384,0,0,0-.619-2.113A1.968,1.968,0,0,0,51.9-6.958a1.946,1.946,0,0,0-1.619.8A3.68,3.68,0,0,0,49.666-3.875Zm7.507,6L56.4,1.6a3.534,3.534,0,0,0,.718-1.978V-1.6h1.326V-.542A3.336,3.336,0,0,1,58.085.938,3.464,3.464,0,0,1,57.173,2.124ZM68.489-2.1a1,1,0,0,0-.414-.853,3.983,3.983,0,0,0-1.443-.524A6.822,6.822,0,0,1,65-4.006a2.324,2.324,0,0,1-.894-.732,1.752,1.752,0,0,1-.289-1.011A2.056,2.056,0,0,1,64.64-7.4a3.218,3.218,0,0,1,2.106-.674,3.311,3.311,0,0,1,2.186.7,2.21,2.21,0,0,1,.839,1.78H68.408a1.223,1.223,0,0,0-.472-.959,1.77,1.77,0,0,0-1.19-.4,1.852,1.852,0,0,0-1.157.322,1.014,1.014,0,0,0-.417.842.822.822,0,0,0,.388.74,4.776,4.776,0,0,0,1.4.476,7.308,7.308,0,0,1,1.644.542,2.4,2.4,0,0,1,.934.758,1.864,1.864,0,0,1,.3,1.08,2.028,2.028,0,0,1-.85,1.7,3.564,3.564,0,0,1-2.2.641A3.991,3.991,0,0,1,65.1-.19a2.74,2.74,0,0,1-1.146-.941,2.268,2.268,0,0,1-.414-1.307H64.9a1.4,1.4,0,0,0,.546,1.08,2.117,2.117,0,0,0,1.344.4,2.185,2.185,0,0,0,1.234-.311A.956.956,0,0,0,68.489-2.1ZM73.081,0H71.726V-7.925h1.355ZM71.616-10.027a.809.809,0,0,1,.2-.557.756.756,0,0,1,.6-.227.768.768,0,0,1,.6.227.8.8,0,0,1,.205.557.774.774,0,0,1-.205.549.782.782,0,0,1-.6.22.77.77,0,0,1-.6-.22A.782.782,0,0,1,71.616-10.027Zm4.915,2.1.044,1a2.888,2.888,0,0,1,2.373-1.143q2.512,0,2.534,2.834V0H80.127V-5.244a1.824,1.824,0,0,0-.392-1.267,1.57,1.57,0,0,0-1.2-.41,1.956,1.956,0,0,0-1.157.352,2.387,2.387,0,0,0-.776.923V0H75.249V-7.925Zm17.4,4.05a4.745,4.745,0,0,1-.828,2.915A2.653,2.653,0,0,1,90.864.146a2.906,2.906,0,0,1-2.271-.916V3.047H87.239V-7.925h1.238l.066.879a2.791,2.791,0,0,1,2.3-1.025A2.7,2.7,0,0,1,93.1-6.995a4.8,4.8,0,0,1,.831,3Zm-1.355-.154a3.5,3.5,0,0,0-.571-2.117,1.84,1.84,0,0,0-1.567-.776A1.992,1.992,0,0,0,88.594-5.83v3.787a2,2,0,0,0,1.86,1.084A1.832,1.832,0,0,0,92-1.732,3.822,3.822,0,0,0,92.578-4.028Zm6.907-2.681a4.061,4.061,0,0,0-.667-.051,1.786,1.786,0,0,0-1.809,1.135V0H95.654V-7.925h1.318l.022.916a2.11,2.11,0,0,1,1.89-1.062,1.384,1.384,0,0,1,.6.1ZM103.879.146a3.463,3.463,0,0,1-2.622-1.058,3.928,3.928,0,0,1-1.011-2.831v-.249A4.756,4.756,0,0,1,100.7-6.1a3.514,3.514,0,0,1,1.26-1.45,3.167,3.167,0,0,1,1.754-.524,2.968,2.968,0,0,1,2.4,1.018,4.408,4.408,0,0,1,.857,2.915v.564H101.6a2.817,2.817,0,0,0,.685,1.893,2.153,2.153,0,0,0,1.666.721,2.36,2.36,0,0,0,1.216-.293,3.055,3.055,0,0,0,.872-.776l.828.645A3.328,3.328,0,0,1,103.879.146Zm-.168-7.1a1.807,1.807,0,0,0-1.377.6,2.9,2.9,0,0,0-.688,1.674h3.97v-.1a2.581,2.581,0,0,0-.557-1.6A1.7,1.7,0,0,0,103.711-6.958Zm8.005,6a1.952,1.952,0,0,0,1.267-.439,1.546,1.546,0,0,0,.6-1.1h1.282a2.457,2.457,0,0,1-.469,1.3,3.087,3.087,0,0,1-1.154.981,3.329,3.329,0,0,1-1.527.366,3.265,3.265,0,0,1-2.574-1.08,4.3,4.3,0,0,1-.956-2.955v-.227a4.771,4.771,0,0,1,.425-2.058,3.236,3.236,0,0,1,1.219-1.4,3.464,3.464,0,0,1,1.879-.5,3.178,3.178,0,0,1,2.216.8,2.853,2.853,0,0,1,.941,2.073h-1.282A1.867,1.867,0,0,0,113-6.464a1.811,1.811,0,0,0-1.293-.494,1.9,1.9,0,0,0-1.6.743,3.491,3.491,0,0,0-.568,2.15v.256A3.422,3.422,0,0,0,110.1-1.7,1.906,1.906,0,0,0,111.716-.959ZM117.861,0h-1.355V-7.925h1.355ZM116.4-10.027a.809.809,0,0,1,.2-.557.756.756,0,0,1,.6-.227.768.768,0,0,1,.6.227.8.8,0,0,1,.205.557.774.774,0,0,1-.205.549.782.782,0,0,1-.6.22.77.77,0,0,1-.6-.22A.782.782,0,0,1,116.4-10.027Zm10.327,6.152A4.745,4.745,0,0,1,125.9-.959,2.653,2.653,0,0,1,123.655.146a2.906,2.906,0,0,1-2.271-.916V3.047h-1.355V-7.925h1.238l.066.879a2.791,2.791,0,0,1,2.3-1.025,2.7,2.7,0,0,1,2.26,1.077,4.8,4.8,0,0,1,.831,3Zm-1.355-.154a3.5,3.5,0,0,0-.571-2.117,1.84,1.84,0,0,0-1.567-.776,1.992,1.992,0,0,0-1.846,1.091v3.787a2,2,0,0,0,1.86,1.084,1.832,1.832,0,0,0,1.549-.773A3.822,3.822,0,0,0,125.369-4.028ZM129.917,0h-1.355V-7.925h1.355Zm-1.465-10.027a.809.809,0,0,1,.2-.557.756.756,0,0,1,.6-.227.768.768,0,0,1,.6.227.8.8,0,0,1,.205.557.774.774,0,0,1-.205.549.782.782,0,0,1-.6.22.77.77,0,0,1-.6-.22A.782.782,0,0,1,128.452-10.027Zm5.471.183v1.919H135.4v1.047h-1.479v4.921a1.1,1.1,0,0,0,.2.715.832.832,0,0,0,.674.238,3.281,3.281,0,0,0,.645-.088V0a3.951,3.951,0,0,1-1.04.146A1.687,1.687,0,0,1,133.03-.4a2.36,2.36,0,0,1-.461-1.56V-6.877h-1.443V-7.925h1.443V-9.844ZM141.877,0a2.846,2.846,0,0,1-.19-.835,3.023,3.023,0,0,1-2.256.981,2.8,2.8,0,0,1-1.923-.663,2.145,2.145,0,0,1-.751-1.681A2.24,2.24,0,0,1,137.7-4.12a4.437,4.437,0,0,1,2.648-.685h1.318v-.623a1.522,1.522,0,0,0-.425-1.132,1.707,1.707,0,0,0-1.252-.421,1.976,1.976,0,0,0-1.216.366,1.079,1.079,0,0,0-.491.886h-1.362a1.87,1.87,0,0,1,.421-1.146,2.874,2.874,0,0,1,1.143-.875,3.844,3.844,0,0,1,1.586-.322,3.133,3.133,0,0,1,2.146.685A2.47,2.47,0,0,1,143.02-5.5v3.647A4.459,4.459,0,0,0,143.3-.117V0Zm-2.249-1.033a2.381,2.381,0,0,0,1.208-.33,1.994,1.994,0,0,0,.828-.857V-3.845H140.6q-2.49,0-2.49,1.458a1.234,1.234,0,0,0,.425,1A1.633,1.633,0,0,0,139.629-1.033Zm8.694.073A1.952,1.952,0,0,0,149.59-1.4a1.546,1.546,0,0,0,.6-1.1h1.282A2.457,2.457,0,0,1,151-1.2a3.087,3.087,0,0,1-1.154.981,3.329,3.329,0,0,1-1.527.366,3.265,3.265,0,0,1-2.574-1.08,4.3,4.3,0,0,1-.956-2.955v-.227a4.771,4.771,0,0,1,.425-2.058,3.236,3.236,0,0,1,1.219-1.4,3.464,3.464,0,0,1,1.879-.5,3.178,3.178,0,0,1,2.216.8,2.853,2.853,0,0,1,.941,2.073H150.19a1.867,1.867,0,0,0-.582-1.263,1.811,1.811,0,0,0-1.293-.494,1.9,1.9,0,0,0-1.6.743,3.491,3.491,0,0,0-.568,2.15v.256a3.422,3.422,0,0,0,.564,2.109A1.906,1.906,0,0,0,148.323-.959ZM154.468,0h-1.355V-7.925h1.355ZM153-10.027a.809.809,0,0,1,.2-.557.756.756,0,0,1,.6-.227.768.768,0,0,1,.6.227.8.8,0,0,1,.205.557.774.774,0,0,1-.205.549.782.782,0,0,1-.6.22.77.77,0,0,1-.6-.22A.782.782,0,0,1,153-10.027Zm3.274,5.991a4.681,4.681,0,0,1,.458-2.095,3.415,3.415,0,0,1,1.274-1.436,3.469,3.469,0,0,1,1.864-.505,3.342,3.342,0,0,1,2.618,1.121,4.311,4.311,0,0,1,1,2.981v.1a4.722,4.722,0,0,1-.443,2.076,3.365,3.365,0,0,1-1.267,1.432,3.509,3.509,0,0,1-1.893.513,3.334,3.334,0,0,1-2.611-1.121,4.29,4.29,0,0,1-1-2.966Zm1.362.161a3.39,3.39,0,0,0,.612,2.117,1.957,1.957,0,0,0,1.637.8,1.945,1.945,0,0,0,1.641-.809,3.707,3.707,0,0,0,.608-2.267,3.384,3.384,0,0,0-.619-2.113,1.968,1.968,0,0,0-1.644-.809,1.946,1.946,0,0,0-1.619.8A3.68,3.68,0,0,0,157.639-3.875Zm8.833-4.05.044,1a2.888,2.888,0,0,1,2.373-1.143q2.512,0,2.534,2.834V0h-1.355V-5.244a1.824,1.824,0,0,0-.392-1.267,1.57,1.57,0,0,0-1.2-.41,1.956,1.956,0,0,0-1.157.352,2.387,2.387,0,0,0-.776.923V0H165.19V-7.925ZM176.755.146a3.463,3.463,0,0,1-2.622-1.058,3.928,3.928,0,0,1-1.011-2.831v-.249a4.756,4.756,0,0,1,.45-2.106,3.514,3.514,0,0,1,1.26-1.45,3.167,3.167,0,0,1,1.754-.524,2.968,2.968,0,0,1,2.4,1.018,4.408,4.408,0,0,1,.857,2.915v.564h-5.369a2.817,2.817,0,0,0,.685,1.893,2.153,2.153,0,0,0,1.666.721,2.36,2.36,0,0,0,1.216-.293,3.055,3.055,0,0,0,.872-.776l.828.645A3.328,3.328,0,0,1,176.755.146Zm-.168-7.1a1.807,1.807,0,0,0-1.377.6,2.9,2.9,0,0,0-.688,1.674h3.97v-.1a2.581,2.581,0,0,0-.557-1.6A1.7,1.7,0,0,0,176.587-6.958ZM186.028-2.1a1,1,0,0,0-.414-.853,3.983,3.983,0,0,0-1.443-.524,6.822,6.822,0,0,1-1.633-.527,2.324,2.324,0,0,1-.894-.732,1.752,1.752,0,0,1-.289-1.011,2.056,2.056,0,0,1,.824-1.648,3.218,3.218,0,0,1,2.106-.674,3.311,3.311,0,0,1,2.186.7,2.21,2.21,0,0,1,.839,1.78h-1.362a1.223,1.223,0,0,0-.472-.959,1.77,1.77,0,0,0-1.19-.4,1.852,1.852,0,0,0-1.157.322,1.014,1.014,0,0,0-.417.842.822.822,0,0,0,.388.74,4.776,4.776,0,0,0,1.4.476,7.308,7.308,0,0,1,1.644.542,2.4,2.4,0,0,1,.934.758,1.864,1.864,0,0,1,.3,1.08,2.028,2.028,0,0,1-.85,1.7,3.564,3.564,0,0,1-2.2.641,3.991,3.991,0,0,1-1.685-.337,2.74,2.74,0,0,1-1.146-.941,2.268,2.268,0,0,1-.414-1.307h1.355a1.4,1.4,0,0,0,.546,1.08,2.117,2.117,0,0,0,1.344.4,2.185,2.185,0,0,0,1.234-.311A.956.956,0,0,0,186.028-2.1Z" transform="translate(501 6513.546)" fill="#263238"/>
      </g>
    </g>
  </g>
</svg>
