<svg id="Grupo_1075629" data-name="Grupo 1075629" xmlns="http://www.w3.org/2000/svg" width="90" height="90" viewBox="0 0 90 90">
  <circle id="Elipse_4724" data-name="Elipse 4724" cx="45" cy="45" r="45" fill="#f7cd00"/>
  <g id="analitica" transform="translate(21.905 18)">
    <g id="Grupo_1075616" data-name="Grupo 1075616" transform="translate(7.136 2.63)">
      <path id="Trazado_823887" data-name="Trazado 823887" d="M125.685,31.6a15.95,15.95,0,0,0-4.8.736v6.691a9.776,9.776,0,1,1-4.668,6.044H109.92A15.96,15.96,0,1,0,125.685,31.6Z" transform="translate(-109.726 -31.601)" fill="#05e39c"/>
      <g id="Grupo_1075615" data-name="Grupo 1075615" transform="translate(14.253 0)">
        <path id="Trazado_823888" data-name="Trazado 823888" d="M242.069,31.6a16.084,16.084,0,0,0-1.7.092,15.959,15.959,0,0,1-.008,31.735,16.137,16.137,0,0,0,1.706.091,15.959,15.959,0,1,0,0-31.918Z" transform="translate(-240.363 -31.601)" fill="#0ed290"/>
      </g>
      <path id="Trazado_823889" data-name="Trazado 823889" d="M322.316,177.875a9.76,9.76,0,0,1-2.867,6.923l4.362,4.362a15.909,15.909,0,0,0,4.674-11.284h-6.169Z" transform="translate(-296.568 -161.916)" fill="#fd8087"/>
      <path id="Trazado_823890" data-name="Trazado 823890" d="M345.7,177.875a15.886,15.886,0,0,1-3.1,9.449l1.836,1.836a15.909,15.909,0,0,0,4.674-11.284H345.7Z" transform="translate(-317.198 -161.916)" fill="#fe646f"/>
      <path id="Trazado_823891" data-name="Trazado 823891" d="M256,31.6V37.77a9.79,9.79,0,0,1,9.79,9.79h6.169A15.959,15.959,0,0,0,256,31.6Z" transform="translate(-240.041 -31.601)" fill="#ffd15b"/>
      <path id="Trazado_823892" data-name="Trazado 823892" d="M256,31.6v.367A15.964,15.964,0,0,1,268.547,47.56h3.412A15.959,15.959,0,0,0,256,31.6Z" transform="translate(-240.041 -31.601)" fill="#ffc344"/>
      <line id="Línea_3825" data-name="Línea 3825" x2="6.169" transform="translate(25.749 15.959)" fill="none" stroke="#000" stroke-linecap="round" stroke-linejoin="round" stroke-miterlimit="10" stroke-width="1.5"/>
      <line id="Línea_3826" data-name="Línea 3826" x2="4.362" y2="4.362" transform="translate(22.881 22.881)" fill="none" stroke="#000" stroke-linecap="round" stroke-linejoin="round" stroke-miterlimit="10" stroke-width="1.5"/>
      <line id="Línea_3827" data-name="Línea 3827" y2="6.169" transform="translate(15.959 0)" fill="none" stroke="#000" stroke-linecap="round" stroke-linejoin="round" stroke-miterlimit="10" stroke-width="1.5"/>
      <path id="Trazado_823893" data-name="Trazado 823893" d="M141.22,51.226A15.97,15.97,0,0,0,120.992,32.3M109.9,45.18a15.961,15.961,0,0,0,29.042,11.261M120.992,38.966a9.778,9.778,0,1,1-4.805,6.214" transform="translate(-109.726 -31.601)" fill="none" stroke="#000" stroke-linecap="round" stroke-linejoin="round" stroke-miterlimit="10" stroke-width="1.5"/>
    </g>
    <g id="Grupo_1075619" data-name="Grupo 1075619" transform="translate(0 2.537)">
      <g id="Grupo_1075617" data-name="Grupo 1075617" transform="translate(32.32 0)">
        <path id="Trazado_823894" data-name="Trazado 823894" d="M340.558,37.775l6.706-6.706a1.091,1.091,0,0,1,.771-.32h6.392" transform="translate(-340.558 -30.75)" fill="none" stroke="#000" stroke-linecap="round" stroke-linejoin="round" stroke-miterlimit="10" stroke-width="1.5"/>
        <line id="Línea_3828" data-name="Línea 3828" x2="4.828" transform="translate(9.041 3.197)" fill="none" stroke="#000" stroke-linecap="round" stroke-linejoin="round" stroke-miterlimit="10" stroke-width="1.5"/>
        <line id="Línea_3829" data-name="Línea 3829" x2="4.828" transform="translate(9.041 6.393)" fill="none" stroke="#000" stroke-linecap="round" stroke-linejoin="round" stroke-miterlimit="10" stroke-width="1.5"/>
      </g>
      <g id="Grupo_1075618" data-name="Grupo 1075618" transform="translate(0 25.078)">
        <path id="Trazado_823895" data-name="Trazado 823895" d="M58.191,260.61l-6.706,6.706a1.091,1.091,0,0,1-.771.32H44.322" transform="translate(-44.322 -260.61)" fill="none" stroke="#000" stroke-linecap="round" stroke-linejoin="round" stroke-miterlimit="10" stroke-width="1.5"/>
        <line id="Línea_3830" data-name="Línea 3830" x1="4.828" transform="translate(0 3.828)" fill="none" stroke="#000" stroke-linecap="round" stroke-linejoin="round" stroke-miterlimit="10" stroke-width="1.5"/>
        <line id="Línea_3831" data-name="Línea 3831" x1="4.828" transform="translate(0 0.632)" fill="none" stroke="#000" stroke-linecap="round" stroke-linejoin="round" stroke-miterlimit="10" stroke-width="1.5"/>
      </g>
    </g>
    <g id="Grupo_1075625" data-name="Grupo 1075625" transform="translate(0 38.638)">
      <g id="Grupo_1075622" data-name="Grupo 1075622" transform="translate(0 0)">
        <g id="Grupo_1075620" data-name="Grupo 1075620" transform="translate(0 0)">
          <path id="Trazado_823896" data-name="Trazado 823896" d="M56.288,361.644H45.413a1.091,1.091,0,0,0-1.091,1.091v3.532a1.091,1.091,0,0,0,1.091,1.091H56.288Z" transform="translate(-44.322 -361.644)" fill="#ffd15b"/>
        </g>
        <g id="Grupo_1075621" data-name="Grupo 1075621" transform="translate(11.857 0)">
          <rect id="Rectángulo_377641" data-name="Rectángulo 377641" width="9.055" height="5.714" fill="#26a6fe"/>
        </g>
        <line id="Línea_3832" data-name="Línea 3832" y2="5.714" transform="translate(11.857 0)" fill="none" stroke="#000" stroke-linecap="round" stroke-linejoin="round" stroke-miterlimit="10" stroke-width="1.5"/>
        <path id="Trazado_823897" data-name="Trazado 823897" d="M260.386,366.266v-3.532a1.091,1.091,0,0,0-1.091-1.091H235v5.714h24.295A1.091,1.091,0,0,0,260.386,366.266Z" transform="translate(-214.197 -361.643)" fill="#bfbfbf"/>
        <line id="Línea_3833" data-name="Línea 3833" y2="5.714" transform="translate(20.803 0)" fill="none" stroke="#000" stroke-linecap="round" stroke-linejoin="round" stroke-miterlimit="10" stroke-width="1.5"/>
        <path id="Trazado_823898" data-name="Trazado 823898" d="M429.456,361.644H426a1.091,1.091,0,0,1,1.091,1.091v3.532A1.091,1.091,0,0,1,426,367.358h3.456a1.091,1.091,0,0,0,1.091-1.091v-3.532A1.091,1.091,0,0,0,429.456,361.644Z" transform="translate(-384.358 -361.644)" fill="#acacac"/>
        <path id="Trazado_823899" data-name="Trazado 823899" d="M51.269,367.357H89.42a1.091,1.091,0,0,0,1.091-1.091v-3.532a1.091,1.091,0,0,0-1.091-1.091H45.413a1.091,1.091,0,0,0-1.091,1.091v3.532a1.091,1.091,0,0,0,1.091,1.091h2.038" transform="translate(-44.322 -361.643)" fill="none" stroke="#000" stroke-linecap="round" stroke-linejoin="round" stroke-miterlimit="10" stroke-width="1.5"/>
      </g>
      <g id="Grupo_1075624" data-name="Grupo 1075624" transform="translate(0 9.872)">
        <g id="Grupo_1075623" data-name="Grupo 1075623">
          <path id="Trazado_823900" data-name="Trazado 823900" d="M74.877,452.124H45.413a1.091,1.091,0,0,0-1.091,1.091v3.532a1.091,1.091,0,0,0,1.091,1.091H74.877Z" transform="translate(-44.322 -452.124)" fill="#fe646f"/>
        </g>
        <path id="Trazado_823901" data-name="Trazado 823901" d="M338.037,452.124H323.385v5.714h14.652a1.091,1.091,0,0,0,1.091-1.091v-3.532A1.091,1.091,0,0,0,338.037,452.124Z" transform="translate(-292.939 -452.124)" fill="#bfbfbf"/>
        <line id="Línea_3834" data-name="Línea 3834" y2="5.714" transform="translate(30.446)" fill="none" stroke="#000" stroke-linecap="round" stroke-linejoin="round" stroke-miterlimit="10" stroke-width="1.5"/>
        <path id="Trazado_823902" data-name="Trazado 823902" d="M429.717,452.124h-3.424a1.091,1.091,0,0,1,1.091,1.091v3.532a1.091,1.091,0,0,1-1.091,1.091h3.424a1.091,1.091,0,0,0,1.091-1.091v-3.532A1.091,1.091,0,0,0,429.717,452.124Z" transform="translate(-384.619 -452.124)" fill="#acacac"/>
        <path id="Trazado_823903" data-name="Trazado 823903" d="M80.181,452.124H45.413a1.091,1.091,0,0,0-1.091,1.091v3.532a1.091,1.091,0,0,0,1.091,1.091H89.42a1.091,1.091,0,0,0,1.091-1.091v-3.532a1.091,1.091,0,0,0-1.091-1.091H84" transform="translate(-44.322 -452.124)" fill="none" stroke="#000" stroke-linecap="round" stroke-linejoin="round" stroke-miterlimit="10" stroke-width="1.5"/>
      </g>
    </g>
    <g id="Grupo_1075627" data-name="Grupo 1075627">
      <path id="Trazado_823904" data-name="Trazado 823904" d="M44.322,42.428V53.95a.876.876,0,0,0,.876.876H61.847a.876.876,0,0,0,.876-.876V42.428Z" transform="translate(-44.322 -38.617)" fill="#f9f3f1"/>
      <path id="Trazado_823905" data-name="Trazado 823905" d="M174.508,42.428V53.95a.876.876,0,0,1-.876.876h3.417a.876.876,0,0,0,.876-.876V42.428Z" transform="translate(-159.524 -38.617)" fill="#f3eae6"/>
      <path id="Trazado_823906" data-name="Trazado 823906" d="M44.322,49.643v5.023a.876.876,0,0,0,.876.876H61.847a.876.876,0,0,0,.876-.876V43.231h-18.4v2.593" transform="translate(-44.322 -39.333)" fill="none" stroke="#000" stroke-linecap="round" stroke-linejoin="round" stroke-miterlimit="10" stroke-width="1.5"/>
      <path id="Trazado_823907" data-name="Trazado 823907" d="M62.723,11.4h-18.4V8.375A.876.876,0,0,1,45.2,7.5H61.847a.876.876,0,0,1,.876.876V11.4Z" transform="translate(-44.322 -7.499)" fill="#26a6fe"/>
      <path id="Trazado_823908" data-name="Trazado 823908" d="M177.049,7.5h-3.417a.876.876,0,0,1,.876.876V11.4h3.417V8.376A.876.876,0,0,0,177.049,7.5Z" transform="translate(-159.524 -7.5)" fill="#0593fc"/>
      <path id="Trazado_823909" data-name="Trazado 823909" d="M62.723,11.4h-18.4V8.375A.876.876,0,0,1,45.2,7.5H61.847a.876.876,0,0,1,.876.876V11.4Z" transform="translate(-44.322 -7.499)" fill="none" stroke="#000" stroke-linecap="round" stroke-linejoin="round" stroke-miterlimit="10" stroke-width="1.5"/>
      <line id="Línea_3835" data-name="Línea 3835" x2="13.107" transform="translate(2.712 12.949)" fill="none" stroke="#000" stroke-linecap="round" stroke-linejoin="round" stroke-miterlimit="10" stroke-width="1.5"/>
      <g id="Grupo_1075626" data-name="Grupo 1075626" transform="translate(4.424 6.707)">
        <line id="Línea_3836" data-name="Línea 3836" y2="4.433" transform="translate(0 1.809)" fill="none" stroke="#000" stroke-linecap="round" stroke-linejoin="round" stroke-miterlimit="10" stroke-width="1.5"/>
        <line id="Línea_3837" data-name="Línea 3837" y2="3.528" transform="translate(3.228 2.714)" fill="none" stroke="#000" stroke-linecap="round" stroke-linejoin="round" stroke-miterlimit="10" stroke-width="1.5"/>
        <line id="Línea_3838" data-name="Línea 3838" y2="6.242" transform="translate(6.456)" fill="none" stroke="#000" stroke-linecap="round" stroke-linejoin="round" stroke-miterlimit="10" stroke-width="1.5"/>
        <line id="Línea_3839" data-name="Línea 3839" y2="2.623" transform="translate(9.684 3.619)" fill="none" stroke="#000" stroke-linecap="round" stroke-linejoin="round" stroke-miterlimit="10" stroke-width="1.5"/>
      </g>
    </g>
    <g id="Grupo_1075628" data-name="Grupo 1075628" transform="translate(36.355 22.255)">
      <path id="Trazado_823910" data-name="Trazado 823910" d="M384.843,211.483h-6.75a.553.553,0,0,0-.553.553v11.716a.553.553,0,0,0,.553.553h8.729a.553.553,0,0,0,.552-.553v-9.737a.552.552,0,0,0-.162-.391l-1.979-1.979A.553.553,0,0,0,384.843,211.483Z" transform="translate(-377.54 -211.483)" fill="#ffd15b"/>
      <path id="Trazado_823911" data-name="Trazado 823911" d="M418.746,213.624l-1.979-1.979a.553.553,0,0,0-.391-.162h-3.441a.553.553,0,0,1,.391.162l1.979,1.979a.553.553,0,0,1,.162.391v9.737a.553.553,0,0,1-.553.553h3.441a.553.553,0,0,0,.553-.553v-9.737A.554.554,0,0,0,418.746,213.624Z" transform="translate(-409.073 -211.483)" fill="#ffc344"/>
      <path id="Trazado_823912" data-name="Trazado 823912" d="M384.843,211.483h-6.75a.553.553,0,0,0-.553.553v11.716a.553.553,0,0,0,.553.553h8.729a.553.553,0,0,0,.552-.553v-9.737a.552.552,0,0,0-.162-.391l-1.979-1.979A.553.553,0,0,0,384.843,211.483Z" transform="translate(-377.54 -211.483)" fill="none" stroke="#000" stroke-linecap="round" stroke-linejoin="round" stroke-miterlimit="10" stroke-width="1.5"/>
      <line id="Línea_3840" data-name="Línea 3840" x2="3.54" transform="translate(3.147 3.774)" fill="none" stroke="#000" stroke-linecap="round" stroke-linejoin="round" stroke-miterlimit="10" stroke-width="1.5"/>
      <line id="Línea_3841" data-name="Línea 3841" x2="3.54" transform="translate(3.147 6.646)" fill="none" stroke="#000" stroke-linecap="round" stroke-linejoin="round" stroke-miterlimit="10" stroke-width="1.5"/>
      <line id="Línea_3842" data-name="Línea 3842" x2="1.694" transform="translate(3.147 9.518)" fill="none" stroke="#000" stroke-linecap="round" stroke-linejoin="round" stroke-miterlimit="10" stroke-width="1.5"/>
    </g>
  </g>
</svg>
